<?xml version="1.0" encoding="UTF-8" standalone="no"?>
<!DOCTYPE svg PUBLIC "-//W3C//DTD SVG 1.1//EN"
 "http://www.w3.org/Graphics/SVG/1.1/DTD/svg11.dtd">
<!-- Generated by graphviz version 2.38.0 (20140413.2041)
 -->
<!-- Title: applicationsense.h Pages: 1 -->
<svg width="734pt" height="308pt"
 viewBox="0.00 0.00 734.00 308.00" xmlns="http://www.w3.org/2000/svg" xmlns:xlink="http://www.w3.org/1999/xlink">
<g id="graph0" class="graph" transform="scale(1 1) rotate(0) translate(4 304)">
<title>applicationsense.h</title>
<!-- Node1 -->
<g id="node1" class="node"><title>Node1</title>
<g id="a_node1"><a xlink:title=" ">
<polygon fill="#bfbfbf" stroke="black" points="0,-280.5 0,-299.5 98,-299.5 98,-280.5 0,-280.5"/>
<text text-anchor="middle" x="49" y="-287.5" font-family="Helvetica,sans-Serif" font-size="10.00">applicationsense.h</text>
</a>
</g>
</g>
<!-- Node2 -->
<g id="node2" class="node"><title>Node2</title>
<g id="a_node2"><a xlink:title=" ">
<polygon fill="none" stroke="#bfbfbf" points="56.5,-168.5 56.5,-187.5 91.5,-187.5 91.5,-168.5 56.5,-168.5"/>
<text text-anchor="middle" x="74" y="-175.5" font-family="Helvetica,sans-Serif" font-size="10.00">map</text>
</a>
</g>
</g>
<!-- Node1&#45;&gt;Node2 -->
<g id="edge1" class="edge"><title>Node1&#45;&gt;Node2</title>
<path fill="none" stroke="midnightblue" d="M50.9617,-280.368C54.9961,-262.617 64.3031,-221.666 69.7733,-197.597"/>
<polygon fill="midnightblue" stroke="midnightblue" points="73.2441,-198.118 72.0474,-187.591 66.4182,-196.567 73.2441,-198.118"/>
</g>
<!-- Node3 -->
<g id="node3" class="node"><title>Node3</title>
<g id="a_node3"><a xlink:title=" ">
<polygon fill="none" stroke="#bfbfbf" points="92,-112.5 92,-131.5 136,-131.5 136,-112.5 92,-112.5"/>
<text text-anchor="middle" x="114" y="-119.5" font-family="Helvetica,sans-Serif" font-size="10.00">thread</text>
</a>
</g>
</g>
<!-- Node1&#45;&gt;Node3 -->
<g id="edge2" class="edge"><title>Node1&#45;&gt;Node3</title>
<path fill="none" stroke="midnightblue" d="M39.4444,-280.45C30.9115,-272.12 19.0108,-258.604 14,-244 3.03788,-212.051 -4.34036,-196.365 14,-168 28.9475,-144.882 58.9144,-133.523 82.1641,-128.015"/>
<polygon fill="midnightblue" stroke="midnightblue" points="82.9176,-131.433 91.9741,-125.935 81.4655,-124.585 82.9176,-131.433"/>
</g>
<!-- Node4 -->
<g id="node4" class="node"><title>Node4</title>
<g id="a_node4"><a xlink:title=" ">
<polygon fill="none" stroke="#bfbfbf" points="354,-112.5 354,-131.5 398,-131.5 398,-112.5 354,-112.5"/>
<text text-anchor="middle" x="376" y="-119.5" font-family="Helvetica,sans-Serif" font-size="10.00">mutex</text>
</a>
</g>
</g>
<!-- Node1&#45;&gt;Node4 -->
<g id="edge3" class="edge"><title>Node1&#45;&gt;Node4</title>
<path fill="none" stroke="midnightblue" d="M45.3941,-280.346C36.9067,-258.44 18.4489,-200.247 47,-168 90.779,-118.554 277.148,-144.479 342,-132 342.6,-131.885 343.204,-131.765 343.813,-131.64"/>
<polygon fill="midnightblue" stroke="midnightblue" points="344.826,-134.999 353.788,-129.348 343.258,-128.176 344.826,-134.999"/>
</g>
<!-- Node5 -->
<g id="node5" class="node"><title>Node5</title>
<g id="a_node5"><a xlink:href="srcontext_8h.html" target="_top" xlink:title=" ">
<polygon fill="none" stroke="black" points="271,-224.5 271,-243.5 407,-243.5 407,-224.5 271,-224.5"/>
<text text-anchor="middle" x="339" y="-231.5" font-family="Helvetica,sans-Serif" font-size="10.00">sr/management/srcontext.h</text>
</a>
</g>
</g>
<!-- Node1&#45;&gt;Node5 -->
<g id="edge4" class="edge"><title>Node1&#45;&gt;Node5</title>
<path fill="none" stroke="midnightblue" d="M94.9514,-280.444C146.071,-270.925 228.654,-255.547 283.383,-245.356"/>
<polygon fill="midnightblue" stroke="midnightblue" points="284.073,-248.788 293.264,-243.516 282.792,-241.906 284.073,-248.788"/>
</g>
<!-- Node5&#45;&gt;Node2 -->
<g id="edge6" class="edge"><title>Node5&#45;&gt;Node2</title>
<path fill="none" stroke="midnightblue" d="M282.262,-224.484C236.016,-217.042 168.904,-205.107 101.553,-187.838"/>
<polygon fill="midnightblue" stroke="midnightblue" points="102.176,-184.383 91.6165,-185.251 100.412,-191.158 102.176,-184.383"/>
</g>
<!-- Node6 -->
<g id="node6" class="node"><title>Node6</title>
<g id="a_node6"><a xlink:title=" ">
<polygon fill="none" stroke="#bfbfbf" points="482.5,-112.5 482.5,-131.5 523.5,-131.5 523.5,-112.5 482.5,-112.5"/>
<text text-anchor="middle" x="503" y="-119.5" font-family="Helvetica,sans-Serif" font-size="10.00">string</text>
</a>
</g>
</g>
<!-- Node5&#45;&gt;Node6 -->
<g id="edge5" class="edge"><title>Node5&#45;&gt;Node6</title>
<path fill="none" stroke="midnightblue" d="M407.235,-228.452C465.141,-223.002 541.802,-211.48 561,-188 575.91,-169.764 551.209,-149.658 529.577,-136.707"/>
<polygon fill="midnightblue" stroke="midnightblue" points="531.042,-133.514 520.618,-131.621 527.586,-139.602 531.042,-133.514"/>
</g>
<!-- Node7 -->
<g id="node7" class="node"><title>Node7</title>
<g id="a_node7"><a xlink:href="sense_8h.html" target="_top" xlink:title=" ">
<polygon fill="none" stroke="black" points="439.5,-168.5 439.5,-187.5 552.5,-187.5 552.5,-168.5 439.5,-168.5"/>
<text text-anchor="middle" x="496" y="-175.5" font-family="Helvetica,sans-Serif" font-size="10.00">sr/sense/core/sense.h</text>
</a>
</g>
</g>
<!-- Node5&#45;&gt;Node7 -->
<g id="edge7" class="edge"><title>Node5&#45;&gt;Node7</title>
<path fill="none" stroke="midnightblue" d="M363.877,-224.444C390.289,-215.359 432.215,-200.939 461.742,-190.783"/>
<polygon fill="midnightblue" stroke="midnightblue" points="462.921,-194.079 471.239,-187.516 460.645,-187.459 462.921,-194.079"/>
</g>
<!-- Node13 -->
<g id="node13" class="node"><title>Node13</title>
<g id="a_node13"><a xlink:href="worldobject_8h.html" target="_top" xlink:title=" ">
<polygon fill="none" stroke="black" points="609,-168.5 609,-187.5 719,-187.5 719,-168.5 609,-168.5"/>
<text text-anchor="middle" x="664" y="-175.5" font-family="Helvetica,sans-Serif" font-size="10.00">sr/world/worldobject.h</text>
</a>
</g>
</g>
<!-- Node5&#45;&gt;Node13 -->
<g id="edge16" class="edge"><title>Node5&#45;&gt;Node13</title>
<path fill="none" stroke="midnightblue" d="M390.497,-224.444C448.144,-214.865 541.49,-199.356 602.812,-189.167"/>
<polygon fill="midnightblue" stroke="midnightblue" points="603.453,-192.608 612.744,-187.516 602.305,-185.703 603.453,-192.608"/>
</g>
<!-- Node15 -->
<g id="node15" class="node"><title>Node15</title>
<g id="a_node15"><a xlink:href="networkinterface_8h.html" target="_top" xlink:title=" ">
<polygon fill="none" stroke="black" points="256.5,-168.5 256.5,-187.5 421.5,-187.5 421.5,-168.5 256.5,-168.5"/>
<text text-anchor="middle" x="339" y="-175.5" font-family="Helvetica,sans-Serif" font-size="10.00">sr/network/core/networkinterface.h</text>
</a>
</g>
</g>
<!-- Node5&#45;&gt;Node15 -->
<g id="edge20" class="edge"><title>Node5&#45;&gt;Node15</title>
<path fill="none" stroke="midnightblue" d="M339,-224.083C339,-217.006 339,-206.861 339,-197.986"/>
<polygon fill="midnightblue" stroke="midnightblue" points="342.5,-197.751 339,-187.751 335.5,-197.751 342.5,-197.751"/>
</g>
<!-- Node16 -->
<g id="node16" class="node"><title>Node16</title>
<g id="a_node16"><a xlink:href="receiver_8h.html" target="_top" xlink:title=" ">
<polygon fill="none" stroke="black" points="110,-168.5 110,-187.5 238,-187.5 238,-168.5 110,-168.5"/>
<text text-anchor="middle" x="174" y="-175.5" font-family="Helvetica,sans-Serif" font-size="10.00">sr/network/core/receiver.h</text>
</a>
</g>
</g>
<!-- Node5&#45;&gt;Node16 -->
<g id="edge21" class="edge"><title>Node5&#45;&gt;Node16</title>
<path fill="none" stroke="midnightblue" d="M312.855,-224.444C284.977,-215.32 240.652,-200.813 209.6,-190.651"/>
<polygon fill="midnightblue" stroke="midnightblue" points="210.615,-187.3 200.022,-187.516 208.438,-193.953 210.615,-187.3"/>
</g>
<!-- Node7&#45;&gt;Node3 -->
<g id="edge10" class="edge"><title>Node7&#45;&gt;Node3</title>
<path fill="none" stroke="midnightblue" d="M439.223,-168.974C357.912,-157.48 210.979,-136.709 146.181,-127.549"/>
<polygon fill="midnightblue" stroke="midnightblue" points="146.54,-124.065 136.148,-126.131 145.56,-130.996 146.54,-124.065"/>
</g>
<!-- Node7&#45;&gt;Node4 -->
<g id="edge11" class="edge"><title>Node7&#45;&gt;Node4</title>
<path fill="none" stroke="midnightblue" d="M476.986,-168.444C457.412,-159.636 426.692,-145.812 404.271,-135.722"/>
<polygon fill="midnightblue" stroke="midnightblue" points="405.481,-132.428 394.925,-131.516 402.608,-138.812 405.481,-132.428"/>
</g>
<!-- Node7&#45;&gt;Node6 -->
<g id="edge8" class="edge"><title>Node7&#45;&gt;Node6</title>
<path fill="none" stroke="midnightblue" d="M497.156,-168.083C498.084,-160.927 499.418,-150.635 500.577,-141.691"/>
<polygon fill="midnightblue" stroke="midnightblue" points="504.051,-142.118 501.866,-131.751 497.109,-141.218 504.051,-142.118"/>
</g>
<!-- Node8 -->
<g id="node8" class="node"><title>Node8</title>
<g id="a_node8"><a xlink:title=" ">
<polygon fill="none" stroke="#bfbfbf" points="418,-112.5 418,-131.5 464,-131.5 464,-112.5 418,-112.5"/>
<text text-anchor="middle" x="441" y="-119.5" font-family="Helvetica,sans-Serif" font-size="10.00">chrono</text>
</a>
</g>
</g>
<!-- Node7&#45;&gt;Node8 -->
<g id="edge9" class="edge"><title>Node7&#45;&gt;Node8</title>
<path fill="none" stroke="midnightblue" d="M486.918,-168.083C478.829,-160.141 466.805,-148.335 457.09,-138.797"/>
<polygon fill="midnightblue" stroke="midnightblue" points="459.501,-136.26 449.913,-131.751 454.597,-141.254 459.501,-136.26"/>
</g>
<!-- Node9 -->
<g id="node9" class="node"><title>Node9</title>
<g id="a_node9"><a xlink:href="transformation_8h.html" target="_top" xlink:title=" ">
<polygon fill="none" stroke="black" points="542,-112.5 542,-131.5 628,-131.5 628,-112.5 542,-112.5"/>
<text text-anchor="middle" x="585" y="-119.5" font-family="Helvetica,sans-Serif" font-size="10.00">transformation.h</text>
</a>
</g>
</g>
<!-- Node7&#45;&gt;Node9 -->
<g id="edge12" class="edge"><title>Node7&#45;&gt;Node9</title>
<path fill="none" stroke="midnightblue" d="M510.299,-168.324C524.183,-159.9 545.492,-146.971 561.804,-137.074"/>
<polygon fill="midnightblue" stroke="midnightblue" points="564.002,-139.834 570.736,-131.655 560.371,-133.85 564.002,-139.834"/>
</g>
<!-- Node10 -->
<g id="node10" class="node"><title>Node10</title>
<g id="a_node10"><a xlink:title=" ">
<polygon fill="none" stroke="#bfbfbf" points="595,-56.5 595,-75.5 699,-75.5 699,-56.5 595,-56.5"/>
<text text-anchor="middle" x="647" y="-63.5" font-family="Helvetica,sans-Serif" font-size="10.00">opencv2/opencv.hpp</text>
</a>
</g>
</g>
<!-- Node9&#45;&gt;Node10 -->
<g id="edge13" class="edge"><title>Node9&#45;&gt;Node10</title>
<path fill="none" stroke="midnightblue" d="M594.961,-112.324C604.127,-104.341 617.937,-92.3128 629.028,-82.6529"/>
<polygon fill="midnightblue" stroke="midnightblue" points="631.615,-85.041 636.857,-75.8339 627.018,-79.7624 631.615,-85.041"/>
</g>
<!-- Node11 -->
<g id="node11" class="node"><title>Node11</title>
<g id="a_node11"><a xlink:href="types_8h.html" target="_top" xlink:title=" ">
<polygon fill="none" stroke="black" points="508,-56.5 508,-75.5 568,-75.5 568,-56.5 508,-56.5"/>
<text text-anchor="middle" x="538" y="-63.5" font-family="Helvetica,sans-Serif" font-size="10.00">sr/types.h</text>
</a>
</g>
</g>
<!-- Node9&#45;&gt;Node11 -->
<g id="edge14" class="edge"><title>Node9&#45;&gt;Node11</title>
<path fill="none" stroke="midnightblue" d="M577.239,-112.083C570.463,-104.298 560.457,-92.8015 552.245,-83.3665"/>
<polygon fill="midnightblue" stroke="midnightblue" points="554.822,-80.9963 545.617,-75.7511 549.542,-85.592 554.822,-80.9963"/>
</g>
<!-- Node12 -->
<g id="node12" class="node"><title>Node12</title>
<g id="a_node12"><a xlink:title=" ">
<polygon fill="none" stroke="#bfbfbf" points="475.5,-0.5 475.5,-19.5 524.5,-19.5 524.5,-0.5 475.5,-0.5"/>
<text text-anchor="middle" x="500" y="-7.5" font-family="Helvetica,sans-Serif" font-size="10.00">stdint.h</text>
</a>
</g>
</g>
<!-- Node11&#45;&gt;Node12 -->
<g id="edge15" class="edge"><title>Node11&#45;&gt;Node12</title>
<path fill="none" stroke="midnightblue" d="M531.725,-56.083C526.358,-48.4554 518.482,-37.2645 511.921,-27.9408"/>
<polygon fill="midnightblue" stroke="midnightblue" points="514.775,-25.9149 506.158,-19.7511 509.051,-29.9434 514.775,-25.9149"/>
</g>
<!-- Node13&#45;&gt;Node9 -->
<g id="edge19" class="edge"><title>Node13&#45;&gt;Node9</title>
<path fill="none" stroke="midnightblue" d="M651.307,-168.324C639.099,-159.979 620.422,-147.212 605.997,-137.352"/>
<polygon fill="midnightblue" stroke="midnightblue" points="607.892,-134.408 597.661,-131.655 603.942,-140.187 607.892,-134.408"/>
</g>
<!-- Node13&#45;&gt;Node10 -->
<g id="edge18" class="edge"><title>Node13&#45;&gt;Node10</title>
<path fill="none" stroke="midnightblue" d="M662.666,-168.368C659.923,-150.617 653.594,-109.666 649.874,-85.5974"/>
<polygon fill="midnightblue" stroke="midnightblue" points="653.314,-84.9395 648.328,-75.5914 646.396,-86.0087 653.314,-84.9395"/>
</g>
<!-- Node14 -->
<g id="node14" class="node"><title>Node14</title>
<g id="a_node14"><a xlink:title=" ">
<polygon fill="none" stroke="#bfbfbf" points="684,-112.5 684,-131.5 726,-131.5 726,-112.5 684,-112.5"/>
<text text-anchor="middle" x="705" y="-119.5" font-family="Helvetica,sans-Serif" font-size="10.00">vector</text>
</a>
</g>
</g>
<!-- Node13&#45;&gt;Node14 -->
<g id="edge17" class="edge"><title>Node13&#45;&gt;Node14</title>
<path fill="none" stroke="midnightblue" d="M670.77,-168.083C676.562,-160.455 685.058,-149.264 692.138,-139.941"/>
<polygon fill="midnightblue" stroke="midnightblue" points="695.096,-141.832 698.356,-131.751 689.521,-137.599 695.096,-141.832"/>
</g>
<!-- Node17 -->
<g id="node17" class="node"><title>Node17</title>
<g id="a_node17"><a xlink:href="packet_8h.html" target="_top" xlink:title=" ">
<polygon fill="none" stroke="black" points="279,-112.5 279,-131.5 333,-131.5 333,-112.5 279,-112.5"/>
<text text-anchor="middle" x="306" y="-119.5" font-family="Helvetica,sans-Serif" font-size="10.00">packet.h</text>
</a>
</g>
</g>
<!-- Node16&#45;&gt;Node17 -->
<g id="edge22" class="edge"><title>Node16&#45;&gt;Node17</title>
<path fill="none" stroke="midnightblue" d="M194.916,-168.444C216.736,-159.517 251.15,-145.439 275.892,-135.317"/>
<polygon fill="midnightblue" stroke="midnightblue" points="277.252,-138.542 285.182,-131.516 274.601,-132.063 277.252,-138.542"/>
</g>
<!-- Node17&#45;&gt;Node12 -->
<g id="edge23" class="edge"><title>Node17&#45;&gt;Node12</title>
<path fill="none" stroke="midnightblue" d="M329.162,-112.483C350.483,-104.274 382.692,-90.9259 409,-76 435.557,-60.9328 463.827,-39.8476 481.683,-25.8244"/>
<polygon fill="midnightblue" stroke="midnightblue" points="483.909,-28.5268 489.56,-19.5649 479.553,-23.0467 483.909,-28.5268"/>
</g>
<!-- Node18 -->
<g id="node18" class="node"><title>Node18</title>
<g id="a_node18"><a xlink:title=" ">
<polygon fill="none" stroke="#bfbfbf" points="278,-56.5 278,-75.5 332,-75.5 332,-56.5 278,-56.5"/>
<text text-anchor="middle" x="305" y="-63.5" font-family="Helvetica,sans-Serif" font-size="10.00">iostream</text>
</a>
</g>
</g>
<!-- Node17&#45;&gt;Node18 -->
<g id="edge24" class="edge"><title>Node17&#45;&gt;Node18</title>
<path fill="none" stroke="midnightblue" d="M305.835,-112.083C305.704,-105.006 305.516,-94.8611 305.352,-85.9865"/>
<polygon fill="midnightblue" stroke="midnightblue" points="308.847,-85.6845 305.162,-75.7511 301.848,-85.8142 308.847,-85.6845"/>
</g>
<!-- Node19 -->
<g id="node19" class="node"><title>Node19</title>
<g id="a_node19"><a xlink:title=" ">
<polygon fill="none" stroke="#bfbfbf" points="350,-56.5 350,-75.5 400,-75.5 400,-56.5 350,-56.5"/>
<text text-anchor="middle" x="375" y="-63.5" font-family="Helvetica,sans-Serif" font-size="10.00">iomanip</text>
</a>
</g>
</g>
<!-- Node17&#45;&gt;Node19 -->
<g id="edge25" class="edge"><title>Node17&#45;&gt;Node19</title>
<path fill="none" stroke="midnightblue" d="M317.086,-112.324C327.486,-104.185 343.261,-91.8395 355.722,-82.0874"/>
<polygon fill="midnightblue" stroke="midnightblue" points="357.994,-84.7533 363.712,-75.8339 353.68,-79.2407 357.994,-84.7533"/>
</g>
</g>
</svg>
