<?xml version="1.0" encoding="UTF-8" standalone="no"?>
<!DOCTYPE svg PUBLIC "-//W3C//DTD SVG 1.1//EN"
 "http://www.w3.org/Graphics/SVG/1.1/DTD/svg11.dtd">
<!-- Generated by graphviz version 2.38.0 (20140413.2041)
 -->
<!-- Title: cameracontroller.h Pages: 1 -->
<svg width="1015pt" height="364pt"
 viewBox="0.00 0.00 1015.00 364.00" xmlns="http://www.w3.org/2000/svg" xmlns:xlink="http://www.w3.org/1999/xlink">
<g id="graph0" class="graph" transform="scale(1 1) rotate(0) translate(4 360)">
<title>cameracontroller.h</title>
<!-- Node1 -->
<g id="node1" class="node"><title>Node1</title>
<g id="a_node1"><a xlink:title=" ">
<polygon fill="#bfbfbf" stroke="black" points="564.5,-336.5 564.5,-355.5 661.5,-355.5 661.5,-336.5 564.5,-336.5"/>
<text text-anchor="middle" x="613" y="-343.5" font-family="Helvetica,sans-Serif" font-size="10.00">cameracontroller.h</text>
</a>
</g>
</g>
<!-- Node2 -->
<g id="node2" class="node"><title>Node2</title>
<g id="a_node2"><a xlink:title=" ">
<polygon fill="none" stroke="#bfbfbf" points="0,-112.5 0,-131.5 44,-131.5 44,-112.5 0,-112.5"/>
<text text-anchor="middle" x="22" y="-119.5" font-family="Helvetica,sans-Serif" font-size="10.00">mutex</text>
</a>
</g>
</g>
<!-- Node1&#45;&gt;Node2 -->
<g id="edge1" class="edge"><title>Node1&#45;&gt;Node2</title>
<path fill="none" stroke="midnightblue" d="M564.221,-337.86C439.982,-318.733 116.138,-262.682 41,-188 28.8933,-175.967 24.4077,-156.676 22.7928,-142.229"/>
<polygon fill="midnightblue" stroke="midnightblue" points="26.2575,-141.625 22.0224,-131.914 19.2769,-142.147 26.2575,-141.625"/>
</g>
<!-- Node3 -->
<g id="node3" class="node"><title>Node3</title>
<g id="a_node3"><a xlink:href="camera_8h.html" target="_top" xlink:title=" ">
<polygon fill="none" stroke="black" points="544,-280.5 544,-299.5 682,-299.5 682,-280.5 544,-280.5"/>
<text text-anchor="middle" x="613" y="-287.5" font-family="Helvetica,sans-Serif" font-size="10.00">sr/sense/cameras/camera.h</text>
</a>
</g>
</g>
<!-- Node1&#45;&gt;Node3 -->
<g id="edge2" class="edge"><title>Node1&#45;&gt;Node3</title>
<path fill="none" stroke="midnightblue" d="M613,-336.083C613,-329.006 613,-318.861 613,-309.986"/>
<polygon fill="midnightblue" stroke="midnightblue" points="616.5,-309.751 613,-299.751 609.5,-309.751 616.5,-309.751"/>
</g>
<!-- Node27 -->
<g id="node27" class="node"><title>Node27</title>
<g id="a_node27"><a xlink:href="exception_8h.html" target="_top" xlink:title=" ">
<polygon fill="none" stroke="black" points="769,-168.5 769,-187.5 873,-187.5 873,-168.5 769,-168.5"/>
<text text-anchor="middle" x="821" y="-175.5" font-family="Helvetica,sans-Serif" font-size="10.00">sr/utility/exception.h</text>
</a>
</g>
</g>
<!-- Node1&#45;&gt;Node27 -->
<g id="edge34" class="edge"><title>Node1&#45;&gt;Node27</title>
<path fill="none" stroke="midnightblue" d="M630.429,-336.4C646.712,-328.034 671.386,-314.495 691,-300 736.225,-266.579 782.993,-219.364 806.152,-194.972"/>
<polygon fill="midnightblue" stroke="midnightblue" points="808.759,-197.309 813.064,-187.628 803.661,-192.511 808.759,-197.309"/>
</g>
<!-- Node4 -->
<g id="node4" class="node"><title>Node4</title>
<g id="a_node4"><a xlink:href="sense_8h.html" target="_top" xlink:title=" ">
<polygon fill="none" stroke="black" points="50.5,-168.5 50.5,-187.5 163.5,-187.5 163.5,-168.5 50.5,-168.5"/>
<text text-anchor="middle" x="107" y="-175.5" font-family="Helvetica,sans-Serif" font-size="10.00">sr/sense/core/sense.h</text>
</a>
</g>
</g>
<!-- Node3&#45;&gt;Node4 -->
<g id="edge3" class="edge"><title>Node3&#45;&gt;Node4</title>
<path fill="none" stroke="midnightblue" d="M543.712,-282.177C481.28,-275.234 387.251,-262.801 307,-244 246.34,-229.789 177.683,-205.642 138.644,-191.12"/>
<polygon fill="midnightblue" stroke="midnightblue" points="139.739,-187.793 129.147,-187.559 137.282,-194.347 139.739,-187.793"/>
</g>
<!-- Node8 -->
<g id="node8" class="node"><title>Node8</title>
<g id="a_node8"><a xlink:href="transformation_8h.html" target="_top" xlink:title=" ">
<polygon fill="none" stroke="black" points="570,-112.5 570,-131.5 656,-131.5 656,-112.5 570,-112.5"/>
<text text-anchor="middle" x="613" y="-119.5" font-family="Helvetica,sans-Serif" font-size="10.00">transformation.h</text>
</a>
</g>
</g>
<!-- Node3&#45;&gt;Node8 -->
<g id="edge19" class="edge"><title>Node3&#45;&gt;Node8</title>
<path fill="none" stroke="midnightblue" d="M613,-280.075C613,-253.945 613,-177.211 613,-141.577"/>
<polygon fill="midnightblue" stroke="midnightblue" points="616.5,-141.568 613,-131.568 609.5,-141.568 616.5,-141.568"/>
</g>
<!-- Node12 -->
<g id="node12" class="node"><title>Node12</title>
<g id="a_node12"><a xlink:href="videostream_8h.html" target="_top" xlink:title=" ">
<polygon fill="none" stroke="black" points="862.5,-224.5 862.5,-243.5 939.5,-243.5 939.5,-224.5 862.5,-224.5"/>
<text text-anchor="middle" x="901" y="-231.5" font-family="Helvetica,sans-Serif" font-size="10.00">videostream.h</text>
</a>
</g>
</g>
<!-- Node3&#45;&gt;Node12 -->
<g id="edge12" class="edge"><title>Node3&#45;&gt;Node12</title>
<path fill="none" stroke="midnightblue" d="M658.634,-280.444C711.532,-270.525 798.351,-254.247 852.456,-244.102"/>
<polygon fill="midnightblue" stroke="midnightblue" points="853.308,-247.503 862.492,-242.22 852.018,-240.623 853.308,-247.503"/>
</g>
<!-- Node17 -->
<g id="node17" class="node"><title>Node17</title>
<g id="a_node17"><a xlink:href="cameradescriptor_8h.html" target="_top" xlink:title=" ">
<polygon fill="none" stroke="black" points="641,-224.5 641,-243.5 741,-243.5 741,-224.5 641,-224.5"/>
<text text-anchor="middle" x="691" y="-231.5" font-family="Helvetica,sans-Serif" font-size="10.00">cameradescriptor.h</text>
</a>
</g>
</g>
<!-- Node3&#45;&gt;Node17 -->
<g id="edge18" class="edge"><title>Node3&#45;&gt;Node17</title>
<path fill="none" stroke="midnightblue" d="M625.532,-280.324C637.586,-271.979 656.027,-259.212 670.269,-249.352"/>
<polygon fill="midnightblue" stroke="midnightblue" points="672.269,-252.224 678.499,-243.655 668.285,-246.469 672.269,-252.224"/>
</g>
<!-- Node18 -->
<g id="node18" class="node"><title>Node18</title>
<g id="a_node18"><a xlink:href="srcontext_8h.html" target="_top" xlink:title=" ">
<polygon fill="none" stroke="black" points="316,-224.5 316,-243.5 452,-243.5 452,-224.5 316,-224.5"/>
<text text-anchor="middle" x="384" y="-231.5" font-family="Helvetica,sans-Serif" font-size="10.00">sr/management/srcontext.h</text>
</a>
</g>
</g>
<!-- Node3&#45;&gt;Node18 -->
<g id="edge20" class="edge"><title>Node3&#45;&gt;Node18</title>
<path fill="none" stroke="midnightblue" d="M576.714,-280.444C537.017,-271.083 473.293,-256.056 430.088,-245.868"/>
<polygon fill="midnightblue" stroke="midnightblue" points="430.652,-242.405 420.116,-243.516 429.046,-249.218 430.652,-242.405"/>
</g>
<!-- Node4&#45;&gt;Node2 -->
<g id="edge7" class="edge"><title>Node4&#45;&gt;Node2</title>
<path fill="none" stroke="midnightblue" d="M93.3433,-168.324C80.0837,-159.9 59.732,-146.971 44.1538,-137.074"/>
<polygon fill="midnightblue" stroke="midnightblue" points="45.9404,-134.063 35.6228,-131.655 42.1867,-139.971 45.9404,-134.063"/>
</g>
<!-- Node5 -->
<g id="node5" class="node"><title>Node5</title>
<g id="a_node5"><a xlink:title=" ">
<polygon fill="none" stroke="#bfbfbf" points="188.5,-112.5 188.5,-131.5 229.5,-131.5 229.5,-112.5 188.5,-112.5"/>
<text text-anchor="middle" x="209" y="-119.5" font-family="Helvetica,sans-Serif" font-size="10.00">string</text>
</a>
</g>
</g>
<!-- Node4&#45;&gt;Node5 -->
<g id="edge4" class="edge"><title>Node4&#45;&gt;Node5</title>
<path fill="none" stroke="midnightblue" d="M123.388,-168.324C139.671,-159.703 164.867,-146.364 183.716,-136.386"/>
<polygon fill="midnightblue" stroke="midnightblue" points="185.452,-139.427 192.653,-131.655 182.177,-133.24 185.452,-139.427"/>
</g>
<!-- Node6 -->
<g id="node6" class="node"><title>Node6</title>
<g id="a_node6"><a xlink:title=" ">
<polygon fill="none" stroke="#bfbfbf" points="124,-112.5 124,-131.5 170,-131.5 170,-112.5 124,-112.5"/>
<text text-anchor="middle" x="147" y="-119.5" font-family="Helvetica,sans-Serif" font-size="10.00">chrono</text>
</a>
</g>
</g>
<!-- Node4&#45;&gt;Node6 -->
<g id="edge5" class="edge"><title>Node4&#45;&gt;Node6</title>
<path fill="none" stroke="midnightblue" d="M113.605,-168.083C119.255,-160.455 127.545,-149.264 134.451,-139.941"/>
<polygon fill="midnightblue" stroke="midnightblue" points="137.378,-141.87 140.518,-131.751 131.753,-137.703 137.378,-141.87"/>
</g>
<!-- Node7 -->
<g id="node7" class="node"><title>Node7</title>
<g id="a_node7"><a xlink:title=" ">
<polygon fill="none" stroke="#bfbfbf" points="62,-112.5 62,-131.5 106,-131.5 106,-112.5 62,-112.5"/>
<text text-anchor="middle" x="84" y="-119.5" font-family="Helvetica,sans-Serif" font-size="10.00">thread</text>
</a>
</g>
</g>
<!-- Node4&#45;&gt;Node7 -->
<g id="edge6" class="edge"><title>Node4&#45;&gt;Node7</title>
<path fill="none" stroke="midnightblue" d="M103.202,-168.083C100.087,-160.77 95.5772,-150.181 91.7107,-141.103"/>
<polygon fill="midnightblue" stroke="midnightblue" points="94.8661,-139.58 87.7273,-131.751 88.4259,-142.323 94.8661,-139.58"/>
</g>
<!-- Node4&#45;&gt;Node8 -->
<g id="edge8" class="edge"><title>Node4&#45;&gt;Node8</title>
<path fill="none" stroke="midnightblue" d="M163.572,-170.963C262.105,-160.447 463.857,-138.916 559.904,-128.666"/>
<polygon fill="midnightblue" stroke="midnightblue" points="560.399,-132.133 569.971,-127.592 559.656,-125.173 560.399,-132.133"/>
</g>
<!-- Node9 -->
<g id="node9" class="node"><title>Node9</title>
<g id="a_node9"><a xlink:title=" ">
<polygon fill="none" stroke="#bfbfbf" points="617,-56.5 617,-75.5 721,-75.5 721,-56.5 617,-56.5"/>
<text text-anchor="middle" x="669" y="-63.5" font-family="Helvetica,sans-Serif" font-size="10.00">opencv2/opencv.hpp</text>
</a>
</g>
</g>
<!-- Node8&#45;&gt;Node9 -->
<g id="edge9" class="edge"><title>Node8&#45;&gt;Node9</title>
<path fill="none" stroke="midnightblue" d="M621.997,-112.324C630.194,-104.42 642.506,-92.5482 652.472,-82.9377"/>
<polygon fill="midnightblue" stroke="midnightblue" points="655.07,-85.2947 659.839,-75.8339 650.211,-80.2558 655.07,-85.2947"/>
</g>
<!-- Node10 -->
<g id="node10" class="node"><title>Node10</title>
<g id="a_node10"><a xlink:href="types_8h.html" target="_top" xlink:title=" ">
<polygon fill="none" stroke="black" points="528,-56.5 528,-75.5 588,-75.5 588,-56.5 528,-56.5"/>
<text text-anchor="middle" x="558" y="-63.5" font-family="Helvetica,sans-Serif" font-size="10.00">sr/types.h</text>
</a>
</g>
</g>
<!-- Node8&#45;&gt;Node10 -->
<g id="edge10" class="edge"><title>Node8&#45;&gt;Node10</title>
<path fill="none" stroke="midnightblue" d="M603.918,-112.083C595.829,-104.141 583.805,-92.3354 574.09,-82.7973"/>
<polygon fill="midnightblue" stroke="midnightblue" points="576.501,-80.2595 566.913,-75.7511 571.597,-85.2545 576.501,-80.2595"/>
</g>
<!-- Node11 -->
<g id="node11" class="node"><title>Node11</title>
<g id="a_node11"><a xlink:title=" ">
<polygon fill="none" stroke="#bfbfbf" points="461.5,-0.5 461.5,-19.5 510.5,-19.5 510.5,-0.5 461.5,-0.5"/>
<text text-anchor="middle" x="486" y="-7.5" font-family="Helvetica,sans-Serif" font-size="10.00">stdint.h</text>
</a>
</g>
</g>
<!-- Node10&#45;&gt;Node11 -->
<g id="edge11" class="edge"><title>Node10&#45;&gt;Node11</title>
<path fill="none" stroke="midnightblue" d="M546.432,-56.324C535.58,-48.1849 519.119,-35.8395 506.117,-26.0874"/>
<polygon fill="midnightblue" stroke="midnightblue" points="507.879,-23.0339 497.779,-19.8339 503.679,-28.6339 507.879,-23.0339"/>
</g>
<!-- Node13 -->
<g id="node13" class="node"><title>Node13</title>
<g id="a_node13"><a xlink:href="videoframe_8h.html" target="_top" xlink:title=" ">
<polygon fill="none" stroke="black" points="874.5,-112.5 874.5,-131.5 945.5,-131.5 945.5,-112.5 874.5,-112.5"/>
<text text-anchor="middle" x="910" y="-119.5" font-family="Helvetica,sans-Serif" font-size="10.00">videoframe.h</text>
</a>
</g>
</g>
<!-- Node12&#45;&gt;Node13 -->
<g id="edge13" class="edge"><title>Node12&#45;&gt;Node13</title>
<path fill="none" stroke="midnightblue" d="M901.706,-224.368C903.159,-206.617 906.509,-165.666 908.478,-141.597"/>
<polygon fill="midnightblue" stroke="midnightblue" points="911.97,-141.844 909.297,-131.591 904.993,-141.273 911.97,-141.844"/>
</g>
<!-- Node16 -->
<g id="node16" class="node"><title>Node16</title>
<g id="a_node16"><a xlink:href="videolistener_8h.html" target="_top" xlink:title=" ">
<polygon fill="none" stroke="black" points="929,-168.5 929,-187.5 1007,-187.5 1007,-168.5 929,-168.5"/>
<text text-anchor="middle" x="968" y="-175.5" font-family="Helvetica,sans-Serif" font-size="10.00">videolistener.h</text>
</a>
</g>
</g>
<!-- Node12&#45;&gt;Node16 -->
<g id="edge16" class="edge"><title>Node12&#45;&gt;Node16</title>
<path fill="none" stroke="midnightblue" d="M911.765,-224.324C921.766,-216.263 936.887,-204.077 948.93,-194.369"/>
<polygon fill="midnightblue" stroke="midnightblue" points="951.45,-196.834 957.039,-187.834 947.057,-191.384 951.45,-196.834"/>
</g>
<!-- Node14 -->
<g id="node14" class="node"><title>Node14</title>
<g id="a_node14"><a xlink:title=" ">
<polygon fill="none" stroke="#bfbfbf" points="904,-56.5 904,-75.5 956,-75.5 956,-56.5 904,-56.5"/>
<text text-anchor="middle" x="930" y="-63.5" font-family="Helvetica,sans-Serif" font-size="10.00">memory</text>
</a>
</g>
</g>
<!-- Node13&#45;&gt;Node14 -->
<g id="edge14" class="edge"><title>Node13&#45;&gt;Node14</title>
<path fill="none" stroke="midnightblue" d="M913.303,-112.083C915.982,-104.849 919.849,-94.4087 923.186,-85.3968"/>
<polygon fill="midnightblue" stroke="midnightblue" points="926.568,-86.3442 926.759,-75.7511 920.004,-83.9129 926.568,-86.3442"/>
</g>
<!-- Node15 -->
<g id="node15" class="node"><title>Node15</title>
<g id="a_node15"><a xlink:title=" ">
<polygon fill="none" stroke="#bfbfbf" points="774,-56.5 774,-75.5 886,-75.5 886,-56.5 774,-56.5"/>
<text text-anchor="middle" x="830" y="-63.5" font-family="Helvetica,sans-Serif" font-size="10.00">opencv2/core/mat.hpp</text>
</a>
</g>
</g>
<!-- Node13&#45;&gt;Node15 -->
<g id="edge15" class="edge"><title>Node13&#45;&gt;Node15</title>
<path fill="none" stroke="midnightblue" d="M897.147,-112.324C884.784,-103.979 865.87,-91.2122 851.263,-81.3524"/>
<polygon fill="midnightblue" stroke="midnightblue" points="853.068,-78.3483 842.821,-75.6545 849.152,-84.1503 853.068,-78.3483"/>
</g>
<!-- Node16&#45;&gt;Node13 -->
<g id="edge17" class="edge"><title>Node16&#45;&gt;Node13</title>
<path fill="none" stroke="midnightblue" d="M958.681,-168.324C950.107,-160.341 937.188,-148.313 926.812,-138.653"/>
<polygon fill="midnightblue" stroke="midnightblue" points="929.192,-136.086 919.488,-131.834 924.422,-141.21 929.192,-136.086"/>
</g>
<!-- Node18&#45;&gt;Node4 -->
<g id="edge23" class="edge"><title>Node18&#45;&gt;Node4</title>
<path fill="none" stroke="midnightblue" d="M340.109,-224.444C291.483,-214.964 213.054,-199.675 160.776,-189.483"/>
<polygon fill="midnightblue" stroke="midnightblue" points="161.171,-185.995 150.686,-187.516 159.832,-192.865 161.171,-185.995"/>
</g>
<!-- Node18&#45;&gt;Node5 -->
<g id="edge21" class="edge"><title>Node18&#45;&gt;Node5</title>
<path fill="none" stroke="midnightblue" d="M320.269,-224.499C276.834,-217.268 224.792,-205.283 211,-188 200.776,-175.188 201.505,-156.001 204.053,-141.792"/>
<polygon fill="midnightblue" stroke="midnightblue" points="207.547,-142.202 206.311,-131.68 200.715,-140.676 207.547,-142.202"/>
</g>
<!-- Node19 -->
<g id="node19" class="node"><title>Node19</title>
<g id="a_node19"><a xlink:title=" ">
<polygon fill="none" stroke="#bfbfbf" points="366.5,-168.5 366.5,-187.5 401.5,-187.5 401.5,-168.5 366.5,-168.5"/>
<text text-anchor="middle" x="384" y="-175.5" font-family="Helvetica,sans-Serif" font-size="10.00">map</text>
</a>
</g>
</g>
<!-- Node18&#45;&gt;Node19 -->
<g id="edge22" class="edge"><title>Node18&#45;&gt;Node19</title>
<path fill="none" stroke="midnightblue" d="M384,-224.083C384,-217.006 384,-206.861 384,-197.986"/>
<polygon fill="midnightblue" stroke="midnightblue" points="387.5,-197.751 384,-187.751 380.5,-197.751 387.5,-197.751"/>
</g>
<!-- Node20 -->
<g id="node20" class="node"><title>Node20</title>
<g id="a_node20"><a xlink:href="worldobject_8h.html" target="_top" xlink:title=" ">
<polygon fill="none" stroke="black" points="641,-168.5 641,-187.5 751,-187.5 751,-168.5 641,-168.5"/>
<text text-anchor="middle" x="696" y="-175.5" font-family="Helvetica,sans-Serif" font-size="10.00">sr/world/worldobject.h</text>
</a>
</g>
</g>
<!-- Node18&#45;&gt;Node20 -->
<g id="edge24" class="edge"><title>Node18&#45;&gt;Node20</title>
<path fill="none" stroke="midnightblue" d="M433.437,-224.444C488.664,-214.885 578.021,-199.419 636.895,-189.23"/>
<polygon fill="midnightblue" stroke="midnightblue" points="637.537,-192.671 646.794,-187.516 636.344,-185.773 637.537,-192.671"/>
</g>
<!-- Node22 -->
<g id="node22" class="node"><title>Node22</title>
<g id="a_node22"><a xlink:href="networkinterface_8h.html" target="_top" xlink:title=" ">
<polygon fill="none" stroke="black" points="419.5,-168.5 419.5,-187.5 584.5,-187.5 584.5,-168.5 419.5,-168.5"/>
<text text-anchor="middle" x="502" y="-175.5" font-family="Helvetica,sans-Serif" font-size="10.00">sr/network/core/networkinterface.h</text>
</a>
</g>
</g>
<!-- Node18&#45;&gt;Node22 -->
<g id="edge28" class="edge"><title>Node18&#45;&gt;Node22</title>
<path fill="none" stroke="midnightblue" d="M402.697,-224.444C421.944,-215.636 452.152,-201.812 474.2,-191.722"/>
<polygon fill="midnightblue" stroke="midnightblue" points="475.753,-194.86 483.39,-187.516 472.84,-188.495 475.753,-194.86"/>
</g>
<!-- Node23 -->
<g id="node23" class="node"><title>Node23</title>
<g id="a_node23"><a xlink:href="receiver_8h.html" target="_top" xlink:title=" ">
<polygon fill="none" stroke="black" points="220,-168.5 220,-187.5 348,-187.5 348,-168.5 220,-168.5"/>
<text text-anchor="middle" x="284" y="-175.5" font-family="Helvetica,sans-Serif" font-size="10.00">sr/network/core/receiver.h</text>
</a>
</g>
</g>
<!-- Node18&#45;&gt;Node23 -->
<g id="edge29" class="edge"><title>Node18&#45;&gt;Node23</title>
<path fill="none" stroke="midnightblue" d="M367.933,-224.324C352.042,-215.743 327.493,-202.486 309.042,-192.522"/>
<polygon fill="midnightblue" stroke="midnightblue" points="310.489,-189.326 300.027,-187.655 307.163,-195.486 310.489,-189.326"/>
</g>
<!-- Node20&#45;&gt;Node8 -->
<g id="edge27" class="edge"><title>Node20&#45;&gt;Node8</title>
<path fill="none" stroke="midnightblue" d="M682.665,-168.324C669.838,-159.979 650.215,-147.212 635.06,-137.352"/>
<polygon fill="midnightblue" stroke="midnightblue" points="636.593,-134.174 626.302,-131.655 632.776,-140.042 636.593,-134.174"/>
</g>
<!-- Node20&#45;&gt;Node9 -->
<g id="edge26" class="edge"><title>Node20&#45;&gt;Node9</title>
<path fill="none" stroke="midnightblue" d="M693.881,-168.368C689.524,-150.617 679.473,-109.666 673.565,-85.5974"/>
<polygon fill="midnightblue" stroke="midnightblue" points="676.892,-84.4688 671.109,-75.5914 670.094,-86.1375 676.892,-84.4688"/>
</g>
<!-- Node21 -->
<g id="node21" class="node"><title>Node21</title>
<g id="a_node21"><a xlink:title=" ">
<polygon fill="none" stroke="#bfbfbf" points="725,-112.5 725,-131.5 767,-131.5 767,-112.5 725,-112.5"/>
<text text-anchor="middle" x="746" y="-119.5" font-family="Helvetica,sans-Serif" font-size="10.00">vector</text>
</a>
</g>
</g>
<!-- Node20&#45;&gt;Node21 -->
<g id="edge25" class="edge"><title>Node20&#45;&gt;Node21</title>
<path fill="none" stroke="midnightblue" d="M704.256,-168.083C711.465,-160.298 722.11,-148.801 730.846,-139.367"/>
<polygon fill="midnightblue" stroke="midnightblue" points="733.671,-141.467 737.897,-131.751 728.535,-136.711 733.671,-141.467"/>
</g>
<!-- Node24 -->
<g id="node24" class="node"><title>Node24</title>
<g id="a_node24"><a xlink:href="packet_8h.html" target="_top" xlink:title=" ">
<polygon fill="none" stroke="black" points="268,-112.5 268,-131.5 322,-131.5 322,-112.5 268,-112.5"/>
<text text-anchor="middle" x="295" y="-119.5" font-family="Helvetica,sans-Serif" font-size="10.00">packet.h</text>
</a>
</g>
</g>
<!-- Node23&#45;&gt;Node24 -->
<g id="edge30" class="edge"><title>Node23&#45;&gt;Node24</title>
<path fill="none" stroke="midnightblue" d="M285.816,-168.083C287.274,-160.927 289.371,-150.635 291.193,-141.691"/>
<polygon fill="midnightblue" stroke="midnightblue" points="294.651,-142.248 293.217,-131.751 287.792,-140.851 294.651,-142.248"/>
</g>
<!-- Node24&#45;&gt;Node11 -->
<g id="edge31" class="edge"><title>Node24&#45;&gt;Node11</title>
<path fill="none" stroke="midnightblue" d="M309.987,-112.368C343.042,-93.3318 422.423,-47.6153 462.298,-24.6505"/>
<polygon fill="midnightblue" stroke="midnightblue" points="464.163,-27.6151 471.082,-19.5914 460.67,-21.5492 464.163,-27.6151"/>
</g>
<!-- Node25 -->
<g id="node25" class="node"><title>Node25</title>
<g id="a_node25"><a xlink:title=" ">
<polygon fill="none" stroke="#bfbfbf" points="289,-56.5 289,-75.5 343,-75.5 343,-56.5 289,-56.5"/>
<text text-anchor="middle" x="316" y="-63.5" font-family="Helvetica,sans-Serif" font-size="10.00">iostream</text>
</a>
</g>
</g>
<!-- Node24&#45;&gt;Node25 -->
<g id="edge32" class="edge"><title>Node24&#45;&gt;Node25</title>
<path fill="none" stroke="midnightblue" d="M298.468,-112.083C301.312,-104.77 305.429,-94.1814 308.96,-85.1034"/>
<polygon fill="midnightblue" stroke="midnightblue" points="312.234,-86.3397 312.597,-75.7511 305.71,-83.8025 312.234,-86.3397"/>
</g>
<!-- Node26 -->
<g id="node26" class="node"><title>Node26</title>
<g id="a_node26"><a xlink:title=" ">
<polygon fill="none" stroke="#bfbfbf" points="221,-56.5 221,-75.5 271,-75.5 271,-56.5 221,-56.5"/>
<text text-anchor="middle" x="246" y="-63.5" font-family="Helvetica,sans-Serif" font-size="10.00">iomanip</text>
</a>
</g>
</g>
<!-- Node24&#45;&gt;Node26 -->
<g id="edge33" class="edge"><title>Node24&#45;&gt;Node26</title>
<path fill="none" stroke="midnightblue" d="M286.909,-112.083C279.845,-104.298 269.412,-92.8015 260.851,-83.3665"/>
<polygon fill="midnightblue" stroke="midnightblue" points="263.253,-80.8047 253.941,-75.7511 258.069,-85.5087 263.253,-80.8047"/>
</g>
<!-- Node27&#45;&gt;Node5 -->
<g id="edge36" class="edge"><title>Node27&#45;&gt;Node5</title>
<path fill="none" stroke="midnightblue" d="M768.79,-169.035C765.819,-168.663 762.873,-168.315 760,-168 538.087,-143.691 480.501,-159.813 259,-132 252.833,-131.226 246.273,-130.196 240.003,-129.109"/>
<polygon fill="midnightblue" stroke="midnightblue" points="240.31,-125.608 229.845,-127.263 239.058,-132.495 240.31,-125.608"/>
</g>
<!-- Node27&#45;&gt;Node21 -->
<g id="edge35" class="edge"><title>Node27&#45;&gt;Node21</title>
<path fill="none" stroke="midnightblue" d="M808.95,-168.324C797.537,-160.107 780.169,-147.602 766.565,-137.807"/>
<polygon fill="midnightblue" stroke="midnightblue" points="768.43,-134.837 758.269,-131.834 764.34,-140.517 768.43,-134.837"/>
</g>
<!-- Node28 -->
<g id="node28" class="node"><title>Node28</title>
<g id="a_node28"><a xlink:title=" ">
<polygon fill="none" stroke="#bfbfbf" points="791.5,-112.5 791.5,-131.5 850.5,-131.5 850.5,-112.5 791.5,-112.5"/>
<text text-anchor="middle" x="821" y="-119.5" font-family="Helvetica,sans-Serif" font-size="10.00">exception</text>
</a>
</g>
</g>
<!-- Node27&#45;&gt;Node28 -->
<g id="edge37" class="edge"><title>Node27&#45;&gt;Node28</title>
<path fill="none" stroke="midnightblue" d="M821,-168.083C821,-161.006 821,-150.861 821,-141.986"/>
<polygon fill="midnightblue" stroke="midnightblue" points="824.5,-141.751 821,-131.751 817.5,-141.751 824.5,-141.751"/>
</g>
</g>
</svg>
