<?xml version="1.0" encoding="UTF-8" standalone="no"?>
<!DOCTYPE svg PUBLIC "-//W3C//DTD SVG 1.1//EN"
 "http://www.w3.org/Graphics/SVG/1.1/DTD/svg11.dtd">
<!-- Generated by graphviz version 2.38.0 (20140413.2041)
 -->
<!-- Title: camera.h Pages: 1 -->
<svg width="990pt" height="308pt"
 viewBox="0.00 0.00 990.00 308.00" xmlns="http://www.w3.org/2000/svg" xmlns:xlink="http://www.w3.org/1999/xlink">
<g id="graph0" class="graph" transform="scale(1 1) rotate(0) translate(4 304)">
<title>camera.h</title>
<!-- Node1 -->
<g id="node1" class="node"><title>Node1</title>
<g id="a_node1"><a xlink:title=" ">
<polygon fill="#bfbfbf" stroke="black" points="729.5,-280.5 729.5,-299.5 786.5,-299.5 786.5,-280.5 729.5,-280.5"/>
<text text-anchor="middle" x="758" y="-287.5" font-family="Helvetica,sans-Serif" font-size="10.00">camera.h</text>
</a>
</g>
</g>
<!-- Node2 -->
<g id="node2" class="node"><title>Node2</title>
<g id="a_node2"><a xlink:href="sense_8h.html" target="_top" xlink:title=" ">
<polygon fill="none" stroke="black" points="67.5,-168.5 67.5,-187.5 180.5,-187.5 180.5,-168.5 67.5,-168.5"/>
<text text-anchor="middle" x="124" y="-175.5" font-family="Helvetica,sans-Serif" font-size="10.00">sr/sense/core/sense.h</text>
</a>
</g>
</g>
<!-- Node1&#45;&gt;Node2 -->
<g id="edge1" class="edge"><title>Node1&#45;&gt;Node2</title>
<path fill="none" stroke="midnightblue" d="M729.369,-287.281C663.737,-283.008 497.567,-270.303 361,-244 288.554,-230.047 205.844,-205.286 159.79,-190.685"/>
<polygon fill="midnightblue" stroke="midnightblue" points="160.581,-187.264 149.991,-187.555 158.452,-193.932 160.581,-187.264"/>
</g>
<!-- Node7 -->
<g id="node7" class="node"><title>Node7</title>
<g id="a_node7"><a xlink:href="transformation_8h.html" target="_top" xlink:title=" ">
<polygon fill="none" stroke="black" points="446,-112.5 446,-131.5 532,-131.5 532,-112.5 446,-112.5"/>
<text text-anchor="middle" x="489" y="-119.5" font-family="Helvetica,sans-Serif" font-size="10.00">transformation.h</text>
</a>
</g>
</g>
<!-- Node1&#45;&gt;Node7 -->
<g id="edge17" class="edge"><title>Node1&#45;&gt;Node7</title>
<path fill="none" stroke="midnightblue" d="M759.582,-280.209C763.03,-257.981 768.632,-199.095 738,-168 736.272,-166.246 614.797,-144.871 542.177,-132.222"/>
<polygon fill="midnightblue" stroke="midnightblue" points="542.724,-128.765 532.272,-130.498 541.523,-135.661 542.724,-128.765"/>
</g>
<!-- Node11 -->
<g id="node11" class="node"><title>Node11</title>
<g id="a_node11"><a xlink:href="videostream_8h.html" target="_top" xlink:title=" ">
<polygon fill="none" stroke="black" points="786.5,-224.5 786.5,-243.5 863.5,-243.5 863.5,-224.5 786.5,-224.5"/>
<text text-anchor="middle" x="825" y="-231.5" font-family="Helvetica,sans-Serif" font-size="10.00">videostream.h</text>
</a>
</g>
</g>
<!-- Node1&#45;&gt;Node11 -->
<g id="edge10" class="edge"><title>Node1&#45;&gt;Node11</title>
<path fill="none" stroke="midnightblue" d="M768.765,-280.324C778.766,-272.263 793.887,-260.077 805.93,-250.369"/>
<polygon fill="midnightblue" stroke="midnightblue" points="808.45,-252.834 814.039,-243.834 804.057,-247.384 808.45,-252.834"/>
</g>
<!-- Node16 -->
<g id="node16" class="node"><title>Node16</title>
<g id="a_node16"><a xlink:href="cameradescriptor_8h.html" target="_top" xlink:title=" ">
<polygon fill="none" stroke="black" points="882,-224.5 882,-243.5 982,-243.5 982,-224.5 882,-224.5"/>
<text text-anchor="middle" x="932" y="-231.5" font-family="Helvetica,sans-Serif" font-size="10.00">cameradescriptor.h</text>
</a>
</g>
</g>
<!-- Node1&#45;&gt;Node16 -->
<g id="edge16" class="edge"><title>Node1&#45;&gt;Node16</title>
<path fill="none" stroke="midnightblue" d="M785.571,-280.444C815.097,-271.28 862.118,-256.688 894.883,-246.519"/>
<polygon fill="midnightblue" stroke="midnightblue" points="896.045,-249.823 904.558,-243.516 893.97,-243.138 896.045,-249.823"/>
</g>
<!-- Node17 -->
<g id="node17" class="node"><title>Node17</title>
<g id="a_node17"><a xlink:href="srcontext_8h.html" target="_top" xlink:title=" ">
<polygon fill="none" stroke="black" points="370,-224.5 370,-243.5 506,-243.5 506,-224.5 370,-224.5"/>
<text text-anchor="middle" x="438" y="-231.5" font-family="Helvetica,sans-Serif" font-size="10.00">sr/management/srcontext.h</text>
</a>
</g>
</g>
<!-- Node1&#45;&gt;Node17 -->
<g id="edge18" class="edge"><title>Node1&#45;&gt;Node17</title>
<path fill="none" stroke="midnightblue" d="M729.321,-284.16C677.56,-275.426 567.506,-256.854 498.467,-245.204"/>
<polygon fill="midnightblue" stroke="midnightblue" points="499.033,-241.75 488.59,-243.537 497.869,-248.652 499.033,-241.75"/>
</g>
<!-- Node3 -->
<g id="node3" class="node"><title>Node3</title>
<g id="a_node3"><a xlink:title=" ">
<polygon fill="none" stroke="#bfbfbf" points="188.5,-112.5 188.5,-131.5 229.5,-131.5 229.5,-112.5 188.5,-112.5"/>
<text text-anchor="middle" x="209" y="-119.5" font-family="Helvetica,sans-Serif" font-size="10.00">string</text>
</a>
</g>
</g>
<!-- Node2&#45;&gt;Node3 -->
<g id="edge2" class="edge"><title>Node2&#45;&gt;Node3</title>
<path fill="none" stroke="midnightblue" d="M137.657,-168.324C150.916,-159.9 171.268,-146.971 186.846,-137.074"/>
<polygon fill="midnightblue" stroke="midnightblue" points="188.813,-139.971 195.377,-131.655 185.06,-134.063 188.813,-139.971"/>
</g>
<!-- Node4 -->
<g id="node4" class="node"><title>Node4</title>
<g id="a_node4"><a xlink:title=" ">
<polygon fill="none" stroke="#bfbfbf" points="0,-112.5 0,-131.5 46,-131.5 46,-112.5 0,-112.5"/>
<text text-anchor="middle" x="23" y="-119.5" font-family="Helvetica,sans-Serif" font-size="10.00">chrono</text>
</a>
</g>
</g>
<!-- Node2&#45;&gt;Node4 -->
<g id="edge3" class="edge"><title>Node2&#45;&gt;Node4</title>
<path fill="none" stroke="midnightblue" d="M107.773,-168.324C91.649,-159.703 66.6998,-146.364 48.0359,-136.386"/>
<polygon fill="midnightblue" stroke="midnightblue" points="49.6561,-133.283 39.1871,-131.655 46.3556,-139.456 49.6561,-133.283"/>
</g>
<!-- Node5 -->
<g id="node5" class="node"><title>Node5</title>
<g id="a_node5"><a xlink:title=" ">
<polygon fill="none" stroke="#bfbfbf" points="64,-112.5 64,-131.5 108,-131.5 108,-112.5 64,-112.5"/>
<text text-anchor="middle" x="86" y="-119.5" font-family="Helvetica,sans-Serif" font-size="10.00">thread</text>
</a>
</g>
</g>
<!-- Node2&#45;&gt;Node5 -->
<g id="edge4" class="edge"><title>Node2&#45;&gt;Node5</title>
<path fill="none" stroke="midnightblue" d="M117.725,-168.083C112.358,-160.455 104.482,-149.264 97.9213,-139.941"/>
<polygon fill="midnightblue" stroke="midnightblue" points="100.775,-137.915 92.1582,-131.751 95.0508,-141.943 100.775,-137.915"/>
</g>
<!-- Node6 -->
<g id="node6" class="node"><title>Node6</title>
<g id="a_node6"><a xlink:title=" ">
<polygon fill="none" stroke="#bfbfbf" points="126,-112.5 126,-131.5 170,-131.5 170,-112.5 126,-112.5"/>
<text text-anchor="middle" x="148" y="-119.5" font-family="Helvetica,sans-Serif" font-size="10.00">mutex</text>
</a>
</g>
</g>
<!-- Node2&#45;&gt;Node6 -->
<g id="edge5" class="edge"><title>Node2&#45;&gt;Node6</title>
<path fill="none" stroke="midnightblue" d="M127.963,-168.083C131.213,-160.77 135.919,-150.181 139.954,-141.103"/>
<polygon fill="midnightblue" stroke="midnightblue" points="143.248,-142.311 144.111,-131.751 136.851,-139.468 143.248,-142.311"/>
</g>
<!-- Node2&#45;&gt;Node7 -->
<g id="edge6" class="edge"><title>Node2&#45;&gt;Node7</title>
<path fill="none" stroke="midnightblue" d="M180.631,-168.622C250.339,-158.309 367.817,-140.928 435.876,-130.859"/>
<polygon fill="midnightblue" stroke="midnightblue" points="436.574,-134.294 445.954,-129.368 435.549,-127.37 436.574,-134.294"/>
</g>
<!-- Node8 -->
<g id="node8" class="node"><title>Node8</title>
<g id="a_node8"><a xlink:title=" ">
<polygon fill="none" stroke="#bfbfbf" points="384,-56.5 384,-75.5 488,-75.5 488,-56.5 384,-56.5"/>
<text text-anchor="middle" x="436" y="-63.5" font-family="Helvetica,sans-Serif" font-size="10.00">opencv2/opencv.hpp</text>
</a>
</g>
</g>
<!-- Node7&#45;&gt;Node8 -->
<g id="edge7" class="edge"><title>Node7&#45;&gt;Node8</title>
<path fill="none" stroke="midnightblue" d="M480.248,-112.083C472.53,-104.22 461.095,-92.5688 451.783,-83.0813"/>
<polygon fill="midnightblue" stroke="midnightblue" points="454.092,-80.4363 444.589,-75.7511 449.096,-85.3396 454.092,-80.4363"/>
</g>
<!-- Node9 -->
<g id="node9" class="node"><title>Node9</title>
<g id="a_node9"><a xlink:href="types_8h.html" target="_top" xlink:title=" ">
<polygon fill="none" stroke="black" points="506,-56.5 506,-75.5 566,-75.5 566,-56.5 506,-56.5"/>
<text text-anchor="middle" x="536" y="-63.5" font-family="Helvetica,sans-Serif" font-size="10.00">sr/types.h</text>
</a>
</g>
</g>
<!-- Node7&#45;&gt;Node9 -->
<g id="edge8" class="edge"><title>Node7&#45;&gt;Node9</title>
<path fill="none" stroke="midnightblue" d="M496.761,-112.083C503.537,-104.298 513.543,-92.8015 521.755,-83.3665"/>
<polygon fill="midnightblue" stroke="midnightblue" points="524.458,-85.592 528.383,-75.7511 519.178,-80.9963 524.458,-85.592"/>
</g>
<!-- Node10 -->
<g id="node10" class="node"><title>Node10</title>
<g id="a_node10"><a xlink:title=" ">
<polygon fill="none" stroke="#bfbfbf" points="351.5,-0.5 351.5,-19.5 400.5,-19.5 400.5,-0.5 351.5,-0.5"/>
<text text-anchor="middle" x="376" y="-7.5" font-family="Helvetica,sans-Serif" font-size="10.00">stdint.h</text>
</a>
</g>
</g>
<!-- Node9&#45;&gt;Node10 -->
<g id="edge9" class="edge"><title>Node9&#45;&gt;Node10</title>
<path fill="none" stroke="midnightblue" d="M510.648,-56.4435C483.572,-47.3057 440.5,-32.7689 410.383,-22.6044"/>
<polygon fill="midnightblue" stroke="midnightblue" points="411.302,-19.2206 400.708,-19.339 409.064,-25.8531 411.302,-19.2206"/>
</g>
<!-- Node12 -->
<g id="node12" class="node"><title>Node12</title>
<g id="a_node12"><a xlink:href="videoframe_8h.html" target="_top" xlink:title=" ">
<polygon fill="none" stroke="black" points="808.5,-112.5 808.5,-131.5 879.5,-131.5 879.5,-112.5 808.5,-112.5"/>
<text text-anchor="middle" x="844" y="-119.5" font-family="Helvetica,sans-Serif" font-size="10.00">videoframe.h</text>
</a>
</g>
</g>
<!-- Node11&#45;&gt;Node12 -->
<g id="edge11" class="edge"><title>Node11&#45;&gt;Node12</title>
<path fill="none" stroke="midnightblue" d="M825.054,-224.085C825.274,-211.482 826.211,-187.787 830,-168 831.712,-159.06 834.58,-149.392 837.276,-141.317"/>
<polygon fill="midnightblue" stroke="midnightblue" points="840.602,-142.409 840.609,-131.814 833.996,-140.092 840.602,-142.409"/>
</g>
<!-- Node15 -->
<g id="node15" class="node"><title>Node15</title>
<g id="a_node15"><a xlink:href="videolistener_8h.html" target="_top" xlink:title=" ">
<polygon fill="none" stroke="black" points="839,-168.5 839,-187.5 917,-187.5 917,-168.5 839,-168.5"/>
<text text-anchor="middle" x="878" y="-175.5" font-family="Helvetica,sans-Serif" font-size="10.00">videolistener.h</text>
</a>
</g>
</g>
<!-- Node11&#45;&gt;Node15 -->
<g id="edge14" class="edge"><title>Node11&#45;&gt;Node15</title>
<path fill="none" stroke="midnightblue" d="M833.752,-224.083C841.47,-216.22 852.905,-204.569 862.217,-195.081"/>
<polygon fill="midnightblue" stroke="midnightblue" points="864.904,-197.34 869.411,-187.751 859.908,-192.436 864.904,-197.34"/>
</g>
<!-- Node13 -->
<g id="node13" class="node"><title>Node13</title>
<g id="a_node13"><a xlink:title=" ">
<polygon fill="none" stroke="#bfbfbf" points="868,-56.5 868,-75.5 920,-75.5 920,-56.5 868,-56.5"/>
<text text-anchor="middle" x="894" y="-63.5" font-family="Helvetica,sans-Serif" font-size="10.00">memory</text>
</a>
</g>
</g>
<!-- Node12&#45;&gt;Node13 -->
<g id="edge12" class="edge"><title>Node12&#45;&gt;Node13</title>
<path fill="none" stroke="midnightblue" d="M852.256,-112.083C859.465,-104.298 870.11,-92.8015 878.846,-83.3665"/>
<polygon fill="midnightblue" stroke="midnightblue" points="881.671,-85.4666 885.897,-75.7511 876.535,-80.7108 881.671,-85.4666"/>
</g>
<!-- Node14 -->
<g id="node14" class="node"><title>Node14</title>
<g id="a_node14"><a xlink:title=" ">
<polygon fill="none" stroke="#bfbfbf" points="738,-56.5 738,-75.5 850,-75.5 850,-56.5 738,-56.5"/>
<text text-anchor="middle" x="794" y="-63.5" font-family="Helvetica,sans-Serif" font-size="10.00">opencv2/core/mat.hpp</text>
</a>
</g>
</g>
<!-- Node12&#45;&gt;Node14 -->
<g id="edge13" class="edge"><title>Node12&#45;&gt;Node14</title>
<path fill="none" stroke="midnightblue" d="M835.744,-112.083C828.535,-104.298 817.89,-92.8015 809.154,-83.3665"/>
<polygon fill="midnightblue" stroke="midnightblue" points="811.465,-80.7108 802.103,-75.7511 806.329,-85.4666 811.465,-80.7108"/>
</g>
<!-- Node15&#45;&gt;Node12 -->
<g id="edge15" class="edge"><title>Node15&#45;&gt;Node12</title>
<path fill="none" stroke="midnightblue" d="M872.386,-168.083C867.633,-160.534 860.682,-149.495 854.848,-140.23"/>
<polygon fill="midnightblue" stroke="midnightblue" points="857.8,-138.349 849.51,-131.751 851.876,-142.078 857.8,-138.349"/>
</g>
<!-- Node17&#45;&gt;Node2 -->
<g id="edge21" class="edge"><title>Node17&#45;&gt;Node2</title>
<path fill="none" stroke="midnightblue" d="M388.246,-224.444C332.665,-214.885 242.736,-199.419 183.484,-189.23"/>
<polygon fill="midnightblue" stroke="midnightblue" points="183.97,-185.762 173.521,-187.516 182.784,-192.661 183.97,-185.762"/>
</g>
<!-- Node17&#45;&gt;Node3 -->
<g id="edge19" class="edge"><title>Node17&#45;&gt;Node3</title>
<path fill="none" stroke="midnightblue" d="M369.807,-225.966C316.605,-219.133 248.417,-206.973 228,-188 215.36,-176.254 210.968,-156.612 209.522,-141.988"/>
<polygon fill="midnightblue" stroke="midnightblue" points="212.99,-141.353 208.892,-131.583 206.003,-141.776 212.99,-141.353"/>
</g>
<!-- Node18 -->
<g id="node18" class="node"><title>Node18</title>
<g id="a_node18"><a xlink:title=" ">
<polygon fill="none" stroke="#bfbfbf" points="694.5,-168.5 694.5,-187.5 729.5,-187.5 729.5,-168.5 694.5,-168.5"/>
<text text-anchor="middle" x="712" y="-175.5" font-family="Helvetica,sans-Serif" font-size="10.00">map</text>
</a>
</g>
</g>
<!-- Node17&#45;&gt;Node18 -->
<g id="edge20" class="edge"><title>Node17&#45;&gt;Node18</title>
<path fill="none" stroke="midnightblue" d="M498.156,-224.48C546.229,-217.116 615.427,-205.28 684.626,-187.776"/>
<polygon fill="midnightblue" stroke="midnightblue" points="685.573,-191.146 694.388,-185.268 683.832,-184.367 685.573,-191.146"/>
</g>
<!-- Node19 -->
<g id="node19" class="node"><title>Node19</title>
<g id="a_node19"><a xlink:href="worldobject_8h.html" target="_top" xlink:title=" ">
<polygon fill="none" stroke="black" points="383,-168.5 383,-187.5 493,-187.5 493,-168.5 383,-168.5"/>
<text text-anchor="middle" x="438" y="-175.5" font-family="Helvetica,sans-Serif" font-size="10.00">sr/world/worldobject.h</text>
</a>
</g>
</g>
<!-- Node17&#45;&gt;Node19 -->
<g id="edge22" class="edge"><title>Node17&#45;&gt;Node19</title>
<path fill="none" stroke="midnightblue" d="M438,-224.083C438,-217.006 438,-206.861 438,-197.986"/>
<polygon fill="midnightblue" stroke="midnightblue" points="441.5,-197.751 438,-187.751 434.5,-197.751 441.5,-197.751"/>
</g>
<!-- Node21 -->
<g id="node21" class="node"><title>Node21</title>
<g id="a_node21"><a xlink:href="networkinterface_8h.html" target="_top" xlink:title=" ">
<polygon fill="none" stroke="black" points="511.5,-168.5 511.5,-187.5 676.5,-187.5 676.5,-168.5 511.5,-168.5"/>
<text text-anchor="middle" x="594" y="-175.5" font-family="Helvetica,sans-Serif" font-size="10.00">sr/network/core/networkinterface.h</text>
</a>
</g>
</g>
<!-- Node17&#45;&gt;Node21 -->
<g id="edge26" class="edge"><title>Node17&#45;&gt;Node21</title>
<path fill="none" stroke="midnightblue" d="M462.719,-224.444C488.848,-215.399 530.259,-201.064 559.576,-190.916"/>
<polygon fill="midnightblue" stroke="midnightblue" points="561.092,-194.095 569.397,-187.516 558.802,-187.48 561.092,-194.095"/>
</g>
<!-- Node22 -->
<g id="node22" class="node"><title>Node22</title>
<g id="a_node22"><a xlink:href="receiver_8h.html" target="_top" xlink:title=" ">
<polygon fill="none" stroke="black" points="237,-168.5 237,-187.5 365,-187.5 365,-168.5 237,-168.5"/>
<text text-anchor="middle" x="301" y="-175.5" font-family="Helvetica,sans-Serif" font-size="10.00">sr/network/core/receiver.h</text>
</a>
</g>
</g>
<!-- Node17&#45;&gt;Node22 -->
<g id="edge27" class="edge"><title>Node17&#45;&gt;Node22</title>
<path fill="none" stroke="midnightblue" d="M416.292,-224.444C393.645,-215.517 357.928,-201.439 332.248,-191.317"/>
<polygon fill="midnightblue" stroke="midnightblue" points="333.193,-187.927 322.606,-187.516 330.626,-194.44 333.193,-187.927"/>
</g>
<!-- Node19&#45;&gt;Node7 -->
<g id="edge25" class="edge"><title>Node19&#45;&gt;Node7</title>
<path fill="none" stroke="midnightblue" d="M446.422,-168.083C453.848,-160.22 464.852,-148.569 473.812,-139.081"/>
<polygon fill="midnightblue" stroke="midnightblue" points="476.413,-141.424 480.735,-131.751 471.324,-136.618 476.413,-141.424"/>
</g>
<!-- Node19&#45;&gt;Node8 -->
<g id="edge24" class="edge"><title>Node19&#45;&gt;Node8</title>
<path fill="none" stroke="midnightblue" d="M437.791,-168.374C437.575,-159.315 437.238,-144.657 437,-132 436.708,-116.465 436.441,-98.8403 436.256,-85.8664"/>
<polygon fill="midnightblue" stroke="midnightblue" points="439.755,-85.7821 436.117,-75.8317 432.756,-85.8794 439.755,-85.7821"/>
</g>
<!-- Node20 -->
<g id="node20" class="node"><title>Node20</title>
<g id="a_node20"><a xlink:title=" ">
<polygon fill="none" stroke="#bfbfbf" points="550,-112.5 550,-131.5 592,-131.5 592,-112.5 550,-112.5"/>
<text text-anchor="middle" x="571" y="-119.5" font-family="Helvetica,sans-Serif" font-size="10.00">vector</text>
</a>
</g>
</g>
<!-- Node19&#45;&gt;Node20 -->
<g id="edge23" class="edge"><title>Node19&#45;&gt;Node20</title>
<path fill="none" stroke="midnightblue" d="M459.074,-168.444C481.06,-159.517 515.734,-145.439 540.664,-135.317"/>
<polygon fill="midnightblue" stroke="midnightblue" points="542.076,-138.521 550.024,-131.516 539.442,-132.035 542.076,-138.521"/>
</g>
<!-- Node23 -->
<g id="node23" class="node"><title>Node23</title>
<g id="a_node23"><a xlink:href="packet_8h.html" target="_top" xlink:title=" ">
<polygon fill="none" stroke="black" points="261,-112.5 261,-131.5 315,-131.5 315,-112.5 261,-112.5"/>
<text text-anchor="middle" x="288" y="-119.5" font-family="Helvetica,sans-Serif" font-size="10.00">packet.h</text>
</a>
</g>
</g>
<!-- Node22&#45;&gt;Node23 -->
<g id="edge28" class="edge"><title>Node22&#45;&gt;Node23</title>
<path fill="none" stroke="midnightblue" d="M298.853,-168.083C297.131,-160.927 294.653,-150.635 292.5,-141.691"/>
<polygon fill="midnightblue" stroke="midnightblue" points="295.85,-140.654 290.107,-131.751 289.045,-142.293 295.85,-140.654"/>
</g>
<!-- Node23&#45;&gt;Node10 -->
<g id="edge29" class="edge"><title>Node23&#45;&gt;Node10</title>
<path fill="none" stroke="midnightblue" d="M271.98,-112.403C251.307,-100.178 219.711,-76.9281 235,-56 259.141,-22.955 307.817,-13.6094 341.157,-11.265"/>
<polygon fill="midnightblue" stroke="midnightblue" points="341.589,-14.7473 351.392,-10.7287 341.223,-7.75687 341.589,-14.7473"/>
</g>
<!-- Node24 -->
<g id="node24" class="node"><title>Node24</title>
<g id="a_node24"><a xlink:title=" ">
<polygon fill="none" stroke="#bfbfbf" points="312,-56.5 312,-75.5 366,-75.5 366,-56.5 312,-56.5"/>
<text text-anchor="middle" x="339" y="-63.5" font-family="Helvetica,sans-Serif" font-size="10.00">iostream</text>
</a>
</g>
</g>
<!-- Node23&#45;&gt;Node24 -->
<g id="edge30" class="edge"><title>Node23&#45;&gt;Node24</title>
<path fill="none" stroke="midnightblue" d="M296.422,-112.083C303.848,-104.22 314.852,-92.5688 323.812,-83.0813"/>
<polygon fill="midnightblue" stroke="midnightblue" points="326.413,-85.4244 330.735,-75.7511 321.324,-80.618 326.413,-85.4244"/>
</g>
<!-- Node25 -->
<g id="node25" class="node"><title>Node25</title>
<g id="a_node25"><a xlink:title=" ">
<polygon fill="none" stroke="#bfbfbf" points="244,-56.5 244,-75.5 294,-75.5 294,-56.5 244,-56.5"/>
<text text-anchor="middle" x="269" y="-63.5" font-family="Helvetica,sans-Serif" font-size="10.00">iomanip</text>
</a>
</g>
</g>
<!-- Node23&#45;&gt;Node25 -->
<g id="edge31" class="edge"><title>Node23&#45;&gt;Node25</title>
<path fill="none" stroke="midnightblue" d="M284.863,-112.083C282.317,-104.849 278.644,-94.4087 275.473,-85.3968"/>
<polygon fill="midnightblue" stroke="midnightblue" points="278.7,-84.0225 272.079,-75.7511 272.097,-86.3459 278.7,-84.0225"/>
</g>
</g>
</svg>
