<?xml version="1.0" encoding="UTF-8" standalone="no"?>
<!DOCTYPE svg PUBLIC "-//W3C//DTD SVG 1.1//EN"
 "http://www.w3.org/Graphics/SVG/1.1/DTD/svg11.dtd">
<!-- Generated by graphviz version 2.38.0 (20140413.2041)
 -->
<!-- Title: cameras_c.h Pages: 1 -->
<svg width="499pt" height="252pt"
 viewBox="0.00 0.00 498.50 252.00" xmlns="http://www.w3.org/2000/svg" xmlns:xlink="http://www.w3.org/1999/xlink">
<g id="graph0" class="graph" transform="scale(1 1) rotate(0) translate(4 248)">
<title>cameras_c.h</title>
<!-- Node1 -->
<g id="node1" class="node"><title>Node1</title>
<g id="a_node1"><a xlink:title=" ">
<polygon fill="#bfbfbf" stroke="black" points="178.5,-224.5 178.5,-243.5 251.5,-243.5 251.5,-224.5 178.5,-224.5"/>
<text text-anchor="middle" x="215" y="-231.5" font-family="Helvetica,sans-Serif" font-size="10.00">cameras_c.h</text>
</a>
</g>
</g>
<!-- Node2 -->
<g id="node2" class="node"><title>Node2</title>
<g id="a_node2"><a xlink:href="core__c_8h.html" target="_top" xlink:title=" ">
<polygon fill="none" stroke="black" points="55.5,-168.5 55.5,-187.5 120.5,-187.5 120.5,-168.5 55.5,-168.5"/>
<text text-anchor="middle" x="88" y="-175.5" font-family="Helvetica,sans-Serif" font-size="10.00">sr/core_c.h</text>
</a>
</g>
</g>
<!-- Node1&#45;&gt;Node2 -->
<g id="edge1" class="edge"><title>Node1&#45;&gt;Node2</title>
<path fill="none" stroke="midnightblue" d="M194.876,-224.444C173.976,-215.557 141.065,-201.563 117.284,-191.451"/>
<polygon fill="midnightblue" stroke="midnightblue" points="118.602,-188.208 108.029,-187.516 115.862,-194.65 118.602,-188.208"/>
</g>
<!-- Node7 -->
<g id="node7" class="node"><title>Node7</title>
<g id="a_node7"><a xlink:href="videoframe_8h.html" target="_top" xlink:title=" ">
<polygon fill="none" stroke="black" points="139,-168.5 139,-187.5 291,-187.5 291,-168.5 139,-168.5"/>
<text text-anchor="middle" x="215" y="-175.5" font-family="Helvetica,sans-Serif" font-size="10.00">sr/sense/cameras/videoframe.h</text>
</a>
</g>
</g>
<!-- Node1&#45;&gt;Node7 -->
<g id="edge7" class="edge"><title>Node1&#45;&gt;Node7</title>
<path fill="none" stroke="midnightblue" d="M215,-224.083C215,-217.006 215,-206.861 215,-197.986"/>
<polygon fill="midnightblue" stroke="midnightblue" points="218.5,-197.751 215,-187.751 211.5,-197.751 218.5,-197.751"/>
</g>
<!-- Node10 -->
<g id="node10" class="node"><title>Node10</title>
<g id="a_node10"><a xlink:href="cameradescriptor_8h.html" target="_top" xlink:title=" ">
<polygon fill="none" stroke="black" points="309.5,-168.5 309.5,-187.5 490.5,-187.5 490.5,-168.5 309.5,-168.5"/>
<text text-anchor="middle" x="400" y="-175.5" font-family="Helvetica,sans-Serif" font-size="10.00">sr/sense/cameras/cameradescriptor.h</text>
</a>
</g>
</g>
<!-- Node1&#45;&gt;Node10 -->
<g id="edge10" class="edge"><title>Node1&#45;&gt;Node10</title>
<path fill="none" stroke="midnightblue" d="M244.314,-224.444C275.842,-215.241 326.131,-200.562 360.986,-190.388"/>
<polygon fill="midnightblue" stroke="midnightblue" points="362.205,-193.678 370.823,-187.516 360.243,-186.959 362.205,-193.678"/>
</g>
<!-- Node3 -->
<g id="node3" class="node"><title>Node3</title>
<g id="a_node3"><a xlink:href="systemevent_8h.html" target="_top" xlink:title=" ">
<polygon fill="none" stroke="black" points="10.5,-112.5 10.5,-131.5 165.5,-131.5 165.5,-112.5 10.5,-112.5"/>
<text text-anchor="middle" x="88" y="-119.5" font-family="Helvetica,sans-Serif" font-size="10.00">sr/sense/system/systemevent.h</text>
</a>
</g>
</g>
<!-- Node2&#45;&gt;Node3 -->
<g id="edge2" class="edge"><title>Node2&#45;&gt;Node3</title>
<path fill="none" stroke="midnightblue" d="M88,-168.083C88,-161.006 88,-150.861 88,-141.986"/>
<polygon fill="midnightblue" stroke="midnightblue" points="91.5001,-141.751 88,-131.751 84.5001,-141.751 91.5001,-141.751"/>
</g>
<!-- Node4 -->
<g id="node4" class="node"><title>Node4</title>
<g id="a_node4"><a xlink:href="types_8h.html" target="_top" xlink:title=" ">
<polygon fill="none" stroke="black" points="0,-56.5 0,-75.5 60,-75.5 60,-56.5 0,-56.5"/>
<text text-anchor="middle" x="30" y="-63.5" font-family="Helvetica,sans-Serif" font-size="10.00">sr/types.h</text>
</a>
</g>
</g>
<!-- Node3&#45;&gt;Node4 -->
<g id="edge3" class="edge"><title>Node3&#45;&gt;Node4</title>
<path fill="none" stroke="midnightblue" d="M78.6813,-112.324C70.1074,-104.341 57.1878,-92.3128 46.8124,-82.6529"/>
<polygon fill="midnightblue" stroke="midnightblue" points="49.1922,-80.0865 39.4883,-75.8339 44.4223,-85.2098 49.1922,-80.0865"/>
</g>
<!-- Node5 -->
<g id="node5" class="node"><title>Node5</title>
<g id="a_node5"><a xlink:title=" ">
<polygon fill="none" stroke="#bfbfbf" points="34.5,-0.5 34.5,-19.5 83.5,-19.5 83.5,-0.5 34.5,-0.5"/>
<text text-anchor="middle" x="59" y="-7.5" font-family="Helvetica,sans-Serif" font-size="10.00">stdint.h</text>
</a>
</g>
</g>
<!-- Node3&#45;&gt;Node5 -->
<g id="edge5" class="edge"><title>Node3&#45;&gt;Node5</title>
<path fill="none" stroke="midnightblue" d="M85.7244,-112.368C81.0233,-94.5366 70.1506,-53.2953 63.8171,-29.2717"/>
<polygon fill="midnightblue" stroke="midnightblue" points="67.1987,-28.3688 61.265,-19.5914 60.43,-30.1533 67.1987,-28.3688"/>
</g>
<!-- Node6 -->
<g id="node6" class="node"><title>Node6</title>
<g id="a_node6"><a xlink:title=" ">
<polygon fill="none" stroke="#bfbfbf" points="116.5,-56.5 116.5,-75.5 157.5,-75.5 157.5,-56.5 116.5,-56.5"/>
<text text-anchor="middle" x="137" y="-63.5" font-family="Helvetica,sans-Serif" font-size="10.00">string</text>
</a>
</g>
</g>
<!-- Node3&#45;&gt;Node6 -->
<g id="edge6" class="edge"><title>Node3&#45;&gt;Node6</title>
<path fill="none" stroke="midnightblue" d="M96.0914,-112.083C103.155,-104.298 113.588,-92.8015 122.149,-83.3665"/>
<polygon fill="midnightblue" stroke="midnightblue" points="124.931,-85.5087 129.059,-75.7511 119.747,-80.8047 124.931,-85.5087"/>
</g>
<!-- Node4&#45;&gt;Node5 -->
<g id="edge4" class="edge"><title>Node4&#45;&gt;Node5</title>
<path fill="none" stroke="midnightblue" d="M34.7888,-56.083C38.7584,-48.6913 44.5251,-37.9533 49.4348,-28.8111"/>
<polygon fill="midnightblue" stroke="midnightblue" points="52.6525,-30.217 54.3003,-19.7511 46.4855,-26.9051 52.6525,-30.217"/>
</g>
<!-- Node8 -->
<g id="node8" class="node"><title>Node8</title>
<g id="a_node8"><a xlink:title=" ">
<polygon fill="none" stroke="#bfbfbf" points="186,-112.5 186,-131.5 238,-131.5 238,-112.5 186,-112.5"/>
<text text-anchor="middle" x="212" y="-119.5" font-family="Helvetica,sans-Serif" font-size="10.00">memory</text>
</a>
</g>
</g>
<!-- Node7&#45;&gt;Node8 -->
<g id="edge8" class="edge"><title>Node7&#45;&gt;Node8</title>
<path fill="none" stroke="midnightblue" d="M214.505,-168.083C214.111,-161.006 213.548,-150.861 213.055,-141.986"/>
<polygon fill="midnightblue" stroke="midnightblue" points="216.536,-141.542 212.486,-131.751 209.546,-141.93 216.536,-141.542"/>
</g>
<!-- Node9 -->
<g id="node9" class="node"><title>Node9</title>
<g id="a_node9"><a xlink:title=" ">
<polygon fill="none" stroke="#bfbfbf" points="256,-112.5 256,-131.5 368,-131.5 368,-112.5 256,-112.5"/>
<text text-anchor="middle" x="312" y="-119.5" font-family="Helvetica,sans-Serif" font-size="10.00">opencv2/core/mat.hpp</text>
</a>
</g>
</g>
<!-- Node7&#45;&gt;Node9 -->
<g id="edge9" class="edge"><title>Node7&#45;&gt;Node9</title>
<path fill="none" stroke="midnightblue" d="M230.585,-168.324C245.999,-159.743 269.812,-146.486 287.71,-136.522"/>
<polygon fill="midnightblue" stroke="midnightblue" points="289.419,-139.577 296.454,-131.655 286.014,-133.461 289.419,-139.577"/>
</g>
</g>
</svg>
