<?xml version="1.0" encoding="UTF-8" standalone="no"?>
<!DOCTYPE svg PUBLIC "-//W3C//DTD SVG 1.1//EN"
 "http://www.w3.org/Graphics/SVG/1.1/DTD/svg11.dtd">
<!-- Generated by graphviz version 2.38.0 (20140413.2041)
 -->
<!-- Title: cameradescriptor.h Pages: 1 -->
<svg width="176pt" height="140pt"
 viewBox="0.00 0.00 176.00 140.00" xmlns="http://www.w3.org/2000/svg" xmlns:xlink="http://www.w3.org/1999/xlink">
<g id="graph0" class="graph" transform="scale(1 1) rotate(0) translate(4 136)">
<title>cameradescriptor.h</title>
<!-- Node1 -->
<g id="node1" class="node"><title>Node1</title>
<g id="a_node1"><a xlink:title=" ">
<polygon fill="#bfbfbf" stroke="black" points="39.5,-112.5 39.5,-131.5 139.5,-131.5 139.5,-112.5 39.5,-112.5"/>
<text text-anchor="middle" x="89.5" y="-119.5" font-family="Helvetica,sans-Serif" font-size="10.00">cameradescriptor.h</text>
</a>
</g>
</g>
<!-- Node2 -->
<g id="node2" class="node"><title>Node2</title>
<g id="a_node2"><a xlink:href="camera_8h.html" target="_top" xlink:title=" ">
<polygon fill="none" stroke="black" points="20,-56.5 20,-75.5 77,-75.5 77,-56.5 20,-56.5"/>
<text text-anchor="middle" x="48.5" y="-63.5" font-family="Helvetica,sans-Serif" font-size="10.00">camera.h</text>
</a>
</g>
</g>
<!-- Node1&#45;&gt;Node2 -->
<g id="edge1" class="edge"><title>Node1&#45;&gt;Node2</title>
<path fill="none" stroke="midnightblue" d="M76.4828,-103.855C69.3833,-94.5048 60.896,-83.3265 55.1443,-75.7511"/>
<polygon fill="midnightblue" stroke="midnightblue" points="73.895,-106.235 82.7297,-112.083 79.4701,-102.002 73.895,-106.235"/>
</g>
<!-- Node4 -->
<g id="node4" class="node"><title>Node4</title>
<g id="a_node4"><a xlink:href="cameras__c_8h.html" target="_top" xlink:title=" ">
<polygon fill="none" stroke="black" points="95,-56.5 95,-75.5 168,-75.5 168,-56.5 95,-56.5"/>
<text text-anchor="middle" x="131.5" y="-63.5" font-family="Helvetica,sans-Serif" font-size="10.00">cameras_c.h</text>
</a>
</g>
</g>
<!-- Node1&#45;&gt;Node4 -->
<g id="edge3" class="edge"><title>Node1&#45;&gt;Node4</title>
<path fill="none" stroke="midnightblue" d="M102.61,-104.144C109.928,-94.7357 118.741,-83.4046 124.694,-75.7511"/>
<polygon fill="midnightblue" stroke="midnightblue" points="99.8122,-102.041 96.4354,-112.083 105.338,-106.338 99.8122,-102.041"/>
</g>
<!-- Node3 -->
<g id="node3" class="node"><title>Node3</title>
<g id="a_node3"><a xlink:href="cameracontroller_8h.html" target="_top" xlink:title=" ">
<polygon fill="none" stroke="black" points="0,-0.5 0,-19.5 97,-19.5 97,-0.5 0,-0.5"/>
<text text-anchor="middle" x="48.5" y="-7.5" font-family="Helvetica,sans-Serif" font-size="10.00">cameracontroller.h</text>
</a>
</g>
</g>
<!-- Node2&#45;&gt;Node3 -->
<g id="edge2" class="edge"><title>Node2&#45;&gt;Node3</title>
<path fill="none" stroke="midnightblue" d="M48.5,-45.8045C48.5,-36.9102 48.5,-26.7798 48.5,-19.7511"/>
<polygon fill="midnightblue" stroke="midnightblue" points="45.0001,-46.083 48.5,-56.083 52.0001,-46.083 45.0001,-46.083"/>
</g>
</g>
</svg>
