<?xml version="1.0" encoding="UTF-8" standalone="no"?>
<!DOCTYPE svg PUBLIC "-//W3C//DTD SVG 1.1//EN"
 "http://www.w3.org/Graphics/SVG/1.1/DTD/svg11.dtd">
<!-- Generated by graphviz version 2.38.0 (20140413.2041)
 -->
<!-- Title: SR::Screen Pages: 1 -->
<svg width="152pt" height="152pt"
 viewBox="0.00 0.00 152.00 152.00" xmlns="http://www.w3.org/2000/svg" xmlns:xlink="http://www.w3.org/1999/xlink">
<g id="graph0" class="graph" transform="scale(1 1) rotate(0) translate(4 148)">
<title>SR::Screen</title>
<!-- Node1 -->
<g id="node1" class="node"><title>Node1</title>
<g id="a_node1"><a xlink:title="Class of WorldObject representing the screen in real space.">
<polygon fill="#bfbfbf" stroke="black" points="16.5,-0.5 16.5,-19.5 83.5,-19.5 83.5,-0.5 16.5,-0.5"/>
<text text-anchor="middle" x="50" y="-7.5" font-family="Helvetica,sans-Serif" font-size="10.00">SR::Screen</text>
</a>
</g>
</g>
<!-- Node2 -->
<g id="node2" class="node"><title>Node2</title>
<g id="a_node2"><a xlink:href="classSR_1_1WorldObject.html" target="_top" xlink:title="Class representing both real and virtual objects as nodes in the World tree.">
<polygon fill="none" stroke="black" points="5,-57.5 5,-76.5 95,-76.5 95,-57.5 5,-57.5"/>
<text text-anchor="middle" x="50" y="-64.5" font-family="Helvetica,sans-Serif" font-size="10.00">SR::WorldObject</text>
</a>
</g>
</g>
<!-- Node2&#45;&gt;Node1 -->
<g id="edge1" class="edge"><title>Node2&#45;&gt;Node1</title>
<path fill="none" stroke="midnightblue" d="M50,-47.1166C50,-37.8173 50,-27.0557 50,-19.7149"/>
<polygon fill="midnightblue" stroke="midnightblue" points="46.5001,-47.4062 50,-57.4063 53.5001,-47.4063 46.5001,-47.4062"/>
</g>
<!-- Node2&#45;&gt;Node2 -->
<g id="edge2" class="edge"><title>Node2&#45;&gt;Node2</title>
<path fill="none" stroke="#9a32cd" stroke-dasharray="5,2" d="M105.264,-71.1012C110.026,-70.2299 113,-68.8628 113,-67 113,-64.0195 105.386,-62.3081 95.0205,-61.8657"/>
<polygon fill="#9a32cd" stroke="#9a32cd" points="104.619,-67.6485 95.0205,-72.1343 105.321,-74.6132 104.619,-67.6485"/>
<text text-anchor="middle" x="128.5" y="-64.5" font-family="Helvetica,sans-Serif" font-size="10.00"> parent</text>
</g>
<!-- Node3 -->
<g id="node3" class="node"><title>Node3</title>
<g id="a_node3"><a xlink:href="classSR_1_1Transformation.html" target="_top" xlink:title="Class of objects defining the relation between different coordinate systems.">
<polygon fill="none" stroke="black" points="0,-124.5 0,-143.5 100,-143.5 100,-124.5 0,-124.5"/>
<text text-anchor="middle" x="50" y="-131.5" font-family="Helvetica,sans-Serif" font-size="10.00">SR::Transformation</text>
</a>
</g>
</g>
<!-- Node3&#45;&gt;Node2 -->
<g id="edge3" class="edge"><title>Node3&#45;&gt;Node2</title>
<path fill="none" stroke="#9a32cd" stroke-dasharray="5,2" d="M50,-114.037C50,-101.67 50,-86.1198 50,-76.6273"/>
<polygon fill="#9a32cd" stroke="#9a32cd" points="46.5001,-114.234 50,-124.234 53.5001,-114.234 46.5001,-114.234"/>
<text text-anchor="middle" x="83" y="-98" font-family="Helvetica,sans-Serif" font-size="10.00"> parentRelation</text>
</g>
</g>
</svg>
