<?xml version="1.0" encoding="UTF-8" standalone="no"?>
<!DOCTYPE svg PUBLIC "-//W3C//DTD SVG 1.1//EN"
 "http://www.w3.org/Graphics/SVG/1.1/DTD/svg11.dtd">
<!-- Generated by graphviz version 2.38.0 (20140413.2041)
 -->
<!-- Title: SR::DX11WeaverBase Pages: 1 -->
<svg width="252pt" height="140pt"
 viewBox="0.00 0.00 251.50 140.00" xmlns="http://www.w3.org/2000/svg" xmlns:xlink="http://www.w3.org/1999/xlink">
<g id="graph0" class="graph" transform="scale(1 1) rotate(0) translate(4 136)">
<title>SR::DX11WeaverBase</title>
<!-- Node1 -->
<g id="node1" class="node"><title>Node1</title>
<g id="a_node1"><a xlink:title=" ">
<polygon fill="#bfbfbf" stroke="black" points="54,-112.5 54,-131.5 167,-131.5 167,-112.5 54,-112.5"/>
<text text-anchor="middle" x="110.5" y="-119.5" font-family="Helvetica,sans-Serif" font-size="10.00">SR::DX11WeaverBase</text>
</a>
</g>
</g>
<!-- Node2 -->
<g id="node2" class="node"><title>Node2</title>
<g id="a_node2"><a xlink:href="classSR_1_1DX11Weaver.html" target="_top" xlink:title=" ">
<polygon fill="none" stroke="black" points="0,-56.5 0,-75.5 91,-75.5 91,-56.5 0,-56.5"/>
<text text-anchor="middle" x="45.5" y="-63.5" font-family="Helvetica,sans-Serif" font-size="10.00">SR::DX11Weaver</text>
</a>
</g>
</g>
<!-- Node1&#45;&gt;Node2 -->
<g id="edge1" class="edge"><title>Node1&#45;&gt;Node2</title>
<path fill="none" stroke="midnightblue" d="M92.2274,-105.82C80.5822,-96.1452 65.9005,-83.9481 56.1334,-75.8339"/>
<polygon fill="midnightblue" stroke="midnightblue" points="90.1281,-108.626 100.057,-112.324 94.6013,-103.242 90.1281,-108.626"/>
</g>
<!-- Node4 -->
<g id="node4" class="node"><title>Node4</title>
<g id="a_node4"><a xlink:href="classSR_1_1PredictingDX11Weaver.html" target="_top" xlink:title=" ">
<polygon fill="none" stroke="black" points="109.5,-56.5 109.5,-75.5 243.5,-75.5 243.5,-56.5 109.5,-56.5"/>
<text text-anchor="middle" x="176.5" y="-63.5" font-family="Helvetica,sans-Serif" font-size="10.00">SR::PredictingDX11Weaver</text>
</a>
</g>
</g>
<!-- Node1&#45;&gt;Node4 -->
<g id="edge3" class="edge"><title>Node1&#45;&gt;Node4</title>
<path fill="none" stroke="midnightblue" d="M129.054,-105.82C140.878,-96.1452 155.786,-83.9481 165.703,-75.8339"/>
<polygon fill="midnightblue" stroke="midnightblue" points="126.627,-103.283 121.104,-112.324 131.06,-108.7 126.627,-103.283"/>
</g>
<!-- Node3 -->
<g id="node3" class="node"><title>Node3</title>
<g id="a_node3"><a xlink:href="classSR_1_1DXWeaver.html" target="_top" xlink:title=" ">
<polygon fill="none" stroke="black" points="5.5,-0.5 5.5,-19.5 85.5,-19.5 85.5,-0.5 5.5,-0.5"/>
<text text-anchor="middle" x="45.5" y="-7.5" font-family="Helvetica,sans-Serif" font-size="10.00">SR::DXWeaver</text>
</a>
</g>
</g>
<!-- Node2&#45;&gt;Node3 -->
<g id="edge2" class="edge"><title>Node2&#45;&gt;Node3</title>
<path fill="none" stroke="midnightblue" d="M45.5,-45.8045C45.5,-36.9102 45.5,-26.7798 45.5,-19.7511"/>
<polygon fill="midnightblue" stroke="midnightblue" points="42.0001,-46.083 45.5,-56.083 49.0001,-46.083 42.0001,-46.083"/>
</g>
</g>
</svg>
