<?xml version="1.0" encoding="UTF-8" standalone="no"?>
<!DOCTYPE svg PUBLIC "-//W3C//DTD SVG 1.1//EN"
 "http://www.w3.org/Graphics/SVG/1.1/DTD/svg11.dtd">
<!-- Generated by graphviz version 2.38.0 (20140413.2041)
 -->
<!-- Title: SR::SwitchableLensHint Pages: 1 -->
<svg width="130pt" height="152pt"
 viewBox="0.00 0.00 130.00 152.00" xmlns="http://www.w3.org/2000/svg" xmlns:xlink="http://www.w3.org/1999/xlink">
<g id="graph0" class="graph" transform="scale(1 1) rotate(0) translate(4 148)">
<title>SR::SwitchableLensHint</title>
<!-- Node1 -->
<g id="node1" class="node"><title>Node1</title>
<g id="a_node1"><a xlink:title="Pure virtual interface for controlling switchable lenses from applications.">
<polygon fill="#bfbfbf" stroke="black" points="0,-0.5 0,-19.5 122,-19.5 122,-0.5 0,-0.5"/>
<text text-anchor="middle" x="61" y="-7.5" font-family="Helvetica,sans-Serif" font-size="10.00">SR::SwitchableLensHint</text>
</a>
</g>
</g>
<!-- Node2 -->
<g id="node2" class="node"><title>Node2</title>
<g id="a_node2"><a xlink:href="classSR_1_1Sense.html" target="_top" xlink:title="Class of objects dealing with Streams &#160;of data.">
<polygon fill="none" stroke="black" points="29,-57.5 29,-76.5 93,-76.5 93,-57.5 29,-57.5"/>
<text text-anchor="middle" x="61" y="-64.5" font-family="Helvetica,sans-Serif" font-size="10.00">SR::Sense</text>
</a>
</g>
</g>
<!-- Node2&#45;&gt;Node1 -->
<g id="edge1" class="edge"><title>Node2&#45;&gt;Node1</title>
<path fill="none" stroke="midnightblue" d="M61,-47.1166C61,-37.8173 61,-27.0557 61,-19.7149"/>
<polygon fill="midnightblue" stroke="midnightblue" points="57.5001,-47.4062 61,-57.4063 64.5001,-47.4063 57.5001,-47.4062"/>
</g>
<!-- Node3 -->
<g id="node3" class="node"><title>Node3</title>
<g id="a_node3"><a xlink:href="classSR_1_1Transformation.html" target="_top" xlink:title="Class of objects defining the relation between different coordinate systems.">
<polygon fill="none" stroke="black" points="11,-124.5 11,-143.5 111,-143.5 111,-124.5 11,-124.5"/>
<text text-anchor="middle" x="61" y="-131.5" font-family="Helvetica,sans-Serif" font-size="10.00">SR::Transformation</text>
</a>
</g>
</g>
<!-- Node3&#45;&gt;Node2 -->
<g id="edge2" class="edge"><title>Node3&#45;&gt;Node2</title>
<path fill="none" stroke="#9a32cd" stroke-dasharray="5,2" d="M61,-114.037C61,-101.67 61,-86.1198 61,-76.6273"/>
<polygon fill="#9a32cd" stroke="#9a32cd" points="57.5001,-114.234 61,-124.234 64.5001,-114.234 57.5001,-114.234"/>
<text text-anchor="middle" x="85" y="-98" font-family="Helvetica,sans-Serif" font-size="10.00"> calibration</text>
</g>
</g>
</svg>
