<?xml version="1.0" encoding="UTF-8" standalone="no"?>
<!DOCTYPE svg PUBLIC "-//W3C//DTD SVG 1.1//EN"
 "http://www.w3.org/Graphics/SVG/1.1/DTD/svg11.dtd">
<!-- Generated by graphviz version 2.38.0 (20140413.2041)
 -->
<!-- Title: SR::PredictingEyeTracker Pages: 1 -->
<svg width="225pt" height="209pt"
 viewBox="0.00 0.00 224.50 209.00" xmlns="http://www.w3.org/2000/svg" xmlns:xlink="http://www.w3.org/1999/xlink">
<g id="graph0" class="graph" transform="scale(1 1) rotate(0) translate(4 205)">
<title>SR::PredictingEyeTracker</title>
<!-- Node1 -->
<g id="node1" class="node"><title>Node1</title>
<g id="a_node1"><a xlink:title="Sense class which provides predictive eye tracking functionality.">
<polygon fill="#bfbfbf" stroke="black" points="70.5,-0.5 70.5,-19.5 199.5,-19.5 199.5,-0.5 70.5,-0.5"/>
<text text-anchor="middle" x="135" y="-7.5" font-family="Helvetica,sans-Serif" font-size="10.00">SR::PredictingEyeTracker</text>
</a>
</g>
</g>
<!-- Node2 -->
<g id="node2" class="node"><title>Node2</title>
<g id="a_node2"><a xlink:href="classSR_1_1EyeTracker.html" target="_top" xlink:title="Sense class which provides face tracking functionality to the SR system.">
<polygon fill="none" stroke="black" points="7,-57.5 7,-76.5 93,-76.5 93,-57.5 7,-57.5"/>
<text text-anchor="middle" x="50" y="-64.5" font-family="Helvetica,sans-Serif" font-size="10.00">SR::EyeTracker</text>
</a>
</g>
</g>
<!-- Node2&#45;&gt;Node1 -->
<g id="edge1" class="edge"><title>Node2&#45;&gt;Node1</title>
<path fill="none" stroke="midnightblue" d="M71.9077,-51.8244C87.7013,-41.605 108.498,-28.1483 121.812,-19.5334"/>
<polygon fill="midnightblue" stroke="midnightblue" points="69.7756,-49.0352 63.2813,-57.4063 73.5784,-54.9122 69.7756,-49.0352"/>
</g>
<!-- Node3 -->
<g id="node3" class="node"><title>Node3</title>
<g id="a_node3"><a xlink:href="classSR_1_1Sense.html" target="_top" xlink:title="Class of objects dealing with Streams &#160;of data.">
<polygon fill="none" stroke="black" points="18,-114.5 18,-133.5 82,-133.5 82,-114.5 18,-114.5"/>
<text text-anchor="middle" x="50" y="-121.5" font-family="Helvetica,sans-Serif" font-size="10.00">SR::Sense</text>
</a>
</g>
</g>
<!-- Node3&#45;&gt;Node2 -->
<g id="edge2" class="edge"><title>Node3&#45;&gt;Node2</title>
<path fill="none" stroke="midnightblue" d="M50,-104.117C50,-94.8173 50,-84.0557 50,-76.7149"/>
<polygon fill="midnightblue" stroke="midnightblue" points="46.5001,-104.406 50,-114.406 53.5001,-104.406 46.5001,-104.406"/>
</g>
<!-- Node4 -->
<g id="node4" class="node"><title>Node4</title>
<g id="a_node4"><a xlink:href="classSR_1_1Transformation.html" target="_top" xlink:title="Class of objects defining the relation between different coordinate systems.">
<polygon fill="none" stroke="black" points="0,-181.5 0,-200.5 100,-200.5 100,-181.5 0,-181.5"/>
<text text-anchor="middle" x="50" y="-188.5" font-family="Helvetica,sans-Serif" font-size="10.00">SR::Transformation</text>
</a>
</g>
</g>
<!-- Node4&#45;&gt;Node3 -->
<g id="edge3" class="edge"><title>Node4&#45;&gt;Node3</title>
<path fill="none" stroke="#9a32cd" stroke-dasharray="5,2" d="M50,-171.037C50,-158.67 50,-143.12 50,-133.627"/>
<polygon fill="#9a32cd" stroke="#9a32cd" points="46.5001,-171.234 50,-181.234 53.5001,-171.234 46.5001,-171.234"/>
<text text-anchor="middle" x="74" y="-155" font-family="Helvetica,sans-Serif" font-size="10.00"> calibration</text>
</g>
<!-- Node5 -->
<g id="node5" class="node"><title>Node5</title>
<g id="a_node5"><a xlink:href="classSR_1_1EyePairListener.html" target="_top" xlink:title="Interface for listening to SR_eyePair updates.">
<polygon fill="none" stroke="black" points="111.5,-57.5 111.5,-76.5 216.5,-76.5 216.5,-57.5 111.5,-57.5"/>
<text text-anchor="middle" x="164" y="-64.5" font-family="Helvetica,sans-Serif" font-size="10.00">SR::EyePairListener</text>
</a>
</g>
</g>
<!-- Node5&#45;&gt;Node1 -->
<g id="edge4" class="edge"><title>Node5&#45;&gt;Node1</title>
<path fill="none" stroke="midnightblue" d="M154.685,-48.334C149.642,-38.77 143.636,-27.3784 139.595,-19.7149"/>
<polygon fill="midnightblue" stroke="midnightblue" points="151.709,-50.193 159.469,-57.4063 157.901,-46.9281 151.709,-50.193"/>
</g>
</g>
</svg>
