<?xml version="1.0" encoding="UTF-8" standalone="no"?>
<!DOCTYPE svg PUBLIC "-//W3C//DTD SVG 1.1//EN"
 "http://www.w3.org/Graphics/SVG/1.1/DTD/svg11.dtd">
<!-- Generated by graphviz version 2.38.0 (20140413.2041)
 -->
<!-- Title: SR::WorldObject Pages: 1 -->
<svg width="162pt" height="84pt"
 viewBox="0.00 0.00 161.50 84.00" xmlns="http://www.w3.org/2000/svg" xmlns:xlink="http://www.w3.org/1999/xlink">
<g id="graph0" class="graph" transform="scale(1 1) rotate(0) translate(4 80)">
<title>SR::WorldObject</title>
<!-- Node1 -->
<g id="node1" class="node"><title>Node1</title>
<g id="a_node1"><a xlink:title="Class representing both real and virtual objects as nodes in the World tree.">
<polygon fill="#bfbfbf" stroke="black" points="32,-56.5 32,-75.5 122,-75.5 122,-56.5 32,-56.5"/>
<text text-anchor="middle" x="77" y="-63.5" font-family="Helvetica,sans-Serif" font-size="10.00">SR::WorldObject</text>
</a>
</g>
</g>
<!-- Node2 -->
<g id="node2" class="node"><title>Node2</title>
<g id="a_node2"><a xlink:href="classSR_1_1Display.html" target="_top" xlink:title="Class of WorldObject representing the SR display in real space.">
<polygon fill="none" stroke="black" points="0,-0.5 0,-19.5 68,-19.5 68,-0.5 0,-0.5"/>
<text text-anchor="middle" x="34" y="-7.5" font-family="Helvetica,sans-Serif" font-size="10.00">SR::Display</text>
</a>
</g>
</g>
<!-- Node1&#45;&gt;Node2 -->
<g id="edge1" class="edge"><title>Node1&#45;&gt;Node2</title>
<path fill="none" stroke="midnightblue" d="M63.5776,-48.144C56.0858,-38.7357 47.0629,-27.4046 40.9685,-19.7511"/>
<polygon fill="midnightblue" stroke="midnightblue" points="60.9321,-50.4404 69.8994,-56.083 66.4081,-46.0799 60.9321,-50.4404"/>
</g>
<!-- Node3 -->
<g id="node3" class="node"><title>Node3</title>
<g id="a_node3"><a xlink:href="classSR_1_1Screen.html" target="_top" xlink:title="Class of WorldObject representing the screen in real space.">
<polygon fill="none" stroke="black" points="86.5,-0.5 86.5,-19.5 153.5,-19.5 153.5,-0.5 86.5,-0.5"/>
<text text-anchor="middle" x="120" y="-7.5" font-family="Helvetica,sans-Serif" font-size="10.00">SR::Screen</text>
</a>
</g>
</g>
<!-- Node1&#45;&gt;Node3 -->
<g id="edge2" class="edge"><title>Node1&#45;&gt;Node3</title>
<path fill="none" stroke="midnightblue" d="M90.4224,-48.144C97.9142,-38.7357 106.937,-27.4046 113.032,-19.7511"/>
<polygon fill="midnightblue" stroke="midnightblue" points="87.5919,-46.0799 84.1006,-56.083 93.0679,-50.4404 87.5919,-46.0799"/>
</g>
</g>
</svg>
