<?xml version="1.0" encoding="UTF-8" standalone="no"?>
<!DOCTYPE svg PUBLIC "-//W3C//DTD SVG 1.1//EN"
 "http://www.w3.org/Graphics/SVG/1.1/DTD/svg11.dtd">
<!-- Generated by graphviz version 2.38.0 (20140413.2041)
 -->
<!-- Title: SR::Sense Pages: 1 -->
<svg width="410pt" height="370pt"
 viewBox="0.00 0.00 410.00 370.00" xmlns="http://www.w3.org/2000/svg" xmlns:xlink="http://www.w3.org/1999/xlink">
<g id="graph0" class="graph" transform="scale(1 1) rotate(0) translate(4 366)">
<title>SR::Sense</title>
<!-- Node1 -->
<g id="node1" class="node"><title>Node1</title>
<g id="a_node1"><a xlink:title="Class of objects dealing with Streams &#160;of data.">
<polygon fill="#bfbfbf" stroke="black" points="0,-171.5 0,-190.5 64,-190.5 64,-171.5 0,-171.5"/>
<text text-anchor="middle" x="32" y="-178.5" font-family="Helvetica,sans-Serif" font-size="10.00">SR::Sense</text>
</a>
</g>
</g>
<!-- Node2 -->
<g id="node2" class="node"><title>Node2</title>
<g id="a_node2"><a xlink:href="classSR_1_1ApplicationSense.html" target="_top" xlink:title="Sense class which shares information about SR Applications throughout the SR system and to applicatio...">
<polygon fill="none" stroke="black" points="105,-342.5 105,-361.5 217,-361.5 217,-342.5 105,-342.5"/>
<text text-anchor="middle" x="161" y="-349.5" font-family="Helvetica,sans-Serif" font-size="10.00">SR::ApplicationSense</text>
</a>
</g>
</g>
<!-- Node1&#45;&gt;Node2 -->
<g id="edge1" class="edge"><title>Node1&#45;&gt;Node2</title>
<path fill="none" stroke="midnightblue" d="M36.3259,-200.813C42.7828,-233.13 60.0566,-297.171 100,-333 104.311,-336.867 109.408,-339.947 114.782,-342.4"/>
<polygon fill="midnightblue" stroke="midnightblue" points="39.7348,-199.999 34.4736,-190.803 32.8517,-201.273 39.7348,-199.999"/>
</g>
<!-- Node3 -->
<g id="node3" class="node"><title>Node3</title>
<g id="a_node3"><a xlink:href="classSR_1_1Camera.html" target="_top" xlink:title="Class of Sense dealing with video data.">
<polygon fill="none" stroke="black" points="126,-304.5 126,-323.5 196,-323.5 196,-304.5 126,-304.5"/>
<text text-anchor="middle" x="161" y="-311.5" font-family="Helvetica,sans-Serif" font-size="10.00">SR::Camera</text>
</a>
</g>
</g>
<!-- Node1&#45;&gt;Node3 -->
<g id="edge2" class="edge"><title>Node1&#45;&gt;Node3</title>
<path fill="none" stroke="midnightblue" d="M39.3038,-200.115C48.615,-225.438 68.4301,-269.831 100,-295 107.433,-300.926 116.743,-305.018 125.797,-307.839"/>
<polygon fill="midnightblue" stroke="midnightblue" points="42.5601,-198.824 35.9528,-190.542 35.9531,-201.137 42.5601,-198.824"/>
</g>
<!-- Node4 -->
<g id="node4" class="node"><title>Node4</title>
<g id="a_node4"><a xlink:href="classSR_1_1EyeTracker.html" target="_top" xlink:title="Sense class which provides face tracking functionality to the SR system.">
<polygon fill="none" stroke="black" points="118,-266.5 118,-285.5 204,-285.5 204,-266.5 118,-266.5"/>
<text text-anchor="middle" x="161" y="-273.5" font-family="Helvetica,sans-Serif" font-size="10.00">SR::EyeTracker</text>
</a>
</g>
</g>
<!-- Node1&#45;&gt;Node4 -->
<g id="edge3" class="edge"><title>Node1&#45;&gt;Node4</title>
<path fill="none" stroke="midnightblue" d="M44.751,-199.287C56.7062,-216.505 76.747,-241.85 100,-257 105.859,-260.817 112.539,-263.914 119.262,-266.411"/>
<polygon fill="midnightblue" stroke="midnightblue" points="47.4501,-197.028 38.972,-190.674 41.6373,-200.928 47.4501,-197.028"/>
</g>
<!-- Node6 -->
<g id="node6" class="node"><title>Node6</title>
<g id="a_node6"><a xlink:href="classSR_1_1GestureAnalyser.html" target="_top" xlink:title="Sense class which provides gesture analysis functionality to the SR system.">
<polygon fill="none" stroke="black" points="106.5,-228.5 106.5,-247.5 215.5,-247.5 215.5,-228.5 106.5,-228.5"/>
<text text-anchor="middle" x="161" y="-235.5" font-family="Helvetica,sans-Serif" font-size="10.00">SR::GestureAnalyser</text>
</a>
</g>
</g>
<!-- Node1&#45;&gt;Node6 -->
<g id="edge5" class="edge"><title>Node1&#45;&gt;Node6</title>
<path fill="none" stroke="midnightblue" d="M56.5864,-195.988C69.149,-203.553 85.0557,-212.482 100,-219 108.112,-222.538 117.098,-225.74 125.592,-228.463"/>
<polygon fill="midnightblue" stroke="midnightblue" points="58.0557,-192.783 47.7028,-190.532 54.392,-198.748 58.0557,-192.783"/>
</g>
<!-- Node7 -->
<g id="node7" class="node"><title>Node7</title>
<g id="a_node7"><a xlink:href="classSR_1_1HandTracker.html" target="_top" xlink:title="Sense class which provides hand tracking functionality to the SR system.">
<polygon fill="none" stroke="black" points="115.5,-190.5 115.5,-209.5 206.5,-209.5 206.5,-190.5 115.5,-190.5"/>
<text text-anchor="middle" x="161" y="-197.5" font-family="Helvetica,sans-Serif" font-size="10.00">SR::HandTracker</text>
</a>
</g>
</g>
<!-- Node1&#45;&gt;Node7 -->
<g id="edge6" class="edge"><title>Node1&#45;&gt;Node7</title>
<path fill="none" stroke="midnightblue" d="M74.2408,-187.17C87.3787,-189.135 101.972,-191.319 115.34,-193.319"/>
<polygon fill="midnightblue" stroke="midnightblue" points="74.4755,-183.666 64.0677,-185.648 73.4397,-190.589 74.4755,-183.666"/>
</g>
<!-- Node8 -->
<g id="node8" class="node"><title>Node8</title>
<g id="a_node8"><a xlink:href="classSR_1_1HeadPoseTracker.html" target="_top" xlink:title="Sense class which provides head pose tracking functionality to the SR system.">
<polygon fill="none" stroke="black" points="104.5,-152.5 104.5,-171.5 217.5,-171.5 217.5,-152.5 104.5,-152.5"/>
<text text-anchor="middle" x="161" y="-159.5" font-family="Helvetica,sans-Serif" font-size="10.00">SR::HeadPoseTracker</text>
</a>
</g>
</g>
<!-- Node1&#45;&gt;Node8 -->
<g id="edge7" class="edge"><title>Node1&#45;&gt;Node8</title>
<path fill="none" stroke="midnightblue" d="M74.1925,-174.837C83.8553,-173.392 94.3076,-171.828 104.482,-170.306"/>
<polygon fill="midnightblue" stroke="midnightblue" points="73.4397,-171.411 64.0677,-176.352 74.4755,-178.334 73.4397,-171.411"/>
</g>
<!-- Node9 -->
<g id="node9" class="node"><title>Node9</title>
<g id="a_node9"><a xlink:href="classSR_1_1HeadTracker.html" target="_top" xlink:title="Sense class which provides face tracking functionality to the SR system.">
<polygon fill="none" stroke="black" points="115.5,-114.5 115.5,-133.5 206.5,-133.5 206.5,-114.5 115.5,-114.5"/>
<text text-anchor="middle" x="161" y="-121.5" font-family="Helvetica,sans-Serif" font-size="10.00">SR::HeadTracker</text>
</a>
</g>
</g>
<!-- Node1&#45;&gt;Node9 -->
<g id="edge8" class="edge"><title>Node1&#45;&gt;Node9</title>
<path fill="none" stroke="midnightblue" d="M56.5864,-166.012C69.149,-158.447 85.0557,-149.518 100,-143 108.112,-139.462 117.098,-136.26 125.592,-133.537"/>
<polygon fill="midnightblue" stroke="midnightblue" points="54.392,-163.252 47.7028,-171.468 58.0557,-169.217 54.392,-163.252"/>
</g>
<!-- Node10 -->
<g id="node10" class="node"><title>Node10</title>
<g id="a_node10"><a xlink:href="classSR_1_1SwitchableLensHint.html" target="_top" xlink:title="Pure virtual interface for controlling switchable lenses from applications.">
<polygon fill="none" stroke="black" points="100,-76.5 100,-95.5 222,-95.5 222,-76.5 100,-76.5"/>
<text text-anchor="middle" x="161" y="-83.5" font-family="Helvetica,sans-Serif" font-size="10.00">SR::SwitchableLensHint</text>
</a>
</g>
</g>
<!-- Node1&#45;&gt;Node10 -->
<g id="edge9" class="edge"><title>Node1&#45;&gt;Node10</title>
<path fill="none" stroke="midnightblue" d="M44.751,-162.713C56.7062,-145.495 76.747,-120.15 100,-105 105.859,-101.183 112.539,-98.0863 119.262,-95.5893"/>
<polygon fill="midnightblue" stroke="midnightblue" points="41.6373,-161.072 38.972,-171.326 47.4501,-164.972 41.6373,-161.072"/>
</g>
<!-- Node11 -->
<g id="node11" class="node"><title>Node11</title>
<g id="a_node11"><a xlink:href="classSR_1_1SystemSense.html" target="_top" xlink:title="Sense class which shares information about the SR system throughout the SR system and to applications...">
<polygon fill="none" stroke="black" points="112,-38.5 112,-57.5 210,-57.5 210,-38.5 112,-38.5"/>
<text text-anchor="middle" x="161" y="-45.5" font-family="Helvetica,sans-Serif" font-size="10.00">SR::SystemSense</text>
</a>
</g>
</g>
<!-- Node1&#45;&gt;Node11 -->
<g id="edge10" class="edge"><title>Node1&#45;&gt;Node11</title>
<path fill="none" stroke="midnightblue" d="M39.3038,-161.885C48.615,-136.562 68.4301,-92.1693 100,-67 104.87,-63.1175 110.546,-60.022 116.427,-57.5555"/>
<polygon fill="midnightblue" stroke="midnightblue" points="35.9531,-160.863 35.9528,-171.458 42.5601,-163.176 35.9531,-160.863"/>
</g>
<!-- Node12 -->
<g id="node12" class="node"><title>Node12</title>
<g id="a_node12"><a xlink:href="classSR_1_1WeaverTracker.html" target="_top" xlink:title="Sense class which provides weave tracking functionality to the SR system.">
<polygon fill="none" stroke="black" points="110.5,-0.5 110.5,-19.5 211.5,-19.5 211.5,-0.5 110.5,-0.5"/>
<text text-anchor="middle" x="161" y="-7.5" font-family="Helvetica,sans-Serif" font-size="10.00">SR::WeaverTracker</text>
</a>
</g>
</g>
<!-- Node1&#45;&gt;Node12 -->
<g id="edge11" class="edge"><title>Node1&#45;&gt;Node12</title>
<path fill="none" stroke="midnightblue" d="M36.3259,-161.187C42.7828,-128.87 60.0566,-64.8291 100,-29 104.311,-25.1332 109.408,-22.0531 114.782,-19.5997"/>
<polygon fill="midnightblue" stroke="midnightblue" points="32.8517,-160.727 34.4736,-171.197 39.7348,-162.001 32.8517,-160.727"/>
</g>
<!-- Node5 -->
<g id="node5" class="node"><title>Node5</title>
<g id="a_node5"><a xlink:href="classSR_1_1PredictingEyeTracker.html" target="_top" xlink:title="Sense class which provides predictive eye tracking functionality.">
<polygon fill="none" stroke="black" points="265.5,-266.5 265.5,-285.5 394.5,-285.5 394.5,-266.5 265.5,-266.5"/>
<text text-anchor="middle" x="330" y="-273.5" font-family="Helvetica,sans-Serif" font-size="10.00">SR::PredictingEyeTracker</text>
</a>
</g>
</g>
<!-- Node4&#45;&gt;Node5 -->
<g id="edge4" class="edge"><title>Node4&#45;&gt;Node5</title>
<path fill="none" stroke="midnightblue" d="M214.464,-276C230.615,-276 248.573,-276 265.388,-276"/>
<polygon fill="midnightblue" stroke="midnightblue" points="214.141,-272.5 204.141,-276 214.141,-279.5 214.141,-272.5"/>
</g>
<!-- Node13 -->
<g id="node13" class="node"><title>Node13</title>
<g id="a_node13"><a xlink:href="classSR_1_1PredictingWeaverTracker.html" target="_top" xlink:title="Sense class which provides predictive weaver position tracking functionality.">
<polygon fill="none" stroke="black" points="258,-0.5 258,-19.5 402,-19.5 402,-0.5 258,-0.5"/>
<text text-anchor="middle" x="330" y="-7.5" font-family="Helvetica,sans-Serif" font-size="10.00">SR::PredictingWeaverTracker</text>
</a>
</g>
</g>
<!-- Node12&#45;&gt;Node13 -->
<g id="edge12" class="edge"><title>Node12&#45;&gt;Node13</title>
<path fill="none" stroke="midnightblue" d="M221.748,-10C233.464,-10 245.861,-10 257.905,-10"/>
<polygon fill="midnightblue" stroke="midnightblue" points="221.653,-6.5001 211.653,-10 221.653,-13.5001 221.653,-6.5001"/>
</g>
</g>
</svg>
