<?xml version="1.0" encoding="UTF-8" standalone="no"?>
<!DOCTYPE svg PUBLIC "-//W3C//DTD SVG 1.1//EN"
 "http://www.w3.org/Graphics/SVG/1.1/DTD/svg11.dtd">
<!-- Generated by graphviz version 2.38.0 (20140413.2041)
 -->
<!-- Title: SR::SRContext Pages: 1 -->
<svg width="219pt" height="106pt"
 viewBox="0.00 0.00 218.50 106.00" xmlns="http://www.w3.org/2000/svg" xmlns:xlink="http://www.w3.org/1999/xlink">
<g id="graph0" class="graph" transform="scale(1 1) rotate(0) translate(4 102)">
<title>SR::SRContext</title>
<!-- Node1 -->
<g id="node1" class="node"><title>Node1</title>
<g id="a_node1"><a xlink:title="Maintains WorldObject and Sense objects during the application lifetime.">
<polygon fill="#bfbfbf" stroke="black" points="49,-0.5 49,-19.5 132,-19.5 132,-0.5 49,-0.5"/>
<text text-anchor="middle" x="90.5" y="-7.5" font-family="Helvetica,sans-Serif" font-size="10.00">SR::SRContext</text>
</a>
</g>
</g>
<!-- Node2 -->
<g id="node2" class="node"><title>Node2</title>
<g id="a_node2"><a xlink:href="classSR_1_1Receiver.html" target="_top" xlink:title="Interface to be used to enable receiving SR_packet from other SR applications.">
<polygon fill="none" stroke="black" points="0,-78.5 0,-97.5 73,-97.5 73,-78.5 0,-78.5"/>
<text text-anchor="middle" x="36.5" y="-85.5" font-family="Helvetica,sans-Serif" font-size="10.00">SR::Receiver</text>
</a>
</g>
</g>
<!-- Node2&#45;&gt;Node1 -->
<g id="edge1" class="edge"><title>Node2&#45;&gt;Node1</title>
<path fill="none" stroke="midnightblue" d="M48.575,-70.0056C59.685,-54.3693 75.711,-31.8142 84.3778,-19.6165"/>
<polygon fill="midnightblue" stroke="midnightblue" points="45.6335,-68.1028 42.6945,-78.2818 51.3397,-72.1573 45.6335,-68.1028"/>
</g>
<!-- Node3 -->
<g id="node3" class="node"><title>Node3</title>
<g id="a_node3"><a xlink:href="classSR_1_1NetworkInterface.html" target="_top" xlink:title="Interface defining how to send messages between SR applications.">
<polygon fill="none" stroke="black" points="91.5,-78.5 91.5,-97.5 199.5,-97.5 199.5,-78.5 91.5,-78.5"/>
<text text-anchor="middle" x="145.5" y="-85.5" font-family="Helvetica,sans-Serif" font-size="10.00">SR::NetworkInterface</text>
</a>
</g>
</g>
<!-- Node3&#45;&gt;Node1 -->
<g id="edge2" class="edge"><title>Node3&#45;&gt;Node1</title>
<path fill="none" stroke="#9a32cd" stroke-dasharray="5,2" d="M133.201,-70.0056C121.886,-54.3693 105.563,-31.8142 96.7356,-19.6165"/>
<polygon fill="#9a32cd" stroke="#9a32cd" points="130.493,-72.2326 139.191,-78.2818 136.163,-68.1287 130.493,-72.2326"/>
<text text-anchor="middle" x="168" y="-52" font-family="Helvetica,sans-Serif" font-size="10.00"> client</text>
<text text-anchor="middle" x="168" y="-41" font-family="Helvetica,sans-Serif" font-size="10.00">connectionToServer</text>
</g>
</g>
</svg>
