<?xml version="1.0" encoding="UTF-8" standalone="no"?>
<!DOCTYPE svg PUBLIC "-//W3C//DTD SVG 1.1//EN"
 "http://www.w3.org/Graphics/SVG/1.1/DTD/svg11.dtd">
<!-- Generated by graphviz version 2.38.0 (20140413.2041)
 -->
<!-- Title: SR::IDX10Weaver1 Pages: 1 -->
<svg width="252pt" height="140pt"
 viewBox="0.00 0.00 252.00 140.00" xmlns="http://www.w3.org/2000/svg" xmlns:xlink="http://www.w3.org/1999/xlink">
<g id="graph0" class="graph" transform="scale(1 1) rotate(0) translate(4 136)">
<title>SR::IDX10Weaver1</title>
<!-- Node1 -->
<g id="node1" class="node"><title>Node1</title>
<g id="a_node1"><a xlink:title="class to be used for weaving in DirectX 10 applications">
<polygon fill="#bfbfbf" stroke="black" points="69,-0.5 69,-19.5 167,-19.5 167,-0.5 69,-0.5"/>
<text text-anchor="middle" x="118" y="-7.5" font-family="Helvetica,sans-Serif" font-size="10.00">SR::IDX10Weaver1</text>
</a>
</g>
</g>
<!-- Node2 -->
<g id="node2" class="node"><title>Node2</title>
<g id="a_node2"><a xlink:href="classSR_1_1IDestroyable.html" target="_top" xlink:title="Interface for objects that can be destroyed.">
<polygon fill="none" stroke="black" points="0,-56.5 0,-75.5 90,-75.5 90,-56.5 0,-56.5"/>
<text text-anchor="middle" x="45" y="-63.5" font-family="Helvetica,sans-Serif" font-size="10.00">SR::IDestroyable</text>
</a>
</g>
</g>
<!-- Node2&#45;&gt;Node1 -->
<g id="edge1" class="edge"><title>Node2&#45;&gt;Node1</title>
<path fill="none" stroke="midnightblue" d="M65.1416,-50.1008C78.2793,-40.3824 94.9821,-28.0269 106.058,-19.8339"/>
<polygon fill="midnightblue" stroke="midnightblue" points="62.6867,-47.5631 56.7287,-56.324 66.8497,-53.1907 62.6867,-47.5631"/>
</g>
<!-- Node3 -->
<g id="node3" class="node"><title>Node3</title>
<g id="a_node3"><a xlink:href="classSR_1_1IQueryInterface.html" target="_top" xlink:title="Interface for querying interfaces with a specific type.">
<polygon fill="none" stroke="black" points="105.5,-112.5 105.5,-131.5 206.5,-131.5 206.5,-112.5 105.5,-112.5"/>
<text text-anchor="middle" x="156" y="-119.5" font-family="Helvetica,sans-Serif" font-size="10.00">SR::IQueryInterface</text>
</a>
</g>
</g>
<!-- Node3&#45;&gt;Node1 -->
<g id="edge2" class="edge"><title>Node3&#45;&gt;Node1</title>
<path fill="none" stroke="midnightblue" d="M147.931,-103.21C144.357,-95.0113 140.239,-85.1004 137,-76 129.904,-56.0628 123.393,-32.0272 120.153,-19.5133"/>
<polygon fill="midnightblue" stroke="midnightblue" points="144.797,-104.775 152.059,-112.489 151.192,-101.93 144.797,-104.775"/>
</g>
<!-- Node4 -->
<g id="node4" class="node"><title>Node4</title>
<g id="a_node4"><a xlink:href="classSR_1_1IWeaverBase1.html" target="_top" xlink:title="Weaver base class for all graphics APIs.">
<polygon fill="none" stroke="black" points="146,-56.5 146,-75.5 244,-75.5 244,-56.5 146,-56.5"/>
<text text-anchor="middle" x="195" y="-63.5" font-family="Helvetica,sans-Serif" font-size="10.00">SR::IWeaverBase1</text>
</a>
</g>
</g>
<!-- Node3&#45;&gt;Node4 -->
<g id="edge4" class="edge"><title>Node3&#45;&gt;Node4</title>
<path fill="none" stroke="#8b1a1a" d="M168.382,-103.855C175.135,-94.5048 183.209,-83.3265 188.68,-75.7511"/>
<polygon fill="#8b1a1a" stroke="#8b1a1a" points="165.458,-101.927 162.44,-112.083 171.132,-106.025 165.458,-101.927"/>
</g>
<!-- Node4&#45;&gt;Node1 -->
<g id="edge3" class="edge"><title>Node4&#45;&gt;Node1</title>
<path fill="none" stroke="midnightblue" d="M174.099,-50.3422C160.089,-40.5169 142.117,-27.9132 130.341,-19.6545"/>
<polygon fill="midnightblue" stroke="midnightblue" points="172.432,-53.4477 182.629,-56.324 176.451,-47.7166 172.432,-53.4477"/>
</g>
</g>
</svg>
