<?xml version="1.0" encoding="UTF-8" standalone="no"?>
<!DOCTYPE svg PUBLIC "-//W3C//DTD SVG 1.1//EN"
 "http://www.w3.org/Graphics/SVG/1.1/DTD/svg11.dtd">
<!-- Generated by graphviz version 2.38.0 (20140413.2041)
 -->
<!-- Title: SR::EyePairListener Pages: 1 -->
<svg width="300pt" height="84pt"
 viewBox="0.00 0.00 299.50 84.00" xmlns="http://www.w3.org/2000/svg" xmlns:xlink="http://www.w3.org/1999/xlink">
<g id="graph0" class="graph" transform="scale(1 1) rotate(0) translate(4 80)">
<title>SR::EyePairListener</title>
<!-- Node1 -->
<g id="node1" class="node"><title>Node1</title>
<g id="a_node1"><a xlink:title="Interface for listening to SR_eyePair updates.">
<polygon fill="#bfbfbf" stroke="black" points="89,-56.5 89,-75.5 194,-75.5 194,-56.5 89,-56.5"/>
<text text-anchor="middle" x="141.5" y="-63.5" font-family="Helvetica,sans-Serif" font-size="10.00">SR::EyePairListener</text>
</a>
</g>
</g>
<!-- Node2 -->
<g id="node2" class="node"><title>Node2</title>
<g id="a_node2"><a xlink:href="classSR_1_1PredictingEyeTracker.html" target="_top" xlink:title="Sense class which provides predictive eye tracking functionality.">
<polygon fill="none" stroke="black" points="0,-0.5 0,-19.5 129,-19.5 129,-0.5 0,-0.5"/>
<text text-anchor="middle" x="64.5" y="-7.5" font-family="Helvetica,sans-Serif" font-size="10.00">SR::PredictingEyeTracker</text>
</a>
</g>
</g>
<!-- Node1&#45;&gt;Node2 -->
<g id="edge1" class="edge"><title>Node1&#45;&gt;Node2</title>
<path fill="none" stroke="midnightblue" d="M120.599,-50.3422C106.589,-40.5169 88.617,-27.9132 76.8407,-19.6545"/>
<polygon fill="midnightblue" stroke="midnightblue" points="118.932,-53.4477 129.129,-56.324 122.951,-47.7166 118.932,-53.4477"/>
</g>
<!-- Node3 -->
<g id="node3" class="node"><title>Node3</title>
<g id="a_node3"><a xlink:href="classSR_1_1PredictingWeaverTracker.html" target="_top" xlink:title="Sense class which provides predictive weaver position tracking functionality.">
<polygon fill="none" stroke="black" points="147.5,-0.5 147.5,-19.5 291.5,-19.5 291.5,-0.5 147.5,-0.5"/>
<text text-anchor="middle" x="219.5" y="-7.5" font-family="Helvetica,sans-Serif" font-size="10.00">SR::PredictingWeaverTracker</text>
</a>
</g>
</g>
<!-- Node1&#45;&gt;Node3 -->
<g id="edge2" class="edge"><title>Node1&#45;&gt;Node3</title>
<path fill="none" stroke="midnightblue" d="M162.268,-50.6221C176.517,-40.7574 194.956,-27.9919 206.999,-19.6545"/>
<polygon fill="midnightblue" stroke="midnightblue" points="160.262,-47.7541 154.032,-56.324 164.246,-53.5095 160.262,-47.7541"/>
</g>
</g>
</svg>
