<?xml version="1.0" encoding="UTF-8" standalone="no"?>
<!DOCTYPE svg PUBLIC "-//W3C//DTD SVG 1.1//EN"
 "http://www.w3.org/Graphics/SVG/1.1/DTD/svg11.dtd">
<!-- Generated by graphviz version 2.38.0 (20140413.2041)
 -->
<!-- Title: SR::PredictingWeaverTracker Pages: 1 -->
<svg width="232pt" height="140pt"
 viewBox="0.00 0.00 232.00 140.00" xmlns="http://www.w3.org/2000/svg" xmlns:xlink="http://www.w3.org/1999/xlink">
<g id="graph0" class="graph" transform="scale(1 1) rotate(0) translate(4 136)">
<title>SR::PredictingWeaverTracker</title>
<!-- Node1 -->
<g id="node1" class="node"><title>Node1</title>
<g id="a_node1"><a xlink:title="Sense class which provides predictive weaver position tracking functionality.">
<polygon fill="#bfbfbf" stroke="black" points="38.5,-0.5 38.5,-19.5 182.5,-19.5 182.5,-0.5 38.5,-0.5"/>
<text text-anchor="middle" x="110.5" y="-7.5" font-family="Helvetica,sans-Serif" font-size="10.00">SR::PredictingWeaverTracker</text>
</a>
</g>
</g>
<!-- Node2 -->
<g id="node2" class="node"><title>Node2</title>
<g id="a_node2"><a xlink:href="classSR_1_1WeaverTracker.html" target="_top" xlink:title="Sense class which provides weave tracking functionality to the SR system.">
<polygon fill="none" stroke="black" points="0,-56.5 0,-75.5 101,-75.5 101,-56.5 0,-56.5"/>
<text text-anchor="middle" x="50.5" y="-63.5" font-family="Helvetica,sans-Serif" font-size="10.00">SR::WeaverTracker</text>
</a>
</g>
</g>
<!-- Node2&#45;&gt;Node1 -->
<g id="edge1" class="edge"><title>Node2&#45;&gt;Node1</title>
<path fill="none" stroke="midnightblue" d="M67.6809,-49.5372C78.3792,-39.9087 91.7563,-27.8694 100.685,-19.8339"/>
<polygon fill="midnightblue" stroke="midnightblue" points="65.2316,-47.0327 60.14,-56.324 69.9144,-52.2358 65.2316,-47.0327"/>
</g>
<!-- Node3 -->
<g id="node3" class="node"><title>Node3</title>
<g id="a_node3"><a xlink:href="classSR_1_1Sense.html" target="_top" xlink:title="Class of objects dealing with Streams &#160;of data.">
<polygon fill="none" stroke="black" points="18.5,-112.5 18.5,-131.5 82.5,-131.5 82.5,-112.5 18.5,-112.5"/>
<text text-anchor="middle" x="50.5" y="-119.5" font-family="Helvetica,sans-Serif" font-size="10.00">SR::Sense</text>
</a>
</g>
</g>
<!-- Node3&#45;&gt;Node2 -->
<g id="edge2" class="edge"><title>Node3&#45;&gt;Node2</title>
<path fill="none" stroke="midnightblue" d="M50.5,-101.805C50.5,-92.9102 50.5,-82.7798 50.5,-75.7511"/>
<polygon fill="midnightblue" stroke="midnightblue" points="47.0001,-102.083 50.5,-112.083 54.0001,-102.083 47.0001,-102.083"/>
</g>
<!-- Node4 -->
<g id="node4" class="node"><title>Node4</title>
<g id="a_node4"><a xlink:href="classSR_1_1EyePairListener.html" target="_top" xlink:title="Interface for listening to SR_eyePair updates.">
<polygon fill="none" stroke="black" points="119,-56.5 119,-75.5 224,-75.5 224,-56.5 119,-56.5"/>
<text text-anchor="middle" x="171.5" y="-63.5" font-family="Helvetica,sans-Serif" font-size="10.00">SR::EyePairListener</text>
</a>
</g>
</g>
<!-- Node4&#45;&gt;Node1 -->
<g id="edge3" class="edge"><title>Node4&#45;&gt;Node1</title>
<path fill="none" stroke="midnightblue" d="M154.033,-49.5372C143.156,-39.9087 129.556,-27.8694 120.479,-19.8339"/>
<polygon fill="midnightblue" stroke="midnightblue" points="151.892,-52.3162 161.699,-56.324 156.532,-47.0749 151.892,-52.3162"/>
</g>
</g>
</svg>
