<?xml version="1.0" encoding="UTF-8" standalone="no"?>
<!DOCTYPE svg PUBLIC "-//W3C//DTD SVG 1.1//EN"
 "http://www.w3.org/Graphics/SVG/1.1/DTD/svg11.dtd">
<!-- Generated by graphviz version 2.38.0 (20140413.2041)
 -->
<!-- Title: SR::IDestroyable Pages: 1 -->
<svg width="557pt" height="84pt"
 viewBox="0.00 0.00 556.50 84.00" xmlns="http://www.w3.org/2000/svg" xmlns:xlink="http://www.w3.org/1999/xlink">
<g id="graph0" class="graph" transform="scale(1 1) rotate(0) translate(4 80)">
<title>SR::IDestroyable</title>
<!-- Node1 -->
<g id="node1" class="node"><title>Node1</title>
<g id="a_node1"><a xlink:title="Interface for objects that can be destroyed.">
<polygon fill="#bfbfbf" stroke="black" points="236,-56.5 236,-75.5 326,-75.5 326,-56.5 236,-56.5"/>
<text text-anchor="middle" x="281" y="-63.5" font-family="Helvetica,sans-Serif" font-size="10.00">SR::IDestroyable</text>
</a>
</g>
</g>
<!-- Node2 -->
<g id="node2" class="node"><title>Node2</title>
<g id="a_node2"><a xlink:href="classSR_1_1IDX10Weaver1.html" target="_top" xlink:title="class to be used for weaving in DirectX 10 applications">
<polygon fill="none" stroke="black" points="0,-0.5 0,-19.5 98,-19.5 98,-0.5 0,-0.5"/>
<text text-anchor="middle" x="49" y="-7.5" font-family="Helvetica,sans-Serif" font-size="10.00">SR::IDX10Weaver1</text>
</a>
</g>
</g>
<!-- Node1&#45;&gt;Node2 -->
<g id="edge1" class="edge"><title>Node1&#45;&gt;Node2</title>
<path fill="none" stroke="midnightblue" d="M234.397,-54.1529C190.563,-43.95 125.822,-28.8809 85.5891,-19.5164"/>
<polygon fill="midnightblue" stroke="midnightblue" points="233.706,-57.5854 244.239,-56.4435 235.293,-50.7676 233.706,-57.5854"/>
</g>
<!-- Node3 -->
<g id="node3" class="node"><title>Node3</title>
<g id="a_node3"><a xlink:href="classSR_1_1IDX11Weaver1.html" target="_top" xlink:title="class to be used for weaving in DirectX 11 applications">
<polygon fill="none" stroke="black" points="116,-0.5 116,-19.5 214,-19.5 214,-0.5 116,-0.5"/>
<text text-anchor="middle" x="165" y="-7.5" font-family="Helvetica,sans-Serif" font-size="10.00">SR::IDX11Weaver1</text>
</a>
</g>
</g>
<!-- Node1&#45;&gt;Node3 -->
<g id="edge2" class="edge"><title>Node1&#45;&gt;Node3</title>
<path fill="none" stroke="midnightblue" d="M253.28,-52.096C231.608,-42.0073 202.098,-28.2697 183.295,-19.5164"/>
<polygon fill="midnightblue" stroke="midnightblue" points="252.077,-55.3962 262.619,-56.4435 255.031,-49.0501 252.077,-55.3962"/>
</g>
<!-- Node4 -->
<g id="node4" class="node"><title>Node4</title>
<g id="a_node4"><a xlink:href="classSR_1_1IDX12Weaver1.html" target="_top" xlink:title="class to be used for weaving in DirectX 12 applications">
<polygon fill="none" stroke="black" points="232,-0.5 232,-19.5 330,-19.5 330,-0.5 232,-0.5"/>
<text text-anchor="middle" x="281" y="-7.5" font-family="Helvetica,sans-Serif" font-size="10.00">SR::IDX12Weaver1</text>
</a>
</g>
</g>
<!-- Node1&#45;&gt;Node4 -->
<g id="edge3" class="edge"><title>Node1&#45;&gt;Node4</title>
<path fill="none" stroke="midnightblue" d="M281,-45.8045C281,-36.9102 281,-26.7798 281,-19.7511"/>
<polygon fill="midnightblue" stroke="midnightblue" points="277.5,-46.083 281,-56.083 284.5,-46.083 277.5,-46.083"/>
</g>
<!-- Node5 -->
<g id="node5" class="node"><title>Node5</title>
<g id="a_node5"><a xlink:href="classSR_1_1IDX9Weaver1.html" target="_top" xlink:title="class to be used for weaving in DirectX 9 applications">
<polygon fill="none" stroke="black" points="348.5,-0.5 348.5,-19.5 441.5,-19.5 441.5,-0.5 348.5,-0.5"/>
<text text-anchor="middle" x="395" y="-7.5" font-family="Helvetica,sans-Serif" font-size="10.00">SR::IDX9Weaver1</text>
</a>
</g>
</g>
<!-- Node1&#45;&gt;Node5 -->
<g id="edge4" class="edge"><title>Node1&#45;&gt;Node5</title>
<path fill="none" stroke="midnightblue" d="M308.242,-52.096C329.54,-42.0073 358.542,-28.2697 377.021,-19.5164"/>
<polygon fill="midnightblue" stroke="midnightblue" points="306.603,-48.9995 299.064,-56.4435 309.599,-55.3257 306.603,-48.9995"/>
</g>
<!-- Node6 -->
<g id="node6" class="node"><title>Node6</title>
<g id="a_node6"><a xlink:href="classSR_1_1IGLWeaver1.html" target="_top" xlink:title="class to be used for weaving in OpenGL applications">
<polygon fill="none" stroke="black" points="459.5,-0.5 459.5,-19.5 548.5,-19.5 548.5,-0.5 459.5,-0.5"/>
<text text-anchor="middle" x="504" y="-7.5" font-family="Helvetica,sans-Serif" font-size="10.00">SR::IGLWeaver1</text>
</a>
</g>
</g>
<!-- Node1&#45;&gt;Node6 -->
<g id="edge5" class="edge"><title>Node1&#45;&gt;Node6</title>
<path fill="none" stroke="midnightblue" d="M326.061,-54.0884C368.191,-43.8865 430.24,-28.8612 468.83,-19.5164"/>
<polygon fill="midnightblue" stroke="midnightblue" points="325.23,-50.6883 316.335,-56.4435 326.878,-57.4916 325.23,-50.6883"/>
</g>
</g>
</svg>
