<?xml version="1.0" encoding="UTF-8" standalone="no"?>
<!DOCTYPE svg PUBLIC "-//W3C//DTD SVG 1.1//EN"
 "http://www.w3.org/Graphics/SVG/1.1/DTD/svg11.dtd">
<!-- Generated by graphviz version 2.38.0 (20140413.2041)
 -->
<!-- Title: SR::PredictingWeaverTracker Pages: 1 -->
<svg width="232pt" height="209pt"
 viewBox="0.00 0.00 232.00 209.00" xmlns="http://www.w3.org/2000/svg" xmlns:xlink="http://www.w3.org/1999/xlink">
<g id="graph0" class="graph" transform="scale(1 1) rotate(0) translate(4 205)">
<title>SR::PredictingWeaverTracker</title>
<!-- Node1 -->
<g id="node1" class="node"><title>Node1</title>
<g id="a_node1"><a xlink:title="Sense class which provides predictive weaver position tracking functionality.">
<polygon fill="#bfbfbf" stroke="black" points="68.5,-0.5 68.5,-19.5 212.5,-19.5 212.5,-0.5 68.5,-0.5"/>
<text text-anchor="middle" x="140.5" y="-7.5" font-family="Helvetica,sans-Serif" font-size="10.00">SR::PredictingWeaverTracker</text>
</a>
</g>
</g>
<!-- Node2 -->
<g id="node2" class="node"><title>Node2</title>
<g id="a_node2"><a xlink:href="classSR_1_1WeaverTracker.html" target="_top" xlink:title="Sense class which provides weave tracking functionality to the SR system.">
<polygon fill="none" stroke="black" points="0,-57.5 0,-76.5 101,-76.5 101,-57.5 0,-57.5"/>
<text text-anchor="middle" x="50.5" y="-64.5" font-family="Helvetica,sans-Serif" font-size="10.00">SR::WeaverTracker</text>
</a>
</g>
</g>
<!-- Node2&#45;&gt;Node1 -->
<g id="edge1" class="edge"><title>Node2&#45;&gt;Node1</title>
<path fill="none" stroke="midnightblue" d="M73.229,-52.1101C90.0068,-41.857 112.307,-28.2288 126.536,-19.5334"/>
<polygon fill="midnightblue" stroke="midnightblue" points="71.2702,-49.2052 64.5625,-57.4063 74.9204,-55.1782 71.2702,-49.2052"/>
</g>
<!-- Node3 -->
<g id="node3" class="node"><title>Node3</title>
<g id="a_node3"><a xlink:href="classSR_1_1Sense.html" target="_top" xlink:title="Class of objects dealing with Streams &#160;of data.">
<polygon fill="none" stroke="black" points="18.5,-114.5 18.5,-133.5 82.5,-133.5 82.5,-114.5 18.5,-114.5"/>
<text text-anchor="middle" x="50.5" y="-121.5" font-family="Helvetica,sans-Serif" font-size="10.00">SR::Sense</text>
</a>
</g>
</g>
<!-- Node3&#45;&gt;Node2 -->
<g id="edge2" class="edge"><title>Node3&#45;&gt;Node2</title>
<path fill="none" stroke="midnightblue" d="M50.5,-104.117C50.5,-94.8173 50.5,-84.0557 50.5,-76.7149"/>
<polygon fill="midnightblue" stroke="midnightblue" points="47.0001,-104.406 50.5,-114.406 54.0001,-104.406 47.0001,-104.406"/>
</g>
<!-- Node4 -->
<g id="node4" class="node"><title>Node4</title>
<g id="a_node4"><a xlink:href="classSR_1_1Transformation.html" target="_top" xlink:title="Class of objects defining the relation between different coordinate systems.">
<polygon fill="none" stroke="black" points="0.5,-181.5 0.5,-200.5 100.5,-200.5 100.5,-181.5 0.5,-181.5"/>
<text text-anchor="middle" x="50.5" y="-188.5" font-family="Helvetica,sans-Serif" font-size="10.00">SR::Transformation</text>
</a>
</g>
</g>
<!-- Node4&#45;&gt;Node3 -->
<g id="edge3" class="edge"><title>Node4&#45;&gt;Node3</title>
<path fill="none" stroke="#9a32cd" stroke-dasharray="5,2" d="M50.5,-171.037C50.5,-158.67 50.5,-143.12 50.5,-133.627"/>
<polygon fill="#9a32cd" stroke="#9a32cd" points="47.0001,-171.234 50.5,-181.234 54.0001,-171.234 47.0001,-171.234"/>
<text text-anchor="middle" x="74.5" y="-155" font-family="Helvetica,sans-Serif" font-size="10.00"> calibration</text>
</g>
<!-- Node5 -->
<g id="node5" class="node"><title>Node5</title>
<g id="a_node5"><a xlink:href="classSR_1_1EyePairListener.html" target="_top" xlink:title="Interface for listening to SR_eyePair updates.">
<polygon fill="none" stroke="black" points="119,-57.5 119,-76.5 224,-76.5 224,-57.5 119,-57.5"/>
<text text-anchor="middle" x="171.5" y="-64.5" font-family="Helvetica,sans-Serif" font-size="10.00">SR::EyePairListener</text>
</a>
</g>
</g>
<!-- Node5&#45;&gt;Node1 -->
<g id="edge4" class="edge"><title>Node5&#45;&gt;Node1</title>
<path fill="none" stroke="midnightblue" d="M161.713,-48.6354C156.288,-39.0102 149.777,-27.459 145.412,-19.7149"/>
<polygon fill="midnightblue" stroke="midnightblue" points="158.697,-50.4133 166.656,-57.4063 164.795,-46.9762 158.697,-50.4133"/>
</g>
</g>
</svg>
