<?xml version="1.0" encoding="UTF-8" standalone="no"?>
<!DOCTYPE svg PUBLIC "-//W3C//DTD SVG 1.1//EN"
 "http://www.w3.org/Graphics/SVG/1.1/DTD/svg11.dtd">
<!-- Generated by graphviz version 2.38.0 (20140413.2041)
 -->
<!-- Title: SR::IQueryInterface Pages: 1 -->
<svg width="387pt" height="289pt"
 viewBox="0.00 0.00 387.00 289.00" xmlns="http://www.w3.org/2000/svg" xmlns:xlink="http://www.w3.org/1999/xlink">
<g id="graph0" class="graph" transform="scale(1 1) rotate(0) translate(4 285)">
<title>SR::IQueryInterface</title>
<!-- Node1 -->
<g id="node1" class="node"><title>Node1</title>
<g id="a_node1"><a xlink:title="Interface for querying interfaces with a specific type.">
<polygon fill="#bfbfbf" stroke="black" points="0,-133.5 0,-152.5 101,-152.5 101,-133.5 0,-133.5"/>
<text text-anchor="middle" x="50.5" y="-140.5" font-family="Helvetica,sans-Serif" font-size="10.00">SR::IQueryInterface</text>
</a>
</g>
</g>
<!-- Node2 -->
<g id="node2" class="node"><title>Node2</title>
<g id="a_node2"><a xlink:href="classSR_1_1IDX10Weaver1.html" target="_top" xlink:title="class to be used for weaving in DirectX 10 applications">
<polygon fill="none" stroke="black" points="281,-261.5 281,-280.5 379,-280.5 379,-261.5 281,-261.5"/>
<text text-anchor="middle" x="330" y="-268.5" font-family="Helvetica,sans-Serif" font-size="10.00">SR::IDX10Weaver1</text>
</a>
</g>
</g>
<!-- Node1&#45;&gt;Node2 -->
<g id="edge1" class="edge"><title>Node1&#45;&gt;Node2</title>
<path fill="none" stroke="midnightblue" d="M62.064,-161.305C76.1008,-183.808 103.12,-221.306 137,-240 181.493,-264.55 240.03,-270.949 280.721,-272.053"/>
<polygon fill="midnightblue" stroke="midnightblue" points="65.0224,-159.433 56.8609,-152.677 59.0281,-163.048 65.0224,-159.433"/>
</g>
<!-- Node3 -->
<g id="node3" class="node"><title>Node3</title>
<g id="a_node3"><a xlink:href="classSR_1_1IDX11Weaver1.html" target="_top" xlink:title="class to be used for weaving in DirectX 11 applications">
<polygon fill="none" stroke="black" points="281,-214.5 281,-233.5 379,-233.5 379,-214.5 281,-214.5"/>
<text text-anchor="middle" x="330" y="-221.5" font-family="Helvetica,sans-Serif" font-size="10.00">SR::IDX11Weaver1</text>
</a>
</g>
</g>
<!-- Node1&#45;&gt;Node3 -->
<g id="edge2" class="edge"><title>Node1&#45;&gt;Node3</title>
<path fill="none" stroke="midnightblue" d="M64.7086,-160.455C79.8516,-178.905 106.545,-206.965 137,-219 183.206,-237.26 240.668,-235.958 280.63,-231.679"/>
<polygon fill="midnightblue" stroke="midnightblue" points="67.3689,-158.177 58.414,-152.514 61.8834,-162.525 67.3689,-158.177"/>
</g>
<!-- Node4 -->
<g id="node4" class="node"><title>Node4</title>
<g id="a_node4"><a xlink:href="classSR_1_1IDX12Weaver1.html" target="_top" xlink:title="class to be used for weaving in DirectX 12 applications">
<polygon fill="none" stroke="black" points="281,-157.5 281,-176.5 379,-176.5 379,-157.5 281,-157.5"/>
<text text-anchor="middle" x="330" y="-164.5" font-family="Helvetica,sans-Serif" font-size="10.00">SR::IDX12Weaver1</text>
</a>
</g>
</g>
<!-- Node1&#45;&gt;Node4 -->
<g id="edge3" class="edge"><title>Node1&#45;&gt;Node4</title>
<path fill="none" stroke="midnightblue" d="M111.268,-148.169C161.935,-152.551 233.669,-158.755 280.747,-162.827"/>
<polygon fill="midnightblue" stroke="midnightblue" points="111.376,-144.665 101.111,-147.291 110.773,-151.639 111.376,-144.665"/>
</g>
<!-- Node5 -->
<g id="node5" class="node"><title>Node5</title>
<g id="a_node5"><a xlink:href="classSR_1_1IDX9Weaver1.html" target="_top" xlink:title="class to be used for weaving in DirectX 9 applications">
<polygon fill="none" stroke="black" points="283.5,-116.5 283.5,-135.5 376.5,-135.5 376.5,-116.5 283.5,-116.5"/>
<text text-anchor="middle" x="330" y="-123.5" font-family="Helvetica,sans-Serif" font-size="10.00">SR::IDX9Weaver1</text>
</a>
</g>
</g>
<!-- Node1&#45;&gt;Node5 -->
<g id="edge4" class="edge"><title>Node1&#45;&gt;Node5</title>
<path fill="none" stroke="midnightblue" d="M111.138,-139.347C162.808,-136.181 236.46,-131.669 283.497,-128.788"/>
<polygon fill="midnightblue" stroke="midnightblue" points="110.879,-135.856 101.111,-139.961 111.307,-142.843 110.879,-135.856"/>
</g>
<!-- Node6 -->
<g id="node6" class="node"><title>Node6</title>
<g id="a_node6"><a xlink:href="classSR_1_1IDisplay.html" target="_top" xlink:title="Interface representing an SR display.">
<polygon fill="none" stroke="black" points="155.5,-38.5 155.5,-57.5 226.5,-57.5 226.5,-38.5 155.5,-38.5"/>
<text text-anchor="middle" x="191" y="-45.5" font-family="Helvetica,sans-Serif" font-size="10.00">SR::IDisplay</text>
</a>
</g>
</g>
<!-- Node1&#45;&gt;Node6 -->
<g id="edge5" class="edge"><title>Node1&#45;&gt;Node6</title>
<path fill="none" stroke="midnightblue" d="M68.6369,-126.392C85.1799,-110.957 111.417,-88.0072 137,-72 145.82,-66.4815 156.122,-61.5185 165.286,-57.5574"/>
<polygon fill="midnightblue" stroke="midnightblue" points="66.1946,-123.884 61.34,-133.301 71.0077,-128.967 66.1946,-123.884"/>
</g>
<!-- Node7 -->
<g id="node7" class="node"><title>Node7</title>
<g id="a_node7"><a xlink:href="classSR_1_1IDisplayManager.html" target="_top" xlink:title="Interface for managing SR displays.">
<polygon fill="none" stroke="black" points="137,-0.5 137,-19.5 245,-19.5 245,-0.5 137,-0.5"/>
<text text-anchor="middle" x="191" y="-7.5" font-family="Helvetica,sans-Serif" font-size="10.00">SR::IDisplayManager</text>
</a>
</g>
</g>
<!-- Node1&#45;&gt;Node7 -->
<g id="edge6" class="edge"><title>Node1&#45;&gt;Node7</title>
<path fill="none" stroke="midnightblue" d="M60.9361,-124.374C74.517,-99.3245 101.853,-54.9371 137,-29 142.191,-25.1693 148.228,-22.0509 154.33,-19.5322"/>
<polygon fill="midnightblue" stroke="midnightblue" points="57.8305,-122.76 56.2688,-133.239 64.0245,-126.021 57.8305,-122.76"/>
</g>
<!-- Node8 -->
<g id="node8" class="node"><title>Node8</title>
<g id="a_node8"><a xlink:href="classSR_1_1IGLWeaver1.html" target="_top" xlink:title="class to be used for weaving in OpenGL applications">
<polygon fill="none" stroke="black" points="285.5,-78.5 285.5,-97.5 374.5,-97.5 374.5,-78.5 285.5,-78.5"/>
<text text-anchor="middle" x="330" y="-85.5" font-family="Helvetica,sans-Serif" font-size="10.00">SR::IGLWeaver1</text>
</a>
</g>
</g>
<!-- Node1&#45;&gt;Node8 -->
<g id="edge7" class="edge"><title>Node1&#45;&gt;Node8</title>
<path fill="none" stroke="midnightblue" d="M109.338,-131.537C161.715,-121.156 237.735,-106.089 285.221,-96.6769"/>
<polygon fill="midnightblue" stroke="midnightblue" points="108.649,-128.105 99.52,-133.483 110.01,-134.971 108.649,-128.105"/>
</g>
<!-- Node9 -->
<g id="node9" class="node"><title>Node9</title>
<g id="a_node9"><a xlink:href="classSR_1_1IWeaverBase1.html" target="_top" xlink:title="Weaver base class for all graphics APIs.">
<polygon fill="none" stroke="black" points="142,-190.5 142,-209.5 240,-209.5 240,-190.5 142,-190.5"/>
<text text-anchor="middle" x="191" y="-197.5" font-family="Helvetica,sans-Serif" font-size="10.00">SR::IWeaverBase1</text>
</a>
</g>
</g>
<!-- Node1&#45;&gt;Node9 -->
<g id="edge8" class="edge"><title>Node1&#45;&gt;Node9</title>
<path fill="none" stroke="#8b1a1a" d="M84.2523,-156.479C109.623,-166.921 144.146,-181.129 166.743,-190.428"/>
<polygon fill="#8b1a1a" stroke="#8b1a1a" points="85.2613,-153.11 74.6818,-152.541 82.5972,-159.583 85.2613,-153.11"/>
</g>
<!-- Node9&#45;&gt;Node2 -->
<g id="edge9" class="edge"><title>Node9&#45;&gt;Node2</title>
<path fill="none" stroke="midnightblue" d="M219.413,-214.207C246.412,-228.199 286.919,-249.191 310.379,-261.35"/>
<polygon fill="midnightblue" stroke="midnightblue" points="220.965,-211.069 210.476,-209.575 217.744,-217.284 220.965,-211.069"/>
</g>
<!-- Node9&#45;&gt;Node3 -->
<g id="edge10" class="edge"><title>Node9&#45;&gt;Node3</title>
<path fill="none" stroke="midnightblue" d="M250.292,-210.212C260.419,-211.986 270.85,-213.813 280.673,-215.534"/>
<polygon fill="midnightblue" stroke="midnightblue" points="250.755,-206.74 240.301,-208.462 249.547,-213.635 250.755,-206.74"/>
</g>
<!-- Node9&#45;&gt;Node4 -->
<g id="edge11" class="edge"><title>Node9&#45;&gt;Node4</title>
<path fill="none" stroke="midnightblue" d="M241.707,-188.027C257.42,-184.242 274.562,-180.113 289.463,-176.524"/>
<polygon fill="midnightblue" stroke="midnightblue" points="240.528,-184.71 231.626,-190.455 242.168,-191.516 240.528,-184.71"/>
</g>
<!-- Node9&#45;&gt;Node5 -->
<g id="edge12" class="edge"><title>Node9&#45;&gt;Node5</title>
<path fill="none" stroke="midnightblue" d="M216.054,-185.074C233.759,-174.303 258.553,-159.665 281,-148 289.297,-143.688 298.602,-139.32 306.795,-135.625"/>
<polygon fill="midnightblue" stroke="midnightblue" points="214.192,-182.11 207.492,-190.317 217.848,-188.079 214.192,-182.11"/>
</g>
<!-- Node9&#45;&gt;Node8 -->
<g id="edge13" class="edge"><title>Node9&#45;&gt;Node8</title>
<path fill="none" stroke="midnightblue" d="M205.242,-182.06C221.212,-161.507 249.825,-127.97 281,-107 286.503,-103.298 292.835,-100.149 299.058,-97.5422"/>
<polygon fill="midnightblue" stroke="midnightblue" points="202.282,-180.17 199.015,-190.249 207.854,-184.408 202.282,-180.17"/>
</g>
</g>
</svg>
