<?xml version="1.0" encoding="UTF-8" standalone="no"?>
<!DOCTYPE svg PUBLIC "-//W3C//DTD SVG 1.1//EN"
 "http://www.w3.org/Graphics/SVG/1.1/DTD/svg11.dtd">
<!-- Generated by graphviz version 2.38.0 (20140413.2041)
 -->
<!-- Title: commoninterfaces.h Pages: 1 -->
<svg width="438pt" height="196pt"
 viewBox="0.00 0.00 437.50 196.00" xmlns="http://www.w3.org/2000/svg" xmlns:xlink="http://www.w3.org/1999/xlink">
<g id="graph0" class="graph" transform="scale(1 1) rotate(0) translate(4 192)">
<title>commoninterfaces.h</title>
<!-- Node1 -->
<g id="node1" class="node"><title>Node1</title>
<g id="a_node1"><a xlink:title=" ">
<polygon fill="#bfbfbf" stroke="black" points="214.5,-168.5 214.5,-187.5 318.5,-187.5 318.5,-168.5 214.5,-168.5"/>
<text text-anchor="middle" x="266.5" y="-175.5" font-family="Helvetica,sans-Serif" font-size="10.00">commoninterfaces.h</text>
</a>
</g>
</g>
<!-- Node2 -->
<g id="node2" class="node"><title>Node2</title>
<g id="a_node2"><a xlink:href="IWeaverBase_8h.html" target="_top" xlink:title=" ">
<polygon fill="none" stroke="black" points="182.5,-112.5 182.5,-131.5 264.5,-131.5 264.5,-112.5 182.5,-112.5"/>
<text text-anchor="middle" x="223.5" y="-119.5" font-family="Helvetica,sans-Serif" font-size="10.00">IWeaverBase.h</text>
</a>
</g>
</g>
<!-- Node1&#45;&gt;Node2 -->
<g id="edge1" class="edge"><title>Node1&#45;&gt;Node2</title>
<path fill="none" stroke="midnightblue" d="M253.078,-160.144C245.586,-150.736 236.563,-139.405 230.468,-131.751"/>
<polygon fill="midnightblue" stroke="midnightblue" points="250.432,-162.44 259.399,-168.083 255.908,-158.08 250.432,-162.44"/>
</g>
<!-- Node9 -->
<g id="node9" class="node"><title>Node9</title>
<g id="a_node9"><a xlink:href="display_8h.html" target="_top" xlink:title=" ">
<polygon fill="none" stroke="black" points="282.5,-112.5 282.5,-131.5 338.5,-131.5 338.5,-112.5 282.5,-112.5"/>
<text text-anchor="middle" x="310.5" y="-119.5" font-family="Helvetica,sans-Serif" font-size="10.00">display.h</text>
</a>
</g>
</g>
<!-- Node1&#45;&gt;Node9 -->
<g id="edge8" class="edge"><title>Node1&#45;&gt;Node9</title>
<path fill="none" stroke="midnightblue" d="M280.235,-160.144C287.901,-150.736 297.133,-139.405 303.369,-131.751"/>
<polygon fill="midnightblue" stroke="midnightblue" points="277.369,-158.12 273.766,-168.083 282.796,-162.541 277.369,-158.12"/>
</g>
<!-- Node3 -->
<g id="node3" class="node"><title>Node3</title>
<g id="a_node3"><a xlink:href="dx10weaver_8h.html" target="_top" xlink:title=" ">
<polygon fill="none" stroke="black" points="0,-56.5 0,-75.5 75,-75.5 75,-56.5 0,-56.5"/>
<text text-anchor="middle" x="37.5" y="-63.5" font-family="Helvetica,sans-Serif" font-size="10.00">dx10weaver.h</text>
</a>
</g>
</g>
<!-- Node2&#45;&gt;Node3 -->
<g id="edge2" class="edge"><title>Node2&#45;&gt;Node3</title>
<path fill="none" stroke="midnightblue" d="M184.122,-109.568C149.034,-99.381 98.4785,-84.7034 66.8344,-75.5164"/>
<polygon fill="midnightblue" stroke="midnightblue" points="183.448,-113.017 194.028,-112.444 185.4,-106.294 183.448,-113.017"/>
</g>
<!-- Node4 -->
<g id="node4" class="node"><title>Node4</title>
<g id="a_node4"><a xlink:href="dx11weaver_8h.html" target="_top" xlink:title=" ">
<polygon fill="none" stroke="black" points="93,-56.5 93,-75.5 168,-75.5 168,-56.5 93,-56.5"/>
<text text-anchor="middle" x="130.5" y="-63.5" font-family="Helvetica,sans-Serif" font-size="10.00">dx11weaver.h</text>
</a>
</g>
</g>
<!-- Node2&#45;&gt;Node4 -->
<g id="edge3" class="edge"><title>Node2&#45;&gt;Node4</title>
<path fill="none" stroke="midnightblue" d="M199.694,-107.177C182.581,-97.2407 160.035,-84.1492 145.405,-75.6545"/>
<polygon fill="midnightblue" stroke="midnightblue" points="198.153,-110.329 208.558,-112.324 201.668,-104.276 198.153,-110.329"/>
</g>
<!-- Node6 -->
<g id="node6" class="node"><title>Node6</title>
<g id="a_node6"><a xlink:href="dx12weaver_8h.html" target="_top" xlink:title=" ">
<polygon fill="none" stroke="black" points="186,-56.5 186,-75.5 261,-75.5 261,-56.5 186,-56.5"/>
<text text-anchor="middle" x="223.5" y="-63.5" font-family="Helvetica,sans-Serif" font-size="10.00">dx12weaver.h</text>
</a>
</g>
</g>
<!-- Node2&#45;&gt;Node6 -->
<g id="edge5" class="edge"><title>Node2&#45;&gt;Node6</title>
<path fill="none" stroke="midnightblue" d="M223.5,-101.805C223.5,-92.9102 223.5,-82.7798 223.5,-75.7511"/>
<polygon fill="midnightblue" stroke="midnightblue" points="220,-102.083 223.5,-112.083 227,-102.083 220,-102.083"/>
</g>
<!-- Node7 -->
<g id="node7" class="node"><title>Node7</title>
<g id="a_node7"><a xlink:href="dx9weaver_8h.html" target="_top" xlink:title=" ">
<polygon fill="none" stroke="black" points="279.5,-56.5 279.5,-75.5 349.5,-75.5 349.5,-56.5 279.5,-56.5"/>
<text text-anchor="middle" x="314.5" y="-63.5" font-family="Helvetica,sans-Serif" font-size="10.00">dx9weaver.h</text>
</a>
</g>
</g>
<!-- Node2&#45;&gt;Node7 -->
<g id="edge6" class="edge"><title>Node2&#45;&gt;Node7</title>
<path fill="none" stroke="midnightblue" d="M246.794,-107.177C263.539,-97.2407 285.6,-84.1492 299.916,-75.6545"/>
<polygon fill="midnightblue" stroke="midnightblue" points="244.934,-104.211 238.121,-112.324 248.507,-110.231 244.934,-104.211"/>
</g>
<!-- Node8 -->
<g id="node8" class="node"><title>Node8</title>
<g id="a_node8"><a xlink:href="glweaver_8h.html" target="_top" xlink:title=" ">
<polygon fill="none" stroke="black" points="367.5,-56.5 367.5,-75.5 429.5,-75.5 429.5,-56.5 367.5,-56.5"/>
<text text-anchor="middle" x="398.5" y="-63.5" font-family="Helvetica,sans-Serif" font-size="10.00">glweaver.h</text>
</a>
</g>
</g>
<!-- Node2&#45;&gt;Node8 -->
<g id="edge7" class="edge"><title>Node2&#45;&gt;Node8</title>
<path fill="none" stroke="midnightblue" d="M260.975,-109.436C293.97,-99.2551 341.256,-84.664 370.9,-75.5164"/>
<polygon fill="midnightblue" stroke="midnightblue" points="259.753,-106.151 251.229,-112.444 261.817,-112.839 259.753,-106.151"/>
</g>
<!-- Node5 -->
<g id="node5" class="node"><title>Node5</title>
<g id="a_node5"><a xlink:href="dxweaver_8h.html" target="_top" xlink:title=" ">
<polygon fill="none" stroke="black" points="98,-0.5 98,-19.5 163,-19.5 163,-0.5 98,-0.5"/>
<text text-anchor="middle" x="130.5" y="-7.5" font-family="Helvetica,sans-Serif" font-size="10.00">dxweaver.h</text>
</a>
</g>
</g>
<!-- Node4&#45;&gt;Node5 -->
<g id="edge4" class="edge"><title>Node4&#45;&gt;Node5</title>
<path fill="none" stroke="midnightblue" d="M130.5,-45.8045C130.5,-36.9102 130.5,-26.7798 130.5,-19.7511"/>
<polygon fill="midnightblue" stroke="midnightblue" points="127,-46.083 130.5,-56.083 134,-46.083 127,-46.083"/>
</g>
</g>
</svg>
