<?xml version="1.0" encoding="UTF-8" standalone="no"?>
<!DOCTYPE svg PUBLIC "-//W3C//DTD SVG 1.1//EN"
 "http://www.w3.org/Graphics/SVG/1.1/DTD/svg11.dtd">
<!-- Generated by graphviz version 2.38.0 (20140413.2041)
 -->
<!-- Title: cameras Pages: 1 -->
<svg width="242pt" height="167pt"
 viewBox="0.00 0.00 241.50 167.00" xmlns="http://www.w3.org/2000/svg" xmlns:xlink="http://www.w3.org/1999/xlink">
<g id="graph0" class="graph" transform="scale(1 1) rotate(0) translate(4 163)">
<title>cameras</title>
<g id="clust1" class="cluster"><title>clusterdir_85bb4319f06e9e87e59ac1e1fa9883ec</title>
<g id="a_clust1"><a xlink:href="dir_85bb4319f06e9e87e59ac1e1fa9883ec.html" target="_top" xlink:title="sense">
<polygon fill="#ddddee" stroke="black" points="8,-8 8,-151 78,-151 78,-8 8,-8"/>
<text text-anchor="middle" x="43" y="-139" font-family="Helvetica,sans-Serif" font-size="10.00">sense</text>
</a>
</g>
</g>
<!-- dir_d4293a104470c8f6c90708837af5f965 -->
<g id="node1" class="node"><title>dir_d4293a104470c8f6c90708837af5f965</title>
<g id="a_node1"><a xlink:href="dir_d4293a104470c8f6c90708837af5f965.html" target="_top" xlink:title="core">
<polygon fill="none" stroke="black" points="70,-52 16,-52 16,-16 70,-16 70,-52"/>
<text text-anchor="middle" x="43" y="-31.5" font-family="Helvetica,sans-Serif" font-size="10.00">core</text>
</a>
</g>
</g>
<!-- dir_7b0eaadd40ddde09b1b220b587dc8760 -->
<g id="node2" class="node"><title>dir_7b0eaadd40ddde09b1b220b587dc8760</title>
<g id="a_node2"><a xlink:href="dir_7b0eaadd40ddde09b1b220b587dc8760.html" target="_top" xlink:title="cameras">
<polygon fill="#eeeeff" stroke="black" points="70,-124 16,-124 16,-88 70,-88 70,-124"/>
<text text-anchor="middle" x="43" y="-103.5" font-family="Helvetica,sans-Serif" font-size="10.00">cameras</text>
</a>
</g>
</g>
<!-- dir_7b0eaadd40ddde09b1b220b587dc8760&#45;&gt;dir_d4293a104470c8f6c90708837af5f965 -->
<g id="edge4" class="edge"><title>dir_7b0eaadd40ddde09b1b220b587dc8760&#45;&gt;dir_d4293a104470c8f6c90708837af5f965</title>
<path fill="none" stroke="black" d="M43,-87.6966C43,-79.9827 43,-70.7125 43,-62.1124"/>
<polygon fill="black" stroke="black" points="46.5001,-62.1043 43,-52.1043 39.5001,-62.1044 46.5001,-62.1043"/>
<g id="a_edge4&#45;headlabel"><a xlink:href="dir_000021_000022.html" target="_top" xlink:title="2">
<text text-anchor="middle" x="49.3393" y="-63.199" font-family="Helvetica,sans-Serif" font-size="10.00">2</text>
</a>
</g>
</g>
<!-- dir_0c02e257388e42407cec519a87c0574c -->
<g id="node3" class="node"><title>dir_0c02e257388e42407cec519a87c0574c</title>
<g id="a_node3"><a xlink:href="dir_0c02e257388e42407cec519a87c0574c.html" target="_top" xlink:title="utility">
<polygon fill="none" stroke="black" points="142,-52 88,-52 88,-16 142,-16 142,-52"/>
<text text-anchor="middle" x="115" y="-31.5" font-family="Helvetica,sans-Serif" font-size="10.00">utility</text>
</a>
</g>
</g>
<!-- dir_7b0eaadd40ddde09b1b220b587dc8760&#45;&gt;dir_0c02e257388e42407cec519a87c0574c -->
<g id="edge2" class="edge"><title>dir_7b0eaadd40ddde09b1b220b587dc8760&#45;&gt;dir_0c02e257388e42407cec519a87c0574c</title>
<path fill="none" stroke="black" d="M60.7978,-87.6966C69.604,-79.135 80.3821,-68.6562 90.0011,-59.3045"/>
<polygon fill="black" stroke="black" points="92.6768,-61.5846 97.407,-52.1043 87.7972,-56.5657 92.6768,-61.5846"/>
<g id="a_edge2&#45;headlabel"><a xlink:href="dir_000021_000030.html" target="_top" xlink:title="1">
<text text-anchor="middle" x="92.0787" y="-63.6261" font-family="Helvetica,sans-Serif" font-size="10.00">1</text>
</a>
</g>
</g>
<!-- dir_67bea91204836d3aa74aa5eed79a3b47 -->
<g id="node4" class="node"><title>dir_67bea91204836d3aa74aa5eed79a3b47</title>
<g id="a_node4"><a xlink:href="dir_67bea91204836d3aa74aa5eed79a3b47.html" target="_top" xlink:title="management">
<polygon fill="none" stroke="black" points="233.5,-52 160.5,-52 160.5,-16 233.5,-16 233.5,-52"/>
<text text-anchor="middle" x="197" y="-31.5" font-family="Helvetica,sans-Serif" font-size="10.00">management</text>
</a>
</g>
</g>
<!-- dir_7b0eaadd40ddde09b1b220b587dc8760&#45;&gt;dir_67bea91204836d3aa74aa5eed79a3b47 -->
<g id="edge3" class="edge"><title>dir_7b0eaadd40ddde09b1b220b587dc8760&#45;&gt;dir_67bea91204836d3aa74aa5eed79a3b47</title>
<path fill="none" stroke="black" d="M70.1776,-92.6465C92.4798,-82.5092 124.554,-67.9299 150.866,-55.9699"/>
<polygon fill="black" stroke="black" points="152.615,-59.0195 160.271,-51.6952 149.719,-52.647 152.615,-59.0195"/>
<g id="a_edge3&#45;headlabel"><a xlink:href="dir_000021_000016.html" target="_top" xlink:title="1">
<text text-anchor="middle" x="150.518" y="-60.5917" font-family="Helvetica,sans-Serif" font-size="10.00">1</text>
</a>
</g>
</g>
<!-- dir_67bea91204836d3aa74aa5eed79a3b47&#45;&gt;dir_d4293a104470c8f6c90708837af5f965 -->
<g id="edge1" class="edge"><title>dir_67bea91204836d3aa74aa5eed79a3b47&#45;&gt;dir_d4293a104470c8f6c90708837af5f965</title>
<path fill="none" stroke="black" d="M175.737,-52.0811C166.092,-59.1315 154.139,-66.3803 142,-70 119.001,-76.8578 110.647,-77.9442 88,-70 80.8603,-67.4955 74.0119,-63.3291 67.9057,-58.7013"/>
<polygon fill="black" stroke="black" points="70.0145,-55.9032 60.0815,-52.2173 65.5479,-61.293 70.0145,-55.9032"/>
<g id="a_edge1&#45;headlabel"><a xlink:href="dir_000016_000022.html" target="_top" xlink:title="3">
<text text-anchor="middle" x="74.5939" y="-53.5107" font-family="Helvetica,sans-Serif" font-size="10.00">3</text>
</a>
</g>
</g>
</g>
</svg>
