<?xml version="1.0" encoding="UTF-8" standalone="no"?>
<!DOCTYPE svg PUBLIC "-//W3C//DTD SVG 1.1//EN"
 "http://www.w3.org/Graphics/SVG/1.1/DTD/svg11.dtd">
<!-- Generated by graphviz version 2.38.0 (20140413.2041)
 -->
<!-- Title: headtracker Pages: 1 -->
<svg width="122pt" height="223pt"
 viewBox="0.00 0.00 121.50 223.00" xmlns="http://www.w3.org/2000/svg" xmlns:xlink="http://www.w3.org/1999/xlink">
<g id="graph0" class="graph" transform="scale(1 1) rotate(0) translate(4 219)">
<title>headtracker</title>
<g id="clust1" class="cluster"><title>clusterdir_85bb4319f06e9e87e59ac1e1fa9883ec</title>
<g id="a_clust1"><a xlink:href="dir_85bb4319f06e9e87e59ac1e1fa9883ec.html" target="_top" xlink:title="sense">
<polygon fill="#ddddee" stroke="black" points="8,-64 8,-207 92,-207 92,-64 8,-64"/>
<text text-anchor="middle" x="50" y="-195" font-family="Helvetica,sans-Serif" font-size="10.00">sense</text>
</a>
</g>
</g>
<!-- dir_e41b5b8bd1fbcc162476105fe4b89ba1 -->
<g id="node1" class="node"><title>dir_e41b5b8bd1fbcc162476105fe4b89ba1</title>
<g id="a_node1"><a xlink:href="dir_e41b5b8bd1fbcc162476105fe4b89ba1.html" target="_top" xlink:title="eyetracker">
<polygon fill="none" stroke="black" points="79,-108 17,-108 17,-72 79,-72 79,-108"/>
<text text-anchor="middle" x="48" y="-87.5" font-family="Helvetica,sans-Serif" font-size="10.00">eyetracker</text>
</a>
</g>
</g>
<!-- dir_67bea91204836d3aa74aa5eed79a3b47 -->
<g id="node3" class="node"><title>dir_67bea91204836d3aa74aa5eed79a3b47</title>
<g id="a_node3"><a xlink:href="dir_67bea91204836d3aa74aa5eed79a3b47.html" target="_top" xlink:title="management">
<polygon fill="none" stroke="black" points="113.5,-36 40.5,-36 40.5,-0 113.5,-0 113.5,-36"/>
<text text-anchor="middle" x="77" y="-15.5" font-family="Helvetica,sans-Serif" font-size="10.00">management</text>
</a>
</g>
</g>
<!-- dir_e41b5b8bd1fbcc162476105fe4b89ba1&#45;&gt;dir_67bea91204836d3aa74aa5eed79a3b47 -->
<g id="edge3" class="edge"><title>dir_e41b5b8bd1fbcc162476105fe4b89ba1&#45;&gt;dir_67bea91204836d3aa74aa5eed79a3b47</title>
<path fill="none" stroke="black" d="M55.1685,-71.6966C58.4345,-63.8132 62.374,-54.3042 66.0022,-45.5464"/>
<polygon fill="black" stroke="black" points="69.32,-46.6825 69.9139,-36.1043 62.853,-44.0033 69.32,-46.6825"/>
<g id="a_edge3&#45;headlabel"><a xlink:href="dir_000024_000016.html" target="_top" xlink:title="1">
<text text-anchor="middle" x="70.5673" y="-48.5901" font-family="Helvetica,sans-Serif" font-size="10.00">1</text>
</a>
</g>
</g>
<!-- dir_79f37e3922a65a48b8e68c3a92e385a2 -->
<g id="node2" class="node"><title>dir_79f37e3922a65a48b8e68c3a92e385a2</title>
<g id="a_node2"><a xlink:href="dir_79f37e3922a65a48b8e68c3a92e385a2.html" target="_top" xlink:title="headtracker">
<polygon fill="#eeeeff" stroke="black" points="84,-180 16,-180 16,-144 84,-144 84,-180"/>
<text text-anchor="middle" x="50" y="-159.5" font-family="Helvetica,sans-Serif" font-size="10.00">headtracker</text>
</a>
</g>
</g>
<!-- dir_79f37e3922a65a48b8e68c3a92e385a2&#45;&gt;dir_e41b5b8bd1fbcc162476105fe4b89ba1 -->
<g id="edge2" class="edge"><title>dir_79f37e3922a65a48b8e68c3a92e385a2&#45;&gt;dir_e41b5b8bd1fbcc162476105fe4b89ba1</title>
<path fill="none" stroke="black" d="M49.5056,-143.697C49.2852,-135.983 49.0204,-126.712 48.7746,-118.112"/>
<polygon fill="black" stroke="black" points="52.273,-118 48.4887,-108.104 45.2758,-118.2 52.273,-118"/>
<g id="a_edge2&#45;headlabel"><a xlink:href="dir_000027_000024.html" target="_top" xlink:title="1">
<text text-anchor="middle" x="55.2136" y="-119.012" font-family="Helvetica,sans-Serif" font-size="10.00">1</text>
</a>
</g>
</g>
<!-- dir_79f37e3922a65a48b8e68c3a92e385a2&#45;&gt;dir_67bea91204836d3aa74aa5eed79a3b47 -->
<g id="edge1" class="edge"><title>dir_79f37e3922a65a48b8e68c3a92e385a2&#45;&gt;dir_67bea91204836d3aa74aa5eed79a3b47</title>
<path fill="none" stroke="black" d="M66.4635,-143.919C74.6538,-134.218 83.7036,-121.366 88,-108 94.492,-87.8039 90.9569,-63.8933 86.2295,-45.9439"/>
<polygon fill="black" stroke="black" points="89.5305,-44.7609 83.3751,-36.1376 82.8094,-46.7173 89.5305,-44.7609"/>
<g id="a_edge1&#45;headlabel"><a xlink:href="dir_000027_000016.html" target="_top" xlink:title="2">
<text text-anchor="middle" x="93.2612" y="-44.9188" font-family="Helvetica,sans-Serif" font-size="10.00">2</text>
</a>
</g>
</g>
</g>
</svg>
