<?xml version="1.0" encoding="UTF-8" standalone="no"?>
<!DOCTYPE svg PUBLIC "-//W3C//DTD SVG 1.1//EN"
 "http://www.w3.org/Graphics/SVG/1.1/DTD/svg11.dtd">
<!-- Generated by graphviz version 2.38.0 (20140413.2041)
 -->
<!-- Title: world Pages: 1 -->
<svg width="246pt" height="175pt"
 viewBox="0.00 0.00 246.00 175.00" xmlns="http://www.w3.org/2000/svg" xmlns:xlink="http://www.w3.org/1999/xlink">
<g id="graph0" class="graph" transform="scale(1 1) rotate(0) translate(4 171)">
<title>world</title>
<g id="clust1" class="cluster"><title>clusterdir_181b97c696d61d660e92d1735a1810bf</title>
<g id="a_clust1"><a xlink:href="dir_181b97c696d61d660e92d1735a1810bf.html" target="_top" xlink:title="sr">
<polygon fill="#ddddee" stroke="black" points="8,-8 8,-159 230,-159 230,-8 8,-8"/>
<text text-anchor="middle" x="119" y="-147" font-family="Helvetica,sans-Serif" font-size="10.00">sr</text>
</a>
</g>
</g>
<g id="clust2" class="cluster"><title>clusterdir_930f90e24af77991bb71f7dab9aae0bd</title>
<g id="a_clust2"><a xlink:href="dir_930f90e24af77991bb71f7dab9aae0bd.html" target="_top">
<polygon fill="#eeeeff" stroke="black" points="80,-80 80,-132 222,-132 222,-80 80,-80"/>
</a>
</g>
</g>
<!-- dir_0c02e257388e42407cec519a87c0574c -->
<g id="node1" class="node"><title>dir_0c02e257388e42407cec519a87c0574c</title>
<g id="a_node1"><a xlink:href="dir_0c02e257388e42407cec519a87c0574c.html" target="_top" xlink:title="utility">
<polygon fill="none" stroke="black" points="201,-52 147,-52 147,-16 201,-16 201,-52"/>
<text text-anchor="middle" x="174" y="-31.5" font-family="Helvetica,sans-Serif" font-size="10.00">utility</text>
</a>
</g>
</g>
<!-- dir_67bea91204836d3aa74aa5eed79a3b47 -->
<g id="node2" class="node"><title>dir_67bea91204836d3aa74aa5eed79a3b47</title>
<g id="a_node2"><a xlink:href="dir_67bea91204836d3aa74aa5eed79a3b47.html" target="_top" xlink:title="management">
<polygon fill="none" stroke="black" points="115.5,-52 42.5,-52 42.5,-16 115.5,-16 115.5,-52"/>
<text text-anchor="middle" x="79" y="-31.5" font-family="Helvetica,sans-Serif" font-size="10.00">management</text>
</a>
</g>
</g>
<!-- dir_85bb4319f06e9e87e59ac1e1fa9883ec -->
<g id="node3" class="node"><title>dir_85bb4319f06e9e87e59ac1e1fa9883ec</title>
<g id="a_node3"><a xlink:href="dir_85bb4319f06e9e87e59ac1e1fa9883ec.html" target="_top" xlink:title="sense">
<polygon fill="none" stroke="red" points="70,-124 16,-124 16,-88 70,-88 70,-124"/>
<text text-anchor="middle" x="43" y="-103.5" font-family="Helvetica,sans-Serif" font-size="10.00">sense</text>
</a>
</g>
</g>
<!-- dir_67bea91204836d3aa74aa5eed79a3b47&#45;&gt;dir_85bb4319f06e9e87e59ac1e1fa9883ec -->
<g id="edge1" class="edge"><title>dir_67bea91204836d3aa74aa5eed79a3b47&#45;&gt;dir_85bb4319f06e9e87e59ac1e1fa9883ec</title>
<path fill="none" stroke="black" d="M76.0985,-52.1043C72.8124,-60.1291 68.0229,-69.871 63.0328,-78.7967"/>
<polygon fill="black" stroke="black" points="59.8533,-77.2998 57.8146,-87.6966 65.8919,-80.8403 59.8533,-77.2998"/>
<g id="a_edge1&#45;headlabel"><a xlink:href="dir_000016_000019.html" target="_top" xlink:title="3">
<text text-anchor="middle" x="59.222" y="-70.2628" font-family="Helvetica,sans-Serif" font-size="10.00">3</text>
</a>
</g>
</g>
<!-- dir_930f90e24af77991bb71f7dab9aae0bd -->
<g id="node4" class="node"><title>dir_930f90e24af77991bb71f7dab9aae0bd</title>
<text text-anchor="middle" x="115" y="-103.5" font-family="Helvetica,sans-Serif" font-size="10.00">world</text>
</g>
<!-- dir_67bea91204836d3aa74aa5eed79a3b47&#45;&gt;dir_930f90e24af77991bb71f7dab9aae0bd -->
<g id="edge2" class="edge"><title>dir_67bea91204836d3aa74aa5eed79a3b47&#45;&gt;dir_930f90e24af77991bb71f7dab9aae0bd</title>
<path fill="none" stroke="black" d="M87.7965,-52.1043C91.9236,-60.1291 96.9337,-69.871 101.524,-78.7967"/>
<polygon fill="black" stroke="black" points="98.4151,-80.4045 106.101,-87.6966 104.64,-77.203 98.4151,-80.4045"/>
<g id="a_edge2&#45;headlabel"><a xlink:href="dir_000016_000032.html" target="_top" xlink:title="1">
<text text-anchor="middle" x="94.2462" y="-76.0064" font-family="Helvetica,sans-Serif" font-size="10.00">1</text>
</a>
</g>
</g>
<!-- dir_85bb4319f06e9e87e59ac1e1fa9883ec&#45;&gt;dir_0c02e257388e42407cec519a87c0574c -->
<g id="edge3" class="edge"><title>dir_85bb4319f06e9e87e59ac1e1fa9883ec&#45;&gt;dir_0c02e257388e42407cec519a87c0574c</title>
<path fill="none" stroke="black" d="M64.1833,-87.8933C68.0171,-85.1065 72.0531,-82.3627 76,-80 95.4245,-68.3723 118.364,-57.6891 137.164,-49.6524"/>
<polygon fill="black" stroke="black" points="138.712,-52.7985 146.577,-45.7001 136.002,-46.3444 138.712,-52.7985"/>
<g id="a_edge3&#45;headlabel"><a xlink:href="dir_000019_000030.html" target="_top" xlink:title="1">
<text text-anchor="middle" x="136.497" y="-54.3079" font-family="Helvetica,sans-Serif" font-size="10.00">1</text>
</a>
</g>
</g>
<!-- dir_85bb4319f06e9e87e59ac1e1fa9883ec&#45;&gt;dir_67bea91204836d3aa74aa5eed79a3b47 -->
<g id="edge4" class="edge"><title>dir_85bb4319f06e9e87e59ac1e1fa9883ec&#45;&gt;dir_67bea91204836d3aa74aa5eed79a3b47</title>
<path fill="none" stroke="black" d="M45.9832,-87.6966C49.294,-79.6436 54.0975,-69.8945 59.0908,-60.9824"/>
<polygon fill="black" stroke="black" points="62.2591,-62.4991 64.3085,-52.1043 56.2242,-58.9523 62.2591,-62.4991"/>
<g id="a_edge4&#45;headlabel"><a xlink:href="dir_000019_000016.html" target="_top" xlink:title="10">
<text text-anchor="middle" x="62.8857" y="-64.5367" font-family="Helvetica,sans-Serif" font-size="10.00">10</text>
</a>
</g>
</g>
<!-- dir_930f90e24af77991bb71f7dab9aae0bd&#45;&gt;dir_85bb4319f06e9e87e59ac1e1fa9883ec -->
<g id="edge5" class="edge"><title>dir_930f90e24af77991bb71f7dab9aae0bd&#45;&gt;dir_85bb4319f06e9e87e59ac1e1fa9883ec</title>
<path fill="none" stroke="black" d="M87.7495,-106C85.293,-106 82.8366,-106 80.3801,-106"/>
<polygon fill="black" stroke="black" points="80.2813,-102.5 70.2813,-106 80.2812,-109.5 80.2813,-102.5"/>
<g id="a_edge5&#45;headlabel"><a xlink:href="dir_000032_000019.html" target="_top" xlink:title="1">
<text text-anchor="middle" x="83.8759" y="-97.1607" font-family="Helvetica,sans-Serif" font-size="10.00">1</text>
</a>
</g>
</g>
<!-- dir_a832ddf9fa4b48d8f78eff0b5738919b -->
<g id="node5" class="node"><title>dir_a832ddf9fa4b48d8f78eff0b5738919b</title>
<g id="a_node5"><a xlink:href="dir_a832ddf9fa4b48d8f78eff0b5738919b.html" target="_top" xlink:title="display">
<polygon fill="white" stroke="black" points="214,-124 160,-124 160,-88 214,-88 214,-124"/>
<text text-anchor="middle" x="187" y="-103.5" font-family="Helvetica,sans-Serif" font-size="10.00">display</text>
</a>
</g>
</g>
<!-- dir_a832ddf9fa4b48d8f78eff0b5738919b&#45;&gt;dir_0c02e257388e42407cec519a87c0574c -->
<g id="edge6" class="edge"><title>dir_a832ddf9fa4b48d8f78eff0b5738919b&#45;&gt;dir_0c02e257388e42407cec519a87c0574c</title>
<path fill="none" stroke="black" d="M183.787,-87.6966C182.354,-79.9827 180.632,-70.7125 179.035,-62.1124"/>
<polygon fill="black" stroke="black" points="182.444,-61.2971 177.177,-52.1043 175.561,-62.5753 182.444,-61.2971"/>
<g id="a_edge6&#45;headlabel"><a xlink:href="dir_000033_000030.html" target="_top" xlink:title="1">
<text text-anchor="middle" x="185.891" y="-61.8129" font-family="Helvetica,sans-Serif" font-size="10.00">1</text>
</a>
</g>
</g>
<!-- dir_a832ddf9fa4b48d8f78eff0b5738919b&#45;&gt;dir_67bea91204836d3aa74aa5eed79a3b47 -->
<g id="edge7" class="edge"><title>dir_a832ddf9fa4b48d8f78eff0b5738919b&#45;&gt;dir_67bea91204836d3aa74aa5eed79a3b47</title>
<path fill="none" stroke="black" d="M162.709,-87.8948C158.815,-85.2208 154.812,-82.5127 151,-80 139.735,-72.5744 127.321,-64.7061 116.02,-57.6609"/>
<polygon fill="black" stroke="black" points="117.581,-54.5104 107.239,-52.2114 113.89,-60.4582 117.581,-54.5104"/>
<g id="a_edge7&#45;headlabel"><a xlink:href="dir_000033_000016.html" target="_top" xlink:title="4">
<text text-anchor="middle" x="122.132" y="-51.4933" font-family="Helvetica,sans-Serif" font-size="10.00">4</text>
</a>
</g>
</g>
</g>
</svg>
