<?xml version="1.0" encoding="UTF-8" standalone="no"?>
<!DOCTYPE svg PUBLIC "-//W3C//DTD SVG 1.1//EN"
 "http://www.w3.org/Graphics/SVG/1.1/DTD/svg11.dtd">
<!-- Generated by graphviz version 2.38.0 (20140413.2041)
 -->
<!-- Title: display Pages: 1 -->
<svg width="154pt" height="151pt"
 viewBox="0.00 0.00 153.50 151.00" xmlns="http://www.w3.org/2000/svg" xmlns:xlink="http://www.w3.org/1999/xlink">
<g id="graph0" class="graph" transform="scale(1 1) rotate(0) translate(4 147)">
<title>display</title>
<g id="clust1" class="cluster"><title>clusterdir_930f90e24af77991bb71f7dab9aae0bd</title>
<g id="a_clust1"><a xlink:href="dir_930f90e24af77991bb71f7dab9aae0bd.html" target="_top" xlink:title="world">
<polygon fill="#ddddee" stroke="black" points="33,-64 33,-135 103,-135 103,-64 33,-64"/>
<text text-anchor="middle" x="68" y="-123" font-family="Helvetica,sans-Serif" font-size="10.00">world</text>
</a>
</g>
</g>
<!-- dir_a832ddf9fa4b48d8f78eff0b5738919b -->
<g id="node1" class="node"><title>dir_a832ddf9fa4b48d8f78eff0b5738919b</title>
<g id="a_node1"><a xlink:href="dir_a832ddf9fa4b48d8f78eff0b5738919b.html" target="_top" xlink:title="display">
<polygon fill="#eeeeff" stroke="black" points="95,-108 41,-108 41,-72 95,-72 95,-108"/>
<text text-anchor="middle" x="68" y="-87.5" font-family="Helvetica,sans-Serif" font-size="10.00">display</text>
</a>
</g>
</g>
<!-- dir_0c02e257388e42407cec519a87c0574c -->
<g id="node2" class="node"><title>dir_0c02e257388e42407cec519a87c0574c</title>
<g id="a_node2"><a xlink:href="dir_0c02e257388e42407cec519a87c0574c.html" target="_top" xlink:title="utility">
<polygon fill="none" stroke="black" points="54,-36 0,-36 0,-0 54,-0 54,-36"/>
<text text-anchor="middle" x="27" y="-15.5" font-family="Helvetica,sans-Serif" font-size="10.00">utility</text>
</a>
</g>
</g>
<!-- dir_a832ddf9fa4b48d8f78eff0b5738919b&#45;&gt;dir_0c02e257388e42407cec519a87c0574c -->
<g id="edge1" class="edge"><title>dir_a832ddf9fa4b48d8f78eff0b5738919b&#45;&gt;dir_0c02e257388e42407cec519a87c0574c</title>
<path fill="none" stroke="black" d="M57.8652,-71.6966C53.1484,-63.6436 47.4382,-53.8945 42.2183,-44.9824"/>
<polygon fill="black" stroke="black" points="45.0924,-42.9643 37.0183,-36.1043 39.0522,-46.5021 45.0924,-42.9643"/>
<g id="a_edge1&#45;headlabel"><a xlink:href="dir_000033_000030.html" target="_top" xlink:title="1">
<text text-anchor="middle" x="49.3591" y="-42.131" font-family="Helvetica,sans-Serif" font-size="10.00">1</text>
</a>
</g>
</g>
<!-- dir_67bea91204836d3aa74aa5eed79a3b47 -->
<g id="node3" class="node"><title>dir_67bea91204836d3aa74aa5eed79a3b47</title>
<g id="a_node3"><a xlink:href="dir_67bea91204836d3aa74aa5eed79a3b47.html" target="_top" xlink:title="management">
<polygon fill="none" stroke="black" points="145.5,-36 72.5,-36 72.5,-0 145.5,-0 145.5,-36"/>
<text text-anchor="middle" x="109" y="-15.5" font-family="Helvetica,sans-Serif" font-size="10.00">management</text>
</a>
</g>
</g>
<!-- dir_a832ddf9fa4b48d8f78eff0b5738919b&#45;&gt;dir_67bea91204836d3aa74aa5eed79a3b47 -->
<g id="edge2" class="edge"><title>dir_a832ddf9fa4b48d8f78eff0b5738919b&#45;&gt;dir_67bea91204836d3aa74aa5eed79a3b47</title>
<path fill="none" stroke="black" d="M78.1348,-71.6966C82.8516,-63.6436 88.5618,-53.8945 93.7817,-44.9824"/>
<polygon fill="black" stroke="black" points="96.9478,-46.5021 98.9817,-36.1043 90.9076,-42.9643 96.9478,-46.5021"/>
<g id="a_edge2&#45;headlabel"><a xlink:href="dir_000033_000016.html" target="_top" xlink:title="4">
<text text-anchor="middle" x="97.581" y="-48.5388" font-family="Helvetica,sans-Serif" font-size="10.00">4</text>
</a>
</g>
</g>
</g>
</svg>
