<?xml version="1.0" encoding="UTF-8" standalone="no"?>
<!DOCTYPE svg PUBLIC "-//W3C//DTD SVG 1.1//EN"
 "http://www.w3.org/Graphics/SVG/1.1/DTD/svg11.dtd">
<!-- Generated by graphviz version 2.38.0 (20140413.2041)
 -->
<!-- Title: weavertracker Pages: 1 -->
<svg width="124pt" height="223pt"
 viewBox="0.00 0.00 123.50 223.00" xmlns="http://www.w3.org/2000/svg" xmlns:xlink="http://www.w3.org/1999/xlink">
<g id="graph0" class="graph" transform="scale(1 1) rotate(0) translate(4 219)">
<title>weavertracker</title>
<g id="clust1" class="cluster"><title>clusterdir_85bb4319f06e9e87e59ac1e1fa9883ec</title>
<g id="a_clust1"><a xlink:href="dir_85bb4319f06e9e87e59ac1e1fa9883ec.html" target="_top" xlink:title="sense">
<polygon fill="#ddddee" stroke="black" points="8,-64 8,-207 100,-207 100,-64 8,-64"/>
<text text-anchor="middle" x="54" y="-195" font-family="Helvetica,sans-Serif" font-size="10.00">sense</text>
</a>
</g>
</g>
<!-- dir_e41b5b8bd1fbcc162476105fe4b89ba1 -->
<g id="node1" class="node"><title>dir_e41b5b8bd1fbcc162476105fe4b89ba1</title>
<g id="a_node1"><a xlink:href="dir_e41b5b8bd1fbcc162476105fe4b89ba1.html" target="_top" xlink:title="eyetracker">
<polygon fill="none" stroke="black" points="81,-108 19,-108 19,-72 81,-72 81,-108"/>
<text text-anchor="middle" x="50" y="-87.5" font-family="Helvetica,sans-Serif" font-size="10.00">eyetracker</text>
</a>
</g>
</g>
<!-- dir_67bea91204836d3aa74aa5eed79a3b47 -->
<g id="node3" class="node"><title>dir_67bea91204836d3aa74aa5eed79a3b47</title>
<g id="a_node3"><a xlink:href="dir_67bea91204836d3aa74aa5eed79a3b47.html" target="_top" xlink:title="management">
<polygon fill="none" stroke="black" points="115.5,-36 42.5,-36 42.5,-0 115.5,-0 115.5,-36"/>
<text text-anchor="middle" x="79" y="-15.5" font-family="Helvetica,sans-Serif" font-size="10.00">management</text>
</a>
</g>
</g>
<!-- dir_e41b5b8bd1fbcc162476105fe4b89ba1&#45;&gt;dir_67bea91204836d3aa74aa5eed79a3b47 -->
<g id="edge3" class="edge"><title>dir_e41b5b8bd1fbcc162476105fe4b89ba1&#45;&gt;dir_67bea91204836d3aa74aa5eed79a3b47</title>
<path fill="none" stroke="black" d="M57.1685,-71.6966C60.4345,-63.8132 64.374,-54.3042 68.0022,-45.5464"/>
<polygon fill="black" stroke="black" points="71.32,-46.6825 71.9139,-36.1043 64.853,-44.0033 71.32,-46.6825"/>
<g id="a_edge3&#45;headlabel"><a xlink:href="dir_000024_000016.html" target="_top" xlink:title="1">
<text text-anchor="middle" x="72.5673" y="-48.5901" font-family="Helvetica,sans-Serif" font-size="10.00">1</text>
</a>
</g>
</g>
<!-- dir_a846c025694f627c6b68cdb7b722655c -->
<g id="node2" class="node"><title>dir_a846c025694f627c6b68cdb7b722655c</title>
<g id="a_node2"><a xlink:href="dir_a846c025694f627c6b68cdb7b722655c.html" target="_top" xlink:title="weavertracker">
<polygon fill="#eeeeff" stroke="black" points="92,-180 16,-180 16,-144 92,-144 92,-180"/>
<text text-anchor="middle" x="54" y="-159.5" font-family="Helvetica,sans-Serif" font-size="10.00">weavertracker</text>
</a>
</g>
</g>
<!-- dir_a846c025694f627c6b68cdb7b722655c&#45;&gt;dir_e41b5b8bd1fbcc162476105fe4b89ba1 -->
<g id="edge2" class="edge"><title>dir_a846c025694f627c6b68cdb7b722655c&#45;&gt;dir_e41b5b8bd1fbcc162476105fe4b89ba1</title>
<path fill="none" stroke="black" d="M53.0112,-143.697C52.5704,-135.983 52.0407,-126.712 51.5493,-118.112"/>
<polygon fill="black" stroke="black" points="55.0423,-117.888 50.9774,-108.104 48.0537,-118.288 55.0423,-117.888"/>
<g id="a_edge2&#45;headlabel"><a xlink:href="dir_000029_000024.html" target="_top" xlink:title="2">
<text text-anchor="middle" x="58.0819" y="-118.815" font-family="Helvetica,sans-Serif" font-size="10.00">2</text>
</a>
</g>
</g>
<!-- dir_a846c025694f627c6b68cdb7b722655c&#45;&gt;dir_67bea91204836d3aa74aa5eed79a3b47 -->
<g id="edge1" class="edge"><title>dir_a846c025694f627c6b68cdb7b722655c&#45;&gt;dir_67bea91204836d3aa74aa5eed79a3b47</title>
<path fill="none" stroke="black" d="M69.6099,-143.774C77.3729,-134.03 85.9459,-121.184 90,-108 96.2353,-87.7231 92.7168,-63.8178 88.061,-45.8909"/>
<polygon fill="black" stroke="black" points="91.3742,-44.7473 85.2535,-36.0993 84.6454,-46.6767 91.3742,-44.7473"/>
<g id="a_edge1&#45;headlabel"><a xlink:href="dir_000029_000016.html" target="_top" xlink:title="1">
<text text-anchor="middle" x="95.0942" y="-44.9202" font-family="Helvetica,sans-Serif" font-size="10.00">1</text>
</a>
</g>
</g>
</g>
</svg>
