<?xml version="1.0" encoding="UTF-8" standalone="no"?>
<!DOCTYPE svg PUBLIC "-//W3C//DTD SVG 1.1//EN"
 "http://www.w3.org/Graphics/SVG/1.1/DTD/svg11.dtd">
<!-- Generated by graphviz version 2.38.0 (20140413.2041)
 -->
<!-- Title: sense Pages: 1 -->
<svg width="932pt" height="183pt"
 viewBox="0.00 0.00 932.00 183.00" xmlns="http://www.w3.org/2000/svg" xmlns:xlink="http://www.w3.org/1999/xlink">
<g id="graph0" class="graph" transform="scale(1 1) rotate(0) translate(4 179)">
<title>sense</title>
<g id="clust1" class="cluster"><title>clusterdir_181b97c696d61d660e92d1735a1810bf</title>
<g id="a_clust1"><a xlink:href="dir_181b97c696d61d660e92d1735a1810bf.html" target="_top" xlink:title="sr">
<polygon fill="#ddddee" stroke="black" points="8,-8 8,-167 916,-167 916,-8 8,-8"/>
<text text-anchor="middle" x="462" y="-155" font-family="Helvetica,sans-Serif" font-size="10.00">sr</text>
</a>
</g>
</g>
<g id="clust2" class="cluster"><title>clusterdir_85bb4319f06e9e87e59ac1e1fa9883ec</title>
<g id="a_clust2"><a xlink:href="dir_85bb4319f06e9e87e59ac1e1fa9883ec.html" target="_top">
<polygon fill="#eeeeff" stroke="black" points="16,-16 16,-140 754,-140 754,-16 16,-16"/>
</a>
</g>
</g>
<!-- dir_0c02e257388e42407cec519a87c0574c -->
<g id="node1" class="node"><title>dir_0c02e257388e42407cec519a87c0574c</title>
<g id="a_node1"><a xlink:href="dir_0c02e257388e42407cec519a87c0574c.html" target="_top" xlink:title="utility">
<polygon fill="none" stroke="black" points="816,-60 762,-60 762,-24 816,-24 816,-60"/>
<text text-anchor="middle" x="789" y="-39.5" font-family="Helvetica,sans-Serif" font-size="10.00">utility</text>
</a>
</g>
</g>
<!-- dir_67bea91204836d3aa74aa5eed79a3b47 -->
<g id="node2" class="node"><title>dir_67bea91204836d3aa74aa5eed79a3b47</title>
<g id="a_node2"><a xlink:href="dir_67bea91204836d3aa74aa5eed79a3b47.html" target="_top" xlink:title="management">
<polygon fill="none" stroke="black" points="907.5,-60 834.5,-60 834.5,-24 907.5,-24 907.5,-60"/>
<text text-anchor="middle" x="871" y="-39.5" font-family="Helvetica,sans-Serif" font-size="10.00">management</text>
</a>
</g>
</g>
<!-- dir_85bb4319f06e9e87e59ac1e1fa9883ec -->
<g id="node3" class="node"><title>dir_85bb4319f06e9e87e59ac1e1fa9883ec</title>
<text text-anchor="middle" x="303" y="-111.5" font-family="Helvetica,sans-Serif" font-size="10.00">sense</text>
</g>
<!-- dir_67bea91204836d3aa74aa5eed79a3b47&#45;&gt;dir_85bb4319f06e9e87e59ac1e1fa9883ec -->
<g id="edge1" class="edge"><title>dir_67bea91204836d3aa74aa5eed79a3b47&#45;&gt;dir_85bb4319f06e9e87e59ac1e1fa9883ec</title>
<path fill="none" stroke="black" d="M834.363,-57.5687C831.228,-58.5004 828.078,-59.3311 825,-60 616.551,-105.295 550.446,-42.7767 339.934,-96.3734"/>
<polygon fill="black" stroke="black" points="338.92,-93.0207 330.125,-98.9277 340.684,-99.7948 338.92,-93.0207"/>
<g id="a_edge1&#45;headlabel"><a xlink:href="dir_000016_000019.html" target="_top" xlink:title="3">
<text text-anchor="middle" x="341.683" y="-86.8673" font-family="Helvetica,sans-Serif" font-size="10.00">3</text>
</a>
</g>
</g>
<!-- dir_d4293a104470c8f6c90708837af5f965 -->
<g id="node6" class="node"><title>dir_d4293a104470c8f6c90708837af5f965</title>
<g id="a_node6"><a xlink:href="dir_d4293a104470c8f6c90708837af5f965.html" target="_top" xlink:title="core">
<polygon fill="white" stroke="black" points="501,-60 447,-60 447,-24 501,-24 501,-60"/>
<text text-anchor="middle" x="474" y="-39.5" font-family="Helvetica,sans-Serif" font-size="10.00">core</text>
</a>
</g>
</g>
<!-- dir_67bea91204836d3aa74aa5eed79a3b47&#45;&gt;dir_d4293a104470c8f6c90708837af5f965 -->
<g id="edge2" class="edge"><title>dir_67bea91204836d3aa74aa5eed79a3b47&#45;&gt;dir_d4293a104470c8f6c90708837af5f965</title>
<path fill="none" stroke="black" d="M849.737,-60.0811C840.092,-67.1315 828.139,-74.3803 816,-78 751.687,-97.1766 576.656,-102.043 514,-78 507.703,-75.5838 501.777,-71.6677 496.513,-67.2897"/>
<polygon fill="black" stroke="black" points="498.546,-64.4017 488.829,-60.1792 493.792,-69.5397 498.546,-64.4017"/>
<g id="a_edge2&#45;headlabel"><a xlink:href="dir_000016_000022.html" target="_top" xlink:title="3">
<text text-anchor="middle" x="503.112" y="-62.259" font-family="Helvetica,sans-Serif" font-size="10.00">3</text>
</a>
</g>
</g>
<!-- dir_869256092332fd37fcdc2babeae42bac -->
<g id="node4" class="node"><title>dir_869256092332fd37fcdc2babeae42bac</title>
<g id="a_node4"><a xlink:href="dir_869256092332fd37fcdc2babeae42bac.html" target="_top" xlink:title="application">
<polygon fill="white" stroke="black" points="745.5,-132 682.5,-132 682.5,-96 745.5,-96 745.5,-132"/>
<text text-anchor="middle" x="714" y="-111.5" font-family="Helvetica,sans-Serif" font-size="10.00">application</text>
</a>
</g>
</g>
<!-- dir_869256092332fd37fcdc2babeae42bac&#45;&gt;dir_67bea91204836d3aa74aa5eed79a3b47 -->
<g id="edge8" class="edge"><title>dir_869256092332fd37fcdc2babeae42bac&#45;&gt;dir_67bea91204836d3aa74aa5eed79a3b47</title>
<path fill="none" stroke="black" d="M745.771,-98.8345C768.494,-88.7032 799.431,-74.91 824.869,-63.568"/>
<polygon fill="black" stroke="black" points="826.613,-66.6228 834.321,-59.3539 823.762,-60.2295 826.613,-66.6228"/>
<g id="a_edge8&#45;headlabel"><a xlink:href="dir_000020_000016.html" target="_top" xlink:title="1">
<text text-anchor="middle" x="824.486" y="-68.1797" font-family="Helvetica,sans-Serif" font-size="10.00">1</text>
</a>
</g>
</g>
<!-- dir_7b0eaadd40ddde09b1b220b587dc8760 -->
<g id="node5" class="node"><title>dir_7b0eaadd40ddde09b1b220b587dc8760</title>
<g id="a_node5"><a xlink:href="dir_7b0eaadd40ddde09b1b220b587dc8760.html" target="_top" xlink:title="cameras">
<polygon fill="white" stroke="black" points="258,-132 204,-132 204,-96 258,-96 258,-132"/>
<text text-anchor="middle" x="231" y="-111.5" font-family="Helvetica,sans-Serif" font-size="10.00">cameras</text>
</a>
</g>
</g>
<!-- dir_7b0eaadd40ddde09b1b220b587dc8760&#45;&gt;dir_0c02e257388e42407cec519a87c0574c -->
<g id="edge5" class="edge"><title>dir_7b0eaadd40ddde09b1b220b587dc8760&#45;&gt;dir_0c02e257388e42407cec519a87c0574c</title>
<path fill="none" stroke="black" d="M258.124,-98.9255C261.065,-97.7834 264.059,-96.7736 267,-96 475.408,-41.1868 546.028,-119.581 752.286,-61.4629"/>
<polygon fill="black" stroke="black" points="753.259,-64.8251 761.893,-58.6855 751.315,-58.1005 753.259,-64.8251"/>
<g id="a_edge5&#45;headlabel"><a xlink:href="dir_000021_000030.html" target="_top" xlink:title="1">
<text text-anchor="middle" x="750.594" y="-66.051" font-family="Helvetica,sans-Serif" font-size="10.00">1</text>
</a>
</g>
</g>
<!-- dir_7b0eaadd40ddde09b1b220b587dc8760&#45;&gt;dir_67bea91204836d3aa74aa5eed79a3b47 -->
<g id="edge6" class="edge"><title>dir_7b0eaadd40ddde09b1b220b587dc8760&#45;&gt;dir_67bea91204836d3aa74aa5eed79a3b47</title>
<path fill="none" stroke="black" d="M258.117,-98.8989C261.06,-97.762 264.055,-96.7607 267,-96 504.444,-34.661 579.916,-109.588 824.477,-59.6691"/>
<polygon fill="black" stroke="black" points="825.298,-63.0732 834.37,-57.6009 823.866,-56.2213 825.298,-63.0732"/>
<g id="a_edge6&#45;headlabel"><a xlink:href="dir_000021_000016.html" target="_top" xlink:title="1">
<text text-anchor="middle" x="822.361" y="-64.0878" font-family="Helvetica,sans-Serif" font-size="10.00">1</text>
</a>
</g>
</g>
<!-- dir_7b0eaadd40ddde09b1b220b587dc8760&#45;&gt;dir_d4293a104470c8f6c90708837af5f965 -->
<g id="edge7" class="edge"><title>dir_7b0eaadd40ddde09b1b220b587dc8760&#45;&gt;dir_d4293a104470c8f6c90708837af5f965</title>
<path fill="none" stroke="black" d="M258.289,-99.4554C261.198,-98.21 264.139,-97.0311 267,-96 324.911,-75.1284 394.719,-59.0463 436.669,-50.3139"/>
<polygon fill="black" stroke="black" points="437.618,-53.6923 446.71,-48.2537 436.211,-46.8351 437.618,-53.6923"/>
<g id="a_edge7&#45;headlabel"><a xlink:href="dir_000021_000022.html" target="_top" xlink:title="2">
<text text-anchor="middle" x="434.667" y="-54.696" font-family="Helvetica,sans-Serif" font-size="10.00">2</text>
</a>
</g>
</g>
<!-- dir_d0320a9acba360ac57fcf656cb8509d1 -->
<g id="node7" class="node"><title>dir_d0320a9acba360ac57fcf656cb8509d1</title>
<g id="a_node7"><a xlink:href="dir_d0320a9acba360ac57fcf656cb8509d1.html" target="_top" xlink:title="display">
<polygon fill="white" stroke="black" points="664,-132 610,-132 610,-96 664,-96 664,-132"/>
<text text-anchor="middle" x="637" y="-111.5" font-family="Helvetica,sans-Serif" font-size="10.00">display</text>
</a>
</g>
</g>
<!-- dir_d0320a9acba360ac57fcf656cb8509d1&#45;&gt;dir_67bea91204836d3aa74aa5eed79a3b47 -->
<g id="edge13" class="edge"><title>dir_d0320a9acba360ac57fcf656cb8509d1&#45;&gt;dir_67bea91204836d3aa74aa5eed79a3b47</title>
<path fill="none" stroke="black" d="M664.27,-99.4021C667.183,-98.1671 670.13,-97.0052 673,-96 735.579,-74.0838 756.65,-79.5 824.573,-59.8912"/>
<polygon fill="black" stroke="black" points="825.886,-63.1525 834.478,-56.9527 823.895,-56.4416 825.886,-63.1525"/>
<g id="a_edge13&#45;headlabel"><a xlink:href="dir_000023_000016.html" target="_top" xlink:title="1">
<text text-anchor="middle" x="823.248" y="-64.3968" font-family="Helvetica,sans-Serif" font-size="10.00">1</text>
</a>
</g>
</g>
<!-- dir_e41b5b8bd1fbcc162476105fe4b89ba1 -->
<g id="node8" class="node"><title>dir_e41b5b8bd1fbcc162476105fe4b89ba1</title>
<g id="a_node8"><a xlink:href="dir_e41b5b8bd1fbcc162476105fe4b89ba1.html" target="_top" xlink:title="eyetracker">
<polygon fill="white" stroke="black" points="179,-60 117,-60 117,-24 179,-24 179,-60"/>
<text text-anchor="middle" x="148" y="-39.5" font-family="Helvetica,sans-Serif" font-size="10.00">eyetracker</text>
</a>
</g>
</g>
<!-- dir_e41b5b8bd1fbcc162476105fe4b89ba1&#45;&gt;dir_67bea91204836d3aa74aa5eed79a3b47 -->
<g id="edge15" class="edge"><title>dir_e41b5b8bd1fbcc162476105fe4b89ba1&#45;&gt;dir_67bea91204836d3aa74aa5eed79a3b47</title>
<path fill="none" stroke="black" d="M179.313,-47.0249C233.622,-55.4583 348.881,-72.1144 447,-78 528.853,-82.9099 737.419,-101.431 816,-78 824.82,-75.3701 833.541,-70.8243 841.351,-65.8309"/>
<polygon fill="black" stroke="black" points="843.469,-68.6225 849.737,-60.0811 839.51,-62.8491 843.469,-68.6225"/>
<g id="a_edge15&#45;headlabel"><a xlink:href="dir_000024_000016.html" target="_top" xlink:title="1">
<text text-anchor="middle" x="842.109" y="-70.4969" font-family="Helvetica,sans-Serif" font-size="10.00">1</text>
</a>
</g>
</g>
<!-- dir_dbf92b41406098cd1353820a95970462 -->
<g id="node9" class="node"><title>dir_dbf92b41406098cd1353820a95970462</title>
<g id="a_node9"><a xlink:href="dir_dbf92b41406098cd1353820a95970462.html" target="_top" xlink:title="gestureanalyser">
<polygon fill="white" stroke="black" points="592,-132 506,-132 506,-96 592,-96 592,-132"/>
<text text-anchor="middle" x="549" y="-111.5" font-family="Helvetica,sans-Serif" font-size="10.00">gestureanalyser</text>
</a>
</g>
</g>
<!-- dir_dbf92b41406098cd1353820a95970462&#45;&gt;dir_67bea91204836d3aa74aa5eed79a3b47 -->
<g id="edge14" class="edge"><title>dir_dbf92b41406098cd1353820a95970462&#45;&gt;dir_67bea91204836d3aa74aa5eed79a3b47</title>
<path fill="none" stroke="black" d="M592.266,-98.2939C595.207,-97.4678 598.138,-96.6932 601,-96 695.936,-73.0027 725.623,-84.8007 824.505,-59.8166"/>
<polygon fill="black" stroke="black" points="825.491,-63.1766 834.295,-57.2815 823.736,-56.4002 825.491,-63.1766"/>
<g id="a_edge14&#45;headlabel"><a xlink:href="dir_000025_000016.html" target="_top" xlink:title="1">
<text text-anchor="middle" x="822.723" y="-64.3263" font-family="Helvetica,sans-Serif" font-size="10.00">1</text>
</a>
</g>
</g>
<!-- dir_bdb198c8fcd5084621a1ab1f86ca8c85 -->
<g id="node10" class="node"><title>dir_bdb198c8fcd5084621a1ab1f86ca8c85</title>
<g id="a_node10"><a xlink:href="dir_bdb198c8fcd5084621a1ab1f86ca8c85.html" target="_top" xlink:title="handtracker">
<polygon fill="white" stroke="black" points="488,-132 420,-132 420,-96 488,-96 488,-132"/>
<text text-anchor="middle" x="454" y="-111.5" font-family="Helvetica,sans-Serif" font-size="10.00">handtracker</text>
</a>
</g>
</g>
<!-- dir_bdb198c8fcd5084621a1ab1f86ca8c85&#45;&gt;dir_67bea91204836d3aa74aa5eed79a3b47 -->
<g id="edge11" class="edge"><title>dir_bdb198c8fcd5084621a1ab1f86ca8c85&#45;&gt;dir_67bea91204836d3aa74aa5eed79a3b47</title>
<path fill="none" stroke="black" d="M488.473,-98.454C491.328,-97.5309 494.195,-96.6951 497,-96 636.151,-61.5188 680.286,-92.2249 824.252,-59.7869"/>
<polygon fill="black" stroke="black" points="825.385,-63.1172 834.336,-57.4494 823.804,-56.298 825.385,-63.1172"/>
<g id="a_edge11&#45;headlabel"><a xlink:href="dir_000026_000016.html" target="_top" xlink:title="1">
<text text-anchor="middle" x="822.524" y="-64.1948" font-family="Helvetica,sans-Serif" font-size="10.00">1</text>
</a>
</g>
</g>
<!-- dir_79f37e3922a65a48b8e68c3a92e385a2 -->
<g id="node11" class="node"><title>dir_79f37e3922a65a48b8e68c3a92e385a2</title>
<g id="a_node11"><a xlink:href="dir_79f37e3922a65a48b8e68c3a92e385a2.html" target="_top" xlink:title="headtracker">
<polygon fill="white" stroke="black" points="92,-132 24,-132 24,-96 92,-96 92,-132"/>
<text text-anchor="middle" x="58" y="-111.5" font-family="Helvetica,sans-Serif" font-size="10.00">headtracker</text>
</a>
</g>
</g>
<!-- dir_79f37e3922a65a48b8e68c3a92e385a2&#45;&gt;dir_67bea91204836d3aa74aa5eed79a3b47 -->
<g id="edge3" class="edge"><title>dir_79f37e3922a65a48b8e68c3a92e385a2&#45;&gt;dir_67bea91204836d3aa74aa5eed79a3b47</title>
<path fill="none" stroke="black" d="M92.4301,-98.268C95.295,-97.3866 98.1755,-96.6112 101,-96 412.66,-28.5657 507.425,-122.621 824.455,-59.6586"/>
<polygon fill="black" stroke="black" points="825.273,-63.0641 834.381,-57.6508 823.885,-56.2031 825.273,-63.0641"/>
<g id="a_edge3&#45;headlabel"><a xlink:href="dir_000027_000016.html" target="_top" xlink:title="2">
<text text-anchor="middle" x="822.313" y="-64.0597" font-family="Helvetica,sans-Serif" font-size="10.00">2</text>
</a>
</g>
</g>
<!-- dir_79f37e3922a65a48b8e68c3a92e385a2&#45;&gt;dir_e41b5b8bd1fbcc162476105fe4b89ba1 -->
<g id="edge4" class="edge"><title>dir_79f37e3922a65a48b8e68c3a92e385a2&#45;&gt;dir_e41b5b8bd1fbcc162476105fe4b89ba1</title>
<path fill="none" stroke="black" d="M80.2472,-95.6966C91.5819,-86.8807 105.53,-76.0321 117.819,-66.4742"/>
<polygon fill="black" stroke="black" points="120.264,-69.0065 126.009,-60.1043 115.966,-63.481 120.264,-69.0065"/>
<g id="a_edge4&#45;headlabel"><a xlink:href="dir_000027_000024.html" target="_top" xlink:title="1">
<text text-anchor="middle" x="119.17" y="-70.9545" font-family="Helvetica,sans-Serif" font-size="10.00">1</text>
</a>
</g>
</g>
<!-- dir_c12563161a59e693c5ade45b1666b398 -->
<g id="node12" class="node"><title>dir_c12563161a59e693c5ade45b1666b398</title>
<g id="a_node12"><a xlink:href="dir_c12563161a59e693c5ade45b1666b398.html" target="_top" xlink:title="system">
<polygon fill="white" stroke="black" points="402,-132 348,-132 348,-96 402,-96 402,-132"/>
<text text-anchor="middle" x="375" y="-111.5" font-family="Helvetica,sans-Serif" font-size="10.00">system</text>
</a>
</g>
</g>
<!-- dir_c12563161a59e693c5ade45b1666b398&#45;&gt;dir_67bea91204836d3aa74aa5eed79a3b47 -->
<g id="edge12" class="edge"><title>dir_c12563161a59e693c5ade45b1666b398&#45;&gt;dir_67bea91204836d3aa74aa5eed79a3b47</title>
<path fill="none" stroke="black" d="M402.135,-98.9664C405.074,-97.8164 408.064,-96.7935 411,-96 586.163,-48.6595 642.784,-98.5554 824.479,-59.6976"/>
<polygon fill="black" stroke="black" points="825.339,-63.0922 834.354,-57.5255 823.835,-56.2556 825.339,-63.0922"/>
<g id="a_edge12&#45;headlabel"><a xlink:href="dir_000028_000016.html" target="_top" xlink:title="1">
<text text-anchor="middle" x="822.439" y="-64.1373" font-family="Helvetica,sans-Serif" font-size="10.00">1</text>
</a>
</g>
</g>
<!-- dir_a846c025694f627c6b68cdb7b722655c -->
<g id="node13" class="node"><title>dir_a846c025694f627c6b68cdb7b722655c</title>
<g id="a_node13"><a xlink:href="dir_a846c025694f627c6b68cdb7b722655c.html" target="_top" xlink:title="weavertracker">
<polygon fill="white" stroke="black" points="186,-132 110,-132 110,-96 186,-96 186,-132"/>
<text text-anchor="middle" x="148" y="-111.5" font-family="Helvetica,sans-Serif" font-size="10.00">weavertracker</text>
</a>
</g>
</g>
<!-- dir_a846c025694f627c6b68cdb7b722655c&#45;&gt;dir_67bea91204836d3aa74aa5eed79a3b47 -->
<g id="edge9" class="edge"><title>dir_a846c025694f627c6b68cdb7b722655c&#45;&gt;dir_67bea91204836d3aa74aa5eed79a3b47</title>
<path fill="none" stroke="black" d="M186.213,-98.1558C189.158,-97.3268 192.11,-96.5921 195,-96 466.531,-40.3723 548.529,-115.441 824.477,-59.6655"/>
<polygon fill="black" stroke="black" points="825.288,-63.072 834.376,-57.6257 823.875,-56.216 825.288,-63.072"/>
<g id="a_edge9&#45;headlabel"><a xlink:href="dir_000029_000016.html" target="_top" xlink:title="1">
<text text-anchor="middle" x="822.34" y="-64.0782" font-family="Helvetica,sans-Serif" font-size="10.00">1</text>
</a>
</g>
</g>
<!-- dir_a846c025694f627c6b68cdb7b722655c&#45;&gt;dir_e41b5b8bd1fbcc162476105fe4b89ba1 -->
<g id="edge10" class="edge"><title>dir_a846c025694f627c6b68cdb7b722655c&#45;&gt;dir_e41b5b8bd1fbcc162476105fe4b89ba1</title>
<path fill="none" stroke="black" d="M148,-95.6966C148,-87.9827 148,-78.7125 148,-70.1124"/>
<polygon fill="black" stroke="black" points="151.5,-70.1043 148,-60.1043 144.5,-70.1044 151.5,-70.1043"/>
<g id="a_edge10&#45;headlabel"><a xlink:href="dir_000029_000024.html" target="_top" xlink:title="2">
<text text-anchor="middle" x="154.339" y="-71.199" font-family="Helvetica,sans-Serif" font-size="10.00">2</text>
</a>
</g>
</g>
</g>
</svg>
