<?xml version="1.0" encoding="UTF-8" standalone="no"?>
<!DOCTYPE svg PUBLIC "-//W3C//DTD SVG 1.1//EN"
 "http://www.w3.org/Graphics/SVG/1.1/DTD/svg11.dtd">
<!-- Generated by graphviz version 2.38.0 (20140413.2041)
 -->
<!-- Title: weaver Pages: 1 -->
<svg width="186pt" height="167pt"
 viewBox="0.00 0.00 186.00 167.00" xmlns="http://www.w3.org/2000/svg" xmlns:xlink="http://www.w3.org/1999/xlink">
<g id="graph0" class="graph" transform="scale(1 1) rotate(0) translate(4 163)">
<title>weaver</title>
<g id="clust1" class="cluster"><title>clusterdir_181b97c696d61d660e92d1735a1810bf</title>
<g id="a_clust1"><a xlink:href="dir_181b97c696d61d660e92d1735a1810bf.html" target="_top" xlink:title="sr">
<polygon fill="#ddddee" stroke="black" points="8,-8 8,-151 170,-151 170,-8 8,-8"/>
<text text-anchor="middle" x="89" y="-139" font-family="Helvetica,sans-Serif" font-size="10.00">sr</text>
</a>
</g>
</g>
<!-- dir_0c02e257388e42407cec519a87c0574c -->
<g id="node1" class="node"><title>dir_0c02e257388e42407cec519a87c0574c</title>
<g id="a_node1"><a xlink:href="dir_0c02e257388e42407cec519a87c0574c.html" target="_top" xlink:title="utility">
<polygon fill="none" stroke="black" points="70,-52 16,-52 16,-16 70,-16 70,-52"/>
<text text-anchor="middle" x="43" y="-31.5" font-family="Helvetica,sans-Serif" font-size="10.00">utility</text>
</a>
</g>
</g>
<!-- dir_67bea91204836d3aa74aa5eed79a3b47 -->
<g id="node2" class="node"><title>dir_67bea91204836d3aa74aa5eed79a3b47</title>
<g id="a_node2"><a xlink:href="dir_67bea91204836d3aa74aa5eed79a3b47.html" target="_top" xlink:title="management">
<polygon fill="none" stroke="black" points="161.5,-52 88.5,-52 88.5,-16 161.5,-16 161.5,-52"/>
<text text-anchor="middle" x="125" y="-31.5" font-family="Helvetica,sans-Serif" font-size="10.00">management</text>
</a>
</g>
</g>
<!-- dir_a84ce15a7283e721833f59bd4c387082 -->
<g id="node3" class="node"><title>dir_a84ce15a7283e721833f59bd4c387082</title>
<g id="a_node3"><a xlink:href="dir_a84ce15a7283e721833f59bd4c387082.html" target="_top" xlink:title="weaver">
<polygon fill="#eeeeff" stroke="black" points="111,-124 57,-124 57,-88 111,-88 111,-124"/>
<text text-anchor="middle" x="84" y="-103.5" font-family="Helvetica,sans-Serif" font-size="10.00">weaver</text>
</a>
</g>
</g>
<!-- dir_a84ce15a7283e721833f59bd4c387082&#45;&gt;dir_0c02e257388e42407cec519a87c0574c -->
<g id="edge1" class="edge"><title>dir_a84ce15a7283e721833f59bd4c387082&#45;&gt;dir_0c02e257388e42407cec519a87c0574c</title>
<path fill="none" stroke="black" d="M73.8652,-87.6966C69.1484,-79.6436 63.4382,-69.8945 58.2183,-60.9824"/>
<polygon fill="black" stroke="black" points="61.0924,-58.9643 53.0183,-52.1043 55.0522,-62.5021 61.0924,-58.9643"/>
<g id="a_edge1&#45;headlabel"><a xlink:href="dir_000031_000030.html" target="_top" xlink:title="1">
<text text-anchor="middle" x="65.3591" y="-58.131" font-family="Helvetica,sans-Serif" font-size="10.00">1</text>
</a>
</g>
</g>
<!-- dir_a84ce15a7283e721833f59bd4c387082&#45;&gt;dir_67bea91204836d3aa74aa5eed79a3b47 -->
<g id="edge2" class="edge"><title>dir_a84ce15a7283e721833f59bd4c387082&#45;&gt;dir_67bea91204836d3aa74aa5eed79a3b47</title>
<path fill="none" stroke="black" d="M94.1348,-87.6966C98.8516,-79.6436 104.562,-69.8945 109.782,-60.9824"/>
<polygon fill="black" stroke="black" points="112.948,-62.5021 114.982,-52.1043 106.908,-58.9643 112.948,-62.5021"/>
<g id="a_edge2&#45;headlabel"><a xlink:href="dir_000031_000016.html" target="_top" xlink:title="5">
<text text-anchor="middle" x="113.581" y="-64.5388" font-family="Helvetica,sans-Serif" font-size="10.00">5</text>
</a>
</g>
</g>
</g>
</svg>
