<?xml version="1.0" encoding="UTF-8" standalone="no"?>
<!DOCTYPE svg PUBLIC "-//W3C//DTD SVG 1.1//EN"
 "http://www.w3.org/Graphics/SVG/1.1/DTD/svg11.dtd">
<!-- Generated by graphviz version 2.38.0 (20140413.2041)
 -->
<!-- Title: management Pages: 1 -->
<svg width="186pt" height="239pt"
 viewBox="0.00 0.00 186.00 239.00" xmlns="http://www.w3.org/2000/svg" xmlns:xlink="http://www.w3.org/1999/xlink">
<g id="graph0" class="graph" transform="scale(1 1) rotate(0) translate(4 235)">
<title>management</title>
<g id="clust1" class="cluster"><title>clusterdir_181b97c696d61d660e92d1735a1810bf</title>
<g id="a_clust1"><a xlink:href="dir_181b97c696d61d660e92d1735a1810bf.html" target="_top" xlink:title="sr">
<polygon fill="#ddddee" stroke="black" points="8,-8 8,-223 170,-223 170,-8 8,-8"/>
<text text-anchor="middle" x="89" y="-211" font-family="Helvetica,sans-Serif" font-size="10.00">sr</text>
</a>
</g>
</g>
<!-- dir_83848295b32d61108ceb41673201c68d -->
<g id="node1" class="node"><title>dir_83848295b32d61108ceb41673201c68d</title>
<g id="a_node1"><a xlink:href="dir_83848295b32d61108ceb41673201c68d.html" target="_top" xlink:title="network">
<polygon fill="none" stroke="red" points="70,-124 16,-124 16,-88 70,-88 70,-124"/>
<text text-anchor="middle" x="43" y="-103.5" font-family="Helvetica,sans-Serif" font-size="10.00">network</text>
</a>
</g>
</g>
<!-- dir_85bb4319f06e9e87e59ac1e1fa9883ec -->
<g id="node2" class="node"><title>dir_85bb4319f06e9e87e59ac1e1fa9883ec</title>
<g id="a_node2"><a xlink:href="dir_85bb4319f06e9e87e59ac1e1fa9883ec.html" target="_top" xlink:title="sense">
<polygon fill="none" stroke="red" points="139,-52 85,-52 85,-16 139,-16 139,-52"/>
<text text-anchor="middle" x="112" y="-31.5" font-family="Helvetica,sans-Serif" font-size="10.00">sense</text>
</a>
</g>
</g>
<!-- dir_930f90e24af77991bb71f7dab9aae0bd -->
<g id="node3" class="node"><title>dir_930f90e24af77991bb71f7dab9aae0bd</title>
<g id="a_node3"><a xlink:href="dir_930f90e24af77991bb71f7dab9aae0bd.html" target="_top" xlink:title="world">
<polygon fill="none" stroke="red" points="162,-124 108,-124 108,-88 162,-88 162,-124"/>
<text text-anchor="middle" x="135" y="-103.5" font-family="Helvetica,sans-Serif" font-size="10.00">world</text>
</a>
</g>
</g>
<!-- dir_930f90e24af77991bb71f7dab9aae0bd&#45;&gt;dir_85bb4319f06e9e87e59ac1e1fa9883ec -->
<g id="edge4" class="edge"><title>dir_930f90e24af77991bb71f7dab9aae0bd&#45;&gt;dir_85bb4319f06e9e87e59ac1e1fa9883ec</title>
<path fill="none" stroke="black" d="M129.315,-87.6966C126.752,-79.8979 123.667,-70.5085 120.815,-61.8292"/>
<polygon fill="black" stroke="black" points="124.067,-60.5121 117.62,-52.1043 117.416,-62.6972 124.067,-60.5121"/>
<g id="a_edge4&#45;headlabel"><a xlink:href="dir_000032_000019.html" target="_top" xlink:title="1">
<text text-anchor="middle" x="127.886" y="-60.5408" font-family="Helvetica,sans-Serif" font-size="10.00">1</text>
</a>
</g>
</g>
<!-- dir_67bea91204836d3aa74aa5eed79a3b47 -->
<g id="node4" class="node"><title>dir_67bea91204836d3aa74aa5eed79a3b47</title>
<g id="a_node4"><a xlink:href="dir_67bea91204836d3aa74aa5eed79a3b47.html" target="_top" xlink:title="management">
<polygon fill="#eeeeff" stroke="black" points="125.5,-196 52.5,-196 52.5,-160 125.5,-160 125.5,-196"/>
<text text-anchor="middle" x="89" y="-175.5" font-family="Helvetica,sans-Serif" font-size="10.00">management</text>
</a>
</g>
</g>
<!-- dir_67bea91204836d3aa74aa5eed79a3b47&#45;&gt;dir_83848295b32d61108ceb41673201c68d -->
<g id="edge1" class="edge"><title>dir_67bea91204836d3aa74aa5eed79a3b47&#45;&gt;dir_83848295b32d61108ceb41673201c68d</title>
<path fill="none" stroke="black" d="M77.6292,-159.697C72.2815,-151.559 65.7957,-141.689 59.8894,-132.701"/>
<polygon fill="black" stroke="black" points="62.6568,-130.539 54.24,-124.104 56.8068,-134.384 62.6568,-130.539"/>
<g id="a_edge1&#45;headlabel"><a xlink:href="dir_000016_000017.html" target="_top" xlink:title="2">
<text text-anchor="middle" x="67.0036" y="-129.484" font-family="Helvetica,sans-Serif" font-size="10.00">2</text>
</a>
</g>
</g>
<!-- dir_67bea91204836d3aa74aa5eed79a3b47&#45;&gt;dir_85bb4319f06e9e87e59ac1e1fa9883ec -->
<g id="edge2" class="edge"><title>dir_67bea91204836d3aa74aa5eed79a3b47&#45;&gt;dir_85bb4319f06e9e87e59ac1e1fa9883ec</title>
<path fill="none" stroke="black" d="M90.2686,-159.844C91.7528,-141.852 94.5844,-112.799 99,-88 100.518,-79.4741 102.609,-70.2798 104.671,-61.9813"/>
<polygon fill="black" stroke="black" points="108.12,-62.6234 107.221,-52.0667 101.341,-60.8795 108.12,-62.6234"/>
<g id="a_edge2&#45;headlabel"><a xlink:href="dir_000016_000019.html" target="_top" xlink:title="3">
<text text-anchor="middle" x="109.974" y="-64.3119" font-family="Helvetica,sans-Serif" font-size="10.00">3</text>
</a>
</g>
</g>
<!-- dir_67bea91204836d3aa74aa5eed79a3b47&#45;&gt;dir_930f90e24af77991bb71f7dab9aae0bd -->
<g id="edge3" class="edge"><title>dir_67bea91204836d3aa74aa5eed79a3b47&#45;&gt;dir_930f90e24af77991bb71f7dab9aae0bd</title>
<path fill="none" stroke="black" d="M100.371,-159.697C105.718,-151.559 112.204,-141.689 118.111,-132.701"/>
<polygon fill="black" stroke="black" points="121.193,-134.384 123.76,-124.104 115.343,-130.539 121.193,-134.384"/>
<g id="a_edge3&#45;headlabel"><a xlink:href="dir_000016_000032.html" target="_top" xlink:title="1">
<text text-anchor="middle" x="121.592" y="-136.447" font-family="Helvetica,sans-Serif" font-size="10.00">1</text>
</a>
</g>
</g>
</g>
</svg>
