<?xml version="1.0" encoding="UTF-8" standalone="no"?>
<!DOCTYPE svg PUBLIC "-//W3C//DTD SVG 1.1//EN"
 "http://www.w3.org/Graphics/SVG/1.1/DTD/svg11.dtd">
<!-- Generated by graphviz version 2.38.0 (20140413.2041)
 -->
<!-- Title: sr Pages: 1 -->
<svg width="222pt" height="399pt"
 viewBox="0.00 0.00 222.00 399.00" xmlns="http://www.w3.org/2000/svg" xmlns:xlink="http://www.w3.org/1999/xlink">
<g id="graph0" class="graph" transform="scale(1 1) rotate(0) translate(4 395)">
<title>sr</title>
<g id="clust1" class="cluster"><title>clusterdir_944aadc634bcb856cdc1b3a1be86044e</title>
<g id="a_clust1"><a xlink:href="dir_944aadc634bcb856cdc1b3a1be86044e.html" target="_top" xlink:title="include">
<polygon fill="#ddddee" stroke="black" points="8,-8 8,-383 206,-383 206,-8 8,-8"/>
<text text-anchor="middle" x="107" y="-371" font-family="Helvetica,sans-Serif" font-size="10.00">include</text>
</a>
</g>
</g>
<g id="clust2" class="cluster"><title>clusterdir_181b97c696d61d660e92d1735a1810bf</title>
<g id="a_clust2"><a xlink:href="dir_181b97c696d61d660e92d1735a1810bf.html" target="_top">
<polygon fill="#eeeeff" stroke="black" points="16,-16 16,-356 198,-356 198,-16 16,-16"/>
</a>
</g>
</g>
<!-- dir_181b97c696d61d660e92d1735a1810bf -->
<g id="node1" class="node"><title>dir_181b97c696d61d660e92d1735a1810bf</title>
<text text-anchor="middle" x="163" y="-327.5" font-family="Helvetica,sans-Serif" font-size="10.00">sr</text>
</g>
<!-- dir_67bea91204836d3aa74aa5eed79a3b47 -->
<g id="node2" class="node"><title>dir_67bea91204836d3aa74aa5eed79a3b47</title>
<g id="a_node2"><a xlink:href="dir_67bea91204836d3aa74aa5eed79a3b47.html" target="_top" xlink:title="management">
<polygon fill="white" stroke="black" points="133.5,-276 60.5,-276 60.5,-240 133.5,-240 133.5,-276"/>
<text text-anchor="middle" x="97" y="-255.5" font-family="Helvetica,sans-Serif" font-size="10.00">management</text>
</a>
</g>
</g>
<!-- dir_83848295b32d61108ceb41673201c68d -->
<g id="node3" class="node"><title>dir_83848295b32d61108ceb41673201c68d</title>
<g id="a_node3"><a xlink:href="dir_83848295b32d61108ceb41673201c68d.html" target="_top" xlink:title="network">
<polygon fill="white" stroke="red" points="78,-204 24,-204 24,-168 78,-168 78,-204"/>
<text text-anchor="middle" x="51" y="-183.5" font-family="Helvetica,sans-Serif" font-size="10.00">network</text>
</a>
</g>
</g>
<!-- dir_67bea91204836d3aa74aa5eed79a3b47&#45;&gt;dir_83848295b32d61108ceb41673201c68d -->
<g id="edge1" class="edge"><title>dir_67bea91204836d3aa74aa5eed79a3b47&#45;&gt;dir_83848295b32d61108ceb41673201c68d</title>
<path fill="none" stroke="black" d="M85.6292,-239.697C80.2815,-231.559 73.7957,-221.689 67.8894,-212.701"/>
<polygon fill="black" stroke="black" points="70.6568,-210.539 62.24,-204.104 64.8068,-214.384 70.6568,-210.539"/>
<g id="a_edge1&#45;headlabel"><a xlink:href="dir_000016_000017.html" target="_top" xlink:title="2">
<text text-anchor="middle" x="75.0036" y="-209.484" font-family="Helvetica,sans-Serif" font-size="10.00">2</text>
</a>
</g>
</g>
<!-- dir_85bb4319f06e9e87e59ac1e1fa9883ec -->
<g id="node4" class="node"><title>dir_85bb4319f06e9e87e59ac1e1fa9883ec</title>
<g id="a_node4"><a xlink:href="dir_85bb4319f06e9e87e59ac1e1fa9883ec.html" target="_top" xlink:title="sense">
<polygon fill="white" stroke="red" points="124,-132 70,-132 70,-96 124,-96 124,-132"/>
<text text-anchor="middle" x="97" y="-111.5" font-family="Helvetica,sans-Serif" font-size="10.00">sense</text>
</a>
</g>
</g>
<!-- dir_67bea91204836d3aa74aa5eed79a3b47&#45;&gt;dir_85bb4319f06e9e87e59ac1e1fa9883ec -->
<g id="edge2" class="edge"><title>dir_67bea91204836d3aa74aa5eed79a3b47&#45;&gt;dir_85bb4319f06e9e87e59ac1e1fa9883ec</title>
<path fill="none" stroke="black" d="M92.4155,-239.871C89.8571,-215.67 89.5656,-171.211 91.541,-142.393"/>
<polygon fill="black" stroke="black" points="95.0487,-142.45 92.4091,-132.189 88.0739,-141.857 95.0487,-142.45"/>
<g id="a_edge2&#45;headlabel"><a xlink:href="dir_000016_000019.html" target="_top" xlink:title="3">
<text text-anchor="middle" x="97.5732" y="-143.772" font-family="Helvetica,sans-Serif" font-size="10.00">3</text>
</a>
</g>
</g>
<!-- dir_930f90e24af77991bb71f7dab9aae0bd -->
<g id="node7" class="node"><title>dir_930f90e24af77991bb71f7dab9aae0bd</title>
<g id="a_node7"><a xlink:href="dir_930f90e24af77991bb71f7dab9aae0bd.html" target="_top" xlink:title="world">
<polygon fill="white" stroke="red" points="170,-204 116,-204 116,-168 170,-168 170,-204"/>
<text text-anchor="middle" x="143" y="-183.5" font-family="Helvetica,sans-Serif" font-size="10.00">world</text>
</a>
</g>
</g>
<!-- dir_67bea91204836d3aa74aa5eed79a3b47&#45;&gt;dir_930f90e24af77991bb71f7dab9aae0bd -->
<g id="edge3" class="edge"><title>dir_67bea91204836d3aa74aa5eed79a3b47&#45;&gt;dir_930f90e24af77991bb71f7dab9aae0bd</title>
<path fill="none" stroke="black" d="M102.455,-239.697C107.01,-231.474 113.374,-221.483 119.775,-212.421"/>
<polygon fill="black" stroke="black" points="122.781,-214.24 125.865,-204.104 117.133,-210.104 122.781,-214.24"/>
<g id="a_edge3&#45;headlabel"><a xlink:href="dir_000016_000032.html" target="_top" xlink:title="1">
<text text-anchor="middle" x="122.948" y="-216.318" font-family="Helvetica,sans-Serif" font-size="10.00">1</text>
</a>
</g>
</g>
<!-- dir_85bb4319f06e9e87e59ac1e1fa9883ec&#45;&gt;dir_67bea91204836d3aa74aa5eed79a3b47 -->
<g id="edge5" class="edge"><title>dir_85bb4319f06e9e87e59ac1e1fa9883ec&#45;&gt;dir_67bea91204836d3aa74aa5eed79a3b47</title>
<path fill="none" stroke="black" d="M101.591,-132.189C104.145,-156.424 104.433,-200.888 102.454,-229.679"/>
<polygon fill="black" stroke="black" points="98.9473,-229.61 101.584,-239.871 105.922,-230.205 98.9473,-229.61"/>
<g id="a_edge5&#45;headlabel"><a xlink:href="dir_000019_000016.html" target="_top" xlink:title="10">
<text text-anchor="middle" x="96.4237" y="-223.287" font-family="Helvetica,sans-Serif" font-size="10.00">10</text>
</a>
</g>
</g>
<!-- dir_0c02e257388e42407cec519a87c0574c -->
<g id="node5" class="node"><title>dir_0c02e257388e42407cec519a87c0574c</title>
<g id="a_node5"><a xlink:href="dir_0c02e257388e42407cec519a87c0574c.html" target="_top" xlink:title="utility">
<polygon fill="white" stroke="black" points="170,-60 116,-60 116,-24 170,-24 170,-60"/>
<text text-anchor="middle" x="143" y="-39.5" font-family="Helvetica,sans-Serif" font-size="10.00">utility</text>
</a>
</g>
</g>
<!-- dir_85bb4319f06e9e87e59ac1e1fa9883ec&#45;&gt;dir_0c02e257388e42407cec519a87c0574c -->
<g id="edge4" class="edge"><title>dir_85bb4319f06e9e87e59ac1e1fa9883ec&#45;&gt;dir_0c02e257388e42407cec519a87c0574c</title>
<path fill="none" stroke="black" d="M108.371,-95.6966C113.718,-87.5589 120.204,-77.689 126.111,-68.7013"/>
<polygon fill="black" stroke="black" points="129.193,-70.3835 131.76,-60.1043 123.343,-66.5393 129.193,-70.3835"/>
<g id="a_edge4&#45;headlabel"><a xlink:href="dir_000019_000030.html" target="_top" xlink:title="1">
<text text-anchor="middle" x="129.592" y="-72.4468" font-family="Helvetica,sans-Serif" font-size="10.00">1</text>
</a>
</g>
</g>
<!-- dir_a84ce15a7283e721833f59bd4c387082 -->
<g id="node6" class="node"><title>dir_a84ce15a7283e721833f59bd4c387082</title>
<g id="a_node6"><a xlink:href="dir_a84ce15a7283e721833f59bd4c387082.html" target="_top" xlink:title="weaver">
<polygon fill="white" stroke="black" points="118,-348 64,-348 64,-312 118,-312 118,-348"/>
<text text-anchor="middle" x="91" y="-327.5" font-family="Helvetica,sans-Serif" font-size="10.00">weaver</text>
</a>
</g>
</g>
<!-- dir_a84ce15a7283e721833f59bd4c387082&#45;&gt;dir_67bea91204836d3aa74aa5eed79a3b47 -->
<g id="edge10" class="edge"><title>dir_a84ce15a7283e721833f59bd4c387082&#45;&gt;dir_67bea91204836d3aa74aa5eed79a3b47</title>
<path fill="none" stroke="black" d="M92.4831,-311.697C93.1443,-303.983 93.9389,-294.712 94.6761,-286.112"/>
<polygon fill="black" stroke="black" points="98.167,-286.367 95.5339,-276.104 91.1926,-285.769 98.167,-286.367"/>
<g id="a_edge10&#45;headlabel"><a xlink:href="dir_000031_000016.html" target="_top" xlink:title="5">
<text text-anchor="middle" x="100.689" y="-287.691" font-family="Helvetica,sans-Serif" font-size="10.00">5</text>
</a>
</g>
</g>
<!-- dir_a84ce15a7283e721833f59bd4c387082&#45;&gt;dir_0c02e257388e42407cec519a87c0574c -->
<g id="edge9" class="edge"><title>dir_a84ce15a7283e721833f59bd4c387082&#45;&gt;dir_0c02e257388e42407cec519a87c0574c</title>
<path fill="none" stroke="black" d="M110.562,-311.872C121.024,-302.06 133.641,-289.116 143,-276 163.781,-246.877 170.78,-238.82 179,-204 190.152,-156.76 170.763,-101.51 156.381,-69.5568"/>
<polygon fill="black" stroke="black" points="159.519,-68.0042 152.118,-60.4229 153.176,-70.9648 159.519,-68.0042"/>
<g id="a_edge9&#45;headlabel"><a xlink:href="dir_000031_000030.html" target="_top" xlink:title="1">
<text text-anchor="middle" x="163.612" y="-67.5607" font-family="Helvetica,sans-Serif" font-size="10.00">1</text>
</a>
</g>
</g>
<!-- dir_930f90e24af77991bb71f7dab9aae0bd&#45;&gt;dir_67bea91204836d3aa74aa5eed79a3b47 -->
<g id="edge7" class="edge"><title>dir_930f90e24af77991bb71f7dab9aae0bd&#45;&gt;dir_67bea91204836d3aa74aa5eed79a3b47</title>
<path fill="none" stroke="black" d="M137.655,-204.104C133.129,-212.298 126.78,-222.282 120.38,-231.359"/>
<polygon fill="black" stroke="black" points="117.362,-229.558 114.287,-239.697 123.013,-233.689 117.362,-229.558"/>
<g id="a_edge7&#45;headlabel"><a xlink:href="dir_000032_000016.html" target="_top" xlink:title="4">
<text text-anchor="middle" x="117.191" y="-222.48" font-family="Helvetica,sans-Serif" font-size="10.00">4</text>
</a>
</g>
</g>
<!-- dir_930f90e24af77991bb71f7dab9aae0bd&#45;&gt;dir_85bb4319f06e9e87e59ac1e1fa9883ec -->
<g id="edge8" class="edge"><title>dir_930f90e24af77991bb71f7dab9aae0bd&#45;&gt;dir_85bb4319f06e9e87e59ac1e1fa9883ec</title>
<path fill="none" stroke="black" d="M131.629,-167.697C126.282,-159.559 119.796,-149.689 113.889,-140.701"/>
<polygon fill="black" stroke="black" points="116.657,-138.539 108.24,-132.104 110.807,-142.384 116.657,-138.539"/>
<g id="a_edge8&#45;headlabel"><a xlink:href="dir_000032_000019.html" target="_top" xlink:title="1">
<text text-anchor="middle" x="121.004" y="-137.484" font-family="Helvetica,sans-Serif" font-size="10.00">1</text>
</a>
</g>
</g>
<!-- dir_930f90e24af77991bb71f7dab9aae0bd&#45;&gt;dir_0c02e257388e42407cec519a87c0574c -->
<g id="edge6" class="edge"><title>dir_930f90e24af77991bb71f7dab9aae0bd&#45;&gt;dir_0c02e257388e42407cec519a87c0574c</title>
<path fill="none" stroke="black" d="M143,-167.871C143,-143.67 143,-99.2108 143,-70.3932"/>
<polygon fill="black" stroke="black" points="146.5,-70.1892 143,-60.1893 139.5,-70.1893 146.5,-70.1892"/>
<g id="a_edge6&#45;headlabel"><a xlink:href="dir_000032_000030.html" target="_top" xlink:title="1">
<text text-anchor="middle" x="149.339" y="-71.2839" font-family="Helvetica,sans-Serif" font-size="10.00">1</text>
</a>
</g>
</g>
</g>
</svg>
