<?xml version="1.0" encoding="UTF-8" standalone="no"?>
<!DOCTYPE svg PUBLIC "-//W3C//DTD SVG 1.1//EN"
 "http://www.w3.org/Graphics/SVG/1.1/DTD/svg11.dtd">
<!-- Generated by graphviz version 2.38.0 (20140413.2041)
 -->
<!-- Title: display.h Pages: 1 -->
<svg width="830pt" height="308pt"
 viewBox="0.00 0.00 829.50 308.00" xmlns="http://www.w3.org/2000/svg" xmlns:xlink="http://www.w3.org/1999/xlink">
<g id="graph0" class="graph" transform="scale(1 1) rotate(0) translate(4 304)">
<title>display.h</title>
<!-- Node1 -->
<g id="node1" class="node"><title>Node1</title>
<g id="a_node1"><a xlink:title=" ">
<polygon fill="#bfbfbf" stroke="black" points="529,-280.5 529,-299.5 585,-299.5 585,-280.5 529,-280.5"/>
<text text-anchor="middle" x="557" y="-287.5" font-family="Helvetica,sans-Serif" font-size="10.00">display.h</text>
</a>
</g>
</g>
<!-- Node2 -->
<g id="node2" class="node"><title>Node2</title>
<g id="a_node2"><a xlink:href="worldobject_8h.html" target="_top" xlink:title=" ">
<polygon fill="none" stroke="black" points="82,-168.5 82,-187.5 192,-187.5 192,-168.5 82,-168.5"/>
<text text-anchor="middle" x="137" y="-175.5" font-family="Helvetica,sans-Serif" font-size="10.00">sr/world/worldobject.h</text>
</a>
</g>
</g>
<!-- Node1&#45;&gt;Node2 -->
<g id="edge1" class="edge"><title>Node1&#45;&gt;Node2</title>
<path fill="none" stroke="midnightblue" d="M528.79,-281.612C456.681,-262.726 265.273,-212.595 179.554,-190.145"/>
<polygon fill="midnightblue" stroke="midnightblue" points="180.2,-186.696 169.64,-187.549 178.427,-193.468 180.2,-186.696"/>
</g>
<!-- Node8 -->
<g id="node8" class="node"><title>Node8</title>
<g id="a_node8"><a xlink:href="srcontext_8h.html" target="_top" xlink:title=" ">
<polygon fill="none" stroke="black" points="411,-224.5 411,-243.5 547,-243.5 547,-224.5 411,-224.5"/>
<text text-anchor="middle" x="479" y="-231.5" font-family="Helvetica,sans-Serif" font-size="10.00">sr/management/srcontext.h</text>
</a>
</g>
</g>
<!-- Node1&#45;&gt;Node8 -->
<g id="edge8" class="edge"><title>Node1&#45;&gt;Node8</title>
<path fill="none" stroke="midnightblue" d="M544.468,-280.324C532.414,-271.979 513.973,-259.212 499.731,-249.352"/>
<polygon fill="midnightblue" stroke="midnightblue" points="501.715,-246.469 491.501,-243.655 497.731,-252.224 501.715,-246.469"/>
</g>
<!-- Node20 -->
<g id="node20" class="node"><title>Node20</title>
<g id="a_node20"><a xlink:href="commoninterfaces_8h.html" target="_top" xlink:title=" ">
<polygon fill="none" stroke="black" points="565,-224.5 565,-243.5 707,-243.5 707,-224.5 565,-224.5"/>
<text text-anchor="middle" x="636" y="-231.5" font-family="Helvetica,sans-Serif" font-size="10.00">sr/utility/commoninterfaces.h</text>
</a>
</g>
</g>
<!-- Node1&#45;&gt;Node20 -->
<g id="edge24" class="edge"><title>Node1&#45;&gt;Node20</title>
<path fill="none" stroke="midnightblue" d="M569.693,-280.324C581.901,-271.979 600.578,-259.212 615.003,-249.352"/>
<polygon fill="midnightblue" stroke="midnightblue" points="617.058,-252.187 623.339,-243.655 613.108,-246.408 617.058,-252.187"/>
</g>
<!-- Node22 -->
<g id="node22" class="node"><title>Node22</title>
<g id="a_node22"><a xlink:title=" ">
<polygon fill="none" stroke="#bfbfbf" points="725.5,-224.5 725.5,-243.5 774.5,-243.5 774.5,-224.5 725.5,-224.5"/>
<text text-anchor="middle" x="750" y="-231.5" font-family="Helvetica,sans-Serif" font-size="10.00">fstream</text>
</a>
</g>
</g>
<!-- Node1&#45;&gt;Node22 -->
<g id="edge26" class="edge"><title>Node1&#45;&gt;Node22</title>
<path fill="none" stroke="midnightblue" d="M585.064,-281.148C619.562,-271.496 678.101,-255.117 715.364,-244.691"/>
<polygon fill="midnightblue" stroke="midnightblue" points="716.585,-247.984 725.272,-241.919 714.699,-241.243 716.585,-247.984"/>
</g>
<!-- Node3 -->
<g id="node3" class="node"><title>Node3</title>
<g id="a_node3"><a xlink:title=" ">
<polygon fill="none" stroke="#bfbfbf" points="0,-112.5 0,-131.5 42,-131.5 42,-112.5 0,-112.5"/>
<text text-anchor="middle" x="21" y="-119.5" font-family="Helvetica,sans-Serif" font-size="10.00">vector</text>
</a>
</g>
</g>
<!-- Node2&#45;&gt;Node3 -->
<g id="edge2" class="edge"><title>Node2&#45;&gt;Node3</title>
<path fill="none" stroke="midnightblue" d="M118.619,-168.444C99.7835,-159.675 70.2688,-145.935 48.6207,-135.858"/>
<polygon fill="midnightblue" stroke="midnightblue" points="49.8375,-132.564 39.2946,-131.516 46.8833,-138.91 49.8375,-132.564"/>
</g>
<!-- Node4 -->
<g id="node4" class="node"><title>Node4</title>
<g id="a_node4"><a xlink:title=" ">
<polygon fill="none" stroke="#bfbfbf" points="70,-56.5 70,-75.5 174,-75.5 174,-56.5 70,-56.5"/>
<text text-anchor="middle" x="122" y="-63.5" font-family="Helvetica,sans-Serif" font-size="10.00">opencv2/opencv.hpp</text>
</a>
</g>
</g>
<!-- Node2&#45;&gt;Node4 -->
<g id="edge3" class="edge"><title>Node2&#45;&gt;Node4</title>
<path fill="none" stroke="midnightblue" d="M122.63,-168.33C111.12,-160.469 95.8113,-147.722 89,-132 81.5839,-114.882 93.6495,-95.9264 105.22,-82.9249"/>
<polygon fill="midnightblue" stroke="midnightblue" points="107.784,-85.3078 112.182,-75.6687 102.733,-80.4615 107.784,-85.3078"/>
</g>
<!-- Node5 -->
<g id="node5" class="node"><title>Node5</title>
<g id="a_node5"><a xlink:href="transformation_8h.html" target="_top" xlink:title=" ">
<polygon fill="none" stroke="black" points="98.5,-112.5 98.5,-131.5 247.5,-131.5 247.5,-112.5 98.5,-112.5"/>
<text text-anchor="middle" x="173" y="-119.5" font-family="Helvetica,sans-Serif" font-size="10.00">sr/sense/core/transformation.h</text>
</a>
</g>
</g>
<!-- Node2&#45;&gt;Node5 -->
<g id="edge4" class="edge"><title>Node2&#45;&gt;Node5</title>
<path fill="none" stroke="midnightblue" d="M142.945,-168.083C147.977,-160.534 155.337,-149.495 161.513,-140.23"/>
<polygon fill="midnightblue" stroke="midnightblue" points="164.531,-142.013 167.166,-131.751 158.707,-138.13 164.531,-142.013"/>
</g>
<!-- Node5&#45;&gt;Node4 -->
<g id="edge5" class="edge"><title>Node5&#45;&gt;Node4</title>
<path fill="none" stroke="midnightblue" d="M164.578,-112.083C157.152,-104.22 146.148,-92.5688 137.188,-83.0813"/>
<polygon fill="midnightblue" stroke="midnightblue" points="139.676,-80.618 130.265,-75.7511 134.587,-85.4244 139.676,-80.618"/>
</g>
<!-- Node6 -->
<g id="node6" class="node"><title>Node6</title>
<g id="a_node6"><a xlink:href="types_8h.html" target="_top" xlink:title=" ">
<polygon fill="none" stroke="black" points="193,-56.5 193,-75.5 253,-75.5 253,-56.5 193,-56.5"/>
<text text-anchor="middle" x="223" y="-63.5" font-family="Helvetica,sans-Serif" font-size="10.00">sr/types.h</text>
</a>
</g>
</g>
<!-- Node5&#45;&gt;Node6 -->
<g id="edge6" class="edge"><title>Node5&#45;&gt;Node6</title>
<path fill="none" stroke="midnightblue" d="M181.256,-112.083C188.465,-104.298 199.11,-92.8015 207.846,-83.3665"/>
<polygon fill="midnightblue" stroke="midnightblue" points="210.671,-85.4666 214.897,-75.7511 205.535,-80.7108 210.671,-85.4666"/>
</g>
<!-- Node7 -->
<g id="node7" class="node"><title>Node7</title>
<g id="a_node7"><a xlink:title=" ">
<polygon fill="none" stroke="#bfbfbf" points="369.5,-0.5 369.5,-19.5 418.5,-19.5 418.5,-0.5 369.5,-0.5"/>
<text text-anchor="middle" x="394" y="-7.5" font-family="Helvetica,sans-Serif" font-size="10.00">stdint.h</text>
</a>
</g>
</g>
<!-- Node6&#45;&gt;Node7 -->
<g id="edge7" class="edge"><title>Node6&#45;&gt;Node7</title>
<path fill="none" stroke="midnightblue" d="M250.095,-56.4435C279.668,-47.1049 327.096,-32.1276 359.354,-21.9409"/>
<polygon fill="midnightblue" stroke="midnightblue" points="360.77,-25.164 369.252,-18.8151 358.662,-18.4889 360.77,-25.164"/>
</g>
<!-- Node8&#45;&gt;Node2 -->
<g id="edge17" class="edge"><title>Node8&#45;&gt;Node2</title>
<path fill="none" stroke="midnightblue" d="M424.809,-224.444C364.022,-214.846 265.513,-199.292 200.99,-189.104"/>
<polygon fill="midnightblue" stroke="midnightblue" points="201.361,-185.619 190.937,-187.516 200.269,-192.533 201.361,-185.619"/>
</g>
<!-- Node9 -->
<g id="node9" class="node"><title>Node9</title>
<g id="a_node9"><a xlink:title=" ">
<polygon fill="none" stroke="#bfbfbf" points="474.5,-112.5 474.5,-131.5 515.5,-131.5 515.5,-112.5 474.5,-112.5"/>
<text text-anchor="middle" x="495" y="-119.5" font-family="Helvetica,sans-Serif" font-size="10.00">string</text>
</a>
</g>
</g>
<!-- Node8&#45;&gt;Node9 -->
<g id="edge9" class="edge"><title>Node8&#45;&gt;Node9</title>
<path fill="none" stroke="midnightblue" d="M489.162,-224.185C497.908,-215.87 509.9,-202.539 515,-188 520.543,-172.197 513.804,-153.951 506.691,-140.821"/>
<polygon fill="midnightblue" stroke="midnightblue" points="509.502,-138.701 501.376,-131.902 503.489,-142.285 509.502,-138.701"/>
</g>
<!-- Node10 -->
<g id="node10" class="node"><title>Node10</title>
<g id="a_node10"><a xlink:title=" ">
<polygon fill="none" stroke="#bfbfbf" points="709.5,-168.5 709.5,-187.5 744.5,-187.5 744.5,-168.5 709.5,-168.5"/>
<text text-anchor="middle" x="727" y="-175.5" font-family="Helvetica,sans-Serif" font-size="10.00">map</text>
</a>
</g>
</g>
<!-- Node8&#45;&gt;Node10 -->
<g id="edge10" class="edge"><title>Node8&#45;&gt;Node10</title>
<path fill="none" stroke="midnightblue" d="M529.875,-224.446C572.732,-216.833 635.788,-204.686 699.551,-187.846"/>
<polygon fill="midnightblue" stroke="midnightblue" points="700.62,-191.183 709.374,-185.215 698.809,-184.421 700.62,-191.183"/>
</g>
<!-- Node11 -->
<g id="node11" class="node"><title>Node11</title>
<g id="a_node11"><a xlink:href="sense_8h.html" target="_top" xlink:title=" ">
<polygon fill="none" stroke="black" points="210.5,-168.5 210.5,-187.5 323.5,-187.5 323.5,-168.5 210.5,-168.5"/>
<text text-anchor="middle" x="267" y="-175.5" font-family="Helvetica,sans-Serif" font-size="10.00">sr/sense/core/sense.h</text>
</a>
</g>
</g>
<!-- Node8&#45;&gt;Node11 -->
<g id="edge11" class="edge"><title>Node8&#45;&gt;Node11</title>
<path fill="none" stroke="midnightblue" d="M445.408,-224.444C408.813,-215.122 350.162,-200.183 310.174,-189.997"/>
<polygon fill="midnightblue" stroke="midnightblue" points="310.989,-186.593 300.435,-187.516 309.261,-193.377 310.989,-186.593"/>
</g>
<!-- Node15 -->
<g id="node15" class="node"><title>Node15</title>
<g id="a_node15"><a xlink:href="networkinterface_8h.html" target="_top" xlink:title=" ">
<polygon fill="none" stroke="black" points="341.5,-168.5 341.5,-187.5 506.5,-187.5 506.5,-168.5 341.5,-168.5"/>
<text text-anchor="middle" x="424" y="-175.5" font-family="Helvetica,sans-Serif" font-size="10.00">sr/network/core/networkinterface.h</text>
</a>
</g>
</g>
<!-- Node8&#45;&gt;Node15 -->
<g id="edge18" class="edge"><title>Node8&#45;&gt;Node15</title>
<path fill="none" stroke="midnightblue" d="M469.918,-224.083C461.829,-216.141 449.805,-204.335 440.09,-194.797"/>
<polygon fill="midnightblue" stroke="midnightblue" points="442.501,-192.26 432.913,-187.751 437.597,-197.254 442.501,-192.26"/>
</g>
<!-- Node16 -->
<g id="node16" class="node"><title>Node16</title>
<g id="a_node16"><a xlink:href="receiver_8h.html" target="_top" xlink:title=" ">
<polygon fill="none" stroke="black" points="563,-168.5 563,-187.5 691,-187.5 691,-168.5 563,-168.5"/>
<text text-anchor="middle" x="627" y="-175.5" font-family="Helvetica,sans-Serif" font-size="10.00">sr/network/core/receiver.h</text>
</a>
</g>
</g>
<!-- Node8&#45;&gt;Node16 -->
<g id="edge19" class="edge"><title>Node8&#45;&gt;Node16</title>
<path fill="none" stroke="midnightblue" d="M502.451,-224.444C527.133,-215.438 566.185,-201.189 593.977,-191.049"/>
<polygon fill="midnightblue" stroke="midnightblue" points="595.464,-194.232 603.659,-187.516 593.065,-187.656 595.464,-194.232"/>
</g>
<!-- Node11&#45;&gt;Node5 -->
<g id="edge16" class="edge"><title>Node11&#45;&gt;Node5</title>
<path fill="none" stroke="midnightblue" d="M251.897,-168.324C237.097,-159.822 214.306,-146.729 197.018,-136.797"/>
<polygon fill="midnightblue" stroke="midnightblue" points="198.48,-133.601 188.065,-131.655 194.993,-139.671 198.48,-133.601"/>
</g>
<!-- Node11&#45;&gt;Node9 -->
<g id="edge12" class="edge"><title>Node11&#45;&gt;Node9</title>
<path fill="none" stroke="midnightblue" d="M303.127,-168.444C347.693,-157.888 422.674,-140.13 464.487,-130.227"/>
<polygon fill="midnightblue" stroke="midnightblue" points="465.439,-133.598 474.364,-127.888 463.826,-126.787 465.439,-133.598"/>
</g>
<!-- Node12 -->
<g id="node12" class="node"><title>Node12</title>
<g id="a_node12"><a xlink:title=" ">
<polygon fill="none" stroke="#bfbfbf" points="390,-112.5 390,-131.5 436,-131.5 436,-112.5 390,-112.5"/>
<text text-anchor="middle" x="413" y="-119.5" font-family="Helvetica,sans-Serif" font-size="10.00">chrono</text>
</a>
</g>
</g>
<!-- Node11&#45;&gt;Node12 -->
<g id="edge13" class="edge"><title>Node11&#45;&gt;Node12</title>
<path fill="none" stroke="midnightblue" d="M290.134,-168.444C314.482,-159.438 353.007,-145.189 380.423,-135.049"/>
<polygon fill="midnightblue" stroke="midnightblue" points="381.809,-138.268 389.974,-131.516 379.381,-131.703 381.809,-138.268"/>
</g>
<!-- Node13 -->
<g id="node13" class="node"><title>Node13</title>
<g id="a_node13"><a xlink:title=" ">
<polygon fill="none" stroke="#bfbfbf" points="266,-112.5 266,-131.5 310,-131.5 310,-112.5 266,-112.5"/>
<text text-anchor="middle" x="288" y="-119.5" font-family="Helvetica,sans-Serif" font-size="10.00">thread</text>
</a>
</g>
</g>
<!-- Node11&#45;&gt;Node13 -->
<g id="edge14" class="edge"><title>Node11&#45;&gt;Node13</title>
<path fill="none" stroke="midnightblue" d="M270.468,-168.083C273.312,-160.77 277.429,-150.181 280.96,-141.103"/>
<polygon fill="midnightblue" stroke="midnightblue" points="284.234,-142.34 284.597,-131.751 277.71,-139.803 284.234,-142.34"/>
</g>
<!-- Node14 -->
<g id="node14" class="node"><title>Node14</title>
<g id="a_node14"><a xlink:title=" ">
<polygon fill="none" stroke="#bfbfbf" points="328,-112.5 328,-131.5 372,-131.5 372,-112.5 328,-112.5"/>
<text text-anchor="middle" x="350" y="-119.5" font-family="Helvetica,sans-Serif" font-size="10.00">mutex</text>
</a>
</g>
</g>
<!-- Node11&#45;&gt;Node14 -->
<g id="edge15" class="edge"><title>Node11&#45;&gt;Node14</title>
<path fill="none" stroke="midnightblue" d="M280.335,-168.324C293.162,-159.979 312.785,-147.212 327.94,-137.352"/>
<polygon fill="midnightblue" stroke="midnightblue" points="330.224,-140.042 336.698,-131.655 326.407,-134.174 330.224,-140.042"/>
</g>
<!-- Node17 -->
<g id="node17" class="node"><title>Node17</title>
<g id="a_node17"><a xlink:href="packet_8h.html" target="_top" xlink:title=" ">
<polygon fill="none" stroke="black" points="567,-112.5 567,-131.5 621,-131.5 621,-112.5 567,-112.5"/>
<text text-anchor="middle" x="594" y="-119.5" font-family="Helvetica,sans-Serif" font-size="10.00">packet.h</text>
</a>
</g>
</g>
<!-- Node16&#45;&gt;Node17 -->
<g id="edge20" class="edge"><title>Node16&#45;&gt;Node17</title>
<path fill="none" stroke="midnightblue" d="M621.551,-168.083C616.986,-160.613 610.332,-149.724 604.707,-140.52"/>
<polygon fill="midnightblue" stroke="midnightblue" points="607.549,-138.459 599.348,-131.751 601.576,-142.109 607.549,-138.459"/>
</g>
<!-- Node17&#45;&gt;Node7 -->
<g id="edge21" class="edge"><title>Node17&#45;&gt;Node7</title>
<path fill="none" stroke="midnightblue" d="M590.124,-112.432C583.377,-98.4903 568.15,-70.9528 547,-56 511.402,-30.8323 461.712,-19.6004 428.733,-14.6825"/>
<polygon fill="midnightblue" stroke="midnightblue" points="429.035,-11.1912 418.652,-13.298 428.083,-18.1261 429.035,-11.1912"/>
</g>
<!-- Node18 -->
<g id="node18" class="node"><title>Node18</title>
<g id="a_node18"><a xlink:title=" ">
<polygon fill="none" stroke="#bfbfbf" points="594,-56.5 594,-75.5 648,-75.5 648,-56.5 594,-56.5"/>
<text text-anchor="middle" x="621" y="-63.5" font-family="Helvetica,sans-Serif" font-size="10.00">iostream</text>
</a>
</g>
</g>
<!-- Node17&#45;&gt;Node18 -->
<g id="edge22" class="edge"><title>Node17&#45;&gt;Node18</title>
<path fill="none" stroke="midnightblue" d="M598.459,-112.083C602.154,-104.691 607.523,-93.9533 612.094,-84.8111"/>
<polygon fill="midnightblue" stroke="midnightblue" points="615.283,-86.2606 616.624,-75.7511 609.022,-83.1301 615.283,-86.2606"/>
</g>
<!-- Node19 -->
<g id="node19" class="node"><title>Node19</title>
<g id="a_node19"><a xlink:title=" ">
<polygon fill="none" stroke="#bfbfbf" points="488,-56.5 488,-75.5 538,-75.5 538,-56.5 488,-56.5"/>
<text text-anchor="middle" x="513" y="-63.5" font-family="Helvetica,sans-Serif" font-size="10.00">iomanip</text>
</a>
</g>
</g>
<!-- Node17&#45;&gt;Node19 -->
<g id="edge23" class="edge"><title>Node17&#45;&gt;Node19</title>
<path fill="none" stroke="midnightblue" d="M580.986,-112.324C568.468,-103.979 549.318,-91.2122 534.529,-81.3524"/>
<polygon fill="midnightblue" stroke="midnightblue" points="536.244,-78.2894 525.982,-75.6545 532.361,-84.1137 536.244,-78.2894"/>
</g>
<!-- Node21 -->
<g id="node21" class="node"><title>Node21</title>
<g id="a_node21"><a xlink:title=" ">
<polygon fill="none" stroke="#bfbfbf" points="762.5,-168.5 762.5,-187.5 821.5,-187.5 821.5,-168.5 762.5,-168.5"/>
<text text-anchor="middle" x="792" y="-175.5" font-family="Helvetica,sans-Serif" font-size="10.00">typeindex</text>
</a>
</g>
</g>
<!-- Node20&#45;&gt;Node21 -->
<g id="edge25" class="edge"><title>Node20&#45;&gt;Node21</title>
<path fill="none" stroke="midnightblue" d="M660.719,-224.444C686.848,-215.399 728.259,-201.064 757.576,-190.916"/>
<polygon fill="midnightblue" stroke="midnightblue" points="759.092,-194.095 767.397,-187.516 756.802,-187.48 759.092,-194.095"/>
</g>
</g>
</svg>
