<?xml version="1.0" encoding="UTF-8" standalone="no"?>
<!DOCTYPE svg PUBLIC "-//W3C//DTD SVG 1.1//EN"
 "http://www.w3.org/Graphics/SVG/1.1/DTD/svg11.dtd">
<!-- Generated by graphviz version 2.38.0 (20140413.2041)
 -->
<!-- Title: eyepair.h Pages: 1 -->
<svg width="640pt" height="252pt"
 viewBox="0.00 0.00 639.50 252.00" xmlns="http://www.w3.org/2000/svg" xmlns:xlink="http://www.w3.org/1999/xlink">
<g id="graph0" class="graph" transform="scale(1 1) rotate(0) translate(4 248)">
<title>eyepair.h</title>
<!-- Node1 -->
<g id="node1" class="node"><title>Node1</title>
<g id="a_node1"><a xlink:title=" ">
<polygon fill="#bfbfbf" stroke="black" points="236,-224.5 236,-243.5 292,-243.5 292,-224.5 236,-224.5"/>
<text text-anchor="middle" x="264" y="-231.5" font-family="Helvetica,sans-Serif" font-size="10.00">eyepair.h</text>
</a>
</g>
</g>
<!-- Node2 -->
<g id="node2" class="node"><title>Node2</title>
<g id="a_node2"><a xlink:href="eyepairlistener_8h.html" target="_top" xlink:title=" ">
<polygon fill="none" stroke="black" points="86,-168.5 86,-187.5 174,-187.5 174,-168.5 86,-168.5"/>
<text text-anchor="middle" x="130" y="-175.5" font-family="Helvetica,sans-Serif" font-size="10.00">eyepairlistener.h</text>
</a>
</g>
</g>
<!-- Node1&#45;&gt;Node2 -->
<g id="edge1" class="edge"><title>Node1&#45;&gt;Node2</title>
<path fill="none" stroke="midnightblue" d="M233.323,-220.638C208.177,-210.504 173.246,-196.427 151.133,-187.516"/>
<polygon fill="midnightblue" stroke="midnightblue" points="232.184,-223.952 242.767,-224.444 234.8,-217.459 232.184,-223.952"/>
</g>
<!-- Node3 -->
<g id="node3" class="node"><title>Node3</title>
<g id="a_node3"><a xlink:href="eyepairstream_8h.html" target="_top" xlink:title=" ">
<polygon fill="none" stroke="black" points="150,-112.5 150,-131.5 236,-131.5 236,-112.5 150,-112.5"/>
<text text-anchor="middle" x="193" y="-119.5" font-family="Helvetica,sans-Serif" font-size="10.00">eyepairstream.h</text>
</a>
</g>
</g>
<!-- Node1&#45;&gt;Node3 -->
<g id="edge8" class="edge"><title>Node1&#45;&gt;Node3</title>
<path fill="none" stroke="midnightblue" d="M253,-215.957C237.613,-192.118 210.239,-149.709 198.545,-131.591"/>
<polygon fill="midnightblue" stroke="midnightblue" points="250.065,-217.865 258.429,-224.368 255.946,-214.069 250.065,-217.865"/>
</g>
<!-- Node4 -->
<g id="node4" class="node"><title>Node4</title>
<g id="a_node4"><a xlink:href="eyetracker_8h.html" target="_top" xlink:title=" ">
<polygon fill="none" stroke="black" points="161.5,-56.5 161.5,-75.5 232.5,-75.5 232.5,-56.5 161.5,-56.5"/>
<text text-anchor="middle" x="197" y="-63.5" font-family="Helvetica,sans-Serif" font-size="10.00">eyetracker.h</text>
</a>
</g>
</g>
<!-- Node1&#45;&gt;Node4 -->
<g id="edge9" class="edge"><title>Node1&#45;&gt;Node4</title>
<path fill="none" stroke="midnightblue" d="M264.724,-214.308C264.9,-189.483 262.429,-144.938 245,-112 236.879,-96.6535 221.48,-83.6667 210.308,-75.6477"/>
<polygon fill="midnightblue" stroke="midnightblue" points="261.221,-214.417 264.49,-224.495 268.219,-214.578 261.221,-214.417"/>
</g>
<!-- Node7 -->
<g id="node7" class="node"><title>Node7</title>
<g id="a_node7"><a xlink:href="facetrackers__c_8h.html" target="_top" xlink:title=" ">
<polygon fill="none" stroke="black" points="292.5,-112.5 292.5,-131.5 381.5,-131.5 381.5,-112.5 292.5,-112.5"/>
<text text-anchor="middle" x="337" y="-119.5" font-family="Helvetica,sans-Serif" font-size="10.00">facetrackers_c.h</text>
</a>
</g>
</g>
<!-- Node1&#45;&gt;Node7 -->
<g id="edge10" class="edge"><title>Node1&#45;&gt;Node7</title>
<path fill="none" stroke="midnightblue" d="M275.31,-215.957C291.131,-192.118 319.275,-149.709 331.298,-131.591"/>
<polygon fill="midnightblue" stroke="midnightblue" points="272.341,-214.101 269.728,-224.368 278.174,-217.972 272.341,-214.101"/>
</g>
<!-- Node8 -->
<g id="node8" class="node"><title>Node8</title>
<g id="a_node8"><a xlink:href="head_8h.html" target="_top" xlink:title=" ">
<polygon fill="none" stroke="black" points="387,-168.5 387,-187.5 433,-187.5 433,-168.5 387,-168.5"/>
<text text-anchor="middle" x="410" y="-175.5" font-family="Helvetica,sans-Serif" font-size="10.00">head.h</text>
</a>
</g>
</g>
<!-- Node1&#45;&gt;Node8 -->
<g id="edge11" class="edge"><title>Node1&#45;&gt;Node8</title>
<path fill="none" stroke="midnightblue" d="M296.699,-220.906C324.148,-210.754 362.668,-196.506 386.974,-187.516"/>
<polygon fill="midnightblue" stroke="midnightblue" points="295.299,-217.692 287.134,-224.444 297.727,-224.257 295.299,-217.692"/>
</g>
<!-- Node2&#45;&gt;Node3 -->
<g id="edge2" class="edge"><title>Node2&#45;&gt;Node3</title>
<path fill="none" stroke="midnightblue" d="M148.04,-161.537C159.273,-151.909 173.319,-139.869 182.694,-131.834"/>
<polygon fill="midnightblue" stroke="midnightblue" points="145.437,-159.159 140.122,-168.324 149.992,-164.473 145.437,-159.159"/>
</g>
<!-- Node5 -->
<g id="node5" class="node"><title>Node5</title>
<g id="a_node5"><a xlink:href="predictingeyetracker_8h.html" target="_top" xlink:title=" ">
<polygon fill="none" stroke="black" points="144.5,-0.5 144.5,-19.5 257.5,-19.5 257.5,-0.5 144.5,-0.5"/>
<text text-anchor="middle" x="201" y="-7.5" font-family="Helvetica,sans-Serif" font-size="10.00">predictingeyetracker.h</text>
</a>
</g>
</g>
<!-- Node2&#45;&gt;Node5 -->
<g id="edge6" class="edge"><title>Node2&#45;&gt;Node5</title>
<path fill="none" stroke="midnightblue" d="M129.724,-158.219C130.147,-133.294 133.703,-88.6386 152,-56 160.585,-40.6861 176.25,-27.6932 187.56,-19.6639"/>
<polygon fill="midnightblue" stroke="midnightblue" points="126.224,-158.446 129.713,-168.45 133.224,-158.454 126.224,-158.446"/>
</g>
<!-- Node6 -->
<g id="node6" class="node"><title>Node6</title>
<g id="a_node6"><a xlink:href="predictingweavertracker_8h.html" target="_top" xlink:title=" ">
<polygon fill="none" stroke="black" points="0,-0.5 0,-19.5 126,-19.5 126,-0.5 0,-0.5"/>
<text text-anchor="middle" x="63" y="-7.5" font-family="Helvetica,sans-Serif" font-size="10.00">predictingweavertracker.h</text>
</a>
</g>
</g>
<!-- Node2&#45;&gt;Node6 -->
<g id="edge7" class="edge"><title>Node2&#45;&gt;Node6</title>
<path fill="none" stroke="midnightblue" d="M120.938,-159.485C116.799,-151.234 111.95,-141.204 108,-132 90.2337,-90.6018 72.6249,-39.6188 65.8786,-19.6229"/>
<polygon fill="midnightblue" stroke="midnightblue" points="117.868,-161.17 125.527,-168.49 124.105,-157.991 117.868,-161.17"/>
</g>
<!-- Node3&#45;&gt;Node4 -->
<g id="edge3" class="edge"><title>Node3&#45;&gt;Node4</title>
<path fill="none" stroke="midnightblue" d="M194.4,-102.101C195.064,-93.1357 195.825,-82.8579 196.352,-75.7511"/>
<polygon fill="midnightblue" stroke="midnightblue" points="190.909,-101.852 193.661,-112.083 197.89,-102.369 190.909,-101.852"/>
</g>
<!-- Node4&#45;&gt;Node5 -->
<g id="edge4" class="edge"><title>Node4&#45;&gt;Node5</title>
<path fill="none" stroke="midnightblue" d="M198.4,-46.1005C199.064,-37.1357 199.825,-26.8579 200.352,-19.7511"/>
<polygon fill="midnightblue" stroke="midnightblue" points="194.909,-45.8517 197.661,-56.083 201.89,-46.3689 194.909,-45.8517"/>
</g>
<!-- Node4&#45;&gt;Node6 -->
<g id="edge5" class="edge"><title>Node4&#45;&gt;Node6</title>
<path fill="none" stroke="midnightblue" d="M166.323,-52.6377C141.177,-42.504 106.246,-28.4274 84.1334,-19.5164"/>
<polygon fill="midnightblue" stroke="midnightblue" points="165.184,-55.952 175.767,-56.4435 167.8,-49.4594 165.184,-55.952"/>
</g>
<!-- Node8&#45;&gt;Node7 -->
<g id="edge12" class="edge"><title>Node8&#45;&gt;Node7</title>
<path fill="none" stroke="midnightblue" d="M389.858,-162.101C376.721,-152.382 360.018,-140.027 348.942,-131.834"/>
<polygon fill="midnightblue" stroke="midnightblue" points="388.15,-165.191 398.271,-168.324 392.313,-159.563 388.15,-165.191"/>
</g>
<!-- Node9 -->
<g id="node9" class="node"><title>Node9</title>
<g id="a_node9"><a xlink:href="headlistener_8h.html" target="_top" xlink:title=" ">
<polygon fill="none" stroke="black" points="554.5,-112.5 554.5,-131.5 631.5,-131.5 631.5,-112.5 554.5,-112.5"/>
<text text-anchor="middle" x="593" y="-119.5" font-family="Helvetica,sans-Serif" font-size="10.00">headlistener.h</text>
</a>
</g>
</g>
<!-- Node8&#45;&gt;Node9 -->
<g id="edge13" class="edge"><title>Node8&#45;&gt;Node9</title>
<path fill="none" stroke="midnightblue" d="M442.786,-167.325C477.265,-157.151 531,-141.295 563.987,-131.561"/>
<polygon fill="midnightblue" stroke="midnightblue" points="441.778,-163.974 433.177,-170.161 443.759,-170.688 441.778,-163.974"/>
</g>
<!-- Node12 -->
<g id="node12" class="node"><title>Node12</title>
<g id="a_node12"><a xlink:href="headposelistener_8h.html" target="_top" xlink:title=" ">
<polygon fill="none" stroke="black" points="438,-112.5 438,-131.5 536,-131.5 536,-112.5 438,-112.5"/>
<text text-anchor="middle" x="487" y="-119.5" font-family="Helvetica,sans-Serif" font-size="10.00">headposelistener.h</text>
</a>
</g>
</g>
<!-- Node8&#45;&gt;Node12 -->
<g id="edge16" class="edge"><title>Node8&#45;&gt;Node12</title>
<path fill="none" stroke="midnightblue" d="M430.901,-162.342C444.911,-152.517 462.883,-139.913 474.659,-131.655"/>
<polygon fill="midnightblue" stroke="midnightblue" points="428.549,-159.717 422.371,-168.324 432.568,-165.448 428.549,-159.717"/>
</g>
<!-- Node13 -->
<g id="node13" class="node"><title>Node13</title>
<g id="a_node13"><a xlink:href="headposestream_8h.html" target="_top" xlink:title=" ">
<polygon fill="none" stroke="black" points="400.5,-56.5 400.5,-75.5 497.5,-75.5 497.5,-56.5 400.5,-56.5"/>
<text text-anchor="middle" x="449" y="-63.5" font-family="Helvetica,sans-Serif" font-size="10.00">headposestream.h</text>
</a>
</g>
</g>
<!-- Node8&#45;&gt;Node13 -->
<g id="edge19" class="edge"><title>Node8&#45;&gt;Node13</title>
<path fill="none" stroke="midnightblue" d="M414.632,-158.752C418.138,-145.606 423.311,-127.523 429,-112 433.707,-99.1565 440.343,-84.7892 444.658,-75.8199"/>
<polygon fill="midnightblue" stroke="midnightblue" points="411.235,-157.91 412.104,-168.469 418.009,-159.672 411.235,-157.91"/>
</g>
<!-- Node10 -->
<g id="node10" class="node"><title>Node10</title>
<g id="a_node10"><a xlink:href="headstream_8h.html" target="_top" xlink:title=" ">
<polygon fill="none" stroke="black" points="555,-56.5 555,-75.5 631,-75.5 631,-56.5 555,-56.5"/>
<text text-anchor="middle" x="593" y="-63.5" font-family="Helvetica,sans-Serif" font-size="10.00">headstream.h</text>
</a>
</g>
</g>
<!-- Node9&#45;&gt;Node10 -->
<g id="edge14" class="edge"><title>Node9&#45;&gt;Node10</title>
<path fill="none" stroke="midnightblue" d="M593,-101.805C593,-92.9102 593,-82.7798 593,-75.7511"/>
<polygon fill="midnightblue" stroke="midnightblue" points="589.5,-102.083 593,-112.083 596.5,-102.083 589.5,-102.083"/>
</g>
<!-- Node11 -->
<g id="node11" class="node"><title>Node11</title>
<g id="a_node11"><a xlink:href="headtracker_8h.html" target="_top" xlink:title=" ">
<polygon fill="none" stroke="black" points="555,-0.5 555,-19.5 631,-19.5 631,-0.5 555,-0.5"/>
<text text-anchor="middle" x="593" y="-7.5" font-family="Helvetica,sans-Serif" font-size="10.00">headtracker.h</text>
</a>
</g>
</g>
<!-- Node10&#45;&gt;Node11 -->
<g id="edge15" class="edge"><title>Node10&#45;&gt;Node11</title>
<path fill="none" stroke="midnightblue" d="M593,-45.8045C593,-36.9102 593,-26.7798 593,-19.7511"/>
<polygon fill="midnightblue" stroke="midnightblue" points="589.5,-46.083 593,-56.083 596.5,-46.083 589.5,-46.083"/>
</g>
<!-- Node12&#45;&gt;Node13 -->
<g id="edge17" class="edge"><title>Node12&#45;&gt;Node13</title>
<path fill="none" stroke="midnightblue" d="M474.935,-103.855C468.355,-94.5048 460.489,-83.3265 455.158,-75.7511"/>
<polygon fill="midnightblue" stroke="midnightblue" points="472.108,-105.919 480.725,-112.083 477.832,-101.891 472.108,-105.919"/>
</g>
<!-- Node14 -->
<g id="node14" class="node"><title>Node14</title>
<g id="a_node14"><a xlink:href="headposetracker_8h.html" target="_top" xlink:title=" ">
<polygon fill="none" stroke="black" points="400.5,-0.5 400.5,-19.5 497.5,-19.5 497.5,-0.5 400.5,-0.5"/>
<text text-anchor="middle" x="449" y="-7.5" font-family="Helvetica,sans-Serif" font-size="10.00">headposetracker.h</text>
</a>
</g>
</g>
<!-- Node13&#45;&gt;Node14 -->
<g id="edge18" class="edge"><title>Node13&#45;&gt;Node14</title>
<path fill="none" stroke="midnightblue" d="M449,-45.8045C449,-36.9102 449,-26.7798 449,-19.7511"/>
<polygon fill="midnightblue" stroke="midnightblue" points="445.5,-46.083 449,-56.083 452.5,-46.083 445.5,-46.083"/>
</g>
</g>
</svg>
