<?xml version="1.0" encoding="UTF-8" standalone="no"?>
<!DOCTYPE svg PUBLIC "-//W3C//DTD SVG 1.1//EN"
 "http://www.w3.org/Graphics/SVG/1.1/DTD/svg11.dtd">
<!-- Generated by graphviz version 2.38.0 (20140413.2041)
 -->
<!-- Title: eyepairstream.h Pages: 1 -->
<svg width="217pt" height="252pt"
 viewBox="0.00 0.00 217.00 252.00" xmlns="http://www.w3.org/2000/svg" xmlns:xlink="http://www.w3.org/1999/xlink">
<g id="graph0" class="graph" transform="scale(1 1) rotate(0) translate(4 248)">
<title>eyepairstream.h</title>
<!-- Node1 -->
<g id="node1" class="node"><title>Node1</title>
<g id="a_node1"><a xlink:title=" ">
<polygon fill="#bfbfbf" stroke="black" points="52,-224.5 52,-243.5 138,-243.5 138,-224.5 52,-224.5"/>
<text text-anchor="middle" x="95" y="-231.5" font-family="Helvetica,sans-Serif" font-size="10.00">eyepairstream.h</text>
</a>
</g>
</g>
<!-- Node2 -->
<g id="node2" class="node"><title>Node2</title>
<g id="a_node2"><a xlink:href="eyepair_8h.html" target="_top" xlink:title=" ">
<polygon fill="none" stroke="black" points="31,-112.5 31,-131.5 87,-131.5 87,-112.5 31,-112.5"/>
<text text-anchor="middle" x="59" y="-119.5" font-family="Helvetica,sans-Serif" font-size="10.00">eyepair.h</text>
</a>
</g>
</g>
<!-- Node1&#45;&gt;Node2 -->
<g id="edge1" class="edge"><title>Node1&#45;&gt;Node2</title>
<path fill="none" stroke="midnightblue" d="M78.6664,-224.387C66.0446,-216.72 49.5028,-204.213 42,-188 34.9733,-172.816 41.1577,-154.241 47.9548,-140.842"/>
<polygon fill="midnightblue" stroke="midnightblue" points="51.2179,-142.18 53.0633,-131.747 45.1146,-138.752 51.2179,-142.18"/>
</g>
<!-- Node5 -->
<g id="node5" class="node"><title>Node5</title>
<g id="a_node5"><a xlink:href="eyepairlistener_8h.html" target="_top" xlink:title=" ">
<polygon fill="none" stroke="black" points="51,-168.5 51,-187.5 139,-187.5 139,-168.5 51,-168.5"/>
<text text-anchor="middle" x="95" y="-175.5" font-family="Helvetica,sans-Serif" font-size="10.00">eyepairlistener.h</text>
</a>
</g>
</g>
<!-- Node1&#45;&gt;Node5 -->
<g id="edge5" class="edge"><title>Node1&#45;&gt;Node5</title>
<path fill="none" stroke="midnightblue" d="M95,-224.083C95,-217.006 95,-206.861 95,-197.986"/>
<polygon fill="midnightblue" stroke="midnightblue" points="98.5001,-197.751 95,-187.751 91.5001,-197.751 98.5001,-197.751"/>
</g>
<!-- Node6 -->
<g id="node6" class="node"><title>Node6</title>
<g id="a_node6"><a xlink:title=" ">
<polygon fill="none" stroke="#bfbfbf" points="157,-168.5 157,-187.5 209,-187.5 209,-168.5 157,-168.5"/>
<text text-anchor="middle" x="183" y="-175.5" font-family="Helvetica,sans-Serif" font-size="10.00">memory</text>
</a>
</g>
</g>
<!-- Node1&#45;&gt;Node6 -->
<g id="edge7" class="edge"><title>Node1&#45;&gt;Node6</title>
<path fill="none" stroke="midnightblue" d="M109.139,-224.324C122.866,-215.9 143.936,-202.971 160.064,-193.074"/>
<polygon fill="midnightblue" stroke="midnightblue" points="162.204,-195.868 168.896,-187.655 158.543,-189.902 162.204,-195.868"/>
</g>
<!-- Node3 -->
<g id="node3" class="node"><title>Node3</title>
<g id="a_node3"><a xlink:href="types_8h.html" target="_top" xlink:title=" ">
<polygon fill="none" stroke="black" points="0,-56.5 0,-75.5 60,-75.5 60,-56.5 0,-56.5"/>
<text text-anchor="middle" x="30" y="-63.5" font-family="Helvetica,sans-Serif" font-size="10.00">sr/types.h</text>
</a>
</g>
</g>
<!-- Node2&#45;&gt;Node3 -->
<g id="edge2" class="edge"><title>Node2&#45;&gt;Node3</title>
<path fill="none" stroke="midnightblue" d="M54.2112,-112.083C50.2416,-104.691 44.4749,-93.9533 39.5652,-84.8111"/>
<polygon fill="midnightblue" stroke="midnightblue" points="42.5145,-82.9051 34.6997,-75.7511 36.3475,-86.217 42.5145,-82.9051"/>
</g>
<!-- Node4 -->
<g id="node4" class="node"><title>Node4</title>
<g id="a_node4"><a xlink:title=" ">
<polygon fill="none" stroke="#bfbfbf" points="34.5,-0.5 34.5,-19.5 83.5,-19.5 83.5,-0.5 34.5,-0.5"/>
<text text-anchor="middle" x="59" y="-7.5" font-family="Helvetica,sans-Serif" font-size="10.00">stdint.h</text>
</a>
</g>
</g>
<!-- Node2&#45;&gt;Node4 -->
<g id="edge4" class="edge"><title>Node2&#45;&gt;Node4</title>
<path fill="none" stroke="midnightblue" d="M61.8369,-112.201C65.5168,-99.7353 71.2176,-76.2018 69,-56 68.0274,-47.1398 66.0083,-37.4716 64.0374,-29.3755"/>
<polygon fill="midnightblue" stroke="midnightblue" points="67.3829,-28.333 61.4824,-19.5332 60.6074,-30.0919 67.3829,-28.333"/>
</g>
<!-- Node3&#45;&gt;Node4 -->
<g id="edge3" class="edge"><title>Node3&#45;&gt;Node4</title>
<path fill="none" stroke="midnightblue" d="M34.7888,-56.083C38.7584,-48.6913 44.5251,-37.9533 49.4348,-28.8111"/>
<polygon fill="midnightblue" stroke="midnightblue" points="52.6525,-30.217 54.3003,-19.7511 46.4855,-26.9051 52.6525,-30.217"/>
</g>
<!-- Node5&#45;&gt;Node2 -->
<g id="edge6" class="edge"><title>Node5&#45;&gt;Node2</title>
<path fill="none" stroke="midnightblue" d="M89.0553,-168.083C84.0227,-160.534 76.6632,-149.495 70.4865,-140.23"/>
<polygon fill="midnightblue" stroke="midnightblue" points="73.2933,-138.13 64.8341,-131.751 67.4689,-142.013 73.2933,-138.13"/>
</g>
</g>
</svg>
