<?xml version="1.0" encoding="UTF-8" standalone="no"?>
<!DOCTYPE svg PUBLIC "-//W3C//DTD SVG 1.1//EN"
 "http://www.w3.org/Graphics/SVG/1.1/DTD/svg11.dtd">
<!-- Generated by graphviz version 2.38.0 (20140413.2041)
 -->
<!-- Title: eyepairlistener.h Pages: 1 -->
<svg width="268pt" height="196pt"
 viewBox="0.00 0.00 267.50 196.00" xmlns="http://www.w3.org/2000/svg" xmlns:xlink="http://www.w3.org/1999/xlink">
<g id="graph0" class="graph" transform="scale(1 1) rotate(0) translate(4 192)">
<title>eyepairlistener.h</title>
<!-- Node1 -->
<g id="node1" class="node"><title>Node1</title>
<g id="a_node1"><a xlink:title=" ">
<polygon fill="#bfbfbf" stroke="black" points="82.5,-168.5 82.5,-187.5 170.5,-187.5 170.5,-168.5 82.5,-168.5"/>
<text text-anchor="middle" x="126.5" y="-175.5" font-family="Helvetica,sans-Serif" font-size="10.00">eyepairlistener.h</text>
</a>
</g>
</g>
<!-- Node2 -->
<g id="node2" class="node"><title>Node2</title>
<g id="a_node2"><a xlink:href="eyepairstream_8h.html" target="_top" xlink:title=" ">
<polygon fill="none" stroke="black" points="83.5,-112.5 83.5,-131.5 169.5,-131.5 169.5,-112.5 83.5,-112.5"/>
<text text-anchor="middle" x="126.5" y="-119.5" font-family="Helvetica,sans-Serif" font-size="10.00">eyepairstream.h</text>
</a>
</g>
</g>
<!-- Node1&#45;&gt;Node2 -->
<g id="edge1" class="edge"><title>Node1&#45;&gt;Node2</title>
<path fill="none" stroke="midnightblue" d="M126.5,-157.805C126.5,-148.91 126.5,-138.78 126.5,-131.751"/>
<polygon fill="midnightblue" stroke="midnightblue" points="123,-158.083 126.5,-168.083 130,-158.083 123,-158.083"/>
</g>
<!-- Node4 -->
<g id="node4" class="node"><title>Node4</title>
<g id="a_node4"><a xlink:href="predictingeyetracker_8h.html" target="_top" xlink:title=" ">
<polygon fill="none" stroke="black" points="0,-0.5 0,-19.5 113,-19.5 113,-0.5 0,-0.5"/>
<text text-anchor="middle" x="56.5" y="-7.5" font-family="Helvetica,sans-Serif" font-size="10.00">predictingeyetracker.h</text>
</a>
</g>
</g>
<!-- Node1&#45;&gt;Node4 -->
<g id="edge5" class="edge"><title>Node1&#45;&gt;Node4</title>
<path fill="none" stroke="midnightblue" d="M103.158,-162.471C92.7047,-154.726 81.2389,-144.261 74.5,-132 53.7336,-94.2175 54.583,-40.2709 55.8248,-19.5531"/>
<polygon fill="midnightblue" stroke="midnightblue" points="101.364,-165.486 111.574,-168.316 105.357,-159.737 101.364,-165.486"/>
</g>
<!-- Node5 -->
<g id="node5" class="node"><title>Node5</title>
<g id="a_node5"><a xlink:href="predictingweavertracker_8h.html" target="_top" xlink:title=" ">
<polygon fill="none" stroke="black" points="133.5,-0.5 133.5,-19.5 259.5,-19.5 259.5,-0.5 133.5,-0.5"/>
<text text-anchor="middle" x="196.5" y="-7.5" font-family="Helvetica,sans-Serif" font-size="10.00">predictingweavertracker.h</text>
</a>
</g>
</g>
<!-- Node1&#45;&gt;Node5 -->
<g id="edge6" class="edge"><title>Node1&#45;&gt;Node5</title>
<path fill="none" stroke="midnightblue" d="M149.842,-162.471C160.295,-154.726 171.761,-144.261 178.5,-132 199.266,-94.2175 198.417,-40.2709 197.175,-19.5531"/>
<polygon fill="midnightblue" stroke="midnightblue" points="147.643,-159.737 141.426,-168.316 151.636,-165.486 147.643,-159.737"/>
</g>
<!-- Node3 -->
<g id="node3" class="node"><title>Node3</title>
<g id="a_node3"><a xlink:href="eyetracker_8h.html" target="_top" xlink:title=" ">
<polygon fill="none" stroke="black" points="91,-56.5 91,-75.5 162,-75.5 162,-56.5 91,-56.5"/>
<text text-anchor="middle" x="126.5" y="-63.5" font-family="Helvetica,sans-Serif" font-size="10.00">eyetracker.h</text>
</a>
</g>
</g>
<!-- Node2&#45;&gt;Node3 -->
<g id="edge2" class="edge"><title>Node2&#45;&gt;Node3</title>
<path fill="none" stroke="midnightblue" d="M126.5,-101.805C126.5,-92.9102 126.5,-82.7798 126.5,-75.7511"/>
<polygon fill="midnightblue" stroke="midnightblue" points="123,-102.083 126.5,-112.083 130,-102.083 123,-102.083"/>
</g>
<!-- Node3&#45;&gt;Node4 -->
<g id="edge3" class="edge"><title>Node3&#45;&gt;Node4</title>
<path fill="none" stroke="midnightblue" d="M107.186,-50.1008C94.5883,-40.3824 78.5719,-28.0269 67.9513,-19.8339"/>
<polygon fill="midnightblue" stroke="midnightblue" points="105.198,-52.9871 115.253,-56.324 109.473,-47.4446 105.198,-52.9871"/>
</g>
<!-- Node3&#45;&gt;Node5 -->
<g id="edge4" class="edge"><title>Node3&#45;&gt;Node5</title>
<path fill="none" stroke="midnightblue" d="M145.814,-50.1008C158.412,-40.3824 174.428,-28.0269 185.049,-19.8339"/>
<polygon fill="midnightblue" stroke="midnightblue" points="143.527,-47.4446 137.747,-56.324 147.802,-52.9871 143.527,-47.4446"/>
</g>
</g>
</svg>
