<?xml version="1.0" encoding="UTF-8" standalone="no"?><svg xmlns="http://www.w3.org/2000/svg" xmlns:xlink="http://www.w3.org/1999/xlink" contentScriptType="application/ecmascript" contentStyleType="text/css" height="545px" preserveAspectRatio="none" style="width:498px;height:545px;" version="1.1" viewBox="0 0 498 545" width="498px" zoomAndPan="magnify"><defs><filter height="300%" id="f1qqmeyocp8j27" width="300%" x="-1" y="-1"><feGaussianBlur result="blurOut" stdDeviation="2.0"/><feColorMatrix in="blurOut" result="blurOut2" type="matrix" values="0 0 0 0 0 0 0 0 0 0 0 0 0 0 0 0 0 0 .4 0"/><feOffset dx="4.0" dy="4.0" in="blurOut2" result="blurOut3"/><feBlend in="SourceGraphic" in2="blurOut3" mode="normal"/></filter></defs><g><!--MD5=[9dd3351f07337b505bcbcaccceef8e22]
class SRContext--><rect codeLine="2" fill="#FEFECE" filter="url(#f1qqmeyocp8j27)" height="103.3438" id="SRContext" style="stroke:#A80036;stroke-width:1.5;" width="211" x="7" y="7"/><ellipse cx="79.25" cy="23" fill="#ADD1B2" rx="11" ry="11" style="stroke:#A80036;stroke-width:1.0;"/><path d="M82.0156,18.875 Q82.1719,18.6563 82.3594,18.5469 Q82.5469,18.4375 82.7656,18.4375 Q83.1406,18.4375 83.375,18.6953 Q83.6094,18.9531 83.6094,19.5625 L83.6094,21.0156 Q83.6094,21.625 83.375,21.8906 Q83.1406,22.1563 82.7656,22.1563 Q82.4219,22.1563 82.2188,21.9531 Q82.0156,21.7656 81.9063,21.25 Q81.8594,20.8906 81.6719,20.7031 Q81.3438,20.3281 80.7344,20.1094 Q80.125,19.8906 79.5,19.8906 Q78.7344,19.8906 78.1016,20.2188 Q77.4688,20.5469 76.9766,21.2969 Q76.4844,22.0469 76.4844,23.0781 L76.4844,24.1719 Q76.4844,25.4063 77.375,26.2266 Q78.2656,27.0469 79.8594,27.0469 Q80.7969,27.0469 81.4531,26.7969 Q81.8438,26.6406 82.2656,26.2031 Q82.5313,25.9375 82.6797,25.8594 Q82.8281,25.7813 83.0313,25.7813 Q83.3594,25.7813 83.6172,26.0391 Q83.875,26.2969 83.875,26.6406 Q83.875,26.9844 83.5313,27.3906 Q83.0313,27.9688 82.2344,28.2969 Q81.1563,28.75 79.8594,28.75 Q78.3438,28.75 77.1406,28.125 Q76.1563,27.625 75.4688,26.5547 Q74.7813,25.4844 74.7813,24.2031 L74.7813,23.0469 Q74.7813,21.7188 75.3984,20.5703 Q76.0156,19.4219 77.1094,18.8047 Q78.2031,18.1875 79.4375,18.1875 Q80.1719,18.1875 80.8203,18.3516 Q81.4688,18.5156 82.0156,18.875 Z " fill="#000000"/><text fill="#000000" font-family="sans-serif" font-size="12" lengthAdjust="spacing" textLength="58" x="99.75" y="27.9102">SRContext</text><line style="stroke:#A80036;stroke-width:1.5;" x1="8" x2="217" y1="39" y2="39"/><rect fill="none" height="6" style="stroke:#C82930;stroke-width:1.0;" width="6" x="15" y="47"/><text fill="#000000" font-family="sans-serif" font-size="11" lengthAdjust="spacing" textLength="185" x="27" y="54.4189">senses: map&lt;string, vector&lt;Sense*&gt;&gt;</text><ellipse cx="18" cy="63.8359" rx="3" ry="3" style="stroke:#038048;stroke-width:1.0;fill:none;"/><text fill="#000000" font-family="sans-serif" font-size="11" lengthAdjust="spacing" textLength="132" x="27" y="68.2549">mode : const NetworkMode</text><line style="stroke:#A80036;stroke-width:1.5;" x1="8" x2="217" y1="74.6719" y2="74.6719"/><ellipse cx="18" cy="85.6719" fill="#84BE84" rx="3" ry="3" style="stroke:#038048;stroke-width:1.0;"/><text fill="#000000" font-family="sans-serif" font-size="11" lengthAdjust="spacing" textLength="125" x="27" y="90.0908">addSense(string, Sense*)</text><ellipse cx="18" cy="99.5078" fill="#84BE84" rx="3" ry="3" style="stroke:#038048;stroke-width:1.0;"/><text fill="#000000" font-family="sans-serif" font-size="11" lengthAdjust="spacing" textLength="45" x="27" y="103.9268">initialize()</text><!--MD5=[5f95fd246abcb98935eab69fa9f063ba]
class Sense--><rect codeLine="41" fill="#FEFECE" filter="url(#f1qqmeyocp8j27)" height="103.3438" id="Sense" style="stroke:#A80036;stroke-width:1.5;" width="137" x="44" y="170"/><ellipse cx="90.75" cy="186" fill="#B4A7E5" rx="11" ry="11" style="stroke:#A80036;stroke-width:1.0;"/><path d="M91.7031,182.6406 L91.7031,189.2969 L93.4219,189.2969 Q94.0313,189.2969 94.2969,189.5313 Q94.5625,189.7656 94.5625,190.1563 Q94.5625,190.5313 94.2969,190.7656 Q94.0313,191 93.4219,191 L88.2813,191 Q87.6719,191 87.4063,190.7656 Q87.1406,190.5313 87.1406,190.1406 Q87.1406,189.7656 87.4063,189.5313 Q87.6719,189.2969 88.2813,189.2969 L90,189.2969 L90,182.6406 L88.2813,182.6406 Q87.6719,182.6406 87.4063,182.4063 Q87.1406,182.1719 87.1406,181.7813 Q87.1406,181.4063 87.4063,181.1719 Q87.6719,180.9375 88.2813,180.9375 L93.4219,180.9375 Q94.0313,180.9375 94.2969,181.1719 Q94.5625,181.4063 94.5625,181.7813 Q94.5625,182.1719 94.2969,182.4063 Q94.0313,182.6406 93.4219,182.6406 L91.7031,182.6406 Z " fill="#000000"/><text fill="#000000" font-family="sans-serif" font-size="12" font-style="italic" lengthAdjust="spacing" textLength="35" x="111.25" y="190.9102">Sense</text><line style="stroke:#A80036;stroke-width:1.5;" x1="45" x2="180" y1="202" y2="202"/><line style="stroke:#A80036;stroke-width:1.5;" x1="45" x2="180" y1="210" y2="210"/><ellipse cx="55" cy="221" fill="#84BE84" rx="3" ry="3" style="stroke:#038048;stroke-width:1.0;"/><text fill="#000000" font-family="sans-serif" font-size="11" font-style="italic" lengthAdjust="spacing" textLength="83" x="64" y="225.4189">string getName()</text><ellipse cx="55" cy="234.8359" fill="#84BE84" rx="3" ry="3" style="stroke:#038048;stroke-width:1.0;"/><text fill="#000000" font-family="sans-serif" font-size="11" font-style="italic" lengthAdjust="spacing" textLength="111" x="64" y="239.2549">string getDescription()</text><ellipse cx="55" cy="248.6719" fill="#84BE84" rx="3" ry="3" style="stroke:#038048;stroke-width:1.0;"/><text fill="#000000" font-family="sans-serif" font-size="11" font-style="italic" lengthAdjust="spacing" textLength="53" x="64" y="253.0908">void start()</text><ellipse cx="55" cy="262.5078" fill="#84BE84" rx="3" ry="3" style="stroke:#038048;stroke-width:1.0;"/><text fill="#000000" font-family="sans-serif" font-size="11" font-style="italic" lengthAdjust="spacing" textLength="52" x="64" y="266.9268">void stop()</text><!--MD5=[50d3fe0b70dee75413f2a24abb80281c]
class EyeTracker--><rect codeLine="43" fill="#FEFECE" filter="url(#f1qqmeyocp8j27)" height="89.5078" id="EyeTracker" style="stroke:#A80036;stroke-width:1.5;" width="207" x="18" y="333"/><ellipse cx="85.75" cy="349" fill="#B4A7E5" rx="11" ry="11" style="stroke:#A80036;stroke-width:1.0;"/><path d="M86.7031,345.6406 L86.7031,352.2969 L88.4219,352.2969 Q89.0313,352.2969 89.2969,352.5313 Q89.5625,352.7656 89.5625,353.1563 Q89.5625,353.5313 89.2969,353.7656 Q89.0313,354 88.4219,354 L83.2813,354 Q82.6719,354 82.4063,353.7656 Q82.1406,353.5313 82.1406,353.1406 Q82.1406,352.7656 82.4063,352.5313 Q82.6719,352.2969 83.2813,352.2969 L85,352.2969 L85,345.6406 L83.2813,345.6406 Q82.6719,345.6406 82.4063,345.4063 Q82.1406,345.1719 82.1406,344.7813 Q82.1406,344.4063 82.4063,344.1719 Q82.6719,343.9375 83.2813,343.9375 L88.4219,343.9375 Q89.0313,343.9375 89.2969,344.1719 Q89.5625,344.4063 89.5625,344.7813 Q89.5625,345.1719 89.2969,345.4063 Q89.0313,345.6406 88.4219,345.6406 L86.7031,345.6406 Z " fill="#000000"/><text fill="#000000" font-family="sans-serif" font-size="12" font-style="italic" lengthAdjust="spacing" textLength="63" x="106.25" y="353.9102">EyeTracker</text><line style="stroke:#A80036;stroke-width:1.5;" x1="19" x2="224" y1="365" y2="365"/><line style="stroke:#A80036;stroke-width:1.5;" x1="19" x2="224" y1="373" y2="373"/><ellipse cx="29" cy="384" fill="#84BE84" rx="3" ry="3" style="stroke:#038048;stroke-width:1.0;"/><text fill="#000000" font-family="sans-serif" font-size="11" lengthAdjust="spacing" text-decoration="underline" textLength="101" x="38" y="388.4189">EyeTracker* create()</text><ellipse cx="29" cy="397.8359" fill="#84BE84" rx="3" ry="3" style="stroke:#038048;stroke-width:1.0;"/><text fill="#000000" font-family="sans-serif" font-size="11" font-style="italic" lengthAdjust="spacing" textLength="181" x="38" y="402.2549">EyePairStream openEyePairStream()</text><ellipse cx="29" cy="411.6719" fill="#84BE84" rx="3" ry="3" style="stroke:#038048;stroke-width:1.0;"/><text fill="#000000" font-family="sans-serif" font-size="11" font-style="italic" lengthAdjust="spacing" textLength="173" x="38" y="416.0908">void streamClosed(EyePairStream)</text><!--MD5=[75bf90c23d55b81d1cdb1202ad6f66a4]
class SR_eyePair--><rect codeLine="22" fill="#FEFECE" filter="url(#f1qqmeyocp8j27)" height="48" id="SR_eyePair" style="stroke:#A80036;stroke-width:1.5;" width="97" x="298" y="483"/><ellipse cx="313" cy="499" fill="#ADD1B2" rx="11" ry="11" style="stroke:#A80036;stroke-width:1.0;"/><path d="M315.7656,494.875 Q315.9219,494.6563 316.1094,494.5469 Q316.2969,494.4375 316.5156,494.4375 Q316.8906,494.4375 317.125,494.6953 Q317.3594,494.9531 317.3594,495.5625 L317.3594,497.0156 Q317.3594,497.625 317.125,497.8906 Q316.8906,498.1563 316.5156,498.1563 Q316.1719,498.1563 315.9688,497.9531 Q315.7656,497.7656 315.6563,497.25 Q315.6094,496.8906 315.4219,496.7031 Q315.0938,496.3281 314.4844,496.1094 Q313.875,495.8906 313.25,495.8906 Q312.4844,495.8906 311.8516,496.2188 Q311.2188,496.5469 310.7266,497.2969 Q310.2344,498.0469 310.2344,499.0781 L310.2344,500.1719 Q310.2344,501.4063 311.125,502.2266 Q312.0156,503.0469 313.6094,503.0469 Q314.5469,503.0469 315.2031,502.7969 Q315.5938,502.6406 316.0156,502.2031 Q316.2813,501.9375 316.4297,501.8594 Q316.5781,501.7813 316.7813,501.7813 Q317.1094,501.7813 317.3672,502.0391 Q317.625,502.2969 317.625,502.6406 Q317.625,502.9844 317.2813,503.3906 Q316.7813,503.9688 315.9844,504.2969 Q314.9063,504.75 313.6094,504.75 Q312.0938,504.75 310.8906,504.125 Q309.9063,503.625 309.2188,502.5547 Q308.5313,501.4844 308.5313,500.2031 L308.5313,499.0469 Q308.5313,497.7188 309.1484,496.5703 Q309.7656,495.4219 310.8594,494.8047 Q311.9531,494.1875 313.1875,494.1875 Q313.9219,494.1875 314.5703,494.3516 Q315.2188,494.5156 315.7656,494.875 Z " fill="#000000"/><text fill="#000000" font-family="sans-serif" font-size="12" lengthAdjust="spacing" textLength="65" x="327" y="503.9102">SR_eyePair</text><line style="stroke:#A80036;stroke-width:1.5;" x1="299" x2="394" y1="515" y2="515"/><line style="stroke:#A80036;stroke-width:1.5;" x1="299" x2="394" y1="523" y2="523"/><!--MD5=[8de22734af2210ba6794a57a35526c3b]
class EyePairStream--><rect codeLine="25" fill="#FEFECE" filter="url(#f1qqmeyocp8j27)" height="89.5078" id="EyePairStream" style="stroke:#A80036;stroke-width:1.5;" width="145" x="216" y="176.5"/><ellipse cx="244.95" cy="192.5" fill="#ADD1B2" rx="11" ry="11" style="stroke:#A80036;stroke-width:1.0;"/><path d="M247.7156,188.375 Q247.8719,188.1563 248.0594,188.0469 Q248.2469,187.9375 248.4656,187.9375 Q248.8406,187.9375 249.075,188.1953 Q249.3094,188.4531 249.3094,189.0625 L249.3094,190.5156 Q249.3094,191.125 249.075,191.3906 Q248.8406,191.6563 248.4656,191.6563 Q248.1219,191.6563 247.9188,191.4531 Q247.7156,191.2656 247.6063,190.75 Q247.5594,190.3906 247.3719,190.2031 Q247.0438,189.8281 246.4344,189.6094 Q245.825,189.3906 245.2,189.3906 Q244.4344,189.3906 243.8016,189.7188 Q243.1688,190.0469 242.6766,190.7969 Q242.1844,191.5469 242.1844,192.5781 L242.1844,193.6719 Q242.1844,194.9063 243.075,195.7266 Q243.9656,196.5469 245.5594,196.5469 Q246.4969,196.5469 247.1531,196.2969 Q247.5438,196.1406 247.9656,195.7031 Q248.2313,195.4375 248.3797,195.3594 Q248.5281,195.2813 248.7313,195.2813 Q249.0594,195.2813 249.3172,195.5391 Q249.575,195.7969 249.575,196.1406 Q249.575,196.4844 249.2313,196.8906 Q248.7313,197.4688 247.9344,197.7969 Q246.8563,198.25 245.5594,198.25 Q244.0438,198.25 242.8406,197.625 Q241.8563,197.125 241.1688,196.0547 Q240.4813,194.9844 240.4813,193.7031 L240.4813,192.5469 Q240.4813,191.2188 241.0984,190.0703 Q241.7156,188.9219 242.8094,188.3047 Q243.9031,187.6875 245.1375,187.6875 Q245.8719,187.6875 246.5203,187.8516 Q247.1688,188.0156 247.7156,188.375 Z " fill="#000000"/><text fill="#000000" font-family="sans-serif" font-size="12" lengthAdjust="spacing" textLength="82" x="262.05" y="197.4102">EyePairStream</text><line style="stroke:#A80036;stroke-width:1.5;" x1="217" x2="360" y1="208.5" y2="208.5"/><rect fill="none" height="6" style="stroke:#C82930;stroke-width:1.0;" width="6" x="224" y="216.5"/><text fill="#000000" font-family="sans-serif" font-size="11" lengthAdjust="spacing" textLength="98" x="236" y="223.9189">sender : EyeTracker</text><rect fill="none" height="6" style="stroke:#C82930;stroke-width:1.0;" width="6" x="224" y="230.3359"/><text fill="#000000" font-family="sans-serif" font-size="11" lengthAdjust="spacing" textLength="119" x="236" y="237.7549">listener : EyePairListener</text><line style="stroke:#A80036;stroke-width:1.5;" x1="217" x2="360" y1="244.1719" y2="244.1719"/><ellipse cx="227" cy="255.1719" fill="#84BE84" rx="3" ry="3" style="stroke:#038048;stroke-width:1.0;"/><text fill="#000000" font-family="sans-serif" font-size="11" lengthAdjust="spacing" textLength="97" x="236" y="259.5908">update(SR_eyePair)</text><!--MD5=[ef0f185e0fc4e6775fba50fb0281c545]
class EyePairListener--><rect codeLine="34" fill="#FEFECE" filter="url(#f1qqmeyocp8j27)" height="61.8359" id="EyePairListener" style="stroke:#A80036;stroke-width:1.5;" width="148" x="336.5" y="347"/><ellipse cx="364.55" cy="363" fill="#B4A7E5" rx="11" ry="11" style="stroke:#A80036;stroke-width:1.0;"/><path d="M365.5031,359.6406 L365.5031,366.2969 L367.2219,366.2969 Q367.8313,366.2969 368.0969,366.5313 Q368.3625,366.7656 368.3625,367.1563 Q368.3625,367.5313 368.0969,367.7656 Q367.8313,368 367.2219,368 L362.0813,368 Q361.4719,368 361.2063,367.7656 Q360.9406,367.5313 360.9406,367.1406 Q360.9406,366.7656 361.2063,366.5313 Q361.4719,366.2969 362.0813,366.2969 L363.8,366.2969 L363.8,359.6406 L362.0813,359.6406 Q361.4719,359.6406 361.2063,359.4063 Q360.9406,359.1719 360.9406,358.7813 Q360.9406,358.4063 361.2063,358.1719 Q361.4719,357.9375 362.0813,357.9375 L367.2219,357.9375 Q367.8313,357.9375 368.0969,358.1719 Q368.3625,358.4063 368.3625,358.7813 Q368.3625,359.1719 368.0969,359.4063 Q367.8313,359.6406 367.2219,359.6406 L365.5031,359.6406 Z " fill="#000000"/><text fill="#000000" font-family="sans-serif" font-size="12" font-style="italic" lengthAdjust="spacing" textLength="87" x="381.45" y="367.9102">EyePairListener</text><line style="stroke:#A80036;stroke-width:1.5;" x1="337.5" x2="483.5" y1="379" y2="379"/><line style="stroke:#A80036;stroke-width:1.5;" x1="337.5" x2="483.5" y1="387" y2="387"/><ellipse cx="347.5" cy="398" fill="#84BE84" rx="3" ry="3" style="stroke:#038048;stroke-width:1.0;"/><text fill="#000000" font-family="sans-serif" font-size="11" font-style="italic" lengthAdjust="spacing" textLength="122" x="356.5" y="402.4189">void accept(SR_eyePair)</text><!--MD5=[f8c8d6d08002fdad0e5baad483cc7720]
link EyePairStream to SR_eyePair--><path codeLine="30" d="M292.84,266.74 C297.4,307.65 305.69,369.97 318.5,423 C323,441.62 329.85,462.01 335.65,477.93 " fill="none" id="EyePairStream-to-SR_eyePair" style="stroke:#A80036;stroke-width:1.0;stroke-dasharray:7.0,7.0;"/><polygon fill="#A80036" points="337.41,482.71,338.0743,472.8836,335.6921,478.0144,330.5613,475.6322,337.41,482.71" style="stroke:#A80036;stroke-width:1.0;"/><!--MD5=[bb3ae1b7d59436ed550b43a70d4e6949]
link EyePairStream to EyeTracker--><path codeLine="31" d="M240.64,266.77 C219.42,286.41 194.4,309.55 172.79,329.55 " fill="none" id="EyePairStream-to-EyeTracker" style="stroke:#A80036;stroke-width:1.0;"/><polygon fill="#A80036" points="169.07,332.99,178.3979,329.8292,172.7457,329.6004,172.9745,323.9482,169.07,332.99" style="stroke:#A80036;stroke-width:1.0;"/><text fill="#000000" font-family="sans-serif" font-size="13" lengthAdjust="spacing" textLength="7" x="226.7385" y="287.48">1</text><text fill="#000000" font-family="sans-serif" font-size="13" lengthAdjust="spacing" textLength="7" x="169.0937" y="322.1039">1</text><!--MD5=[9e18a253eff87a6328585bee082ab6fc]
reverse link EyePairStream to EyePairListener--><path codeLine="32" d="M331.76,277.29 C350.26,300.71 371.13,327.15 386.74,346.91 " fill="none" id="EyePairStream-backto-EyePairListener" style="stroke:#A80036;stroke-width:1.0;"/><polygon fill="#FFFFFF" points="323.46,266.77,324.0403,273.9577,330.8983,276.1866,330.318,268.9989,323.46,266.77" style="stroke:#A80036;stroke-width:1.0;"/><text fill="#000000" font-family="sans-serif" font-size="13" lengthAdjust="spacing" textLength="7" x="320.6874" y="287.48">0</text><text fill="#000000" font-family="sans-serif" font-size="13" lengthAdjust="spacing" textLength="7" x="373.7769" y="335.9106">1</text><!--MD5=[6aa0c9607b481bd4d3b23340755ce77a]
link EyePairListener to SR_eyePair--><path codeLine="37" d="M395.33,409.1 C384.75,430.1 370.73,457.92 360.43,478.36 " fill="none" id="EyePairListener-to-SR_eyePair" style="stroke:#A80036;stroke-width:1.0;stroke-dasharray:7.0,7.0;"/><polygon fill="#A80036" points="358.16,482.87,365.7706,476.6187,360.4018,478.4007,358.6198,473.0319,358.16,482.87" style="stroke:#A80036;stroke-width:1.0;"/><!--MD5=[bf557abcdd4c5b1dcf2fbba6b59eb203]
reverse link SRContext to Sense--><path codeLine="42" d="M112.5,123.67 C112.5,139.04 112.5,155.23 112.5,169.89 " fill="none" id="SRContext-backto-Sense" style="stroke:#A80036;stroke-width:1.0;"/><polygon fill="#A80036" points="112.5,110.44,108.5,116.44,112.5,122.44,116.5,116.44,112.5,110.44" style="stroke:#A80036;stroke-width:1.0;"/><text fill="#000000" font-family="sans-serif" font-size="13" lengthAdjust="spacing" textLength="7" x="105.0297" y="131.9901">0</text><text fill="#000000" font-family="sans-serif" font-size="13" lengthAdjust="spacing" textLength="5" x="107.1484" y="159.003">*</text><!--MD5=[3110360abc8fa4694b4c4099e9d140a7]
reverse link Sense to EyeTracker--><path codeLine="44" d="M116.62,293.15 C117.4,306.65 118.2,320.42 118.92,332.79 " fill="none" id="Sense-backto-EyeTracker" style="stroke:#A80036;stroke-width:1.0;"/><polygon fill="none" points="109.62,293.46,115.45,273.09,123.6,292.65,109.62,293.46" style="stroke:#A80036;stroke-width:1.0;"/><!--MD5=[72feacb9b1cdda3d132e20af4b3f4538]
@startuml

class SRContext {
   -senses: map<string, vector<Sense*>>
   +mode : const NetworkMode
   +addSense(string, Sense*)
   +initialize()
}

class Sense {
    +{abstract} string getName()
    +{abstract} string getDescription()
    +{abstract} void start()
    +{abstract} void stop()
}

class EyeTracker {
    +{static} EyeTracker* create()
    +{abstract} EyePairStream openEyePairStream()
    +{abstract} void streamClosed(EyePairStream)
}

class SR_eyePair {
}

class EyePairStream {
    -sender : EyeTracker
    -listener : EyePairListener
    +update(SR_eyePair)
}
EyePairStream ..> SR_eyePair
EyePairStream "1" - -> "1" EyeTracker
EyePairStream "0" o- - "1" EyePairListener

Interface EyePairListener {
    +{abstract} void accept(SR_eyePair)
}
EyePairListener ..> SR_eyePair



Interface Sense
SRContext "0" *- - "*" Sense
Interface EyeTracker
Sense <|- - EyeTracker







@enduml

PlantUML version 1.2021.2(Sun Mar 07 12:10:27 CET 2021)
(GPL source distribution)
Java Runtime: Java(TM) SE Runtime Environment
JVM: Java HotSpot(TM) Client VM
Default Encoding: Cp1252
Language: en
Country: US
--></g></svg>