<?xml version="1.0" encoding="UTF-8" standalone="no"?>
<!DOCTYPE svg PUBLIC "-//W3C//DTD SVG 1.1//EN"
 "http://www.w3.org/Graphics/SVG/1.1/DTD/svg11.dtd">
<!-- Generated by graphviz version 2.38.0 (20140413.2041)
 -->
<!-- Title: eyetracker.h Pages: 1 -->
<svg width="974pt" height="308pt"
 viewBox="0.00 0.00 974.26 308.00" xmlns="http://www.w3.org/2000/svg" xmlns:xlink="http://www.w3.org/1999/xlink">
<g id="graph0" class="graph" transform="scale(1 1) rotate(0) translate(4 304)">
<title>eyetracker.h</title>
<!-- Node1 -->
<g id="node1" class="node"><title>Node1</title>
<g id="a_node1"><a xlink:title=" ">
<polygon fill="#bfbfbf" stroke="black" points="221.764,-280.5 221.764,-299.5 292.764,-299.5 292.764,-280.5 221.764,-280.5"/>
<text text-anchor="middle" x="257.264" y="-287.5" font-family="Helvetica,sans-Serif" font-size="10.00">eyetracker.h</text>
</a>
</g>
</g>
<!-- Node2 -->
<g id="node2" class="node"><title>Node2</title>
<g id="a_node2"><a xlink:title=" ">
<polygon fill="none" stroke="#bfbfbf" points="304.764,-168.5 304.764,-187.5 339.764,-187.5 339.764,-168.5 304.764,-168.5"/>
<text text-anchor="middle" x="322.264" y="-175.5" font-family="Helvetica,sans-Serif" font-size="10.00">map</text>
</a>
</g>
</g>
<!-- Node1&#45;&gt;Node2 -->
<g id="edge1" class="edge"><title>Node1&#45;&gt;Node2</title>
<path fill="none" stroke="midnightblue" d="M264.314,-280.353C271.345,-271.519 282.226,-257.254 290.264,-244 299.527,-228.724 308.361,-210.391 314.392,-197.095"/>
<polygon fill="midnightblue" stroke="midnightblue" points="317.719,-198.226 318.581,-187.666 311.322,-195.383 317.719,-198.226"/>
</g>
<!-- Node3 -->
<g id="node3" class="node"><title>Node3</title>
<g id="a_node3"><a xlink:title=" ">
<polygon fill="none" stroke="#bfbfbf" points="251.264,-112.5 251.264,-131.5 295.264,-131.5 295.264,-112.5 251.264,-112.5"/>
<text text-anchor="middle" x="273.264" y="-119.5" font-family="Helvetica,sans-Serif" font-size="10.00">thread</text>
</a>
</g>
</g>
<!-- Node1&#45;&gt;Node3 -->
<g id="edge2" class="edge"><title>Node1&#45;&gt;Node3</title>
<path fill="none" stroke="midnightblue" d="M257.037,-280.439C256.638,-260.573 256.345,-209.843 262.264,-168 263.518,-159.131 265.763,-149.462 267.899,-141.367"/>
<polygon fill="midnightblue" stroke="midnightblue" points="271.328,-142.101 270.642,-131.528 264.585,-140.221 271.328,-142.101"/>
</g>
<!-- Node4 -->
<g id="node4" class="node"><title>Node4</title>
<g id="a_node4"><a xlink:title=" ">
<polygon fill="none" stroke="#bfbfbf" points="323.264,-112.5 323.264,-131.5 367.264,-131.5 367.264,-112.5 323.264,-112.5"/>
<text text-anchor="middle" x="345.264" y="-119.5" font-family="Helvetica,sans-Serif" font-size="10.00">mutex</text>
</a>
</g>
</g>
<!-- Node1&#45;&gt;Node4 -->
<g id="edge3" class="edge"><title>Node1&#45;&gt;Node4</title>
<path fill="none" stroke="midnightblue" d="M258.369,-280.424C261.364,-259.655 271.101,-205.603 295.264,-168 302.859,-156.179 314.359,-145.53 324.416,-137.562"/>
<polygon fill="midnightblue" stroke="midnightblue" points="326.532,-140.35 332.406,-131.533 322.316,-134.762 326.532,-140.35"/>
</g>
<!-- Node5 -->
<g id="node5" class="node"><title>Node5</title>
<g id="a_node5"><a xlink:href="eyepair_8h.html" target="_top" xlink:title=" ">
<polygon fill="none" stroke="black" points="172.264,-112.5 172.264,-131.5 228.264,-131.5 228.264,-112.5 172.264,-112.5"/>
<text text-anchor="middle" x="200.264" y="-119.5" font-family="Helvetica,sans-Serif" font-size="10.00">eyepair.h</text>
</a>
</g>
</g>
<!-- Node1&#45;&gt;Node5 -->
<g id="edge4" class="edge"><title>Node1&#45;&gt;Node5</title>
<path fill="none" stroke="midnightblue" d="M254.199,-280.075C245.188,-253.832 218.65,-176.545 206.484,-141.117"/>
<polygon fill="midnightblue" stroke="midnightblue" points="209.764,-139.889 203.206,-131.568 203.143,-142.163 209.764,-139.889"/>
</g>
<!-- Node8 -->
<g id="node8" class="node"><title>Node8</title>
<g id="a_node8"><a xlink:href="eyepairstream_8h.html" target="_top" xlink:title=" ">
<polygon fill="none" stroke="black" points="51.2637,-224.5 51.2637,-243.5 137.264,-243.5 137.264,-224.5 51.2637,-224.5"/>
<text text-anchor="middle" x="94.2637" y="-231.5" font-family="Helvetica,sans-Serif" font-size="10.00">eyepairstream.h</text>
</a>
</g>
</g>
<!-- Node1&#45;&gt;Node8 -->
<g id="edge8" class="edge"><title>Node1&#45;&gt;Node8</title>
<path fill="none" stroke="midnightblue" d="M231.436,-280.444C204.014,-271.359 160.486,-256.939 129.831,-246.783"/>
<polygon fill="midnightblue" stroke="midnightblue" points="130.564,-243.339 119.971,-243.516 128.363,-249.984 130.564,-243.339"/>
</g>
<!-- Node11 -->
<g id="node11" class="node"><title>Node11</title>
<g id="a_node11"><a xlink:href="srcontext_8h.html" target="_top" xlink:title=" ">
<polygon fill="none" stroke="black" points="503.264,-224.5 503.264,-243.5 639.264,-243.5 639.264,-224.5 503.264,-224.5"/>
<text text-anchor="middle" x="571.264" y="-231.5" font-family="Helvetica,sans-Serif" font-size="10.00">sr/management/srcontext.h</text>
</a>
</g>
</g>
<!-- Node1&#45;&gt;Node11 -->
<g id="edge13" class="edge"><title>Node1&#45;&gt;Node11</title>
<path fill="none" stroke="midnightblue" d="M292.978,-282.858C346.227,-273.7 447.072,-256.358 511.628,-245.256"/>
<polygon fill="midnightblue" stroke="midnightblue" points="512.402,-248.674 521.664,-243.53 511.216,-241.775 512.402,-248.674"/>
</g>
<!-- Node6 -->
<g id="node6" class="node"><title>Node6</title>
<g id="a_node6"><a xlink:href="types_8h.html" target="_top" xlink:title=" ">
<polygon fill="none" stroke="black" points="421.264,-56.5 421.264,-75.5 481.264,-75.5 481.264,-56.5 421.264,-56.5"/>
<text text-anchor="middle" x="451.264" y="-63.5" font-family="Helvetica,sans-Serif" font-size="10.00">sr/types.h</text>
</a>
</g>
</g>
<!-- Node5&#45;&gt;Node6 -->
<g id="edge5" class="edge"><title>Node5&#45;&gt;Node6</title>
<path fill="none" stroke="midnightblue" d="M228.569,-114.91C273.188,-105.311 360.042,-86.6253 411.099,-75.6411"/>
<polygon fill="midnightblue" stroke="midnightblue" points="412.076,-79.011 421.116,-73.486 410.603,-72.1676 412.076,-79.011"/>
</g>
<!-- Node7 -->
<g id="node7" class="node"><title>Node7</title>
<g id="a_node7"><a xlink:title=" ">
<polygon fill="none" stroke="#bfbfbf" points="426.764,-0.5 426.764,-19.5 475.764,-19.5 475.764,-0.5 426.764,-0.5"/>
<text text-anchor="middle" x="451.264" y="-7.5" font-family="Helvetica,sans-Serif" font-size="10.00">stdint.h</text>
</a>
</g>
</g>
<!-- Node5&#45;&gt;Node7 -->
<g id="edge7" class="edge"><title>Node5&#45;&gt;Node7</title>
<path fill="none" stroke="midnightblue" d="M219.959,-112.368C264.039,-93.0507 370.809,-46.2592 422.403,-23.6481"/>
<polygon fill="midnightblue" stroke="midnightblue" points="423.905,-26.8111 431.66,-19.5914 421.096,-20.3997 423.905,-26.8111"/>
</g>
<!-- Node6&#45;&gt;Node7 -->
<g id="edge6" class="edge"><title>Node6&#45;&gt;Node7</title>
<path fill="none" stroke="midnightblue" d="M451.264,-56.083C451.264,-49.0059 451.264,-38.8611 451.264,-29.9865"/>
<polygon fill="midnightblue" stroke="midnightblue" points="454.764,-29.751 451.264,-19.7511 447.764,-29.7511 454.764,-29.751"/>
</g>
<!-- Node8&#45;&gt;Node5 -->
<g id="edge9" class="edge"><title>Node8&#45;&gt;Node5</title>
<path fill="none" stroke="midnightblue" d="M63.7316,-224.445C30.6362,-213.647 -14.9265,-193.38 5.26368,-168 24.4876,-143.834 111.029,-131.532 162.136,-126.269"/>
<polygon fill="midnightblue" stroke="midnightblue" points="162.553,-129.745 172.161,-125.28 161.865,-122.779 162.553,-129.745"/>
</g>
<!-- Node9 -->
<g id="node9" class="node"><title>Node9</title>
<g id="a_node9"><a xlink:href="eyepairlistener_8h.html" target="_top" xlink:title=" ">
<polygon fill="none" stroke="black" points="14.2637,-168.5 14.2637,-187.5 102.264,-187.5 102.264,-168.5 14.2637,-168.5"/>
<text text-anchor="middle" x="58.2637" y="-175.5" font-family="Helvetica,sans-Serif" font-size="10.00">eyepairlistener.h</text>
</a>
</g>
</g>
<!-- Node8&#45;&gt;Node9 -->
<g id="edge10" class="edge"><title>Node8&#45;&gt;Node9</title>
<path fill="none" stroke="midnightblue" d="M88.319,-224.083C83.2864,-216.534 75.9269,-205.495 69.7502,-196.23"/>
<polygon fill="midnightblue" stroke="midnightblue" points="72.557,-194.13 64.0977,-187.751 66.7326,-198.013 72.557,-194.13"/>
</g>
<!-- Node10 -->
<g id="node10" class="node"><title>Node10</title>
<g id="a_node10"><a xlink:title=" ">
<polygon fill="none" stroke="#bfbfbf" points="120.264,-168.5 120.264,-187.5 172.264,-187.5 172.264,-168.5 120.264,-168.5"/>
<text text-anchor="middle" x="146.264" y="-175.5" font-family="Helvetica,sans-Serif" font-size="10.00">memory</text>
</a>
</g>
</g>
<!-- Node8&#45;&gt;Node10 -->
<g id="edge12" class="edge"><title>Node8&#45;&gt;Node10</title>
<path fill="none" stroke="midnightblue" d="M102.85,-224.083C110.423,-216.22 121.642,-204.569 130.778,-195.081"/>
<polygon fill="midnightblue" stroke="midnightblue" points="133.421,-197.382 137.837,-187.751 128.379,-192.527 133.421,-197.382"/>
</g>
<!-- Node9&#45;&gt;Node5 -->
<g id="edge11" class="edge"><title>Node9&#45;&gt;Node5</title>
<path fill="none" stroke="midnightblue" d="M80.764,-168.444C104.341,-159.478 141.586,-145.314 168.228,-135.183"/>
<polygon fill="midnightblue" stroke="midnightblue" points="169.766,-138.342 177.869,-131.516 167.278,-131.8 169.766,-138.342"/>
</g>
<!-- Node11&#45;&gt;Node2 -->
<g id="edge15" class="edge"><title>Node11&#45;&gt;Node2</title>
<path fill="none" stroke="midnightblue" d="M518.983,-224.495C475.715,-216.995 412.532,-204.985 349.491,-188.067"/>
<polygon fill="midnightblue" stroke="midnightblue" points="350.354,-184.675 339.786,-185.423 348.514,-191.429 350.354,-184.675"/>
</g>
<!-- Node12 -->
<g id="node12" class="node"><title>Node12</title>
<g id="a_node12"><a xlink:title=" ">
<polygon fill="none" stroke="#bfbfbf" points="488.764,-112.5 488.764,-131.5 529.764,-131.5 529.764,-112.5 488.764,-112.5"/>
<text text-anchor="middle" x="509.264" y="-119.5" font-family="Helvetica,sans-Serif" font-size="10.00">string</text>
</a>
</g>
</g>
<!-- Node11&#45;&gt;Node12 -->
<g id="edge14" class="edge"><title>Node11&#45;&gt;Node12</title>
<path fill="none" stroke="midnightblue" d="M603.057,-224.496C636.508,-213.948 681.805,-194.116 662.264,-168 654.793,-158.016 582.073,-139.8 539.634,-129.881"/>
<polygon fill="midnightblue" stroke="midnightblue" points="540.339,-126.452 529.807,-127.607 538.76,-133.272 540.339,-126.452"/>
</g>
<!-- Node13 -->
<g id="node13" class="node"><title>Node13</title>
<g id="a_node13"><a xlink:href="sense_8h.html" target="_top" xlink:title=" ">
<polygon fill="none" stroke="black" points="357.764,-168.5 357.764,-187.5 470.764,-187.5 470.764,-168.5 357.764,-168.5"/>
<text text-anchor="middle" x="414.264" y="-175.5" font-family="Helvetica,sans-Serif" font-size="10.00">sr/sense/core/sense.h</text>
</a>
</g>
</g>
<!-- Node11&#45;&gt;Node13 -->
<g id="edge16" class="edge"><title>Node11&#45;&gt;Node13</title>
<path fill="none" stroke="midnightblue" d="M546.387,-224.444C519.974,-215.359 478.049,-200.939 448.522,-190.783"/>
<polygon fill="midnightblue" stroke="midnightblue" points="449.619,-187.459 439.024,-187.516 447.342,-194.079 449.619,-187.459"/>
</g>
<!-- Node17 -->
<g id="node17" class="node"><title>Node17</title>
<g id="a_node17"><a xlink:href="worldobject_8h.html" target="_top" xlink:title=" ">
<polygon fill="none" stroke="black" points="710.264,-168.5 710.264,-187.5 820.264,-187.5 820.264,-168.5 710.264,-168.5"/>
<text text-anchor="middle" x="765.264" y="-175.5" font-family="Helvetica,sans-Serif" font-size="10.00">sr/world/worldobject.h</text>
</a>
</g>
</g>
<!-- Node11&#45;&gt;Node17 -->
<g id="edge24" class="edge"><title>Node11&#45;&gt;Node17</title>
<path fill="none" stroke="midnightblue" d="M602.004,-224.444C635.208,-215.201 688.254,-200.436 724.821,-190.257"/>
<polygon fill="midnightblue" stroke="midnightblue" points="725.972,-193.57 734.668,-187.516 724.095,-186.826 725.972,-193.57"/>
</g>
<!-- Node19 -->
<g id="node19" class="node"><title>Node19</title>
<g id="a_node19"><a xlink:href="networkinterface_8h.html" target="_top" xlink:title=" ">
<polygon fill="none" stroke="black" points="488.764,-168.5 488.764,-187.5 653.764,-187.5 653.764,-168.5 488.764,-168.5"/>
<text text-anchor="middle" x="571.264" y="-175.5" font-family="Helvetica,sans-Serif" font-size="10.00">sr/network/core/networkinterface.h</text>
</a>
</g>
</g>
<!-- Node11&#45;&gt;Node19 -->
<g id="edge28" class="edge"><title>Node11&#45;&gt;Node19</title>
<path fill="none" stroke="midnightblue" d="M571.264,-224.083C571.264,-217.006 571.264,-206.861 571.264,-197.986"/>
<polygon fill="midnightblue" stroke="midnightblue" points="574.764,-197.751 571.264,-187.751 567.764,-197.751 574.764,-197.751"/>
</g>
<!-- Node20 -->
<g id="node20" class="node"><title>Node20</title>
<g id="a_node20"><a xlink:href="receiver_8h.html" target="_top" xlink:title=" ">
<polygon fill="none" stroke="black" points="838.264,-168.5 838.264,-187.5 966.264,-187.5 966.264,-168.5 838.264,-168.5"/>
<text text-anchor="middle" x="902.264" y="-175.5" font-family="Helvetica,sans-Serif" font-size="10.00">sr/network/core/receiver.h</text>
</a>
</g>
</g>
<!-- Node11&#45;&gt;Node20 -->
<g id="edge29" class="edge"><title>Node11&#45;&gt;Node20</title>
<path fill="none" stroke="midnightblue" d="M623.712,-224.444C682.422,-214.865 777.492,-199.356 839.946,-189.167"/>
<polygon fill="midnightblue" stroke="midnightblue" points="840.755,-192.581 850.061,-187.516 839.628,-185.672 840.755,-192.581"/>
</g>
<!-- Node13&#45;&gt;Node3 -->
<g id="edge19" class="edge"><title>Node13&#45;&gt;Node3</title>
<path fill="none" stroke="midnightblue" d="M391.922,-168.444C368.511,-159.478 331.528,-145.314 305.074,-135.183"/>
<polygon fill="midnightblue" stroke="midnightblue" points="306.091,-131.824 295.501,-131.516 303.588,-138.361 306.091,-131.824"/>
</g>
<!-- Node13&#45;&gt;Node4 -->
<g id="edge20" class="edge"><title>Node13&#45;&gt;Node4</title>
<path fill="none" stroke="midnightblue" d="M403.178,-168.324C392.778,-160.185 377.003,-147.839 364.542,-138.087"/>
<polygon fill="midnightblue" stroke="midnightblue" points="366.584,-135.241 356.551,-131.834 362.269,-140.753 366.584,-135.241"/>
</g>
<!-- Node13&#45;&gt;Node12 -->
<g id="edge17" class="edge"><title>Node13&#45;&gt;Node12</title>
<path fill="none" stroke="midnightblue" d="M429.527,-168.324C444.485,-159.822 467.518,-146.729 484.99,-136.797"/>
<polygon fill="midnightblue" stroke="midnightblue" points="487.074,-139.639 494.038,-131.655 483.615,-133.553 487.074,-139.639"/>
</g>
<!-- Node14 -->
<g id="node14" class="node"><title>Node14</title>
<g id="a_node14"><a xlink:title=" ">
<polygon fill="none" stroke="#bfbfbf" points="391.264,-112.5 391.264,-131.5 437.264,-131.5 437.264,-112.5 391.264,-112.5"/>
<text text-anchor="middle" x="414.264" y="-119.5" font-family="Helvetica,sans-Serif" font-size="10.00">chrono</text>
</a>
</g>
</g>
<!-- Node13&#45;&gt;Node14 -->
<g id="edge18" class="edge"><title>Node13&#45;&gt;Node14</title>
<path fill="none" stroke="midnightblue" d="M414.264,-168.083C414.264,-161.006 414.264,-150.861 414.264,-141.986"/>
<polygon fill="midnightblue" stroke="midnightblue" points="417.764,-141.751 414.264,-131.751 410.764,-141.751 417.764,-141.751"/>
</g>
<!-- Node15 -->
<g id="node15" class="node"><title>Node15</title>
<g id="a_node15"><a xlink:href="transformation_8h.html" target="_top" xlink:title=" ">
<polygon fill="none" stroke="black" points="561.264,-112.5 561.264,-131.5 647.264,-131.5 647.264,-112.5 561.264,-112.5"/>
<text text-anchor="middle" x="604.264" y="-119.5" font-family="Helvetica,sans-Serif" font-size="10.00">transformation.h</text>
</a>
</g>
</g>
<!-- Node13&#45;&gt;Node15 -->
<g id="edge21" class="edge"><title>Node13&#45;&gt;Node15</title>
<path fill="none" stroke="midnightblue" d="M444.37,-168.444C476.889,-159.201 528.842,-144.436 564.655,-134.257"/>
<polygon fill="midnightblue" stroke="midnightblue" points="565.636,-137.617 574.298,-131.516 563.723,-130.884 565.636,-137.617"/>
</g>
<!-- Node15&#45;&gt;Node6 -->
<g id="edge23" class="edge"><title>Node15&#45;&gt;Node6</title>
<path fill="none" stroke="midnightblue" d="M580.02,-112.444C554.393,-103.399 513.778,-89.064 485.025,-78.9158"/>
<polygon fill="midnightblue" stroke="midnightblue" points="485.988,-75.5442 475.394,-75.5164 483.659,-82.1452 485.988,-75.5442"/>
</g>
<!-- Node16 -->
<g id="node16" class="node"><title>Node16</title>
<g id="a_node16"><a xlink:title=" ">
<polygon fill="none" stroke="#bfbfbf" points="565.264,-56.5 565.264,-75.5 669.264,-75.5 669.264,-56.5 565.264,-56.5"/>
<text text-anchor="middle" x="617.264" y="-63.5" font-family="Helvetica,sans-Serif" font-size="10.00">opencv2/opencv.hpp</text>
</a>
</g>
</g>
<!-- Node15&#45;&gt;Node16 -->
<g id="edge22" class="edge"><title>Node15&#45;&gt;Node16</title>
<path fill="none" stroke="midnightblue" d="M606.41,-112.083C608.133,-104.927 610.611,-94.6353 612.764,-85.6911"/>
<polygon fill="midnightblue" stroke="midnightblue" points="616.219,-86.2925 615.157,-75.7511 609.414,-84.6541 616.219,-86.2925"/>
</g>
<!-- Node17&#45;&gt;Node15 -->
<g id="edge27" class="edge"><title>Node17&#45;&gt;Node15</title>
<path fill="none" stroke="midnightblue" d="M739.753,-168.444C712.668,-159.359 669.674,-144.939 639.395,-134.783"/>
<polygon fill="midnightblue" stroke="midnightblue" points="640.249,-131.378 629.655,-131.516 638.023,-138.015 640.249,-131.378"/>
</g>
<!-- Node17&#45;&gt;Node16 -->
<g id="edge26" class="edge"><title>Node17&#45;&gt;Node16</title>
<path fill="none" stroke="midnightblue" d="M765.136,-168.189C764.46,-154.401 761.163,-127.684 746.264,-112 728.603,-93.4098 702.854,-82.4957 678.997,-76.0898"/>
<polygon fill="midnightblue" stroke="midnightblue" points="679.817,-72.6873 669.27,-73.6905 678.141,-79.4836 679.817,-72.6873"/>
</g>
<!-- Node18 -->
<g id="node18" class="node"><title>Node18</title>
<g id="a_node18"><a xlink:title=" ">
<polygon fill="none" stroke="#bfbfbf" points="695.264,-112.5 695.264,-131.5 737.264,-131.5 737.264,-112.5 695.264,-112.5"/>
<text text-anchor="middle" x="716.264" y="-119.5" font-family="Helvetica,sans-Serif" font-size="10.00">vector</text>
</a>
</g>
</g>
<!-- Node17&#45;&gt;Node18 -->
<g id="edge25" class="edge"><title>Node17&#45;&gt;Node18</title>
<path fill="none" stroke="midnightblue" d="M757.172,-168.083C750.108,-160.298 739.676,-148.801 731.115,-139.367"/>
<polygon fill="midnightblue" stroke="midnightblue" points="733.516,-136.805 724.204,-131.751 728.332,-141.509 733.516,-136.805"/>
</g>
<!-- Node21 -->
<g id="node21" class="node"><title>Node21</title>
<g id="a_node21"><a xlink:href="packet_8h.html" target="_top" xlink:title=" ">
<polygon fill="none" stroke="black" points="802.264,-112.5 802.264,-131.5 856.264,-131.5 856.264,-112.5 802.264,-112.5"/>
<text text-anchor="middle" x="829.264" y="-119.5" font-family="Helvetica,sans-Serif" font-size="10.00">packet.h</text>
</a>
</g>
</g>
<!-- Node20&#45;&gt;Node21 -->
<g id="edge30" class="edge"><title>Node20&#45;&gt;Node21</title>
<path fill="none" stroke="midnightblue" d="M890.535,-168.324C879.426,-160.107 862.522,-147.602 849.28,-137.807"/>
<polygon fill="midnightblue" stroke="midnightblue" points="851.327,-134.967 841.206,-131.834 847.164,-140.595 851.327,-134.967"/>
</g>
<!-- Node21&#45;&gt;Node7 -->
<g id="edge31" class="edge"><title>Node21&#45;&gt;Node7</title>
<path fill="none" stroke="midnightblue" d="M812.498,-112.387C785.091,-98.6309 728.689,-71.6589 678.264,-56 611.661,-35.3174 531.012,-21.9934 485.988,-15.558"/>
<polygon fill="midnightblue" stroke="midnightblue" points="486.26,-12.0621 475.871,-14.1429 485.29,-18.9946 486.26,-12.0621"/>
</g>
<!-- Node22 -->
<g id="node22" class="node"><title>Node22</title>
<g id="a_node22"><a xlink:title=" ">
<polygon fill="none" stroke="#bfbfbf" points="749.264,-56.5 749.264,-75.5 803.264,-75.5 803.264,-56.5 749.264,-56.5"/>
<text text-anchor="middle" x="776.264" y="-63.5" font-family="Helvetica,sans-Serif" font-size="10.00">iostream</text>
</a>
</g>
</g>
<!-- Node21&#45;&gt;Node22 -->
<g id="edge32" class="edge"><title>Node21&#45;&gt;Node22</title>
<path fill="none" stroke="midnightblue" d="M820.512,-112.083C812.794,-104.22 801.359,-92.5688 792.047,-83.0813"/>
<polygon fill="midnightblue" stroke="midnightblue" points="794.355,-80.4363 784.853,-75.7511 789.359,-85.3396 794.355,-80.4363"/>
</g>
<!-- Node23 -->
<g id="node23" class="node"><title>Node23</title>
<g id="a_node23"><a xlink:title=" ">
<polygon fill="none" stroke="#bfbfbf" points="821.264,-56.5 821.264,-75.5 871.264,-75.5 871.264,-56.5 821.264,-56.5"/>
<text text-anchor="middle" x="846.264" y="-63.5" font-family="Helvetica,sans-Serif" font-size="10.00">iomanip</text>
</a>
</g>
</g>
<!-- Node21&#45;&gt;Node23 -->
<g id="edge33" class="edge"><title>Node21&#45;&gt;Node23</title>
<path fill="none" stroke="midnightblue" d="M832.071,-112.083C834.348,-104.849 837.635,-94.4087 840.472,-85.3968"/>
<polygon fill="midnightblue" stroke="midnightblue" points="843.844,-86.3406 843.509,-75.7511 837.167,-84.2385 843.844,-86.3406"/>
</g>
</g>
</svg>
