<?xml version="1.0" encoding="UTF-8" standalone="no"?>
<!DOCTYPE svg PUBLIC "-//W3C//DTD SVG 1.1//EN"
 "http://www.w3.org/Graphics/SVG/1.1/DTD/svg11.dtd">
<!-- Generated by graphviz version 2.38.0 (20140413.2041)
 -->
<!-- Title: facetrackers_c.h Pages: 1 -->
<svg width="495pt" height="274pt"
 viewBox="0.00 0.00 494.50 274.00" xmlns="http://www.w3.org/2000/svg" xmlns:xlink="http://www.w3.org/1999/xlink">
<g id="graph0" class="graph" transform="scale(1 1) rotate(0) translate(4 270)">
<title>facetrackers_c.h</title>
<!-- Node1 -->
<g id="node1" class="node"><title>Node1</title>
<g id="a_node1"><a xlink:title=" ">
<polygon fill="#bfbfbf" stroke="black" points="220,-246.5 220,-265.5 309,-265.5 309,-246.5 220,-246.5"/>
<text text-anchor="middle" x="264.5" y="-253.5" font-family="Helvetica,sans-Serif" font-size="10.00">facetrackers_c.h</text>
</a>
</g>
</g>
<!-- Node2 -->
<g id="node2" class="node"><title>Node2</title>
<g id="a_node2"><a xlink:href="core__c_8h.html" target="_top" xlink:title=" ">
<polygon fill="none" stroke="black" points="88,-185 88,-204 153,-204 153,-185 88,-185"/>
<text text-anchor="middle" x="120.5" y="-192" font-family="Helvetica,sans-Serif" font-size="10.00">sr/core_c.h</text>
</a>
</g>
</g>
<!-- Node1&#45;&gt;Node2 -->
<g id="edge1" class="edge"><title>Node1&#45;&gt;Node2</title>
<path fill="none" stroke="midnightblue" d="M243.868,-246.475C219.381,-236.357 178.353,-219.405 150.391,-207.851"/>
<polygon fill="midnightblue" stroke="midnightblue" points="151.672,-204.593 141.093,-204.009 148.999,-211.063 151.672,-204.593"/>
</g>
<!-- Node7 -->
<g id="node7" class="node"><title>Node7</title>
<g id="a_node7"><a xlink:href="eyepair_8h.html" target="_top" xlink:title=" ">
<polygon fill="none" stroke="black" points="173,-112.5 173,-142.5 276,-142.5 276,-112.5 173,-112.5"/>
<text text-anchor="start" x="181" y="-130.5" font-family="Helvetica,sans-Serif" font-size="10.00">sr/sense/eyetracker</text>
<text text-anchor="middle" x="224.5" y="-119.5" font-family="Helvetica,sans-Serif" font-size="10.00">/eyepair.h</text>
</a>
</g>
</g>
<!-- Node1&#45;&gt;Node7 -->
<g id="edge7" class="edge"><title>Node1&#45;&gt;Node7</title>
<path fill="none" stroke="midnightblue" d="M259.475,-246.303C254.535,-237.43 247.088,-223.136 242.5,-210 235.915,-191.148 231.203,-168.974 228.257,-152.519"/>
<polygon fill="midnightblue" stroke="midnightblue" points="231.701,-151.895 226.573,-142.623 224.8,-153.069 231.701,-151.895"/>
</g>
<!-- Node8 -->
<g id="node8" class="node"><title>Node8</title>
<g id="a_node8"><a xlink:href="head_8h.html" target="_top" xlink:title=" ">
<polygon fill="none" stroke="black" points="251.5,-179.5 251.5,-209.5 359.5,-209.5 359.5,-179.5 251.5,-179.5"/>
<text text-anchor="start" x="259.5" y="-197.5" font-family="Helvetica,sans-Serif" font-size="10.00">sr/sense/headtracker</text>
<text text-anchor="middle" x="305.5" y="-186.5" font-family="Helvetica,sans-Serif" font-size="10.00">/head.h</text>
</a>
</g>
</g>
<!-- Node1&#45;&gt;Node8 -->
<g id="edge10" class="edge"><title>Node1&#45;&gt;Node8</title>
<path fill="none" stroke="midnightblue" d="M270.374,-246.475C275.512,-239.019 283.207,-227.852 290.086,-217.869"/>
<polygon fill="midnightblue" stroke="midnightblue" points="293.045,-219.743 295.837,-209.523 287.281,-215.771 293.045,-219.743"/>
</g>
<!-- Node9 -->
<g id="node9" class="node"><title>Node9</title>
<g id="a_node9"><a xlink:href="weaverposition_8h.html" target="_top" xlink:title=" ">
<polygon fill="none" stroke="black" points="370.5,-112.5 370.5,-142.5 486.5,-142.5 486.5,-112.5 370.5,-112.5"/>
<text text-anchor="start" x="378.5" y="-130.5" font-family="Helvetica,sans-Serif" font-size="10.00">sr/sense/weavertracker</text>
<text text-anchor="middle" x="428.5" y="-119.5" font-family="Helvetica,sans-Serif" font-size="10.00">/weaverposition.h</text>
</a>
</g>
</g>
<!-- Node1&#45;&gt;Node9 -->
<g id="edge14" class="edge"><title>Node1&#45;&gt;Node9</title>
<path fill="none" stroke="midnightblue" d="M295.466,-246.374C317.451,-239.172 346.797,-227.275 368.5,-210 388.752,-193.88 405.565,-169.323 416.191,-151.378"/>
<polygon fill="midnightblue" stroke="midnightblue" points="419.241,-153.095 421.168,-142.676 413.165,-149.619 419.241,-153.095"/>
</g>
<!-- Node3 -->
<g id="node3" class="node"><title>Node3</title>
<g id="a_node3"><a xlink:href="systemevent_8h.html" target="_top" xlink:title=" ">
<polygon fill="none" stroke="black" points="0,-118 0,-137 155,-137 155,-118 0,-118"/>
<text text-anchor="middle" x="77.5" y="-125" font-family="Helvetica,sans-Serif" font-size="10.00">sr/sense/system/systemevent.h</text>
</a>
</g>
</g>
<!-- Node2&#45;&gt;Node3 -->
<g id="edge2" class="edge"><title>Node2&#45;&gt;Node3</title>
<path fill="none" stroke="midnightblue" d="M114.701,-184.734C108.124,-174.793 97.2388,-158.338 88.9375,-145.789"/>
<polygon fill="midnightblue" stroke="midnightblue" points="91.6438,-143.536 83.2073,-137.127 85.8056,-147.399 91.6438,-143.536"/>
</g>
<!-- Node4 -->
<g id="node4" class="node"><title>Node4</title>
<g id="a_node4"><a xlink:href="types_8h.html" target="_top" xlink:title=" ">
<polygon fill="none" stroke="black" points="253.5,-56.5 253.5,-75.5 313.5,-75.5 313.5,-56.5 253.5,-56.5"/>
<text text-anchor="middle" x="283.5" y="-63.5" font-family="Helvetica,sans-Serif" font-size="10.00">sr/types.h</text>
</a>
</g>
</g>
<!-- Node3&#45;&gt;Node4 -->
<g id="edge3" class="edge"><title>Node3&#45;&gt;Node4</title>
<path fill="none" stroke="midnightblue" d="M107.015,-117.975C143.116,-107.548 204.348,-89.8618 244.354,-78.3066"/>
<polygon fill="midnightblue" stroke="midnightblue" points="245.404,-81.6466 254.04,-75.5091 243.461,-74.9215 245.404,-81.6466"/>
</g>
<!-- Node5 -->
<g id="node5" class="node"><title>Node5</title>
<g id="a_node5"><a xlink:title=" ">
<polygon fill="none" stroke="#bfbfbf" points="259,-0.5 259,-19.5 308,-19.5 308,-0.5 259,-0.5"/>
<text text-anchor="middle" x="283.5" y="-7.5" font-family="Helvetica,sans-Serif" font-size="10.00">stdint.h</text>
</a>
</g>
</g>
<!-- Node3&#45;&gt;Node5 -->
<g id="edge5" class="edge"><title>Node3&#45;&gt;Node5</title>
<path fill="none" stroke="midnightblue" d="M77.1946,-117.738C77.1804,-102.851 79.4219,-72.6215 96.5,-56 117.958,-35.116 201.125,-21.4079 249.01,-15.0708"/>
<polygon fill="midnightblue" stroke="midnightblue" points="249.47,-18.5406 258.942,-13.795 248.578,-11.5976 249.47,-18.5406"/>
</g>
<!-- Node6 -->
<g id="node6" class="node"><title>Node6</title>
<g id="a_node6"><a xlink:title=" ">
<polygon fill="none" stroke="#bfbfbf" points="106,-56.5 106,-75.5 147,-75.5 147,-56.5 106,-56.5"/>
<text text-anchor="middle" x="126.5" y="-63.5" font-family="Helvetica,sans-Serif" font-size="10.00">string</text>
</a>
</g>
</g>
<!-- Node3&#45;&gt;Node6 -->
<g id="edge6" class="edge"><title>Node3&#45;&gt;Node6</title>
<path fill="none" stroke="midnightblue" d="M84.5205,-117.975C91.9433,-108.962 103.833,-94.5246 113.067,-83.3118"/>
<polygon fill="midnightblue" stroke="midnightblue" points="115.837,-85.4534 119.493,-75.5091 110.434,-81.0034 115.837,-85.4534"/>
</g>
<!-- Node4&#45;&gt;Node5 -->
<g id="edge4" class="edge"><title>Node4&#45;&gt;Node5</title>
<path fill="none" stroke="midnightblue" d="M283.5,-56.083C283.5,-49.0059 283.5,-38.8611 283.5,-29.9865"/>
<polygon fill="midnightblue" stroke="midnightblue" points="287,-29.751 283.5,-19.7511 280,-29.7511 287,-29.751"/>
</g>
<!-- Node7&#45;&gt;Node4 -->
<g id="edge8" class="edge"><title>Node7&#45;&gt;Node4</title>
<path fill="none" stroke="midnightblue" d="M238.482,-112.399C247.232,-103.575 258.529,-92.1827 267.617,-83.0178"/>
<polygon fill="midnightblue" stroke="midnightblue" points="270.359,-85.2231 274.915,-75.6578 265.388,-80.2942 270.359,-85.2231"/>
</g>
<!-- Node7&#45;&gt;Node5 -->
<g id="edge9" class="edge"><title>Node7&#45;&gt;Node5</title>
<path fill="none" stroke="midnightblue" d="M226.647,-112.299C229.298,-97.5491 234.705,-74.1341 244.5,-56 250.249,-45.3576 258.889,-35.0435 266.577,-26.9806"/>
<polygon fill="midnightblue" stroke="midnightblue" points="269.217,-29.2895 273.805,-19.7393 264.263,-24.3442 269.217,-29.2895"/>
</g>
<!-- Node8&#45;&gt;Node4 -->
<g id="edge11" class="edge"><title>Node8&#45;&gt;Node4</title>
<path fill="none" stroke="midnightblue" d="M303.062,-179.479C299.085,-156.616 291.204,-111.296 286.754,-85.7129"/>
<polygon fill="midnightblue" stroke="midnightblue" points="290.19,-85.0409 285.028,-75.7885 283.294,-86.2404 290.19,-85.0409"/>
</g>
<!-- Node8&#45;&gt;Node5 -->
<g id="edge12" class="edge"><title>Node8&#45;&gt;Node5</title>
<path fill="none" stroke="midnightblue" d="M311.492,-179.333C321.372,-153.819 338.473,-98.819 322.5,-56 318.327,-44.8124 309.98,-34.5598 302.076,-26.6759"/>
<polygon fill="midnightblue" stroke="midnightblue" points="304.201,-23.8724 294.49,-19.6346 299.438,-29.0029 304.201,-23.8724"/>
</g>
<!-- Node8&#45;&gt;Node7 -->
<g id="edge13" class="edge"><title>Node8&#45;&gt;Node7</title>
<path fill="none" stroke="midnightblue" d="M287.924,-179.396C276.885,-170.538 262.458,-158.96 250.153,-149.086"/>
<polygon fill="midnightblue" stroke="midnightblue" points="252.031,-146.105 242.041,-142.577 247.65,-151.565 252.031,-146.105"/>
</g>
<!-- Node9&#45;&gt;Node4 -->
<g id="edge15" class="edge"><title>Node9&#45;&gt;Node4</title>
<path fill="none" stroke="midnightblue" d="M394.137,-112.399C369.809,-102.416 337.471,-89.1465 314.044,-79.5335"/>
<polygon fill="midnightblue" stroke="midnightblue" points="315.179,-76.2161 304.599,-75.6578 312.521,-82.6921 315.179,-76.2161"/>
</g>
<!-- Node9&#45;&gt;Node5 -->
<g id="edge16" class="edge"><title>Node9&#45;&gt;Node5</title>
<path fill="none" stroke="midnightblue" d="M415.791,-112.302C402.011,-97.344 378.964,-73.5657 356.5,-56 341.395,-44.1888 323.013,-32.8725 308.473,-24.5424"/>
<polygon fill="midnightblue" stroke="midnightblue" points="309.979,-21.3738 299.547,-19.5244 306.549,-27.4757 309.979,-21.3738"/>
</g>
</g>
</svg>
