<?xml version="1.0" encoding="UTF-8" standalone="no"?>
<!DOCTYPE svg PUBLIC "-//W3C//DTD SVG 1.1//EN"
 "http://www.w3.org/Graphics/SVG/1.1/DTD/svg11.dtd">
<!-- Generated by graphviz version 2.38.0 (20140413.2041)
 -->
<!-- Title: gestureanalyser.h Pages: 1 -->
<svg width="1009pt" height="308pt"
 viewBox="0.00 0.00 1008.50 308.00" xmlns="http://www.w3.org/2000/svg" xmlns:xlink="http://www.w3.org/1999/xlink">
<g id="graph0" class="graph" transform="scale(1 1) rotate(0) translate(4 304)">
<title>gestureanalyser.h</title>
<!-- Node1 -->
<g id="node1" class="node"><title>Node1</title>
<g id="a_node1"><a xlink:title=" ">
<polygon fill="#bfbfbf" stroke="black" points="520.5,-280.5 520.5,-299.5 614.5,-299.5 614.5,-280.5 520.5,-280.5"/>
<text text-anchor="middle" x="567.5" y="-287.5" font-family="Helvetica,sans-Serif" font-size="10.00">gestureanalyser.h</text>
</a>
</g>
</g>
<!-- Node2 -->
<g id="node2" class="node"><title>Node2</title>
<g id="a_node2"><a xlink:title=" ">
<polygon fill="none" stroke="#bfbfbf" points="0,-168.5 0,-187.5 35,-187.5 35,-168.5 0,-168.5"/>
<text text-anchor="middle" x="17.5" y="-175.5" font-family="Helvetica,sans-Serif" font-size="10.00">map</text>
</a>
</g>
</g>
<!-- Node1&#45;&gt;Node2 -->
<g id="edge1" class="edge"><title>Node1&#45;&gt;Node2</title>
<path fill="none" stroke="midnightblue" d="M520.154,-281.989C429.491,-268.105 225.156,-234.595 45.0357,-187.836"/>
<polygon fill="midnightblue" stroke="midnightblue" points="45.6794,-184.386 35.1192,-185.241 43.9077,-191.158 45.6794,-184.386"/>
</g>
<!-- Node3 -->
<g id="node3" class="node"><title>Node3</title>
<g id="a_node3"><a xlink:href="srcontext_8h.html" target="_top" xlink:title=" ">
<polygon fill="none" stroke="black" points="370.5,-224.5 370.5,-243.5 506.5,-243.5 506.5,-224.5 370.5,-224.5"/>
<text text-anchor="middle" x="438.5" y="-231.5" font-family="Helvetica,sans-Serif" font-size="10.00">sr/management/srcontext.h</text>
</a>
</g>
</g>
<!-- Node1&#45;&gt;Node3 -->
<g id="edge2" class="edge"><title>Node1&#45;&gt;Node3</title>
<path fill="none" stroke="midnightblue" d="M547.06,-280.444C525.83,-271.557 492.401,-257.563 468.245,-247.451"/>
<polygon fill="midnightblue" stroke="midnightblue" points="469.421,-244.149 458.845,-243.516 466.718,-250.606 469.421,-244.149"/>
</g>
<!-- Node20 -->
<g id="node20" class="node"><title>Node20</title>
<g id="a_node20"><a xlink:href="gesture_8h.html" target="_top" xlink:title=" ">
<polygon fill="none" stroke="black" points="748,-112.5 748,-131.5 805,-131.5 805,-112.5 748,-112.5"/>
<text text-anchor="middle" x="776.5" y="-119.5" font-family="Helvetica,sans-Serif" font-size="10.00">gesture.h</text>
</a>
</g>
</g>
<!-- Node1&#45;&gt;Node20 -->
<g id="edge24" class="edge"><title>Node1&#45;&gt;Node20</title>
<path fill="none" stroke="midnightblue" d="M578.442,-280.309C612.231,-253.472 715.193,-171.694 757.769,-137.878"/>
<polygon fill="midnightblue" stroke="midnightblue" points="760.012,-140.565 765.666,-131.605 755.658,-135.084 760.012,-140.565"/>
</g>
<!-- Node21 -->
<g id="node21" class="node"><title>Node21</title>
<g id="a_node21"><a xlink:href="gesturestream_8h.html" target="_top" xlink:title=" ">
<polygon fill="none" stroke="black" points="729,-224.5 729,-243.5 816,-243.5 816,-224.5 729,-224.5"/>
<text text-anchor="middle" x="772.5" y="-231.5" font-family="Helvetica,sans-Serif" font-size="10.00">gesturestream.h</text>
</a>
</g>
</g>
<!-- Node1&#45;&gt;Node21 -->
<g id="edge27" class="edge"><title>Node1&#45;&gt;Node21</title>
<path fill="none" stroke="midnightblue" d="M599.983,-280.444C635.22,-271.162 691.604,-256.309 730.259,-246.127"/>
<polygon fill="midnightblue" stroke="midnightblue" points="731.391,-249.448 740.169,-243.516 729.607,-242.679 731.391,-249.448"/>
</g>
<!-- Node3&#45;&gt;Node2 -->
<g id="edge4" class="edge"><title>Node3&#45;&gt;Node2</title>
<path fill="none" stroke="midnightblue" d="M370.164,-229.516C293.187,-224.626 164.38,-213.539 45.1062,-187.659"/>
<polygon fill="midnightblue" stroke="midnightblue" points="45.5906,-184.182 35.0709,-185.441 44.0799,-191.017 45.5906,-184.182"/>
</g>
<!-- Node4 -->
<g id="node4" class="node"><title>Node4</title>
<g id="a_node4"><a xlink:title=" ">
<polygon fill="none" stroke="#bfbfbf" points="500,-112.5 500,-131.5 541,-131.5 541,-112.5 500,-112.5"/>
<text text-anchor="middle" x="520.5" y="-119.5" font-family="Helvetica,sans-Serif" font-size="10.00">string</text>
</a>
</g>
</g>
<!-- Node3&#45;&gt;Node4 -->
<g id="edge3" class="edge"><title>Node3&#45;&gt;Node4</title>
<path fill="none" stroke="midnightblue" d="M457.17,-224.348C471.6,-216.734 490.995,-204.319 502.5,-188 512.093,-174.392 516.583,-155.849 518.679,-142.05"/>
<polygon fill="midnightblue" stroke="midnightblue" points="522.194,-142.139 519.936,-131.788 515.246,-141.288 522.194,-142.139"/>
</g>
<!-- Node5 -->
<g id="node5" class="node"><title>Node5</title>
<g id="a_node5"><a xlink:href="sense_8h.html" target="_top" xlink:title=" ">
<polygon fill="none" stroke="black" points="550,-168.5 550,-187.5 663,-187.5 663,-168.5 550,-168.5"/>
<text text-anchor="middle" x="606.5" y="-175.5" font-family="Helvetica,sans-Serif" font-size="10.00">sr/sense/core/sense.h</text>
</a>
</g>
</g>
<!-- Node3&#45;&gt;Node5 -->
<g id="edge5" class="edge"><title>Node3&#45;&gt;Node5</title>
<path fill="none" stroke="midnightblue" d="M465.12,-224.444C493.506,-215.32 538.637,-200.813 570.253,-190.651"/>
<polygon fill="midnightblue" stroke="midnightblue" points="571.555,-193.909 580.004,-187.516 569.413,-187.244 571.555,-193.909"/>
</g>
<!-- Node13 -->
<g id="node13" class="node"><title>Node13</title>
<g id="a_node13"><a xlink:href="worldobject_8h.html" target="_top" xlink:title=" ">
<polygon fill="none" stroke="black" points="383.5,-168.5 383.5,-187.5 493.5,-187.5 493.5,-168.5 383.5,-168.5"/>
<text text-anchor="middle" x="438.5" y="-175.5" font-family="Helvetica,sans-Serif" font-size="10.00">sr/world/worldobject.h</text>
</a>
</g>
</g>
<!-- Node3&#45;&gt;Node13 -->
<g id="edge14" class="edge"><title>Node3&#45;&gt;Node13</title>
<path fill="none" stroke="midnightblue" d="M438.5,-224.083C438.5,-217.006 438.5,-206.861 438.5,-197.986"/>
<polygon fill="midnightblue" stroke="midnightblue" points="442,-197.751 438.5,-187.751 435,-197.751 442,-197.751"/>
</g>
<!-- Node15 -->
<g id="node15" class="node"><title>Node15</title>
<g id="a_node15"><a xlink:href="networkinterface_8h.html" target="_top" xlink:title=" ">
<polygon fill="none" stroke="black" points="200,-168.5 200,-187.5 365,-187.5 365,-168.5 200,-168.5"/>
<text text-anchor="middle" x="282.5" y="-175.5" font-family="Helvetica,sans-Serif" font-size="10.00">sr/network/core/networkinterface.h</text>
</a>
</g>
</g>
<!-- Node3&#45;&gt;Node15 -->
<g id="edge18" class="edge"><title>Node3&#45;&gt;Node15</title>
<path fill="none" stroke="midnightblue" d="M413.781,-224.444C387.652,-215.399 346.241,-201.064 316.924,-190.916"/>
<polygon fill="midnightblue" stroke="midnightblue" points="317.698,-187.48 307.103,-187.516 315.408,-194.095 317.698,-187.48"/>
</g>
<!-- Node16 -->
<g id="node16" class="node"><title>Node16</title>
<g id="a_node16"><a xlink:href="receiver_8h.html" target="_top" xlink:title=" ">
<polygon fill="none" stroke="black" points="53.5,-168.5 53.5,-187.5 181.5,-187.5 181.5,-168.5 53.5,-168.5"/>
<text text-anchor="middle" x="117.5" y="-175.5" font-family="Helvetica,sans-Serif" font-size="10.00">sr/network/core/receiver.h</text>
</a>
</g>
</g>
<!-- Node3&#45;&gt;Node16 -->
<g id="edge19" class="edge"><title>Node3&#45;&gt;Node16</title>
<path fill="none" stroke="midnightblue" d="M387.637,-224.444C330.817,-214.885 238.883,-199.419 178.31,-189.23"/>
<polygon fill="midnightblue" stroke="midnightblue" points="178.568,-185.724 168.125,-187.516 177.406,-192.627 178.568,-185.724"/>
</g>
<!-- Node5&#45;&gt;Node4 -->
<g id="edge6" class="edge"><title>Node5&#45;&gt;Node4</title>
<path fill="none" stroke="midnightblue" d="M592.683,-168.324C579.267,-159.9 558.676,-146.971 542.914,-137.074"/>
<polygon fill="midnightblue" stroke="midnightblue" points="544.613,-134.008 534.283,-131.655 540.891,-139.936 544.613,-134.008"/>
</g>
<!-- Node6 -->
<g id="node6" class="node"><title>Node6</title>
<g id="a_node6"><a xlink:title=" ">
<polygon fill="none" stroke="#bfbfbf" points="559.5,-112.5 559.5,-131.5 605.5,-131.5 605.5,-112.5 559.5,-112.5"/>
<text text-anchor="middle" x="582.5" y="-119.5" font-family="Helvetica,sans-Serif" font-size="10.00">chrono</text>
</a>
</g>
</g>
<!-- Node5&#45;&gt;Node6 -->
<g id="edge7" class="edge"><title>Node5&#45;&gt;Node6</title>
<path fill="none" stroke="midnightblue" d="M602.537,-168.083C599.287,-160.77 594.581,-150.181 590.546,-141.103"/>
<polygon fill="midnightblue" stroke="midnightblue" points="593.649,-139.468 586.389,-131.751 587.252,-142.311 593.649,-139.468"/>
</g>
<!-- Node7 -->
<g id="node7" class="node"><title>Node7</title>
<g id="a_node7"><a xlink:title=" ">
<polygon fill="none" stroke="#bfbfbf" points="623.5,-112.5 623.5,-131.5 667.5,-131.5 667.5,-112.5 623.5,-112.5"/>
<text text-anchor="middle" x="645.5" y="-119.5" font-family="Helvetica,sans-Serif" font-size="10.00">thread</text>
</a>
</g>
</g>
<!-- Node5&#45;&gt;Node7 -->
<g id="edge8" class="edge"><title>Node5&#45;&gt;Node7</title>
<path fill="none" stroke="midnightblue" d="M612.94,-168.083C618.449,-160.455 626.531,-149.264 633.265,-139.941"/>
<polygon fill="midnightblue" stroke="midnightblue" points="636.162,-141.907 639.18,-131.751 630.487,-137.809 636.162,-141.907"/>
</g>
<!-- Node8 -->
<g id="node8" class="node"><title>Node8</title>
<g id="a_node8"><a xlink:title=" ">
<polygon fill="none" stroke="#bfbfbf" points="685.5,-112.5 685.5,-131.5 729.5,-131.5 729.5,-112.5 685.5,-112.5"/>
<text text-anchor="middle" x="707.5" y="-119.5" font-family="Helvetica,sans-Serif" font-size="10.00">mutex</text>
</a>
</g>
</g>
<!-- Node5&#45;&gt;Node8 -->
<g id="edge9" class="edge"><title>Node5&#45;&gt;Node8</title>
<path fill="none" stroke="midnightblue" d="M622.727,-168.324C638.851,-159.703 663.8,-146.364 682.464,-136.386"/>
<polygon fill="midnightblue" stroke="midnightblue" points="684.144,-139.456 691.313,-131.655 680.844,-133.283 684.144,-139.456"/>
</g>
<!-- Node9 -->
<g id="node9" class="node"><title>Node9</title>
<g id="a_node9"><a xlink:href="transformation_8h.html" target="_top" xlink:title=" ">
<polygon fill="none" stroke="black" points="395.5,-112.5 395.5,-131.5 481.5,-131.5 481.5,-112.5 395.5,-112.5"/>
<text text-anchor="middle" x="438.5" y="-119.5" font-family="Helvetica,sans-Serif" font-size="10.00">transformation.h</text>
</a>
</g>
</g>
<!-- Node5&#45;&gt;Node9 -->
<g id="edge10" class="edge"><title>Node5&#45;&gt;Node9</title>
<path fill="none" stroke="midnightblue" d="M579.88,-168.444C551.494,-159.32 506.363,-144.813 474.747,-134.651"/>
<polygon fill="midnightblue" stroke="midnightblue" points="475.587,-131.244 464.996,-131.516 473.445,-137.909 475.587,-131.244"/>
</g>
<!-- Node10 -->
<g id="node10" class="node"><title>Node10</title>
<g id="a_node10"><a xlink:title=" ">
<polygon fill="none" stroke="#bfbfbf" points="357.5,-56.5 357.5,-75.5 461.5,-75.5 461.5,-56.5 357.5,-56.5"/>
<text text-anchor="middle" x="409.5" y="-63.5" font-family="Helvetica,sans-Serif" font-size="10.00">opencv2/opencv.hpp</text>
</a>
</g>
</g>
<!-- Node9&#45;&gt;Node10 -->
<g id="edge11" class="edge"><title>Node9&#45;&gt;Node10</title>
<path fill="none" stroke="midnightblue" d="M433.711,-112.083C429.742,-104.691 423.975,-93.9533 419.065,-84.8111"/>
<polygon fill="midnightblue" stroke="midnightblue" points="422.014,-82.9051 414.2,-75.7511 415.847,-86.217 422.014,-82.9051"/>
</g>
<!-- Node11 -->
<g id="node11" class="node"><title>Node11</title>
<g id="a_node11"><a xlink:href="types_8h.html" target="_top" xlink:title=" ">
<polygon fill="none" stroke="black" points="569.5,-56.5 569.5,-75.5 629.5,-75.5 629.5,-56.5 569.5,-56.5"/>
<text text-anchor="middle" x="599.5" y="-63.5" font-family="Helvetica,sans-Serif" font-size="10.00">sr/types.h</text>
</a>
</g>
</g>
<!-- Node9&#45;&gt;Node11 -->
<g id="edge12" class="edge"><title>Node9&#45;&gt;Node11</title>
<path fill="none" stroke="midnightblue" d="M464.011,-112.444C491.096,-103.359 534.09,-88.9388 564.369,-78.7831"/>
<polygon fill="midnightblue" stroke="midnightblue" points="565.74,-82.0148 574.108,-75.5164 563.514,-75.3781 565.74,-82.0148"/>
</g>
<!-- Node12 -->
<g id="node12" class="node"><title>Node12</title>
<g id="a_node12"><a xlink:title=" ">
<polygon fill="none" stroke="#bfbfbf" points="575,-0.5 575,-19.5 624,-19.5 624,-0.5 575,-0.5"/>
<text text-anchor="middle" x="599.5" y="-7.5" font-family="Helvetica,sans-Serif" font-size="10.00">stdint.h</text>
</a>
</g>
</g>
<!-- Node11&#45;&gt;Node12 -->
<g id="edge13" class="edge"><title>Node11&#45;&gt;Node12</title>
<path fill="none" stroke="midnightblue" d="M599.5,-56.083C599.5,-49.0059 599.5,-38.8611 599.5,-29.9865"/>
<polygon fill="midnightblue" stroke="midnightblue" points="603,-29.751 599.5,-19.7511 596,-29.7511 603,-29.751"/>
</g>
<!-- Node13&#45;&gt;Node9 -->
<g id="edge17" class="edge"><title>Node13&#45;&gt;Node9</title>
<path fill="none" stroke="midnightblue" d="M438.5,-168.083C438.5,-161.006 438.5,-150.861 438.5,-141.986"/>
<polygon fill="midnightblue" stroke="midnightblue" points="442,-141.751 438.5,-131.751 435,-141.751 442,-141.751"/>
</g>
<!-- Node13&#45;&gt;Node10 -->
<g id="edge16" class="edge"><title>Node13&#45;&gt;Node10</title>
<path fill="none" stroke="midnightblue" d="M422.717,-168.467C410.297,-160.769 393.895,-148.179 386.5,-132 379.222,-116.078 387.767,-97.1338 396.43,-83.8172"/>
<polygon fill="midnightblue" stroke="midnightblue" points="399.325,-85.7854 402.254,-75.6034 393.615,-81.7365 399.325,-85.7854"/>
</g>
<!-- Node14 -->
<g id="node14" class="node"><title>Node14</title>
<g id="a_node14"><a xlink:title=" ">
<polygon fill="none" stroke="#bfbfbf" points="297.5,-112.5 297.5,-131.5 339.5,-131.5 339.5,-112.5 297.5,-112.5"/>
<text text-anchor="middle" x="318.5" y="-119.5" font-family="Helvetica,sans-Serif" font-size="10.00">vector</text>
</a>
</g>
</g>
<!-- Node13&#45;&gt;Node14 -->
<g id="edge15" class="edge"><title>Node13&#45;&gt;Node14</title>
<path fill="none" stroke="midnightblue" d="M419.486,-168.444C399.912,-159.636 369.192,-145.812 346.771,-135.722"/>
<polygon fill="midnightblue" stroke="midnightblue" points="347.981,-132.428 337.425,-131.516 345.108,-138.812 347.981,-132.428"/>
</g>
<!-- Node17 -->
<g id="node17" class="node"><title>Node17</title>
<g id="a_node17"><a xlink:href="packet_8h.html" target="_top" xlink:title=" ">
<polygon fill="none" stroke="black" points="120.5,-112.5 120.5,-131.5 174.5,-131.5 174.5,-112.5 120.5,-112.5"/>
<text text-anchor="middle" x="147.5" y="-119.5" font-family="Helvetica,sans-Serif" font-size="10.00">packet.h</text>
</a>
</g>
</g>
<!-- Node16&#45;&gt;Node17 -->
<g id="edge20" class="edge"><title>Node16&#45;&gt;Node17</title>
<path fill="none" stroke="midnightblue" d="M122.454,-168.083C126.604,-160.613 132.653,-149.724 137.767,-140.52"/>
<polygon fill="midnightblue" stroke="midnightblue" points="140.841,-142.192 142.638,-131.751 134.722,-138.793 140.841,-142.192"/>
</g>
<!-- Node17&#45;&gt;Node12 -->
<g id="edge21" class="edge"><title>Node17&#45;&gt;Node12</title>
<path fill="none" stroke="midnightblue" d="M144.522,-112.071C140.494,-98.1215 135.325,-71.1865 149.5,-56 177.703,-25.7834 463.986,-14.8294 564.69,-11.8935"/>
<polygon fill="midnightblue" stroke="midnightblue" points="565.04,-15.3851 574.937,-11.604 564.842,-8.38789 565.04,-15.3851"/>
</g>
<!-- Node18 -->
<g id="node18" class="node"><title>Node18</title>
<g id="a_node18"><a xlink:title=" ">
<polygon fill="none" stroke="#bfbfbf" points="158.5,-56.5 158.5,-75.5 212.5,-75.5 212.5,-56.5 158.5,-56.5"/>
<text text-anchor="middle" x="185.5" y="-63.5" font-family="Helvetica,sans-Serif" font-size="10.00">iostream</text>
</a>
</g>
</g>
<!-- Node17&#45;&gt;Node18 -->
<g id="edge22" class="edge"><title>Node17&#45;&gt;Node18</title>
<path fill="none" stroke="midnightblue" d="M153.775,-112.083C159.142,-104.455 167.018,-93.2645 173.579,-83.9408"/>
<polygon fill="midnightblue" stroke="midnightblue" points="176.449,-85.9434 179.342,-75.7511 170.725,-81.9149 176.449,-85.9434"/>
</g>
<!-- Node19 -->
<g id="node19" class="node"><title>Node19</title>
<g id="a_node19"><a xlink:title=" ">
<polygon fill="none" stroke="#bfbfbf" points="230.5,-56.5 230.5,-75.5 280.5,-75.5 280.5,-56.5 230.5,-56.5"/>
<text text-anchor="middle" x="255.5" y="-63.5" font-family="Helvetica,sans-Serif" font-size="10.00">iomanip</text>
</a>
</g>
</g>
<!-- Node17&#45;&gt;Node19 -->
<g id="edge23" class="edge"><title>Node17&#45;&gt;Node19</title>
<path fill="none" stroke="midnightblue" d="M164.852,-112.324C182.172,-103.664 209.015,-90.2424 229.002,-80.249"/>
<polygon fill="midnightblue" stroke="midnightblue" points="230.812,-83.2572 238.191,-75.6545 227.681,-76.9962 230.812,-83.2572"/>
</g>
<!-- Node20&#45;&gt;Node11 -->
<g id="edge26" class="edge"><title>Node20&#45;&gt;Node11</title>
<path fill="none" stroke="midnightblue" d="M748.454,-112.444C718.418,-103.28 670.587,-88.6876 637.257,-78.5192"/>
<polygon fill="midnightblue" stroke="midnightblue" points="638.001,-75.0869 627.415,-75.5164 635.958,-81.7822 638.001,-75.0869"/>
</g>
<!-- Node20&#45;&gt;Node12 -->
<g id="edge25" class="edge"><title>Node20&#45;&gt;Node12</title>
<path fill="none" stroke="midnightblue" d="M762.611,-112.368C732.109,-93.4121 659.037,-48.0006 621.935,-24.9424"/>
<polygon fill="midnightblue" stroke="midnightblue" points="623.665,-21.8972 613.324,-19.5914 619.97,-27.8426 623.665,-21.8972"/>
</g>
<!-- Node21&#45;&gt;Node20 -->
<g id="edge29" class="edge"><title>Node21&#45;&gt;Node20</title>
<path fill="none" stroke="midnightblue" d="M772.734,-224.167C773.073,-211.662 773.745,-188.082 774.5,-168 774.824,-159.395 775.239,-149.868 775.607,-141.803"/>
<polygon fill="midnightblue" stroke="midnightblue" points="779.112,-141.778 776.082,-131.625 772.119,-141.451 779.112,-141.778"/>
</g>
<!-- Node22 -->
<g id="node22" class="node"><title>Node22</title>
<g id="a_node22"><a xlink:title=" ">
<polygon fill="none" stroke="#bfbfbf" points="890.5,-168.5 890.5,-187.5 1000.5,-187.5 1000.5,-168.5 890.5,-168.5"/>
<text text-anchor="middle" x="945.5" y="-175.5" font-family="Helvetica,sans-Serif" font-size="10.00">sr/sense/core/buffer.h</text>
</a>
</g>
</g>
<!-- Node21&#45;&gt;Node22 -->
<g id="edge28" class="edge"><title>Node21&#45;&gt;Node22</title>
<path fill="none" stroke="midnightblue" d="M799.912,-224.444C829.269,-215.28 876.019,-200.688 908.596,-190.519"/>
<polygon fill="midnightblue" stroke="midnightblue" points="909.713,-193.837 918.216,-187.516 907.627,-187.155 909.713,-193.837"/>
</g>
<!-- Node23 -->
<g id="node23" class="node"><title>Node23</title>
<g id="a_node23"><a xlink:href="gesturelistener_8h.html" target="_top" xlink:title=" ">
<polygon fill="none" stroke="black" points="783,-168.5 783,-187.5 872,-187.5 872,-168.5 783,-168.5"/>
<text text-anchor="middle" x="827.5" y="-175.5" font-family="Helvetica,sans-Serif" font-size="10.00">gesturelistener.h</text>
</a>
</g>
</g>
<!-- Node21&#45;&gt;Node23 -->
<g id="edge30" class="edge"><title>Node21&#45;&gt;Node23</title>
<path fill="none" stroke="midnightblue" d="M781.582,-224.083C789.671,-216.141 801.695,-204.335 811.41,-194.797"/>
<polygon fill="midnightblue" stroke="midnightblue" points="813.903,-197.254 818.587,-187.751 808.999,-192.26 813.903,-197.254"/>
</g>
<!-- Node23&#45;&gt;Node20 -->
<g id="edge32" class="edge"><title>Node23&#45;&gt;Node20</title>
<path fill="none" stroke="midnightblue" d="M819.078,-168.083C811.652,-160.22 800.648,-148.569 791.688,-139.081"/>
<polygon fill="midnightblue" stroke="midnightblue" points="794.176,-136.618 784.765,-131.751 789.087,-141.424 794.176,-136.618"/>
</g>
<!-- Node24 -->
<g id="node24" class="node"><title>Node24</title>
<g id="a_node24"><a xlink:title=" ">
<polygon fill="none" stroke="#bfbfbf" points="823.5,-112.5 823.5,-131.5 875.5,-131.5 875.5,-112.5 823.5,-112.5"/>
<text text-anchor="middle" x="849.5" y="-119.5" font-family="Helvetica,sans-Serif" font-size="10.00">memory</text>
</a>
</g>
</g>
<!-- Node23&#45;&gt;Node24 -->
<g id="edge31" class="edge"><title>Node23&#45;&gt;Node24</title>
<path fill="none" stroke="midnightblue" d="M831.133,-168.083C834.112,-160.77 838.426,-150.181 842.125,-141.103"/>
<polygon fill="midnightblue" stroke="midnightblue" points="845.403,-142.333 845.935,-131.751 838.92,-139.691 845.403,-142.333"/>
</g>
</g>
</svg>
