<?xml version="1.0" encoding="UTF-8" standalone="no"?>
<!DOCTYPE svg PUBLIC "-//W3C//DTD SVG 1.1//EN"
 "http://www.w3.org/Graphics/SVG/1.1/DTD/svg11.dtd">
<!-- Generated by graphviz version 2.38.0 (20140413.2041)
 -->
<!-- Title: gesture.h Pages: 1 -->
<svg width="96pt" height="140pt"
 viewBox="0.00 0.00 95.50 140.00" xmlns="http://www.w3.org/2000/svg" xmlns:xlink="http://www.w3.org/1999/xlink">
<g id="graph0" class="graph" transform="scale(1 1) rotate(0) translate(4 136)">
<title>gesture.h</title>
<!-- Node1 -->
<g id="node1" class="node"><title>Node1</title>
<g id="a_node1"><a xlink:title=" ">
<polygon fill="#bfbfbf" stroke="black" points="0,-112.5 0,-131.5 57,-131.5 57,-112.5 0,-112.5"/>
<text text-anchor="middle" x="28.5" y="-119.5" font-family="Helvetica,sans-Serif" font-size="10.00">gesture.h</text>
</a>
</g>
</g>
<!-- Node2 -->
<g id="node2" class="node"><title>Node2</title>
<g id="a_node2"><a xlink:title=" ">
<polygon fill="none" stroke="#bfbfbf" points="4,-0.5 4,-19.5 53,-19.5 53,-0.5 4,-0.5"/>
<text text-anchor="middle" x="28.5" y="-7.5" font-family="Helvetica,sans-Serif" font-size="10.00">stdint.h</text>
</a>
</g>
</g>
<!-- Node1&#45;&gt;Node2 -->
<g id="edge1" class="edge"><title>Node1&#45;&gt;Node2</title>
<path fill="none" stroke="midnightblue" d="M25.6631,-112.201C21.9832,-99.7353 16.2824,-76.2018 18.5,-56 19.4726,-47.1398 21.4917,-37.4716 23.4626,-29.3755"/>
<polygon fill="midnightblue" stroke="midnightblue" points="26.8926,-30.0919 26.0176,-19.5332 20.1171,-28.333 26.8926,-30.0919"/>
</g>
<!-- Node3 -->
<g id="node3" class="node"><title>Node3</title>
<g id="a_node3"><a xlink:href="types_8h.html" target="_top" xlink:title=" ">
<polygon fill="none" stroke="black" points="27.5,-56.5 27.5,-75.5 87.5,-75.5 87.5,-56.5 27.5,-56.5"/>
<text text-anchor="middle" x="57.5" y="-63.5" font-family="Helvetica,sans-Serif" font-size="10.00">sr/types.h</text>
</a>
</g>
</g>
<!-- Node1&#45;&gt;Node3 -->
<g id="edge2" class="edge"><title>Node1&#45;&gt;Node3</title>
<path fill="none" stroke="midnightblue" d="M33.2888,-112.083C37.2584,-104.691 43.0251,-93.9533 47.9348,-84.8111"/>
<polygon fill="midnightblue" stroke="midnightblue" points="51.1525,-86.217 52.8003,-75.7511 44.9855,-82.9051 51.1525,-86.217"/>
</g>
<!-- Node3&#45;&gt;Node2 -->
<g id="edge3" class="edge"><title>Node3&#45;&gt;Node2</title>
<path fill="none" stroke="midnightblue" d="M52.7112,-56.083C48.7416,-48.6913 42.9749,-37.9533 38.0652,-28.8111"/>
<polygon fill="midnightblue" stroke="midnightblue" points="41.0145,-26.9051 33.1997,-19.7511 34.8475,-30.217 41.0145,-26.9051"/>
</g>
</g>
</svg>
