<?xml version="1.0" encoding="UTF-8" standalone="no"?>
<!DOCTYPE svg PUBLIC "-//W3C//DTD SVG 1.1//EN"
 "http://www.w3.org/Graphics/SVG/1.1/DTD/svg11.dtd">
<!-- Generated by graphviz version 2.38.0 (20140413.2041)
 -->
<!-- Title: gesturestream.h Pages: 1 -->
<svg width="264pt" height="252pt"
 viewBox="0.00 0.00 263.50 252.00" xmlns="http://www.w3.org/2000/svg" xmlns:xlink="http://www.w3.org/1999/xlink">
<g id="graph0" class="graph" transform="scale(1 1) rotate(0) translate(4 248)">
<title>gesturestream.h</title>
<!-- Node1 -->
<g id="node1" class="node"><title>Node1</title>
<g id="a_node1"><a xlink:title=" ">
<polygon fill="#bfbfbf" stroke="black" points="94.5,-224.5 94.5,-243.5 181.5,-243.5 181.5,-224.5 94.5,-224.5"/>
<text text-anchor="middle" x="138" y="-231.5" font-family="Helvetica,sans-Serif" font-size="10.00">gesturestream.h</text>
</a>
</g>
</g>
<!-- Node2 -->
<g id="node2" class="node"><title>Node2</title>
<g id="a_node2"><a xlink:title=" ">
<polygon fill="none" stroke="#bfbfbf" points="0,-168.5 0,-187.5 110,-187.5 110,-168.5 0,-168.5"/>
<text text-anchor="middle" x="55" y="-175.5" font-family="Helvetica,sans-Serif" font-size="10.00">sr/sense/core/buffer.h</text>
</a>
</g>
</g>
<!-- Node1&#45;&gt;Node2 -->
<g id="edge1" class="edge"><title>Node1&#45;&gt;Node2</title>
<path fill="none" stroke="midnightblue" d="M124.665,-224.324C111.838,-215.979 92.215,-203.212 77.0602,-193.352"/>
<polygon fill="midnightblue" stroke="midnightblue" points="78.5932,-190.174 68.3023,-187.655 74.7757,-196.042 78.5932,-190.174"/>
</g>
<!-- Node3 -->
<g id="node3" class="node"><title>Node3</title>
<g id="a_node3"><a xlink:href="gesture_8h.html" target="_top" xlink:title=" ">
<polygon fill="none" stroke="black" points="109.5,-112.5 109.5,-131.5 166.5,-131.5 166.5,-112.5 109.5,-112.5"/>
<text text-anchor="middle" x="138" y="-119.5" font-family="Helvetica,sans-Serif" font-size="10.00">gesture.h</text>
</a>
</g>
</g>
<!-- Node1&#45;&gt;Node3 -->
<g id="edge2" class="edge"><title>Node1&#45;&gt;Node3</title>
<path fill="none" stroke="midnightblue" d="M138,-224.368C138,-206.617 138,-165.666 138,-141.597"/>
<polygon fill="midnightblue" stroke="midnightblue" points="141.5,-141.591 138,-131.591 134.5,-141.591 141.5,-141.591"/>
</g>
<!-- Node6 -->
<g id="node6" class="node"><title>Node6</title>
<g id="a_node6"><a xlink:href="gesturelistener_8h.html" target="_top" xlink:title=" ">
<polygon fill="none" stroke="black" points="166.5,-168.5 166.5,-187.5 255.5,-187.5 255.5,-168.5 166.5,-168.5"/>
<text text-anchor="middle" x="211" y="-175.5" font-family="Helvetica,sans-Serif" font-size="10.00">gesturelistener.h</text>
</a>
</g>
</g>
<!-- Node1&#45;&gt;Node6 -->
<g id="edge6" class="edge"><title>Node1&#45;&gt;Node6</title>
<path fill="none" stroke="midnightblue" d="M149.729,-224.324C160.837,-216.107 177.742,-203.602 190.983,-193.807"/>
<polygon fill="midnightblue" stroke="midnightblue" points="193.1,-196.595 199.058,-187.834 188.937,-190.967 193.1,-196.595"/>
</g>
<!-- Node4 -->
<g id="node4" class="node"><title>Node4</title>
<g id="a_node4"><a xlink:title=" ">
<polygon fill="none" stroke="#bfbfbf" points="113.5,-0.5 113.5,-19.5 162.5,-19.5 162.5,-0.5 113.5,-0.5"/>
<text text-anchor="middle" x="138" y="-7.5" font-family="Helvetica,sans-Serif" font-size="10.00">stdint.h</text>
</a>
</g>
</g>
<!-- Node3&#45;&gt;Node4 -->
<g id="edge3" class="edge"><title>Node3&#45;&gt;Node4</title>
<path fill="none" stroke="midnightblue" d="M135.163,-112.201C131.483,-99.7353 125.782,-76.2018 128,-56 128.973,-47.1398 130.992,-37.4716 132.963,-29.3755"/>
<polygon fill="midnightblue" stroke="midnightblue" points="136.393,-30.0919 135.518,-19.5332 129.617,-28.333 136.393,-30.0919"/>
</g>
<!-- Node5 -->
<g id="node5" class="node"><title>Node5</title>
<g id="a_node5"><a xlink:href="types_8h.html" target="_top" xlink:title=" ">
<polygon fill="none" stroke="black" points="137,-56.5 137,-75.5 197,-75.5 197,-56.5 137,-56.5"/>
<text text-anchor="middle" x="167" y="-63.5" font-family="Helvetica,sans-Serif" font-size="10.00">sr/types.h</text>
</a>
</g>
</g>
<!-- Node3&#45;&gt;Node5 -->
<g id="edge4" class="edge"><title>Node3&#45;&gt;Node5</title>
<path fill="none" stroke="midnightblue" d="M142.789,-112.083C146.758,-104.691 152.525,-93.9533 157.435,-84.8111"/>
<polygon fill="midnightblue" stroke="midnightblue" points="160.653,-86.217 162.3,-75.7511 154.486,-82.9051 160.653,-86.217"/>
</g>
<!-- Node5&#45;&gt;Node4 -->
<g id="edge5" class="edge"><title>Node5&#45;&gt;Node4</title>
<path fill="none" stroke="midnightblue" d="M162.211,-56.083C158.242,-48.6913 152.475,-37.9533 147.565,-28.8111"/>
<polygon fill="midnightblue" stroke="midnightblue" points="150.514,-26.9051 142.7,-19.7511 144.347,-30.217 150.514,-26.9051"/>
</g>
<!-- Node6&#45;&gt;Node3 -->
<g id="edge8" class="edge"><title>Node6&#45;&gt;Node3</title>
<path fill="none" stroke="midnightblue" d="M199.271,-168.324C188.163,-160.107 171.258,-147.602 158.017,-137.807"/>
<polygon fill="midnightblue" stroke="midnightblue" points="160.063,-134.967 149.942,-131.834 155.9,-140.595 160.063,-134.967"/>
</g>
<!-- Node7 -->
<g id="node7" class="node"><title>Node7</title>
<g id="a_node7"><a xlink:title=" ">
<polygon fill="none" stroke="#bfbfbf" points="185,-112.5 185,-131.5 237,-131.5 237,-112.5 185,-112.5"/>
<text text-anchor="middle" x="211" y="-119.5" font-family="Helvetica,sans-Serif" font-size="10.00">memory</text>
</a>
</g>
</g>
<!-- Node6&#45;&gt;Node7 -->
<g id="edge7" class="edge"><title>Node6&#45;&gt;Node7</title>
<path fill="none" stroke="midnightblue" d="M211,-168.083C211,-161.006 211,-150.861 211,-141.986"/>
<polygon fill="midnightblue" stroke="midnightblue" points="214.5,-141.751 211,-131.751 207.5,-141.751 214.5,-141.751"/>
</g>
</g>
</svg>
