<?xml version="1.0" encoding="UTF-8" standalone="no"?>
<!DOCTYPE svg PUBLIC "-//W3C//DTD SVG 1.1//EN"
 "http://www.w3.org/Graphics/SVG/1.1/DTD/svg11.dtd">
<!-- Generated by graphviz version 2.38.0 (20140413.2041)
 -->
<!-- Title: gesturelistener.h Pages: 1 -->
<svg width="166pt" height="196pt"
 viewBox="0.00 0.00 166.00 196.00" xmlns="http://www.w3.org/2000/svg" xmlns:xlink="http://www.w3.org/1999/xlink">
<g id="graph0" class="graph" transform="scale(1 1) rotate(0) translate(4 192)">
<title>gesturelistener.h</title>
<!-- Node1 -->
<g id="node1" class="node"><title>Node1</title>
<g id="a_node1"><a xlink:title=" ">
<polygon fill="#bfbfbf" stroke="black" points="17.5,-168.5 17.5,-187.5 106.5,-187.5 106.5,-168.5 17.5,-168.5"/>
<text text-anchor="middle" x="62" y="-175.5" font-family="Helvetica,sans-Serif" font-size="10.00">gesturelistener.h</text>
</a>
</g>
</g>
<!-- Node2 -->
<g id="node2" class="node"><title>Node2</title>
<g id="a_node2"><a xlink:title=" ">
<polygon fill="none" stroke="#bfbfbf" points="0,-112.5 0,-131.5 52,-131.5 52,-112.5 0,-112.5"/>
<text text-anchor="middle" x="26" y="-119.5" font-family="Helvetica,sans-Serif" font-size="10.00">memory</text>
</a>
</g>
</g>
<!-- Node1&#45;&gt;Node2 -->
<g id="edge1" class="edge"><title>Node1&#45;&gt;Node2</title>
<path fill="none" stroke="midnightblue" d="M56.0553,-168.083C51.0227,-160.534 43.6632,-149.495 37.4865,-140.23"/>
<polygon fill="midnightblue" stroke="midnightblue" points="40.2933,-138.13 31.8341,-131.751 34.4689,-142.013 40.2933,-138.13"/>
</g>
<!-- Node3 -->
<g id="node3" class="node"><title>Node3</title>
<g id="a_node3"><a xlink:href="gesture_8h.html" target="_top" xlink:title=" ">
<polygon fill="none" stroke="black" points="70.5,-112.5 70.5,-131.5 127.5,-131.5 127.5,-112.5 70.5,-112.5"/>
<text text-anchor="middle" x="99" y="-119.5" font-family="Helvetica,sans-Serif" font-size="10.00">gesture.h</text>
</a>
</g>
</g>
<!-- Node1&#45;&gt;Node3 -->
<g id="edge2" class="edge"><title>Node1&#45;&gt;Node3</title>
<path fill="none" stroke="midnightblue" d="M68.1098,-168.083C73.2822,-160.534 80.8461,-149.495 87.1944,-140.23"/>
<polygon fill="midnightblue" stroke="midnightblue" points="90.2388,-141.979 93.0039,-131.751 84.4643,-138.022 90.2388,-141.979"/>
</g>
<!-- Node4 -->
<g id="node4" class="node"><title>Node4</title>
<g id="a_node4"><a xlink:title=" ">
<polygon fill="none" stroke="#bfbfbf" points="74.5,-0.5 74.5,-19.5 123.5,-19.5 123.5,-0.5 74.5,-0.5"/>
<text text-anchor="middle" x="99" y="-7.5" font-family="Helvetica,sans-Serif" font-size="10.00">stdint.h</text>
</a>
</g>
</g>
<!-- Node3&#45;&gt;Node4 -->
<g id="edge3" class="edge"><title>Node3&#45;&gt;Node4</title>
<path fill="none" stroke="midnightblue" d="M96.1631,-112.201C92.4832,-99.7353 86.7824,-76.2018 89,-56 89.9726,-47.1398 91.9917,-37.4716 93.9626,-29.3755"/>
<polygon fill="midnightblue" stroke="midnightblue" points="97.3926,-30.0919 96.5176,-19.5332 90.6171,-28.333 97.3926,-30.0919"/>
</g>
<!-- Node5 -->
<g id="node5" class="node"><title>Node5</title>
<g id="a_node5"><a xlink:href="types_8h.html" target="_top" xlink:title=" ">
<polygon fill="none" stroke="black" points="98,-56.5 98,-75.5 158,-75.5 158,-56.5 98,-56.5"/>
<text text-anchor="middle" x="128" y="-63.5" font-family="Helvetica,sans-Serif" font-size="10.00">sr/types.h</text>
</a>
</g>
</g>
<!-- Node3&#45;&gt;Node5 -->
<g id="edge4" class="edge"><title>Node3&#45;&gt;Node5</title>
<path fill="none" stroke="midnightblue" d="M103.789,-112.083C107.758,-104.691 113.525,-93.9533 118.435,-84.8111"/>
<polygon fill="midnightblue" stroke="midnightblue" points="121.653,-86.217 123.3,-75.7511 115.486,-82.9051 121.653,-86.217"/>
</g>
<!-- Node5&#45;&gt;Node4 -->
<g id="edge5" class="edge"><title>Node5&#45;&gt;Node4</title>
<path fill="none" stroke="midnightblue" d="M123.211,-56.083C119.242,-48.6913 113.475,-37.9533 108.565,-28.8111"/>
<polygon fill="midnightblue" stroke="midnightblue" points="111.514,-26.9051 103.7,-19.7511 105.347,-30.217 111.514,-26.9051"/>
</g>
</g>
</svg>
