<?xml version="1.0" encoding="UTF-8" standalone="no"?>
<!DOCTYPE svg PUBLIC "-//W3C//DTD SVG 1.1//EN"
 "http://www.w3.org/Graphics/SVG/1.1/DTD/svg11.dtd">
<!-- Generated by graphviz version 2.38.0 (20140413.2041)
 -->
<!-- Title: gesture.h Pages: 1 -->
<svg width="149pt" height="196pt"
 viewBox="0.00 0.00 148.51 196.00" xmlns="http://www.w3.org/2000/svg" xmlns:xlink="http://www.w3.org/1999/xlink">
<g id="graph0" class="graph" transform="scale(1 1) rotate(0) translate(4 192)">
<title>gesture.h</title>
<!-- Node1 -->
<g id="node1" class="node"><title>Node1</title>
<g id="a_node1"><a xlink:title=" ">
<polygon fill="#bfbfbf" stroke="black" points="55.5,-168.5 55.5,-187.5 112.5,-187.5 112.5,-168.5 55.5,-168.5"/>
<text text-anchor="middle" x="84" y="-175.5" font-family="Helvetica,sans-Serif" font-size="10.00">gesture.h</text>
</a>
</g>
</g>
<!-- Node2 -->
<g id="node2" class="node"><title>Node2</title>
<g id="a_node2"><a xlink:href="gestureanalyser_8h.html" target="_top" xlink:title=" ">
<polygon fill="none" stroke="black" points="0,-0.5 0,-19.5 94,-19.5 94,-0.5 0,-0.5"/>
<text text-anchor="middle" x="47" y="-7.5" font-family="Helvetica,sans-Serif" font-size="10.00">gestureanalyser.h</text>
</a>
</g>
</g>
<!-- Node1&#45;&gt;Node2 -->
<g id="edge1" class="edge"><title>Node1&#45;&gt;Node2</title>
<path fill="none" stroke="midnightblue" d="M58.8226,-163C47.8119,-155.401 36.0448,-144.906 30,-132 11.8246,-93.1948 32.9168,-40.2921 42.6238,-19.7004"/>
<polygon fill="midnightblue" stroke="midnightblue" points="57.0566,-166.025 67.367,-168.464 60.8276,-160.128 57.0566,-166.025"/>
</g>
<!-- Node3 -->
<g id="node3" class="node"><title>Node3</title>
<g id="a_node3"><a xlink:href="gesturelistener_8h.html" target="_top" xlink:title=" ">
<polygon fill="none" stroke="black" points="39.5,-112.5 39.5,-131.5 128.5,-131.5 128.5,-112.5 39.5,-112.5"/>
<text text-anchor="middle" x="84" y="-119.5" font-family="Helvetica,sans-Serif" font-size="10.00">gesturelistener.h</text>
</a>
</g>
</g>
<!-- Node1&#45;&gt;Node3 -->
<g id="edge2" class="edge"><title>Node1&#45;&gt;Node3</title>
<path fill="none" stroke="midnightblue" d="M84,-157.805C84,-148.91 84,-138.78 84,-131.751"/>
<polygon fill="midnightblue" stroke="midnightblue" points="80.5001,-158.083 84,-168.083 87.5001,-158.083 80.5001,-158.083"/>
</g>
<!-- Node4 -->
<g id="node4" class="node"><title>Node4</title>
<g id="a_node4"><a xlink:href="gesturestream_8h.html" target="_top" xlink:title=" ">
<polygon fill="none" stroke="black" points="40.5,-56.5 40.5,-75.5 127.5,-75.5 127.5,-56.5 40.5,-56.5"/>
<text text-anchor="middle" x="84" y="-63.5" font-family="Helvetica,sans-Serif" font-size="10.00">gesturestream.h</text>
</a>
</g>
</g>
<!-- Node1&#45;&gt;Node4 -->
<g id="edge5" class="edge"><title>Node1&#45;&gt;Node4</title>
<path fill="none" stroke="midnightblue" d="M109.177,-163C120.188,-155.401 131.955,-144.906 138,-132 148.828,-108.883 119.99,-87.1621 100.405,-75.6192"/>
<polygon fill="midnightblue" stroke="midnightblue" points="107.172,-160.128 100.633,-168.464 110.943,-166.025 107.172,-160.128"/>
</g>
<!-- Node3&#45;&gt;Node4 -->
<g id="edge3" class="edge"><title>Node3&#45;&gt;Node4</title>
<path fill="none" stroke="midnightblue" d="M84,-101.805C84,-92.9102 84,-82.7798 84,-75.7511"/>
<polygon fill="midnightblue" stroke="midnightblue" points="80.5001,-102.083 84,-112.083 87.5001,-102.083 80.5001,-102.083"/>
</g>
<!-- Node4&#45;&gt;Node2 -->
<g id="edge4" class="edge"><title>Node4&#45;&gt;Node2</title>
<path fill="none" stroke="midnightblue" d="M72.0542,-47.5656C65.6883,-38.2747 58.1332,-27.2484 52.9961,-19.7511"/>
<polygon fill="midnightblue" stroke="midnightblue" points="69.3506,-49.812 77.8902,-56.083 75.1251,-45.8553 69.3506,-49.812"/>
</g>
</g>
</svg>
