<?xml version="1.0" encoding="UTF-8" standalone="no"?>
<!DOCTYPE svg PUBLIC "-//W3C//DTD SVG 1.1//EN"
 "http://www.w3.org/Graphics/SVG/1.1/DTD/svg11.dtd">
<!-- Generated by graphviz version 2.38.0 (20140413.2041)
 -->
<!-- Title: API Pages: 1 -->
<svg width="314pt" height="873pt"
 viewBox="0.00 0.00 314.00 872.66" xmlns="http://www.w3.org/2000/svg" xmlns:xlink="http://www.w3.org/1999/xlink">
<g id="graph0" class="graph" transform="scale(1 1) rotate(0) translate(4 868.662)">
<title>API</title>
<!-- Node1 -->
<g id="node1" class="node"><title>Node1</title>
<g id="a_node1"><a xlink:title="Application Programming Interface to be used by C++ SR applications.">
<polygon fill="#bfbfbf" stroke="black" points="32,-437.162 0,-437.162 0,-418.162 32,-418.162 32,-437.162"/>
<text text-anchor="middle" x="16" y="-425.162" font-family="Helvetica,sans-Serif" font-size="10.00">API</text>
</a>
</g>
</g>
<!-- Node4 -->
<g id="node2" class="node"><title>Node4</title>
<g id="a_node2"><a xlink:href="group__Application.html" target="_top" xlink:title="Classes that enable applications to get access to data about other SR Applications.">
<polygon fill="none" stroke="black" points="291.5,-849.162 226.5,-849.162 226.5,-830.162 291.5,-830.162 291.5,-849.162"/>
<text text-anchor="middle" x="259" y="-837.162" font-family="Helvetica,sans-Serif" font-size="10.00">Application</text>
</a>
</g>
</g>
<!-- Node1&#45;&gt;Node4 -->
<g id="edge3" class="edge"><title>Node1&#45;&gt;Node4</title>
<path fill="none" stroke="orange" stroke-dasharray="5,2" d="M17.101,-437.265C17.7943,-494.454 22.678,-788.634 50,-816.662 95.7756,-863.62 180.405,-855.794 226.341,-847.093"/>
<text text-anchor="middle" x="122" y="-856.662" font-family="Helvetica,sans-Serif" font-size="10.00">SR::ApplicationSense</text>
</g>
<!-- Node5 -->
<g id="node3" class="node"><title>Node5</title>
<g id="a_node3"><a xlink:href="group__Camera.html" target="_top" xlink:title="Classes that enable applications to get access to video input.">
<polygon fill="none" stroke="black" points="284,-727.162 234,-727.162 234,-708.162 284,-708.162 284,-727.162"/>
<text text-anchor="middle" x="259" y="-715.162" font-family="Helvetica,sans-Serif" font-size="10.00">Camera</text>
</a>
</g>
</g>
<!-- Node1&#45;&gt;Node5 -->
<g id="edge4" class="edge"><title>Node1&#45;&gt;Node5</title>
<path fill="none" stroke="orange" stroke-dasharray="5,2" d="M16.673,-437.412C15.4277,-481.052 12.7733,-657.91 50,-694.662 62.8949,-707.392 182.011,-714.249 233.962,-716.656"/>
<text text-anchor="middle" x="122" y="-804.662" font-family="Helvetica,sans-Serif" font-size="10.00">SR::Camera</text>
<text text-anchor="start" x="50" y="-793.662" font-family="Helvetica,sans-Serif" font-size="10.00">SR::CameraControllerUnavailable</text>
<text text-anchor="middle" x="122" y="-782.662" font-family="Helvetica,sans-Serif" font-size="10.00">Exception</text>
<text text-anchor="middle" x="122" y="-771.662" font-family="Helvetica,sans-Serif" font-size="10.00">SR::CameraController</text>
<text text-anchor="middle" x="122" y="-760.662" font-family="Helvetica,sans-Serif" font-size="10.00">SR::UniqueCameraController</text>
<text text-anchor="middle" x="122" y="-749.662" font-family="Helvetica,sans-Serif" font-size="10.00">SR_videoFrame</text>
<text text-anchor="middle" x="122" y="-738.662" font-family="Helvetica,sans-Serif" font-size="10.00">SR::VideoFrame</text>
<text text-anchor="middle" x="122" y="-727.662" font-family="Helvetica,sans-Serif" font-size="10.00">SR::VideoListener</text>
<text text-anchor="middle" x="122" y="-716.662" font-family="Helvetica,sans-Serif" font-size="10.00">SR::VideoStream</text>
</g>
<!-- Node2 -->
<g id="node4" class="node"><title>Node2</title>
<g id="a_node4"><a xlink:href="group__Core.html" target="_top" xlink:title="Classes used to shape the foundation of the SR system.">
<polygon fill="none" stroke="black" points="277.5,-638.162 240.5,-638.162 240.5,-619.162 277.5,-619.162 277.5,-638.162"/>
<text text-anchor="middle" x="259" y="-626.162" font-family="Helvetica,sans-Serif" font-size="10.00">Core</text>
</a>
</g>
</g>
<!-- Node1&#45;&gt;Node2 -->
<g id="edge1" class="edge"><title>Node1&#45;&gt;Node2</title>
<path fill="none" stroke="orange" stroke-dasharray="5,2" d="M17.3126,-437.237C18.6234,-470.949 24.8417,-583.368 50,-606.662 63.8556,-619.49 192.508,-625.996 240.266,-627.984"/>
<text text-anchor="middle" x="122" y="-682.662" font-family="Helvetica,sans-Serif" font-size="10.00">SR::SRContext</text>
<text text-anchor="middle" x="122" y="-671.662" font-family="Helvetica,sans-Serif" font-size="10.00">SR::InputStream</text>
<text text-anchor="middle" x="122" y="-660.662" font-family="Helvetica,sans-Serif" font-size="10.00">SR::Sense</text>
<text text-anchor="middle" x="122" y="-649.662" font-family="Helvetica,sans-Serif" font-size="10.00">SR::Transformation</text>
<text text-anchor="middle" x="122" y="-638.662" font-family="Helvetica,sans-Serif" font-size="10.00">SR::Log</text>
<text text-anchor="middle" x="122" y="-627.662" font-family="Helvetica,sans-Serif" font-size="10.00">SR::WorldObject</text>
</g>
<!-- Node3 -->
<g id="node5" class="node"><title>Node3</title>
<g id="a_node5"><a xlink:href="group__Core__Network.html" target="_top" xlink:title="Classes that form the foundation of cross&#45;application communication for the SR system.">
<polygon fill="none" stroke="black" points="297.5,-582.162 220.5,-582.162 220.5,-563.162 297.5,-563.162 297.5,-582.162"/>
<text text-anchor="middle" x="259" y="-570.162" font-family="Helvetica,sans-Serif" font-size="10.00">Core_Network</text>
</a>
</g>
</g>
<!-- Node1&#45;&gt;Node3 -->
<g id="edge2" class="edge"><title>Node1&#45;&gt;Node3</title>
<path fill="none" stroke="orange" stroke-dasharray="5,2" d="M18.2016,-437.438C21.6591,-463.861 32.5179,-535.726 50,-550.662 74.8475,-571.891 167.585,-574.143 220.458,-573.609"/>
<text text-anchor="middle" x="122" y="-597.662" font-family="Helvetica,sans-Serif" font-size="10.00">SR::NetworkInterface</text>
<text text-anchor="middle" x="122" y="-586.662" font-family="Helvetica,sans-Serif" font-size="10.00">SR_packet</text>
<text text-anchor="middle" x="122" y="-575.662" font-family="Helvetica,sans-Serif" font-size="10.00">SR::Receiver</text>
</g>
<!-- Node6 -->
<g id="node6" class="node"><title>Node6</title>
<g id="a_node6"><a xlink:href="group__EyeTracker.html" target="_top" xlink:title="Classes that enable applications to get access to data about the position of the user&#39;s eyes.">
<polygon fill="none" stroke="black" points="292,-504.162 226,-504.162 226,-485.162 292,-485.162 292,-504.162"/>
<text text-anchor="middle" x="259" y="-492.162" font-family="Helvetica,sans-Serif" font-size="10.00">EyeTracker</text>
</a>
</g>
</g>
<!-- Node1&#45;&gt;Node6 -->
<g id="edge5" class="edge"><title>Node1&#45;&gt;Node6</title>
<path fill="none" stroke="orange" stroke-dasharray="5,2" d="M21.1984,-437.465C26.321,-448.105 36.0573,-464.647 50,-472.662 79.1206,-489.401 174.777,-493.436 225.597,-494.387"/>
<text text-anchor="middle" x="122" y="-539.662" font-family="Helvetica,sans-Serif" font-size="10.00">SR_eyePair</text>
<text text-anchor="middle" x="122" y="-528.662" font-family="Helvetica,sans-Serif" font-size="10.00">SR::EyePairListener</text>
<text text-anchor="middle" x="122" y="-517.662" font-family="Helvetica,sans-Serif" font-size="10.00">SR::EyePairStream</text>
<text text-anchor="middle" x="122" y="-506.662" font-family="Helvetica,sans-Serif" font-size="10.00">SR::EyeTracker</text>
<text text-anchor="middle" x="122" y="-495.662" font-family="Helvetica,sans-Serif" font-size="10.00">SR::PredictingEyeTracker</text>
</g>
<!-- Node7 -->
<g id="node7" class="node"><title>Node7</title>
<g id="a_node7"><a xlink:href="group__GestureAnalyser.html" target="_top" xlink:title="Classes that enable applications to get access to data about gestures performed by the user.">
<polygon fill="none" stroke="black" points="303.5,-437.162 214.5,-437.162 214.5,-418.162 303.5,-418.162 303.5,-437.162"/>
<text text-anchor="middle" x="259" y="-425.162" font-family="Helvetica,sans-Serif" font-size="10.00">GestureAnalyser</text>
</a>
</g>
</g>
<!-- Node1&#45;&gt;Node7 -->
<g id="edge6" class="edge"><title>Node1&#45;&gt;Node7</title>
<path fill="none" stroke="orange" stroke-dasharray="5,2" d="M32.0756,-427.662C67.9365,-427.662 159.42,-427.662 214.348,-427.662"/>
<text text-anchor="middle" x="122" y="-463.662" font-family="Helvetica,sans-Serif" font-size="10.00">SR_gesture</text>
<text text-anchor="middle" x="122" y="-452.662" font-family="Helvetica,sans-Serif" font-size="10.00">SR::GestureAnalyser</text>
<text text-anchor="middle" x="122" y="-441.662" font-family="Helvetica,sans-Serif" font-size="10.00">SR::GestureListener</text>
<text text-anchor="middle" x="122" y="-430.662" font-family="Helvetica,sans-Serif" font-size="10.00">SR::GestureStream</text>
</g>
<!-- Node8 -->
<g id="node8" class="node"><title>Node8</title>
<g id="a_node8"><a xlink:href="group__HandTracker.html" target="_top" xlink:title="Classes that enable applications to get access to data about the pose of the user&#39;s hands.">
<polygon fill="none" stroke="black" points="294.5,-315.162 223.5,-315.162 223.5,-296.162 294.5,-296.162 294.5,-315.162"/>
<text text-anchor="middle" x="259" y="-303.162" font-family="Helvetica,sans-Serif" font-size="10.00">HandTracker</text>
</a>
</g>
</g>
<!-- Node1&#45;&gt;Node8 -->
<g id="edge7" class="edge"><title>Node1&#45;&gt;Node8</title>
<path fill="none" stroke="orange" stroke-dasharray="5,2" d="M16.8439,-418.094C17.078,-397.311 20.8489,-348.039 50,-324.662 99.3639,-285.075 178.075,-290.628 223.188,-298.176"/>
<text text-anchor="middle" x="122" y="-415.662" font-family="Helvetica,sans-Serif" font-size="10.00">SR_handEvent</text>
<text text-anchor="middle" x="122" y="-404.662" font-family="Helvetica,sans-Serif" font-size="10.00">SR::HandEventStream</text>
<text text-anchor="middle" x="122" y="-393.662" font-family="Helvetica,sans-Serif" font-size="10.00">SR_thumb</text>
<text text-anchor="middle" x="122" y="-382.662" font-family="Helvetica,sans-Serif" font-size="10.00">SR_finger</text>
<text text-anchor="middle" x="122" y="-371.662" font-family="Helvetica,sans-Serif" font-size="10.00">SR_handPose</text>
<text text-anchor="middle" x="122" y="-360.662" font-family="Helvetica,sans-Serif" font-size="10.00">SR::HandEventListener</text>
<text text-anchor="middle" x="122" y="-349.662" font-family="Helvetica,sans-Serif" font-size="10.00">SR::HandPoseListener</text>
<text text-anchor="middle" x="122" y="-338.662" font-family="Helvetica,sans-Serif" font-size="10.00">SR::HandPoseStream</text>
<text text-anchor="middle" x="122" y="-327.662" font-family="Helvetica,sans-Serif" font-size="10.00">SR::HandTracker</text>
</g>
<!-- Node10 -->
<g id="node9" class="node"><title>Node10</title>
<g id="a_node9"><a xlink:href="group__HeadPoseTracker.html" target="_top" xlink:title="Classes that enable applications to get access to data about the pose of the user&#39;s head.">
<polygon fill="none" stroke="black" points="306,-259.162 212,-259.162 212,-240.162 306,-240.162 306,-259.162"/>
<text text-anchor="middle" x="259" y="-247.162" font-family="Helvetica,sans-Serif" font-size="10.00">HeadPoseTracker</text>
</a>
</g>
</g>
<!-- Node1&#45;&gt;Node10 -->
<g id="edge9" class="edge"><title>Node1&#45;&gt;Node10</title>
<path fill="none" stroke="orange" stroke-dasharray="5,2" d="M17.3335,-417.935C18.6915,-384.761 24.9909,-276.943 50,-255.662 73.455,-235.703 157.931,-239.668 211.742,-244.544"/>
<text text-anchor="middle" x="122" y="-280.662" font-family="Helvetica,sans-Serif" font-size="10.00">SR::HeadPoseListener</text>
<text text-anchor="middle" x="122" y="-269.662" font-family="Helvetica,sans-Serif" font-size="10.00">SR::HeadPoseStream</text>
<text text-anchor="middle" x="122" y="-258.662" font-family="Helvetica,sans-Serif" font-size="10.00">SR::HeadPoseTracker</text>
</g>
<!-- Node9 -->
<g id="node10" class="node"><title>Node9</title>
<g id="a_node10"><a xlink:href="group__HeadTracker.html" target="_top" xlink:title="Classes that enable applications to get access to data about the position of the user&#39;s head.">
<polygon fill="none" stroke="black" points="294.5,-192.162 223.5,-192.162 223.5,-173.162 294.5,-173.162 294.5,-192.162"/>
<text text-anchor="middle" x="259" y="-180.162" font-family="Helvetica,sans-Serif" font-size="10.00">HeadTracker</text>
</a>
</g>
</g>
<!-- Node1&#45;&gt;Node9 -->
<g id="edge8" class="edge"><title>Node1&#45;&gt;Node9</title>
<path fill="none" stroke="orange" stroke-dasharray="5,2" d="M16.7931,-417.913C16.1557,-377.34 16.0127,-222.543 50,-191.662 98.2863,-147.788 181.885,-161.309 226.996,-173.1"/>
<text text-anchor="middle" x="122" y="-227.662" font-family="Helvetica,sans-Serif" font-size="10.00">SR_head</text>
<text text-anchor="middle" x="122" y="-216.662" font-family="Helvetica,sans-Serif" font-size="10.00">SR::HeadListener</text>
<text text-anchor="middle" x="122" y="-205.662" font-family="Helvetica,sans-Serif" font-size="10.00">SR::HeadStream</text>
<text text-anchor="middle" x="122" y="-194.662" font-family="Helvetica,sans-Serif" font-size="10.00">SR::HeadTracker</text>
</g>
<!-- Node11 -->
<g id="node11" class="node"><title>Node11</title>
<g id="a_node11"><a xlink:href="group__System.html" target="_top" xlink:title="Classes that enable applications to get access to data about SR system.">
<polygon fill="none" stroke="black" points="284,-114.162 234,-114.162 234,-95.1617 284,-95.1617 284,-114.162"/>
<text text-anchor="middle" x="259" y="-102.162" font-family="Helvetica,sans-Serif" font-size="10.00">System</text>
</a>
</g>
</g>
<!-- Node1&#45;&gt;Node11 -->
<g id="edge10" class="edge"><title>Node1&#45;&gt;Node11</title>
<path fill="none" stroke="orange" stroke-dasharray="5,2" d="M17.226,-417.939C18.5296,-366.066 25.8922,-123.452 50,-101.662 76.3233,-77.8685 184.785,-92.3692 233.781,-100.395"/>
<text text-anchor="middle" x="122" y="-148.662" font-family="Helvetica,sans-Serif" font-size="10.00">SR_systemEvent</text>
<text text-anchor="middle" x="122" y="-137.662" font-family="Helvetica,sans-Serif" font-size="10.00">SR::SystemEvent</text>
<text text-anchor="middle" x="122" y="-126.662" font-family="Helvetica,sans-Serif" font-size="10.00">SR::SystemEventListener</text>
<text text-anchor="middle" x="122" y="-115.662" font-family="Helvetica,sans-Serif" font-size="10.00">SR::SystemEventStream</text>
<text text-anchor="middle" x="122" y="-104.662" font-family="Helvetica,sans-Serif" font-size="10.00">SR::SystemSense</text>
</g>
<!-- Node12 -->
<g id="node12" class="node"><title>Node12</title>
<g id="a_node12"><a xlink:href="group__WeaverTracker.html" target="_top" xlink:title="Classes that enable applications to get access to weaving data.">
<polygon fill="none" stroke="black" points="299.5,-36.1617 218.5,-36.1617 218.5,-17.1617 299.5,-17.1617 299.5,-36.1617"/>
<text text-anchor="middle" x="259" y="-24.1617" font-family="Helvetica,sans-Serif" font-size="10.00">WeaverTracker</text>
</a>
</g>
</g>
<!-- Node1&#45;&gt;Node12 -->
<g id="edge11" class="edge"><title>Node1&#45;&gt;Node12</title>
<path fill="none" stroke="orange" stroke-dasharray="5,2" d="M17.0393,-418.15C17.3748,-360.188 20.5372,-56.0513 50,-28.6617 99.5923,17.4408 188.12,-2.91681 231.945,-17.1122"/>
<text text-anchor="middle" x="122" y="-75.6617" font-family="Helvetica,sans-Serif" font-size="10.00">SR::PredictingWeaverTracker</text>
<text text-anchor="middle" x="122" y="-64.6617" font-family="Helvetica,sans-Serif" font-size="10.00">SR_weaverPosition</text>
<text text-anchor="middle" x="122" y="-53.6617" font-family="Helvetica,sans-Serif" font-size="10.00">SR::WeaverPositionListener</text>
<text text-anchor="middle" x="122" y="-42.6617" font-family="Helvetica,sans-Serif" font-size="10.00">SR::WeaverPositionStream</text>
<text text-anchor="middle" x="122" y="-31.6617" font-family="Helvetica,sans-Serif" font-size="10.00">SR::WeaverTracker</text>
</g>
</g>
</svg>
