<?xml version="1.0" encoding="UTF-8" standalone="no"?>
<!DOCTYPE svg PUBLIC "-//W3C//DTD SVG 1.1//EN"
 "http://www.w3.org/Graphics/SVG/1.1/DTD/svg11.dtd">
<!-- Generated by graphviz version 2.38.0 (20140413.2041)
 -->
<!-- Title: handevent.h Pages: 1 -->
<svg width="285pt" height="196pt"
 viewBox="0.00 0.00 284.66 196.00" xmlns="http://www.w3.org/2000/svg" xmlns:xlink="http://www.w3.org/1999/xlink">
<g id="graph0" class="graph" transform="scale(1 1) rotate(0) translate(4 192)">
<title>handevent.h</title>
<!-- Node1 -->
<g id="node1" class="node"><title>Node1</title>
<g id="a_node1"><a xlink:title=" ">
<polygon fill="#bfbfbf" stroke="black" points="44.6595,-168.5 44.6595,-187.5 112.659,-187.5 112.659,-168.5 44.6595,-168.5"/>
<text text-anchor="middle" x="78.6595" y="-175.5" font-family="Helvetica,sans-Serif" font-size="10.00">handevent.h</text>
</a>
</g>
</g>
<!-- Node2 -->
<g id="node2" class="node"><title>Node2</title>
<g id="a_node2"><a xlink:href="handeventstream_8h.html" target="_top" xlink:title=" ">
<polygon fill="none" stroke="black" points="11.6595,-56.5 11.6595,-75.5 109.659,-75.5 109.659,-56.5 11.6595,-56.5"/>
<text text-anchor="middle" x="60.6595" y="-63.5" font-family="Helvetica,sans-Serif" font-size="10.00">handeventstream.h</text>
</a>
</g>
</g>
<!-- Node1&#45;&gt;Node2 -->
<g id="edge1" class="edge"><title>Node1&#45;&gt;Node2</title>
<path fill="none" stroke="midnightblue" d="M69.2268,-159.247C65.4511,-151.173 61.5526,-141.351 59.6595,-132 55.6283,-112.089 57.7604,-88.0429 59.3815,-75.5203"/>
<polygon fill="midnightblue" stroke="midnightblue" points="66.1845,-160.989 73.7836,-168.372 72.4471,-157.862 66.1845,-160.989"/>
</g>
<!-- Node3 -->
<g id="node3" class="node"><title>Node3</title>
<g id="a_node3"><a xlink:href="handtracker_8h.html" target="_top" xlink:title=" ">
<polygon fill="none" stroke="black" points="22.6595,-0.5 22.6595,-19.5 98.6595,-19.5 98.6595,-0.5 22.6595,-0.5"/>
<text text-anchor="middle" x="60.6595" y="-7.5" font-family="Helvetica,sans-Serif" font-size="10.00">handtracker.h</text>
</a>
</g>
</g>
<!-- Node1&#45;&gt;Node3 -->
<g id="edge7" class="edge"><title>Node1&#45;&gt;Node3</title>
<path fill="none" stroke="midnightblue" d="M61.7431,-161.51C43.1216,-143.197 14.2845,-110.783 2.65945,-76 -0.15813,-67.5695 -1.25066,-63.9827 2.65945,-56 10.8446,-39.2896 28.5584,-27.003 42.27,-19.5294"/>
<polygon fill="midnightblue" stroke="midnightblue" points="59.3701,-164.083 69.0183,-168.461 64.2058,-159.022 59.3701,-164.083"/>
</g>
<!-- Node4 -->
<g id="node4" class="node"><title>Node4</title>
<g id="a_node4"><a xlink:href="handposelistener_8h.html" target="_top" xlink:title=" ">
<polygon fill="none" stroke="black" points="68.6595,-112.5 68.6595,-131.5 166.659,-131.5 166.659,-112.5 68.6595,-112.5"/>
<text text-anchor="middle" x="117.659" y="-119.5" font-family="Helvetica,sans-Serif" font-size="10.00">handposelistener.h</text>
</a>
</g>
</g>
<!-- Node1&#45;&gt;Node4 -->
<g id="edge3" class="edge"><title>Node1&#45;&gt;Node4</title>
<path fill="none" stroke="midnightblue" d="M91.0417,-159.855C97.7948,-150.505 105.868,-139.327 111.339,-131.751"/>
<polygon fill="midnightblue" stroke="midnightblue" points="88.1171,-157.927 85.0995,-168.083 93.7918,-162.025 88.1171,-157.927"/>
</g>
<!-- Node6 -->
<g id="node6" class="node"><title>Node6</title>
<g id="a_node6"><a xlink:href="handtrackers__c_8h.html" target="_top" xlink:title=" ">
<polygon fill="none" stroke="black" points="184.659,-112.5 184.659,-131.5 276.659,-131.5 276.659,-112.5 184.659,-112.5"/>
<text text-anchor="middle" x="230.659" y="-119.5" font-family="Helvetica,sans-Serif" font-size="10.00">handtrackers_c.h</text>
</a>
</g>
</g>
<!-- Node1&#45;&gt;Node6 -->
<g id="edge8" class="edge"><title>Node1&#45;&gt;Node6</title>
<path fill="none" stroke="midnightblue" d="M112.327,-165.039C140.927,-154.879 181.271,-140.546 206.687,-131.516"/>
<polygon fill="midnightblue" stroke="midnightblue" points="110.996,-161.798 102.744,-168.444 113.339,-168.394 110.996,-161.798"/>
</g>
<!-- Node2&#45;&gt;Node3 -->
<g id="edge2" class="edge"><title>Node2&#45;&gt;Node3</title>
<path fill="none" stroke="midnightblue" d="M60.6595,-45.8045C60.6595,-36.9102 60.6595,-26.7798 60.6595,-19.7511"/>
<polygon fill="midnightblue" stroke="midnightblue" points="57.1596,-46.083 60.6595,-56.083 64.1596,-46.083 57.1596,-46.083"/>
</g>
<!-- Node4&#45;&gt;Node2 -->
<g id="edge4" class="edge"><title>Node4&#45;&gt;Node2</title>
<path fill="none" stroke="midnightblue" d="M101.038,-105.253C90.9255,-95.6731 78.3829,-83.7906 69.9841,-75.8339"/>
<polygon fill="midnightblue" stroke="midnightblue" points="98.8347,-107.987 108.501,-112.324 103.649,-102.906 98.8347,-107.987"/>
</g>
<!-- Node5 -->
<g id="node5" class="node"><title>Node5</title>
<g id="a_node5"><a xlink:href="handposestream_8h.html" target="_top" xlink:title=" ">
<polygon fill="none" stroke="black" points="128.159,-56.5 128.159,-75.5 225.159,-75.5 225.159,-56.5 128.159,-56.5"/>
<text text-anchor="middle" x="176.659" y="-63.5" font-family="Helvetica,sans-Serif" font-size="10.00">handposestream.h</text>
</a>
</g>
</g>
<!-- Node4&#45;&gt;Node5 -->
<g id="edge5" class="edge"><title>Node4&#45;&gt;Node5</title>
<path fill="none" stroke="midnightblue" d="M134.554,-105.537C145.074,-95.9087 158.228,-83.8694 167.008,-75.8339"/>
<polygon fill="midnightblue" stroke="midnightblue" points="132.153,-102.99 127.139,-112.324 136.879,-108.154 132.153,-102.99"/>
</g>
<!-- Node5&#45;&gt;Node3 -->
<g id="edge6" class="edge"><title>Node5&#45;&gt;Node3</title>
<path fill="none" stroke="midnightblue" d="M148.94,-52.096C127.268,-42.0073 97.7574,-28.2697 78.954,-19.5164"/>
<polygon fill="midnightblue" stroke="midnightblue" points="147.736,-55.3962 158.279,-56.4435 150.69,-49.0501 147.736,-55.3962"/>
</g>
</g>
</svg>
