<?xml version="1.0" encoding="UTF-8" standalone="no"?>
<!DOCTYPE svg PUBLIC "-//W3C//DTD SVG 1.1//EN"
 "http://www.w3.org/Graphics/SVG/1.1/DTD/svg11.dtd">
<!-- Generated by graphviz version 2.38.0 (20140413.2041)
 -->
<!-- Title: handtrackers_c.h Pages: 1 -->
<svg width="331pt" height="274pt"
 viewBox="0.00 0.00 330.50 274.00" xmlns="http://www.w3.org/2000/svg" xmlns:xlink="http://www.w3.org/1999/xlink">
<g id="graph0" class="graph" transform="scale(1 1) rotate(0) translate(4 270)">
<title>handtrackers_c.h</title>
<!-- Node1 -->
<g id="node1" class="node"><title>Node1</title>
<g id="a_node1"><a xlink:title=" ">
<polygon fill="#bfbfbf" stroke="black" points="140.5,-246.5 140.5,-265.5 232.5,-265.5 232.5,-246.5 140.5,-246.5"/>
<text text-anchor="middle" x="186.5" y="-253.5" font-family="Helvetica,sans-Serif" font-size="10.00">handtrackers_c.h</text>
</a>
</g>
</g>
<!-- Node2 -->
<g id="node2" class="node"><title>Node2</title>
<g id="a_node2"><a xlink:href="core__c_8h.html" target="_top" xlink:title=" ">
<polygon fill="none" stroke="black" points="69,-185 69,-204 134,-204 134,-185 69,-185"/>
<text text-anchor="middle" x="101.5" y="-192" font-family="Helvetica,sans-Serif" font-size="10.00">sr/core_c.h</text>
</a>
</g>
</g>
<!-- Node1&#45;&gt;Node2 -->
<g id="edge1" class="edge"><title>Node1&#45;&gt;Node2</title>
<path fill="none" stroke="midnightblue" d="M174.322,-246.475C160.688,-236.931 138.368,-221.307 122.026,-209.868"/>
<polygon fill="midnightblue" stroke="midnightblue" points="123.855,-206.876 113.656,-204.009 119.841,-212.611 123.855,-206.876"/>
</g>
<!-- Node7 -->
<g id="node7" class="node"><title>Node7</title>
<g id="a_node7"><a xlink:href="handpose_8h.html" target="_top" xlink:title=" ">
<polygon fill="none" stroke="black" points="173.5,-112.5 173.5,-142.5 281.5,-142.5 281.5,-112.5 173.5,-112.5"/>
<text text-anchor="start" x="181.5" y="-130.5" font-family="Helvetica,sans-Serif" font-size="10.00">sr/sense/handtracker</text>
<text text-anchor="middle" x="227.5" y="-119.5" font-family="Helvetica,sans-Serif" font-size="10.00">/handpose.h</text>
</a>
</g>
</g>
<!-- Node1&#45;&gt;Node7 -->
<g id="edge7" class="edge"><title>Node1&#45;&gt;Node7</title>
<path fill="none" stroke="midnightblue" d="M188.157,-246.432C191.014,-232.217 197.353,-202.949 205.5,-179 208.555,-170.02 212.545,-160.418 216.287,-152.023"/>
<polygon fill="midnightblue" stroke="midnightblue" points="219.514,-153.383 220.496,-142.833 213.15,-150.468 219.514,-153.383"/>
</g>
<!-- Node9 -->
<g id="node9" class="node"><title>Node9</title>
<g id="a_node9"><a xlink:href="handevent_8h.html" target="_top" xlink:title=" ">
<polygon fill="none" stroke="black" points="214.5,-179.5 214.5,-209.5 322.5,-209.5 322.5,-179.5 214.5,-179.5"/>
<text text-anchor="start" x="222.5" y="-197.5" font-family="Helvetica,sans-Serif" font-size="10.00">sr/sense/handtracker</text>
<text text-anchor="middle" x="268.5" y="-186.5" font-family="Helvetica,sans-Serif" font-size="10.00">/handevent.h</text>
</a>
</g>
</g>
<!-- Node1&#45;&gt;Node9 -->
<g id="edge10" class="edge"><title>Node1&#45;&gt;Node9</title>
<path fill="none" stroke="midnightblue" d="M198.249,-246.475C209.354,-238.417 226.435,-226.023 240.973,-215.474"/>
<polygon fill="midnightblue" stroke="midnightblue" points="243.136,-218.229 249.174,-209.523 239.025,-212.563 243.136,-218.229"/>
</g>
<!-- Node3 -->
<g id="node3" class="node"><title>Node3</title>
<g id="a_node3"><a xlink:href="systemevent_8h.html" target="_top" xlink:title=" ">
<polygon fill="none" stroke="black" points="0,-118 0,-137 155,-137 155,-118 0,-118"/>
<text text-anchor="middle" x="77.5" y="-125" font-family="Helvetica,sans-Serif" font-size="10.00">sr/sense/system/systemevent.h</text>
</a>
</g>
</g>
<!-- Node2&#45;&gt;Node3 -->
<g id="edge2" class="edge"><title>Node2&#45;&gt;Node3</title>
<path fill="none" stroke="midnightblue" d="M98.2633,-184.734C94.6647,-174.988 88.7544,-158.981 84.1579,-146.532"/>
<polygon fill="midnightblue" stroke="midnightblue" points="87.4326,-145.296 80.6855,-137.127 80.8659,-147.721 87.4326,-145.296"/>
</g>
<!-- Node4 -->
<g id="node4" class="node"><title>Node4</title>
<g id="a_node4"><a xlink:href="types_8h.html" target="_top" xlink:title=" ">
<polygon fill="none" stroke="black" points="140.5,-56.5 140.5,-75.5 200.5,-75.5 200.5,-56.5 140.5,-56.5"/>
<text text-anchor="middle" x="170.5" y="-63.5" font-family="Helvetica,sans-Serif" font-size="10.00">sr/types.h</text>
</a>
</g>
</g>
<!-- Node3&#45;&gt;Node4 -->
<g id="edge3" class="edge"><title>Node3&#45;&gt;Node4</title>
<path fill="none" stroke="midnightblue" d="M90.8246,-117.975C105.88,-108.343 130.616,-92.5175 148.537,-81.0517"/>
<polygon fill="midnightblue" stroke="midnightblue" points="150.663,-83.8466 157.2,-75.5091 146.89,-77.9501 150.663,-83.8466"/>
</g>
<!-- Node5 -->
<g id="node5" class="node"><title>Node5</title>
<g id="a_node5"><a xlink:title=" ">
<polygon fill="none" stroke="#bfbfbf" points="146,-0.5 146,-19.5 195,-19.5 195,-0.5 146,-0.5"/>
<text text-anchor="middle" x="170.5" y="-7.5" font-family="Helvetica,sans-Serif" font-size="10.00">stdint.h</text>
</a>
</g>
</g>
<!-- Node3&#45;&gt;Node5 -->
<g id="edge5" class="edge"><title>Node3&#45;&gt;Node5</title>
<path fill="none" stroke="midnightblue" d="M73.625,-117.878C67.9028,-103.722 59.1305,-75.2099 71.5,-56 85.5933,-34.113 113.225,-22.7486 135.722,-16.9211"/>
<polygon fill="midnightblue" stroke="midnightblue" points="136.684,-20.2908 145.631,-14.6153 135.098,-13.473 136.684,-20.2908"/>
</g>
<!-- Node6 -->
<g id="node6" class="node"><title>Node6</title>
<g id="a_node6"><a xlink:title=" ">
<polygon fill="none" stroke="#bfbfbf" points="81,-56.5 81,-75.5 122,-75.5 122,-56.5 81,-56.5"/>
<text text-anchor="middle" x="101.5" y="-63.5" font-family="Helvetica,sans-Serif" font-size="10.00">string</text>
</a>
</g>
</g>
<!-- Node3&#45;&gt;Node6 -->
<g id="edge6" class="edge"><title>Node3&#45;&gt;Node6</title>
<path fill="none" stroke="midnightblue" d="M80.9386,-117.975C84.3961,-109.404 89.832,-95.9269 94.2464,-84.983"/>
<polygon fill="midnightblue" stroke="midnightblue" points="97.5728,-86.0924 98.0678,-75.5091 91.081,-83.4738 97.5728,-86.0924"/>
</g>
<!-- Node4&#45;&gt;Node5 -->
<g id="edge4" class="edge"><title>Node4&#45;&gt;Node5</title>
<path fill="none" stroke="midnightblue" d="M170.5,-56.083C170.5,-49.0059 170.5,-38.8611 170.5,-29.9865"/>
<polygon fill="midnightblue" stroke="midnightblue" points="174,-29.751 170.5,-19.7511 167,-29.7511 174,-29.751"/>
</g>
<!-- Node7&#45;&gt;Node4 -->
<g id="edge8" class="edge"><title>Node7&#45;&gt;Node4</title>
<path fill="none" stroke="midnightblue" d="M213.992,-112.399C205.538,-103.575 194.625,-92.1827 185.845,-83.0178"/>
<polygon fill="midnightblue" stroke="midnightblue" points="188.239,-80.4577 178.794,-75.6578 183.184,-85.3002 188.239,-80.4577"/>
</g>
<!-- Node8 -->
<g id="node8" class="node"><title>Node8</title>
<g id="a_node8"><a xlink:title=" ">
<polygon fill="none" stroke="#bfbfbf" points="219,-56.5 219,-75.5 266,-75.5 266,-56.5 219,-56.5"/>
<text text-anchor="middle" x="242.5" y="-63.5" font-family="Helvetica,sans-Serif" font-size="10.00">math.h</text>
</a>
</g>
</g>
<!-- Node7&#45;&gt;Node8 -->
<g id="edge9" class="edge"><title>Node7&#45;&gt;Node8</title>
<path fill="none" stroke="midnightblue" d="M231.055,-112.399C233.077,-104.377 235.635,-94.2328 237.819,-85.569"/>
<polygon fill="midnightblue" stroke="midnightblue" points="241.267,-86.21 240.317,-75.6578 234.479,-84.4988 241.267,-86.21"/>
</g>
<!-- Node9&#45;&gt;Node5 -->
<g id="edge11" class="edge"><title>Node9&#45;&gt;Node5</title>
<path fill="none" stroke="midnightblue" d="M276.498,-179.438C281.625,-169.585 287.808,-155.92 290.5,-143 298.52,-104.512 300.435,-85.5479 274.5,-56 256.606,-35.613 227.818,-24.1328 205.062,-17.879"/>
<polygon fill="midnightblue" stroke="midnightblue" points="205.644,-14.4163 195.091,-15.3603 203.929,-21.2031 205.644,-14.4163"/>
</g>
<!-- Node9&#45;&gt;Node7 -->
<g id="edge12" class="edge"><title>Node9&#45;&gt;Node7</title>
<path fill="none" stroke="midnightblue" d="M259.604,-179.396C254.392,-171.134 247.689,-160.507 241.756,-151.102"/>
<polygon fill="midnightblue" stroke="midnightblue" points="244.674,-149.167 236.379,-142.577 238.754,-152.902 244.674,-149.167"/>
</g>
</g>
</svg>
