<?xml version="1.0" encoding="UTF-8" standalone="no"?>
<!DOCTYPE svg PUBLIC "-//W3C//DTD SVG 1.1//EN"
 "http://www.w3.org/Graphics/SVG/1.1/DTD/svg11.dtd">
<!-- Generated by graphviz version 2.38.0 (20140413.2041)
 -->
<!-- Title: handposelistener.h Pages: 1 -->
<svg width="196pt" height="252pt"
 viewBox="0.00 0.00 196.00 252.00" xmlns="http://www.w3.org/2000/svg" xmlns:xlink="http://www.w3.org/1999/xlink">
<g id="graph0" class="graph" transform="scale(1 1) rotate(0) translate(4 248)">
<title>handposelistener.h</title>
<!-- Node1 -->
<g id="node1" class="node"><title>Node1</title>
<g id="a_node1"><a xlink:title=" ">
<polygon fill="#bfbfbf" stroke="black" points="74,-224.5 74,-243.5 172,-243.5 172,-224.5 74,-224.5"/>
<text text-anchor="middle" x="123" y="-231.5" font-family="Helvetica,sans-Serif" font-size="10.00">handposelistener.h</text>
</a>
</g>
</g>
<!-- Node2 -->
<g id="node2" class="node"><title>Node2</title>
<g id="a_node2"><a xlink:href="handpose_8h.html" target="_top" xlink:title=" ">
<polygon fill="none" stroke="black" points="58.5,-112.5 58.5,-131.5 125.5,-131.5 125.5,-112.5 58.5,-112.5"/>
<text text-anchor="middle" x="92" y="-119.5" font-family="Helvetica,sans-Serif" font-size="10.00">handpose.h</text>
</a>
</g>
</g>
<!-- Node1&#45;&gt;Node2 -->
<g id="edge1" class="edge"><title>Node1&#45;&gt;Node2</title>
<path fill="none" stroke="midnightblue" d="M120.567,-224.368C115.542,-206.537 103.92,-165.295 97.1493,-141.272"/>
<polygon fill="midnightblue" stroke="midnightblue" points="100.503,-140.267 94.4212,-131.591 93.765,-142.166 100.503,-140.267"/>
</g>
<!-- Node6 -->
<g id="node6" class="node"><title>Node6</title>
<g id="a_node6"><a xlink:href="handevent_8h.html" target="_top" xlink:title=" ">
<polygon fill="none" stroke="black" points="120,-168.5 120,-187.5 188,-187.5 188,-168.5 120,-168.5"/>
<text text-anchor="middle" x="154" y="-175.5" font-family="Helvetica,sans-Serif" font-size="10.00">handevent.h</text>
</a>
</g>
</g>
<!-- Node1&#45;&gt;Node6 -->
<g id="edge5" class="edge"><title>Node1&#45;&gt;Node6</title>
<path fill="none" stroke="midnightblue" d="M128.119,-224.083C132.408,-216.613 138.658,-205.724 143.942,-196.52"/>
<polygon fill="midnightblue" stroke="midnightblue" points="147.033,-198.166 148.976,-187.751 140.962,-194.681 147.033,-198.166"/>
</g>
<!-- Node3 -->
<g id="node3" class="node"><title>Node3</title>
<g id="a_node3"><a xlink:href="types_8h.html" target="_top" xlink:title=" ">
<polygon fill="none" stroke="black" points="0,-56.5 0,-75.5 60,-75.5 60,-56.5 0,-56.5"/>
<text text-anchor="middle" x="30" y="-63.5" font-family="Helvetica,sans-Serif" font-size="10.00">sr/types.h</text>
</a>
</g>
</g>
<!-- Node2&#45;&gt;Node3 -->
<g id="edge2" class="edge"><title>Node2&#45;&gt;Node3</title>
<path fill="none" stroke="midnightblue" d="M82.0386,-112.324C72.8734,-104.341 59.0628,-92.3128 47.9718,-82.6529"/>
<polygon fill="midnightblue" stroke="midnightblue" points="49.9822,-79.7624 40.1426,-75.8339 45.3847,-85.041 49.9822,-79.7624"/>
</g>
<!-- Node5 -->
<g id="node5" class="node"><title>Node5</title>
<g id="a_node5"><a xlink:title=" ">
<polygon fill="none" stroke="#bfbfbf" points="78.5,-56.5 78.5,-75.5 125.5,-75.5 125.5,-56.5 78.5,-56.5"/>
<text text-anchor="middle" x="102" y="-63.5" font-family="Helvetica,sans-Serif" font-size="10.00">math.h</text>
</a>
</g>
</g>
<!-- Node2&#45;&gt;Node5 -->
<g id="edge4" class="edge"><title>Node2&#45;&gt;Node5</title>
<path fill="none" stroke="midnightblue" d="M93.6513,-112.083C94.9764,-104.927 96.8824,-94.6353 98.5387,-85.6911"/>
<polygon fill="midnightblue" stroke="midnightblue" points="102,-86.2212 100.379,-75.7511 95.117,-84.9466 102,-86.2212"/>
</g>
<!-- Node4 -->
<g id="node4" class="node"><title>Node4</title>
<g id="a_node4"><a xlink:title=" ">
<polygon fill="none" stroke="#bfbfbf" points="67.5,-0.5 67.5,-19.5 116.5,-19.5 116.5,-0.5 67.5,-0.5"/>
<text text-anchor="middle" x="92" y="-7.5" font-family="Helvetica,sans-Serif" font-size="10.00">stdint.h</text>
</a>
</g>
</g>
<!-- Node3&#45;&gt;Node4 -->
<g id="edge3" class="edge"><title>Node3&#45;&gt;Node4</title>
<path fill="none" stroke="midnightblue" d="M39.9614,-56.324C49.1266,-48.3414 62.9372,-36.3128 74.0282,-26.6529"/>
<polygon fill="midnightblue" stroke="midnightblue" points="76.6153,-29.041 81.8574,-19.8339 72.0178,-23.7624 76.6153,-29.041"/>
</g>
<!-- Node6&#45;&gt;Node2 -->
<g id="edge7" class="edge"><title>Node6&#45;&gt;Node2</title>
<path fill="none" stroke="midnightblue" d="M144.039,-168.324C134.873,-160.341 121.063,-148.313 109.972,-138.653"/>
<polygon fill="midnightblue" stroke="midnightblue" points="111.982,-135.762 102.143,-131.834 107.385,-141.041 111.982,-135.762"/>
</g>
<!-- Node6&#45;&gt;Node4 -->
<g id="edge6" class="edge"><title>Node6&#45;&gt;Node4</title>
<path fill="none" stroke="midnightblue" d="M154.241,-168.271C154.465,-147.617 152.993,-94.5891 134,-56 128.493,-44.8103 119.278,-34.4708 110.881,-26.5319"/>
<polygon fill="midnightblue" stroke="midnightblue" points="113.021,-23.7506 103.228,-19.7065 108.362,-28.9747 113.021,-23.7506"/>
</g>
</g>
</svg>
