<?xml version="1.0" encoding="UTF-8" standalone="no"?>
<!DOCTYPE svg PUBLIC "-//W3C//DTD SVG 1.1//EN"
 "http://www.w3.org/Graphics/SVG/1.1/DTD/svg11.dtd">
<!-- Generated by graphviz version 2.38.0 (20140413.2041)
 -->
<!-- Title: handtracker.h Pages: 1 -->
<svg width="1076pt" height="364pt"
 viewBox="0.00 0.00 1076.41 364.00" xmlns="http://www.w3.org/2000/svg" xmlns:xlink="http://www.w3.org/1999/xlink">
<g id="graph0" class="graph" transform="scale(1 1) rotate(0) translate(4 360)">
<title>handtracker.h</title>
<!-- Node1 -->
<g id="node1" class="node"><title>Node1</title>
<g id="a_node1"><a xlink:title=" ">
<polygon fill="#bfbfbf" stroke="black" points="729,-336.5 729,-355.5 805,-355.5 805,-336.5 729,-336.5"/>
<text text-anchor="middle" x="767" y="-343.5" font-family="Helvetica,sans-Serif" font-size="10.00">handtracker.h</text>
</a>
</g>
</g>
<!-- Node2 -->
<g id="node2" class="node"><title>Node2</title>
<g id="a_node2"><a xlink:href="srcontext_8h.html" target="_top" xlink:title=" ">
<polygon fill="none" stroke="black" points="496,-280.5 496,-299.5 632,-299.5 632,-280.5 496,-280.5"/>
<text text-anchor="middle" x="564" y="-287.5" font-family="Helvetica,sans-Serif" font-size="10.00">sr/management/srcontext.h</text>
</a>
</g>
</g>
<!-- Node1&#45;&gt;Node2 -->
<g id="edge1" class="edge"><title>Node1&#45;&gt;Node2</title>
<path fill="none" stroke="midnightblue" d="M734.834,-336.444C699.941,-327.162 644.107,-312.309 605.829,-302.127"/>
<polygon fill="midnightblue" stroke="midnightblue" points="606.579,-298.705 596.015,-299.516 604.78,-305.47 606.579,-298.705"/>
</g>
<!-- Node3 -->
<g id="node3" class="node"><title>Node3</title>
<g id="a_node3"><a xlink:title=" ">
<polygon fill="none" stroke="#bfbfbf" points="654.5,-168.5 654.5,-187.5 695.5,-187.5 695.5,-168.5 654.5,-168.5"/>
<text text-anchor="middle" x="675" y="-175.5" font-family="Helvetica,sans-Serif" font-size="10.00">string</text>
</a>
</g>
</g>
<!-- Node1&#45;&gt;Node3 -->
<g id="edge26" class="edge"><title>Node1&#45;&gt;Node3</title>
<path fill="none" stroke="midnightblue" d="M767.866,-336.213C769.503,-314.976 770.976,-259.963 747,-224 736.939,-208.908 719.916,-197.928 704.947,-190.594"/>
<polygon fill="midnightblue" stroke="midnightblue" points="706.053,-187.252 695.502,-186.294 703.153,-193.622 706.053,-187.252"/>
</g>
<!-- Node4 -->
<g id="node4" class="node"><title>Node4</title>
<g id="a_node4"><a xlink:title=" ">
<polygon fill="none" stroke="#bfbfbf" points="703.5,-224.5 703.5,-243.5 738.5,-243.5 738.5,-224.5 703.5,-224.5"/>
<text text-anchor="middle" x="721" y="-231.5" font-family="Helvetica,sans-Serif" font-size="10.00">map</text>
</a>
</g>
</g>
<!-- Node1&#45;&gt;Node4 -->
<g id="edge23" class="edge"><title>Node1&#45;&gt;Node4</title>
<path fill="none" stroke="midnightblue" d="M763.39,-336.368C755.9,-318.456 738.532,-276.923 728.506,-252.948"/>
<polygon fill="midnightblue" stroke="midnightblue" points="731.68,-251.467 724.593,-243.591 725.222,-254.168 731.68,-251.467"/>
</g>
<!-- Node7 -->
<g id="node7" class="node"><title>Node7</title>
<g id="a_node7"><a xlink:title=" ">
<polygon fill="none" stroke="#bfbfbf" points="328,-168.5 328,-187.5 372,-187.5 372,-168.5 328,-168.5"/>
<text text-anchor="middle" x="350" y="-175.5" font-family="Helvetica,sans-Serif" font-size="10.00">thread</text>
</a>
</g>
</g>
<!-- Node1&#45;&gt;Node7 -->
<g id="edge24" class="edge"><title>Node1&#45;&gt;Node7</title>
<path fill="none" stroke="midnightblue" d="M728.972,-343.603C645.552,-340.036 449.219,-328.76 390,-300 358.338,-284.623 347.47,-276.519 334,-244 327.621,-228.599 333.413,-210.051 339.74,-196.717"/>
<polygon fill="midnightblue" stroke="midnightblue" points="342.938,-198.155 344.49,-187.675 336.741,-194.9 342.938,-198.155"/>
</g>
<!-- Node8 -->
<g id="node8" class="node"><title>Node8</title>
<g id="a_node8"><a xlink:title=" ">
<polygon fill="none" stroke="#bfbfbf" points="390,-168.5 390,-187.5 434,-187.5 434,-168.5 390,-168.5"/>
<text text-anchor="middle" x="412" y="-175.5" font-family="Helvetica,sans-Serif" font-size="10.00">mutex</text>
</a>
</g>
</g>
<!-- Node1&#45;&gt;Node8 -->
<g id="edge25" class="edge"><title>Node1&#45;&gt;Node8</title>
<path fill="none" stroke="midnightblue" d="M728.974,-342.273C632.963,-334.474 385.244,-308.357 341,-244 326.393,-222.752 355.183,-203.506 380.365,-191.566"/>
<polygon fill="midnightblue" stroke="midnightblue" points="382.051,-194.646 389.742,-187.359 379.186,-188.259 382.051,-194.646"/>
</g>
<!-- Node20 -->
<g id="node20" class="node"><title>Node20</title>
<g id="a_node20"><a xlink:href="handpose_8h.html" target="_top" xlink:title=" ">
<polygon fill="none" stroke="black" points="886.5,-112.5 886.5,-131.5 953.5,-131.5 953.5,-112.5 886.5,-112.5"/>
<text text-anchor="middle" x="920" y="-119.5" font-family="Helvetica,sans-Serif" font-size="10.00">handpose.h</text>
</a>
</g>
</g>
<!-- Node1&#45;&gt;Node20 -->
<g id="edge27" class="edge"><title>Node1&#45;&gt;Node20</title>
<path fill="none" stroke="midnightblue" d="M805.247,-344.902C876.061,-343.82 1023.29,-337.054 1055,-300 1105.04,-241.539 995.576,-166.946 944.453,-136.678"/>
<polygon fill="midnightblue" stroke="midnightblue" points="946.042,-133.554 935.637,-131.556 942.525,-139.606 946.042,-133.554"/>
</g>
<!-- Node22 -->
<g id="node22" class="node"><title>Node22</title>
<g id="a_node22"><a xlink:href="handposestream_8h.html" target="_top" xlink:title=" ">
<polygon fill="none" stroke="black" points="949.5,-280.5 949.5,-299.5 1046.5,-299.5 1046.5,-280.5 949.5,-280.5"/>
<text text-anchor="middle" x="998" y="-287.5" font-family="Helvetica,sans-Serif" font-size="10.00">handposestream.h</text>
</a>
</g>
</g>
<!-- Node1&#45;&gt;Node22 -->
<g id="edge30" class="edge"><title>Node1&#45;&gt;Node22</title>
<path fill="none" stroke="midnightblue" d="M803.603,-336.444C843.731,-327.063 908.198,-311.993 951.785,-301.804"/>
<polygon fill="midnightblue" stroke="midnightblue" points="952.628,-305.201 961.569,-299.516 951.034,-298.385 952.628,-305.201"/>
</g>
<!-- Node24 -->
<g id="node24" class="node"><title>Node24</title>
<g id="a_node24"><a xlink:href="handevent_8h.html" target="_top" xlink:title=" ">
<polygon fill="none" stroke="black" points="809,-168.5 809,-187.5 877,-187.5 877,-168.5 809,-168.5"/>
<text text-anchor="middle" x="843" y="-175.5" font-family="Helvetica,sans-Serif" font-size="10.00">handevent.h</text>
</a>
</g>
</g>
<!-- Node1&#45;&gt;Node24 -->
<g id="edge37" class="edge"><title>Node1&#45;&gt;Node24</title>
<path fill="none" stroke="midnightblue" d="M771.086,-336.075C783.153,-309.719 818.791,-231.878 834.914,-196.661"/>
<polygon fill="midnightblue" stroke="midnightblue" points="838.097,-198.117 839.077,-187.568 831.732,-195.204 838.097,-198.117"/>
</g>
<!-- Node25 -->
<g id="node25" class="node"><title>Node25</title>
<g id="a_node25"><a xlink:href="handeventstream_8h.html" target="_top" xlink:title=" ">
<polygon fill="none" stroke="black" points="833,-280.5 833,-299.5 931,-299.5 931,-280.5 833,-280.5"/>
<text text-anchor="middle" x="882" y="-287.5" font-family="Helvetica,sans-Serif" font-size="10.00">handeventstream.h</text>
</a>
</g>
</g>
<!-- Node1&#45;&gt;Node25 -->
<g id="edge38" class="edge"><title>Node1&#45;&gt;Node25</title>
<path fill="none" stroke="midnightblue" d="M785.222,-336.444C803.896,-327.675 833.156,-313.935 854.617,-303.858"/>
<polygon fill="midnightblue" stroke="midnightblue" points="856.299,-306.935 863.863,-299.516 853.324,-300.599 856.299,-306.935"/>
</g>
<!-- Node2&#45;&gt;Node3 -->
<g id="edge2" class="edge"><title>Node2&#45;&gt;Node3</title>
<path fill="none" stroke="midnightblue" d="M595.437,-280.489C615.118,-273.644 639.581,-262.121 655,-244 666.109,-230.945 671.05,-211.791 673.246,-197.655"/>
<polygon fill="midnightblue" stroke="midnightblue" points="676.735,-197.959 674.485,-187.606 669.788,-197.103 676.735,-197.959"/>
</g>
<!-- Node2&#45;&gt;Node4 -->
<g id="edge3" class="edge"><title>Node2&#45;&gt;Node4</title>
<path fill="none" stroke="midnightblue" d="M588.877,-280.444C617.34,-270.654 663.819,-254.667 693.382,-244.499"/>
<polygon fill="midnightblue" stroke="midnightblue" points="694.758,-247.727 703.076,-241.165 692.481,-241.108 694.758,-247.727"/>
</g>
<!-- Node5 -->
<g id="node5" class="node"><title>Node5</title>
<g id="a_node5"><a xlink:href="sense_8h.html" target="_top" xlink:title=" ">
<polygon fill="none" stroke="black" points="350.5,-224.5 350.5,-243.5 463.5,-243.5 463.5,-224.5 350.5,-224.5"/>
<text text-anchor="middle" x="407" y="-231.5" font-family="Helvetica,sans-Serif" font-size="10.00">sr/sense/core/sense.h</text>
</a>
</g>
</g>
<!-- Node2&#45;&gt;Node5 -->
<g id="edge4" class="edge"><title>Node2&#45;&gt;Node5</title>
<path fill="none" stroke="midnightblue" d="M539.123,-280.444C512.711,-271.359 470.785,-256.939 441.258,-246.783"/>
<polygon fill="midnightblue" stroke="midnightblue" points="442.355,-243.459 431.761,-243.516 440.079,-250.079 442.355,-243.459"/>
</g>
<!-- Node13 -->
<g id="node13" class="node"><title>Node13</title>
<g id="a_node13"><a xlink:href="worldobject_8h.html" target="_top" xlink:title=" ">
<polygon fill="none" stroke="black" points="146,-224.5 146,-243.5 256,-243.5 256,-224.5 146,-224.5"/>
<text text-anchor="middle" x="201" y="-231.5" font-family="Helvetica,sans-Serif" font-size="10.00">sr/world/worldobject.h</text>
</a>
</g>
</g>
<!-- Node2&#45;&gt;Node13 -->
<g id="edge13" class="edge"><title>Node2&#45;&gt;Node13</title>
<path fill="none" stroke="midnightblue" d="M506.482,-280.444C441.164,-270.727 334.811,-254.906 266.394,-244.728"/>
<polygon fill="midnightblue" stroke="midnightblue" points="266.574,-241.216 256.168,-243.207 265.544,-248.14 266.574,-241.216"/>
</g>
<!-- Node15 -->
<g id="node15" class="node"><title>Node15</title>
<g id="a_node15"><a xlink:href="networkinterface_8h.html" target="_top" xlink:title=" ">
<polygon fill="none" stroke="black" points="481.5,-224.5 481.5,-243.5 646.5,-243.5 646.5,-224.5 481.5,-224.5"/>
<text text-anchor="middle" x="564" y="-231.5" font-family="Helvetica,sans-Serif" font-size="10.00">sr/network/core/networkinterface.h</text>
</a>
</g>
</g>
<!-- Node2&#45;&gt;Node15 -->
<g id="edge17" class="edge"><title>Node2&#45;&gt;Node15</title>
<path fill="none" stroke="midnightblue" d="M564,-280.083C564,-273.006 564,-262.861 564,-253.986"/>
<polygon fill="midnightblue" stroke="midnightblue" points="567.5,-253.751 564,-243.751 560.5,-253.751 567.5,-253.751"/>
</g>
<!-- Node16 -->
<g id="node16" class="node"><title>Node16</title>
<g id="a_node16"><a xlink:href="receiver_8h.html" target="_top" xlink:title=" ">
<polygon fill="none" stroke="black" points="0,-224.5 0,-243.5 128,-243.5 128,-224.5 0,-224.5"/>
<text text-anchor="middle" x="64" y="-231.5" font-family="Helvetica,sans-Serif" font-size="10.00">sr/network/core/receiver.h</text>
</a>
</g>
</g>
<!-- Node2&#45;&gt;Node16 -->
<g id="edge18" class="edge"><title>Node2&#45;&gt;Node16</title>
<path fill="none" stroke="midnightblue" d="M495.922,-282.2C413.677,-273.901 270.83,-259.218 138.036,-244.102"/>
<polygon fill="midnightblue" stroke="midnightblue" points="138.419,-240.623 128.086,-242.966 137.625,-247.578 138.419,-240.623"/>
</g>
<!-- Node5&#45;&gt;Node3 -->
<g id="edge5" class="edge"><title>Node5&#45;&gt;Node3</title>
<path fill="none" stroke="midnightblue" d="M449.465,-224.444C503.666,-213.522 596.139,-194.89 644.101,-185.226"/>
<polygon fill="midnightblue" stroke="midnightblue" points="645.072,-188.601 654.184,-183.194 643.69,-181.739 645.072,-188.601"/>
</g>
<!-- Node6 -->
<g id="node6" class="node"><title>Node6</title>
<g id="a_node6"><a xlink:title=" ">
<polygon fill="none" stroke="#bfbfbf" points="452,-168.5 452,-187.5 498,-187.5 498,-168.5 452,-168.5"/>
<text text-anchor="middle" x="475" y="-175.5" font-family="Helvetica,sans-Serif" font-size="10.00">chrono</text>
</a>
</g>
</g>
<!-- Node5&#45;&gt;Node6 -->
<g id="edge6" class="edge"><title>Node5&#45;&gt;Node6</title>
<path fill="none" stroke="midnightblue" d="M417.925,-224.324C428.175,-216.185 443.721,-203.839 456.001,-194.087"/>
<polygon fill="midnightblue" stroke="midnightblue" points="458.221,-196.794 463.876,-187.834 453.868,-191.312 458.221,-196.794"/>
</g>
<!-- Node5&#45;&gt;Node7 -->
<g id="edge7" class="edge"><title>Node5&#45;&gt;Node7</title>
<path fill="none" stroke="midnightblue" d="M397.842,-224.324C389.499,-216.42 376.968,-204.548 366.823,-194.938"/>
<polygon fill="midnightblue" stroke="midnightblue" points="368.991,-192.171 359.325,-187.834 364.177,-197.252 368.991,-192.171"/>
</g>
<!-- Node5&#45;&gt;Node8 -->
<g id="edge8" class="edge"><title>Node5&#45;&gt;Node8</title>
<path fill="none" stroke="midnightblue" d="M407.826,-224.083C408.481,-217.006 409.42,-206.861 410.242,-197.986"/>
<polygon fill="midnightblue" stroke="midnightblue" points="413.753,-198.031 411.19,-187.751 406.783,-197.386 413.753,-198.031"/>
</g>
<!-- Node9 -->
<g id="node9" class="node"><title>Node9</title>
<g id="a_node9"><a xlink:href="transformation_8h.html" target="_top" xlink:title=" ">
<polygon fill="none" stroke="black" points="224,-168.5 224,-187.5 310,-187.5 310,-168.5 224,-168.5"/>
<text text-anchor="middle" x="267" y="-175.5" font-family="Helvetica,sans-Serif" font-size="10.00">transformation.h</text>
</a>
</g>
</g>
<!-- Node5&#45;&gt;Node9 -->
<g id="edge9" class="edge"><title>Node5&#45;&gt;Node9</title>
<path fill="none" stroke="midnightblue" d="M384.817,-224.444C361.572,-215.478 324.851,-201.314 298.585,-191.183"/>
<polygon fill="midnightblue" stroke="midnightblue" points="299.669,-187.85 289.08,-187.516 297.15,-194.381 299.669,-187.85"/>
</g>
<!-- Node10 -->
<g id="node10" class="node"><title>Node10</title>
<g id="a_node10"><a xlink:title=" ">
<polygon fill="none" stroke="#bfbfbf" points="197,-112.5 197,-131.5 301,-131.5 301,-112.5 197,-112.5"/>
<text text-anchor="middle" x="249" y="-119.5" font-family="Helvetica,sans-Serif" font-size="10.00">opencv2/opencv.hpp</text>
</a>
</g>
</g>
<!-- Node9&#45;&gt;Node10 -->
<g id="edge10" class="edge"><title>Node9&#45;&gt;Node10</title>
<path fill="none" stroke="midnightblue" d="M264.028,-168.083C261.616,-160.849 258.136,-150.409 255.132,-141.397"/>
<polygon fill="midnightblue" stroke="midnightblue" points="258.4,-140.131 251.917,-131.751 251.759,-142.345 258.4,-140.131"/>
</g>
<!-- Node11 -->
<g id="node11" class="node"><title>Node11</title>
<g id="a_node11"><a xlink:href="types_8h.html" target="_top" xlink:title=" ">
<polygon fill="none" stroke="black" points="584,-56.5 584,-75.5 644,-75.5 644,-56.5 584,-56.5"/>
<text text-anchor="middle" x="614" y="-63.5" font-family="Helvetica,sans-Serif" font-size="10.00">sr/types.h</text>
</a>
</g>
</g>
<!-- Node9&#45;&gt;Node11 -->
<g id="edge11" class="edge"><title>Node9&#45;&gt;Node11</title>
<path fill="none" stroke="midnightblue" d="M293.94,-168.46C355.559,-148.926 506.863,-100.963 577.086,-78.7018"/>
<polygon fill="midnightblue" stroke="midnightblue" points="578.363,-81.9687 586.838,-75.6104 576.248,-75.2959 578.363,-81.9687"/>
</g>
<!-- Node12 -->
<g id="node12" class="node"><title>Node12</title>
<g id="a_node12"><a xlink:title=" ">
<polygon fill="none" stroke="#bfbfbf" points="589.5,-0.5 589.5,-19.5 638.5,-19.5 638.5,-0.5 589.5,-0.5"/>
<text text-anchor="middle" x="614" y="-7.5" font-family="Helvetica,sans-Serif" font-size="10.00">stdint.h</text>
</a>
</g>
</g>
<!-- Node11&#45;&gt;Node12 -->
<g id="edge12" class="edge"><title>Node11&#45;&gt;Node12</title>
<path fill="none" stroke="midnightblue" d="M614,-56.083C614,-49.0059 614,-38.8611 614,-29.9865"/>
<polygon fill="midnightblue" stroke="midnightblue" points="617.5,-29.751 614,-19.7511 610.5,-29.7511 617.5,-29.751"/>
</g>
<!-- Node13&#45;&gt;Node9 -->
<g id="edge16" class="edge"><title>Node13&#45;&gt;Node9</title>
<path fill="none" stroke="midnightblue" d="M211.604,-224.324C221.456,-216.263 236.351,-204.077 248.215,-194.369"/>
<polygon fill="midnightblue" stroke="midnightblue" points="250.68,-196.875 256.203,-187.834 246.247,-191.457 250.68,-196.875"/>
</g>
<!-- Node13&#45;&gt;Node10 -->
<g id="edge15" class="edge"><title>Node13&#45;&gt;Node10</title>
<path fill="none" stroke="midnightblue" d="M201.681,-224.21C202.94,-211.351 206.346,-186.89 215,-168 219.782,-157.561 227.318,-147.243 234.08,-139.126"/>
<polygon fill="midnightblue" stroke="midnightblue" points="236.755,-141.384 240.7,-131.551 231.484,-136.778 236.755,-141.384"/>
</g>
<!-- Node14 -->
<g id="node14" class="node"><title>Node14</title>
<g id="a_node14"><a xlink:title=" ">
<polygon fill="none" stroke="#bfbfbf" points="126,-168.5 126,-187.5 168,-187.5 168,-168.5 126,-168.5"/>
<text text-anchor="middle" x="147" y="-175.5" font-family="Helvetica,sans-Serif" font-size="10.00">vector</text>
</a>
</g>
</g>
<!-- Node13&#45;&gt;Node14 -->
<g id="edge14" class="edge"><title>Node13&#45;&gt;Node14</title>
<path fill="none" stroke="midnightblue" d="M192.083,-224.083C184.22,-216.22 172.569,-204.569 163.081,-195.081"/>
<polygon fill="midnightblue" stroke="midnightblue" points="165.297,-192.347 155.751,-187.751 160.347,-197.297 165.297,-192.347"/>
</g>
<!-- Node17 -->
<g id="node17" class="node"><title>Node17</title>
<g id="a_node17"><a xlink:href="packet_8h.html" target="_top" xlink:title=" ">
<polygon fill="none" stroke="black" points="45,-168.5 45,-187.5 99,-187.5 99,-168.5 45,-168.5"/>
<text text-anchor="middle" x="72" y="-175.5" font-family="Helvetica,sans-Serif" font-size="10.00">packet.h</text>
</a>
</g>
</g>
<!-- Node16&#45;&gt;Node17 -->
<g id="edge19" class="edge"><title>Node16&#45;&gt;Node17</title>
<path fill="none" stroke="midnightblue" d="M65.321,-224.083C66.3811,-216.927 67.9059,-206.635 69.2309,-197.691"/>
<polygon fill="midnightblue" stroke="midnightblue" points="72.7002,-198.156 70.7035,-187.751 65.7758,-197.13 72.7002,-198.156"/>
</g>
<!-- Node17&#45;&gt;Node12 -->
<g id="edge20" class="edge"><title>Node17&#45;&gt;Node12</title>
<path fill="none" stroke="midnightblue" d="M62.5089,-168.166C49.3028,-154.815 28.5486,-129.232 43,-112 112.326,-29.3352 465.829,-14.2929 579.059,-11.5862"/>
<polygon fill="midnightblue" stroke="midnightblue" points="579.328,-15.0812 589.249,-11.3609 579.174,-8.08287 579.328,-15.0812"/>
</g>
<!-- Node18 -->
<g id="node18" class="node"><title>Node18</title>
<g id="a_node18"><a xlink:title=" ">
<polygon fill="none" stroke="#bfbfbf" points="120,-112.5 120,-131.5 174,-131.5 174,-112.5 120,-112.5"/>
<text text-anchor="middle" x="147" y="-119.5" font-family="Helvetica,sans-Serif" font-size="10.00">iostream</text>
</a>
</g>
</g>
<!-- Node17&#45;&gt;Node18 -->
<g id="edge21" class="edge"><title>Node17&#45;&gt;Node18</title>
<path fill="none" stroke="midnightblue" d="M84.05,-168.324C95.4631,-160.107 112.831,-147.602 126.435,-137.807"/>
<polygon fill="midnightblue" stroke="midnightblue" points="128.66,-140.517 134.731,-131.834 124.57,-134.837 128.66,-140.517"/>
</g>
<!-- Node19 -->
<g id="node19" class="node"><title>Node19</title>
<g id="a_node19"><a xlink:title=" ">
<polygon fill="none" stroke="#bfbfbf" points="52,-112.5 52,-131.5 102,-131.5 102,-112.5 52,-112.5"/>
<text text-anchor="middle" x="77" y="-119.5" font-family="Helvetica,sans-Serif" font-size="10.00">iomanip</text>
</a>
</g>
</g>
<!-- Node17&#45;&gt;Node19 -->
<g id="edge22" class="edge"><title>Node17&#45;&gt;Node19</title>
<path fill="none" stroke="midnightblue" d="M72.8256,-168.083C73.4809,-161.006 74.4203,-150.861 75.242,-141.986"/>
<polygon fill="midnightblue" stroke="midnightblue" points="78.7527,-142.031 76.1897,-131.751 71.7826,-141.386 78.7527,-142.031"/>
</g>
<!-- Node20&#45;&gt;Node11 -->
<g id="edge28" class="edge"><title>Node20&#45;&gt;Node11</title>
<path fill="none" stroke="midnightblue" d="M886.377,-115.067C829.58,-105.043 714.888,-84.8038 654.033,-74.0647"/>
<polygon fill="midnightblue" stroke="midnightblue" points="654.49,-70.5913 644.034,-72.3001 653.273,-77.4848 654.49,-70.5913"/>
</g>
<!-- Node21 -->
<g id="node21" class="node"><title>Node21</title>
<g id="a_node21"><a xlink:title=" ">
<polygon fill="none" stroke="#bfbfbf" points="896.5,-56.5 896.5,-75.5 943.5,-75.5 943.5,-56.5 896.5,-56.5"/>
<text text-anchor="middle" x="920" y="-63.5" font-family="Helvetica,sans-Serif" font-size="10.00">math.h</text>
</a>
</g>
</g>
<!-- Node20&#45;&gt;Node21 -->
<g id="edge29" class="edge"><title>Node20&#45;&gt;Node21</title>
<path fill="none" stroke="midnightblue" d="M920,-112.083C920,-105.006 920,-94.8611 920,-85.9865"/>
<polygon fill="midnightblue" stroke="midnightblue" points="923.5,-85.751 920,-75.7511 916.5,-85.7511 923.5,-85.751"/>
</g>
<!-- Node22&#45;&gt;Node20 -->
<g id="edge31" class="edge"><title>Node22&#45;&gt;Node20</title>
<path fill="none" stroke="midnightblue" d="M995.998,-280.369C992.916,-267.708 986.469,-243.492 978,-224 964.566,-193.081 944.031,-159.598 931.341,-140.003"/>
<polygon fill="midnightblue" stroke="midnightblue" points="934.22,-138.012 925.807,-131.572 928.368,-141.853 934.22,-138.012"/>
</g>
<!-- Node23 -->
<g id="node23" class="node"><title>Node23</title>
<g id="a_node23"><a xlink:href="handposelistener_8h.html" target="_top" xlink:title=" ">
<polygon fill="none" stroke="black" points="871,-224.5 871,-243.5 969,-243.5 969,-224.5 871,-224.5"/>
<text text-anchor="middle" x="920" y="-231.5" font-family="Helvetica,sans-Serif" font-size="10.00">handposelistener.h</text>
</a>
</g>
</g>
<!-- Node22&#45;&gt;Node23 -->
<g id="edge32" class="edge"><title>Node22&#45;&gt;Node23</title>
<path fill="none" stroke="midnightblue" d="M985.468,-280.324C973.414,-271.979 954.973,-259.212 940.731,-249.352"/>
<polygon fill="midnightblue" stroke="midnightblue" points="942.715,-246.469 932.501,-243.655 938.731,-252.224 942.715,-246.469"/>
</g>
<!-- Node23&#45;&gt;Node20 -->
<g id="edge33" class="edge"><title>Node23&#45;&gt;Node20</title>
<path fill="none" stroke="midnightblue" d="M920,-224.368C920,-206.617 920,-165.666 920,-141.597"/>
<polygon fill="midnightblue" stroke="midnightblue" points="923.5,-141.591 920,-131.591 916.5,-141.591 923.5,-141.591"/>
</g>
<!-- Node23&#45;&gt;Node24 -->
<g id="edge34" class="edge"><title>Node23&#45;&gt;Node24</title>
<path fill="none" stroke="midnightblue" d="M907.629,-224.324C895.842,-216.058 877.868,-203.453 863.864,-193.632"/>
<polygon fill="midnightblue" stroke="midnightblue" points="865.538,-190.531 855.341,-187.655 861.518,-196.262 865.538,-190.531"/>
</g>
<!-- Node24&#45;&gt;Node12 -->
<g id="edge35" class="edge"><title>Node24&#45;&gt;Node12</title>
<path fill="none" stroke="midnightblue" d="M831.01,-168.309C793.912,-141.416 680.702,-59.3518 634.233,-25.6665"/>
<polygon fill="midnightblue" stroke="midnightblue" points="636.022,-22.6405 625.871,-19.6051 631.913,-28.308 636.022,-22.6405"/>
</g>
<!-- Node24&#45;&gt;Node20 -->
<g id="edge36" class="edge"><title>Node24&#45;&gt;Node20</title>
<path fill="none" stroke="midnightblue" d="M855.371,-168.324C867.158,-160.058 885.132,-147.453 899.136,-137.632"/>
<polygon fill="midnightblue" stroke="midnightblue" points="901.482,-140.262 907.659,-131.655 897.462,-134.531 901.482,-140.262"/>
</g>
<!-- Node25&#45;&gt;Node23 -->
<g id="edge40" class="edge"><title>Node25&#45;&gt;Node23</title>
<path fill="none" stroke="midnightblue" d="M888.275,-280.083C893.642,-272.455 901.518,-261.264 908.079,-251.941"/>
<polygon fill="midnightblue" stroke="midnightblue" points="910.949,-253.943 913.842,-243.751 905.225,-249.915 910.949,-253.943"/>
</g>
<!-- Node25&#45;&gt;Node24 -->
<g id="edge39" class="edge"><title>Node25&#45;&gt;Node24</title>
<path fill="none" stroke="midnightblue" d="M877.658,-280.18C873.343,-271.211 866.707,-256.844 862,-244 856.311,-228.477 851.138,-210.394 847.632,-197.248"/>
<polygon fill="midnightblue" stroke="midnightblue" points="851.009,-196.328 845.104,-187.531 844.235,-198.09 851.009,-196.328"/>
</g>
</g>
</svg>
