<?xml version="1.0" encoding="UTF-8" standalone="no"?>
<!DOCTYPE svg PUBLIC "-//W3C//DTD SVG 1.1//EN"
 "http://www.w3.org/Graphics/SVG/1.1/DTD/svg11.dtd">
<!-- Generated by graphviz version 2.38.0 (20140413.2041)
 -->
<!-- Title: handeventstream.h Pages: 1 -->
<svg width="196pt" height="308pt"
 viewBox="0.00 0.00 195.50 308.00" xmlns="http://www.w3.org/2000/svg" xmlns:xlink="http://www.w3.org/1999/xlink">
<g id="graph0" class="graph" transform="scale(1 1) rotate(0) translate(4 304)">
<title>handeventstream.h</title>
<!-- Node1 -->
<g id="node1" class="node"><title>Node1</title>
<g id="a_node1"><a xlink:title=" ">
<polygon fill="#bfbfbf" stroke="black" points="8,-280.5 8,-299.5 106,-299.5 106,-280.5 8,-280.5"/>
<text text-anchor="middle" x="57" y="-287.5" font-family="Helvetica,sans-Serif" font-size="10.00">handeventstream.h</text>
</a>
</g>
</g>
<!-- Node2 -->
<g id="node2" class="node"><title>Node2</title>
<g id="a_node2"><a xlink:href="handevent_8h.html" target="_top" xlink:title=" ">
<polygon fill="none" stroke="black" points="0,-168.5 0,-187.5 68,-187.5 68,-168.5 0,-168.5"/>
<text text-anchor="middle" x="34" y="-175.5" font-family="Helvetica,sans-Serif" font-size="10.00">handevent.h</text>
</a>
</g>
</g>
<!-- Node1&#45;&gt;Node2 -->
<g id="edge1" class="edge"><title>Node1&#45;&gt;Node2</title>
<path fill="none" stroke="midnightblue" d="M52.296,-280.335C47.7467,-271.485 41.0998,-257.21 38,-244 34.4041,-228.676 33.5363,-210.796 33.4929,-197.672"/>
<polygon fill="midnightblue" stroke="midnightblue" points="36.9941,-197.589 33.619,-187.546 29.9946,-197.502 36.9941,-197.589"/>
</g>
<!-- Node7 -->
<g id="node7" class="node"><title>Node7</title>
<g id="a_node7"><a xlink:href="handposelistener_8h.html" target="_top" xlink:title=" ">
<polygon fill="none" stroke="black" points="47,-224.5 47,-243.5 145,-243.5 145,-224.5 47,-224.5"/>
<text text-anchor="middle" x="96" y="-231.5" font-family="Helvetica,sans-Serif" font-size="10.00">handposelistener.h</text>
</a>
</g>
</g>
<!-- Node1&#45;&gt;Node7 -->
<g id="edge7" class="edge"><title>Node1&#45;&gt;Node7</title>
<path fill="none" stroke="midnightblue" d="M63.4401,-280.083C68.9489,-272.455 77.0312,-261.264 83.765,-251.941"/>
<polygon fill="midnightblue" stroke="midnightblue" points="86.6622,-253.907 89.6798,-243.751 80.9874,-249.809 86.6622,-253.907"/>
</g>
<!-- Node3 -->
<g id="node3" class="node"><title>Node3</title>
<g id="a_node3"><a xlink:title=" ">
<polygon fill="none" stroke="#bfbfbf" points="38.5,-0.5 38.5,-19.5 87.5,-19.5 87.5,-0.5 38.5,-0.5"/>
<text text-anchor="middle" x="63" y="-7.5" font-family="Helvetica,sans-Serif" font-size="10.00">stdint.h</text>
</a>
</g>
</g>
<!-- Node2&#45;&gt;Node3 -->
<g id="edge2" class="edge"><title>Node2&#45;&gt;Node3</title>
<path fill="none" stroke="midnightblue" d="M35.1526,-168.46C37.8689,-148.637 45.045,-97.9945 53,-56 54.659,-47.2423 56.7672,-37.5874 58.6198,-29.4736"/>
<polygon fill="midnightblue" stroke="midnightblue" points="62.0612,-30.1269 60.9214,-19.5936 55.2438,-28.5387 62.0612,-30.1269"/>
</g>
<!-- Node4 -->
<g id="node4" class="node"><title>Node4</title>
<g id="a_node4"><a xlink:href="handpose_8h.html" target="_top" xlink:title=" ">
<polygon fill="none" stroke="black" points="62.5,-112.5 62.5,-131.5 129.5,-131.5 129.5,-112.5 62.5,-112.5"/>
<text text-anchor="middle" x="96" y="-119.5" font-family="Helvetica,sans-Serif" font-size="10.00">handpose.h</text>
</a>
</g>
</g>
<!-- Node2&#45;&gt;Node4 -->
<g id="edge3" class="edge"><title>Node2&#45;&gt;Node4</title>
<path fill="none" stroke="midnightblue" d="M43.9614,-168.324C53.1266,-160.341 66.9372,-148.313 78.0282,-138.653"/>
<polygon fill="midnightblue" stroke="midnightblue" points="80.6153,-141.041 85.8574,-131.834 76.0178,-135.762 80.6153,-141.041"/>
</g>
<!-- Node5 -->
<g id="node5" class="node"><title>Node5</title>
<g id="a_node5"><a xlink:href="types_8h.html" target="_top" xlink:title=" ">
<polygon fill="none" stroke="black" points="62,-56.5 62,-75.5 122,-75.5 122,-56.5 62,-56.5"/>
<text text-anchor="middle" x="92" y="-63.5" font-family="Helvetica,sans-Serif" font-size="10.00">sr/types.h</text>
</a>
</g>
</g>
<!-- Node4&#45;&gt;Node5 -->
<g id="edge4" class="edge"><title>Node4&#45;&gt;Node5</title>
<path fill="none" stroke="midnightblue" d="M95.3395,-112.083C94.8152,-105.006 94.0638,-94.8611 93.4064,-85.9865"/>
<polygon fill="midnightblue" stroke="midnightblue" points="96.8775,-85.4652 92.6482,-75.7511 89.8966,-85.9823 96.8775,-85.4652"/>
</g>
<!-- Node6 -->
<g id="node6" class="node"><title>Node6</title>
<g id="a_node6"><a xlink:title=" ">
<polygon fill="none" stroke="#bfbfbf" points="140.5,-56.5 140.5,-75.5 187.5,-75.5 187.5,-56.5 140.5,-56.5"/>
<text text-anchor="middle" x="164" y="-63.5" font-family="Helvetica,sans-Serif" font-size="10.00">math.h</text>
</a>
</g>
</g>
<!-- Node4&#45;&gt;Node6 -->
<g id="edge6" class="edge"><title>Node4&#45;&gt;Node6</title>
<path fill="none" stroke="midnightblue" d="M106.925,-112.324C117.175,-104.185 132.721,-91.8395 145.001,-82.0874"/>
<polygon fill="midnightblue" stroke="midnightblue" points="147.221,-84.7937 152.876,-75.8339 142.868,-79.3119 147.221,-84.7937"/>
</g>
<!-- Node5&#45;&gt;Node3 -->
<g id="edge5" class="edge"><title>Node5&#45;&gt;Node3</title>
<path fill="none" stroke="midnightblue" d="M87.2112,-56.083C83.2416,-48.6913 77.4749,-37.9533 72.5652,-28.8111"/>
<polygon fill="midnightblue" stroke="midnightblue" points="75.5145,-26.9051 67.6997,-19.7511 69.3475,-30.217 75.5145,-26.9051"/>
</g>
<!-- Node7&#45;&gt;Node2 -->
<g id="edge9" class="edge"><title>Node7&#45;&gt;Node2</title>
<path fill="none" stroke="midnightblue" d="M86.0386,-224.324C76.8734,-216.341 63.0628,-204.313 51.9718,-194.653"/>
<polygon fill="midnightblue" stroke="midnightblue" points="53.9822,-191.762 44.1426,-187.834 49.3847,-197.041 53.9822,-191.762"/>
</g>
<!-- Node7&#45;&gt;Node4 -->
<g id="edge8" class="edge"><title>Node7&#45;&gt;Node4</title>
<path fill="none" stroke="midnightblue" d="M96,-224.368C96,-206.617 96,-165.666 96,-141.597"/>
<polygon fill="midnightblue" stroke="midnightblue" points="99.5001,-141.591 96,-131.591 92.5001,-141.591 99.5001,-141.591"/>
</g>
</g>
</svg>
