<?xml version="1.0" encoding="UTF-8" standalone="no"?>
<!DOCTYPE svg PUBLIC "-//W3C//DTD SVG 1.1//EN"
 "http://www.w3.org/Graphics/SVG/1.1/DTD/svg11.dtd">
<!-- Generated by graphviz version 2.38.0 (20140413.2041)
 -->
<!-- Title: handevent.h Pages: 1 -->
<svg width="165pt" height="196pt"
 viewBox="0.00 0.00 164.50 196.00" xmlns="http://www.w3.org/2000/svg" xmlns:xlink="http://www.w3.org/1999/xlink">
<g id="graph0" class="graph" transform="scale(1 1) rotate(0) translate(4 192)">
<title>handevent.h</title>
<!-- Node1 -->
<g id="node1" class="node"><title>Node1</title>
<g id="a_node1"><a xlink:title=" ">
<polygon fill="#bfbfbf" stroke="black" points="0,-168.5 0,-187.5 68,-187.5 68,-168.5 0,-168.5"/>
<text text-anchor="middle" x="34" y="-175.5" font-family="Helvetica,sans-Serif" font-size="10.00">handevent.h</text>
</a>
</g>
</g>
<!-- Node2 -->
<g id="node2" class="node"><title>Node2</title>
<g id="a_node2"><a xlink:title=" ">
<polygon fill="none" stroke="#bfbfbf" points="7.5,-0.5 7.5,-19.5 56.5,-19.5 56.5,-0.5 7.5,-0.5"/>
<text text-anchor="middle" x="32" y="-7.5" font-family="Helvetica,sans-Serif" font-size="10.00">stdint.h</text>
</a>
</g>
</g>
<!-- Node1&#45;&gt;Node2 -->
<g id="edge1" class="edge"><title>Node1&#45;&gt;Node2</title>
<path fill="none" stroke="midnightblue" d="M30.9123,-168.173C27.9482,-159.198 23.6809,-144.827 22,-132 17.6112,-98.5086 18.3143,-89.5761 22,-56 22.9726,-47.1398 24.9917,-37.4716 26.9626,-29.3755"/>
<polygon fill="midnightblue" stroke="midnightblue" points="30.3926,-30.0919 29.5176,-19.5332 23.6171,-28.333 30.3926,-30.0919"/>
</g>
<!-- Node3 -->
<g id="node3" class="node"><title>Node3</title>
<g id="a_node3"><a xlink:href="handpose_8h.html" target="_top" xlink:title=" ">
<polygon fill="none" stroke="black" points="31.5,-112.5 31.5,-131.5 98.5,-131.5 98.5,-112.5 31.5,-112.5"/>
<text text-anchor="middle" x="65" y="-119.5" font-family="Helvetica,sans-Serif" font-size="10.00">handpose.h</text>
</a>
</g>
</g>
<!-- Node1&#45;&gt;Node3 -->
<g id="edge2" class="edge"><title>Node1&#45;&gt;Node3</title>
<path fill="none" stroke="midnightblue" d="M39.119,-168.083C43.4075,-160.613 49.6582,-149.724 54.9423,-140.52"/>
<polygon fill="midnightblue" stroke="midnightblue" points="58.0329,-142.166 59.9762,-131.751 51.9621,-138.681 58.0329,-142.166"/>
</g>
<!-- Node4 -->
<g id="node4" class="node"><title>Node4</title>
<g id="a_node4"><a xlink:href="types_8h.html" target="_top" xlink:title=" ">
<polygon fill="none" stroke="black" points="31,-56.5 31,-75.5 91,-75.5 91,-56.5 31,-56.5"/>
<text text-anchor="middle" x="61" y="-63.5" font-family="Helvetica,sans-Serif" font-size="10.00">sr/types.h</text>
</a>
</g>
</g>
<!-- Node3&#45;&gt;Node4 -->
<g id="edge3" class="edge"><title>Node3&#45;&gt;Node4</title>
<path fill="none" stroke="midnightblue" d="M64.3395,-112.083C63.8152,-105.006 63.0638,-94.8611 62.4064,-85.9865"/>
<polygon fill="midnightblue" stroke="midnightblue" points="65.8775,-85.4652 61.6482,-75.7511 58.8966,-85.9823 65.8775,-85.4652"/>
</g>
<!-- Node5 -->
<g id="node5" class="node"><title>Node5</title>
<g id="a_node5"><a xlink:title=" ">
<polygon fill="none" stroke="#bfbfbf" points="109.5,-56.5 109.5,-75.5 156.5,-75.5 156.5,-56.5 109.5,-56.5"/>
<text text-anchor="middle" x="133" y="-63.5" font-family="Helvetica,sans-Serif" font-size="10.00">math.h</text>
</a>
</g>
</g>
<!-- Node3&#45;&gt;Node5 -->
<g id="edge5" class="edge"><title>Node3&#45;&gt;Node5</title>
<path fill="none" stroke="midnightblue" d="M75.9254,-112.324C86.1746,-104.185 101.721,-91.8395 114.001,-82.0874"/>
<polygon fill="midnightblue" stroke="midnightblue" points="116.221,-84.7937 121.876,-75.8339 111.868,-79.3119 116.221,-84.7937"/>
</g>
<!-- Node4&#45;&gt;Node2 -->
<g id="edge4" class="edge"><title>Node4&#45;&gt;Node2</title>
<path fill="none" stroke="midnightblue" d="M56.2112,-56.083C52.2416,-48.6913 46.4749,-37.9533 41.5652,-28.8111"/>
<polygon fill="midnightblue" stroke="midnightblue" points="44.5145,-26.9051 36.6997,-19.7511 38.3475,-30.217 44.5145,-26.9051"/>
</g>
</g>
</svg>
