<?xml version="1.0" encoding="UTF-8" standalone="no"?>
<!DOCTYPE svg PUBLIC "-//W3C//DTD SVG 1.1//EN"
 "http://www.w3.org/Graphics/SVG/1.1/DTD/svg11.dtd">
<!-- Generated by graphviz version 2.38.0 (20140413.2041)
 -->
<!-- Title: handpose.h Pages: 1 -->
<svg width="294pt" height="252pt"
 viewBox="0.00 0.00 294.30 252.00" xmlns="http://www.w3.org/2000/svg" xmlns:xlink="http://www.w3.org/1999/xlink">
<g id="graph0" class="graph" transform="scale(1 1) rotate(0) translate(4 248)">
<title>handpose.h</title>
<!-- Node1 -->
<g id="node1" class="node"><title>Node1</title>
<g id="a_node1"><a xlink:title=" ">
<polygon fill="#bfbfbf" stroke="black" points="100.5,-224.5 100.5,-243.5 167.5,-243.5 167.5,-224.5 100.5,-224.5"/>
<text text-anchor="middle" x="134" y="-231.5" font-family="Helvetica,sans-Serif" font-size="10.00">handpose.h</text>
</a>
</g>
</g>
<!-- Node2 -->
<g id="node2" class="node"><title>Node2</title>
<g id="a_node2"><a xlink:href="handevent_8h.html" target="_top" xlink:title=" ">
<polygon fill="none" stroke="black" points="38,-168.5 38,-187.5 106,-187.5 106,-168.5 38,-168.5"/>
<text text-anchor="middle" x="72" y="-175.5" font-family="Helvetica,sans-Serif" font-size="10.00">handevent.h</text>
</a>
</g>
</g>
<!-- Node1&#45;&gt;Node2 -->
<g id="edge1" class="edge"><title>Node1&#45;&gt;Node2</title>
<path fill="none" stroke="midnightblue" d="M116.246,-217.537C105.192,-207.909 91.3685,-195.869 82.1426,-187.834"/>
<polygon fill="midnightblue" stroke="midnightblue" points="114.199,-220.395 124.039,-224.324 118.797,-215.117 114.199,-220.395"/>
</g>
<!-- Node4 -->
<g id="node4" class="node"><title>Node4</title>
<g id="a_node4"><a xlink:href="handtracker_8h.html" target="_top" xlink:title=" ">
<polygon fill="none" stroke="black" points="0,-0.5 0,-19.5 76,-19.5 76,-0.5 0,-0.5"/>
<text text-anchor="middle" x="38" y="-7.5" font-family="Helvetica,sans-Serif" font-size="10.00">handtracker.h</text>
</a>
</g>
</g>
<!-- Node1&#45;&gt;Node4 -->
<g id="edge12" class="edge"><title>Node1&#45;&gt;Node4</title>
<path fill="none" stroke="midnightblue" d="M90.6772,-225.002C68.8013,-218.678 43.8226,-207.518 29,-188 -6.71023,-140.979 -0.320332,-113.281 14,-56 17.393,-42.4281 25.7398,-28.4676 31.6332,-19.768"/>
<polygon fill="midnightblue" stroke="midnightblue" points="89.9007,-228.416 100.462,-227.579 91.6839,-221.647 89.9007,-228.416"/>
</g>
<!-- Node5 -->
<g id="node5" class="node"><title>Node5</title>
<g id="a_node5"><a xlink:href="handposelistener_8h.html" target="_top" xlink:title=" ">
<polygon fill="none" stroke="black" points="66,-112.5 66,-131.5 164,-131.5 164,-112.5 66,-112.5"/>
<text text-anchor="middle" x="115" y="-119.5" font-family="Helvetica,sans-Serif" font-size="10.00">handposelistener.h</text>
</a>
</g>
</g>
<!-- Node1&#45;&gt;Node5 -->
<g id="edge10" class="edge"><title>Node1&#45;&gt;Node5</title>
<path fill="none" stroke="midnightblue" d="M130.778,-214.348C126.617,-190.254 119.544,-149.308 116.484,-131.591"/>
<polygon fill="midnightblue" stroke="midnightblue" points="127.358,-215.11 132.509,-224.368 134.256,-213.919 127.358,-215.11"/>
</g>
<!-- Node6 -->
<g id="node6" class="node"><title>Node6</title>
<g id="a_node6"><a xlink:href="handposestream_8h.html" target="_top" xlink:title=" ">
<polygon fill="none" stroke="black" points="144.5,-56.5 144.5,-75.5 241.5,-75.5 241.5,-56.5 144.5,-56.5"/>
<text text-anchor="middle" x="193" y="-63.5" font-family="Helvetica,sans-Serif" font-size="10.00">handposestream.h</text>
</a>
</g>
</g>
<!-- Node1&#45;&gt;Node6 -->
<g id="edge11" class="edge"><title>Node1&#45;&gt;Node6</title>
<path fill="none" stroke="midnightblue" d="M168.849,-220.683C204.847,-205.861 259.047,-177.174 283,-132 297.717,-104.244 257.206,-85.4818 225.83,-75.513"/>
<polygon fill="midnightblue" stroke="midnightblue" points="167.227,-217.561 159.218,-224.498 169.805,-224.069 167.227,-217.561"/>
</g>
<!-- Node7 -->
<g id="node7" class="node"><title>Node7</title>
<g id="a_node7"><a xlink:href="handtrackers__c_8h.html" target="_top" xlink:title=" ">
<polygon fill="none" stroke="black" points="182,-112.5 182,-131.5 274,-131.5 274,-112.5 182,-112.5"/>
<text text-anchor="middle" x="228" y="-119.5" font-family="Helvetica,sans-Serif" font-size="10.00">handtrackers_c.h</text>
</a>
</g>
</g>
<!-- Node1&#45;&gt;Node7 -->
<g id="edge13" class="edge"><title>Node1&#45;&gt;Node7</title>
<path fill="none" stroke="midnightblue" d="M148.027,-216.586C168.292,-192.871 205.039,-149.869 220.658,-131.591"/>
<polygon fill="midnightblue" stroke="midnightblue" points="145.212,-214.492 141.376,-224.368 150.533,-219.04 145.212,-214.492"/>
</g>
<!-- Node3 -->
<g id="node3" class="node"><title>Node3</title>
<g id="a_node3"><a xlink:href="handeventstream_8h.html" target="_top" xlink:title=" ">
<polygon fill="none" stroke="black" points="28,-56.5 28,-75.5 126,-75.5 126,-56.5 28,-56.5"/>
<text text-anchor="middle" x="77" y="-63.5" font-family="Helvetica,sans-Serif" font-size="10.00">handeventstream.h</text>
</a>
</g>
</g>
<!-- Node2&#45;&gt;Node3 -->
<g id="edge2" class="edge"><title>Node2&#45;&gt;Node3</title>
<path fill="none" stroke="midnightblue" d="M63.5273,-158.953C58.4669,-145.93 53.6233,-127.912 57,-112 59.8396,-98.619 66.9422,-84.3861 71.8698,-75.5932"/>
<polygon fill="midnightblue" stroke="midnightblue" points="60.3281,-160.373 67.4792,-168.191 66.7639,-157.62 60.3281,-160.373"/>
</g>
<!-- Node2&#45;&gt;Node4 -->
<g id="edge8" class="edge"><title>Node2&#45;&gt;Node4</title>
<path fill="none" stroke="midnightblue" d="M59.8374,-160.113C46.7817,-140.853 26.859,-107.89 19,-76 13.9925,-55.6806 25.1343,-32.193 32.3887,-19.7666"/>
<polygon fill="midnightblue" stroke="midnightblue" points="57.024,-162.198 65.612,-168.402 62.7677,-158.196 57.024,-162.198"/>
</g>
<!-- Node2&#45;&gt;Node5 -->
<g id="edge4" class="edge"><title>Node2&#45;&gt;Node5</title>
<path fill="none" stroke="midnightblue" d="M85.4224,-160.144C92.9142,-150.736 101.937,-139.405 108.032,-131.751"/>
<polygon fill="midnightblue" stroke="midnightblue" points="82.5919,-158.08 79.1006,-168.083 88.0679,-162.44 82.5919,-158.08"/>
</g>
<!-- Node2&#45;&gt;Node7 -->
<g id="edge9" class="edge"><title>Node2&#45;&gt;Node7</title>
<path fill="none" stroke="midnightblue" d="M106.17,-165.172C135.544,-155.004 177.198,-140.585 203.397,-131.516"/>
<polygon fill="midnightblue" stroke="midnightblue" points="105.024,-161.865 96.7187,-168.444 107.313,-168.48 105.024,-161.865"/>
</g>
<!-- Node3&#45;&gt;Node4 -->
<g id="edge3" class="edge"><title>Node3&#45;&gt;Node4</title>
<path fill="none" stroke="midnightblue" d="M64.6178,-47.8554C57.8646,-38.5048 49.7914,-27.3265 44.3202,-19.7511"/>
<polygon fill="midnightblue" stroke="midnightblue" points="61.8676,-50.0254 70.5599,-56.083 67.5424,-45.927 61.8676,-50.0254"/>
</g>
<!-- Node5&#45;&gt;Node3 -->
<g id="edge5" class="edge"><title>Node5&#45;&gt;Node3</title>
<path fill="none" stroke="midnightblue" d="M102.935,-103.855C96.3553,-94.5048 88.489,-83.3265 83.1582,-75.7511"/>
<polygon fill="midnightblue" stroke="midnightblue" points="100.108,-105.919 108.725,-112.083 105.832,-101.891 100.108,-105.919"/>
</g>
<!-- Node5&#45;&gt;Node6 -->
<g id="edge6" class="edge"><title>Node5&#45;&gt;Node6</title>
<path fill="none" stroke="midnightblue" d="M135.768,-106.622C150.017,-96.7574 168.456,-83.9919 180.499,-75.6545"/>
<polygon fill="midnightblue" stroke="midnightblue" points="133.762,-103.754 127.532,-112.324 137.746,-109.51 133.762,-103.754"/>
</g>
<!-- Node6&#45;&gt;Node4 -->
<g id="edge7" class="edge"><title>Node6&#45;&gt;Node4</title>
<path fill="none" stroke="midnightblue" d="M158.668,-53.0392C129.503,-42.8786 88.3627,-28.5457 62.4453,-19.5164"/>
<polygon fill="midnightblue" stroke="midnightblue" points="157.845,-56.4587 168.44,-56.4435 160.148,-49.8484 157.845,-56.4587"/>
</g>
</g>
</svg>
