<?xml version="1.0" encoding="UTF-8" standalone="no"?>
<!DOCTYPE svg PUBLIC "-//W3C//DTD SVG 1.1//EN"
 "http://www.w3.org/Graphics/SVG/1.1/DTD/svg11.dtd">
<!-- Generated by graphviz version 2.38.0 (20140413.2041)
 -->
<!-- Title: handposestream.h Pages: 1 -->
<svg width="196pt" height="308pt"
 viewBox="0.00 0.00 196.00 308.00" xmlns="http://www.w3.org/2000/svg" xmlns:xlink="http://www.w3.org/1999/xlink">
<g id="graph0" class="graph" transform="scale(1 1) rotate(0) translate(4 304)">
<title>handposestream.h</title>
<!-- Node1 -->
<g id="node1" class="node"><title>Node1</title>
<g id="a_node1"><a xlink:title=" ">
<polygon fill="#bfbfbf" stroke="black" points="43.5,-280.5 43.5,-299.5 140.5,-299.5 140.5,-280.5 43.5,-280.5"/>
<text text-anchor="middle" x="92" y="-287.5" font-family="Helvetica,sans-Serif" font-size="10.00">handposestream.h</text>
</a>
</g>
</g>
<!-- Node2 -->
<g id="node2" class="node"><title>Node2</title>
<g id="a_node2"><a xlink:href="handpose_8h.html" target="_top" xlink:title=" ">
<polygon fill="none" stroke="black" points="58.5,-112.5 58.5,-131.5 125.5,-131.5 125.5,-112.5 58.5,-112.5"/>
<text text-anchor="middle" x="92" y="-119.5" font-family="Helvetica,sans-Serif" font-size="10.00">handpose.h</text>
</a>
</g>
</g>
<!-- Node1&#45;&gt;Node2 -->
<g id="edge1" class="edge"><title>Node1&#45;&gt;Node2</title>
<path fill="none" stroke="midnightblue" d="M87.1241,-280.372C82.4412,-271.552 75.6924,-257.299 73,-244 65.6452,-207.672 77.1141,-164.719 85.1831,-141.004"/>
<polygon fill="midnightblue" stroke="midnightblue" points="88.4907,-142.149 88.5714,-131.555 81.9015,-139.786 88.4907,-142.149"/>
</g>
<!-- Node6 -->
<g id="node6" class="node"><title>Node6</title>
<g id="a_node6"><a xlink:href="handposelistener_8h.html" target="_top" xlink:title=" ">
<polygon fill="none" stroke="black" points="82,-224.5 82,-243.5 180,-243.5 180,-224.5 82,-224.5"/>
<text text-anchor="middle" x="131" y="-231.5" font-family="Helvetica,sans-Serif" font-size="10.00">handposelistener.h</text>
</a>
</g>
</g>
<!-- Node1&#45;&gt;Node6 -->
<g id="edge5" class="edge"><title>Node1&#45;&gt;Node6</title>
<path fill="none" stroke="midnightblue" d="M98.4401,-280.083C103.949,-272.455 112.031,-261.264 118.765,-251.941"/>
<polygon fill="midnightblue" stroke="midnightblue" points="121.662,-253.907 124.68,-243.751 115.987,-249.809 121.662,-253.907"/>
</g>
<!-- Node3 -->
<g id="node3" class="node"><title>Node3</title>
<g id="a_node3"><a xlink:href="types_8h.html" target="_top" xlink:title=" ">
<polygon fill="none" stroke="black" points="0,-56.5 0,-75.5 60,-75.5 60,-56.5 0,-56.5"/>
<text text-anchor="middle" x="30" y="-63.5" font-family="Helvetica,sans-Serif" font-size="10.00">sr/types.h</text>
</a>
</g>
</g>
<!-- Node2&#45;&gt;Node3 -->
<g id="edge2" class="edge"><title>Node2&#45;&gt;Node3</title>
<path fill="none" stroke="midnightblue" d="M82.0386,-112.324C72.8734,-104.341 59.0628,-92.3128 47.9718,-82.6529"/>
<polygon fill="midnightblue" stroke="midnightblue" points="49.9822,-79.7624 40.1426,-75.8339 45.3847,-85.041 49.9822,-79.7624"/>
</g>
<!-- Node5 -->
<g id="node5" class="node"><title>Node5</title>
<g id="a_node5"><a xlink:title=" ">
<polygon fill="none" stroke="#bfbfbf" points="78.5,-56.5 78.5,-75.5 125.5,-75.5 125.5,-56.5 78.5,-56.5"/>
<text text-anchor="middle" x="102" y="-63.5" font-family="Helvetica,sans-Serif" font-size="10.00">math.h</text>
</a>
</g>
</g>
<!-- Node2&#45;&gt;Node5 -->
<g id="edge4" class="edge"><title>Node2&#45;&gt;Node5</title>
<path fill="none" stroke="midnightblue" d="M93.6513,-112.083C94.9764,-104.927 96.8824,-94.6353 98.5387,-85.6911"/>
<polygon fill="midnightblue" stroke="midnightblue" points="102,-86.2212 100.379,-75.7511 95.117,-84.9466 102,-86.2212"/>
</g>
<!-- Node4 -->
<g id="node4" class="node"><title>Node4</title>
<g id="a_node4"><a xlink:title=" ">
<polygon fill="none" stroke="#bfbfbf" points="67.5,-0.5 67.5,-19.5 116.5,-19.5 116.5,-0.5 67.5,-0.5"/>
<text text-anchor="middle" x="92" y="-7.5" font-family="Helvetica,sans-Serif" font-size="10.00">stdint.h</text>
</a>
</g>
</g>
<!-- Node3&#45;&gt;Node4 -->
<g id="edge3" class="edge"><title>Node3&#45;&gt;Node4</title>
<path fill="none" stroke="midnightblue" d="M39.9614,-56.324C49.1266,-48.3414 62.9372,-36.3128 74.0282,-26.6529"/>
<polygon fill="midnightblue" stroke="midnightblue" points="76.6153,-29.041 81.8574,-19.8339 72.0178,-23.7624 76.6153,-29.041"/>
</g>
<!-- Node6&#45;&gt;Node2 -->
<g id="edge6" class="edge"><title>Node6&#45;&gt;Node2</title>
<path fill="none" stroke="midnightblue" d="M126.658,-224.18C122.343,-215.211 115.707,-200.844 111,-188 105.311,-172.477 100.138,-154.394 96.6322,-141.248"/>
<polygon fill="midnightblue" stroke="midnightblue" points="100.009,-140.328 94.1039,-131.531 93.2348,-142.09 100.009,-140.328"/>
</g>
<!-- Node7 -->
<g id="node7" class="node"><title>Node7</title>
<g id="a_node7"><a xlink:href="handevent_8h.html" target="_top" xlink:title=" ">
<polygon fill="none" stroke="black" points="120,-168.5 120,-187.5 188,-187.5 188,-168.5 120,-168.5"/>
<text text-anchor="middle" x="154" y="-175.5" font-family="Helvetica,sans-Serif" font-size="10.00">handevent.h</text>
</a>
</g>
</g>
<!-- Node6&#45;&gt;Node7 -->
<g id="edge7" class="edge"><title>Node6&#45;&gt;Node7</title>
<path fill="none" stroke="midnightblue" d="M134.798,-224.083C137.913,-216.77 142.423,-206.181 146.289,-197.103"/>
<polygon fill="midnightblue" stroke="midnightblue" points="149.574,-198.323 150.273,-187.751 143.134,-195.58 149.574,-198.323"/>
</g>
<!-- Node7&#45;&gt;Node2 -->
<g id="edge9" class="edge"><title>Node7&#45;&gt;Node2</title>
<path fill="none" stroke="midnightblue" d="M144.039,-168.324C134.873,-160.341 121.063,-148.313 109.972,-138.653"/>
<polygon fill="midnightblue" stroke="midnightblue" points="111.982,-135.762 102.143,-131.834 107.385,-141.041 111.982,-135.762"/>
</g>
<!-- Node7&#45;&gt;Node4 -->
<g id="edge8" class="edge"><title>Node7&#45;&gt;Node4</title>
<path fill="none" stroke="midnightblue" d="M154.241,-168.271C154.465,-147.617 152.993,-94.5891 134,-56 128.493,-44.8103 119.278,-34.4708 110.881,-26.5319"/>
<polygon fill="midnightblue" stroke="midnightblue" points="113.021,-23.7506 103.228,-19.7065 108.362,-28.9747 113.021,-23.7506"/>
</g>
</g>
</svg>
