<?xml version="1.0" encoding="UTF-8" standalone="no"?>
<!DOCTYPE svg PUBLIC "-//W3C//DTD SVG 1.1//EN"
 "http://www.w3.org/Graphics/SVG/1.1/DTD/svg11.dtd">
<!-- Generated by graphviz version 2.38.0 (20140413.2041)
 -->
<!-- Title: head.h Pages: 1 -->
<svg width="165pt" height="207pt"
 viewBox="0.00 0.00 164.60 207.00" xmlns="http://www.w3.org/2000/svg" xmlns:xlink="http://www.w3.org/1999/xlink">
<g id="graph0" class="graph" transform="scale(1 1) rotate(0) translate(4 203)">
<title>head.h</title>
<!-- Node1 -->
<g id="node1" class="node"><title>Node1</title>
<g id="a_node1"><a xlink:title=" ">
<polygon fill="#bfbfbf" stroke="black" points="2.09946,-179.5 2.09946,-198.5 48.0995,-198.5 48.0995,-179.5 2.09946,-179.5"/>
<text text-anchor="middle" x="25.0995" y="-186.5" font-family="Helvetica,sans-Serif" font-size="10.00">head.h</text>
</a>
</g>
</g>
<!-- Node2 -->
<g id="node2" class="node"><title>Node2</title>
<g id="a_node2"><a xlink:href="types_8h.html" target="_top" xlink:title=" ">
<polygon fill="none" stroke="black" points="15.0995,-56.5 15.0995,-75.5 75.0995,-75.5 75.0995,-56.5 15.0995,-56.5"/>
<text text-anchor="middle" x="45.0995" y="-63.5" font-family="Helvetica,sans-Serif" font-size="10.00">sr/types.h</text>
</a>
</g>
</g>
<!-- Node1&#45;&gt;Node2 -->
<g id="edge1" class="edge"><title>Node1&#45;&gt;Node2</title>
<path fill="none" stroke="midnightblue" d="M26.5378,-179.298C29.7667,-159.763 37.6508,-112.065 42.0338,-85.5471"/>
<polygon fill="midnightblue" stroke="midnightblue" points="45.4964,-86.0601 43.6741,-75.6232 38.5901,-84.9185 45.4964,-86.0601"/>
</g>
<!-- Node3 -->
<g id="node3" class="node"><title>Node3</title>
<g id="a_node3"><a xlink:title=" ">
<polygon fill="none" stroke="#bfbfbf" points="20.5995,-0.5 20.5995,-19.5 69.5995,-19.5 69.5995,-0.5 20.5995,-0.5"/>
<text text-anchor="middle" x="45.0995" y="-7.5" font-family="Helvetica,sans-Serif" font-size="10.00">stdint.h</text>
</a>
</g>
</g>
<!-- Node1&#45;&gt;Node3 -->
<g id="edge3" class="edge"><title>Node1&#45;&gt;Node3</title>
<path fill="none" stroke="midnightblue" d="M21.0228,-179.351C11.4583,-157.799 -10.4084,-100.253 6.09946,-56 10.2728,-44.8124 18.6191,-34.5598 26.5233,-26.6759"/>
<polygon fill="midnightblue" stroke="midnightblue" points="29.161,-29.0029 34.1093,-19.6346 24.3989,-23.8724 29.161,-29.0029"/>
</g>
<!-- Node4 -->
<g id="node4" class="node"><title>Node4</title>
<g id="a_node4"><a xlink:href="eyepair_8h.html" target="_top" xlink:title=" ">
<polygon fill="none" stroke="black" points="53.5995,-112.5 53.5995,-142.5 156.599,-142.5 156.599,-112.5 53.5995,-112.5"/>
<text text-anchor="start" x="61.5995" y="-130.5" font-family="Helvetica,sans-Serif" font-size="10.00">sr/sense/eyetracker</text>
<text text-anchor="middle" x="105.099" y="-119.5" font-family="Helvetica,sans-Serif" font-size="10.00">/eyepair.h</text>
</a>
</g>
</g>
<!-- Node1&#45;&gt;Node4 -->
<g id="edge4" class="edge"><title>Node1&#45;&gt;Node4</title>
<path fill="none" stroke="midnightblue" d="M36.5615,-179.475C47.2951,-171.492 63.7493,-159.254 77.8453,-148.77"/>
<polygon fill="midnightblue" stroke="midnightblue" points="80.3098,-151.299 86.245,-142.523 76.1323,-145.682 80.3098,-151.299"/>
</g>
<!-- Node2&#45;&gt;Node3 -->
<g id="edge2" class="edge"><title>Node2&#45;&gt;Node3</title>
<path fill="none" stroke="midnightblue" d="M45.0995,-56.083C45.0995,-49.0059 45.0995,-38.8611 45.0995,-29.9865"/>
<polygon fill="midnightblue" stroke="midnightblue" points="48.5996,-29.751 45.0995,-19.7511 41.5996,-29.7511 48.5996,-29.751"/>
</g>
<!-- Node4&#45;&gt;Node2 -->
<g id="edge5" class="edge"><title>Node4&#45;&gt;Node2</title>
<path fill="none" stroke="midnightblue" d="M90.8803,-112.399C81.8919,-103.486 70.2615,-91.9523 60.9725,-82.7408"/>
<polygon fill="midnightblue" stroke="midnightblue" points="63.3951,-80.214 53.83,-75.6578 58.4661,-85.1844 63.3951,-80.214"/>
</g>
<!-- Node4&#45;&gt;Node3 -->
<g id="edge6" class="edge"><title>Node4&#45;&gt;Node3</title>
<path fill="none" stroke="midnightblue" d="M102.71,-112.301C99.8171,-97.5523 94.051,-74.1385 84.0995,-56 78.2814,-45.3954 69.6352,-35.0846 61.9612,-27.0141"/>
<polygon fill="midnightblue" stroke="midnightblue" points="64.2844,-24.3867 54.752,-19.7624 59.3202,-29.3219 64.2844,-24.3867"/>
</g>
</g>
</svg>
