<?xml version="1.0" encoding="UTF-8" standalone="no"?>
<!DOCTYPE svg PUBLIC "-//W3C//DTD SVG 1.1//EN"
 "http://www.w3.org/Graphics/SVG/1.1/DTD/svg11.dtd">
<!-- Generated by graphviz version 2.38.0 (20140413.2041)
 -->
<!-- Title: headtracker.h Pages: 1 -->
<svg width="873pt" height="375pt"
 viewBox="0.00 0.00 873.11 375.00" xmlns="http://www.w3.org/2000/svg" xmlns:xlink="http://www.w3.org/1999/xlink">
<g id="graph0" class="graph" transform="scale(1 1) rotate(0) translate(4 371)">
<title>headtracker.h</title>
<!-- Node1 -->
<g id="node1" class="node"><title>Node1</title>
<g id="a_node1"><a xlink:title=" ">
<polygon fill="#bfbfbf" stroke="black" points="295.607,-347.5 295.607,-366.5 371.607,-366.5 371.607,-347.5 295.607,-347.5"/>
<text text-anchor="middle" x="333.607" y="-354.5" font-family="Helvetica,sans-Serif" font-size="10.00">headtracker.h</text>
</a>
</g>
</g>
<!-- Node2 -->
<g id="node2" class="node"><title>Node2</title>
<g id="a_node2"><a xlink:href="headstream_8h.html" target="_top" xlink:title=" ">
<polygon fill="none" stroke="black" points="251.607,-291.5 251.607,-310.5 327.607,-310.5 327.607,-291.5 251.607,-291.5"/>
<text text-anchor="middle" x="289.607" y="-298.5" font-family="Helvetica,sans-Serif" font-size="10.00">headstream.h</text>
</a>
</g>
</g>
<!-- Node1&#45;&gt;Node2 -->
<g id="edge1" class="edge"><title>Node1&#45;&gt;Node2</title>
<path fill="none" stroke="midnightblue" d="M326.342,-347.083C320.063,-339.377 310.82,-328.033 303.177,-318.653"/>
<polygon fill="midnightblue" stroke="midnightblue" points="305.768,-316.293 296.738,-310.751 300.341,-320.714 305.768,-316.293"/>
</g>
<!-- Node9 -->
<g id="node9" class="node"><title>Node9</title>
<g id="a_node9"><a xlink:href="srcontext_8h.html" target="_top" xlink:title=" ">
<polygon fill="none" stroke="black" points="386.607,-235.5 386.607,-254.5 522.607,-254.5 522.607,-235.5 386.607,-235.5"/>
<text text-anchor="middle" x="454.607" y="-242.5" font-family="Helvetica,sans-Serif" font-size="10.00">sr/management/srcontext.h</text>
</a>
</g>
</g>
<!-- Node1&#45;&gt;Node9 -->
<g id="edge11" class="edge"><title>Node1&#45;&gt;Node9</title>
<path fill="none" stroke="midnightblue" d="M343.102,-347.368C363.512,-328.814 411.803,-284.913 437.626,-261.438"/>
<polygon fill="midnightblue" stroke="midnightblue" points="440.112,-263.908 445.157,-254.591 435.403,-258.728 440.112,-263.908"/>
</g>
<!-- Node3 -->
<g id="node3" class="node"><title>Node3</title>
<g id="a_node3"><a xlink:href="headlistener_8h.html" target="_top" xlink:title=" ">
<polygon fill="none" stroke="black" points="97.1074,-235.5 97.1074,-254.5 174.107,-254.5 174.107,-235.5 97.1074,-235.5"/>
<text text-anchor="middle" x="135.607" y="-242.5" font-family="Helvetica,sans-Serif" font-size="10.00">headlistener.h</text>
</a>
</g>
</g>
<!-- Node2&#45;&gt;Node3 -->
<g id="edge2" class="edge"><title>Node2&#45;&gt;Node3</title>
<path fill="none" stroke="midnightblue" d="M265.206,-291.444C239.411,-282.399 198.531,-268.064 169.59,-257.916"/>
<polygon fill="midnightblue" stroke="midnightblue" points="170.49,-254.523 159.895,-254.516 168.174,-261.128 170.49,-254.523"/>
</g>
<!-- Node8 -->
<g id="node8" class="node"><title>Node8</title>
<g id="a_node8"><a xlink:title=" ">
<polygon fill="none" stroke="#bfbfbf" points="263.607,-235.5 263.607,-254.5 315.607,-254.5 315.607,-235.5 263.607,-235.5"/>
<text text-anchor="middle" x="289.607" y="-242.5" font-family="Helvetica,sans-Serif" font-size="10.00">memory</text>
</a>
</g>
</g>
<!-- Node2&#45;&gt;Node8 -->
<g id="edge10" class="edge"><title>Node2&#45;&gt;Node8</title>
<path fill="none" stroke="midnightblue" d="M289.607,-291.083C289.607,-284.006 289.607,-273.861 289.607,-264.986"/>
<polygon fill="midnightblue" stroke="midnightblue" points="293.108,-264.751 289.607,-254.751 286.108,-264.751 293.108,-264.751"/>
</g>
<!-- Node4 -->
<g id="node4" class="node"><title>Node4</title>
<g id="a_node4"><a xlink:href="head_8h.html" target="_top" xlink:title=" ">
<polygon fill="none" stroke="black" points="85.6074,-179.5 85.6074,-198.5 131.607,-198.5 131.607,-179.5 85.6074,-179.5"/>
<text text-anchor="middle" x="108.607" y="-186.5" font-family="Helvetica,sans-Serif" font-size="10.00">head.h</text>
</a>
</g>
</g>
<!-- Node3&#45;&gt;Node4 -->
<g id="edge3" class="edge"><title>Node3&#45;&gt;Node4</title>
<path fill="none" stroke="midnightblue" d="M131.149,-235.083C127.453,-227.691 122.084,-216.953 117.513,-207.811"/>
<polygon fill="midnightblue" stroke="midnightblue" points="120.586,-206.13 112.983,-198.751 114.325,-209.261 120.586,-206.13"/>
</g>
<!-- Node5 -->
<g id="node5" class="node"><title>Node5</title>
<g id="a_node5"><a xlink:href="types_8h.html" target="_top" xlink:title=" ">
<polygon fill="none" stroke="black" points="107.607,-56.5 107.607,-75.5 167.607,-75.5 167.607,-56.5 107.607,-56.5"/>
<text text-anchor="middle" x="137.607" y="-63.5" font-family="Helvetica,sans-Serif" font-size="10.00">sr/types.h</text>
</a>
</g>
</g>
<!-- Node4&#45;&gt;Node5 -->
<g id="edge4" class="edge"><title>Node4&#45;&gt;Node5</title>
<path fill="none" stroke="midnightblue" d="M113.407,-179.326C118.078,-170.471 124.985,-156.19 128.607,-143 133.823,-124.01 136.016,-101.533 136.938,-85.9728"/>
<polygon fill="midnightblue" stroke="midnightblue" points="140.453,-85.7472 137.425,-75.5943 133.46,-85.4194 140.453,-85.7472"/>
</g>
<!-- Node6 -->
<g id="node6" class="node"><title>Node6</title>
<g id="a_node6"><a xlink:title=" ">
<polygon fill="none" stroke="#bfbfbf" points="81.1074,-0.5 81.1074,-19.5 130.107,-19.5 130.107,-0.5 81.1074,-0.5"/>
<text text-anchor="middle" x="105.607" y="-7.5" font-family="Helvetica,sans-Serif" font-size="10.00">stdint.h</text>
</a>
</g>
</g>
<!-- Node4&#45;&gt;Node6 -->
<g id="edge6" class="edge"><title>Node4&#45;&gt;Node6</title>
<path fill="none" stroke="midnightblue" d="M85.4924,-184.973C61.3793,-180.447 24.7503,-169.405 7.60741,-143 -21.4062,-98.31 44.0069,-48.6054 81.5598,-24.9639"/>
<polygon fill="midnightblue" stroke="midnightblue" points="83.73,-27.7392 90.4324,-19.5338 80.076,-21.7686 83.73,-27.7392"/>
</g>
<!-- Node7 -->
<g id="node7" class="node"><title>Node7</title>
<g id="a_node7"><a xlink:href="eyepair_8h.html" target="_top" xlink:title=" ">
<polygon fill="none" stroke="black" points="17.1074,-112.5 17.1074,-142.5 120.107,-142.5 120.107,-112.5 17.1074,-112.5"/>
<text text-anchor="start" x="25.1074" y="-130.5" font-family="Helvetica,sans-Serif" font-size="10.00">sr/sense/eyetracker</text>
<text text-anchor="middle" x="68.6074" y="-119.5" font-family="Helvetica,sans-Serif" font-size="10.00">/eyepair.h</text>
</a>
</g>
</g>
<!-- Node4&#45;&gt;Node7 -->
<g id="edge7" class="edge"><title>Node4&#45;&gt;Node7</title>
<path fill="none" stroke="midnightblue" d="M102.876,-179.475C97.864,-172.019 90.3566,-160.852 83.6451,-150.869"/>
<polygon fill="midnightblue" stroke="midnightblue" points="86.5185,-148.869 78.0346,-142.523 80.7092,-152.775 86.5185,-148.869"/>
</g>
<!-- Node5&#45;&gt;Node6 -->
<g id="edge5" class="edge"><title>Node5&#45;&gt;Node6</title>
<path fill="none" stroke="midnightblue" d="M132.323,-56.083C127.896,-48.6127 121.444,-37.7244 115.99,-28.5199"/>
<polygon fill="midnightblue" stroke="midnightblue" points="118.902,-26.5697 110.793,-19.7511 112.88,-30.1383 118.902,-26.5697"/>
</g>
<!-- Node7&#45;&gt;Node5 -->
<g id="edge8" class="edge"><title>Node7&#45;&gt;Node5</title>
<path fill="none" stroke="midnightblue" d="M84.9594,-112.399C95.5028,-103.308 109.207,-91.4899 119.991,-82.1909"/>
<polygon fill="midnightblue" stroke="midnightblue" points="122.28,-84.8389 127.567,-75.6578 117.708,-79.5377 122.28,-84.8389"/>
</g>
<!-- Node7&#45;&gt;Node6 -->
<g id="edge9" class="edge"><title>Node7&#45;&gt;Node6</title>
<path fill="none" stroke="midnightblue" d="M73.1443,-112.337C79.8411,-91.4325 92.374,-52.3096 99.7548,-29.2696"/>
<polygon fill="midnightblue" stroke="midnightblue" points="103.113,-30.2605 102.83,-19.6695 96.4462,-28.125 103.113,-30.2605"/>
</g>
<!-- Node10 -->
<g id="node10" class="node"><title>Node10</title>
<g id="a_node10"><a xlink:title=" ">
<polygon fill="none" stroke="#bfbfbf" points="365.107,-118 365.107,-137 406.107,-137 406.107,-118 365.107,-118"/>
<text text-anchor="middle" x="385.607" y="-125" font-family="Helvetica,sans-Serif" font-size="10.00">string</text>
</a>
</g>
</g>
<!-- Node9&#45;&gt;Node10 -->
<g id="edge12" class="edge"><title>Node9&#45;&gt;Node10</title>
<path fill="none" stroke="midnightblue" d="M415.762,-235.364C396.23,-228.847 374.28,-217.704 362.607,-199 352.221,-182.358 362.347,-160.55 372.247,-145.622"/>
<polygon fill="midnightblue" stroke="midnightblue" points="375.214,-147.491 378.197,-137.324 369.525,-143.412 375.214,-147.491"/>
</g>
<!-- Node11 -->
<g id="node11" class="node"><title>Node11</title>
<g id="a_node11"><a xlink:title=" ">
<polygon fill="none" stroke="#bfbfbf" points="830.107,-179.5 830.107,-198.5 865.107,-198.5 865.107,-179.5 830.107,-179.5"/>
<text text-anchor="middle" x="847.607" y="-186.5" font-family="Helvetica,sans-Serif" font-size="10.00">map</text>
</a>
</g>
</g>
<!-- Node9&#45;&gt;Node11 -->
<g id="edge13" class="edge"><title>Node9&#45;&gt;Node11</title>
<path fill="none" stroke="midnightblue" d="M522.759,-239.701C594.621,-234.251 711.119,-222.818 820.179,-198.642"/>
<polygon fill="midnightblue" stroke="midnightblue" points="821.048,-202.034 830.031,-196.419 819.506,-195.206 821.048,-202.034"/>
</g>
<!-- Node12 -->
<g id="node12" class="node"><title>Node12</title>
<g id="a_node12"><a xlink:href="sense_8h.html" target="_top" xlink:title=" ">
<polygon fill="none" stroke="black" points="202.107,-179.5 202.107,-198.5 315.107,-198.5 315.107,-179.5 202.107,-179.5"/>
<text text-anchor="middle" x="258.607" y="-186.5" font-family="Helvetica,sans-Serif" font-size="10.00">sr/sense/core/sense.h</text>
</a>
</g>
</g>
<!-- Node9&#45;&gt;Node12 -->
<g id="edge14" class="edge"><title>Node9&#45;&gt;Node12</title>
<path fill="none" stroke="midnightblue" d="M423.551,-235.444C390.004,-226.201 336.411,-211.436 299.467,-201.257"/>
<polygon fill="midnightblue" stroke="midnightblue" points="300.089,-197.798 289.519,-198.516 298.23,-204.547 300.089,-197.798"/>
</g>
<!-- Node18 -->
<g id="node18" class="node"><title>Node18</title>
<g id="a_node18"><a xlink:href="worldobject_8h.html" target="_top" xlink:title=" ">
<polygon fill="none" stroke="black" points="555.607,-179.5 555.607,-198.5 665.607,-198.5 665.607,-179.5 555.607,-179.5"/>
<text text-anchor="middle" x="610.607" y="-186.5" font-family="Helvetica,sans-Serif" font-size="10.00">sr/world/worldobject.h</text>
</a>
</g>
</g>
<!-- Node9&#45;&gt;Node18 -->
<g id="edge22" class="edge"><title>Node9&#45;&gt;Node18</title>
<path fill="none" stroke="midnightblue" d="M479.326,-235.444C505.456,-226.399 546.867,-212.064 576.184,-201.916"/>
<polygon fill="midnightblue" stroke="midnightblue" points="577.699,-205.095 586.004,-198.516 575.41,-198.48 577.699,-205.095"/>
</g>
<!-- Node20 -->
<g id="node20" class="node"><title>Node20</title>
<g id="a_node20"><a xlink:href="networkinterface_8h.html" target="_top" xlink:title=" ">
<polygon fill="none" stroke="black" points="372.107,-179.5 372.107,-198.5 537.107,-198.5 537.107,-179.5 372.107,-179.5"/>
<text text-anchor="middle" x="454.607" y="-186.5" font-family="Helvetica,sans-Serif" font-size="10.00">sr/network/core/networkinterface.h</text>
</a>
</g>
</g>
<!-- Node9&#45;&gt;Node20 -->
<g id="edge26" class="edge"><title>Node9&#45;&gt;Node20</title>
<path fill="none" stroke="midnightblue" d="M454.607,-235.083C454.607,-228.006 454.607,-217.861 454.607,-208.986"/>
<polygon fill="midnightblue" stroke="midnightblue" points="458.108,-208.751 454.607,-198.751 451.108,-208.751 458.108,-208.751"/>
</g>
<!-- Node21 -->
<g id="node21" class="node"><title>Node21</title>
<g id="a_node21"><a xlink:href="receiver_8h.html" target="_top" xlink:title=" ">
<polygon fill="none" stroke="black" points="683.607,-179.5 683.607,-198.5 811.607,-198.5 811.607,-179.5 683.607,-179.5"/>
<text text-anchor="middle" x="747.607" y="-186.5" font-family="Helvetica,sans-Serif" font-size="10.00">sr/network/core/receiver.h</text>
</a>
</g>
</g>
<!-- Node9&#45;&gt;Node21 -->
<g id="edge27" class="edge"><title>Node9&#45;&gt;Node21</title>
<path fill="none" stroke="midnightblue" d="M501.034,-235.444C552.683,-225.925 636.12,-210.547 691.415,-200.356"/>
<polygon fill="midnightblue" stroke="midnightblue" points="692.198,-203.771 701.398,-198.516 690.929,-196.887 692.198,-203.771"/>
</g>
<!-- Node12&#45;&gt;Node10 -->
<g id="edge15" class="edge"><title>Node12&#45;&gt;Node10</title>
<path fill="none" stroke="midnightblue" d="M277.244,-179.461C296.803,-170.473 328.427,-155.872 355.607,-143 356.601,-142.53 357.612,-142.049 358.633,-141.563"/>
<polygon fill="midnightblue" stroke="midnightblue" points="360.361,-144.616 367.863,-137.134 357.333,-138.304 360.361,-144.616"/>
</g>
<!-- Node13 -->
<g id="node13" class="node"><title>Node13</title>
<g id="a_node13"><a xlink:title=" ">
<polygon fill="none" stroke="#bfbfbf" points="176.607,-118 176.607,-137 222.607,-137 222.607,-118 176.607,-118"/>
<text text-anchor="middle" x="199.607" y="-125" font-family="Helvetica,sans-Serif" font-size="10.00">chrono</text>
</a>
</g>
</g>
<!-- Node12&#45;&gt;Node13 -->
<g id="edge16" class="edge"><title>Node12&#45;&gt;Node13</title>
<path fill="none" stroke="midnightblue" d="M250.154,-179.475C241.041,-170.285 226.337,-155.456 215.132,-144.156"/>
<polygon fill="midnightblue" stroke="midnightblue" points="217.571,-141.646 208.045,-137.009 212.601,-146.574 217.571,-141.646"/>
</g>
<!-- Node14 -->
<g id="node14" class="node"><title>Node14</title>
<g id="a_node14"><a xlink:title=" ">
<polygon fill="none" stroke="#bfbfbf" points="240.607,-118 240.607,-137 284.607,-137 284.607,-118 240.607,-118"/>
<text text-anchor="middle" x="262.607" y="-125" font-family="Helvetica,sans-Serif" font-size="10.00">thread</text>
</a>
</g>
</g>
<!-- Node12&#45;&gt;Node14 -->
<g id="edge17" class="edge"><title>Node12&#45;&gt;Node14</title>
<path fill="none" stroke="midnightblue" d="M259.181,-179.475C259.745,-171.08 260.626,-157.981 261.353,-147.163"/>
<polygon fill="midnightblue" stroke="midnightblue" points="264.857,-147.221 262.035,-137.009 257.872,-146.752 264.857,-147.221"/>
</g>
<!-- Node15 -->
<g id="node15" class="node"><title>Node15</title>
<g id="a_node15"><a xlink:title=" ">
<polygon fill="none" stroke="#bfbfbf" points="302.607,-118 302.607,-137 346.607,-137 346.607,-118 302.607,-118"/>
<text text-anchor="middle" x="324.607" y="-125" font-family="Helvetica,sans-Serif" font-size="10.00">mutex</text>
</a>
</g>
</g>
<!-- Node12&#45;&gt;Node15 -->
<g id="edge18" class="edge"><title>Node12&#45;&gt;Node15</title>
<path fill="none" stroke="midnightblue" d="M268.064,-179.475C278.356,-170.197 295.023,-155.171 307.602,-143.831"/>
<polygon fill="midnightblue" stroke="midnightblue" points="310.085,-146.305 315.169,-137.009 305.398,-141.105 310.085,-146.305"/>
</g>
<!-- Node16 -->
<g id="node16" class="node"><title>Node16</title>
<g id="a_node16"><a xlink:href="transformation_8h.html" target="_top" xlink:title=" ">
<polygon fill="none" stroke="black" points="428.607,-118 428.607,-137 514.607,-137 514.607,-118 428.607,-118"/>
<text text-anchor="middle" x="471.607" y="-125" font-family="Helvetica,sans-Serif" font-size="10.00">transformation.h</text>
</a>
</g>
</g>
<!-- Node12&#45;&gt;Node16 -->
<g id="edge19" class="edge"><title>Node12&#45;&gt;Node16</title>
<path fill="none" stroke="midnightblue" d="M289.125,-179.475C326.532,-169.026 390.034,-151.287 431.394,-139.733"/>
<polygon fill="midnightblue" stroke="midnightblue" points="432.457,-143.071 441.146,-137.009 430.573,-136.329 432.457,-143.071"/>
</g>
<!-- Node16&#45;&gt;Node5 -->
<g id="edge21" class="edge"><title>Node16&#45;&gt;Node5</title>
<path fill="none" stroke="midnightblue" d="M440.065,-117.949C431.814,-115.857 422.905,-113.726 414.607,-112 330.984,-94.6063 231.988,-79.9318 177.892,-72.4094"/>
<polygon fill="midnightblue" stroke="midnightblue" points="178.074,-68.9014 167.689,-71.0016 177.117,-75.8357 178.074,-68.9014"/>
</g>
<!-- Node17 -->
<g id="node17" class="node"><title>Node17</title>
<g id="a_node17"><a xlink:title=" ">
<polygon fill="none" stroke="#bfbfbf" points="423.607,-56.5 423.607,-75.5 527.607,-75.5 527.607,-56.5 423.607,-56.5"/>
<text text-anchor="middle" x="475.607" y="-63.5" font-family="Helvetica,sans-Serif" font-size="10.00">opencv2/opencv.hpp</text>
</a>
</g>
</g>
<!-- Node16&#45;&gt;Node17 -->
<g id="edge20" class="edge"><title>Node16&#45;&gt;Node17</title>
<path fill="none" stroke="midnightblue" d="M472.181,-117.975C472.745,-109.58 473.626,-96.4806 474.353,-85.6631"/>
<polygon fill="midnightblue" stroke="midnightblue" points="477.857,-85.7214 475.035,-75.5091 470.872,-85.2518 477.857,-85.7214"/>
</g>
<!-- Node18&#45;&gt;Node16 -->
<g id="edge25" class="edge"><title>Node18&#45;&gt;Node16</title>
<path fill="none" stroke="midnightblue" d="M590.692,-179.475C567.158,-169.401 527.797,-152.553 500.815,-141.002"/>
<polygon fill="midnightblue" stroke="midnightblue" points="502.056,-137.727 491.486,-137.009 499.302,-144.162 502.056,-137.727"/>
</g>
<!-- Node18&#45;&gt;Node17 -->
<g id="edge24" class="edge"><title>Node18&#45;&gt;Node17</title>
<path fill="none" stroke="midnightblue" d="M600.899,-179.298C578.228,-158.978 521.559,-108.186 492.852,-82.4566"/>
<polygon fill="midnightblue" stroke="midnightblue" points="495.011,-79.6913 485.228,-75.6232 490.339,-84.9039 495.011,-79.6913"/>
</g>
<!-- Node19 -->
<g id="node19" class="node"><title>Node19</title>
<g id="a_node19"><a xlink:title=" ">
<polygon fill="none" stroke="#bfbfbf" points="589.607,-118 589.607,-137 631.607,-137 631.607,-118 589.607,-118"/>
<text text-anchor="middle" x="610.607" y="-125" font-family="Helvetica,sans-Serif" font-size="10.00">vector</text>
</a>
</g>
</g>
<!-- Node18&#45;&gt;Node19 -->
<g id="edge23" class="edge"><title>Node18&#45;&gt;Node19</title>
<path fill="none" stroke="midnightblue" d="M610.607,-179.475C610.607,-171.08 610.607,-157.981 610.607,-147.163"/>
<polygon fill="midnightblue" stroke="midnightblue" points="614.108,-147.009 610.607,-137.009 607.108,-147.009 614.108,-147.009"/>
</g>
<!-- Node22 -->
<g id="node22" class="node"><title>Node22</title>
<g id="a_node22"><a xlink:href="packet_8h.html" target="_top" xlink:title=" ">
<polygon fill="none" stroke="black" points="654.607,-118 654.607,-137 708.607,-137 708.607,-118 654.607,-118"/>
<text text-anchor="middle" x="681.607" y="-125" font-family="Helvetica,sans-Serif" font-size="10.00">packet.h</text>
</a>
</g>
</g>
<!-- Node21&#45;&gt;Node22 -->
<g id="edge28" class="edge"><title>Node21&#45;&gt;Node22</title>
<path fill="none" stroke="midnightblue" d="M738.151,-179.475C727.859,-170.197 711.192,-155.171 698.613,-143.831"/>
<polygon fill="midnightblue" stroke="midnightblue" points="700.817,-141.105 691.046,-137.009 696.13,-146.305 700.817,-141.105"/>
</g>
<!-- Node22&#45;&gt;Node6 -->
<g id="edge29" class="edge"><title>Node22&#45;&gt;Node6</title>
<path fill="none" stroke="midnightblue" d="M664.517,-117.994C627.629,-99.6613 543.319,-57.9176 536.607,-56 393.886,-15.2235 215.154,-10.5708 140.689,-10.5811"/>
<polygon fill="midnightblue" stroke="midnightblue" points="140.465,-7.08164 130.476,-10.6127 140.486,-14.0816 140.465,-7.08164"/>
</g>
<!-- Node23 -->
<g id="node23" class="node"><title>Node23</title>
<g id="a_node23"><a xlink:title=" ">
<polygon fill="none" stroke="#bfbfbf" points="589.607,-56.5 589.607,-75.5 643.607,-75.5 643.607,-56.5 589.607,-56.5"/>
<text text-anchor="middle" x="616.607" y="-63.5" font-family="Helvetica,sans-Serif" font-size="10.00">iostream</text>
</a>
</g>
</g>
<!-- Node22&#45;&gt;Node23 -->
<g id="edge30" class="edge"><title>Node22&#45;&gt;Node23</title>
<path fill="none" stroke="midnightblue" d="M672.294,-117.975C662.158,-108.697 645.743,-93.6706 633.356,-82.331"/>
<polygon fill="midnightblue" stroke="midnightblue" points="635.643,-79.6795 625.903,-75.5091 630.916,-84.8429 635.643,-79.6795"/>
</g>
<!-- Node24 -->
<g id="node24" class="node"><title>Node24</title>
<g id="a_node24"><a xlink:title=" ">
<polygon fill="none" stroke="#bfbfbf" points="661.607,-56.5 661.607,-75.5 711.607,-75.5 711.607,-56.5 661.607,-56.5"/>
<text text-anchor="middle" x="686.607" y="-63.5" font-family="Helvetica,sans-Serif" font-size="10.00">iomanip</text>
</a>
</g>
</g>
<!-- Node22&#45;&gt;Node24 -->
<g id="edge31" class="edge"><title>Node22&#45;&gt;Node24</title>
<path fill="none" stroke="midnightblue" d="M682.324,-117.975C683.029,-109.58 684.13,-96.4806 685.039,-85.6631"/>
<polygon fill="midnightblue" stroke="midnightblue" points="688.543,-85.7671 685.892,-75.5091 681.567,-85.1808 688.543,-85.7671"/>
</g>
</g>
</svg>
