<?xml version="1.0" encoding="UTF-8" standalone="no"?>
<!DOCTYPE svg PUBLIC "-//W3C//DTD SVG 1.1//EN"
 "http://www.w3.org/Graphics/SVG/1.1/DTD/svg11.dtd">
<!-- Generated by graphviz version 2.38.0 (20140413.2041)
 -->
<!-- Title: headposestream.h Pages: 1 -->
<svg width="227pt" height="319pt"
 viewBox="0.00 0.00 226.50 319.00" xmlns="http://www.w3.org/2000/svg" xmlns:xlink="http://www.w3.org/1999/xlink">
<g id="graph0" class="graph" transform="scale(1 1) rotate(0) translate(4 315)">
<title>headposestream.h</title>
<!-- Node1 -->
<g id="node1" class="node"><title>Node1</title>
<g id="a_node1"><a xlink:title=" ">
<polygon fill="#bfbfbf" stroke="black" points="77.5,-291.5 77.5,-310.5 174.5,-310.5 174.5,-291.5 77.5,-291.5"/>
<text text-anchor="middle" x="126" y="-298.5" font-family="Helvetica,sans-Serif" font-size="10.00">headposestream.h</text>
</a>
</g>
</g>
<!-- Node2 -->
<g id="node2" class="node"><title>Node2</title>
<g id="a_node2"><a xlink:href="headposelistener_8h.html" target="_top" xlink:title=" ">
<polygon fill="none" stroke="black" points="0,-235.5 0,-254.5 98,-254.5 98,-235.5 0,-235.5"/>
<text text-anchor="middle" x="49" y="-242.5" font-family="Helvetica,sans-Serif" font-size="10.00">headposelistener.h</text>
</a>
</g>
</g>
<!-- Node1&#45;&gt;Node2 -->
<g id="edge1" class="edge"><title>Node1&#45;&gt;Node2</title>
<path fill="none" stroke="midnightblue" d="M113.629,-291.324C101.842,-283.058 83.8677,-270.453 69.8645,-260.632"/>
<polygon fill="midnightblue" stroke="midnightblue" points="71.5376,-257.531 61.3407,-254.655 67.5184,-263.262 71.5376,-257.531"/>
</g>
<!-- Node3 -->
<g id="node3" class="node"><title>Node3</title>
<g id="a_node3"><a xlink:href="head_8h.html" target="_top" xlink:title=" ">
<polygon fill="none" stroke="black" points="64,-179.5 64,-198.5 110,-198.5 110,-179.5 64,-179.5"/>
<text text-anchor="middle" x="87" y="-186.5" font-family="Helvetica,sans-Serif" font-size="10.00">head.h</text>
</a>
</g>
</g>
<!-- Node1&#45;&gt;Node3 -->
<g id="edge9" class="edge"><title>Node1&#45;&gt;Node3</title>
<path fill="none" stroke="midnightblue" d="M123.896,-291.469C120.717,-278.933 114.283,-254.87 107,-235 103.69,-225.969 99.427,-216.185 95.6876,-208.054"/>
<polygon fill="midnightblue" stroke="midnightblue" points="98.767,-206.378 91.3423,-198.82 92.4332,-209.358 98.767,-206.378"/>
</g>
<!-- Node7 -->
<g id="node7" class="node"><title>Node7</title>
<g id="a_node7"><a xlink:title=" ">
<polygon fill="none" stroke="#bfbfbf" points="154,-235.5 154,-254.5 206,-254.5 206,-235.5 154,-235.5"/>
<text text-anchor="middle" x="180" y="-242.5" font-family="Helvetica,sans-Serif" font-size="10.00">memory</text>
</a>
</g>
</g>
<!-- Node1&#45;&gt;Node7 -->
<g id="edge10" class="edge"><title>Node1&#45;&gt;Node7</title>
<path fill="none" stroke="midnightblue" d="M134.917,-291.083C142.78,-283.22 154.431,-271.569 163.919,-262.081"/>
<polygon fill="midnightblue" stroke="midnightblue" points="166.653,-264.297 171.249,-254.751 161.703,-259.347 166.653,-264.297"/>
</g>
<!-- Node2&#45;&gt;Node3 -->
<g id="edge2" class="edge"><title>Node2&#45;&gt;Node3</title>
<path fill="none" stroke="midnightblue" d="M55.2749,-235.083C60.6425,-227.455 68.5176,-216.264 75.0787,-206.941"/>
<polygon fill="midnightblue" stroke="midnightblue" points="77.9492,-208.943 80.8418,-198.751 72.2245,-204.915 77.9492,-208.943"/>
</g>
<!-- Node4 -->
<g id="node4" class="node"><title>Node4</title>
<g id="a_node4"><a xlink:href="types_8h.html" target="_top" xlink:title=" ">
<polygon fill="none" stroke="black" points="78,-56.5 78,-75.5 138,-75.5 138,-56.5 78,-56.5"/>
<text text-anchor="middle" x="108" y="-63.5" font-family="Helvetica,sans-Serif" font-size="10.00">sr/types.h</text>
</a>
</g>
</g>
<!-- Node3&#45;&gt;Node4 -->
<g id="edge3" class="edge"><title>Node3&#45;&gt;Node4</title>
<path fill="none" stroke="midnightblue" d="M88.5103,-179.298C91.9006,-159.763 100.179,-112.065 104.781,-85.5471"/>
<polygon fill="midnightblue" stroke="midnightblue" points="108.242,-86.0744 106.503,-75.6232 101.345,-84.8774 108.242,-86.0744"/>
</g>
<!-- Node5 -->
<g id="node5" class="node"><title>Node5</title>
<g id="a_node5"><a xlink:title=" ">
<polygon fill="none" stroke="#bfbfbf" points="83.5,-0.5 83.5,-19.5 132.5,-19.5 132.5,-0.5 83.5,-0.5"/>
<text text-anchor="middle" x="108" y="-7.5" font-family="Helvetica,sans-Serif" font-size="10.00">stdint.h</text>
</a>
</g>
</g>
<!-- Node3&#45;&gt;Node5 -->
<g id="edge5" class="edge"><title>Node3&#45;&gt;Node5</title>
<path fill="none" stroke="midnightblue" d="M83.0325,-179.346C73.7308,-157.78 52.5093,-100.207 69,-56 73.1734,-44.8124 81.5196,-34.5598 89.4238,-26.6759"/>
<polygon fill="midnightblue" stroke="midnightblue" points="92.0616,-29.0029 97.0098,-19.6346 87.2994,-23.8724 92.0616,-29.0029"/>
</g>
<!-- Node6 -->
<g id="node6" class="node"><title>Node6</title>
<g id="a_node6"><a xlink:href="eyepair_8h.html" target="_top" xlink:title=" ">
<polygon fill="none" stroke="black" points="115.5,-112.5 115.5,-142.5 218.5,-142.5 218.5,-112.5 115.5,-112.5"/>
<text text-anchor="start" x="123.5" y="-130.5" font-family="Helvetica,sans-Serif" font-size="10.00">sr/sense/eyetracker</text>
<text text-anchor="middle" x="167" y="-119.5" font-family="Helvetica,sans-Serif" font-size="10.00">/eyepair.h</text>
</a>
</g>
</g>
<!-- Node3&#45;&gt;Node6 -->
<g id="edge6" class="edge"><title>Node3&#45;&gt;Node6</title>
<path fill="none" stroke="midnightblue" d="M98.462,-179.475C109.196,-171.492 125.65,-159.254 139.746,-148.77"/>
<polygon fill="midnightblue" stroke="midnightblue" points="142.21,-151.299 148.146,-142.523 138.033,-145.682 142.21,-151.299"/>
</g>
<!-- Node4&#45;&gt;Node5 -->
<g id="edge4" class="edge"><title>Node4&#45;&gt;Node5</title>
<path fill="none" stroke="midnightblue" d="M108,-56.083C108,-49.0059 108,-38.8611 108,-29.9865"/>
<polygon fill="midnightblue" stroke="midnightblue" points="111.5,-29.751 108,-19.7511 104.5,-29.7511 111.5,-29.751"/>
</g>
<!-- Node6&#45;&gt;Node4 -->
<g id="edge7" class="edge"><title>Node6&#45;&gt;Node4</title>
<path fill="none" stroke="midnightblue" d="M153.018,-112.399C144.268,-103.575 132.971,-92.1827 123.883,-83.0178"/>
<polygon fill="midnightblue" stroke="midnightblue" points="126.112,-80.2942 116.585,-75.6578 121.141,-85.2231 126.112,-80.2942"/>
</g>
<!-- Node6&#45;&gt;Node5 -->
<g id="edge8" class="edge"><title>Node6&#45;&gt;Node5</title>
<path fill="none" stroke="midnightblue" d="M164.853,-112.299C162.202,-97.5491 156.795,-74.1341 147,-56 141.251,-45.3576 132.611,-35.0435 124.923,-26.9806"/>
<polygon fill="midnightblue" stroke="midnightblue" points="127.237,-24.3442 117.695,-19.7393 122.283,-29.2895 127.237,-24.3442"/>
</g>
</g>
</svg>
