<?xml version="1.0" encoding="UTF-8" standalone="no"?>
<!DOCTYPE svg PUBLIC "-//W3C//DTD SVG 1.1//EN"
 "http://www.w3.org/Graphics/SVG/1.1/DTD/svg11.dtd">
<!-- Generated by graphviz version 2.38.0 (20140413.2041)
 -->
<!-- Title: head.h Pages: 1 -->
<svg width="346pt" height="196pt"
 viewBox="0.00 0.00 346.00 196.00" xmlns="http://www.w3.org/2000/svg" xmlns:xlink="http://www.w3.org/1999/xlink">
<g id="graph0" class="graph" transform="scale(1 1) rotate(0) translate(4 192)">
<title>head.h</title>
<!-- Node1 -->
<g id="node1" class="node"><title>Node1</title>
<g id="a_node1"><a xlink:title=" ">
<polygon fill="#bfbfbf" stroke="black" points="175.5,-168.5 175.5,-187.5 221.5,-187.5 221.5,-168.5 175.5,-168.5"/>
<text text-anchor="middle" x="198.5" y="-175.5" font-family="Helvetica,sans-Serif" font-size="10.00">head.h</text>
</a>
</g>
</g>
<!-- Node2 -->
<g id="node2" class="node"><title>Node2</title>
<g id="a_node2"><a xlink:href="facetrackers__c_8h.html" target="_top" xlink:title=" ">
<polygon fill="none" stroke="black" points="0,-112.5 0,-131.5 89,-131.5 89,-112.5 0,-112.5"/>
<text text-anchor="middle" x="44.5" y="-119.5" font-family="Helvetica,sans-Serif" font-size="10.00">facetrackers_c.h</text>
</a>
</g>
</g>
<!-- Node1&#45;&gt;Node2 -->
<g id="edge1" class="edge"><title>Node1&#45;&gt;Node2</title>
<path fill="none" stroke="midnightblue" d="M165.771,-165.524C136.799,-155.365 95.1622,-140.765 68.9875,-131.587"/>
<polygon fill="midnightblue" stroke="midnightblue" points="164.85,-168.909 175.445,-168.916 167.166,-162.304 164.85,-168.909"/>
</g>
<!-- Node3 -->
<g id="node3" class="node"><title>Node3</title>
<g id="a_node3"><a xlink:href="headlistener_8h.html" target="_top" xlink:title=" ">
<polygon fill="none" stroke="black" points="107,-112.5 107,-131.5 184,-131.5 184,-112.5 107,-112.5"/>
<text text-anchor="middle" x="145.5" y="-119.5" font-family="Helvetica,sans-Serif" font-size="10.00">headlistener.h</text>
</a>
</g>
</g>
<!-- Node1&#45;&gt;Node3 -->
<g id="edge2" class="edge"><title>Node1&#45;&gt;Node3</title>
<path fill="none" stroke="midnightblue" d="M182.519,-160.718C173.178,-151.2 161.754,-139.561 154.089,-131.751"/>
<polygon fill="midnightblue" stroke="midnightblue" points="180.246,-163.398 189.748,-168.083 185.241,-158.494 180.246,-163.398"/>
</g>
<!-- Node6 -->
<g id="node6" class="node"><title>Node6</title>
<g id="a_node6"><a xlink:href="headposelistener_8h.html" target="_top" xlink:title=" ">
<polygon fill="none" stroke="black" points="202.5,-112.5 202.5,-131.5 300.5,-131.5 300.5,-112.5 202.5,-112.5"/>
<text text-anchor="middle" x="251.5" y="-119.5" font-family="Helvetica,sans-Serif" font-size="10.00">headposelistener.h</text>
</a>
</g>
</g>
<!-- Node1&#45;&gt;Node6 -->
<g id="edge5" class="edge"><title>Node1&#45;&gt;Node6</title>
<path fill="none" stroke="midnightblue" d="M214.481,-160.718C223.822,-151.2 235.246,-139.561 242.911,-131.751"/>
<polygon fill="midnightblue" stroke="midnightblue" points="211.759,-158.494 207.252,-168.083 216.754,-163.398 211.759,-158.494"/>
</g>
<!-- Node7 -->
<g id="node7" class="node"><title>Node7</title>
<g id="a_node7"><a xlink:href="headposestream_8h.html" target="_top" xlink:title=" ">
<polygon fill="none" stroke="black" points="241,-56.5 241,-75.5 338,-75.5 338,-56.5 241,-56.5"/>
<text text-anchor="middle" x="289.5" y="-63.5" font-family="Helvetica,sans-Serif" font-size="10.00">headposestream.h</text>
</a>
</g>
</g>
<!-- Node1&#45;&gt;Node7 -->
<g id="edge8" class="edge"><title>Node1&#45;&gt;Node7</title>
<path fill="none" stroke="midnightblue" d="M232.099,-173.325C258.053,-168.525 292.346,-157.465 309.5,-132 321.506,-114.178 306.332,-88.8437 296.557,-75.6863"/>
<polygon fill="midnightblue" stroke="midnightblue" points="231.224,-169.921 221.912,-174.974 232.343,-176.831 231.224,-169.921"/>
</g>
<!-- Node4 -->
<g id="node4" class="node"><title>Node4</title>
<g id="a_node4"><a xlink:href="headstream_8h.html" target="_top" xlink:title=" ">
<polygon fill="none" stroke="black" points="107.5,-56.5 107.5,-75.5 183.5,-75.5 183.5,-56.5 107.5,-56.5"/>
<text text-anchor="middle" x="145.5" y="-63.5" font-family="Helvetica,sans-Serif" font-size="10.00">headstream.h</text>
</a>
</g>
</g>
<!-- Node3&#45;&gt;Node4 -->
<g id="edge3" class="edge"><title>Node3&#45;&gt;Node4</title>
<path fill="none" stroke="midnightblue" d="M145.5,-101.805C145.5,-92.9102 145.5,-82.7798 145.5,-75.7511"/>
<polygon fill="midnightblue" stroke="midnightblue" points="142,-102.083 145.5,-112.083 149,-102.083 142,-102.083"/>
</g>
<!-- Node5 -->
<g id="node5" class="node"><title>Node5</title>
<g id="a_node5"><a xlink:href="headtracker_8h.html" target="_top" xlink:title=" ">
<polygon fill="none" stroke="black" points="107.5,-0.5 107.5,-19.5 183.5,-19.5 183.5,-0.5 107.5,-0.5"/>
<text text-anchor="middle" x="145.5" y="-7.5" font-family="Helvetica,sans-Serif" font-size="10.00">headtracker.h</text>
</a>
</g>
</g>
<!-- Node4&#45;&gt;Node5 -->
<g id="edge4" class="edge"><title>Node4&#45;&gt;Node5</title>
<path fill="none" stroke="midnightblue" d="M145.5,-45.8045C145.5,-36.9102 145.5,-26.7798 145.5,-19.7511"/>
<polygon fill="midnightblue" stroke="midnightblue" points="142,-46.083 145.5,-56.083 149,-46.083 142,-46.083"/>
</g>
<!-- Node6&#45;&gt;Node7 -->
<g id="edge6" class="edge"><title>Node6&#45;&gt;Node7</title>
<path fill="none" stroke="midnightblue" d="M263.565,-103.855C270.145,-94.5048 278.011,-83.3265 283.342,-75.7511"/>
<polygon fill="midnightblue" stroke="midnightblue" points="260.668,-101.891 257.775,-112.083 266.392,-105.919 260.668,-101.891"/>
</g>
<!-- Node8 -->
<g id="node8" class="node"><title>Node8</title>
<g id="a_node8"><a xlink:href="headposetracker_8h.html" target="_top" xlink:title=" ">
<polygon fill="none" stroke="black" points="241,-0.5 241,-19.5 338,-19.5 338,-0.5 241,-0.5"/>
<text text-anchor="middle" x="289.5" y="-7.5" font-family="Helvetica,sans-Serif" font-size="10.00">headposetracker.h</text>
</a>
</g>
</g>
<!-- Node7&#45;&gt;Node8 -->
<g id="edge7" class="edge"><title>Node7&#45;&gt;Node8</title>
<path fill="none" stroke="midnightblue" d="M289.5,-45.8045C289.5,-36.9102 289.5,-26.7798 289.5,-19.7511"/>
<polygon fill="midnightblue" stroke="midnightblue" points="286,-46.083 289.5,-56.083 293,-46.083 286,-46.083"/>
</g>
</g>
</svg>
