<?xml version="1.0" encoding="UTF-8" standalone="no"?>
<!DOCTYPE svg PUBLIC "-//W3C//DTD SVG 1.1//EN"
 "http://www.w3.org/Graphics/SVG/1.1/DTD/svg11.dtd">
<!-- Generated by graphviz version 2.38.0 (20140413.2041)
 -->
<!-- Title: headposetracker.h Pages: 1 -->
<svg width="884pt" height="375pt"
 viewBox="0.00 0.00 883.50 375.00" xmlns="http://www.w3.org/2000/svg" xmlns:xlink="http://www.w3.org/1999/xlink">
<g id="graph0" class="graph" transform="scale(1 1) rotate(0) translate(4 371)">
<title>headposetracker.h</title>
<!-- Node1 -->
<g id="node1" class="node"><title>Node1</title>
<g id="a_node1"><a xlink:title=" ">
<polygon fill="#bfbfbf" stroke="black" points="202.5,-347.5 202.5,-366.5 299.5,-366.5 299.5,-347.5 202.5,-347.5"/>
<text text-anchor="middle" x="251" y="-354.5" font-family="Helvetica,sans-Serif" font-size="10.00">headposetracker.h</text>
</a>
</g>
</g>
<!-- Node2 -->
<g id="node2" class="node"><title>Node2</title>
<g id="a_node2"><a xlink:href="headposestream_8h.html" target="_top" xlink:title=" ">
<polygon fill="none" stroke="black" points="108.5,-291.5 108.5,-310.5 205.5,-310.5 205.5,-291.5 108.5,-291.5"/>
<text text-anchor="middle" x="157" y="-298.5" font-family="Helvetica,sans-Serif" font-size="10.00">headposestream.h</text>
</a>
</g>
</g>
<!-- Node1&#45;&gt;Node2 -->
<g id="edge1" class="edge"><title>Node1&#45;&gt;Node2</title>
<path fill="none" stroke="midnightblue" d="M235.897,-347.324C221.097,-338.822 198.306,-325.729 181.018,-315.797"/>
<polygon fill="midnightblue" stroke="midnightblue" points="182.48,-312.601 172.065,-310.655 178.993,-318.671 182.48,-312.601"/>
</g>
<!-- Node9 -->
<g id="node9" class="node"><title>Node9</title>
<g id="a_node9"><a xlink:href="srcontext_8h.html" target="_top" xlink:title=" ">
<polygon fill="none" stroke="black" points="397,-235.5 397,-254.5 533,-254.5 533,-235.5 397,-235.5"/>
<text text-anchor="middle" x="465" y="-242.5" font-family="Helvetica,sans-Serif" font-size="10.00">sr/management/srcontext.h</text>
</a>
</g>
</g>
<!-- Node1&#45;&gt;Node9 -->
<g id="edge12" class="edge"><title>Node1&#45;&gt;Node9</title>
<path fill="none" stroke="midnightblue" d="M267.792,-347.368C305.062,-328.211 394.895,-282.036 439.287,-259.217"/>
<polygon fill="midnightblue" stroke="midnightblue" points="440.992,-262.276 448.286,-254.591 437.792,-256.05 440.992,-262.276"/>
</g>
<!-- Node3 -->
<g id="node3" class="node"><title>Node3</title>
<g id="a_node3"><a xlink:href="headposelistener_8h.html" target="_top" xlink:title=" ">
<polygon fill="none" stroke="black" points="70,-235.5 70,-254.5 168,-254.5 168,-235.5 70,-235.5"/>
<text text-anchor="middle" x="119" y="-242.5" font-family="Helvetica,sans-Serif" font-size="10.00">headposelistener.h</text>
</a>
</g>
</g>
<!-- Node2&#45;&gt;Node3 -->
<g id="edge2" class="edge"><title>Node2&#45;&gt;Node3</title>
<path fill="none" stroke="midnightblue" d="M150.725,-291.083C145.358,-283.455 137.482,-272.264 130.921,-262.941"/>
<polygon fill="midnightblue" stroke="midnightblue" points="133.775,-260.915 125.158,-254.751 128.051,-264.943 133.775,-260.915"/>
</g>
<!-- Node4 -->
<g id="node4" class="node"><title>Node4</title>
<g id="a_node4"><a xlink:href="head_8h.html" target="_top" xlink:title=" ">
<polygon fill="none" stroke="black" points="96,-179.5 96,-198.5 142,-198.5 142,-179.5 96,-179.5"/>
<text text-anchor="middle" x="119" y="-186.5" font-family="Helvetica,sans-Serif" font-size="10.00">head.h</text>
</a>
</g>
</g>
<!-- Node2&#45;&gt;Node4 -->
<g id="edge10" class="edge"><title>Node2&#45;&gt;Node4</title>
<path fill="none" stroke="midnightblue" d="M163.713,-291.262C172.663,-278.467 186.349,-254.086 177,-235 170.477,-221.684 157.904,-211.177 146.127,-203.676"/>
<polygon fill="midnightblue" stroke="midnightblue" points="147.782,-200.589 137.389,-198.529 144.229,-206.621 147.782,-200.589"/>
</g>
<!-- Node8 -->
<g id="node8" class="node"><title>Node8</title>
<g id="a_node8"><a xlink:title=" ">
<polygon fill="none" stroke="#bfbfbf" points="0,-235.5 0,-254.5 52,-254.5 52,-235.5 0,-235.5"/>
<text text-anchor="middle" x="26" y="-242.5" font-family="Helvetica,sans-Serif" font-size="10.00">memory</text>
</a>
</g>
</g>
<!-- Node2&#45;&gt;Node8 -->
<g id="edge11" class="edge"><title>Node2&#45;&gt;Node8</title>
<path fill="none" stroke="midnightblue" d="M136.243,-291.444C114.684,-282.557 80.7367,-268.563 56.2062,-258.451"/>
<polygon fill="midnightblue" stroke="midnightblue" points="57.2394,-255.092 46.6602,-254.516 54.5717,-261.563 57.2394,-255.092"/>
</g>
<!-- Node3&#45;&gt;Node4 -->
<g id="edge3" class="edge"><title>Node3&#45;&gt;Node4</title>
<path fill="none" stroke="midnightblue" d="M119,-235.083C119,-228.006 119,-217.861 119,-208.986"/>
<polygon fill="midnightblue" stroke="midnightblue" points="122.5,-208.751 119,-198.751 115.5,-208.751 122.5,-208.751"/>
</g>
<!-- Node5 -->
<g id="node5" class="node"><title>Node5</title>
<g id="a_node5"><a xlink:href="types_8h.html" target="_top" xlink:title=" ">
<polygon fill="none" stroke="black" points="118,-56.5 118,-75.5 178,-75.5 178,-56.5 118,-56.5"/>
<text text-anchor="middle" x="148" y="-63.5" font-family="Helvetica,sans-Serif" font-size="10.00">sr/types.h</text>
</a>
</g>
</g>
<!-- Node4&#45;&gt;Node5 -->
<g id="edge4" class="edge"><title>Node4&#45;&gt;Node5</title>
<path fill="none" stroke="midnightblue" d="M123.8,-179.326C128.47,-170.471 135.377,-156.19 139,-143 144.216,-124.01 146.409,-101.533 147.331,-85.9728"/>
<polygon fill="midnightblue" stroke="midnightblue" points="150.845,-85.7472 147.817,-75.5943 143.853,-85.4194 150.845,-85.7472"/>
</g>
<!-- Node6 -->
<g id="node6" class="node"><title>Node6</title>
<g id="a_node6"><a xlink:title=" ">
<polygon fill="none" stroke="#bfbfbf" points="91.5,-0.5 91.5,-19.5 140.5,-19.5 140.5,-0.5 91.5,-0.5"/>
<text text-anchor="middle" x="116" y="-7.5" font-family="Helvetica,sans-Serif" font-size="10.00">stdint.h</text>
</a>
</g>
</g>
<!-- Node4&#45;&gt;Node6 -->
<g id="edge6" class="edge"><title>Node4&#45;&gt;Node6</title>
<path fill="none" stroke="midnightblue" d="M95.885,-184.973C71.7719,-180.447 35.1429,-169.405 18,-143 -11.0136,-98.31 54.3995,-48.6054 91.9524,-24.9639"/>
<polygon fill="midnightblue" stroke="midnightblue" points="94.1226,-27.7392 100.825,-19.5338 90.4686,-21.7686 94.1226,-27.7392"/>
</g>
<!-- Node7 -->
<g id="node7" class="node"><title>Node7</title>
<g id="a_node7"><a xlink:href="eyepair_8h.html" target="_top" xlink:title=" ">
<polygon fill="none" stroke="black" points="27.5,-112.5 27.5,-142.5 130.5,-142.5 130.5,-112.5 27.5,-112.5"/>
<text text-anchor="start" x="35.5" y="-130.5" font-family="Helvetica,sans-Serif" font-size="10.00">sr/sense/eyetracker</text>
<text text-anchor="middle" x="79" y="-119.5" font-family="Helvetica,sans-Serif" font-size="10.00">/eyepair.h</text>
</a>
</g>
</g>
<!-- Node4&#45;&gt;Node7 -->
<g id="edge7" class="edge"><title>Node4&#45;&gt;Node7</title>
<path fill="none" stroke="midnightblue" d="M113.269,-179.475C108.257,-172.019 100.749,-160.852 94.0377,-150.869"/>
<polygon fill="midnightblue" stroke="midnightblue" points="96.9111,-148.869 88.4272,-142.523 91.1018,-152.775 96.9111,-148.869"/>
</g>
<!-- Node5&#45;&gt;Node6 -->
<g id="edge5" class="edge"><title>Node5&#45;&gt;Node6</title>
<path fill="none" stroke="midnightblue" d="M142.716,-56.083C138.289,-48.6127 131.837,-37.7244 126.382,-28.5199"/>
<polygon fill="midnightblue" stroke="midnightblue" points="129.295,-26.5697 121.186,-19.7511 123.273,-30.1383 129.295,-26.5697"/>
</g>
<!-- Node7&#45;&gt;Node5 -->
<g id="edge8" class="edge"><title>Node7&#45;&gt;Node5</title>
<path fill="none" stroke="midnightblue" d="M95.352,-112.399C105.895,-103.308 119.6,-91.4899 130.384,-82.1909"/>
<polygon fill="midnightblue" stroke="midnightblue" points="132.672,-84.8389 137.96,-75.6578 128.101,-79.5377 132.672,-84.8389"/>
</g>
<!-- Node7&#45;&gt;Node6 -->
<g id="edge9" class="edge"><title>Node7&#45;&gt;Node6</title>
<path fill="none" stroke="midnightblue" d="M83.5369,-112.337C90.2337,-91.4325 102.767,-52.3096 110.147,-29.2696"/>
<polygon fill="midnightblue" stroke="midnightblue" points="113.505,-30.2605 113.223,-19.6695 106.839,-28.125 113.505,-30.2605"/>
</g>
<!-- Node10 -->
<g id="node10" class="node"><title>Node10</title>
<g id="a_node10"><a xlink:title=" ">
<polygon fill="none" stroke="#bfbfbf" points="375.5,-118 375.5,-137 416.5,-137 416.5,-118 375.5,-118"/>
<text text-anchor="middle" x="396" y="-125" font-family="Helvetica,sans-Serif" font-size="10.00">string</text>
</a>
</g>
</g>
<!-- Node9&#45;&gt;Node10 -->
<g id="edge13" class="edge"><title>Node9&#45;&gt;Node10</title>
<path fill="none" stroke="midnightblue" d="M426.155,-235.364C406.623,-228.847 384.673,-217.704 373,-199 362.614,-182.358 372.74,-160.55 382.64,-145.622"/>
<polygon fill="midnightblue" stroke="midnightblue" points="385.607,-147.491 388.589,-137.324 379.918,-143.412 385.607,-147.491"/>
</g>
<!-- Node11 -->
<g id="node11" class="node"><title>Node11</title>
<g id="a_node11"><a xlink:title=" ">
<polygon fill="none" stroke="#bfbfbf" points="840.5,-179.5 840.5,-198.5 875.5,-198.5 875.5,-179.5 840.5,-179.5"/>
<text text-anchor="middle" x="858" y="-186.5" font-family="Helvetica,sans-Serif" font-size="10.00">map</text>
</a>
</g>
</g>
<!-- Node9&#45;&gt;Node11 -->
<g id="edge14" class="edge"><title>Node9&#45;&gt;Node11</title>
<path fill="none" stroke="midnightblue" d="M533.152,-239.701C605.014,-234.251 721.512,-222.818 830.571,-198.642"/>
<polygon fill="midnightblue" stroke="midnightblue" points="831.44,-202.034 840.424,-196.419 829.899,-195.206 831.44,-202.034"/>
</g>
<!-- Node12 -->
<g id="node12" class="node"><title>Node12</title>
<g id="a_node12"><a xlink:href="sense_8h.html" target="_top" xlink:title=" ">
<polygon fill="none" stroke="black" points="212.5,-179.5 212.5,-198.5 325.5,-198.5 325.5,-179.5 212.5,-179.5"/>
<text text-anchor="middle" x="269" y="-186.5" font-family="Helvetica,sans-Serif" font-size="10.00">sr/sense/core/sense.h</text>
</a>
</g>
</g>
<!-- Node9&#45;&gt;Node12 -->
<g id="edge15" class="edge"><title>Node9&#45;&gt;Node12</title>
<path fill="none" stroke="midnightblue" d="M433.943,-235.444C400.397,-226.201 346.803,-211.436 309.859,-201.257"/>
<polygon fill="midnightblue" stroke="midnightblue" points="310.482,-197.798 299.911,-198.516 308.623,-204.547 310.482,-197.798"/>
</g>
<!-- Node18 -->
<g id="node18" class="node"><title>Node18</title>
<g id="a_node18"><a xlink:href="worldobject_8h.html" target="_top" xlink:title=" ">
<polygon fill="none" stroke="black" points="566,-179.5 566,-198.5 676,-198.5 676,-179.5 566,-179.5"/>
<text text-anchor="middle" x="621" y="-186.5" font-family="Helvetica,sans-Serif" font-size="10.00">sr/world/worldobject.h</text>
</a>
</g>
</g>
<!-- Node9&#45;&gt;Node18 -->
<g id="edge23" class="edge"><title>Node9&#45;&gt;Node18</title>
<path fill="none" stroke="midnightblue" d="M489.719,-235.444C515.848,-226.399 557.259,-212.064 586.576,-201.916"/>
<polygon fill="midnightblue" stroke="midnightblue" points="588.092,-205.095 596.397,-198.516 585.802,-198.48 588.092,-205.095"/>
</g>
<!-- Node20 -->
<g id="node20" class="node"><title>Node20</title>
<g id="a_node20"><a xlink:href="networkinterface_8h.html" target="_top" xlink:title=" ">
<polygon fill="none" stroke="black" points="382.5,-179.5 382.5,-198.5 547.5,-198.5 547.5,-179.5 382.5,-179.5"/>
<text text-anchor="middle" x="465" y="-186.5" font-family="Helvetica,sans-Serif" font-size="10.00">sr/network/core/networkinterface.h</text>
</a>
</g>
</g>
<!-- Node9&#45;&gt;Node20 -->
<g id="edge27" class="edge"><title>Node9&#45;&gt;Node20</title>
<path fill="none" stroke="midnightblue" d="M465,-235.083C465,-228.006 465,-217.861 465,-208.986"/>
<polygon fill="midnightblue" stroke="midnightblue" points="468.5,-208.751 465,-198.751 461.5,-208.751 468.5,-208.751"/>
</g>
<!-- Node21 -->
<g id="node21" class="node"><title>Node21</title>
<g id="a_node21"><a xlink:href="receiver_8h.html" target="_top" xlink:title=" ">
<polygon fill="none" stroke="black" points="694,-179.5 694,-198.5 822,-198.5 822,-179.5 694,-179.5"/>
<text text-anchor="middle" x="758" y="-186.5" font-family="Helvetica,sans-Serif" font-size="10.00">sr/network/core/receiver.h</text>
</a>
</g>
</g>
<!-- Node9&#45;&gt;Node21 -->
<g id="edge28" class="edge"><title>Node9&#45;&gt;Node21</title>
<path fill="none" stroke="midnightblue" d="M511.427,-235.444C563.076,-225.925 646.512,-210.547 701.807,-200.356"/>
<polygon fill="midnightblue" stroke="midnightblue" points="702.591,-203.771 711.79,-198.516 701.322,-196.887 702.591,-203.771"/>
</g>
<!-- Node12&#45;&gt;Node10 -->
<g id="edge16" class="edge"><title>Node12&#45;&gt;Node10</title>
<path fill="none" stroke="midnightblue" d="M287.636,-179.461C307.196,-170.473 338.82,-155.872 366,-143 366.993,-142.53 368.004,-142.049 369.025,-141.563"/>
<polygon fill="midnightblue" stroke="midnightblue" points="370.754,-144.616 378.255,-137.134 367.725,-138.304 370.754,-144.616"/>
</g>
<!-- Node13 -->
<g id="node13" class="node"><title>Node13</title>
<g id="a_node13"><a xlink:title=" ">
<polygon fill="none" stroke="#bfbfbf" points="187,-118 187,-137 233,-137 233,-118 187,-118"/>
<text text-anchor="middle" x="210" y="-125" font-family="Helvetica,sans-Serif" font-size="10.00">chrono</text>
</a>
</g>
</g>
<!-- Node12&#45;&gt;Node13 -->
<g id="edge17" class="edge"><title>Node12&#45;&gt;Node13</title>
<path fill="none" stroke="midnightblue" d="M260.547,-179.475C251.434,-170.285 236.73,-155.456 225.524,-144.156"/>
<polygon fill="midnightblue" stroke="midnightblue" points="227.964,-141.646 218.438,-137.009 222.993,-146.574 227.964,-141.646"/>
</g>
<!-- Node14 -->
<g id="node14" class="node"><title>Node14</title>
<g id="a_node14"><a xlink:title=" ">
<polygon fill="none" stroke="#bfbfbf" points="251,-118 251,-137 295,-137 295,-118 251,-118"/>
<text text-anchor="middle" x="273" y="-125" font-family="Helvetica,sans-Serif" font-size="10.00">thread</text>
</a>
</g>
</g>
<!-- Node12&#45;&gt;Node14 -->
<g id="edge18" class="edge"><title>Node12&#45;&gt;Node14</title>
<path fill="none" stroke="midnightblue" d="M269.573,-179.475C270.137,-171.08 271.018,-157.981 271.745,-147.163"/>
<polygon fill="midnightblue" stroke="midnightblue" points="275.249,-147.221 272.428,-137.009 268.265,-146.752 275.249,-147.221"/>
</g>
<!-- Node15 -->
<g id="node15" class="node"><title>Node15</title>
<g id="a_node15"><a xlink:title=" ">
<polygon fill="none" stroke="#bfbfbf" points="313,-118 313,-137 357,-137 357,-118 313,-118"/>
<text text-anchor="middle" x="335" y="-125" font-family="Helvetica,sans-Serif" font-size="10.00">mutex</text>
</a>
</g>
</g>
<!-- Node12&#45;&gt;Node15 -->
<g id="edge19" class="edge"><title>Node12&#45;&gt;Node15</title>
<path fill="none" stroke="midnightblue" d="M278.456,-179.475C288.748,-170.197 305.416,-155.171 317.994,-143.831"/>
<polygon fill="midnightblue" stroke="midnightblue" points="320.478,-146.305 325.561,-137.009 315.79,-141.105 320.478,-146.305"/>
</g>
<!-- Node16 -->
<g id="node16" class="node"><title>Node16</title>
<g id="a_node16"><a xlink:href="transformation_8h.html" target="_top" xlink:title=" ">
<polygon fill="none" stroke="black" points="439,-118 439,-137 525,-137 525,-118 439,-118"/>
<text text-anchor="middle" x="482" y="-125" font-family="Helvetica,sans-Serif" font-size="10.00">transformation.h</text>
</a>
</g>
</g>
<!-- Node12&#45;&gt;Node16 -->
<g id="edge20" class="edge"><title>Node12&#45;&gt;Node16</title>
<path fill="none" stroke="midnightblue" d="M299.518,-179.475C336.925,-169.026 400.427,-151.287 441.787,-139.733"/>
<polygon fill="midnightblue" stroke="midnightblue" points="442.849,-143.071 451.539,-137.009 440.966,-136.329 442.849,-143.071"/>
</g>
<!-- Node16&#45;&gt;Node5 -->
<g id="edge22" class="edge"><title>Node16&#45;&gt;Node5</title>
<path fill="none" stroke="midnightblue" d="M450.458,-117.949C442.206,-115.857 433.298,-113.726 425,-112 341.376,-94.6063 242.381,-79.9318 188.285,-72.4094"/>
<polygon fill="midnightblue" stroke="midnightblue" points="188.467,-68.9014 178.082,-71.0016 187.51,-75.8357 188.467,-68.9014"/>
</g>
<!-- Node17 -->
<g id="node17" class="node"><title>Node17</title>
<g id="a_node17"><a xlink:title=" ">
<polygon fill="none" stroke="#bfbfbf" points="434,-56.5 434,-75.5 538,-75.5 538,-56.5 434,-56.5"/>
<text text-anchor="middle" x="486" y="-63.5" font-family="Helvetica,sans-Serif" font-size="10.00">opencv2/opencv.hpp</text>
</a>
</g>
</g>
<!-- Node16&#45;&gt;Node17 -->
<g id="edge21" class="edge"><title>Node16&#45;&gt;Node17</title>
<path fill="none" stroke="midnightblue" d="M482.573,-117.975C483.137,-109.58 484.018,-96.4806 484.745,-85.6631"/>
<polygon fill="midnightblue" stroke="midnightblue" points="488.249,-85.7214 485.428,-75.5091 481.265,-85.2518 488.249,-85.7214"/>
</g>
<!-- Node18&#45;&gt;Node16 -->
<g id="edge26" class="edge"><title>Node18&#45;&gt;Node16</title>
<path fill="none" stroke="midnightblue" d="M601.085,-179.475C577.551,-169.401 538.19,-152.553 511.207,-141.002"/>
<polygon fill="midnightblue" stroke="midnightblue" points="512.449,-137.727 501.878,-137.009 509.694,-144.162 512.449,-137.727"/>
</g>
<!-- Node18&#45;&gt;Node17 -->
<g id="edge25" class="edge"><title>Node18&#45;&gt;Node17</title>
<path fill="none" stroke="midnightblue" d="M611.291,-179.298C588.62,-158.978 531.952,-108.186 503.245,-82.4566"/>
<polygon fill="midnightblue" stroke="midnightblue" points="505.404,-79.6913 495.621,-75.6232 500.732,-84.9039 505.404,-79.6913"/>
</g>
<!-- Node19 -->
<g id="node19" class="node"><title>Node19</title>
<g id="a_node19"><a xlink:title=" ">
<polygon fill="none" stroke="#bfbfbf" points="600,-118 600,-137 642,-137 642,-118 600,-118"/>
<text text-anchor="middle" x="621" y="-125" font-family="Helvetica,sans-Serif" font-size="10.00">vector</text>
</a>
</g>
</g>
<!-- Node18&#45;&gt;Node19 -->
<g id="edge24" class="edge"><title>Node18&#45;&gt;Node19</title>
<path fill="none" stroke="midnightblue" d="M621,-179.475C621,-171.08 621,-157.981 621,-147.163"/>
<polygon fill="midnightblue" stroke="midnightblue" points="624.5,-147.009 621,-137.009 617.5,-147.009 624.5,-147.009"/>
</g>
<!-- Node22 -->
<g id="node22" class="node"><title>Node22</title>
<g id="a_node22"><a xlink:href="packet_8h.html" target="_top" xlink:title=" ">
<polygon fill="none" stroke="black" points="665,-118 665,-137 719,-137 719,-118 665,-118"/>
<text text-anchor="middle" x="692" y="-125" font-family="Helvetica,sans-Serif" font-size="10.00">packet.h</text>
</a>
</g>
</g>
<!-- Node21&#45;&gt;Node22 -->
<g id="edge29" class="edge"><title>Node21&#45;&gt;Node22</title>
<path fill="none" stroke="midnightblue" d="M748.544,-179.475C738.252,-170.197 721.584,-155.171 709.006,-143.831"/>
<polygon fill="midnightblue" stroke="midnightblue" points="711.21,-141.105 701.439,-137.009 706.522,-146.305 711.21,-141.105"/>
</g>
<!-- Node22&#45;&gt;Node6 -->
<g id="edge30" class="edge"><title>Node22&#45;&gt;Node6</title>
<path fill="none" stroke="midnightblue" d="M674.91,-117.994C638.022,-99.6613 553.712,-57.9176 547,-56 404.278,-15.2235 225.546,-10.5708 151.082,-10.5811"/>
<polygon fill="midnightblue" stroke="midnightblue" points="150.857,-7.08164 140.868,-10.6127 150.879,-14.0816 150.857,-7.08164"/>
</g>
<!-- Node23 -->
<g id="node23" class="node"><title>Node23</title>
<g id="a_node23"><a xlink:title=" ">
<polygon fill="none" stroke="#bfbfbf" points="600,-56.5 600,-75.5 654,-75.5 654,-56.5 600,-56.5"/>
<text text-anchor="middle" x="627" y="-63.5" font-family="Helvetica,sans-Serif" font-size="10.00">iostream</text>
</a>
</g>
</g>
<!-- Node22&#45;&gt;Node23 -->
<g id="edge31" class="edge"><title>Node22&#45;&gt;Node23</title>
<path fill="none" stroke="midnightblue" d="M682.687,-117.975C672.551,-108.697 656.136,-93.6706 643.748,-82.331"/>
<polygon fill="midnightblue" stroke="midnightblue" points="646.035,-79.6795 636.296,-75.5091 641.309,-84.8429 646.035,-79.6795"/>
</g>
<!-- Node24 -->
<g id="node24" class="node"><title>Node24</title>
<g id="a_node24"><a xlink:title=" ">
<polygon fill="none" stroke="#bfbfbf" points="672,-56.5 672,-75.5 722,-75.5 722,-56.5 672,-56.5"/>
<text text-anchor="middle" x="697" y="-63.5" font-family="Helvetica,sans-Serif" font-size="10.00">iomanip</text>
</a>
</g>
</g>
<!-- Node22&#45;&gt;Node24 -->
<g id="edge32" class="edge"><title>Node22&#45;&gt;Node24</title>
<path fill="none" stroke="midnightblue" d="M692.716,-117.975C693.422,-109.58 694.523,-96.4806 695.432,-85.6631"/>
<polygon fill="midnightblue" stroke="midnightblue" points="698.935,-85.7671 696.285,-75.5091 691.96,-85.1808 698.935,-85.7671"/>
</g>
</g>
</svg>
