<?xml version="1.0" encoding="UTF-8" standalone="no"?>
<!DOCTYPE svg PUBLIC "-//W3C//DTD SVG 1.1//EN"
 "http://www.w3.org/Graphics/SVG/1.1/DTD/svg11.dtd">
<!-- Generated by graphviz version 2.38.0 (20140413.2041)
 -->
<!-- Title: headlistener.h Pages: 1 -->
<svg width="178pt" height="263pt"
 viewBox="0.00 0.00 178.00 263.00" xmlns="http://www.w3.org/2000/svg" xmlns:xlink="http://www.w3.org/1999/xlink">
<g id="graph0" class="graph" transform="scale(1 1) rotate(0) translate(4 259)">
<title>headlistener.h</title>
<!-- Node1 -->
<g id="node1" class="node"><title>Node1</title>
<g id="a_node1"><a xlink:title=" ">
<polygon fill="#bfbfbf" stroke="black" points="0,-235.5 0,-254.5 77,-254.5 77,-235.5 0,-235.5"/>
<text text-anchor="middle" x="38.5" y="-242.5" font-family="Helvetica,sans-Serif" font-size="10.00">headlistener.h</text>
</a>
</g>
</g>
<!-- Node2 -->
<g id="node2" class="node"><title>Node2</title>
<g id="a_node2"><a xlink:href="head_8h.html" target="_top" xlink:title=" ">
<polygon fill="none" stroke="black" points="15.5,-179.5 15.5,-198.5 61.5,-198.5 61.5,-179.5 15.5,-179.5"/>
<text text-anchor="middle" x="38.5" y="-186.5" font-family="Helvetica,sans-Serif" font-size="10.00">head.h</text>
</a>
</g>
</g>
<!-- Node1&#45;&gt;Node2 -->
<g id="edge1" class="edge"><title>Node1&#45;&gt;Node2</title>
<path fill="none" stroke="midnightblue" d="M38.5,-235.083C38.5,-228.006 38.5,-217.861 38.5,-208.986"/>
<polygon fill="midnightblue" stroke="midnightblue" points="42.0001,-208.751 38.5,-198.751 35.0001,-208.751 42.0001,-208.751"/>
</g>
<!-- Node3 -->
<g id="node3" class="node"><title>Node3</title>
<g id="a_node3"><a xlink:href="types_8h.html" target="_top" xlink:title=" ">
<polygon fill="none" stroke="black" points="28.5,-56.5 28.5,-75.5 88.5,-75.5 88.5,-56.5 28.5,-56.5"/>
<text text-anchor="middle" x="58.5" y="-63.5" font-family="Helvetica,sans-Serif" font-size="10.00">sr/types.h</text>
</a>
</g>
</g>
<!-- Node2&#45;&gt;Node3 -->
<g id="edge2" class="edge"><title>Node2&#45;&gt;Node3</title>
<path fill="none" stroke="midnightblue" d="M39.9384,-179.298C43.1672,-159.763 51.0513,-112.065 55.4344,-85.5471"/>
<polygon fill="midnightblue" stroke="midnightblue" points="58.897,-86.0601 57.0747,-75.6232 51.9907,-84.9185 58.897,-86.0601"/>
</g>
<!-- Node4 -->
<g id="node4" class="node"><title>Node4</title>
<g id="a_node4"><a xlink:title=" ">
<polygon fill="none" stroke="#bfbfbf" points="34,-0.5 34,-19.5 83,-19.5 83,-0.5 34,-0.5"/>
<text text-anchor="middle" x="58.5" y="-7.5" font-family="Helvetica,sans-Serif" font-size="10.00">stdint.h</text>
</a>
</g>
</g>
<!-- Node2&#45;&gt;Node4 -->
<g id="edge4" class="edge"><title>Node2&#45;&gt;Node4</title>
<path fill="none" stroke="midnightblue" d="M34.4233,-179.351C24.8589,-157.799 2.99213,-100.253 19.5,-56 23.6734,-44.8124 32.0196,-34.5598 39.9238,-26.6759"/>
<polygon fill="midnightblue" stroke="midnightblue" points="42.5616,-29.0029 47.5098,-19.6346 37.7994,-23.8724 42.5616,-29.0029"/>
</g>
<!-- Node5 -->
<g id="node5" class="node"><title>Node5</title>
<g id="a_node5"><a xlink:href="eyepair_8h.html" target="_top" xlink:title=" ">
<polygon fill="none" stroke="black" points="67,-112.5 67,-142.5 170,-142.5 170,-112.5 67,-112.5"/>
<text text-anchor="start" x="75" y="-130.5" font-family="Helvetica,sans-Serif" font-size="10.00">sr/sense/eyetracker</text>
<text text-anchor="middle" x="118.5" y="-119.5" font-family="Helvetica,sans-Serif" font-size="10.00">/eyepair.h</text>
</a>
</g>
</g>
<!-- Node2&#45;&gt;Node5 -->
<g id="edge5" class="edge"><title>Node2&#45;&gt;Node5</title>
<path fill="none" stroke="midnightblue" d="M49.962,-179.475C60.6957,-171.492 77.1499,-159.254 91.2458,-148.77"/>
<polygon fill="midnightblue" stroke="midnightblue" points="93.7103,-151.299 99.6456,-142.523 89.5328,-145.682 93.7103,-151.299"/>
</g>
<!-- Node3&#45;&gt;Node4 -->
<g id="edge3" class="edge"><title>Node3&#45;&gt;Node4</title>
<path fill="none" stroke="midnightblue" d="M58.5,-56.083C58.5,-49.0059 58.5,-38.8611 58.5,-29.9865"/>
<polygon fill="midnightblue" stroke="midnightblue" points="62.0001,-29.751 58.5,-19.7511 55.0001,-29.7511 62.0001,-29.751"/>
</g>
<!-- Node5&#45;&gt;Node3 -->
<g id="edge6" class="edge"><title>Node5&#45;&gt;Node3</title>
<path fill="none" stroke="midnightblue" d="M104.281,-112.399C95.2925,-103.486 83.662,-91.9523 74.3731,-82.7408"/>
<polygon fill="midnightblue" stroke="midnightblue" points="76.7957,-80.214 67.2305,-75.6578 71.8666,-85.1844 76.7957,-80.214"/>
</g>
<!-- Node5&#45;&gt;Node4 -->
<g id="edge7" class="edge"><title>Node5&#45;&gt;Node4</title>
<path fill="none" stroke="midnightblue" d="M116.11,-112.301C113.218,-97.5523 107.451,-74.1385 97.5,-56 91.6819,-45.3954 83.0357,-35.0846 75.3617,-27.0141"/>
<polygon fill="midnightblue" stroke="midnightblue" points="77.685,-24.3867 68.1525,-19.7624 72.7207,-29.3219 77.685,-24.3867"/>
</g>
</g>
</svg>
