<?xml version="1.0" encoding="UTF-8" standalone="no"?>
<!DOCTYPE svg PUBLIC "-//W3C//DTD SVG 1.1//EN"
 "http://www.w3.org/Graphics/SVG/1.1/DTD/svg11.dtd">
<!-- Generated by graphviz version 2.38.0 (20140413.2041)
 -->
<!-- Title: headposelistener.h Pages: 1 -->
<svg width="189pt" height="263pt"
 viewBox="0.00 0.00 188.50 263.00" xmlns="http://www.w3.org/2000/svg" xmlns:xlink="http://www.w3.org/1999/xlink">
<g id="graph0" class="graph" transform="scale(1 1) rotate(0) translate(4 259)">
<title>headposelistener.h</title>
<!-- Node1 -->
<g id="node1" class="node"><title>Node1</title>
<g id="a_node1"><a xlink:title=" ">
<polygon fill="#bfbfbf" stroke="black" points="0,-235.5 0,-254.5 98,-254.5 98,-235.5 0,-235.5"/>
<text text-anchor="middle" x="49" y="-242.5" font-family="Helvetica,sans-Serif" font-size="10.00">headposelistener.h</text>
</a>
</g>
</g>
<!-- Node2 -->
<g id="node2" class="node"><title>Node2</title>
<g id="a_node2"><a xlink:href="head_8h.html" target="_top" xlink:title=" ">
<polygon fill="none" stroke="black" points="26,-179.5 26,-198.5 72,-198.5 72,-179.5 26,-179.5"/>
<text text-anchor="middle" x="49" y="-186.5" font-family="Helvetica,sans-Serif" font-size="10.00">head.h</text>
</a>
</g>
</g>
<!-- Node1&#45;&gt;Node2 -->
<g id="edge1" class="edge"><title>Node1&#45;&gt;Node2</title>
<path fill="none" stroke="midnightblue" d="M49,-235.083C49,-228.006 49,-217.861 49,-208.986"/>
<polygon fill="midnightblue" stroke="midnightblue" points="52.5001,-208.751 49,-198.751 45.5001,-208.751 52.5001,-208.751"/>
</g>
<!-- Node3 -->
<g id="node3" class="node"><title>Node3</title>
<g id="a_node3"><a xlink:href="types_8h.html" target="_top" xlink:title=" ">
<polygon fill="none" stroke="black" points="39,-56.5 39,-75.5 99,-75.5 99,-56.5 39,-56.5"/>
<text text-anchor="middle" x="69" y="-63.5" font-family="Helvetica,sans-Serif" font-size="10.00">sr/types.h</text>
</a>
</g>
</g>
<!-- Node2&#45;&gt;Node3 -->
<g id="edge2" class="edge"><title>Node2&#45;&gt;Node3</title>
<path fill="none" stroke="midnightblue" d="M50.4384,-179.298C53.6672,-159.763 61.5513,-112.065 65.9344,-85.5471"/>
<polygon fill="midnightblue" stroke="midnightblue" points="69.397,-86.0601 67.5747,-75.6232 62.4907,-84.9185 69.397,-86.0601"/>
</g>
<!-- Node4 -->
<g id="node4" class="node"><title>Node4</title>
<g id="a_node4"><a xlink:title=" ">
<polygon fill="none" stroke="#bfbfbf" points="44.5,-0.5 44.5,-19.5 93.5,-19.5 93.5,-0.5 44.5,-0.5"/>
<text text-anchor="middle" x="69" y="-7.5" font-family="Helvetica,sans-Serif" font-size="10.00">stdint.h</text>
</a>
</g>
</g>
<!-- Node2&#45;&gt;Node4 -->
<g id="edge4" class="edge"><title>Node2&#45;&gt;Node4</title>
<path fill="none" stroke="midnightblue" d="M44.9233,-179.351C35.3589,-157.799 13.4921,-100.253 30,-56 34.1734,-44.8124 42.5196,-34.5598 50.4238,-26.6759"/>
<polygon fill="midnightblue" stroke="midnightblue" points="53.0616,-29.0029 58.0098,-19.6346 48.2994,-23.8724 53.0616,-29.0029"/>
</g>
<!-- Node5 -->
<g id="node5" class="node"><title>Node5</title>
<g id="a_node5"><a xlink:href="eyepair_8h.html" target="_top" xlink:title=" ">
<polygon fill="none" stroke="black" points="77.5,-112.5 77.5,-142.5 180.5,-142.5 180.5,-112.5 77.5,-112.5"/>
<text text-anchor="start" x="85.5" y="-130.5" font-family="Helvetica,sans-Serif" font-size="10.00">sr/sense/eyetracker</text>
<text text-anchor="middle" x="129" y="-119.5" font-family="Helvetica,sans-Serif" font-size="10.00">/eyepair.h</text>
</a>
</g>
</g>
<!-- Node2&#45;&gt;Node5 -->
<g id="edge5" class="edge"><title>Node2&#45;&gt;Node5</title>
<path fill="none" stroke="midnightblue" d="M60.462,-179.475C71.1957,-171.492 87.6499,-159.254 101.746,-148.77"/>
<polygon fill="midnightblue" stroke="midnightblue" points="104.21,-151.299 110.146,-142.523 100.033,-145.682 104.21,-151.299"/>
</g>
<!-- Node3&#45;&gt;Node4 -->
<g id="edge3" class="edge"><title>Node3&#45;&gt;Node4</title>
<path fill="none" stroke="midnightblue" d="M69,-56.083C69,-49.0059 69,-38.8611 69,-29.9865"/>
<polygon fill="midnightblue" stroke="midnightblue" points="72.5001,-29.751 69,-19.7511 65.5001,-29.7511 72.5001,-29.751"/>
</g>
<!-- Node5&#45;&gt;Node3 -->
<g id="edge6" class="edge"><title>Node5&#45;&gt;Node3</title>
<path fill="none" stroke="midnightblue" d="M114.781,-112.399C105.792,-103.486 94.162,-91.9523 84.8731,-82.7408"/>
<polygon fill="midnightblue" stroke="midnightblue" points="87.2957,-80.214 77.7305,-75.6578 82.3666,-85.1844 87.2957,-80.214"/>
</g>
<!-- Node5&#45;&gt;Node4 -->
<g id="edge7" class="edge"><title>Node5&#45;&gt;Node4</title>
<path fill="none" stroke="midnightblue" d="M126.61,-112.301C123.718,-97.5523 117.951,-74.1385 108,-56 102.182,-45.3954 93.5357,-35.0846 85.8617,-27.0141"/>
<polygon fill="midnightblue" stroke="midnightblue" points="88.185,-24.3867 78.6525,-19.7624 83.2207,-29.3219 88.185,-24.3867"/>
</g>
</g>
</svg>
