<?xml version="1.0" encoding="UTF-8" standalone="no"?>
<!DOCTYPE svg PUBLIC "-//W3C//DTD SVG 1.1//EN"
 "http://www.w3.org/Graphics/SVG/1.1/DTD/svg11.dtd">
<!-- Generated by graphviz version 2.38.0 (20140413.2041)
 -->
<!-- Title: Graphical Class Hierarchy Pages: 1 -->
<svg width="387pt" height="288pt"
 viewBox="0.00 0.00 387.00 288.19" xmlns="http://www.w3.org/2000/svg" xmlns:xlink="http://www.w3.org/1999/xlink">
<g id="graph0" class="graph" transform="scale(1 1) rotate(0) translate(4 284.188)">
<title>Graphical Class Hierarchy</title>
<!-- Node0 -->
<g id="node1" class="node"><title>Node0</title>
<g id="a_node1"><a xlink:href="classSR_1_1IDestroyable.html" target="_top" xlink:title="Interface for objects that can be destroyed.">
<polygon fill="none" stroke="black" points="146,-46.134 146,-65.134 236,-65.134 236,-46.134 146,-46.134"/>
<text text-anchor="middle" x="191" y="-53.134" font-family="Helvetica,sans-Serif" font-size="10.00">SR::IDestroyable</text>
</a>
</g>
</g>
<!-- Node1 -->
<g id="node2" class="node"><title>Node1</title>
<g id="a_node2"><a xlink:href="classSR_1_1IDX10Weaver1.html" target="_top" xlink:title="class to be used for weaving in DirectX 10 applications">
<polygon fill="none" stroke="black" points="281,-84.134 281,-103.134 379,-103.134 379,-84.134 281,-84.134"/>
<text text-anchor="middle" x="330" y="-91.134" font-family="Helvetica,sans-Serif" font-size="10.00">SR::IDX10Weaver1</text>
</a>
</g>
</g>
<!-- Node0&#45;&gt;Node1 -->
<g id="edge1" class="edge"><title>Node0&#45;&gt;Node1</title>
<path fill="none" stroke="midnightblue" d="M236.411,-67.9523C255.234,-73.1732 276.838,-79.1656 294.44,-84.048"/>
<polygon fill="midnightblue" stroke="midnightblue" points="237.143,-64.5232 226.571,-65.223 235.272,-71.2685 237.143,-64.5232"/>
</g>
<!-- Node2 -->
<g id="node3" class="node"><title>Node2</title>
<g id="a_node3"><a xlink:href="classSR_1_1IDX11Weaver1.html" target="_top" xlink:title="class to be used for weaving in DirectX 11 applications">
<polygon fill="none" stroke="black" points="281,-122.134 281,-141.134 379,-141.134 379,-122.134 281,-122.134"/>
<text text-anchor="middle" x="330" y="-129.134" font-family="Helvetica,sans-Serif" font-size="10.00">SR::IDX11Weaver1</text>
</a>
</g>
</g>
<!-- Node0&#45;&gt;Node2 -->
<g id="edge2" class="edge"><title>Node0&#45;&gt;Node2</title>
<path fill="none" stroke="midnightblue" d="M235.596,-69.3383C238.871,-70.9431 242.046,-72.7055 245,-74.634 264.481,-87.3507 261.729,-99.6005 281,-112.634 286.494,-116.35 292.822,-119.505 299.044,-122.113"/>
<polygon fill="midnightblue" stroke="midnightblue" points="236.769,-66.031 226.205,-65.2259 233.961,-72.4432 236.769,-66.031"/>
</g>
<!-- Node3 -->
<g id="node4" class="node"><title>Node3</title>
<g id="a_node4"><a xlink:href="classSR_1_1IDX12Weaver1.html" target="_top" xlink:title="class to be used for weaving in DirectX 12 applications">
<polygon fill="none" stroke="black" points="281,-46.134 281,-65.134 379,-65.134 379,-46.134 281,-46.134"/>
<text text-anchor="middle" x="330" y="-53.134" font-family="Helvetica,sans-Serif" font-size="10.00">SR::IDX12Weaver1</text>
</a>
</g>
</g>
<!-- Node0&#45;&gt;Node3 -->
<g id="edge3" class="edge"><title>Node0&#45;&gt;Node3</title>
<path fill="none" stroke="midnightblue" d="M246.34,-55.634C257.696,-55.634 269.595,-55.634 280.714,-55.634"/>
<polygon fill="midnightblue" stroke="midnightblue" points="246.102,-52.1341 236.102,-55.634 246.102,-59.1341 246.102,-52.1341"/>
</g>
<!-- Node4 -->
<g id="node5" class="node"><title>Node4</title>
<g id="a_node5"><a xlink:href="classSR_1_1IDX9Weaver1.html" target="_top" xlink:title="class to be used for weaving in DirectX 9 applications">
<polygon fill="none" stroke="black" points="283.5,-8.13397 283.5,-27.134 376.5,-27.134 376.5,-8.13397 283.5,-8.13397"/>
<text text-anchor="middle" x="330" y="-15.134" font-family="Helvetica,sans-Serif" font-size="10.00">SR::IDX9Weaver1</text>
</a>
</g>
</g>
<!-- Node0&#45;&gt;Node4 -->
<g id="edge4" class="edge"><title>Node0&#45;&gt;Node4</title>
<path fill="none" stroke="midnightblue" d="M236.411,-43.3156C255.234,-38.0947 276.838,-32.1024 294.44,-27.2199"/>
<polygon fill="midnightblue" stroke="midnightblue" points="235.272,-39.9994 226.571,-46.045 237.143,-46.7447 235.272,-39.9994"/>
</g>
<!-- Node5 -->
<g id="node6" class="node"><title>Node5</title>
<g id="a_node6"><a xlink:href="classSR_1_1IGLWeaver1.html" target="_top" xlink:title="class to be used for weaving in OpenGL applications">
<polygon fill="none" stroke="black" points="285.5,-160.134 285.5,-179.134 374.5,-179.134 374.5,-160.134 285.5,-160.134"/>
<text text-anchor="middle" x="330" y="-167.134" font-family="Helvetica,sans-Serif" font-size="10.00">SR::IGLWeaver1</text>
</a>
</g>
</g>
<!-- Node0&#45;&gt;Node5 -->
<g id="edge5" class="edge"><title>Node0&#45;&gt;Node5</title>
<path fill="none" stroke="midnightblue" d="M239.415,-70.2878C241.389,-71.6152 243.264,-73.0606 245,-74.634 272.693,-99.7342 253.721,-125.084 281,-150.634 285.056,-154.432 289.962,-157.505 295.07,-159.982"/>
<polygon fill="midnightblue" stroke="midnightblue" points="240.701,-66.9977 230.261,-65.191 237.295,-73.1136 240.701,-66.9977"/>
</g>
<!-- Node54 -->
<g id="node7" class="node"><title>Node54</title>
<g id="a_node7"><a xlink:href="classSR_1_1IQueryInterface.html" target="_top" xlink:title="Interface for querying interfaces with a specific type.">
<polygon fill="none" stroke="black" points="0,-141.134 0,-160.134 101,-160.134 101,-141.134 0,-141.134"/>
<text text-anchor="middle" x="50.5" y="-148.134" font-family="Helvetica,sans-Serif" font-size="10.00">SR::IQueryInterface</text>
</a>
</g>
</g>
<!-- Node54&#45;&gt;Node1 -->
<g id="edge6" class="edge"><title>Node54&#45;&gt;Node1</title>
<path fill="none" stroke="midnightblue" d="M111.245,-139.357C149.534,-132.018 200.261,-122.085 245,-112.634 259.044,-109.667 274.367,-106.254 288.036,-103.146"/>
<polygon fill="midnightblue" stroke="midnightblue" points="110.456,-135.945 101.291,-141.261 111.771,-142.82 110.456,-135.945"/>
</g>
<!-- Node54&#45;&gt;Node2 -->
<g id="edge7" class="edge"><title>Node54&#45;&gt;Node2</title>
<path fill="none" stroke="midnightblue" d="M111.775,-151.232C150.022,-151.078 200.51,-149.895 245,-145.634 256.627,-144.52 269.077,-142.761 280.735,-140.86"/>
<polygon fill="midnightblue" stroke="midnightblue" points="111.321,-147.732 101.327,-151.249 111.333,-154.732 111.321,-147.732"/>
</g>
<!-- Node54&#45;&gt;Node3 -->
<g id="edge8" class="edge"><title>Node54&#45;&gt;Node3</title>
<path fill="none" stroke="midnightblue" d="M59.2595,-131.368C71.3101,-104.396 97.3446,-56.4616 137,-36.634 193.025,-8.62149 269.649,-31.6716 306.884,-46.1321"/>
<polygon fill="midnightblue" stroke="midnightblue" points="55.9037,-130.315 55.2007,-140.886 62.3427,-133.061 55.9037,-130.315"/>
</g>
<!-- Node54&#45;&gt;Node4 -->
<g id="edge9" class="edge"><title>Node54&#45;&gt;Node4</title>
<path fill="none" stroke="midnightblue" d="M57.4648,-131.084C67.9416,-100.614 92.8395,-42.7942 137,-18.634 185.544,7.92444 251.863,0.460382 292.494,-8.0703"/>
<polygon fill="midnightblue" stroke="midnightblue" points="54.0174,-130.366 54.2484,-140.959 60.6733,-132.534 54.0174,-130.366"/>
</g>
<!-- Node54&#45;&gt;Node5 -->
<g id="edge12" class="edge"><title>Node54&#45;&gt;Node5</title>
<path fill="none" stroke="midnightblue" d="M59.2595,-169.9C71.3101,-196.872 97.3446,-244.806 137,-264.634 179.933,-286.1 201.238,-284.355 245,-264.634 284.742,-246.724 313.257,-199.689 324.138,-179.296"/>
<polygon fill="midnightblue" stroke="midnightblue" points="62.3427,-168.207 55.2007,-160.382 55.9037,-170.953 62.3427,-168.207"/>
</g>
<!-- Node55 -->
<g id="node8" class="node"><title>Node55</title>
<g id="a_node8"><a xlink:href="classSR_1_1IDisplay.html" target="_top" xlink:title="Interface representing an SR display.">
<polygon fill="none" stroke="black" points="155.5,-236.134 155.5,-255.134 226.5,-255.134 226.5,-236.134 155.5,-236.134"/>
<text text-anchor="middle" x="191" y="-243.134" font-family="Helvetica,sans-Serif" font-size="10.00">SR::IDisplay</text>
</a>
</g>
</g>
<!-- Node54&#45;&gt;Node55 -->
<g id="edge10" class="edge"><title>Node54&#45;&gt;Node55</title>
<path fill="none" stroke="midnightblue" d="M67.0703,-167.891C83.1565,-184.837 109.697,-210.437 137,-226.634 143.221,-230.324 150.274,-233.469 157.158,-236.075"/>
<polygon fill="midnightblue" stroke="midnightblue" points="69.4282,-165.287 60.0558,-160.346 64.3016,-170.053 69.4282,-165.287"/>
</g>
<!-- Node56 -->
<g id="node9" class="node"><title>Node56</title>
<g id="a_node9"><a xlink:href="classSR_1_1IDisplayManager.html" target="_top" xlink:title="Interface for managing SR displays.">
<polygon fill="none" stroke="black" points="137,-198.134 137,-217.134 245,-217.134 245,-198.134 137,-198.134"/>
<text text-anchor="middle" x="191" y="-205.134" font-family="Helvetica,sans-Serif" font-size="10.00">SR::IDisplayManager</text>
</a>
</g>
</g>
<!-- Node54&#45;&gt;Node56 -->
<g id="edge11" class="edge"><title>Node54&#45;&gt;Node56</title>
<path fill="none" stroke="midnightblue" d="M84.2523,-164.113C109.623,-174.555 144.146,-188.763 166.743,-198.062"/>
<polygon fill="midnightblue" stroke="midnightblue" points="85.2613,-160.744 74.6818,-160.174 82.5972,-167.217 85.2613,-160.744"/>
</g>
<!-- Node57 -->
<g id="node10" class="node"><title>Node57</title>
<g id="a_node10"><a xlink:href="classSR_1_1IWeaverBase1.html" target="_top" xlink:title="Weaver base class for all graphics APIs.">
<polygon fill="none" stroke="black" points="142,-84.134 142,-103.134 240,-103.134 240,-84.134 142,-84.134"/>
<text text-anchor="middle" x="191" y="-91.134" font-family="Helvetica,sans-Serif" font-size="10.00">SR::IWeaverBase1</text>
</a>
</g>
</g>
<!-- Node54&#45;&gt;Node57 -->
<g id="edge13" class="edge"><title>Node54&#45;&gt;Node57</title>
<path fill="none" stroke="#8b1a1a" d="M84.2523,-137.155C109.623,-126.713 144.146,-112.505 166.743,-103.206"/>
<polygon fill="#8b1a1a" stroke="#8b1a1a" points="82.5972,-134.051 74.6818,-141.093 85.2613,-140.524 82.5972,-134.051"/>
</g>
<!-- Node57&#45;&gt;Node1 -->
<g id="edge14" class="edge"><title>Node57&#45;&gt;Node1</title>
<path fill="none" stroke="midnightblue" d="M250.609,-93.634C260.636,-93.634 270.952,-93.634 280.673,-93.634"/>
<polygon fill="midnightblue" stroke="midnightblue" points="250.301,-90.1341 240.301,-93.634 250.301,-97.1341 250.301,-90.1341"/>
</g>
<!-- Node57&#45;&gt;Node2 -->
<g id="edge15" class="edge"><title>Node57&#45;&gt;Node2</title>
<path fill="none" stroke="midnightblue" d="M236.411,-105.952C255.234,-111.173 276.838,-117.166 294.44,-122.048"/>
<polygon fill="midnightblue" stroke="midnightblue" points="237.143,-102.523 226.571,-103.223 235.272,-109.269 237.143,-102.523"/>
</g>
<!-- Node57&#45;&gt;Node3 -->
<g id="edge16" class="edge"><title>Node57&#45;&gt;Node3</title>
<path fill="none" stroke="midnightblue" d="M236.411,-81.3156C255.234,-76.0947 276.838,-70.1024 294.44,-65.2199"/>
<polygon fill="midnightblue" stroke="midnightblue" points="235.272,-77.9994 226.571,-84.045 237.143,-84.7447 235.272,-77.9994"/>
</g>
<!-- Node57&#45;&gt;Node4 -->
<g id="edge17" class="edge"><title>Node57&#45;&gt;Node4</title>
<path fill="none" stroke="midnightblue" d="M235.596,-79.9297C238.871,-78.3249 242.046,-76.5625 245,-74.634 264.481,-61.9172 261.729,-49.6674 281,-36.634 286.494,-32.9184 292.822,-29.7633 299.044,-27.1551"/>
<polygon fill="midnightblue" stroke="midnightblue" points="233.961,-76.8247 226.205,-84.042 236.769,-83.2369 233.961,-76.8247"/>
</g>
<!-- Node57&#45;&gt;Node5 -->
<g id="edge18" class="edge"><title>Node57&#45;&gt;Node5</title>
<path fill="none" stroke="midnightblue" d="M213.493,-109.069C231.098,-121.296 256.94,-138.313 281,-150.634 287.701,-154.065 295.172,-157.291 302.187,-160.076"/>
<polygon fill="midnightblue" stroke="midnightblue" points="215.284,-106.049 205.09,-103.161 211.258,-111.776 215.284,-106.049"/>
</g>
</g>
</svg>
