<?xml version="1.0" encoding="UTF-8" standalone="no"?>
<!DOCTYPE svg PUBLIC "-//W3C//DTD SVG 1.1//EN"
 "http://www.w3.org/Graphics/SVG/1.1/DTD/svg11.dtd">
<!-- Generated by graphviz version 2.38.0 (20140413.2041)
 -->
<!-- Title: Graphical Class Hierarchy Pages: 1 -->
<svg width="281pt" height="66pt"
 viewBox="0.00 0.00 281.00 66.00" xmlns="http://www.w3.org/2000/svg" xmlns:xlink="http://www.w3.org/1999/xlink">
<g id="graph0" class="graph" transform="scale(1 1) rotate(0) translate(4 62)">
<title>Graphical Class Hierarchy</title>
<!-- Node0 -->
<g id="node1" class="node"><title>Node0</title>
<g id="a_node1"><a xlink:href="classSR_1_1DX9WeaverBase.html" target="_top" xlink:title=" ">
<polygon fill="none" stroke="black" points="0,-19.5 0,-38.5 108,-38.5 108,-19.5 0,-19.5"/>
<text text-anchor="middle" x="54" y="-26.5" font-family="Helvetica,sans-Serif" font-size="10.00">SR::DX9WeaverBase</text>
</a>
</g>
</g>
<!-- Node1 -->
<g id="node2" class="node"><title>Node1</title>
<g id="a_node2"><a xlink:href="classSR_1_1DX9Weaver.html" target="_top" xlink:title=" ">
<polygon fill="none" stroke="black" points="165.5,-38.5 165.5,-57.5 251.5,-57.5 251.5,-38.5 165.5,-38.5"/>
<text text-anchor="middle" x="208.5" y="-45.5" font-family="Helvetica,sans-Serif" font-size="10.00">SR::DX9Weaver</text>
</a>
</g>
</g>
<!-- Node0&#45;&gt;Node1 -->
<g id="edge1" class="edge"><title>Node0&#45;&gt;Node1</title>
<path fill="none" stroke="midnightblue" d="M118.598,-36.9237C134.421,-38.8951 150.992,-40.9597 165.482,-42.765"/>
<polygon fill="midnightblue" stroke="midnightblue" points="118.693,-33.4086 108.337,-35.6453 117.828,-40.3549 118.693,-33.4086"/>
</g>
<!-- Node2 -->
<g id="node3" class="node"><title>Node2</title>
<g id="a_node3"><a xlink:href="classSR_1_1PredictingDX9Weaver.html" target="_top" xlink:title=" ">
<polygon fill="none" stroke="black" points="144,-0.5 144,-19.5 273,-19.5 273,-0.5 144,-0.5"/>
<text text-anchor="middle" x="208.5" y="-7.5" font-family="Helvetica,sans-Serif" font-size="10.00">SR::PredictingDX9Weaver</text>
</a>
</g>
</g>
<!-- Node0&#45;&gt;Node2 -->
<g id="edge2" class="edge"><title>Node0&#45;&gt;Node2</title>
<path fill="none" stroke="midnightblue" d="M118.482,-21.0908C126.909,-20.0408 135.551,-18.9642 143.979,-17.9141"/>
<polygon fill="midnightblue" stroke="midnightblue" points="117.828,-17.6451 108.337,-22.3547 118.693,-24.5914 117.828,-17.6451"/>
</g>
</g>
</svg>
