<?xml version="1.0" encoding="UTF-8" standalone="no"?>
<!DOCTYPE svg PUBLIC "-//W3C//DTD SVG 1.1//EN"
 "http://www.w3.org/Graphics/SVG/1.1/DTD/svg11.dtd">
<!-- Generated by graphviz version 2.38.0 (20140413.2041)
 -->
<!-- Title: Graphical Class Hierarchy Pages: 1 -->
<svg width="202pt" height="66pt"
 viewBox="0.00 0.00 202.00 66.00" xmlns="http://www.w3.org/2000/svg" xmlns:xlink="http://www.w3.org/1999/xlink">
<g id="graph0" class="graph" transform="scale(1 1) rotate(0) translate(4 62)">
<title>Graphical Class Hierarchy</title>
<!-- Node0 -->
<g id="node1" class="node"><title>Node0</title>
<g id="a_node1"><a xlink:href="classSR_1_1WorldObject.html" target="_top" xlink:title="Class representing both real and virtual objects as nodes in the World tree.">
<polygon fill="none" stroke="black" points="0,-19.5 0,-38.5 90,-38.5 90,-19.5 0,-19.5"/>
<text text-anchor="middle" x="45" y="-26.5" font-family="Helvetica,sans-Serif" font-size="10.00">SR::WorldObject</text>
</a>
</g>
</g>
<!-- Node1 -->
<g id="node2" class="node"><title>Node1</title>
<g id="a_node2"><a xlink:href="classSR_1_1Display.html" target="_top" xlink:title="Class of WorldObject representing the SR display in real space.">
<polygon fill="none" stroke="black" points="126,-38.5 126,-57.5 194,-57.5 194,-38.5 126,-38.5"/>
<text text-anchor="middle" x="160" y="-45.5" font-family="Helvetica,sans-Serif" font-size="10.00">SR::Display</text>
</a>
</g>
</g>
<!-- Node0&#45;&gt;Node1 -->
<g id="edge1" class="edge"><title>Node0&#45;&gt;Node1</title>
<path fill="none" stroke="midnightblue" d="M99.9009,-38.063C108.732,-39.5479 117.648,-41.047 125.784,-42.4149"/>
<polygon fill="midnightblue" stroke="midnightblue" points="100.454,-34.607 90.0123,-36.4003 99.2935,-41.5101 100.454,-34.607"/>
</g>
<!-- Node2 -->
<g id="node3" class="node"><title>Node2</title>
<g id="a_node3"><a xlink:href="classSR_1_1Screen.html" target="_top" xlink:title="Class of WorldObject representing the screen in real space.">
<polygon fill="none" stroke="black" points="126.5,-0.5 126.5,-19.5 193.5,-19.5 193.5,-0.5 126.5,-0.5"/>
<text text-anchor="middle" x="160" y="-7.5" font-family="Helvetica,sans-Serif" font-size="10.00">SR::Screen</text>
</a>
</g>
</g>
<!-- Node0&#45;&gt;Node2 -->
<g id="edge2" class="edge"><title>Node0&#45;&gt;Node2</title>
<path fill="none" stroke="midnightblue" d="M100.109,-19.9021C109.125,-18.386 118.223,-16.8563 126.482,-15.4677"/>
<polygon fill="midnightblue" stroke="midnightblue" points="99.2935,-16.4899 90.0123,-21.5997 100.454,-23.393 99.2935,-16.4899"/>
</g>
</g>
</svg>
