<?xml version="1.0" encoding="UTF-8" standalone="no"?>
<!DOCTYPE svg PUBLIC "-//W3C//DTD SVG 1.1//EN"
 "http://www.w3.org/Graphics/SVG/1.1/DTD/svg11.dtd">
<!-- Generated by graphviz version 2.38.0 (20140413.2041)
 -->
<!-- Title: Graphical Class Hierarchy Pages: 1 -->
<svg width="407pt" height="66pt"
 viewBox="0.00 0.00 407.00 66.00" xmlns="http://www.w3.org/2000/svg" xmlns:xlink="http://www.w3.org/1999/xlink">
<g id="graph0" class="graph" transform="scale(1 1) rotate(0) translate(4 62)">
<title>Graphical Class Hierarchy</title>
<!-- Node0 -->
<g id="node1" class="node"><title>Node0</title>
<g id="a_node1"><a xlink:href="classSR_1_1DX11WeaverBase.html" target="_top" xlink:title=" ">
<polygon fill="none" stroke="black" points="0,-19.5 0,-38.5 113,-38.5 113,-19.5 0,-19.5"/>
<text text-anchor="middle" x="56.5" y="-26.5" font-family="Helvetica,sans-Serif" font-size="10.00">SR::DX11WeaverBase</text>
</a>
</g>
</g>
<!-- Node1 -->
<g id="node2" class="node"><title>Node1</title>
<g id="a_node2"><a xlink:href="classSR_1_1DX11Weaver.html" target="_top" xlink:title=" ">
<polygon fill="none" stroke="black" points="170.5,-38.5 170.5,-57.5 261.5,-57.5 261.5,-38.5 170.5,-38.5"/>
<text text-anchor="middle" x="216" y="-45.5" font-family="Helvetica,sans-Serif" font-size="10.00">SR::DX11Weaver</text>
</a>
</g>
</g>
<!-- Node0&#45;&gt;Node1 -->
<g id="edge1" class="edge"><title>Node0&#45;&gt;Node1</title>
<path fill="none" stroke="midnightblue" d="M123.309,-36.9389C139.154,-38.8503 155.717,-40.8484 170.337,-42.6121"/>
<polygon fill="midnightblue" stroke="midnightblue" points="123.376,-33.4216 113.029,-35.6987 122.537,-40.3712 123.376,-33.4216"/>
</g>
<!-- Node3 -->
<g id="node4" class="node"><title>Node3</title>
<g id="a_node4"><a xlink:href="classSR_1_1PredictingDX11Weaver.html" target="_top" xlink:title=" ">
<polygon fill="none" stroke="black" points="149,-0.5 149,-19.5 283,-19.5 283,-0.5 149,-0.5"/>
<text text-anchor="middle" x="216" y="-7.5" font-family="Helvetica,sans-Serif" font-size="10.00">SR::PredictingDX11Weaver</text>
</a>
</g>
</g>
<!-- Node0&#45;&gt;Node3 -->
<g id="edge3" class="edge"><title>Node0&#45;&gt;Node3</title>
<path fill="none" stroke="midnightblue" d="M122.968,-21.1023C131.541,-20.0681 140.33,-19.0079 148.913,-17.9724"/>
<polygon fill="midnightblue" stroke="midnightblue" points="122.537,-17.6287 113.029,-22.3013 123.376,-24.5784 122.537,-17.6287"/>
</g>
<!-- Node2 -->
<g id="node3" class="node"><title>Node2</title>
<g id="a_node3"><a xlink:href="classSR_1_1DXWeaver.html" target="_top" xlink:title=" ">
<polygon fill="none" stroke="black" points="319,-38.5 319,-57.5 399,-57.5 399,-38.5 319,-38.5"/>
<text text-anchor="middle" x="359" y="-45.5" font-family="Helvetica,sans-Serif" font-size="10.00">SR::DXWeaver</text>
</a>
</g>
</g>
<!-- Node1&#45;&gt;Node2 -->
<g id="edge2" class="edge"><title>Node1&#45;&gt;Node2</title>
<path fill="none" stroke="midnightblue" d="M271.759,-48C287.492,-48 304.329,-48 318.911,-48"/>
<polygon fill="midnightblue" stroke="midnightblue" points="271.613,-44.5001 261.613,-48 271.613,-51.5001 271.613,-44.5001"/>
</g>
</g>
</svg>
