<?xml version="1.0" encoding="UTF-8" standalone="no"?>
<!DOCTYPE svg PUBLIC "-//W3C//DTD SVG 1.1//EN"
 "http://www.w3.org/Graphics/SVG/1.1/DTD/svg11.dtd">
<!-- Generated by graphviz version 2.38.0 (20140413.2041)
 -->
<!-- Title: Graphical Class Hierarchy Pages: 1 -->
<svg width="399pt" height="116pt"
 viewBox="0.00 0.00 399.00 115.50" xmlns="http://www.w3.org/2000/svg" xmlns:xlink="http://www.w3.org/1999/xlink">
<g id="graph0" class="graph" transform="scale(1 1) rotate(0) translate(4 111.5)">
<title>Graphical Class Hierarchy</title>
<!-- Node22 -->
<g id="node1" class="node"><title>Node22</title>
<g id="a_node1"><a xlink:title=" ">
<polygon fill="none" stroke="#bfbfbf" points="0,-38.5 0,-57.5 78,-57.5 78,-38.5 0,-38.5"/>
<text text-anchor="middle" x="39" y="-45.5" font-family="Helvetica,sans-Serif" font-size="10.00">std::exception</text>
</a>
</g>
</g>
<!-- Node0 -->
<g id="node2" class="node"><title>Node0</title>
<g id="a_node2"><a xlink:href="classSR_1_1Exception.html" target="_top" xlink:title="Class of exception which indicates a general SR logic error.">
<polygon fill="none" stroke="black" points="114,-38.5 114,-57.5 194,-57.5 194,-38.5 114,-38.5"/>
<text text-anchor="middle" x="154" y="-45.5" font-family="Helvetica,sans-Serif" font-size="10.00">SR::Exception</text>
</a>
</g>
</g>
<!-- Node22&#45;&gt;Node0 -->
<g id="edge1" class="edge"><title>Node22&#45;&gt;Node0</title>
<path fill="none" stroke="midnightblue" d="M88.3661,-48C96.797,-48 105.475,-48 113.627,-48"/>
<polygon fill="midnightblue" stroke="midnightblue" points="88.2567,-44.5001 78.2566,-48 88.2566,-51.5001 88.2567,-44.5001"/>
</g>
<!-- Node1 -->
<g id="node3" class="node"><title>Node1</title>
<g id="a_node3"><a xlink:href="classSR_1_1CameraControllerUnavailableException.html" target="_top" xlink:title="Class of Exception which indicates the CameraController can not be used at this point in time.">
<polygon fill="none" stroke="black" points="230.5,-77 230.5,-107 390.5,-107 390.5,-77 230.5,-77"/>
<text text-anchor="start" x="238.5" y="-95" font-family="Helvetica,sans-Serif" font-size="10.00">SR::CameraControllerUnavailable</text>
<text text-anchor="middle" x="310.5" y="-84" font-family="Helvetica,sans-Serif" font-size="10.00">Exception</text>
</a>
</g>
</g>
<!-- Node0&#45;&gt;Node1 -->
<g id="edge2" class="edge"><title>Node0&#45;&gt;Node1</title>
<path fill="none" stroke="midnightblue" d="M198.231,-60.3118C216.341,-65.4694 237.569,-71.5148 256.6,-76.9346"/>
<polygon fill="midnightblue" stroke="midnightblue" points="199.1,-56.9202 188.524,-57.5473 197.183,-63.6526 199.1,-56.9202"/>
</g>
<!-- Node2 -->
<g id="node4" class="node"><title>Node2</title>
<g id="a_node4"><a xlink:href="classSR_1_1DeviceNotAvailableException.html" target="_top" xlink:title="Class of exception which indicates that a hardware device was not available for use in the SR system.">
<polygon fill="none" stroke="black" points="230,-38.5 230,-57.5 391,-57.5 391,-38.5 230,-38.5"/>
<text text-anchor="middle" x="310.5" y="-45.5" font-family="Helvetica,sans-Serif" font-size="10.00">SR::DeviceNotAvailableException</text>
</a>
</g>
</g>
<!-- Node0&#45;&gt;Node2 -->
<g id="edge3" class="edge"><title>Node0&#45;&gt;Node2</title>
<path fill="none" stroke="midnightblue" d="M204.422,-48C212.572,-48 221.198,-48 229.865,-48"/>
<polygon fill="midnightblue" stroke="midnightblue" points="204.387,-44.5001 194.387,-48 204.387,-51.5001 204.387,-44.5001"/>
</g>
<!-- Node3 -->
<g id="node5" class="node"><title>Node3</title>
<g id="a_node5"><a xlink:href="classSR_1_1ServerNotAvailableException.html" target="_top" xlink:title="Class of Exception which indicates that a SR Service was not available to connect with.">
<polygon fill="none" stroke="black" points="230.5,-0.5 230.5,-19.5 390.5,-19.5 390.5,-0.5 230.5,-0.5"/>
<text text-anchor="middle" x="310.5" y="-7.5" font-family="Helvetica,sans-Serif" font-size="10.00">SR::ServerNotAvailableException</text>
</a>
</g>
</g>
<!-- Node0&#45;&gt;Node3 -->
<g id="edge4" class="edge"><title>Node0&#45;&gt;Node3</title>
<path fill="none" stroke="midnightblue" d="M202.173,-35.9461C211.395,-33.6188 220.996,-31.2163 230,-29 242.677,-25.8795 256.51,-22.548 269.031,-19.5602"/>
<polygon fill="midnightblue" stroke="midnightblue" points="201.197,-32.5827 192.361,-38.4294 202.914,-39.3687 201.197,-32.5827"/>
</g>
</g>
</svg>
