<?xml version="1.0" encoding="UTF-8" standalone="no"?>
<!DOCTYPE svg PUBLIC "-//W3C//DTD SVG 1.1//EN"
 "http://www.w3.org/Graphics/SVG/1.1/DTD/svg11.dtd">
<!-- Generated by graphviz version 2.38.0 (20140413.2041)
 -->
<!-- Title: Graphical Class Hierarchy Pages: 1 -->
<svg width="410pt" height="408pt"
 viewBox="0.00 0.00 410.00 408.00" xmlns="http://www.w3.org/2000/svg" xmlns:xlink="http://www.w3.org/1999/xlink">
<g id="graph0" class="graph" transform="scale(1 1) rotate(0) translate(4 404)">
<title>Graphical Class Hierarchy</title>
<!-- Node0 -->
<g id="node1" class="node"><title>Node0</title>
<g id="a_node1"><a xlink:href="classSR_1_1EyePairListener.html" target="_top" xlink:title="Interface for listening to SR_eyePair updates.">
<polygon fill="none" stroke="black" points="108.5,-342.5 108.5,-361.5 213.5,-361.5 213.5,-342.5 108.5,-342.5"/>
<text text-anchor="middle" x="161" y="-349.5" font-family="Helvetica,sans-Serif" font-size="10.00">SR::EyePairListener</text>
</a>
</g>
</g>
<!-- Node1 -->
<g id="node2" class="node"><title>Node1</title>
<g id="a_node2"><a xlink:href="classSR_1_1PredictingEyeTracker.html" target="_top" xlink:title="Sense class which provides predictive eye tracking functionality.">
<polygon fill="none" stroke="black" points="265.5,-266.5 265.5,-285.5 394.5,-285.5 394.5,-266.5 265.5,-266.5"/>
<text text-anchor="middle" x="330" y="-273.5" font-family="Helvetica,sans-Serif" font-size="10.00">SR::PredictingEyeTracker</text>
</a>
</g>
</g>
<!-- Node0&#45;&gt;Node1 -->
<g id="edge1" class="edge"><title>Node0&#45;&gt;Node1</title>
<path fill="none" stroke="midnightblue" d="M205.843,-339.145C211.338,-337.234 216.838,-335.171 222,-333 255.566,-318.885 292.63,-297.816 313.136,-285.639"/>
<polygon fill="midnightblue" stroke="midnightblue" points="204.411,-335.933 196.029,-342.413 206.623,-342.574 204.411,-335.933"/>
</g>
<!-- Node2 -->
<g id="node3" class="node"><title>Node2</title>
<g id="a_node3"><a xlink:href="classSR_1_1PredictingWeaverTracker.html" target="_top" xlink:title="Sense class which provides predictive weaver position tracking functionality.">
<polygon fill="none" stroke="black" points="258,-361.5 258,-380.5 402,-380.5 402,-361.5 258,-361.5"/>
<text text-anchor="middle" x="330" y="-368.5" font-family="Helvetica,sans-Serif" font-size="10.00">SR::PredictingWeaverTracker</text>
</a>
</g>
</g>
<!-- Node0&#45;&gt;Node2 -->
<g id="edge2" class="edge"><title>Node0&#45;&gt;Node2</title>
<path fill="none" stroke="midnightblue" d="M223.887,-359.041C234.927,-360.297 246.509,-361.615 257.785,-362.898"/>
<polygon fill="midnightblue" stroke="midnightblue" points="224.256,-355.561 213.924,-357.908 223.465,-362.516 224.256,-355.561"/>
</g>
<!-- Node64 -->
<g id="node4" class="node"><title>Node64</title>
<g id="a_node4"><a xlink:href="classSR_1_1Sense.html" target="_top" xlink:title="Class of objects dealing with Streams &#160;of data.">
<polygon fill="none" stroke="black" points="0,-171.5 0,-190.5 64,-190.5 64,-171.5 0,-171.5"/>
<text text-anchor="middle" x="32" y="-178.5" font-family="Helvetica,sans-Serif" font-size="10.00">SR::Sense</text>
</a>
</g>
</g>
<!-- Node65 -->
<g id="node5" class="node"><title>Node65</title>
<g id="a_node5"><a xlink:href="classSR_1_1ApplicationSense.html" target="_top" xlink:title="Sense class which shares information about SR Applications throughout the SR system and to applicatio...">
<polygon fill="none" stroke="black" points="105,-304.5 105,-323.5 217,-323.5 217,-304.5 105,-304.5"/>
<text text-anchor="middle" x="161" y="-311.5" font-family="Helvetica,sans-Serif" font-size="10.00">SR::ApplicationSense</text>
</a>
</g>
</g>
<!-- Node64&#45;&gt;Node65 -->
<g id="edge3" class="edge"><title>Node64&#45;&gt;Node65</title>
<path fill="none" stroke="midnightblue" d="M39.3038,-200.115C48.615,-225.438 68.4301,-269.831 100,-295 104.87,-298.883 110.546,-301.978 116.427,-304.445"/>
<polygon fill="midnightblue" stroke="midnightblue" points="42.5601,-198.824 35.9528,-190.542 35.9531,-201.137 42.5601,-198.824"/>
</g>
<!-- Node66 -->
<g id="node6" class="node"><title>Node66</title>
<g id="a_node6"><a xlink:href="classSR_1_1Camera.html" target="_top" xlink:title="Class of Sense dealing with video data.">
<polygon fill="none" stroke="black" points="126,-266.5 126,-285.5 196,-285.5 196,-266.5 126,-266.5"/>
<text text-anchor="middle" x="161" y="-273.5" font-family="Helvetica,sans-Serif" font-size="10.00">SR::Camera</text>
</a>
</g>
</g>
<!-- Node64&#45;&gt;Node66 -->
<g id="edge4" class="edge"><title>Node64&#45;&gt;Node66</title>
<path fill="none" stroke="midnightblue" d="M44.751,-199.287C56.7062,-216.505 76.747,-241.85 100,-257 107.782,-262.07 117.01,-265.868 125.867,-268.679"/>
<polygon fill="midnightblue" stroke="midnightblue" points="47.4501,-197.028 38.972,-190.674 41.6373,-200.928 47.4501,-197.028"/>
</g>
<!-- Node67 -->
<g id="node7" class="node"><title>Node67</title>
<g id="a_node7"><a xlink:href="classSR_1_1EyeTracker.html" target="_top" xlink:title="Sense class which provides face tracking functionality to the SR system.">
<polygon fill="none" stroke="black" points="118,-228.5 118,-247.5 204,-247.5 204,-228.5 118,-228.5"/>
<text text-anchor="middle" x="161" y="-235.5" font-family="Helvetica,sans-Serif" font-size="10.00">SR::EyeTracker</text>
</a>
</g>
</g>
<!-- Node64&#45;&gt;Node67 -->
<g id="edge5" class="edge"><title>Node64&#45;&gt;Node67</title>
<path fill="none" stroke="midnightblue" d="M56.5864,-195.988C69.149,-203.553 85.0557,-212.482 100,-219 108.112,-222.538 117.098,-225.74 125.592,-228.463"/>
<polygon fill="midnightblue" stroke="midnightblue" points="58.0557,-192.783 47.7028,-190.532 54.392,-198.748 58.0557,-192.783"/>
</g>
<!-- Node68 -->
<g id="node8" class="node"><title>Node68</title>
<g id="a_node8"><a xlink:href="classSR_1_1GestureAnalyser.html" target="_top" xlink:title="Sense class which provides gesture analysis functionality to the SR system.">
<polygon fill="none" stroke="black" points="106.5,-190.5 106.5,-209.5 215.5,-209.5 215.5,-190.5 106.5,-190.5"/>
<text text-anchor="middle" x="161" y="-197.5" font-family="Helvetica,sans-Serif" font-size="10.00">SR::GestureAnalyser</text>
</a>
</g>
</g>
<!-- Node64&#45;&gt;Node68 -->
<g id="edge7" class="edge"><title>Node64&#45;&gt;Node68</title>
<path fill="none" stroke="midnightblue" d="M74.0514,-187.142C84.3871,-188.688 95.6335,-190.37 106.481,-191.993"/>
<polygon fill="midnightblue" stroke="midnightblue" points="74.4755,-183.666 64.0677,-185.648 73.4397,-190.589 74.4755,-183.666"/>
</g>
<!-- Node69 -->
<g id="node9" class="node"><title>Node69</title>
<g id="a_node9"><a xlink:href="classSR_1_1HandTracker.html" target="_top" xlink:title="Sense class which provides hand tracking functionality to the SR system.">
<polygon fill="none" stroke="black" points="115.5,-152.5 115.5,-171.5 206.5,-171.5 206.5,-152.5 115.5,-152.5"/>
<text text-anchor="middle" x="161" y="-159.5" font-family="Helvetica,sans-Serif" font-size="10.00">SR::HandTracker</text>
</a>
</g>
</g>
<!-- Node64&#45;&gt;Node69 -->
<g id="edge8" class="edge"><title>Node64&#45;&gt;Node69</title>
<path fill="none" stroke="midnightblue" d="M74.2408,-174.83C87.3787,-172.865 101.972,-170.681 115.34,-168.681"/>
<polygon fill="midnightblue" stroke="midnightblue" points="73.4397,-171.411 64.0677,-176.352 74.4755,-178.334 73.4397,-171.411"/>
</g>
<!-- Node70 -->
<g id="node10" class="node"><title>Node70</title>
<g id="a_node10"><a xlink:href="classSR_1_1HeadPoseTracker.html" target="_top" xlink:title="Sense class which provides head pose tracking functionality to the SR system.">
<polygon fill="none" stroke="black" points="104.5,-114.5 104.5,-133.5 217.5,-133.5 217.5,-114.5 104.5,-114.5"/>
<text text-anchor="middle" x="161" y="-121.5" font-family="Helvetica,sans-Serif" font-size="10.00">SR::HeadPoseTracker</text>
</a>
</g>
</g>
<!-- Node64&#45;&gt;Node70 -->
<g id="edge9" class="edge"><title>Node64&#45;&gt;Node70</title>
<path fill="none" stroke="midnightblue" d="M56.5864,-166.012C69.149,-158.447 85.0557,-149.518 100,-143 108.112,-139.462 117.098,-136.26 125.592,-133.537"/>
<polygon fill="midnightblue" stroke="midnightblue" points="54.392,-163.252 47.7028,-171.468 58.0557,-169.217 54.392,-163.252"/>
</g>
<!-- Node71 -->
<g id="node11" class="node"><title>Node71</title>
<g id="a_node11"><a xlink:href="classSR_1_1HeadTracker.html" target="_top" xlink:title="Sense class which provides face tracking functionality to the SR system.">
<polygon fill="none" stroke="black" points="115.5,-76.5 115.5,-95.5 206.5,-95.5 206.5,-76.5 115.5,-76.5"/>
<text text-anchor="middle" x="161" y="-83.5" font-family="Helvetica,sans-Serif" font-size="10.00">SR::HeadTracker</text>
</a>
</g>
</g>
<!-- Node64&#45;&gt;Node71 -->
<g id="edge10" class="edge"><title>Node64&#45;&gt;Node71</title>
<path fill="none" stroke="midnightblue" d="M44.751,-162.713C56.7062,-145.495 76.747,-120.15 100,-105 105.859,-101.183 112.539,-98.0863 119.262,-95.5893"/>
<polygon fill="midnightblue" stroke="midnightblue" points="41.6373,-161.072 38.972,-171.326 47.4501,-164.972 41.6373,-161.072"/>
</g>
<!-- Node72 -->
<g id="node12" class="node"><title>Node72</title>
<g id="a_node12"><a xlink:href="classSR_1_1SwitchableLensHint.html" target="_top" xlink:title="Pure virtual interface for controlling switchable lenses from applications.">
<polygon fill="none" stroke="black" points="100,-38.5 100,-57.5 222,-57.5 222,-38.5 100,-38.5"/>
<text text-anchor="middle" x="161" y="-45.5" font-family="Helvetica,sans-Serif" font-size="10.00">SR::SwitchableLensHint</text>
</a>
</g>
</g>
<!-- Node64&#45;&gt;Node72 -->
<g id="edge11" class="edge"><title>Node64&#45;&gt;Node72</title>
<path fill="none" stroke="midnightblue" d="M39.3038,-161.885C48.615,-136.562 68.4301,-92.1693 100,-67 104.87,-63.1175 110.546,-60.022 116.427,-57.5555"/>
<polygon fill="midnightblue" stroke="midnightblue" points="35.9531,-160.863 35.9528,-171.458 42.5601,-163.176 35.9531,-160.863"/>
</g>
<!-- Node73 -->
<g id="node13" class="node"><title>Node73</title>
<g id="a_node13"><a xlink:href="classSR_1_1SystemSense.html" target="_top" xlink:title="Sense class which shares information about the SR system throughout the SR system and to applications...">
<polygon fill="none" stroke="black" points="112,-0.5 112,-19.5 210,-19.5 210,-0.5 112,-0.5"/>
<text text-anchor="middle" x="161" y="-7.5" font-family="Helvetica,sans-Serif" font-size="10.00">SR::SystemSense</text>
</a>
</g>
</g>
<!-- Node64&#45;&gt;Node73 -->
<g id="edge12" class="edge"><title>Node64&#45;&gt;Node73</title>
<path fill="none" stroke="midnightblue" d="M36.3259,-161.187C42.7828,-128.87 60.0566,-64.8291 100,-29 104.311,-25.1332 109.408,-22.0531 114.782,-19.5997"/>
<polygon fill="midnightblue" stroke="midnightblue" points="32.8517,-160.727 34.4736,-171.197 39.7348,-162.001 32.8517,-160.727"/>
</g>
<!-- Node74 -->
<g id="node14" class="node"><title>Node74</title>
<g id="a_node14"><a xlink:href="classSR_1_1WeaverTracker.html" target="_top" xlink:title="Sense class which provides weave tracking functionality to the SR system.">
<polygon fill="none" stroke="black" points="110.5,-380.5 110.5,-399.5 211.5,-399.5 211.5,-380.5 110.5,-380.5"/>
<text text-anchor="middle" x="161" y="-387.5" font-family="Helvetica,sans-Serif" font-size="10.00">SR::WeaverTracker</text>
</a>
</g>
</g>
<!-- Node64&#45;&gt;Node74 -->
<g id="edge13" class="edge"><title>Node64&#45;&gt;Node74</title>
<path fill="none" stroke="midnightblue" d="M34.3624,-201.307C38.0439,-239.871 51.493,-324.037 100,-371 104.004,-374.876 108.793,-377.962 113.897,-380.418"/>
<polygon fill="midnightblue" stroke="midnightblue" points="37.814,-200.574 33.5055,-190.895 30.8376,-201.148 37.814,-200.574"/>
</g>
<!-- Node67&#45;&gt;Node1 -->
<g id="edge6" class="edge"><title>Node67&#45;&gt;Node1</title>
<path fill="none" stroke="midnightblue" d="M213.965,-249.824C237.509,-255.182 264.974,-261.431 287.162,-266.48"/>
<polygon fill="midnightblue" stroke="midnightblue" points="214.668,-246.395 204.141,-247.589 213.115,-253.221 214.668,-246.395"/>
</g>
<!-- Node74&#45;&gt;Node2 -->
<g id="edge14" class="edge"><title>Node74&#45;&gt;Node2</title>
<path fill="none" stroke="midnightblue" d="M221.748,-383.202C233.464,-381.869 245.861,-380.459 257.905,-379.089"/>
<polygon fill="midnightblue" stroke="midnightblue" points="221.194,-379.743 211.653,-384.351 221.985,-386.698 221.194,-379.743"/>
</g>
</g>
</svg>
