<?xml version="1.0" encoding="UTF-8" standalone="no"?>
<!DOCTYPE svg PUBLIC "-//W3C//DTD SVG 1.1//EN"
 "http://www.w3.org/Graphics/SVG/1.1/DTD/svg11.dtd">
<!-- Generated by graphviz version 2.38.0 (20140413.2041)
 -->
<!-- Title: predictingeyetracker.h Pages: 1 -->
<svg width="999pt" height="375pt"
 viewBox="0.00 0.00 999.00 375.00" xmlns="http://www.w3.org/2000/svg" xmlns:xlink="http://www.w3.org/1999/xlink">
<g id="graph0" class="graph" transform="scale(1 1) rotate(0) translate(4 371)">
<title>predictingeyetracker.h</title>
<!-- Node1 -->
<g id="node1" class="node"><title>Node1</title>
<g id="a_node1"><a xlink:title=" ">
<polygon fill="#bfbfbf" stroke="black" points="101.5,-347.5 101.5,-366.5 214.5,-366.5 214.5,-347.5 101.5,-347.5"/>
<text text-anchor="middle" x="158" y="-354.5" font-family="Helvetica,sans-Serif" font-size="10.00">predictingeyetracker.h</text>
</a>
</g>
</g>
<!-- Node2 -->
<g id="node2" class="node"><title>Node2</title>
<g id="a_node2"><a xlink:href="eyetracker_8h.html" target="_top" xlink:title=" ">
<polygon fill="none" stroke="black" points="210.5,-280.5 210.5,-310.5 313.5,-310.5 313.5,-280.5 210.5,-280.5"/>
<text text-anchor="start" x="218.5" y="-298.5" font-family="Helvetica,sans-Serif" font-size="10.00">sr/sense/eyetracker</text>
<text text-anchor="middle" x="262" y="-287.5" font-family="Helvetica,sans-Serif" font-size="10.00">/eyetracker.h</text>
</a>
</g>
</g>
<!-- Node1&#45;&gt;Node2 -->
<g id="edge1" class="edge"><title>Node1&#45;&gt;Node2</title>
<path fill="none" stroke="midnightblue" d="M172.901,-347.475C187.381,-339.191 209.87,-326.325 228.63,-315.591"/>
<polygon fill="midnightblue" stroke="midnightblue" points="230.547,-318.527 237.489,-310.523 227.071,-312.451 230.547,-318.527"/>
</g>
<!-- Node10 -->
<g id="node10" class="node"><title>Node10</title>
<g id="a_node10"><a xlink:href="eyepairlistener_8h.html" target="_top" xlink:title=" ">
<polygon fill="none" stroke="black" points="0,-168.5 0,-187.5 88,-187.5 88,-168.5 0,-168.5"/>
<text text-anchor="middle" x="44" y="-175.5" font-family="Helvetica,sans-Serif" font-size="10.00">eyepairlistener.h</text>
</a>
</g>
</g>
<!-- Node1&#45;&gt;Node10 -->
<g id="edge35" class="edge"><title>Node1&#45;&gt;Node10</title>
<path fill="none" stroke="midnightblue" d="M152.502,-347.463C134.864,-320.078 79.4575,-234.052 55.3698,-196.653"/>
<polygon fill="midnightblue" stroke="midnightblue" points="58.0692,-194.38 49.7118,-187.868 52.1841,-198.171 58.0692,-194.38"/>
</g>
<!-- Node3 -->
<g id="node3" class="node"><title>Node3</title>
<g id="a_node3"><a xlink:title=" ">
<polygon fill="none" stroke="#bfbfbf" points="328.5,-168.5 328.5,-187.5 363.5,-187.5 363.5,-168.5 328.5,-168.5"/>
<text text-anchor="middle" x="346" y="-175.5" font-family="Helvetica,sans-Serif" font-size="10.00">map</text>
</a>
</g>
</g>
<!-- Node2&#45;&gt;Node3 -->
<g id="edge2" class="edge"><title>Node2&#45;&gt;Node3</title>
<path fill="none" stroke="midnightblue" d="M279.416,-280.316C290.3,-270.835 304.082,-257.638 314,-244 324.624,-229.391 333.398,-210.718 339.055,-197.137"/>
<polygon fill="midnightblue" stroke="midnightblue" points="342.44,-198.098 342.899,-187.513 335.94,-195.501 342.44,-198.098"/>
</g>
<!-- Node4 -->
<g id="node4" class="node"><title>Node4</title>
<g id="a_node4"><a xlink:title=" ">
<polygon fill="none" stroke="#bfbfbf" points="240,-112.5 240,-131.5 284,-131.5 284,-112.5 240,-112.5"/>
<text text-anchor="middle" x="262" y="-119.5" font-family="Helvetica,sans-Serif" font-size="10.00">thread</text>
</a>
</g>
</g>
<!-- Node2&#45;&gt;Node4 -->
<g id="edge3" class="edge"><title>Node2&#45;&gt;Node4</title>
<path fill="none" stroke="midnightblue" d="M262,-280.465C262,-249.704 262,-176.329 262,-141.7"/>
<polygon fill="midnightblue" stroke="midnightblue" points="265.5,-141.56 262,-131.56 258.5,-141.56 265.5,-141.56"/>
</g>
<!-- Node5 -->
<g id="node5" class="node"><title>Node5</title>
<g id="a_node5"><a xlink:title=" ">
<polygon fill="none" stroke="#bfbfbf" points="302,-112.5 302,-131.5 346,-131.5 346,-112.5 302,-112.5"/>
<text text-anchor="middle" x="324" y="-119.5" font-family="Helvetica,sans-Serif" font-size="10.00">mutex</text>
</a>
</g>
</g>
<!-- Node2&#45;&gt;Node5 -->
<g id="edge4" class="edge"><title>Node2&#45;&gt;Node5</title>
<path fill="none" stroke="midnightblue" d="M267.074,-280.465C278.243,-249.57 304.952,-175.69 317.402,-141.251"/>
<polygon fill="midnightblue" stroke="midnightblue" points="320.797,-142.154 320.906,-131.56 314.214,-139.774 320.797,-142.154"/>
</g>
<!-- Node6 -->
<g id="node6" class="node"><title>Node6</title>
<g id="a_node6"><a xlink:href="eyepair_8h.html" target="_top" xlink:title=" ">
<polygon fill="none" stroke="black" points="166,-112.5 166,-131.5 222,-131.5 222,-112.5 166,-112.5"/>
<text text-anchor="middle" x="194" y="-119.5" font-family="Helvetica,sans-Serif" font-size="10.00">eyepair.h</text>
</a>
</g>
</g>
<!-- Node2&#45;&gt;Node6 -->
<g id="edge5" class="edge"><title>Node2&#45;&gt;Node6</title>
<path fill="none" stroke="midnightblue" d="M256.435,-280.465C244.185,-249.57 214.892,-175.69 201.236,-141.251"/>
<polygon fill="midnightblue" stroke="midnightblue" points="204.333,-139.566 197.394,-131.56 197.826,-142.146 204.333,-139.566"/>
</g>
<!-- Node9 -->
<g id="node9" class="node"><title>Node9</title>
<g id="a_node9"><a xlink:href="eyepairstream_8h.html" target="_top" xlink:title=" ">
<polygon fill="none" stroke="black" points="101,-224.5 101,-243.5 187,-243.5 187,-224.5 101,-224.5"/>
<text text-anchor="middle" x="144" y="-231.5" font-family="Helvetica,sans-Serif" font-size="10.00">eyepairstream.h</text>
</a>
</g>
</g>
<!-- Node2&#45;&gt;Node9 -->
<g id="edge9" class="edge"><title>Node2&#45;&gt;Node9</title>
<path fill="none" stroke="midnightblue" d="M234.036,-280.399C214.679,-270.639 189.092,-257.737 170.144,-248.183"/>
<polygon fill="midnightblue" stroke="midnightblue" points="171.675,-245.035 161.17,-243.658 168.523,-251.285 171.675,-245.035"/>
</g>
<!-- Node12 -->
<g id="node12" class="node"><title>Node12</title>
<g id="a_node12"><a xlink:href="srcontext_8h.html" target="_top" xlink:title=" ">
<polygon fill="none" stroke="black" points="455,-224.5 455,-243.5 591,-243.5 591,-224.5 455,-224.5"/>
<text text-anchor="middle" x="523" y="-231.5" font-family="Helvetica,sans-Serif" font-size="10.00">sr/management/srcontext.h</text>
</a>
</g>
</g>
<!-- Node2&#45;&gt;Node12 -->
<g id="edge14" class="edge"><title>Node2&#45;&gt;Node12</title>
<path fill="none" stroke="midnightblue" d="M313.565,-282.745C360.663,-272.008 429.731,-256.262 475.506,-245.827"/>
<polygon fill="midnightblue" stroke="midnightblue" points="476.501,-249.19 485.473,-243.555 474.945,-242.365 476.501,-249.19"/>
</g>
<!-- Node7 -->
<g id="node7" class="node"><title>Node7</title>
<g id="a_node7"><a xlink:href="types_8h.html" target="_top" xlink:title=" ">
<polygon fill="none" stroke="black" points="397,-56.5 397,-75.5 457,-75.5 457,-56.5 397,-56.5"/>
<text text-anchor="middle" x="427" y="-63.5" font-family="Helvetica,sans-Serif" font-size="10.00">sr/types.h</text>
</a>
</g>
</g>
<!-- Node6&#45;&gt;Node7 -->
<g id="edge6" class="edge"><title>Node6&#45;&gt;Node7</title>
<path fill="none" stroke="midnightblue" d="M222.273,-114.083C225.219,-113.374 228.169,-112.669 231,-112 284.916,-99.2538 347.301,-85.0189 386.939,-76.0384"/>
<polygon fill="midnightblue" stroke="midnightblue" points="387.772,-79.4385 396.753,-73.8171 386.227,-72.6112 387.772,-79.4385"/>
</g>
<!-- Node8 -->
<g id="node8" class="node"><title>Node8</title>
<g id="a_node8"><a xlink:title=" ">
<polygon fill="none" stroke="#bfbfbf" points="402.5,-0.5 402.5,-19.5 451.5,-19.5 451.5,-0.5 402.5,-0.5"/>
<text text-anchor="middle" x="427" y="-7.5" font-family="Helvetica,sans-Serif" font-size="10.00">stdint.h</text>
</a>
</g>
</g>
<!-- Node6&#45;&gt;Node8 -->
<g id="edge8" class="edge"><title>Node6&#45;&gt;Node8</title>
<path fill="none" stroke="midnightblue" d="M212.283,-112.368C253.032,-93.131 351.491,-46.6478 399.609,-23.9314"/>
<polygon fill="midnightblue" stroke="midnightblue" points="401.253,-27.0257 408.802,-19.5914 398.265,-20.6956 401.253,-27.0257"/>
</g>
<!-- Node7&#45;&gt;Node8 -->
<g id="edge7" class="edge"><title>Node7&#45;&gt;Node8</title>
<path fill="none" stroke="midnightblue" d="M427,-56.083C427,-49.0059 427,-38.8611 427,-29.9865"/>
<polygon fill="midnightblue" stroke="midnightblue" points="430.5,-29.751 427,-19.7511 423.5,-29.7511 430.5,-29.751"/>
</g>
<!-- Node9&#45;&gt;Node6 -->
<g id="edge10" class="edge"><title>Node9&#45;&gt;Node6</title>
<path fill="none" stroke="midnightblue" d="M148.613,-224.472C153.409,-215.495 161.035,-200.901 167,-188 174.284,-172.247 181.796,-153.966 187.042,-140.811"/>
<polygon fill="midnightblue" stroke="midnightblue" points="190.299,-142.093 190.715,-131.506 183.787,-139.523 190.299,-142.093"/>
</g>
<!-- Node9&#45;&gt;Node10 -->
<g id="edge11" class="edge"><title>Node9&#45;&gt;Node10</title>
<path fill="none" stroke="midnightblue" d="M127.933,-224.324C112.042,-215.743 87.4926,-202.486 69.0415,-192.522"/>
<polygon fill="midnightblue" stroke="midnightblue" points="70.489,-189.326 60.0269,-187.655 67.1629,-195.486 70.489,-189.326"/>
</g>
<!-- Node11 -->
<g id="node11" class="node"><title>Node11</title>
<g id="a_node11"><a xlink:title=" ">
<polygon fill="none" stroke="#bfbfbf" points="106,-168.5 106,-187.5 158,-187.5 158,-168.5 106,-168.5"/>
<text text-anchor="middle" x="132" y="-175.5" font-family="Helvetica,sans-Serif" font-size="10.00">memory</text>
</a>
</g>
</g>
<!-- Node9&#45;&gt;Node11 -->
<g id="edge13" class="edge"><title>Node9&#45;&gt;Node11</title>
<path fill="none" stroke="midnightblue" d="M142.018,-224.083C140.428,-216.927 138.141,-206.635 136.154,-197.691"/>
<polygon fill="midnightblue" stroke="midnightblue" points="139.531,-196.754 133.945,-187.751 132.697,-198.272 139.531,-196.754"/>
</g>
<!-- Node10&#45;&gt;Node6 -->
<g id="edge12" class="edge"><title>Node10&#45;&gt;Node6</title>
<path fill="none" stroke="midnightblue" d="M67.7679,-168.444C92.8928,-159.399 132.711,-145.064 160.9,-134.916"/>
<polygon fill="midnightblue" stroke="midnightblue" points="162.12,-138.197 170.343,-131.516 159.749,-131.611 162.12,-138.197"/>
</g>
<!-- Node12&#45;&gt;Node3 -->
<g id="edge16" class="edge"><title>Node12&#45;&gt;Node3</title>
<path fill="none" stroke="midnightblue" d="M492.799,-224.42C464.201,-216.203 419.848,-203.223 373.246,-188.312"/>
<polygon fill="midnightblue" stroke="midnightblue" points="374.179,-184.936 363.587,-185.204 372.034,-191.599 374.179,-184.936"/>
</g>
<!-- Node13 -->
<g id="node13" class="node"><title>Node13</title>
<g id="a_node13"><a xlink:title=" ">
<polygon fill="none" stroke="#bfbfbf" points="428.5,-112.5 428.5,-131.5 469.5,-131.5 469.5,-112.5 428.5,-112.5"/>
<text text-anchor="middle" x="449" y="-119.5" font-family="Helvetica,sans-Serif" font-size="10.00">string</text>
</a>
</g>
</g>
<!-- Node12&#45;&gt;Node13 -->
<g id="edge15" class="edge"><title>Node12&#45;&gt;Node13</title>
<path fill="none" stroke="midnightblue" d="M521.937,-224.33C519.992,-211.195 514.907,-185.888 503,-168 494.89,-155.816 482.526,-145.171 471.675,-137.297"/>
<polygon fill="midnightblue" stroke="midnightblue" points="473.627,-134.392 463.406,-131.601 469.655,-140.156 473.627,-134.392"/>
</g>
<!-- Node14 -->
<g id="node14" class="node"><title>Node14</title>
<g id="a_node14"><a xlink:href="sense_8h.html" target="_top" xlink:title=" ">
<polygon fill="none" stroke="black" points="381.5,-168.5 381.5,-187.5 494.5,-187.5 494.5,-168.5 381.5,-168.5"/>
<text text-anchor="middle" x="438" y="-175.5" font-family="Helvetica,sans-Serif" font-size="10.00">sr/sense/core/sense.h</text>
</a>
</g>
</g>
<!-- Node12&#45;&gt;Node14 -->
<g id="edge17" class="edge"><title>Node12&#45;&gt;Node14</title>
<path fill="none" stroke="midnightblue" d="M509.343,-224.324C496.084,-215.9 475.732,-202.971 460.154,-193.074"/>
<polygon fill="midnightblue" stroke="midnightblue" points="461.94,-190.063 451.623,-187.655 458.187,-195.971 461.94,-190.063"/>
</g>
<!-- Node18 -->
<g id="node18" class="node"><title>Node18</title>
<g id="a_node18"><a xlink:href="worldobject_8h.html" target="_top" xlink:title=" ">
<polygon fill="none" stroke="black" points="551,-168.5 551,-187.5 661,-187.5 661,-168.5 551,-168.5"/>
<text text-anchor="middle" x="606" y="-175.5" font-family="Helvetica,sans-Serif" font-size="10.00">sr/world/worldobject.h</text>
</a>
</g>
</g>
<!-- Node12&#45;&gt;Node18 -->
<g id="edge25" class="edge"><title>Node12&#45;&gt;Node18</title>
<path fill="none" stroke="midnightblue" d="M536.335,-224.324C549.162,-215.979 568.785,-203.212 583.94,-193.352"/>
<polygon fill="midnightblue" stroke="midnightblue" points="586.224,-196.042 592.698,-187.655 582.407,-190.174 586.224,-196.042"/>
</g>
<!-- Node20 -->
<g id="node20" class="node"><title>Node20</title>
<g id="a_node20"><a xlink:href="networkinterface_8h.html" target="_top" xlink:title=" ">
<polygon fill="none" stroke="black" points="679.5,-168.5 679.5,-187.5 844.5,-187.5 844.5,-168.5 679.5,-168.5"/>
<text text-anchor="middle" x="762" y="-175.5" font-family="Helvetica,sans-Serif" font-size="10.00">sr/network/core/networkinterface.h</text>
</a>
</g>
</g>
<!-- Node12&#45;&gt;Node20 -->
<g id="edge29" class="edge"><title>Node12&#45;&gt;Node20</title>
<path fill="none" stroke="midnightblue" d="M560.87,-224.444C602.476,-215.043 669.369,-199.929 714.469,-189.739"/>
<polygon fill="midnightblue" stroke="midnightblue" points="715.324,-193.134 724.307,-187.516 713.781,-186.306 715.324,-193.134"/>
</g>
<!-- Node21 -->
<g id="node21" class="node"><title>Node21</title>
<g id="a_node21"><a xlink:href="receiver_8h.html" target="_top" xlink:title=" ">
<polygon fill="none" stroke="black" points="863,-168.5 863,-187.5 991,-187.5 991,-168.5 863,-168.5"/>
<text text-anchor="middle" x="927" y="-175.5" font-family="Helvetica,sans-Serif" font-size="10.00">sr/network/core/receiver.h</text>
</a>
</g>
</g>
<!-- Node12&#45;&gt;Node21 -->
<g id="edge30" class="edge"><title>Node12&#45;&gt;Node21</title>
<path fill="none" stroke="midnightblue" d="M587.015,-224.444C659.413,-214.767 777.107,-199.035 853.283,-188.853"/>
<polygon fill="midnightblue" stroke="midnightblue" points="853.836,-192.311 863.284,-187.516 852.909,-185.372 853.836,-192.311"/>
</g>
<!-- Node14&#45;&gt;Node4 -->
<g id="edge20" class="edge"><title>Node14&#45;&gt;Node4</title>
<path fill="none" stroke="midnightblue" d="M410.112,-168.444C378.489,-158.741 327.029,-142.952 293.852,-132.773"/>
<polygon fill="midnightblue" stroke="midnightblue" points="294.771,-129.394 284.185,-129.807 292.718,-136.086 294.771,-129.394"/>
</g>
<!-- Node14&#45;&gt;Node5 -->
<g id="edge21" class="edge"><title>Node14&#45;&gt;Node5</title>
<path fill="none" stroke="midnightblue" d="M419.936,-168.444C401.425,-159.675 372.419,-145.935 351.145,-135.858"/>
<polygon fill="midnightblue" stroke="midnightblue" points="352.515,-132.634 341.979,-131.516 349.518,-138.96 352.515,-132.634"/>
</g>
<!-- Node14&#45;&gt;Node13 -->
<g id="edge18" class="edge"><title>Node14&#45;&gt;Node13</title>
<path fill="none" stroke="midnightblue" d="M439.816,-168.083C441.274,-160.927 443.371,-150.635 445.193,-141.691"/>
<polygon fill="midnightblue" stroke="midnightblue" points="448.651,-142.248 447.217,-131.751 441.792,-140.851 448.651,-142.248"/>
</g>
<!-- Node15 -->
<g id="node15" class="node"><title>Node15</title>
<g id="a_node15"><a xlink:title=" ">
<polygon fill="none" stroke="#bfbfbf" points="364,-112.5 364,-131.5 410,-131.5 410,-112.5 364,-112.5"/>
<text text-anchor="middle" x="387" y="-119.5" font-family="Helvetica,sans-Serif" font-size="10.00">chrono</text>
</a>
</g>
</g>
<!-- Node14&#45;&gt;Node15 -->
<g id="edge19" class="edge"><title>Node14&#45;&gt;Node15</title>
<path fill="none" stroke="midnightblue" d="M429.578,-168.083C422.152,-160.22 411.148,-148.569 402.188,-139.081"/>
<polygon fill="midnightblue" stroke="midnightblue" points="404.676,-136.618 395.265,-131.751 399.587,-141.424 404.676,-136.618"/>
</g>
<!-- Node16 -->
<g id="node16" class="node"><title>Node16</title>
<g id="a_node16"><a xlink:href="transformation_8h.html" target="_top" xlink:title=" ">
<polygon fill="none" stroke="black" points="488,-112.5 488,-131.5 574,-131.5 574,-112.5 488,-112.5"/>
<text text-anchor="middle" x="531" y="-119.5" font-family="Helvetica,sans-Serif" font-size="10.00">transformation.h</text>
</a>
</g>
</g>
<!-- Node14&#45;&gt;Node16 -->
<g id="edge22" class="edge"><title>Node14&#45;&gt;Node16</title>
<path fill="none" stroke="midnightblue" d="M452.942,-168.324C467.585,-159.822 490.134,-146.729 507.238,-136.797"/>
<polygon fill="midnightblue" stroke="midnightblue" points="509.205,-139.703 516.095,-131.655 505.69,-133.649 509.205,-139.703"/>
</g>
<!-- Node16&#45;&gt;Node7 -->
<g id="edge24" class="edge"><title>Node16&#45;&gt;Node7</title>
<path fill="none" stroke="midnightblue" d="M514.291,-112.324C497.688,-103.703 471.998,-90.3643 452.78,-80.3855"/>
<polygon fill="midnightblue" stroke="midnightblue" points="454.156,-77.1565 443.668,-75.6545 450.93,-83.3689 454.156,-77.1565"/>
</g>
<!-- Node17 -->
<g id="node17" class="node"><title>Node17</title>
<g id="a_node17"><a xlink:title=" ">
<polygon fill="none" stroke="#bfbfbf" points="520,-56.5 520,-75.5 624,-75.5 624,-56.5 520,-56.5"/>
<text text-anchor="middle" x="572" y="-63.5" font-family="Helvetica,sans-Serif" font-size="10.00">opencv2/opencv.hpp</text>
</a>
</g>
</g>
<!-- Node16&#45;&gt;Node17 -->
<g id="edge23" class="edge"><title>Node16&#45;&gt;Node17</title>
<path fill="none" stroke="midnightblue" d="M537.77,-112.083C543.562,-104.455 552.058,-93.2645 559.138,-83.9408"/>
<polygon fill="midnightblue" stroke="midnightblue" points="562.096,-85.8321 565.356,-75.7511 556.521,-81.5991 562.096,-85.8321"/>
</g>
<!-- Node18&#45;&gt;Node16 -->
<g id="edge28" class="edge"><title>Node18&#45;&gt;Node16</title>
<path fill="none" stroke="midnightblue" d="M593.95,-168.324C582.537,-160.107 565.169,-147.602 551.565,-137.807"/>
<polygon fill="midnightblue" stroke="midnightblue" points="553.43,-134.837 543.269,-131.834 549.34,-140.517 553.43,-134.837"/>
</g>
<!-- Node18&#45;&gt;Node17 -->
<g id="edge27" class="edge"><title>Node18&#45;&gt;Node17</title>
<path fill="none" stroke="midnightblue" d="M617.314,-168.214C631.901,-155.765 654.141,-132.251 643,-112 635.113,-97.6632 620.514,-87.2525 606.597,-80.0792"/>
<polygon fill="midnightblue" stroke="midnightblue" points="607.698,-76.7285 597.161,-75.6217 604.708,-83.0578 607.698,-76.7285"/>
</g>
<!-- Node19 -->
<g id="node19" class="node"><title>Node19</title>
<g id="a_node19"><a xlink:title=" ">
<polygon fill="none" stroke="#bfbfbf" points="592,-112.5 592,-131.5 634,-131.5 634,-112.5 592,-112.5"/>
<text text-anchor="middle" x="613" y="-119.5" font-family="Helvetica,sans-Serif" font-size="10.00">vector</text>
</a>
</g>
</g>
<!-- Node18&#45;&gt;Node19 -->
<g id="edge26" class="edge"><title>Node18&#45;&gt;Node19</title>
<path fill="none" stroke="midnightblue" d="M607.156,-168.083C608.084,-160.927 609.418,-150.635 610.577,-141.691"/>
<polygon fill="midnightblue" stroke="midnightblue" points="614.051,-142.118 611.866,-131.751 607.109,-141.218 614.051,-142.118"/>
</g>
<!-- Node22 -->
<g id="node22" class="node"><title>Node22</title>
<g id="a_node22"><a xlink:href="packet_8h.html" target="_top" xlink:title=" ">
<polygon fill="none" stroke="black" points="858,-112.5 858,-131.5 912,-131.5 912,-112.5 858,-112.5"/>
<text text-anchor="middle" x="885" y="-119.5" font-family="Helvetica,sans-Serif" font-size="10.00">packet.h</text>
</a>
</g>
</g>
<!-- Node21&#45;&gt;Node22 -->
<g id="edge31" class="edge"><title>Node21&#45;&gt;Node22</title>
<path fill="none" stroke="midnightblue" d="M920.065,-168.083C914.071,-160.377 905.248,-149.033 897.952,-139.653"/>
<polygon fill="midnightblue" stroke="midnightblue" points="900.709,-137.496 891.806,-131.751 895.183,-141.793 900.709,-137.496"/>
</g>
<!-- Node22&#45;&gt;Node8 -->
<g id="edge32" class="edge"><title>Node22&#45;&gt;Node8</title>
<path fill="none" stroke="midnightblue" d="M857.861,-113.644C811.77,-101.233 715.192,-75.5703 633,-56 573.049,-41.7255 502.863,-26.7651 461.829,-18.1938"/>
<polygon fill="midnightblue" stroke="midnightblue" points="462.305,-14.7179 451.801,-16.1053 460.878,-21.5708 462.305,-14.7179"/>
</g>
<!-- Node23 -->
<g id="node23" class="node"><title>Node23</title>
<g id="a_node23"><a xlink:title=" ">
<polygon fill="none" stroke="#bfbfbf" points="823,-56.5 823,-75.5 877,-75.5 877,-56.5 823,-56.5"/>
<text text-anchor="middle" x="850" y="-63.5" font-family="Helvetica,sans-Serif" font-size="10.00">iostream</text>
</a>
</g>
</g>
<!-- Node22&#45;&gt;Node23 -->
<g id="edge33" class="edge"><title>Node22&#45;&gt;Node23</title>
<path fill="none" stroke="midnightblue" d="M879.22,-112.083C874.328,-104.534 867.173,-93.4948 861.167,-84.2298"/>
<polygon fill="midnightblue" stroke="midnightblue" points="864.048,-82.239 855.672,-75.7511 858.174,-86.0463 864.048,-82.239"/>
</g>
<!-- Node24 -->
<g id="node24" class="node"><title>Node24</title>
<g id="a_node24"><a xlink:title=" ">
<polygon fill="none" stroke="#bfbfbf" points="895,-56.5 895,-75.5 945,-75.5 945,-56.5 895,-56.5"/>
<text text-anchor="middle" x="920" y="-63.5" font-family="Helvetica,sans-Serif" font-size="10.00">iomanip</text>
</a>
</g>
</g>
<!-- Node22&#45;&gt;Node24 -->
<g id="edge34" class="edge"><title>Node22&#45;&gt;Node24</title>
<path fill="none" stroke="midnightblue" d="M890.78,-112.083C895.672,-104.534 902.827,-93.4948 908.833,-84.2298"/>
<polygon fill="midnightblue" stroke="midnightblue" points="911.826,-86.0463 914.328,-75.7511 905.952,-82.239 911.826,-86.0463"/>
</g>
</g>
</svg>
