<?xml version="1.0" encoding="UTF-8" standalone="no"?>
<!DOCTYPE svg PUBLIC "-//W3C//DTD SVG 1.1//EN"
 "http://www.w3.org/Graphics/SVG/1.1/DTD/svg11.dtd">
<!-- Generated by graphviz version 2.38.0 (20140413.2041)
 -->
<!-- Title: predictingweavertracker.h Pages: 1 -->
<svg width="1289pt" height="375pt"
 viewBox="0.00 0.00 1288.50 375.00" xmlns="http://www.w3.org/2000/svg" xmlns:xlink="http://www.w3.org/1999/xlink">
<g id="graph0" class="graph" transform="scale(1 1) rotate(0) translate(4 371)">
<title>predictingweavertracker.h</title>
<!-- Node1 -->
<g id="node1" class="node"><title>Node1</title>
<g id="a_node1"><a xlink:title=" ">
<polygon fill="#bfbfbf" stroke="black" points="936.5,-347.5 936.5,-366.5 1062.5,-366.5 1062.5,-347.5 936.5,-347.5"/>
<text text-anchor="middle" x="999.5" y="-354.5" font-family="Helvetica,sans-Serif" font-size="10.00">predictingweavertracker.h</text>
</a>
</g>
</g>
<!-- Node2 -->
<g id="node2" class="node"><title>Node2</title>
<g id="a_node2"><a xlink:href="weavertracker_8h.html" target="_top" xlink:title=" ">
<polygon fill="none" stroke="black" points="770.5,-280.5 770.5,-310.5 886.5,-310.5 886.5,-280.5 770.5,-280.5"/>
<text text-anchor="start" x="778.5" y="-298.5" font-family="Helvetica,sans-Serif" font-size="10.00">sr/sense/weavertracker</text>
<text text-anchor="middle" x="828.5" y="-287.5" font-family="Helvetica,sans-Serif" font-size="10.00">/weavertracker.h</text>
</a>
</g>
</g>
<!-- Node1&#45;&gt;Node2 -->
<g id="edge1" class="edge"><title>Node1&#45;&gt;Node2</title>
<path fill="none" stroke="midnightblue" d="M975,-347.475C949.892,-338.739 910.141,-324.907 878.377,-313.855"/>
<polygon fill="midnightblue" stroke="midnightblue" points="879.396,-310.504 868.801,-310.523 877.096,-317.115 879.396,-310.504"/>
</g>
<!-- Node24 -->
<g id="node24" class="node"><title>Node24</title>
<g id="a_node24"><a xlink:href="eyetracker_8h.html" target="_top" xlink:title=" ">
<polygon fill="none" stroke="black" points="948,-280.5 948,-310.5 1051,-310.5 1051,-280.5 948,-280.5"/>
<text text-anchor="start" x="956" y="-298.5" font-family="Helvetica,sans-Serif" font-size="10.00">sr/sense/eyetracker</text>
<text text-anchor="middle" x="999.5" y="-287.5" font-family="Helvetica,sans-Serif" font-size="10.00">/eyetracker.h</text>
</a>
</g>
</g>
<!-- Node1&#45;&gt;Node24 -->
<g id="edge34" class="edge"><title>Node1&#45;&gt;Node24</title>
<path fill="none" stroke="midnightblue" d="M999.5,-347.475C999.5,-340.471 999.5,-330.192 999.5,-320.696"/>
<polygon fill="midnightblue" stroke="midnightblue" points="1003,-320.523 999.5,-310.523 996,-320.523 1003,-320.523"/>
</g>
<!-- Node27 -->
<g id="node27" class="node"><title>Node27</title>
<g id="a_node27"><a xlink:href="eyepairlistener_8h.html" target="_top" xlink:title=" ">
<polygon fill="none" stroke="black" points="1192.5,-168.5 1192.5,-187.5 1280.5,-187.5 1280.5,-168.5 1192.5,-168.5"/>
<text text-anchor="middle" x="1236.5" y="-175.5" font-family="Helvetica,sans-Serif" font-size="10.00">eyepairlistener.h</text>
</a>
</g>
</g>
<!-- Node1&#45;&gt;Node27 -->
<g id="edge47" class="edge"><title>Node1&#45;&gt;Node27</title>
<path fill="none" stroke="midnightblue" d="M1022.73,-347.461C1062.47,-331.934 1144.33,-295.824 1197.5,-244 1211.45,-230.4 1222.31,-210.788 1228.99,-196.668"/>
<polygon fill="midnightblue" stroke="midnightblue" points="1232.19,-198.078 1233.1,-187.522 1225.81,-195.211 1232.19,-198.078"/>
</g>
<!-- Node3 -->
<g id="node3" class="node"><title>Node3</title>
<g id="a_node3"><a xlink:title=" ">
<polygon fill="none" stroke="#bfbfbf" points="879,-168.5 879,-187.5 914,-187.5 914,-168.5 879,-168.5"/>
<text text-anchor="middle" x="896.5" y="-175.5" font-family="Helvetica,sans-Serif" font-size="10.00">map</text>
</a>
</g>
</g>
<!-- Node2&#45;&gt;Node3 -->
<g id="edge2" class="edge"><title>Node2&#45;&gt;Node3</title>
<path fill="none" stroke="midnightblue" d="M836.838,-280.337C849.313,-259.149 872.807,-219.244 886.291,-196.34"/>
<polygon fill="midnightblue" stroke="midnightblue" points="889.338,-198.063 891.396,-187.669 883.306,-194.511 889.338,-198.063"/>
</g>
<!-- Node4 -->
<g id="node4" class="node"><title>Node4</title>
<g id="a_node4"><a xlink:title=" ">
<polygon fill="none" stroke="#bfbfbf" points="828.5,-112.5 828.5,-131.5 872.5,-131.5 872.5,-112.5 828.5,-112.5"/>
<text text-anchor="middle" x="850.5" y="-119.5" font-family="Helvetica,sans-Serif" font-size="10.00">thread</text>
</a>
</g>
</g>
<!-- Node2&#45;&gt;Node4 -->
<g id="edge3" class="edge"><title>Node2&#45;&gt;Node4</title>
<path fill="none" stroke="midnightblue" d="M830.3,-280.465C834.246,-249.704 843.659,-176.329 848.101,-141.7"/>
<polygon fill="midnightblue" stroke="midnightblue" points="851.601,-141.924 849.402,-131.56 844.658,-141.033 851.601,-141.924"/>
</g>
<!-- Node5 -->
<g id="node5" class="node"><title>Node5</title>
<g id="a_node5"><a xlink:title=" ">
<polygon fill="none" stroke="#bfbfbf" points="958.5,-112.5 958.5,-131.5 1002.5,-131.5 1002.5,-112.5 958.5,-112.5"/>
<text text-anchor="middle" x="980.5" y="-119.5" font-family="Helvetica,sans-Serif" font-size="10.00">mutex</text>
</a>
</g>
</g>
<!-- Node2&#45;&gt;Node5 -->
<g id="edge4" class="edge"><title>Node2&#45;&gt;Node5</title>
<path fill="none" stroke="midnightblue" d="M843.255,-280.214C853.382,-270.261 867.014,-256.568 878.5,-244 911.534,-207.852 948.011,-163.387 967.125,-139.707"/>
<polygon fill="midnightblue" stroke="midnightblue" points="970.017,-141.696 973.557,-131.71 964.563,-137.309 970.017,-141.696"/>
</g>
<!-- Node6 -->
<g id="node6" class="node"><title>Node6</title>
<g id="a_node6"><a xlink:href="weaverposition_8h.html" target="_top" xlink:title=" ">
<polygon fill="none" stroke="black" points="112.5,-112.5 112.5,-131.5 200.5,-131.5 200.5,-112.5 112.5,-112.5"/>
<text text-anchor="middle" x="156.5" y="-119.5" font-family="Helvetica,sans-Serif" font-size="10.00">weaverposition.h</text>
</a>
</g>
</g>
<!-- Node2&#45;&gt;Node6 -->
<g id="edge5" class="edge"><title>Node2&#45;&gt;Node6</title>
<path fill="none" stroke="midnightblue" d="M770.295,-290.113C634.131,-278.982 299.195,-246.304 204.5,-188 186.447,-176.885 172.981,-156.241 164.978,-141.192"/>
<polygon fill="midnightblue" stroke="midnightblue" points="167.915,-139.24 160.32,-131.854 161.651,-142.364 167.915,-139.24"/>
</g>
<!-- Node9 -->
<g id="node9" class="node"><title>Node9</title>
<g id="a_node9"><a xlink:href="weaverpositionstream_8h.html" target="_top" xlink:title=" ">
<polygon fill="none" stroke="black" points="39.5,-224.5 39.5,-243.5 157.5,-243.5 157.5,-224.5 39.5,-224.5"/>
<text text-anchor="middle" x="98.5" y="-231.5" font-family="Helvetica,sans-Serif" font-size="10.00">weaverpositionstream.h</text>
</a>
</g>
</g>
<!-- Node2&#45;&gt;Node9 -->
<g id="edge9" class="edge"><title>Node2&#45;&gt;Node9</title>
<path fill="none" stroke="midnightblue" d="M770.416,-290.935C655.767,-283.7 392.332,-266.088 171.5,-244 170.388,-243.889 169.267,-243.775 168.139,-243.658"/>
<polygon fill="midnightblue" stroke="midnightblue" points="168.154,-240.139 157.837,-242.547 167.404,-247.099 168.154,-240.139"/>
</g>
<!-- Node11 -->
<g id="node11" class="node"><title>Node11</title>
<g id="a_node11"><a xlink:href="srcontext_8h.html" target="_top" xlink:title=" ">
<polygon fill="none" stroke="black" points="589.5,-224.5 589.5,-243.5 725.5,-243.5 725.5,-224.5 589.5,-224.5"/>
<text text-anchor="middle" x="657.5" y="-231.5" font-family="Helvetica,sans-Serif" font-size="10.00">sr/management/srcontext.h</text>
</a>
</g>
</g>
<!-- Node2&#45;&gt;Node11 -->
<g id="edge13" class="edge"><title>Node2&#45;&gt;Node11</title>
<path fill="none" stroke="midnightblue" d="M787.975,-280.399C758.772,-270.238 719.783,-256.672 692.051,-247.022"/>
<polygon fill="midnightblue" stroke="midnightblue" points="692.977,-243.639 682.382,-243.658 690.676,-250.25 692.977,-243.639"/>
</g>
<!-- Node7 -->
<g id="node7" class="node"><title>Node7</title>
<g id="a_node7"><a xlink:href="types_8h.html" target="_top" xlink:title=" ">
<polygon fill="none" stroke="black" points="484.5,-56.5 484.5,-75.5 544.5,-75.5 544.5,-56.5 484.5,-56.5"/>
<text text-anchor="middle" x="514.5" y="-63.5" font-family="Helvetica,sans-Serif" font-size="10.00">sr/types.h</text>
</a>
</g>
</g>
<!-- Node6&#45;&gt;Node7 -->
<g id="edge6" class="edge"><title>Node6&#45;&gt;Node7</title>
<path fill="none" stroke="midnightblue" d="M200.555,-116.01C260.35,-108.969 370.717,-95.0193 474.318,-76.0844"/>
<polygon fill="midnightblue" stroke="midnightblue" points="475.123,-79.495 484.32,-74.2365 473.851,-72.6115 475.123,-79.495"/>
</g>
<!-- Node8 -->
<g id="node8" class="node"><title>Node8</title>
<g id="a_node8"><a xlink:title=" ">
<polygon fill="none" stroke="#bfbfbf" points="400,-0.5 400,-19.5 449,-19.5 449,-0.5 400,-0.5"/>
<text text-anchor="middle" x="424.5" y="-7.5" font-family="Helvetica,sans-Serif" font-size="10.00">stdint.h</text>
</a>
</g>
</g>
<!-- Node6&#45;&gt;Node8 -->
<g id="edge8" class="edge"><title>Node6&#45;&gt;Node8</title>
<path fill="none" stroke="midnightblue" d="M156.338,-112.359C156.579,-98.3113 159.243,-70.6254 175.5,-56 206.54,-28.0759 328.769,-16.81 389.653,-12.8598"/>
<polygon fill="midnightblue" stroke="midnightblue" points="390.158,-16.3354 399.923,-12.2254 389.726,-9.34874 390.158,-16.3354"/>
</g>
<!-- Node7&#45;&gt;Node8 -->
<g id="edge7" class="edge"><title>Node7&#45;&gt;Node8</title>
<path fill="none" stroke="midnightblue" d="M500.04,-56.324C486,-47.9002 464.452,-34.9709 447.957,-25.0741"/>
<polygon fill="midnightblue" stroke="midnightblue" points="449.3,-21.7983 438.924,-19.6545 445.698,-27.8007 449.3,-21.7983"/>
</g>
<!-- Node9&#45;&gt;Node6 -->
<g id="edge10" class="edge"><title>Node9&#45;&gt;Node6</title>
<path fill="none" stroke="midnightblue" d="M104.69,-224.279C110.863,-215.387 120.422,-201.078 127.5,-188 135.853,-172.565 143.864,-154.249 149.341,-141"/>
<polygon fill="midnightblue" stroke="midnightblue" points="152.634,-142.195 153.149,-131.613 146.147,-139.564 152.634,-142.195"/>
</g>
<!-- Node10 -->
<g id="node10" class="node"><title>Node10</title>
<g id="a_node10"><a xlink:href="weaverpositionlistener_8h.html" target="_top" xlink:title=" ">
<polygon fill="none" stroke="black" points="0,-168.5 0,-187.5 119,-187.5 119,-168.5 0,-168.5"/>
<text text-anchor="middle" x="59.5" y="-175.5" font-family="Helvetica,sans-Serif" font-size="10.00">weaverpositionlistener.h</text>
</a>
</g>
</g>
<!-- Node9&#45;&gt;Node10 -->
<g id="edge11" class="edge"><title>Node9&#45;&gt;Node10</title>
<path fill="none" stroke="midnightblue" d="M92.0599,-224.083C86.5511,-216.455 78.4688,-205.264 71.735,-195.941"/>
<polygon fill="midnightblue" stroke="midnightblue" points="74.5126,-193.809 65.8202,-187.751 68.8378,-197.907 74.5126,-193.809"/>
</g>
<!-- Node10&#45;&gt;Node6 -->
<g id="edge12" class="edge"><title>Node10&#45;&gt;Node6</title>
<path fill="none" stroke="midnightblue" d="M75.0847,-168.324C90.4991,-159.743 114.312,-146.486 132.21,-136.522"/>
<polygon fill="midnightblue" stroke="midnightblue" points="133.919,-139.577 140.954,-131.655 130.514,-133.461 133.919,-139.577"/>
</g>
<!-- Node11&#45;&gt;Node3 -->
<g id="edge15" class="edge"><title>Node11&#45;&gt;Node3</title>
<path fill="none" stroke="midnightblue" d="M695.37,-224.444C743.664,-213.532 826.029,-194.922 868.833,-185.251"/>
<polygon fill="midnightblue" stroke="midnightblue" points="869.835,-188.613 878.818,-182.995 868.293,-181.785 869.835,-188.613"/>
</g>
<!-- Node12 -->
<g id="node12" class="node"><title>Node12</title>
<g id="a_node12"><a xlink:title=" ">
<polygon fill="none" stroke="#bfbfbf" points="547,-112.5 547,-131.5 588,-131.5 588,-112.5 547,-112.5"/>
<text text-anchor="middle" x="567.5" y="-119.5" font-family="Helvetica,sans-Serif" font-size="10.00">string</text>
</a>
</g>
</g>
<!-- Node11&#45;&gt;Node12 -->
<g id="edge14" class="edge"><title>Node11&#45;&gt;Node12</title>
<path fill="none" stroke="midnightblue" d="M589.231,-228.21C562.068,-222.55 533.325,-211.031 516.5,-188 503.439,-170.122 524.671,-150.172 543.589,-137.148"/>
<polygon fill="midnightblue" stroke="midnightblue" points="545.514,-140.071 551.987,-131.684 541.696,-134.204 545.514,-140.071"/>
</g>
<!-- Node13 -->
<g id="node13" class="node"><title>Node13</title>
<g id="a_node13"><a xlink:href="sense_8h.html" target="_top" xlink:title=" ">
<polygon fill="none" stroke="black" points="526,-168.5 526,-187.5 639,-187.5 639,-168.5 526,-168.5"/>
<text text-anchor="middle" x="582.5" y="-175.5" font-family="Helvetica,sans-Serif" font-size="10.00">sr/sense/core/sense.h</text>
</a>
</g>
</g>
<!-- Node11&#45;&gt;Node13 -->
<g id="edge16" class="edge"><title>Node11&#45;&gt;Node13</title>
<path fill="none" stroke="midnightblue" d="M645.45,-224.324C634.037,-216.107 616.669,-203.602 603.065,-193.807"/>
<polygon fill="midnightblue" stroke="midnightblue" points="604.93,-190.837 594.769,-187.834 600.84,-196.517 604.93,-190.837"/>
</g>
<!-- Node17 -->
<g id="node17" class="node"><title>Node17</title>
<g id="a_node17"><a xlink:href="worldobject_8h.html" target="_top" xlink:title=" ">
<polygon fill="none" stroke="black" points="359.5,-168.5 359.5,-187.5 469.5,-187.5 469.5,-168.5 359.5,-168.5"/>
<text text-anchor="middle" x="414.5" y="-175.5" font-family="Helvetica,sans-Serif" font-size="10.00">sr/world/worldobject.h</text>
</a>
</g>
</g>
<!-- Node11&#45;&gt;Node17 -->
<g id="edge24" class="edge"><title>Node11&#45;&gt;Node17</title>
<path fill="none" stroke="midnightblue" d="M618.996,-224.444C576.694,-215.043 508.681,-199.929 462.827,-189.739"/>
<polygon fill="midnightblue" stroke="midnightblue" points="463.345,-186.269 452.824,-187.516 461.827,-193.102 463.345,-186.269"/>
</g>
<!-- Node19 -->
<g id="node19" class="node"><title>Node19</title>
<g id="a_node19"><a xlink:href="networkinterface_8h.html" target="_top" xlink:title=" ">
<polygon fill="none" stroke="black" points="657,-168.5 657,-187.5 822,-187.5 822,-168.5 657,-168.5"/>
<text text-anchor="middle" x="739.5" y="-175.5" font-family="Helvetica,sans-Serif" font-size="10.00">sr/network/core/networkinterface.h</text>
</a>
</g>
</g>
<!-- Node11&#45;&gt;Node19 -->
<g id="edge28" class="edge"><title>Node11&#45;&gt;Node19</title>
<path fill="none" stroke="midnightblue" d="M670.675,-224.324C683.347,-215.979 702.733,-203.212 717.706,-193.352"/>
<polygon fill="midnightblue" stroke="midnightblue" points="719.931,-196.078 726.358,-187.655 716.081,-190.231 719.931,-196.078"/>
</g>
<!-- Node20 -->
<g id="node20" class="node"><title>Node20</title>
<g id="a_node20"><a xlink:href="receiver_8h.html" target="_top" xlink:title=" ">
<polygon fill="none" stroke="black" points="213.5,-168.5 213.5,-187.5 341.5,-187.5 341.5,-168.5 213.5,-168.5"/>
<text text-anchor="middle" x="277.5" y="-175.5" font-family="Helvetica,sans-Serif" font-size="10.00">sr/network/core/receiver.h</text>
</a>
</g>
</g>
<!-- Node11&#45;&gt;Node20 -->
<g id="edge29" class="edge"><title>Node11&#45;&gt;Node20</title>
<path fill="none" stroke="midnightblue" d="M597.288,-224.444C529.469,-214.806 419.391,-199.163 347.717,-188.978"/>
<polygon fill="midnightblue" stroke="midnightblue" points="347.823,-185.458 337.43,-187.516 346.839,-192.389 347.823,-185.458"/>
</g>
<!-- Node13&#45;&gt;Node4 -->
<g id="edge19" class="edge"><title>Node13&#45;&gt;Node4</title>
<path fill="none" stroke="midnightblue" d="M624.965,-168.444C678.73,-157.61 770.154,-139.189 818.435,-129.461"/>
<polygon fill="midnightblue" stroke="midnightblue" points="819.223,-132.873 828.334,-127.466 817.84,-126.011 819.223,-132.873"/>
</g>
<!-- Node13&#45;&gt;Node5 -->
<g id="edge20" class="edge"><title>Node13&#45;&gt;Node5</title>
<path fill="none" stroke="midnightblue" d="M639.219,-169.136C642.019,-168.751 644.791,-168.371 647.5,-168 757.686,-152.927 888.427,-135.349 948.008,-127.355"/>
<polygon fill="midnightblue" stroke="midnightblue" points="948.838,-130.775 958.284,-125.977 947.907,-123.837 948.838,-130.775"/>
</g>
<!-- Node13&#45;&gt;Node12 -->
<g id="edge17" class="edge"><title>Node13&#45;&gt;Node12</title>
<path fill="none" stroke="midnightblue" d="M580.023,-168.083C578.014,-160.849 575.114,-150.409 572.61,-141.397"/>
<polygon fill="midnightblue" stroke="midnightblue" points="575.98,-140.449 569.931,-131.751 569.235,-142.323 575.98,-140.449"/>
</g>
<!-- Node14 -->
<g id="node14" class="node"><title>Node14</title>
<g id="a_node14"><a xlink:title=" ">
<polygon fill="none" stroke="#bfbfbf" points="606.5,-112.5 606.5,-131.5 652.5,-131.5 652.5,-112.5 606.5,-112.5"/>
<text text-anchor="middle" x="629.5" y="-119.5" font-family="Helvetica,sans-Serif" font-size="10.00">chrono</text>
</a>
</g>
</g>
<!-- Node13&#45;&gt;Node14 -->
<g id="edge18" class="edge"><title>Node13&#45;&gt;Node14</title>
<path fill="none" stroke="midnightblue" d="M590.261,-168.083C597.037,-160.298 607.043,-148.801 615.255,-139.367"/>
<polygon fill="midnightblue" stroke="midnightblue" points="617.958,-141.592 621.883,-131.751 612.678,-136.996 617.958,-141.592"/>
</g>
<!-- Node15 -->
<g id="node15" class="node"><title>Node15</title>
<g id="a_node15"><a xlink:href="transformation_8h.html" target="_top" xlink:title=" ">
<polygon fill="none" stroke="black" points="442.5,-112.5 442.5,-131.5 528.5,-131.5 528.5,-112.5 442.5,-112.5"/>
<text text-anchor="middle" x="485.5" y="-119.5" font-family="Helvetica,sans-Serif" font-size="10.00">transformation.h</text>
</a>
</g>
</g>
<!-- Node13&#45;&gt;Node15 -->
<g id="edge21" class="edge"><title>Node13&#45;&gt;Node15</title>
<path fill="none" stroke="midnightblue" d="M566.915,-168.324C551.501,-159.743 527.688,-146.486 509.79,-136.522"/>
<polygon fill="midnightblue" stroke="midnightblue" points="511.486,-133.461 501.046,-131.655 508.081,-139.577 511.486,-133.461"/>
</g>
<!-- Node15&#45;&gt;Node7 -->
<g id="edge23" class="edge"><title>Node15&#45;&gt;Node7</title>
<path fill="none" stroke="midnightblue" d="M490.289,-112.083C494.258,-104.691 500.025,-93.9533 504.935,-84.8111"/>
<polygon fill="midnightblue" stroke="midnightblue" points="508.153,-86.217 509.8,-75.7511 501.986,-82.9051 508.153,-86.217"/>
</g>
<!-- Node16 -->
<g id="node16" class="node"><title>Node16</title>
<g id="a_node16"><a xlink:title=" ">
<polygon fill="none" stroke="#bfbfbf" points="362.5,-56.5 362.5,-75.5 466.5,-75.5 466.5,-56.5 362.5,-56.5"/>
<text text-anchor="middle" x="414.5" y="-63.5" font-family="Helvetica,sans-Serif" font-size="10.00">opencv2/opencv.hpp</text>
</a>
</g>
</g>
<!-- Node15&#45;&gt;Node16 -->
<g id="edge22" class="edge"><title>Node15&#45;&gt;Node16</title>
<path fill="none" stroke="midnightblue" d="M474.093,-112.324C463.391,-104.185 447.159,-91.8395 434.337,-82.0874"/>
<polygon fill="midnightblue" stroke="midnightblue" points="436.193,-79.1018 426.115,-75.8339 431.956,-84.6734 436.193,-79.1018"/>
</g>
<!-- Node17&#45;&gt;Node15 -->
<g id="edge27" class="edge"><title>Node17&#45;&gt;Node15</title>
<path fill="none" stroke="midnightblue" d="M425.907,-168.324C436.609,-160.185 452.841,-147.839 465.663,-138.087"/>
<polygon fill="midnightblue" stroke="midnightblue" points="468.044,-140.673 473.885,-131.834 463.807,-135.102 468.044,-140.673"/>
</g>
<!-- Node17&#45;&gt;Node16 -->
<g id="edge26" class="edge"><title>Node17&#45;&gt;Node16</title>
<path fill="none" stroke="midnightblue" d="M414.5,-168.368C414.5,-150.617 414.5,-109.666 414.5,-85.5974"/>
<polygon fill="midnightblue" stroke="midnightblue" points="418,-85.5914 414.5,-75.5914 411,-85.5915 418,-85.5914"/>
</g>
<!-- Node18 -->
<g id="node18" class="node"><title>Node18</title>
<g id="a_node18"><a xlink:title=" ">
<polygon fill="none" stroke="#bfbfbf" points="344.5,-112.5 344.5,-131.5 386.5,-131.5 386.5,-112.5 344.5,-112.5"/>
<text text-anchor="middle" x="365.5" y="-119.5" font-family="Helvetica,sans-Serif" font-size="10.00">vector</text>
</a>
</g>
</g>
<!-- Node17&#45;&gt;Node18 -->
<g id="edge25" class="edge"><title>Node17&#45;&gt;Node18</title>
<path fill="none" stroke="midnightblue" d="M406.409,-168.083C399.345,-160.298 388.912,-148.801 380.351,-139.367"/>
<polygon fill="midnightblue" stroke="midnightblue" points="382.753,-136.805 373.441,-131.751 377.569,-141.509 382.753,-136.805"/>
</g>
<!-- Node21 -->
<g id="node21" class="node"><title>Node21</title>
<g id="a_node21"><a xlink:href="packet_8h.html" target="_top" xlink:title=" ">
<polygon fill="none" stroke="black" points="252.5,-112.5 252.5,-131.5 306.5,-131.5 306.5,-112.5 252.5,-112.5"/>
<text text-anchor="middle" x="279.5" y="-119.5" font-family="Helvetica,sans-Serif" font-size="10.00">packet.h</text>
</a>
</g>
</g>
<!-- Node20&#45;&gt;Node21 -->
<g id="edge30" class="edge"><title>Node20&#45;&gt;Node21</title>
<path fill="none" stroke="midnightblue" d="M277.83,-168.083C278.092,-161.006 278.468,-150.861 278.797,-141.986"/>
<polygon fill="midnightblue" stroke="midnightblue" points="282.303,-141.874 279.176,-131.751 275.308,-141.615 282.303,-141.874"/>
</g>
<!-- Node21&#45;&gt;Node8 -->
<g id="edge31" class="edge"><title>Node21&#45;&gt;Node8</title>
<path fill="none" stroke="midnightblue" d="M288.68,-112.094C302.288,-99.0902 328.864,-74.4508 353.5,-56 368.64,-44.6614 386.648,-33.2693 400.74,-24.7842"/>
<polygon fill="midnightblue" stroke="midnightblue" points="402.558,-27.7758 409.366,-19.6579 398.981,-21.7583 402.558,-27.7758"/>
</g>
<!-- Node22 -->
<g id="node22" class="node"><title>Node22</title>
<g id="a_node22"><a xlink:title=" ">
<polygon fill="none" stroke="#bfbfbf" points="184.5,-56.5 184.5,-75.5 238.5,-75.5 238.5,-56.5 184.5,-56.5"/>
<text text-anchor="middle" x="211.5" y="-63.5" font-family="Helvetica,sans-Serif" font-size="10.00">iostream</text>
</a>
</g>
</g>
<!-- Node21&#45;&gt;Node22 -->
<g id="edge32" class="edge"><title>Node21&#45;&gt;Node22</title>
<path fill="none" stroke="midnightblue" d="M268.575,-112.324C258.325,-104.185 242.779,-91.8395 230.499,-82.0874"/>
<polygon fill="midnightblue" stroke="midnightblue" points="232.632,-79.3119 222.624,-75.8339 228.279,-84.7937 232.632,-79.3119"/>
</g>
<!-- Node23 -->
<g id="node23" class="node"><title>Node23</title>
<g id="a_node23"><a xlink:title=" ">
<polygon fill="none" stroke="#bfbfbf" points="256.5,-56.5 256.5,-75.5 306.5,-75.5 306.5,-56.5 256.5,-56.5"/>
<text text-anchor="middle" x="281.5" y="-63.5" font-family="Helvetica,sans-Serif" font-size="10.00">iomanip</text>
</a>
</g>
</g>
<!-- Node21&#45;&gt;Node23 -->
<g id="edge33" class="edge"><title>Node21&#45;&gt;Node23</title>
<path fill="none" stroke="midnightblue" d="M279.83,-112.083C280.092,-105.006 280.468,-94.8611 280.797,-85.9865"/>
<polygon fill="midnightblue" stroke="midnightblue" points="284.303,-85.8738 281.176,-75.7511 277.308,-85.6147 284.303,-85.8738"/>
</g>
<!-- Node24&#45;&gt;Node3 -->
<g id="edge35" class="edge"><title>Node24&#45;&gt;Node3</title>
<path fill="none" stroke="midnightblue" d="M986.87,-280.337C967.722,-258.865 931.432,-218.172 911.151,-195.429"/>
<polygon fill="midnightblue" stroke="midnightblue" points="913.499,-192.803 904.231,-187.669 908.275,-197.462 913.499,-192.803"/>
</g>
<!-- Node24&#45;&gt;Node4 -->
<g id="edge36" class="edge"><title>Node24&#45;&gt;Node4</title>
<path fill="none" stroke="midnightblue" d="M993.801,-280.368C983.057,-255.154 957.685,-201.887 922.5,-168 909.262,-155.25 891.839,-144.245 877.448,-136.31"/>
<polygon fill="midnightblue" stroke="midnightblue" points="878.976,-133.158 868.503,-131.551 875.688,-139.338 878.976,-133.158"/>
</g>
<!-- Node24&#45;&gt;Node5 -->
<g id="edge37" class="edge"><title>Node24&#45;&gt;Node5</title>
<path fill="none" stroke="midnightblue" d="M1000.14,-280.335C1000.93,-256.811 1001.44,-208.288 994.5,-168 992.955,-159.03 990.109,-149.358 987.384,-141.288"/>
<polygon fill="midnightblue" stroke="midnightblue" points="990.653,-140.035 983.992,-131.796 984.062,-142.39 990.653,-140.035"/>
</g>
<!-- Node24&#45;&gt;Node11 -->
<g id="edge46" class="edge"><title>Node24&#45;&gt;Node11</title>
<path fill="none" stroke="midnightblue" d="M947.929,-285.528C885.846,-274.727 781.813,-256.628 716.564,-245.276"/>
<polygon fill="midnightblue" stroke="midnightblue" points="716.889,-241.78 706.437,-243.514 715.689,-248.676 716.889,-241.78"/>
</g>
<!-- Node25 -->
<g id="node25" class="node"><title>Node25</title>
<g id="a_node25"><a xlink:href="eyepair_8h.html" target="_top" xlink:title=" ">
<polygon fill="none" stroke="black" points="1028.5,-112.5 1028.5,-131.5 1084.5,-131.5 1084.5,-112.5 1028.5,-112.5"/>
<text text-anchor="middle" x="1056.5" y="-119.5" font-family="Helvetica,sans-Serif" font-size="10.00">eyepair.h</text>
</a>
</g>
</g>
<!-- Node24&#45;&gt;Node25 -->
<g id="edge38" class="edge"><title>Node24&#45;&gt;Node25</title>
<path fill="none" stroke="midnightblue" d="M1004.16,-280.465C1014.43,-249.57 1038.99,-175.69 1050.43,-141.251"/>
<polygon fill="midnightblue" stroke="midnightblue" points="1053.82,-142.153 1053.66,-131.56 1047.18,-139.945 1053.82,-142.153"/>
</g>
<!-- Node26 -->
<g id="node26" class="node"><title>Node26</title>
<g id="a_node26"><a xlink:href="eyepairstream_8h.html" target="_top" xlink:title=" ">
<polygon fill="none" stroke="black" points="1102.5,-224.5 1102.5,-243.5 1188.5,-243.5 1188.5,-224.5 1102.5,-224.5"/>
<text text-anchor="middle" x="1145.5" y="-231.5" font-family="Helvetica,sans-Serif" font-size="10.00">eyepairstream.h</text>
</a>
</g>
</g>
<!-- Node24&#45;&gt;Node26 -->
<g id="edge41" class="edge"><title>Node24&#45;&gt;Node26</title>
<path fill="none" stroke="midnightblue" d="M1034.1,-280.399C1058.6,-270.416 1091.16,-257.147 1114.75,-247.534"/>
<polygon fill="midnightblue" stroke="midnightblue" points="1116.32,-250.673 1124.26,-243.658 1113.67,-244.191 1116.32,-250.673"/>
</g>
<!-- Node25&#45;&gt;Node7 -->
<g id="edge39" class="edge"><title>Node25&#45;&gt;Node7</title>
<path fill="none" stroke="midnightblue" d="M1028.49,-114.917C1022.89,-113.835 1017.02,-112.799 1011.5,-112 842.731,-87.5544 639.676,-74.0974 554.829,-69.1828"/>
<polygon fill="midnightblue" stroke="midnightblue" points="554.786,-65.6748 544.603,-68.5989 554.387,-72.6634 554.786,-65.6748"/>
</g>
<!-- Node25&#45;&gt;Node8 -->
<g id="edge40" class="edge"><title>Node25&#45;&gt;Node8</title>
<path fill="none" stroke="midnightblue" d="M1028.44,-115.266C1022.83,-114.155 1016.98,-113.02 1011.5,-112 802.226,-73.0759 549.966,-31.4453 459.162,-16.6282"/>
<polygon fill="midnightblue" stroke="midnightblue" points="459.581,-13.1504 449.148,-14.9961 458.454,-20.0592 459.581,-13.1504"/>
</g>
<!-- Node26&#45;&gt;Node25 -->
<g id="edge42" class="edge"><title>Node26&#45;&gt;Node25</title>
<path fill="none" stroke="midnightblue" d="M1148.2,-224.232C1151.72,-210.967 1156.26,-185.495 1145.5,-168 1134.3,-149.789 1113.2,-138.676 1094.35,-132.051"/>
<polygon fill="midnightblue" stroke="midnightblue" points="1095.36,-128.699 1084.77,-128.982 1093.23,-135.365 1095.36,-128.699"/>
</g>
<!-- Node26&#45;&gt;Node27 -->
<g id="edge43" class="edge"><title>Node26&#45;&gt;Node27</title>
<path fill="none" stroke="midnightblue" d="M1160.12,-224.324C1174.45,-215.822 1196.51,-202.729 1213.25,-192.797"/>
<polygon fill="midnightblue" stroke="midnightblue" points="1215.1,-195.768 1221.92,-187.655 1211.53,-189.748 1215.1,-195.768"/>
</g>
<!-- Node28 -->
<g id="node28" class="node"><title>Node28</title>
<g id="a_node28"><a xlink:title=" ">
<polygon fill="none" stroke="#bfbfbf" points="1084.5,-168.5 1084.5,-187.5 1136.5,-187.5 1136.5,-168.5 1084.5,-168.5"/>
<text text-anchor="middle" x="1110.5" y="-175.5" font-family="Helvetica,sans-Serif" font-size="10.00">memory</text>
</a>
</g>
</g>
<!-- Node26&#45;&gt;Node28 -->
<g id="edge45" class="edge"><title>Node26&#45;&gt;Node28</title>
<path fill="none" stroke="midnightblue" d="M1139.72,-224.083C1134.83,-216.534 1127.67,-205.495 1121.67,-196.23"/>
<polygon fill="midnightblue" stroke="midnightblue" points="1124.55,-194.239 1116.17,-187.751 1118.67,-198.046 1124.55,-194.239"/>
</g>
<!-- Node27&#45;&gt;Node25 -->
<g id="edge44" class="edge"><title>Node27&#45;&gt;Node25</title>
<path fill="none" stroke="midnightblue" d="M1207.98,-168.444C1177.34,-159.253 1128.51,-144.602 1094.6,-134.43"/>
<polygon fill="midnightblue" stroke="midnightblue" points="1095.18,-130.949 1084.59,-131.428 1093.16,-137.653 1095.18,-130.949"/>
</g>
</g>
</svg>
