<?xml version="1.0" encoding="UTF-8" standalone="no"?><svg xmlns="http://www.w3.org/2000/svg" xmlns:xlink="http://www.w3.org/1999/xlink" contentScriptType="application/ecmascript" contentStyleType="text/css" height="546px" preserveAspectRatio="none" style="width:470px;height:546px;" version="1.1" viewBox="0 0 470 546" width="470px" zoomAndPan="magnify"><defs><filter height="300%" id="fdh8flqy2nm1d" width="300%" x="-1" y="-1"><feGaussianBlur result="blurOut" stdDeviation="2.0"/><feColorMatrix in="blurOut" result="blurOut2" type="matrix" values="0 0 0 0 0 0 0 0 0 0 0 0 0 0 0 0 0 0 .4 0"/><feOffset dx="4.0" dy="4.0" in="blurOut2" result="blurOut3"/><feBlend in="SourceGraphic" in2="blurOut3" mode="normal"/></filter></defs><g><!--MD5=[50d3fe0b70dee75413f2a24abb80281c]
class EyeTracker--><rect codeLine="2" fill="#FEFECE" filter="url(#fdh8flqy2nm1d)" height="89.5078" id="EyeTracker" style="stroke:#A80036;stroke-width:1.5;" width="207" x="65.5" y="157"/><ellipse cx="133.25" cy="173" fill="#B4A7E5" rx="11" ry="11" style="stroke:#A80036;stroke-width:1.0;"/><path d="M134.2031,169.6406 L134.2031,176.2969 L135.9219,176.2969 Q136.5313,176.2969 136.7969,176.5313 Q137.0625,176.7656 137.0625,177.1563 Q137.0625,177.5313 136.7969,177.7656 Q136.5313,178 135.9219,178 L130.7813,178 Q130.1719,178 129.9063,177.7656 Q129.6406,177.5313 129.6406,177.1406 Q129.6406,176.7656 129.9063,176.5313 Q130.1719,176.2969 130.7813,176.2969 L132.5,176.2969 L132.5,169.6406 L130.7813,169.6406 Q130.1719,169.6406 129.9063,169.4063 Q129.6406,169.1719 129.6406,168.7813 Q129.6406,168.4063 129.9063,168.1719 Q130.1719,167.9375 130.7813,167.9375 L135.9219,167.9375 Q136.5313,167.9375 136.7969,168.1719 Q137.0625,168.4063 137.0625,168.7813 Q137.0625,169.1719 136.7969,169.4063 Q136.5313,169.6406 135.9219,169.6406 L134.2031,169.6406 Z " fill="#000000"/><text fill="#000000" font-family="sans-serif" font-size="12" font-style="italic" lengthAdjust="spacing" textLength="63" x="153.75" y="177.9102">EyeTracker</text><line style="stroke:#A80036;stroke-width:1.5;" x1="66.5" x2="271.5" y1="189" y2="189"/><line style="stroke:#A80036;stroke-width:1.5;" x1="66.5" x2="271.5" y1="197" y2="197"/><ellipse cx="76.5" cy="208" fill="#84BE84" rx="3" ry="3" style="stroke:#038048;stroke-width:1.0;"/><text fill="#000000" font-family="sans-serif" font-size="11" lengthAdjust="spacing" text-decoration="underline" textLength="101" x="85.5" y="212.4189">EyeTracker* create()</text><ellipse cx="76.5" cy="221.8359" fill="#84BE84" rx="3" ry="3" style="stroke:#038048;stroke-width:1.0;"/><text fill="#000000" font-family="sans-serif" font-size="11" font-style="italic" lengthAdjust="spacing" textLength="181" x="85.5" y="226.2549">EyePairStream openEyePairStream()</text><ellipse cx="76.5" cy="235.6719" fill="#84BE84" rx="3" ry="3" style="stroke:#038048;stroke-width:1.0;"/><text fill="#000000" font-family="sans-serif" font-size="11" font-style="italic" lengthAdjust="spacing" textLength="173" x="85.5" y="240.0908">void streamClosed(EyePairStream)</text><!--MD5=[8de22734af2210ba6794a57a35526c3b]
class EyePairStream--><rect codeLine="8" fill="#FEFECE" filter="url(#fdh8flqy2nm1d)" height="89.5078" id="EyePairStream" style="stroke:#A80036;stroke-width:1.5;" width="145" x="202.5" y="7"/><ellipse cx="231.45" cy="23" fill="#ADD1B2" rx="11" ry="11" style="stroke:#A80036;stroke-width:1.0;"/><path d="M234.2156,18.875 Q234.3719,18.6563 234.5594,18.5469 Q234.7469,18.4375 234.9656,18.4375 Q235.3406,18.4375 235.575,18.6953 Q235.8094,18.9531 235.8094,19.5625 L235.8094,21.0156 Q235.8094,21.625 235.575,21.8906 Q235.3406,22.1563 234.9656,22.1563 Q234.6219,22.1563 234.4188,21.9531 Q234.2156,21.7656 234.1063,21.25 Q234.0594,20.8906 233.8719,20.7031 Q233.5438,20.3281 232.9344,20.1094 Q232.325,19.8906 231.7,19.8906 Q230.9344,19.8906 230.3016,20.2188 Q229.6688,20.5469 229.1766,21.2969 Q228.6844,22.0469 228.6844,23.0781 L228.6844,24.1719 Q228.6844,25.4063 229.575,26.2266 Q230.4656,27.0469 232.0594,27.0469 Q232.9969,27.0469 233.6531,26.7969 Q234.0438,26.6406 234.4656,26.2031 Q234.7313,25.9375 234.8797,25.8594 Q235.0281,25.7813 235.2313,25.7813 Q235.5594,25.7813 235.8172,26.0391 Q236.075,26.2969 236.075,26.6406 Q236.075,26.9844 235.7313,27.3906 Q235.2313,27.9688 234.4344,28.2969 Q233.3563,28.75 232.0594,28.75 Q230.5438,28.75 229.3406,28.125 Q228.3563,27.625 227.6688,26.5547 Q226.9813,25.4844 226.9813,24.2031 L226.9813,23.0469 Q226.9813,21.7188 227.5984,20.5703 Q228.2156,19.4219 229.3094,18.8047 Q230.4031,18.1875 231.6375,18.1875 Q232.3719,18.1875 233.0203,18.3516 Q233.6688,18.5156 234.2156,18.875 Z " fill="#000000"/><text fill="#000000" font-family="sans-serif" font-size="12" lengthAdjust="spacing" textLength="82" x="248.55" y="27.9102">EyePairStream</text><line style="stroke:#A80036;stroke-width:1.5;" x1="203.5" x2="346.5" y1="39" y2="39"/><rect fill="none" height="6" style="stroke:#C82930;stroke-width:1.0;" width="6" x="210.5" y="47"/><text fill="#000000" font-family="sans-serif" font-size="11" lengthAdjust="spacing" textLength="98" x="222.5" y="54.4189">sender : EyeTracker</text><rect fill="none" height="6" style="stroke:#C82930;stroke-width:1.0;" width="6" x="210.5" y="60.8359"/><text fill="#000000" font-family="sans-serif" font-size="11" lengthAdjust="spacing" textLength="119" x="222.5" y="68.2549">listener : EyePairListener</text><line style="stroke:#A80036;stroke-width:1.5;" x1="203.5" x2="346.5" y1="74.6719" y2="74.6719"/><ellipse cx="213.5" cy="85.6719" fill="#84BE84" rx="3" ry="3" style="stroke:#038048;stroke-width:1.0;"/><text fill="#000000" font-family="sans-serif" font-size="11" lengthAdjust="spacing" textLength="97" x="222.5" y="90.0908">update(SR_eyePair)</text><!--MD5=[ef0f185e0fc4e6775fba50fb0281c545]
class EyePairListener--><rect codeLine="21" fill="#FEFECE" filter="url(#fdh8flqy2nm1d)" height="61.8359" id="EyePairListener" style="stroke:#A80036;stroke-width:1.5;" width="148" x="308" y="171"/><ellipse cx="336.05" cy="187" fill="#B4A7E5" rx="11" ry="11" style="stroke:#A80036;stroke-width:1.0;"/><path d="M337.0031,183.6406 L337.0031,190.2969 L338.7219,190.2969 Q339.3313,190.2969 339.5969,190.5313 Q339.8625,190.7656 339.8625,191.1563 Q339.8625,191.5313 339.5969,191.7656 Q339.3313,192 338.7219,192 L333.5813,192 Q332.9719,192 332.7063,191.7656 Q332.4406,191.5313 332.4406,191.1406 Q332.4406,190.7656 332.7063,190.5313 Q332.9719,190.2969 333.5813,190.2969 L335.3,190.2969 L335.3,183.6406 L333.5813,183.6406 Q332.9719,183.6406 332.7063,183.4063 Q332.4406,183.1719 332.4406,182.7813 Q332.4406,182.4063 332.7063,182.1719 Q332.9719,181.9375 333.5813,181.9375 L338.7219,181.9375 Q339.3313,181.9375 339.5969,182.1719 Q339.8625,182.4063 339.8625,182.7813 Q339.8625,183.1719 339.5969,183.4063 Q339.3313,183.6406 338.7219,183.6406 L337.0031,183.6406 Z " fill="#000000"/><text fill="#000000" font-family="sans-serif" font-size="12" font-style="italic" lengthAdjust="spacing" textLength="87" x="352.95" y="191.9102">EyePairListener</text><line style="stroke:#A80036;stroke-width:1.5;" x1="309" x2="455" y1="203" y2="203"/><line style="stroke:#A80036;stroke-width:1.5;" x1="309" x2="455" y1="211" y2="211"/><ellipse cx="319" cy="222" fill="#84BE84" rx="3" ry="3" style="stroke:#038048;stroke-width:1.0;"/><text fill="#000000" font-family="sans-serif" font-size="11" font-style="italic" lengthAdjust="spacing" textLength="122" x="328" y="226.4189">void accept(SR_eyePair)</text><!--MD5=[dbfcb6863b8b94553b78112786b9026d]
class PredictiveFilter--><rect codeLine="16" fill="#FEFECE" filter="url(#fdh8flqy2nm1d)" height="75.6719" id="PredictiveFilter" style="stroke:#A80036;stroke-width:1.5;" width="138" x="7" y="314"/><ellipse cx="22" cy="330" fill="#B4A7E5" rx="11" ry="11" style="stroke:#A80036;stroke-width:1.0;"/><path d="M22.9531,326.6406 L22.9531,333.2969 L24.6719,333.2969 Q25.2813,333.2969 25.5469,333.5313 Q25.8125,333.7656 25.8125,334.1563 Q25.8125,334.5313 25.5469,334.7656 Q25.2813,335 24.6719,335 L19.5313,335 Q18.9219,335 18.6563,334.7656 Q18.3906,334.5313 18.3906,334.1406 Q18.3906,333.7656 18.6563,333.5313 Q18.9219,333.2969 19.5313,333.2969 L21.25,333.2969 L21.25,326.6406 L19.5313,326.6406 Q18.9219,326.6406 18.6563,326.4063 Q18.3906,326.1719 18.3906,325.7813 Q18.3906,325.4063 18.6563,325.1719 Q18.9219,324.9375 19.5313,324.9375 L24.6719,324.9375 Q25.2813,324.9375 25.5469,325.1719 Q25.8125,325.4063 25.8125,325.7813 Q25.8125,326.1719 25.5469,326.4063 Q25.2813,326.6406 24.6719,326.6406 L22.9531,326.6406 Z " fill="#000000"/><text fill="#000000" font-family="sans-serif" font-size="12" font-style="italic" lengthAdjust="spacing" textLength="81" x="36" y="334.9102">PredictiveFilter</text><rect fill="#FFFFFF" height="17.0938" style="stroke:#000000;stroke-width:1.0;stroke-dasharray:2.0,2.0;" width="23" x="125" y="311"/><text fill="#000000" font-family="sans-serif" font-size="12" font-style="italic" lengthAdjust="spacing" textLength="21" x="126" y="324.457">T, P</text><line style="stroke:#A80036;stroke-width:1.5;" x1="8" x2="144" y1="346" y2="346"/><line style="stroke:#A80036;stroke-width:1.5;" x1="8" x2="144" y1="354" y2="354"/><ellipse cx="18" cy="365" fill="#84BE84" rx="3" ry="3" style="stroke:#038048;stroke-width:1.0;"/><text fill="#000000" font-family="sans-serif" font-size="11" font-style="italic" lengthAdjust="spacing" textLength="101" x="27" y="369.4189">void measure(T&amp;, P)</text><ellipse cx="18" cy="378.8359" fill="#84BE84" rx="3" ry="3" style="stroke:#038048;stroke-width:1.0;"/><text fill="#000000" font-family="sans-serif" font-size="11" font-style="italic" lengthAdjust="spacing" textLength="92" x="27" y="383.2549">void predict(P, T&amp;)</text><!--MD5=[987793c46d86ac4bfab0b1b72cd364e3]
class EyePairPredictor--><rect codeLine="25" fill="#FEFECE" filter="url(#fdh8flqy2nm1d)" height="75.6719" id="EyePairPredictor" style="stroke:#A80036;stroke-width:1.5;" width="206" x="72" y="457"/><ellipse cx="125.25" cy="473" fill="#ADD1B2" rx="11" ry="11" style="stroke:#A80036;stroke-width:1.0;"/><path d="M128.0156,468.875 Q128.1719,468.6563 128.3594,468.5469 Q128.5469,468.4375 128.7656,468.4375 Q129.1406,468.4375 129.375,468.6953 Q129.6094,468.9531 129.6094,469.5625 L129.6094,471.0156 Q129.6094,471.625 129.375,471.8906 Q129.1406,472.1563 128.7656,472.1563 Q128.4219,472.1563 128.2188,471.9531 Q128.0156,471.7656 127.9063,471.25 Q127.8594,470.8906 127.6719,470.7031 Q127.3438,470.3281 126.7344,470.1094 Q126.125,469.8906 125.5,469.8906 Q124.7344,469.8906 124.1016,470.2188 Q123.4688,470.5469 122.9766,471.2969 Q122.4844,472.0469 122.4844,473.0781 L122.4844,474.1719 Q122.4844,475.4063 123.375,476.2266 Q124.2656,477.0469 125.8594,477.0469 Q126.7969,477.0469 127.4531,476.7969 Q127.8438,476.6406 128.2656,476.2031 Q128.5313,475.9375 128.6797,475.8594 Q128.8281,475.7813 129.0313,475.7813 Q129.3594,475.7813 129.6172,476.0391 Q129.875,476.2969 129.875,476.6406 Q129.875,476.9844 129.5313,477.3906 Q129.0313,477.9688 128.2344,478.2969 Q127.1563,478.75 125.8594,478.75 Q124.3438,478.75 123.1406,478.125 Q122.1563,477.625 121.4688,476.5547 Q120.7813,475.4844 120.7813,474.2031 L120.7813,473.0469 Q120.7813,471.7188 121.3984,470.5703 Q122.0156,469.4219 123.1094,468.8047 Q124.2031,468.1875 125.4375,468.1875 Q126.1719,468.1875 126.8203,468.3516 Q127.4688,468.5156 128.0156,468.875 Z " fill="#000000"/><text fill="#000000" font-family="sans-serif" font-size="12" lengthAdjust="spacing" textLength="91" x="145.75" y="477.9102">EyePairPredictor</text><line style="stroke:#A80036;stroke-width:1.5;" x1="73" x2="277" y1="489" y2="489"/><line style="stroke:#A80036;stroke-width:1.5;" x1="73" x2="277" y1="497" y2="497"/><ellipse cx="83" cy="508" fill="#84BE84" rx="3" ry="3" style="stroke:#038048;stroke-width:1.0;"/><text fill="#000000" font-family="sans-serif" font-size="11" lengthAdjust="spacing" textLength="180" x="92" y="512.4189">void measure(SR_eyePair&amp;, uint64_t)</text><ellipse cx="83" cy="521.8359" fill="#84BE84" rx="3" ry="3" style="stroke:#038048;stroke-width:1.0;"/><text fill="#000000" font-family="sans-serif" font-size="11" lengthAdjust="spacing" textLength="171" x="92" y="526.2549">void predict(uint64_t, SR_eyePair&amp;)</text><!--MD5=[19299e17616cfe77e39e33e37e3f0183]
class PredictingEyeTracker--><rect codeLine="31" fill="#FEFECE" filter="url(#fdh8flqy2nm1d)" height="89.5078" id="PredictingEyeTracker" style="stroke:#A80036;stroke-width:1.5;" width="190" x="180" y="307"/><ellipse cx="213.9" cy="323" fill="#ADD1B2" rx="11" ry="11" style="stroke:#A80036;stroke-width:1.0;"/><path d="M216.6656,318.875 Q216.8219,318.6563 217.0094,318.5469 Q217.1969,318.4375 217.4156,318.4375 Q217.7906,318.4375 218.025,318.6953 Q218.2594,318.9531 218.2594,319.5625 L218.2594,321.0156 Q218.2594,321.625 218.025,321.8906 Q217.7906,322.1563 217.4156,322.1563 Q217.0719,322.1563 216.8688,321.9531 Q216.6656,321.7656 216.5563,321.25 Q216.5094,320.8906 216.3219,320.7031 Q215.9938,320.3281 215.3844,320.1094 Q214.775,319.8906 214.15,319.8906 Q213.3844,319.8906 212.7516,320.2188 Q212.1188,320.5469 211.6266,321.2969 Q211.1344,322.0469 211.1344,323.0781 L211.1344,324.1719 Q211.1344,325.4063 212.025,326.2266 Q212.9156,327.0469 214.5094,327.0469 Q215.4469,327.0469 216.1031,326.7969 Q216.4938,326.6406 216.9156,326.2031 Q217.1813,325.9375 217.3297,325.8594 Q217.4781,325.7813 217.6813,325.7813 Q218.0094,325.7813 218.2672,326.0391 Q218.525,326.2969 218.525,326.6406 Q218.525,326.9844 218.1813,327.3906 Q217.6813,327.9688 216.8844,328.2969 Q215.8063,328.75 214.5094,328.75 Q212.9938,328.75 211.7906,328.125 Q210.8063,327.625 210.1188,326.5547 Q209.4313,325.4844 209.4313,324.2031 L209.4313,323.0469 Q209.4313,321.7188 210.0484,320.5703 Q210.6656,319.4219 211.7594,318.8047 Q212.8531,318.1875 214.0875,318.1875 Q214.8219,318.1875 215.4703,318.3516 Q216.1188,318.5156 216.6656,318.875 Z " fill="#000000"/><text fill="#000000" font-family="sans-serif" font-size="12" lengthAdjust="spacing" textLength="116" x="232.1" y="327.9102">PredictingEyeTracker</text><line style="stroke:#A80036;stroke-width:1.5;" x1="181" x2="369" y1="339" y2="339"/><line style="stroke:#A80036;stroke-width:1.5;" x1="181" x2="369" y1="347" y2="347"/><ellipse cx="191" cy="358" fill="#84BE84" rx="3" ry="3" style="stroke:#038048;stroke-width:1.0;"/><text fill="#000000" font-family="sans-serif" font-size="11" lengthAdjust="spacing" text-decoration="underline" textLength="148" x="200" y="362.4189">PredictingEyeTracker* create()</text><ellipse cx="191" cy="371.8359" fill="#84BE84" rx="3" ry="3" style="stroke:#038048;stroke-width:1.0;"/><text fill="#000000" font-family="sans-serif" font-size="11" lengthAdjust="spacing" textLength="164" x="200" y="376.2549">void predict(uint64_t, SR_eyePair)</text><ellipse cx="191" cy="385.6719" fill="#84BE84" rx="3" ry="3" style="stroke:#038048;stroke-width:1.0;"/><text fill="#000000" font-family="sans-serif" font-size="11" lengthAdjust="spacing" textLength="102" x="200" y="390.0908">void predict(uint64_t)</text><!--MD5=[bb3ae1b7d59436ed550b43a70d4e6949]
link EyePairStream to EyeTracker--><path codeLine="13" d="M243.48,97 C230.99,114.44 216.59,134.56 203.79,152.42 " fill="none" id="EyePairStream-to-EyeTracker" style="stroke:#A80036;stroke-width:1.0;"/><polygon fill="#A80036" points="200.58,156.91,209.0677,151.9142,203.4875,152.8423,202.5594,147.2621,200.58,156.91" style="stroke:#A80036;stroke-width:1.0;"/><text fill="#000000" font-family="sans-serif" font-size="13" lengthAdjust="spacing" textLength="7" x="231.5553" y="118.0076">1</text><text fill="#000000" font-family="sans-serif" font-size="13" lengthAdjust="spacing" textLength="7" x="198.0553" y="146.0111">1</text><!--MD5=[9e18a253eff87a6328585bee082ab6fc]
reverse link EyePairStream to EyePairListener--><path codeLine="14" d="M314.49,107.62 C329.98,129.05 347.15,152.8 360.3,170.99 " fill="none" id="EyePairStream-backto-EyePairListener" style="stroke:#A80036;stroke-width:1.0;"/><polygon fill="#FFFFFF" points="306.81,97,307.0866,104.2058,313.8445,106.7219,313.5679,99.5161,306.81,97" style="stroke:#A80036;stroke-width:1.0;"/><text fill="#000000" font-family="sans-serif" font-size="13" lengthAdjust="spacing" textLength="7" x="303.7911" y="118.0076">0</text><text fill="#000000" font-family="sans-serif" font-size="13" lengthAdjust="spacing" textLength="7" x="347.7875" y="160.0081">1</text><!--MD5=[c10a1abbb5fa5e67a07e282a9e34cb84]
reverse link PredictiveFilter to EyePairPredictor--><path codeLine="29" d="M113.57,406.5 C125.32,423.24 138.03,441.34 148.82,456.71 " fill="none" id="PredictiveFilter-backto-EyePairPredictor" style="stroke:#A80036;stroke-width:1.0;"/><polygon fill="none" points="107.77,410.44,102.01,390.05,119.23,402.39,107.77,410.44" style="stroke:#A80036;stroke-width:1.0;"/><!--MD5=[b28bb6481097d12f447b0333e431a07b]
reverse link PredictingEyeTracker to EyePairPredictor--><path codeLine="36" d="M235.84,408.22 C224.35,424.42 212.05,441.76 201.55,456.57 " fill="none" id="PredictingEyeTracker-backto-EyePairPredictor" style="stroke:#A80036;stroke-width:1.0;"/><polygon fill="#FFFFFF" points="243.63,397.23,236.8968,399.8116,236.6901,407.0197,243.4233,404.4381,243.63,397.23" style="stroke:#A80036;stroke-width:1.0;"/><text fill="#000000" font-family="sans-serif" font-size="13" lengthAdjust="spacing" textLength="7" x="231.9443" y="417.9346">1</text><text fill="#000000" font-family="sans-serif" font-size="13" lengthAdjust="spacing" textLength="7" x="198.5117" y="446.1434">1</text><!--MD5=[8280973a9360853e43c781a1742bd7f0]
reverse link EyePairListener to PredictingEyeTracker--><path codeLine="37" d="M348.32,249.59 C335.06,267.93 319.9,288.89 306.83,306.98 " fill="none" id="EyePairListener-backto-PredictingEyeTracker" style="stroke:#A80036;stroke-width:1.0;"/><polygon fill="none" points="342.7,245.41,360.09,233.31,354.04,253.62,342.7,245.41" style="stroke:#A80036;stroke-width:1.0;"/><!--MD5=[a80858e91cdbd4b1b7615d1bb980cd6e]
reverse link EyeTracker to PredictingEyeTracker--><path codeLine="38" d="M212.38,263.57 C222.78,278.08 233.68,293.31 243.42,306.91 " fill="none" id="EyeTracker-backto-PredictingEyeTracker" style="stroke:#A80036;stroke-width:1.0;"/><polygon fill="none" points="206.47,267.34,200.52,247,217.85,259.19,206.47,267.34" style="stroke:#A80036;stroke-width:1.0;"/><!--MD5=[8cb9254821117537c47bbaad4b7d961b]
@startuml

Interface EyeTracker {
    +{static} EyeTracker* create()
    +{abstract} EyePairStream openEyePairStream()
    +{abstract} void streamClosed(EyePairStream)
}

class EyePairStream {
    -sender : EyeTracker
    -listener : EyePairListener
    +update(SR_eyePair)
}
EyePairStream "1" - -> "1" EyeTracker
EyePairStream "0" o- - "1" EyePairListener

Interface "PredictiveFilter<T, P>" as PredictiveFilter {
    +{abstract} void measure(T&, P)
    +{abstract} void predict(P, T&)
}

Interface EyePairListener {
    +{abstract} void accept(SR_eyePair)
}

class EyePairPredictor {
    +void measure(SR_eyePair&, uint64_t)
    +void predict(uint64_t, SR_eyePair&)
}
PredictiveFilter <|- - EyePairPredictor

class PredictingEyeTracker {
    +{static} PredictingEyeTracker* create()
    +void predict(uint64_t, SR_eyePair)
    +void predict(uint64_t)
}
PredictingEyeTracker "1" o- - "1" EyePairPredictor
EyePairListener <|- - PredictingEyeTracker
EyeTracker <|- - PredictingEyeTracker

@enduml

PlantUML version 1.2021.2(Sun Mar 07 12:10:27 CET 2021)
(GPL source distribution)
Java Runtime: Java(TM) SE Runtime Environment
JVM: Java HotSpot(TM) Client VM
Default Encoding: Cp1252
Language: en
Country: US
--></g></svg>