<?xml version="1.0" encoding="UTF-8" standalone="no"?>
<!DOCTYPE svg PUBLIC "-//W3C//DTD SVG 1.1//EN"
 "http://www.w3.org/Graphics/SVG/1.1/DTD/svg11.dtd">
<!-- Generated by graphviz version 2.38.0 (20140413.2041)
 -->
<!-- Title: screen.h Pages: 1 -->
<svg width="702pt" height="308pt"
 viewBox="0.00 0.00 702.00 308.00" xmlns="http://www.w3.org/2000/svg" xmlns:xlink="http://www.w3.org/1999/xlink">
<g id="graph0" class="graph" transform="scale(1 1) rotate(0) translate(4 304)">
<title>screen.h</title>
<!-- Node1 -->
<g id="node1" class="node"><title>Node1</title>
<g id="a_node1"><a xlink:title=" ">
<polygon fill="#bfbfbf" stroke="black" points="243,-280.5 243,-299.5 297,-299.5 297,-280.5 243,-280.5"/>
<text text-anchor="middle" x="270" y="-287.5" font-family="Helvetica,sans-Serif" font-size="10.00">screen.h</text>
</a>
</g>
</g>
<!-- Node2 -->
<g id="node2" class="node"><title>Node2</title>
<g id="a_node2"><a xlink:href="worldobject_8h.html" target="_top" xlink:title=" ">
<polygon fill="none" stroke="black" points="32,-168.5 32,-187.5 142,-187.5 142,-168.5 32,-168.5"/>
<text text-anchor="middle" x="87" y="-175.5" font-family="Helvetica,sans-Serif" font-size="10.00">sr/world/worldobject.h</text>
</a>
</g>
</g>
<!-- Node1&#45;&gt;Node2 -->
<g id="edge1" class="edge"><title>Node1&#45;&gt;Node2</title>
<path fill="none" stroke="midnightblue" d="M255.184,-280.466C239.639,-271.483 214.521,-256.885 193,-244 163.959,-226.613 130.728,-206.14 109.333,-192.885"/>
<polygon fill="midnightblue" stroke="midnightblue" points="111.008,-189.805 100.665,-187.507 107.318,-195.753 111.008,-189.805"/>
</g>
<!-- Node8 -->
<g id="node8" class="node"><title>Node8</title>
<g id="a_node8"><a xlink:href="srcontext_8h.html" target="_top" xlink:title=" ">
<polygon fill="none" stroke="black" points="202,-224.5 202,-243.5 338,-243.5 338,-224.5 202,-224.5"/>
<text text-anchor="middle" x="270" y="-231.5" font-family="Helvetica,sans-Serif" font-size="10.00">sr/management/srcontext.h</text>
</a>
</g>
</g>
<!-- Node1&#45;&gt;Node8 -->
<g id="edge8" class="edge"><title>Node1&#45;&gt;Node8</title>
<path fill="none" stroke="midnightblue" d="M270,-280.083C270,-273.006 270,-262.861 270,-253.986"/>
<polygon fill="midnightblue" stroke="midnightblue" points="273.5,-253.751 270,-243.751 266.5,-253.751 273.5,-253.751"/>
</g>
<!-- Node20 -->
<g id="node20" class="node"><title>Node20</title>
<g id="a_node20"><a xlink:title=" ">
<polygon fill="none" stroke="#bfbfbf" points="356.5,-224.5 356.5,-243.5 405.5,-243.5 405.5,-224.5 356.5,-224.5"/>
<text text-anchor="middle" x="381" y="-231.5" font-family="Helvetica,sans-Serif" font-size="10.00">fstream</text>
</a>
</g>
</g>
<!-- Node1&#45;&gt;Node20 -->
<g id="edge24" class="edge"><title>Node1&#45;&gt;Node20</title>
<path fill="none" stroke="midnightblue" d="M287.834,-280.324C305.716,-271.625 333.475,-258.12 354.046,-248.113"/>
<polygon fill="midnightblue" stroke="midnightblue" points="355.749,-251.177 363.21,-243.655 352.687,-244.882 355.749,-251.177"/>
</g>
<!-- Node3 -->
<g id="node3" class="node"><title>Node3</title>
<g id="a_node3"><a xlink:title=" ">
<polygon fill="none" stroke="#bfbfbf" points="0,-112.5 0,-131.5 42,-131.5 42,-112.5 0,-112.5"/>
<text text-anchor="middle" x="21" y="-119.5" font-family="Helvetica,sans-Serif" font-size="10.00">vector</text>
</a>
</g>
</g>
<!-- Node2&#45;&gt;Node3 -->
<g id="edge2" class="edge"><title>Node2&#45;&gt;Node3</title>
<path fill="none" stroke="midnightblue" d="M76.396,-168.324C66.5438,-160.263 51.6491,-148.077 39.7849,-138.369"/>
<polygon fill="midnightblue" stroke="midnightblue" points="41.7529,-135.457 31.797,-131.834 37.3202,-140.875 41.7529,-135.457"/>
</g>
<!-- Node4 -->
<g id="node4" class="node"><title>Node4</title>
<g id="a_node4"><a xlink:title=" ">
<polygon fill="none" stroke="#bfbfbf" points="70,-56.5 70,-75.5 174,-75.5 174,-56.5 70,-56.5"/>
<text text-anchor="middle" x="122" y="-63.5" font-family="Helvetica,sans-Serif" font-size="10.00">opencv2/opencv.hpp</text>
</a>
</g>
</g>
<!-- Node2&#45;&gt;Node4 -->
<g id="edge3" class="edge"><title>Node2&#45;&gt;Node4</title>
<path fill="none" stroke="midnightblue" d="M85.6741,-168.295C84.0812,-155.543 82.381,-131.214 89,-112 92.6534,-101.395 99.7522,-91.1776 106.433,-83.1669"/>
<polygon fill="midnightblue" stroke="midnightblue" points="109.049,-85.4916 113.081,-75.6938 103.819,-80.8388 109.049,-85.4916"/>
</g>
<!-- Node5 -->
<g id="node5" class="node"><title>Node5</title>
<g id="a_node5"><a xlink:href="transformation_8h.html" target="_top" xlink:title=" ">
<polygon fill="none" stroke="black" points="98.5,-112.5 98.5,-131.5 247.5,-131.5 247.5,-112.5 98.5,-112.5"/>
<text text-anchor="middle" x="173" y="-119.5" font-family="Helvetica,sans-Serif" font-size="10.00">sr/sense/core/transformation.h</text>
</a>
</g>
</g>
<!-- Node2&#45;&gt;Node5 -->
<g id="edge4" class="edge"><title>Node2&#45;&gt;Node5</title>
<path fill="none" stroke="midnightblue" d="M100.817,-168.324C114.233,-159.9 134.824,-146.971 150.586,-137.074"/>
<polygon fill="midnightblue" stroke="midnightblue" points="152.609,-139.936 159.217,-131.655 148.887,-134.008 152.609,-139.936"/>
</g>
<!-- Node5&#45;&gt;Node4 -->
<g id="edge5" class="edge"><title>Node5&#45;&gt;Node4</title>
<path fill="none" stroke="midnightblue" d="M164.578,-112.083C157.152,-104.22 146.148,-92.5688 137.188,-83.0813"/>
<polygon fill="midnightblue" stroke="midnightblue" points="139.676,-80.618 130.265,-75.7511 134.587,-85.4244 139.676,-80.618"/>
</g>
<!-- Node6 -->
<g id="node6" class="node"><title>Node6</title>
<g id="a_node6"><a xlink:href="types_8h.html" target="_top" xlink:title=" ">
<polygon fill="none" stroke="black" points="193,-56.5 193,-75.5 253,-75.5 253,-56.5 193,-56.5"/>
<text text-anchor="middle" x="223" y="-63.5" font-family="Helvetica,sans-Serif" font-size="10.00">sr/types.h</text>
</a>
</g>
</g>
<!-- Node5&#45;&gt;Node6 -->
<g id="edge6" class="edge"><title>Node5&#45;&gt;Node6</title>
<path fill="none" stroke="midnightblue" d="M181.256,-112.083C188.465,-104.298 199.11,-92.8015 207.846,-83.3665"/>
<polygon fill="midnightblue" stroke="midnightblue" points="210.671,-85.4666 214.897,-75.7511 205.535,-80.7108 210.671,-85.4666"/>
</g>
<!-- Node7 -->
<g id="node7" class="node"><title>Node7</title>
<g id="a_node7"><a xlink:title=" ">
<polygon fill="none" stroke="#bfbfbf" points="366.5,-0.5 366.5,-19.5 415.5,-19.5 415.5,-0.5 366.5,-0.5"/>
<text text-anchor="middle" x="391" y="-7.5" font-family="Helvetica,sans-Serif" font-size="10.00">stdint.h</text>
</a>
</g>
</g>
<!-- Node6&#45;&gt;Node7 -->
<g id="edge7" class="edge"><title>Node6&#45;&gt;Node7</title>
<path fill="none" stroke="midnightblue" d="M249.62,-56.4435C278.59,-47.1318 325.002,-32.2137 356.688,-22.0289"/>
<polygon fill="midnightblue" stroke="midnightblue" points="357.968,-25.2938 366.417,-18.9015 355.826,-18.6296 357.968,-25.2938"/>
</g>
<!-- Node8&#45;&gt;Node2 -->
<g id="edge17" class="edge"><title>Node8&#45;&gt;Node2</title>
<path fill="none" stroke="midnightblue" d="M241.003,-224.444C209.815,-215.241 160.07,-200.562 125.592,-190.388"/>
<polygon fill="midnightblue" stroke="midnightblue" points="126.443,-186.99 115.861,-187.516 124.462,-193.704 126.443,-186.99"/>
</g>
<!-- Node9 -->
<g id="node9" class="node"><title>Node9</title>
<g id="a_node9"><a xlink:title=" ">
<polygon fill="none" stroke="#bfbfbf" points="477.5,-112.5 477.5,-131.5 518.5,-131.5 518.5,-112.5 477.5,-112.5"/>
<text text-anchor="middle" x="498" y="-119.5" font-family="Helvetica,sans-Serif" font-size="10.00">string</text>
</a>
</g>
</g>
<!-- Node8&#45;&gt;Node9 -->
<g id="edge9" class="edge"><title>Node8&#45;&gt;Node9</title>
<path fill="none" stroke="midnightblue" d="M327.236,-224.496C398.552,-213.626 511.874,-195.337 518,-188 529.421,-174.32 520.422,-154.176 511.112,-139.945"/>
<polygon fill="midnightblue" stroke="midnightblue" points="513.808,-137.697 505.16,-131.575 508.103,-141.753 513.808,-137.697"/>
</g>
<!-- Node10 -->
<g id="node10" class="node"><title>Node10</title>
<g id="a_node10"><a xlink:title=" ">
<polygon fill="none" stroke="#bfbfbf" points="160.5,-168.5 160.5,-187.5 195.5,-187.5 195.5,-168.5 160.5,-168.5"/>
<text text-anchor="middle" x="178" y="-175.5" font-family="Helvetica,sans-Serif" font-size="10.00">map</text>
</a>
</g>
</g>
<!-- Node8&#45;&gt;Node10 -->
<g id="edge10" class="edge"><title>Node8&#45;&gt;Node10</title>
<path fill="none" stroke="midnightblue" d="M255.219,-224.324C240.733,-215.822 218.427,-202.729 201.507,-192.797"/>
<polygon fill="midnightblue" stroke="midnightblue" points="203.141,-189.698 192.745,-187.655 199.597,-195.735 203.141,-189.698"/>
</g>
<!-- Node11 -->
<g id="node11" class="node"><title>Node11</title>
<g id="a_node11"><a xlink:href="sense_8h.html" target="_top" xlink:title=" ">
<polygon fill="none" stroke="black" points="213.5,-168.5 213.5,-187.5 326.5,-187.5 326.5,-168.5 213.5,-168.5"/>
<text text-anchor="middle" x="270" y="-175.5" font-family="Helvetica,sans-Serif" font-size="10.00">sr/sense/core/sense.h</text>
</a>
</g>
</g>
<!-- Node8&#45;&gt;Node11 -->
<g id="edge11" class="edge"><title>Node8&#45;&gt;Node11</title>
<path fill="none" stroke="midnightblue" d="M270,-224.083C270,-217.006 270,-206.861 270,-197.986"/>
<polygon fill="midnightblue" stroke="midnightblue" points="273.5,-197.751 270,-187.751 266.5,-197.751 273.5,-197.751"/>
</g>
<!-- Node15 -->
<g id="node15" class="node"><title>Node15</title>
<g id="a_node15"><a xlink:href="networkinterface_8h.html" target="_top" xlink:title=" ">
<polygon fill="none" stroke="black" points="344.5,-168.5 344.5,-187.5 509.5,-187.5 509.5,-168.5 344.5,-168.5"/>
<text text-anchor="middle" x="427" y="-175.5" font-family="Helvetica,sans-Serif" font-size="10.00">sr/network/core/networkinterface.h</text>
</a>
</g>
</g>
<!-- Node8&#45;&gt;Node15 -->
<g id="edge18" class="edge"><title>Node8&#45;&gt;Node15</title>
<path fill="none" stroke="midnightblue" d="M294.877,-224.444C321.289,-215.359 363.215,-200.939 392.742,-190.783"/>
<polygon fill="midnightblue" stroke="midnightblue" points="393.921,-194.079 402.239,-187.516 391.645,-187.459 393.921,-194.079"/>
</g>
<!-- Node16 -->
<g id="node16" class="node"><title>Node16</title>
<g id="a_node16"><a xlink:href="receiver_8h.html" target="_top" xlink:title=" ">
<polygon fill="none" stroke="black" points="566,-168.5 566,-187.5 694,-187.5 694,-168.5 566,-168.5"/>
<text text-anchor="middle" x="630" y="-175.5" font-family="Helvetica,sans-Serif" font-size="10.00">sr/network/core/receiver.h</text>
</a>
</g>
</g>
<!-- Node8&#45;&gt;Node16 -->
<g id="edge19" class="edge"><title>Node8&#45;&gt;Node16</title>
<path fill="none" stroke="midnightblue" d="M327.043,-224.444C391.161,-214.826 495.15,-199.228 563.061,-189.041"/>
<polygon fill="midnightblue" stroke="midnightblue" points="563.854,-192.461 573.224,-187.516 562.815,-185.539 563.854,-192.461"/>
</g>
<!-- Node11&#45;&gt;Node5 -->
<g id="edge16" class="edge"><title>Node11&#45;&gt;Node5</title>
<path fill="none" stroke="midnightblue" d="M254.415,-168.324C239.001,-159.743 215.188,-146.486 197.29,-136.522"/>
<polygon fill="midnightblue" stroke="midnightblue" points="198.986,-133.461 188.546,-131.655 195.581,-139.577 198.986,-133.461"/>
</g>
<!-- Node11&#45;&gt;Node9 -->
<g id="edge12" class="edge"><title>Node11&#45;&gt;Node9</title>
<path fill="none" stroke="midnightblue" d="M306.127,-168.444C350.693,-157.888 425.674,-140.13 467.487,-130.227"/>
<polygon fill="midnightblue" stroke="midnightblue" points="468.439,-133.598 477.364,-127.888 466.826,-126.787 468.439,-133.598"/>
</g>
<!-- Node12 -->
<g id="node12" class="node"><title>Node12</title>
<g id="a_node12"><a xlink:title=" ">
<polygon fill="none" stroke="#bfbfbf" points="390,-112.5 390,-131.5 436,-131.5 436,-112.5 390,-112.5"/>
<text text-anchor="middle" x="413" y="-119.5" font-family="Helvetica,sans-Serif" font-size="10.00">chrono</text>
</a>
</g>
</g>
<!-- Node11&#45;&gt;Node12 -->
<g id="edge13" class="edge"><title>Node11&#45;&gt;Node12</title>
<path fill="none" stroke="midnightblue" d="M292.659,-168.444C316.402,-159.478 353.909,-145.314 380.738,-135.183"/>
<polygon fill="midnightblue" stroke="midnightblue" points="382.329,-138.324 390.447,-131.516 379.856,-131.775 382.329,-138.324"/>
</g>
<!-- Node13 -->
<g id="node13" class="node"><title>Node13</title>
<g id="a_node13"><a xlink:title=" ">
<polygon fill="none" stroke="#bfbfbf" points="266,-112.5 266,-131.5 310,-131.5 310,-112.5 266,-112.5"/>
<text text-anchor="middle" x="288" y="-119.5" font-family="Helvetica,sans-Serif" font-size="10.00">thread</text>
</a>
</g>
</g>
<!-- Node11&#45;&gt;Node13 -->
<g id="edge14" class="edge"><title>Node11&#45;&gt;Node13</title>
<path fill="none" stroke="midnightblue" d="M272.972,-168.083C275.384,-160.849 278.864,-150.409 281.868,-141.397"/>
<polygon fill="midnightblue" stroke="midnightblue" points="285.241,-142.345 285.083,-131.751 278.6,-140.131 285.241,-142.345"/>
</g>
<!-- Node14 -->
<g id="node14" class="node"><title>Node14</title>
<g id="a_node14"><a xlink:title=" ">
<polygon fill="none" stroke="#bfbfbf" points="328,-112.5 328,-131.5 372,-131.5 372,-112.5 328,-112.5"/>
<text text-anchor="middle" x="350" y="-119.5" font-family="Helvetica,sans-Serif" font-size="10.00">mutex</text>
</a>
</g>
</g>
<!-- Node11&#45;&gt;Node14 -->
<g id="edge15" class="edge"><title>Node11&#45;&gt;Node14</title>
<path fill="none" stroke="midnightblue" d="M282.853,-168.324C295.216,-159.979 314.13,-147.212 328.737,-137.352"/>
<polygon fill="midnightblue" stroke="midnightblue" points="330.848,-140.15 337.179,-131.655 326.932,-134.348 330.848,-140.15"/>
</g>
<!-- Node17 -->
<g id="node17" class="node"><title>Node17</title>
<g id="a_node17"><a xlink:href="packet_8h.html" target="_top" xlink:title=" ">
<polygon fill="none" stroke="black" points="561,-112.5 561,-131.5 615,-131.5 615,-112.5 561,-112.5"/>
<text text-anchor="middle" x="588" y="-119.5" font-family="Helvetica,sans-Serif" font-size="10.00">packet.h</text>
</a>
</g>
</g>
<!-- Node16&#45;&gt;Node17 -->
<g id="edge20" class="edge"><title>Node16&#45;&gt;Node17</title>
<path fill="none" stroke="midnightblue" d="M623.065,-168.083C617.071,-160.377 608.248,-149.033 600.952,-139.653"/>
<polygon fill="midnightblue" stroke="midnightblue" points="603.709,-137.496 594.806,-131.751 598.183,-141.793 603.709,-137.496"/>
</g>
<!-- Node17&#45;&gt;Node7 -->
<g id="edge21" class="edge"><title>Node17&#45;&gt;Node7</title>
<path fill="none" stroke="midnightblue" d="M584.114,-112.445C577.355,-98.5216 562.109,-71.0099 541,-56 506.31,-31.3339 457.951,-20.0072 425.614,-14.9295"/>
<polygon fill="midnightblue" stroke="midnightblue" points="426.116,-11.4656 415.716,-13.4914 425.109,-18.3929 426.116,-11.4656"/>
</g>
<!-- Node18 -->
<g id="node18" class="node"><title>Node18</title>
<g id="a_node18"><a xlink:title=" ">
<polygon fill="none" stroke="#bfbfbf" points="588,-56.5 588,-75.5 642,-75.5 642,-56.5 588,-56.5"/>
<text text-anchor="middle" x="615" y="-63.5" font-family="Helvetica,sans-Serif" font-size="10.00">iostream</text>
</a>
</g>
</g>
<!-- Node17&#45;&gt;Node18 -->
<g id="edge22" class="edge"><title>Node17&#45;&gt;Node18</title>
<path fill="none" stroke="midnightblue" d="M592.459,-112.083C596.154,-104.691 601.523,-93.9533 606.094,-84.8111"/>
<polygon fill="midnightblue" stroke="midnightblue" points="609.283,-86.2606 610.624,-75.7511 603.022,-83.1301 609.283,-86.2606"/>
</g>
<!-- Node19 -->
<g id="node19" class="node"><title>Node19</title>
<g id="a_node19"><a xlink:title=" ">
<polygon fill="none" stroke="#bfbfbf" points="482,-56.5 482,-75.5 532,-75.5 532,-56.5 482,-56.5"/>
<text text-anchor="middle" x="507" y="-63.5" font-family="Helvetica,sans-Serif" font-size="10.00">iomanip</text>
</a>
</g>
</g>
<!-- Node17&#45;&gt;Node19 -->
<g id="edge23" class="edge"><title>Node17&#45;&gt;Node19</title>
<path fill="none" stroke="midnightblue" d="M574.986,-112.324C562.468,-103.979 543.318,-91.2122 528.529,-81.3524"/>
<polygon fill="midnightblue" stroke="midnightblue" points="530.244,-78.2894 519.982,-75.6545 526.361,-84.1137 530.244,-78.2894"/>
</g>
</g>
</svg>
