<?xml version="1.0" encoding="UTF-8" standalone="no"?>
<!DOCTYPE svg PUBLIC "-//W3C//DTD SVG 1.1//EN"
 "http://www.w3.org/Graphics/SVG/1.1/DTD/svg11.dtd">
<!-- Generated by graphviz version 2.38.0 (20140413.2041)
 -->
<!-- Title: sense.h Pages: 1 -->
<svg width="1764pt" height="196pt"
 viewBox="0.00 0.00 1763.50 196.00" xmlns="http://www.w3.org/2000/svg" xmlns:xlink="http://www.w3.org/1999/xlink">
<g id="graph0" class="graph" transform="scale(1 1) rotate(0) translate(4 192)">
<title>sense.h</title>
<!-- Node1 -->
<g id="node1" class="node"><title>Node1</title>
<g id="a_node1"><a xlink:title=" ">
<polygon fill="#bfbfbf" stroke="black" points="574,-168.5 574,-187.5 625,-187.5 625,-168.5 574,-168.5"/>
<text text-anchor="middle" x="599.5" y="-175.5" font-family="Helvetica,sans-Serif" font-size="10.00">sense.h</text>
</a>
</g>
</g>
<!-- Node2 -->
<g id="node2" class="node"><title>Node2</title>
<g id="a_node2"><a xlink:href="camera_8h.html" target="_top" xlink:title=" ">
<polygon fill="none" stroke="black" points="20,-56.5 20,-75.5 77,-75.5 77,-56.5 20,-56.5"/>
<text text-anchor="middle" x="48.5" y="-63.5" font-family="Helvetica,sans-Serif" font-size="10.00">camera.h</text>
</a>
</g>
</g>
<!-- Node1&#45;&gt;Node2 -->
<g id="edge1" class="edge"><title>Node1&#45;&gt;Node2</title>
<path fill="none" stroke="midnightblue" d="M563.812,-170.459C480.193,-155.027 265.154,-114.728 86.5,-76 83.4521,-75.3393 80.2726,-74.6254 77.1073,-73.8989"/>
<polygon fill="midnightblue" stroke="midnightblue" points="563.338,-173.931 573.807,-172.301 564.607,-167.046 563.338,-173.931"/>
</g>
<!-- Node4 -->
<g id="node4" class="node"><title>Node4</title>
<g id="a_node4"><a xlink:href="srconfiguration_8h.html" target="_top" xlink:title=" ">
<polygon fill="none" stroke="black" points="555.5,-112.5 555.5,-131.5 643.5,-131.5 643.5,-112.5 555.5,-112.5"/>
<text text-anchor="middle" x="599.5" y="-119.5" font-family="Helvetica,sans-Serif" font-size="10.00">srconfiguration.h</text>
</a>
</g>
</g>
<!-- Node1&#45;&gt;Node4 -->
<g id="edge3" class="edge"><title>Node1&#45;&gt;Node4</title>
<path fill="none" stroke="midnightblue" d="M599.5,-157.805C599.5,-148.91 599.5,-138.78 599.5,-131.751"/>
<polygon fill="midnightblue" stroke="midnightblue" points="596,-158.083 599.5,-168.083 603,-158.083 596,-158.083"/>
</g>
<!-- Node5 -->
<g id="node5" class="node"><title>Node5</title>
<g id="a_node5"><a xlink:href="srcontext_8h.html" target="_top" xlink:title=" ">
<polygon fill="none" stroke="black" points="806,-112.5 806,-131.5 871,-131.5 871,-112.5 806,-112.5"/>
<text text-anchor="middle" x="838.5" y="-119.5" font-family="Helvetica,sans-Serif" font-size="10.00">srcontext.h</text>
</a>
</g>
</g>
<!-- Node1&#45;&gt;Node5 -->
<g id="edge4" class="edge"><title>Node1&#45;&gt;Node5</title>
<path fill="none" stroke="midnightblue" d="M634.94,-168.993C681.105,-158.562 761.181,-140.47 805.902,-130.365"/>
<polygon fill="midnightblue" stroke="midnightblue" points="634.06,-165.603 625.077,-171.221 635.603,-172.431 634.06,-165.603"/>
</g>
<!-- Node3 -->
<g id="node3" class="node"><title>Node3</title>
<g id="a_node3"><a xlink:href="cameracontroller_8h.html" target="_top" xlink:title=" ">
<polygon fill="none" stroke="black" points="0,-0.5 0,-19.5 97,-19.5 97,-0.5 0,-0.5"/>
<text text-anchor="middle" x="48.5" y="-7.5" font-family="Helvetica,sans-Serif" font-size="10.00">cameracontroller.h</text>
</a>
</g>
</g>
<!-- Node2&#45;&gt;Node3 -->
<g id="edge2" class="edge"><title>Node2&#45;&gt;Node3</title>
<path fill="none" stroke="midnightblue" d="M48.5,-45.8045C48.5,-36.9102 48.5,-26.7798 48.5,-19.7511"/>
<polygon fill="midnightblue" stroke="midnightblue" points="45.0001,-46.083 48.5,-56.083 52.0001,-46.083 45.0001,-46.083"/>
</g>
<!-- Node5&#45;&gt;Node2 -->
<g id="edge6" class="edge"><title>Node5&#45;&gt;Node2</title>
<path fill="none" stroke="midnightblue" d="M795.426,-118.858C646.192,-111.378 156.552,-86.3125 86.5,-76 83.4146,-75.5458 80.2111,-74.9642 77.0315,-74.3157"/>
<polygon fill="midnightblue" stroke="midnightblue" points="795.41,-122.362 805.572,-119.366 795.76,-115.371 795.41,-122.362"/>
</g>
<!-- Node6 -->
<g id="node6" class="node"><title>Node6</title>
<g id="a_node6"><a xlink:href="applicationsense_8h.html" target="_top" xlink:title=" ">
<polygon fill="none" stroke="black" points="95.5,-56.5 95.5,-75.5 193.5,-75.5 193.5,-56.5 95.5,-56.5"/>
<text text-anchor="middle" x="144.5" y="-63.5" font-family="Helvetica,sans-Serif" font-size="10.00">applicationsense.h</text>
</a>
</g>
</g>
<!-- Node5&#45;&gt;Node6 -->
<g id="edge5" class="edge"><title>Node5&#45;&gt;Node6</title>
<path fill="none" stroke="midnightblue" d="M795.719,-119.206C693.122,-114.634 425.064,-101.098 202.5,-76 199.564,-75.6689 196.548,-75.2973 193.509,-74.8986"/>
<polygon fill="midnightblue" stroke="midnightblue" points="795.836,-122.714 805.981,-119.657 796.144,-115.721 795.836,-122.714"/>
</g>
<!-- Node7 -->
<g id="node7" class="node"><title>Node7</title>
<g id="a_node7"><a xlink:href="display_8h.html" target="_top" xlink:title=" ">
<polygon fill="none" stroke="black" points="211.5,-56.5 211.5,-75.5 267.5,-75.5 267.5,-56.5 211.5,-56.5"/>
<text text-anchor="middle" x="239.5" y="-63.5" font-family="Helvetica,sans-Serif" font-size="10.00">display.h</text>
</a>
</g>
</g>
<!-- Node5&#45;&gt;Node7 -->
<g id="edge7" class="edge"><title>Node5&#45;&gt;Node7</title>
<path fill="none" stroke="midnightblue" d="M795.667,-118.455C682.348,-111.579 376.543,-92.0685 276.5,-76 273.628,-75.5387 270.65,-74.9701 267.688,-74.3447"/>
<polygon fill="midnightblue" stroke="midnightblue" points="795.512,-121.952 805.705,-119.061 795.934,-114.964 795.512,-121.952"/>
</g>
<!-- Node8 -->
<g id="node8" class="node"><title>Node8</title>
<g id="a_node8"><a xlink:href="dx10weaver_8h.html" target="_top" xlink:title=" ">
<polygon fill="none" stroke="black" points="286,-56.5 286,-75.5 361,-75.5 361,-56.5 286,-56.5"/>
<text text-anchor="middle" x="323.5" y="-63.5" font-family="Helvetica,sans-Serif" font-size="10.00">dx10weaver.h</text>
</a>
</g>
</g>
<!-- Node5&#45;&gt;Node8 -->
<g id="edge8" class="edge"><title>Node5&#45;&gt;Node8</title>
<path fill="none" stroke="midnightblue" d="M795.955,-118.314C713.417,-112.795 525.916,-98.7502 369.5,-76 366.762,-75.6018 363.94,-75.1506 361.104,-74.6675"/>
<polygon fill="midnightblue" stroke="midnightblue" points="795.75,-121.808 805.959,-118.975 796.212,-114.823 795.75,-121.808"/>
</g>
<!-- Node9 -->
<g id="node9" class="node"><title>Node9</title>
<g id="a_node9"><a xlink:href="dx11weaver_8h.html" target="_top" xlink:title=" ">
<polygon fill="none" stroke="black" points="379,-56.5 379,-75.5 454,-75.5 454,-56.5 379,-56.5"/>
<text text-anchor="middle" x="416.5" y="-63.5" font-family="Helvetica,sans-Serif" font-size="10.00">dx11weaver.h</text>
</a>
</g>
</g>
<!-- Node5&#45;&gt;Node9 -->
<g id="edge9" class="edge"><title>Node5&#45;&gt;Node9</title>
<path fill="none" stroke="midnightblue" d="M795.775,-116.928C725.874,-110.032 582.802,-94.9409 462.5,-76 459.767,-75.5697 456.948,-75.0949 454.115,-74.5951"/>
<polygon fill="midnightblue" stroke="midnightblue" points="795.655,-120.433 805.948,-117.924 796.337,-113.466 795.655,-120.433"/>
</g>
<!-- Node11 -->
<g id="node11" class="node"><title>Node11</title>
<g id="a_node11"><a xlink:href="dx12weaver_8h.html" target="_top" xlink:title=" ">
<polygon fill="none" stroke="black" points="472,-56.5 472,-75.5 547,-75.5 547,-56.5 472,-56.5"/>
<text text-anchor="middle" x="509.5" y="-63.5" font-family="Helvetica,sans-Serif" font-size="10.00">dx12weaver.h</text>
</a>
</g>
</g>
<!-- Node5&#45;&gt;Node11 -->
<g id="edge11" class="edge"><title>Node5&#45;&gt;Node11</title>
<path fill="none" stroke="midnightblue" d="M795.748,-114.599C740.44,-106.222 641.139,-90.8532 556.5,-76 553.472,-75.4687 550.338,-74.9029 547.191,-74.3238"/>
<polygon fill="midnightblue" stroke="midnightblue" points="795.467,-118.097 805.878,-116.13 796.513,-111.175 795.467,-118.097"/>
</g>
<!-- Node12 -->
<g id="node12" class="node"><title>Node12</title>
<g id="a_node12"><a xlink:href="dx9weaver_8h.html" target="_top" xlink:title=" ">
<polygon fill="none" stroke="black" points="565.5,-56.5 565.5,-75.5 635.5,-75.5 635.5,-56.5 565.5,-56.5"/>
<text text-anchor="middle" x="600.5" y="-63.5" font-family="Helvetica,sans-Serif" font-size="10.00">dx9weaver.h</text>
</a>
</g>
</g>
<!-- Node5&#45;&gt;Node12 -->
<g id="edge12" class="edge"><title>Node5&#45;&gt;Node12</title>
<path fill="none" stroke="midnightblue" d="M796.011,-111.36C750.317,-100.992 678.494,-84.696 635.796,-75.0083"/>
<polygon fill="midnightblue" stroke="midnightblue" points="795.38,-114.805 805.906,-113.605 796.928,-107.979 795.38,-114.805"/>
</g>
<!-- Node13 -->
<g id="node13" class="node"><title>Node13</title>
<g id="a_node13"><a xlink:href="eyetracker_8h.html" target="_top" xlink:title=" ">
<polygon fill="none" stroke="black" points="654,-56.5 654,-75.5 725,-75.5 725,-56.5 654,-56.5"/>
<text text-anchor="middle" x="689.5" y="-63.5" font-family="Helvetica,sans-Serif" font-size="10.00">eyetracker.h</text>
</a>
</g>
</g>
<!-- Node5&#45;&gt;Node13 -->
<g id="edge13" class="edge"><title>Node5&#45;&gt;Node13</title>
<path fill="none" stroke="midnightblue" d="M805.129,-108.906C777.116,-98.7536 737.804,-84.5063 712.999,-75.5164"/>
<polygon fill="midnightblue" stroke="midnightblue" points="804.296,-112.327 814.891,-112.444 806.681,-105.746 804.296,-112.327"/>
</g>
<!-- Node16 -->
<g id="node16" class="node"><title>Node16</title>
<g id="a_node16"><a xlink:href="gestureanalyser_8h.html" target="_top" xlink:title=" ">
<polygon fill="none" stroke="black" points="743.5,-56.5 743.5,-75.5 837.5,-75.5 837.5,-56.5 743.5,-56.5"/>
<text text-anchor="middle" x="790.5" y="-63.5" font-family="Helvetica,sans-Serif" font-size="10.00">gestureanalyser.h</text>
</a>
</g>
</g>
<!-- Node5&#45;&gt;Node16 -->
<g id="edge16" class="edge"><title>Node5&#45;&gt;Node16</title>
<path fill="none" stroke="midnightblue" d="M823.772,-104.431C815.36,-94.9673 805.151,-83.4827 798.279,-75.7511"/>
<polygon fill="midnightblue" stroke="midnightblue" points="821.314,-106.934 830.574,-112.083 826.546,-102.284 821.314,-106.934"/>
</g>
<!-- Node17 -->
<g id="node17" class="node"><title>Node17</title>
<g id="a_node17"><a xlink:href="glweaver_8h.html" target="_top" xlink:title=" ">
<polygon fill="none" stroke="black" points="855.5,-56.5 855.5,-75.5 917.5,-75.5 917.5,-56.5 855.5,-56.5"/>
<text text-anchor="middle" x="886.5" y="-63.5" font-family="Helvetica,sans-Serif" font-size="10.00">glweaver.h</text>
</a>
</g>
</g>
<!-- Node5&#45;&gt;Node17 -->
<g id="edge17" class="edge"><title>Node5&#45;&gt;Node17</title>
<path fill="none" stroke="midnightblue" d="M853.228,-104.431C861.64,-94.9673 871.849,-83.4827 878.721,-75.7511"/>
<polygon fill="midnightblue" stroke="midnightblue" points="850.454,-102.284 846.426,-112.083 855.686,-106.934 850.454,-102.284"/>
</g>
<!-- Node18 -->
<g id="node18" class="node"><title>Node18</title>
<g id="a_node18"><a xlink:href="handtracker_8h.html" target="_top" xlink:title=" ">
<polygon fill="none" stroke="black" points="935.5,-56.5 935.5,-75.5 1011.5,-75.5 1011.5,-56.5 935.5,-56.5"/>
<text text-anchor="middle" x="973.5" y="-63.5" font-family="Helvetica,sans-Serif" font-size="10.00">handtracker.h</text>
</a>
</g>
</g>
<!-- Node5&#45;&gt;Node18 -->
<g id="edge18" class="edge"><title>Node5&#45;&gt;Node18</title>
<path fill="none" stroke="midnightblue" d="M869.406,-108.638C894.74,-98.504 929.931,-84.4274 952.209,-75.5164"/>
<polygon fill="midnightblue" stroke="midnightblue" points="867.876,-105.48 859.891,-112.444 870.476,-111.979 867.876,-105.48"/>
</g>
<!-- Node19 -->
<g id="node19" class="node"><title>Node19</title>
<g id="a_node19"><a xlink:href="headposetracker_8h.html" target="_top" xlink:title=" ">
<polygon fill="none" stroke="black" points="1030,-56.5 1030,-75.5 1127,-75.5 1127,-56.5 1030,-56.5"/>
<text text-anchor="middle" x="1078.5" y="-63.5" font-family="Helvetica,sans-Serif" font-size="10.00">headposetracker.h</text>
</a>
</g>
</g>
<!-- Node5&#45;&gt;Node19 -->
<g id="edge19" class="edge"><title>Node5&#45;&gt;Node19</title>
<path fill="none" stroke="midnightblue" d="M880.904,-111.459C926.083,-101.294 996.953,-85.3481 1040.41,-75.5704"/>
<polygon fill="midnightblue" stroke="midnightblue" points="880.105,-108.051 871.117,-113.661 881.642,-114.881 880.105,-108.051"/>
</g>
<!-- Node20 -->
<g id="node20" class="node"><title>Node20</title>
<g id="a_node20"><a xlink:href="headtracker_8h.html" target="_top" xlink:title=" ">
<polygon fill="none" stroke="black" points="1145.5,-56.5 1145.5,-75.5 1221.5,-75.5 1221.5,-56.5 1145.5,-56.5"/>
<text text-anchor="middle" x="1183.5" y="-63.5" font-family="Helvetica,sans-Serif" font-size="10.00">headtracker.h</text>
</a>
</g>
</g>
<!-- Node5&#45;&gt;Node20 -->
<g id="edge20" class="edge"><title>Node5&#45;&gt;Node20</title>
<path fill="none" stroke="midnightblue" d="M881.293,-114.996C939.079,-106.778 1045.22,-91.2976 1135.5,-76 1138.68,-75.4617 1141.97,-74.8849 1145.27,-74.2929"/>
<polygon fill="midnightblue" stroke="midnightblue" points="880.491,-111.574 871.081,-116.444 881.473,-118.505 880.491,-111.574"/>
</g>
<!-- Node21 -->
<g id="node21" class="node"><title>Node21</title>
<g id="a_node21"><a xlink:href="screen_8h.html" target="_top" xlink:title=" ">
<polygon fill="none" stroke="black" points="1239.5,-56.5 1239.5,-75.5 1293.5,-75.5 1293.5,-56.5 1239.5,-56.5"/>
<text text-anchor="middle" x="1266.5" y="-63.5" font-family="Helvetica,sans-Serif" font-size="10.00">screen.h</text>
</a>
</g>
</g>
<!-- Node5&#45;&gt;Node21 -->
<g id="edge21" class="edge"><title>Node5&#45;&gt;Node21</title>
<path fill="none" stroke="midnightblue" d="M881.33,-117.926C953.695,-112.322 1104.59,-98.865 1230.5,-76 1233.42,-75.4705 1236.45,-74.8407 1239.46,-74.1638"/>
<polygon fill="midnightblue" stroke="midnightblue" points="880.941,-114.446 871.236,-118.696 881.473,-121.425 880.941,-114.446"/>
</g>
<!-- Node22 -->
<g id="node22" class="node"><title>Node22</title>
<g id="a_node22"><a xlink:href="switchablehint_8h.html" target="_top" xlink:title=" ">
<polygon fill="none" stroke="black" points="1311.5,-56.5 1311.5,-75.5 1397.5,-75.5 1397.5,-56.5 1311.5,-56.5"/>
<text text-anchor="middle" x="1354.5" y="-63.5" font-family="Helvetica,sans-Serif" font-size="10.00">switchablehint.h</text>
</a>
</g>
</g>
<!-- Node5&#45;&gt;Node22 -->
<g id="edge22" class="edge"><title>Node5&#45;&gt;Node22</title>
<path fill="none" stroke="midnightblue" d="M881.408,-117.916C963.428,-111.782 1148.05,-96.8254 1302.5,-76 1305.41,-75.6082 1308.4,-75.1738 1311.41,-74.7134"/>
<polygon fill="midnightblue" stroke="midnightblue" points="880.938,-114.441 871.225,-118.671 881.456,-121.422 880.938,-114.441"/>
</g>
<!-- Node23 -->
<g id="node23" class="node"><title>Node23</title>
<g id="a_node23"><a xlink:href="systemsense_8h.html" target="_top" xlink:title=" ">
<polygon fill="none" stroke="black" points="1416,-56.5 1416,-75.5 1499,-75.5 1499,-56.5 1416,-56.5"/>
<text text-anchor="middle" x="1457.5" y="-63.5" font-family="Helvetica,sans-Serif" font-size="10.00">systemsense.h</text>
</a>
</g>
</g>
<!-- Node5&#45;&gt;Node23 -->
<g id="edge23" class="edge"><title>Node5&#45;&gt;Node23</title>
<path fill="none" stroke="midnightblue" d="M881.341,-119.008C976.232,-114.288 1211.19,-100.912 1406.5,-76 1409.53,-75.6132 1412.66,-75.1704 1415.8,-74.6933"/>
<polygon fill="midnightblue" stroke="midnightblue" points="881.085,-115.516 871.269,-119.502 881.429,-122.508 881.085,-115.516"/>
</g>
<!-- Node24 -->
<g id="node24" class="node"><title>Node24</title>
<g id="a_node24"><a xlink:href="weavertracker_8h.html" target="_top" xlink:title=" ">
<polygon fill="none" stroke="black" points="1517.5,-56.5 1517.5,-75.5 1601.5,-75.5 1601.5,-56.5 1517.5,-56.5"/>
<text text-anchor="middle" x="1559.5" y="-63.5" font-family="Helvetica,sans-Serif" font-size="10.00">weavertracker.h</text>
</a>
</g>
</g>
<!-- Node5&#45;&gt;Node24 -->
<g id="edge24" class="edge"><title>Node5&#45;&gt;Node24</title>
<path fill="none" stroke="midnightblue" d="M881.044,-119.732C987.248,-116.22 1272.46,-104.67 1508.5,-76 1511.36,-75.6531 1514.3,-75.2523 1517.25,-74.8165"/>
<polygon fill="midnightblue" stroke="midnightblue" points="880.919,-116.234 871.038,-120.056 881.146,-123.23 880.919,-116.234"/>
</g>
<!-- Node25 -->
<g id="node25" class="node"><title>Node25</title>
<g id="a_node25"><a xlink:href="window_8h.html" target="_top" xlink:title=" ">
<polygon fill="none" stroke="black" points="1619.5,-56.5 1619.5,-75.5 1675.5,-75.5 1675.5,-56.5 1619.5,-56.5"/>
<text text-anchor="middle" x="1647.5" y="-63.5" font-family="Helvetica,sans-Serif" font-size="10.00">window.h</text>
</a>
</g>
</g>
<!-- Node5&#45;&gt;Node25 -->
<g id="edge26" class="edge"><title>Node5&#45;&gt;Node25</title>
<path fill="none" stroke="midnightblue" d="M881.424,-121.202C998.842,-121.174 1334.95,-117.199 1610.5,-76 1613.38,-75.5699 1616.36,-75.0217 1619.32,-74.4088"/>
<polygon fill="midnightblue" stroke="midnightblue" points="881.078,-117.702 871.076,-121.194 881.073,-124.702 881.078,-117.702"/>
</g>
<!-- Node26 -->
<g id="node26" class="node"><title>Node26</title>
<g id="a_node26"><a xlink:href="window2_8h.html" target="_top" xlink:title=" ">
<polygon fill="none" stroke="black" points="1693.5,-56.5 1693.5,-75.5 1755.5,-75.5 1755.5,-56.5 1693.5,-56.5"/>
<text text-anchor="middle" x="1724.5" y="-63.5" font-family="Helvetica,sans-Serif" font-size="10.00">window2.h</text>
</a>
</g>
</g>
<!-- Node5&#45;&gt;Node26 -->
<g id="edge27" class="edge"><title>Node5&#45;&gt;Node26</title>
<path fill="none" stroke="midnightblue" d="M881.634,-121.257C1006.54,-121.455 1379.05,-118.181 1684.5,-76 1687.32,-75.6105 1690.24,-75.123 1693.15,-74.5776"/>
<polygon fill="midnightblue" stroke="midnightblue" points="881.36,-117.757 871.351,-121.232 881.343,-124.757 881.36,-117.757"/>
</g>
<!-- Node10 -->
<g id="node10" class="node"><title>Node10</title>
<g id="a_node10"><a xlink:href="dxweaver_8h.html" target="_top" xlink:title=" ">
<polygon fill="none" stroke="black" points="384,-0.5 384,-19.5 449,-19.5 449,-0.5 384,-0.5"/>
<text text-anchor="middle" x="416.5" y="-7.5" font-family="Helvetica,sans-Serif" font-size="10.00">dxweaver.h</text>
</a>
</g>
</g>
<!-- Node9&#45;&gt;Node10 -->
<g id="edge10" class="edge"><title>Node9&#45;&gt;Node10</title>
<path fill="none" stroke="midnightblue" d="M416.5,-45.8045C416.5,-36.9102 416.5,-26.7798 416.5,-19.7511"/>
<polygon fill="midnightblue" stroke="midnightblue" points="413,-46.083 416.5,-56.083 420,-46.083 413,-46.083"/>
</g>
<!-- Node14 -->
<g id="node14" class="node"><title>Node14</title>
<g id="a_node14"><a xlink:href="predictingeyetracker_8h.html" target="_top" xlink:title=" ">
<polygon fill="none" stroke="black" points="633,-0.5 633,-19.5 746,-19.5 746,-0.5 633,-0.5"/>
<text text-anchor="middle" x="689.5" y="-7.5" font-family="Helvetica,sans-Serif" font-size="10.00">predictingeyetracker.h</text>
</a>
</g>
</g>
<!-- Node13&#45;&gt;Node14 -->
<g id="edge14" class="edge"><title>Node13&#45;&gt;Node14</title>
<path fill="none" stroke="midnightblue" d="M689.5,-45.8045C689.5,-36.9102 689.5,-26.7798 689.5,-19.7511"/>
<polygon fill="midnightblue" stroke="midnightblue" points="686,-46.083 689.5,-56.083 693,-46.083 686,-46.083"/>
</g>
<!-- Node15 -->
<g id="node15" class="node"><title>Node15</title>
<g id="a_node15"><a xlink:href="predictingweavertracker_8h.html" target="_top" xlink:title=" ">
<polygon fill="none" stroke="black" points="1130.5,-0.5 1130.5,-19.5 1256.5,-19.5 1256.5,-0.5 1130.5,-0.5"/>
<text text-anchor="middle" x="1193.5" y="-7.5" font-family="Helvetica,sans-Serif" font-size="10.00">predictingweavertracker.h</text>
</a>
</g>
</g>
<!-- Node13&#45;&gt;Node15 -->
<g id="edge15" class="edge"><title>Node13&#45;&gt;Node15</title>
<path fill="none" stroke="midnightblue" d="M735.421,-56.0084C882.51,-34.4989 1043.37,-21.4088 1130.15,-15.2045"/>
<polygon fill="midnightblue" stroke="midnightblue" points="734.685,-52.579 725.305,-57.5044 735.71,-59.5037 734.685,-52.579"/>
</g>
<!-- Node24&#45;&gt;Node15 -->
<g id="edge25" class="edge"><title>Node24&#45;&gt;Node15</title>
<path fill="none" stroke="midnightblue" d="M1507.34,-55.8571C1414.29,-41.1068 1318.07,-27.7139 1256.64,-19.4011"/>
<polygon fill="midnightblue" stroke="midnightblue" points="1507.07,-59.3582 1517.49,-57.4747 1508.17,-52.4453 1507.07,-59.3582"/>
</g>
</g>
</svg>
