<svg width="156" height="80" viewBox="0 0 156 80" fill="none" xmlns="http://www.w3.org/2000/svg">
<rect width="78" height="80" fill="black"/>
<path d="M53.2614 63.9977C47.646 63.9977 46.202 63.3848 42.2309 59.3119L31.2014 47.9996L20.1698 36.6851C16.1987 32.6122 15.6011 31.1312 15.6011 25.3717V16H29.3282C30.1393 16 30.4332 16.1535 30.7425 16.4696C31.0518 16.7857 31.2003 17.0882 31.2003 17.9202V35.1984C31.2003 39.9983 31.6384 42.571 34.0653 45.0601C36.4922 47.5492 39.0005 47.9985 43.6804 47.9985H60.5267C61.3379 47.9985 61.6317 48.1509 61.941 48.4681C62.2503 48.7842 62.3989 49.0867 62.3989 49.9187V63.9977H53.2614Z" fill="white"/>
<path d="M31.2014 47.9996H15.6011V51.1999C15.6011 55.9998 16.0391 58.5725 18.466 61.0616C20.8929 63.5507 23.4013 64 28.0811 64L31.2014 63.9989V47.9996Z" fill="white"/>
<path d="M78 76L151.895 76L151.895 4L78 4L78 0L156 -3.40949e-06L156 80L78 80L78 76Z" fill="black"/>
<path d="M101.267 27.3199C105.686 27.3199 111.411 29.0048 112.026 35.5194H106.839C106.493 33.1606 104.956 31.7005 101.651 31.7005C98.7694 31.7005 96.8866 32.7862 96.8866 34.8829C96.8866 36.7175 98.2699 37.5037 100.768 37.9904L103.842 38.5895C108.952 39.6004 111.873 41.5098 111.873 45.7032C111.873 50.533 107.799 53.678 101.651 53.678C95.1959 53.678 90.7001 50.3083 90.3158 44.842H95.5033C95.9259 47.5003 98.3468 49.1477 101.959 49.1477C104.841 49.1477 106.493 48.1368 106.493 46.3396C106.493 45.2164 105.84 44.0558 103.035 43.5691L98.8079 42.7828C93.6204 41.8094 91.3533 39.2634 91.3533 35.3322C91.3533 30.4649 95.3111 27.3199 101.267 27.3199Z" fill="black"/>
<path d="M139.579 53.2287H133.239L127.244 45.1416H121.865V53.2287H116.639V27.7692H127.667C133.546 27.7692 137.888 31.2137 137.888 36.4554C137.888 40.0122 135.89 42.7454 132.778 44.1307L139.579 53.2287ZM127.475 32.4867H121.865V40.4241H127.475C130.357 40.4241 132.739 38.889 132.739 36.4554C132.739 34.0218 130.357 32.4867 127.475 32.4867Z" fill="black"/>
</svg>
