<?xml version="1.0" encoding="UTF-8" standalone="no"?>
<!-- Generator: Adobe Illustrator 22.0.1, SVG Export Plug-In . SVG Version: 6.00 Build 0)  -->

<svg
   xmlns:dc="http://purl.org/dc/elements/1.1/"
   xmlns:cc="http://creativecommons.org/ns#"
   xmlns:rdf="http://www.w3.org/1999/02/22-rdf-syntax-ns#"
   xmlns:svg="http://www.w3.org/2000/svg"
   xmlns="http://www.w3.org/2000/svg"
   xmlns:sodipodi="http://sodipodi.sourceforge.net/DTD/sodipodi-0.dtd"
   xmlns:inkscape="http://www.inkscape.org/namespaces/inkscape"
   version="1.1"
   id="Laag_1"
   x="0px"
   y="0px"
   viewBox="0 0 63.4 73.800005"
   xml:space="preserve"
   sodipodi:docname="SR_SDK_icons_Cpp.svg"
   width="63.400002"
   height="73.800003"
   inkscape:version="0.92.5 (2060ec1f9f, 2020-04-08)"><metadata
   id="metadata51"><rdf:RDF><cc:Work
       rdf:about=""><dc:format>image/svg+xml</dc:format><dc:type
         rdf:resource="http://purl.org/dc/dcmitype/StillImage" /><dc:title></dc:title></cc:Work></rdf:RDF></metadata><defs
   id="defs49" /><sodipodi:namedview
   pagecolor="#ffffff"
   bordercolor="#666666"
   borderopacity="1"
   objecttolerance="10"
   gridtolerance="10"
   guidetolerance="10"
   inkscape:pageopacity="0"
   inkscape:pageshadow="2"
   inkscape:window-width="640"
   inkscape:window-height="480"
   id="namedview47"
   showgrid="false"
   fit-margin-top="0"
   fit-margin-left="0"
   fit-margin-right="0"
   fit-margin-bottom="0"
   inkscape:zoom="0.33733221"
   inkscape:cx="135.35001"
   inkscape:cy="186.45001"
   inkscape:window-x="0"
   inkscape:window-y="0"
   inkscape:window-maximized="0"
   inkscape:current-layer="Laag_1" />
<style
   type="text/css"
   id="style2">
	.st0{fill:#1D1D1B;}
	.st1{fill:#FFFFFF;}
</style>






<path
   class="st0"
   d="M 63,18 31.5,0 0,18 0,55 31.5,73 63,55 Z M 31.5,69.3 3.2,53.2 3.2,19.8 31.5,3.7 59.8,19.8 59.8,53.2 z"
   id="path36"
   inkscape:connector-curvature="0"
   style="fill:#1d1d1b" />
<g
   id="g44"
   transform="translate(-285.6,-410.3)">
	<path
   d="m 297.7,446.8 c 0,-7 5.3,-11.9 12.5,-11.9 4,0 7.3,1.5 9.5,4.1 l -3.4,3.2 c -1.6,-1.8 -3.5,-2.7 -5.8,-2.7 -4.3,0 -7.4,3 -7.4,7.4 0,4.4 3.1,7.4 7.4,7.4 2.3,0 4.3,-0.9 5.8,-2.7 l 3.4,3.2 c -2.2,2.7 -5.5,4.1 -9.5,4.1 -7.2,-0.2 -12.5,-5.2 -12.5,-12.1 z"
   id="path38"
   inkscape:connector-curvature="0" />
	<path
   d="m 326.5,447.8 h -3 v 2.9 h -2.2 v -2.9 h -3 v -2.1 h 3 v -2.9 h 2.2 v 2.9 h 3 z"
   id="path40"
   inkscape:connector-curvature="0" />
	<path
   d="m 337,447.8 h -3 v 2.9 h -2.2 v -2.9 h -3 v -2.1 h 3 v -2.9 h 2.2 v 2.9 h 3 z"
   id="path42"
   inkscape:connector-curvature="0" />
</g>
</svg>