<?xml version="1.0" encoding="UTF-8" standalone="no"?>
<!-- Generator: Adobe Illustrator 22.0.1, SVG Export Plug-In . SVG Version: 6.00 Build 0)  -->

<svg
   xmlns:dc="http://purl.org/dc/elements/1.1/"
   xmlns:cc="http://creativecommons.org/ns#"
   xmlns:rdf="http://www.w3.org/1999/02/22-rdf-syntax-ns#"
   xmlns:svg="http://www.w3.org/2000/svg"
   xmlns="http://www.w3.org/2000/svg"
   xmlns:sodipodi="http://sodipodi.sourceforge.net/DTD/sodipodi-0.dtd"
   xmlns:inkscape="http://www.inkscape.org/namespaces/inkscape"
   version="1.1"
   id="Laag_1"
   x="0px"
   y="0px"
   viewBox="0 0 63.4 73.800005"
   xml:space="preserve"
   sodipodi:docname="SR_SDK_icons_Unity.svg"
   width="63.400002"
   height="73.800003"
   inkscape:version="0.92.5 (2060ec1f9f, 2020-04-08)"><metadata
   id="metadata51"><rdf:RDF><cc:Work
       rdf:about=""><dc:format>image/svg+xml</dc:format><dc:type
         rdf:resource="http://purl.org/dc/dcmitype/StillImage" /><dc:title></dc:title></cc:Work></rdf:RDF></metadata><defs
   id="defs49" /><sodipodi:namedview
   pagecolor="#ffffff"
   bordercolor="#666666"
   borderopacity="1"
   objecttolerance="10"
   gridtolerance="10"
   guidetolerance="10"
   inkscape:pageopacity="0"
   inkscape:pageshadow="2"
   inkscape:window-width="640"
   inkscape:window-height="480"
   id="namedview47"
   showgrid="false"
   fit-margin-top="0"
   fit-margin-left="0"
   fit-margin-right="0"
   fit-margin-bottom="0"
   inkscape:zoom="0.95411959"
   inkscape:cx="177.97379"
   inkscape:cy="124.33089"
   inkscape:window-x="0"
   inkscape:window-y="0"
   inkscape:window-maximized="0"
   inkscape:current-layer="Laag_1" />
<style
   type="text/css"
   id="style2">
	.st0{fill:#1D1D1B;}
	.st1{fill:#FFFFFF;}
</style>




<path
   class="st0"
   d="M 63,18 31.5,0 0,18 0,55 31.5,73 63,55 Z M 31.5,69.3 3.2,53.2 3.2,19.8 31.5,3.7 59.8,19.8 59.8,53.2 z"
   id="path29"
   inkscape:connector-curvature="0"
   style="fill:#1d1d1b" />
<g
   id="i5jlsM.tif"
   transform="translate(-285.6,-312.5)">
	<g
   id="g33">
		<path
   d="m 328.6,331.5 c 1.2,4.4 2.4,8.8 3.6,13.2 0.4,1.3 0.4,2.3 -0.5,3.4 -1.3,1.5 -1.5,2.9 -0.1,4.5 0.9,1 1,2.2 0.6,3.5 -1.2,4 -2.2,8 -3.3,11.9 -0.1,0.3 -0.3,0.7 -0.4,1.1 -4.9,-1.3 -9.8,-2.5 -14.6,-3.9 -0.7,-0.2 -1.4,-1.3 -1.8,-2.1 -0.7,-1.5 -1.7,-2.2 -3.4,-1.9 -1.7,0.3 -3,-0.3 -4.1,-1.6 -2.9,-3.3 -5.9,-6.4 -8.9,-9.7 0.7,-0.7 1.9,-1.9 3.1,-3.1 2.2,-2.1 4.4,-4.2 6.5,-6.3 0.8,-0.8 1.5,-1.1 2.6,-1 0.2,0 0.5,0 0.7,0 1.8,0.4 3,-0.3 3.6,-2.1 0.5,-1.4 1.6,-2 3.1,-2.4 4.4,-1.1 8.7,-2.3 13,-3.4 0.1,-0.1 0.2,-0.1 0.3,-0.1 z m -25.4,17 c 4.2,0 8.4,0 12.6,0 0.3,0 0.6,-0.2 0.8,-0.4 2.2,-3.6 4.3,-7.1 6.6,-11 -4,1 -7.8,1.9 -11.6,2.9 -0.2,0.1 -0.4,0.2 -0.6,0.4 -2.5,2.6 -5.1,5.3 -7.8,8.1 z m 23.2,-9.6 c -2.3,3.8 -4.3,7.3 -6.4,10.7 -0.2,0.3 -0.3,0.8 -0.1,1.1 2.1,3.6 4.2,7.1 6.4,10.8 0.2,-0.3 0.3,-0.5 0.3,-0.6 1,-3.3 1.9,-6.7 2.9,-10 0.1,-0.3 0.1,-0.6 0.1,-0.8 -1,-3.7 -2.1,-7.3 -3.2,-11.2 z m -23.5,13.2 c 0.4,0.5 0.6,0.7 0.8,0.9 2.1,2.1 4.2,4.1 6.2,6.2 0.9,1 1.9,1.5 3.2,1.8 2.6,0.6 5.1,1.3 7.7,1.9 0.7,0.2 1.4,0.3 2.3,0.5 -2.2,-3.7 -4.2,-7.2 -6.4,-10.6 -0.2,-0.4 -1,-0.7 -1.5,-0.7 -2.7,-0.1 -5.5,0 -8.2,0 -1.2,0 -2.5,0 -4.1,0 z"
   id="path31"
   inkscape:connector-curvature="0" />
	</g>
</g>


</svg>