<?xml version="1.0" encoding="UTF-8" standalone="no"?>
<!DOCTYPE svg PUBLIC "-//W3C//DTD SVG 1.1//EN"
 "http://www.w3.org/Graphics/SVG/1.1/DTD/svg11.dtd">
<!-- Generated by graphviz version 2.38.0 (20140413.2041)
 -->
<!-- Title: srcontext.h Pages: 1 -->
<svg width="1744pt" height="140pt"
 viewBox="0.00 0.00 1744.00 140.00" xmlns="http://www.w3.org/2000/svg" xmlns:xlink="http://www.w3.org/1999/xlink">
<g id="graph0" class="graph" transform="scale(1 1) rotate(0) translate(4 136)">
<title>srcontext.h</title>
<!-- Node1 -->
<g id="node1" class="node"><title>Node1</title>
<g id="a_node1"><a xlink:title=" ">
<polygon fill="#bfbfbf" stroke="black" points="834.5,-112.5 834.5,-131.5 899.5,-131.5 899.5,-112.5 834.5,-112.5"/>
<text text-anchor="middle" x="867" y="-119.5" font-family="Helvetica,sans-Serif" font-size="10.00">srcontext.h</text>
</a>
</g>
</g>
<!-- Node2 -->
<g id="node2" class="node"><title>Node2</title>
<g id="a_node2"><a xlink:href="applicationsense_8h.html" target="_top" xlink:title=" ">
<polygon fill="none" stroke="black" points="0,-56.5 0,-75.5 98,-75.5 98,-56.5 0,-56.5"/>
<text text-anchor="middle" x="49" y="-63.5" font-family="Helvetica,sans-Serif" font-size="10.00">applicationsense.h</text>
</a>
</g>
</g>
<!-- Node1&#45;&gt;Node2 -->
<g id="edge1" class="edge"><title>Node1&#45;&gt;Node2</title>
<path fill="none" stroke="midnightblue" d="M824.091,-119.885C708.167,-116.564 379.1,-105.101 107,-76 104.062,-75.6858 101.045,-75.3272 98.0048,-74.9384"/>
<polygon fill="midnightblue" stroke="midnightblue" points="824.222,-123.39 834.316,-120.172 824.418,-116.393 824.222,-123.39"/>
</g>
<!-- Node3 -->
<g id="node3" class="node"><title>Node3</title>
<g id="a_node3"><a xlink:href="camera_8h.html" target="_top" xlink:title=" ">
<polygon fill="none" stroke="black" points="116.5,-56.5 116.5,-75.5 173.5,-75.5 173.5,-56.5 116.5,-56.5"/>
<text text-anchor="middle" x="145" y="-63.5" font-family="Helvetica,sans-Serif" font-size="10.00">camera.h</text>
</a>
</g>
</g>
<!-- Node1&#45;&gt;Node3 -->
<g id="edge2" class="edge"><title>Node1&#45;&gt;Node3</title>
<path fill="none" stroke="midnightblue" d="M824.221,-120.658C716.144,-119.26 423.6,-112.148 183,-76 179.916,-75.5366 176.713,-74.9492 173.534,-74.2973"/>
<polygon fill="midnightblue" stroke="midnightblue" points="824.354,-124.16 834.395,-120.78 824.438,-117.16 824.354,-124.16"/>
</g>
<!-- Node5 -->
<g id="node5" class="node"><title>Node5</title>
<g id="a_node5"><a xlink:href="display_8h.html" target="_top" xlink:title=" ">
<polygon fill="none" stroke="black" points="192,-56.5 192,-75.5 248,-75.5 248,-56.5 192,-56.5"/>
<text text-anchor="middle" x="220" y="-63.5" font-family="Helvetica,sans-Serif" font-size="10.00">display.h</text>
</a>
</g>
</g>
<!-- Node1&#45;&gt;Node5 -->
<g id="edge4" class="edge"><title>Node1&#45;&gt;Node5</title>
<path fill="none" stroke="midnightblue" d="M824.08,-120.263C724.078,-118.017 468.025,-109.216 257,-76 254.127,-75.5477 251.148,-74.985 248.185,-74.3633"/>
<polygon fill="midnightblue" stroke="midnightblue" points="824.308,-123.768 834.38,-120.483 824.457,-116.77 824.308,-123.768"/>
</g>
<!-- Node6 -->
<g id="node6" class="node"><title>Node6</title>
<g id="a_node6"><a xlink:href="dx10weaver_8h.html" target="_top" xlink:title=" ">
<polygon fill="none" stroke="black" points="266.5,-56.5 266.5,-75.5 341.5,-75.5 341.5,-56.5 266.5,-56.5"/>
<text text-anchor="middle" x="304" y="-63.5" font-family="Helvetica,sans-Serif" font-size="10.00">dx10weaver.h</text>
</a>
</g>
</g>
<!-- Node1&#45;&gt;Node6 -->
<g id="edge5" class="edge"><title>Node1&#45;&gt;Node6</title>
<path fill="none" stroke="midnightblue" d="M823.972,-118.807C735.089,-113.935 524.888,-100.649 350,-76 347.26,-75.6139 344.437,-75.1716 341.6,-74.6948"/>
<polygon fill="midnightblue" stroke="midnightblue" points="824.025,-122.314 834.199,-119.359 824.403,-115.325 824.025,-122.314"/>
</g>
<!-- Node7 -->
<g id="node7" class="node"><title>Node7</title>
<g id="a_node7"><a xlink:href="dx11weaver_8h.html" target="_top" xlink:title=" ">
<polygon fill="none" stroke="black" points="359.5,-56.5 359.5,-75.5 434.5,-75.5 434.5,-56.5 359.5,-56.5"/>
<text text-anchor="middle" x="397" y="-63.5" font-family="Helvetica,sans-Serif" font-size="10.00">dx11weaver.h</text>
</a>
</g>
</g>
<!-- Node1&#45;&gt;Node7 -->
<g id="edge6" class="edge"><title>Node1&#45;&gt;Node7</title>
<path fill="none" stroke="midnightblue" d="M824.213,-117.705C747.54,-111.523 581.773,-96.8988 443,-76 440.264,-75.588 437.444,-75.1267 434.609,-74.6364"/>
<polygon fill="midnightblue" stroke="midnightblue" points="824.181,-121.213 834.428,-118.521 824.739,-114.236 824.181,-121.213"/>
</g>
<!-- Node9 -->
<g id="node9" class="node"><title>Node9</title>
<g id="a_node9"><a xlink:href="dx12weaver_8h.html" target="_top" xlink:title=" ">
<polygon fill="none" stroke="black" points="452.5,-56.5 452.5,-75.5 527.5,-75.5 527.5,-56.5 452.5,-56.5"/>
<text text-anchor="middle" x="490" y="-63.5" font-family="Helvetica,sans-Serif" font-size="10.00">dx12weaver.h</text>
</a>
</g>
</g>
<!-- Node1&#45;&gt;Node9 -->
<g id="edge8" class="edge"><title>Node1&#45;&gt;Node9</title>
<path fill="none" stroke="midnightblue" d="M824.152,-115.903C761.105,-108.234 639.699,-92.8227 537,-76 533.966,-75.5031 530.828,-74.9618 527.678,-74.3994"/>
<polygon fill="midnightblue" stroke="midnightblue" points="823.777,-119.383 834.126,-117.11 824.619,-112.434 823.777,-119.383"/>
</g>
<!-- Node10 -->
<g id="node10" class="node"><title>Node10</title>
<g id="a_node10"><a xlink:href="dx9weaver_8h.html" target="_top" xlink:title=" ">
<polygon fill="none" stroke="black" points="546,-56.5 546,-75.5 616,-75.5 616,-56.5 546,-56.5"/>
<text text-anchor="middle" x="581" y="-63.5" font-family="Helvetica,sans-Serif" font-size="10.00">dx9weaver.h</text>
</a>
</g>
</g>
<!-- Node1&#45;&gt;Node10 -->
<g id="edge9" class="edge"><title>Node1&#45;&gt;Node10</title>
<path fill="none" stroke="midnightblue" d="M824.376,-113.312C775.999,-104.532 694.749,-89.6172 625,-76 622.092,-75.4323 619.078,-74.8348 616.053,-74.2289"/>
<polygon fill="midnightblue" stroke="midnightblue" points="824.012,-116.804 834.476,-115.143 825.261,-109.916 824.012,-116.804"/>
</g>
<!-- Node11 -->
<g id="node11" class="node"><title>Node11</title>
<g id="a_node11"><a xlink:href="eyetracker_8h.html" target="_top" xlink:title=" ">
<polygon fill="none" stroke="black" points="634.5,-56.5 634.5,-75.5 705.5,-75.5 705.5,-56.5 634.5,-56.5"/>
<text text-anchor="middle" x="670" y="-63.5" font-family="Helvetica,sans-Serif" font-size="10.00">eyetracker.h</text>
</a>
</g>
</g>
<!-- Node1&#45;&gt;Node11 -->
<g id="edge10" class="edge"><title>Node1&#45;&gt;Node11</title>
<path fill="none" stroke="midnightblue" d="M825.771,-109.699C788.591,-99.507 734.729,-84.7429 701.069,-75.5164"/>
<polygon fill="midnightblue" stroke="midnightblue" points="825.215,-113.175 835.785,-112.444 827.066,-106.424 825.215,-113.175"/>
</g>
<!-- Node14 -->
<g id="node14" class="node"><title>Node14</title>
<g id="a_node14"><a xlink:href="gestureanalyser_8h.html" target="_top" xlink:title=" ">
<polygon fill="none" stroke="black" points="724,-56.5 724,-75.5 818,-75.5 818,-56.5 724,-56.5"/>
<text text-anchor="middle" x="771" y="-63.5" font-family="Helvetica,sans-Serif" font-size="10.00">gestureanalyser.h</text>
</a>
</g>
</g>
<!-- Node1&#45;&gt;Node14 -->
<g id="edge13" class="edge"><title>Node1&#45;&gt;Node14</title>
<path fill="none" stroke="midnightblue" d="M842.426,-107.177C824.761,-97.2407 801.487,-84.1492 786.386,-75.6545"/>
<polygon fill="midnightblue" stroke="midnightblue" points="841.144,-110.472 851.576,-112.324 844.576,-104.371 841.144,-110.472"/>
</g>
<!-- Node15 -->
<g id="node15" class="node"><title>Node15</title>
<g id="a_node15"><a xlink:href="glweaver_8h.html" target="_top" xlink:title=" ">
<polygon fill="none" stroke="black" points="836,-56.5 836,-75.5 898,-75.5 898,-56.5 836,-56.5"/>
<text text-anchor="middle" x="867" y="-63.5" font-family="Helvetica,sans-Serif" font-size="10.00">glweaver.h</text>
</a>
</g>
</g>
<!-- Node1&#45;&gt;Node15 -->
<g id="edge14" class="edge"><title>Node1&#45;&gt;Node15</title>
<path fill="none" stroke="midnightblue" d="M867,-101.805C867,-92.9102 867,-82.7798 867,-75.7511"/>
<polygon fill="midnightblue" stroke="midnightblue" points="863.5,-102.083 867,-112.083 870.5,-102.083 863.5,-102.083"/>
</g>
<!-- Node16 -->
<g id="node16" class="node"><title>Node16</title>
<g id="a_node16"><a xlink:href="handtracker_8h.html" target="_top" xlink:title=" ">
<polygon fill="none" stroke="black" points="916,-56.5 916,-75.5 992,-75.5 992,-56.5 916,-56.5"/>
<text text-anchor="middle" x="954" y="-63.5" font-family="Helvetica,sans-Serif" font-size="10.00">handtracker.h</text>
</a>
</g>
</g>
<!-- Node1&#45;&gt;Node16 -->
<g id="edge15" class="edge"><title>Node1&#45;&gt;Node16</title>
<path fill="none" stroke="midnightblue" d="M889.716,-106.901C905.669,-96.9986 926.497,-84.0705 940.057,-75.6545"/>
<polygon fill="midnightblue" stroke="midnightblue" points="887.629,-104.077 880.978,-112.324 891.32,-110.024 887.629,-104.077"/>
</g>
<!-- Node17 -->
<g id="node17" class="node"><title>Node17</title>
<g id="a_node17"><a xlink:href="headposetracker_8h.html" target="_top" xlink:title=" ">
<polygon fill="none" stroke="black" points="1010.5,-56.5 1010.5,-75.5 1107.5,-75.5 1107.5,-56.5 1010.5,-56.5"/>
<text text-anchor="middle" x="1059" y="-63.5" font-family="Helvetica,sans-Serif" font-size="10.00">headposetracker.h</text>
</a>
</g>
</g>
<!-- Node1&#45;&gt;Node17 -->
<g id="edge16" class="edge"><title>Node1&#45;&gt;Node17</title>
<path fill="none" stroke="midnightblue" d="M907.183,-109.699C943.419,-99.507 995.914,-84.7429 1028.72,-75.5164"/>
<polygon fill="midnightblue" stroke="midnightblue" points="906.102,-106.367 897.423,-112.444 907.997,-113.105 906.102,-106.367"/>
</g>
<!-- Node18 -->
<g id="node18" class="node"><title>Node18</title>
<g id="a_node18"><a xlink:href="headtracker_8h.html" target="_top" xlink:title=" ">
<polygon fill="none" stroke="black" points="1126,-56.5 1126,-75.5 1202,-75.5 1202,-56.5 1126,-56.5"/>
<text text-anchor="middle" x="1164" y="-63.5" font-family="Helvetica,sans-Serif" font-size="10.00">headtracker.h</text>
</a>
</g>
</g>
<!-- Node1&#45;&gt;Node18 -->
<g id="edge17" class="edge"><title>Node1&#45;&gt;Node18</title>
<path fill="none" stroke="midnightblue" d="M909.683,-113.374C959.287,-104.491 1043.6,-89.3296 1116,-76 1119.17,-75.4166 1122.45,-74.8081 1125.75,-74.1949"/>
<polygon fill="midnightblue" stroke="midnightblue" points="908.868,-109.964 899.642,-115.171 910.102,-116.855 908.868,-109.964"/>
</g>
<!-- Node19 -->
<g id="node19" class="node"><title>Node19</title>
<g id="a_node19"><a xlink:href="screen_8h.html" target="_top" xlink:title=" ">
<polygon fill="none" stroke="black" points="1220,-56.5 1220,-75.5 1274,-75.5 1274,-56.5 1220,-56.5"/>
<text text-anchor="middle" x="1247" y="-63.5" font-family="Helvetica,sans-Serif" font-size="10.00">screen.h</text>
</a>
</g>
</g>
<!-- Node1&#45;&gt;Node19 -->
<g id="edge18" class="edge"><title>Node1&#45;&gt;Node19</title>
<path fill="none" stroke="midnightblue" d="M910.262,-116.952C975.713,-110.466 1103.66,-96.3693 1211,-76 1213.91,-75.4475 1216.94,-74.803 1219.95,-74.1173"/>
<polygon fill="midnightblue" stroke="midnightblue" points="909.538,-113.507 899.927,-117.965 910.221,-120.473 909.538,-113.507"/>
</g>
<!-- Node20 -->
<g id="node20" class="node"><title>Node20</title>
<g id="a_node20"><a xlink:href="switchablehint_8h.html" target="_top" xlink:title=" ">
<polygon fill="none" stroke="black" points="1292,-56.5 1292,-75.5 1378,-75.5 1378,-56.5 1292,-56.5"/>
<text text-anchor="middle" x="1335" y="-63.5" font-family="Helvetica,sans-Serif" font-size="10.00">switchablehint.h</text>
</a>
</g>
</g>
<!-- Node1&#45;&gt;Node20 -->
<g id="edge19" class="edge"><title>Node1&#45;&gt;Node20</title>
<path fill="none" stroke="midnightblue" d="M909.79,-117.277C985.317,-110.503 1147.13,-95.0864 1283,-76 1285.9,-75.5921 1288.89,-75.1456 1291.9,-74.6765"/>
<polygon fill="midnightblue" stroke="midnightblue" points="909.367,-113.801 899.717,-118.175 909.988,-120.773 909.367,-113.801"/>
</g>
<!-- Node21 -->
<g id="node21" class="node"><title>Node21</title>
<g id="a_node21"><a xlink:href="systemsense_8h.html" target="_top" xlink:title=" ">
<polygon fill="none" stroke="black" points="1396.5,-56.5 1396.5,-75.5 1479.5,-75.5 1479.5,-56.5 1396.5,-56.5"/>
<text text-anchor="middle" x="1438" y="-63.5" font-family="Helvetica,sans-Serif" font-size="10.00">systemsense.h</text>
</a>
</g>
</g>
<!-- Node1&#45;&gt;Node21 -->
<g id="edge20" class="edge"><title>Node1&#45;&gt;Node21</title>
<path fill="none" stroke="midnightblue" d="M909.913,-118.574C999.055,-113.251 1210.66,-99.1434 1387,-76 1390.03,-75.6022 1393.16,-75.1513 1396.3,-74.6685"/>
<polygon fill="midnightblue" stroke="midnightblue" points="909.436,-115.096 899.66,-119.179 909.849,-122.084 909.436,-115.096"/>
</g>
<!-- Node22 -->
<g id="node22" class="node"><title>Node22</title>
<g id="a_node22"><a xlink:href="weavertracker_8h.html" target="_top" xlink:title=" ">
<polygon fill="none" stroke="black" points="1498,-56.5 1498,-75.5 1582,-75.5 1582,-56.5 1498,-56.5"/>
<text text-anchor="middle" x="1540" y="-63.5" font-family="Helvetica,sans-Serif" font-size="10.00">weavertracker.h</text>
</a>
</g>
</g>
<!-- Node1&#45;&gt;Node22 -->
<g id="edge21" class="edge"><title>Node1&#45;&gt;Node22</title>
<path fill="none" stroke="midnightblue" d="M909.958,-119.409C1011.17,-115.331 1272.38,-102.878 1489,-76 1491.86,-75.6457 1494.79,-75.2394 1497.75,-74.7996"/>
<polygon fill="midnightblue" stroke="midnightblue" points="909.677,-115.918 899.824,-119.811 909.954,-122.912 909.677,-115.918"/>
</g>
<!-- Node23 -->
<g id="node23" class="node"><title>Node23</title>
<g id="a_node23"><a xlink:href="window_8h.html" target="_top" xlink:title=" ">
<polygon fill="none" stroke="black" points="1600,-56.5 1600,-75.5 1656,-75.5 1656,-56.5 1600,-56.5"/>
<text text-anchor="middle" x="1628" y="-63.5" font-family="Helvetica,sans-Serif" font-size="10.00">window.h</text>
</a>
</g>
</g>
<!-- Node1&#45;&gt;Node23 -->
<g id="edge23" class="edge"><title>Node1&#45;&gt;Node23</title>
<path fill="none" stroke="midnightblue" d="M909.942,-120.966C1022.42,-120.309 1334.67,-114.83 1591,-76 1593.88,-75.5643 1596.86,-75.0126 1599.82,-74.3974"/>
<polygon fill="midnightblue" stroke="midnightblue" points="909.672,-117.467 899.689,-121.016 909.706,-124.467 909.672,-117.467"/>
</g>
<!-- Node24 -->
<g id="node24" class="node"><title>Node24</title>
<g id="a_node24"><a xlink:href="window2_8h.html" target="_top" xlink:title=" ">
<polygon fill="none" stroke="black" points="1674,-56.5 1674,-75.5 1736,-75.5 1736,-56.5 1674,-56.5"/>
<text text-anchor="middle" x="1705" y="-63.5" font-family="Helvetica,sans-Serif" font-size="10.00">window2.h</text>
</a>
</g>
</g>
<!-- Node1&#45;&gt;Node24 -->
<g id="edge24" class="edge"><title>Node1&#45;&gt;Node24</title>
<path fill="none" stroke="midnightblue" d="M910.121,-121.061C1030.28,-120.694 1378.86,-115.981 1665,-76 1667.82,-75.606 1670.74,-75.1154 1673.65,-74.568"/>
<polygon fill="midnightblue" stroke="midnightblue" points="909.866,-117.561 899.874,-121.083 909.881,-124.561 909.866,-117.561"/>
</g>
<!-- Node4 -->
<g id="node4" class="node"><title>Node4</title>
<g id="a_node4"><a xlink:href="cameracontroller_8h.html" target="_top" xlink:title=" ">
<polygon fill="none" stroke="black" points="96.5,-0.5 96.5,-19.5 193.5,-19.5 193.5,-0.5 96.5,-0.5"/>
<text text-anchor="middle" x="145" y="-7.5" font-family="Helvetica,sans-Serif" font-size="10.00">cameracontroller.h</text>
</a>
</g>
</g>
<!-- Node3&#45;&gt;Node4 -->
<g id="edge3" class="edge"><title>Node3&#45;&gt;Node4</title>
<path fill="none" stroke="midnightblue" d="M145,-45.8045C145,-36.9102 145,-26.7798 145,-19.7511"/>
<polygon fill="midnightblue" stroke="midnightblue" points="141.5,-46.083 145,-56.083 148.5,-46.083 141.5,-46.083"/>
</g>
<!-- Node8 -->
<g id="node8" class="node"><title>Node8</title>
<g id="a_node8"><a xlink:href="dxweaver_8h.html" target="_top" xlink:title=" ">
<polygon fill="none" stroke="black" points="364.5,-0.5 364.5,-19.5 429.5,-19.5 429.5,-0.5 364.5,-0.5"/>
<text text-anchor="middle" x="397" y="-7.5" font-family="Helvetica,sans-Serif" font-size="10.00">dxweaver.h</text>
</a>
</g>
</g>
<!-- Node7&#45;&gt;Node8 -->
<g id="edge7" class="edge"><title>Node7&#45;&gt;Node8</title>
<path fill="none" stroke="midnightblue" d="M397,-45.8045C397,-36.9102 397,-26.7798 397,-19.7511"/>
<polygon fill="midnightblue" stroke="midnightblue" points="393.5,-46.083 397,-56.083 400.5,-46.083 393.5,-46.083"/>
</g>
<!-- Node12 -->
<g id="node12" class="node"><title>Node12</title>
<g id="a_node12"><a xlink:href="predictingeyetracker_8h.html" target="_top" xlink:title=" ">
<polygon fill="none" stroke="black" points="613.5,-0.5 613.5,-19.5 726.5,-19.5 726.5,-0.5 613.5,-0.5"/>
<text text-anchor="middle" x="670" y="-7.5" font-family="Helvetica,sans-Serif" font-size="10.00">predictingeyetracker.h</text>
</a>
</g>
</g>
<!-- Node11&#45;&gt;Node12 -->
<g id="edge11" class="edge"><title>Node11&#45;&gt;Node12</title>
<path fill="none" stroke="midnightblue" d="M670,-45.8045C670,-36.9102 670,-26.7798 670,-19.7511"/>
<polygon fill="midnightblue" stroke="midnightblue" points="666.5,-46.083 670,-56.083 673.5,-46.083 666.5,-46.083"/>
</g>
<!-- Node13 -->
<g id="node13" class="node"><title>Node13</title>
<g id="a_node13"><a xlink:href="predictingweavertracker_8h.html" target="_top" xlink:title=" ">
<polygon fill="none" stroke="black" points="1111,-0.5 1111,-19.5 1237,-19.5 1237,-0.5 1111,-0.5"/>
<text text-anchor="middle" x="1174" y="-7.5" font-family="Helvetica,sans-Serif" font-size="10.00">predictingweavertracker.h</text>
</a>
</g>
</g>
<!-- Node11&#45;&gt;Node13 -->
<g id="edge12" class="edge"><title>Node11&#45;&gt;Node13</title>
<path fill="none" stroke="midnightblue" d="M715.921,-56.0084C863.01,-34.4989 1023.87,-21.4088 1110.65,-15.2045"/>
<polygon fill="midnightblue" stroke="midnightblue" points="715.185,-52.579 705.805,-57.5044 716.21,-59.5037 715.185,-52.579"/>
</g>
<!-- Node22&#45;&gt;Node13 -->
<g id="edge22" class="edge"><title>Node22&#45;&gt;Node13</title>
<path fill="none" stroke="midnightblue" d="M1487.84,-55.8571C1394.79,-41.1068 1298.57,-27.7139 1237.14,-19.4011"/>
<polygon fill="midnightblue" stroke="midnightblue" points="1487.57,-59.3582 1497.99,-57.4747 1488.67,-52.4453 1487.57,-59.3582"/>
</g>
</g>
</svg>
