<?xml version="1.0" encoding="UTF-8" standalone="no"?>
<!DOCTYPE svg PUBLIC "-//W3C//DTD SVG 1.1//EN"
 "http://www.w3.org/Graphics/SVG/1.1/DTD/svg11.dtd">
<!-- Generated by graphviz version 2.38.0 (20140413.2041)
 -->
<!-- Title: srconfiguration.h Pages: 1 -->
<svg width="379pt" height="252pt"
 viewBox="0.00 0.00 378.50 252.00" xmlns="http://www.w3.org/2000/svg" xmlns:xlink="http://www.w3.org/1999/xlink">
<g id="graph0" class="graph" transform="scale(1 1) rotate(0) translate(4 248)">
<title>srconfiguration.h</title>
<!-- Node1 -->
<g id="node1" class="node"><title>Node1</title>
<g id="a_node1"><a xlink:title=" ">
<polygon fill="#bfbfbf" stroke="black" points="116.5,-224.5 116.5,-243.5 204.5,-243.5 204.5,-224.5 116.5,-224.5"/>
<text text-anchor="middle" x="160.5" y="-231.5" font-family="Helvetica,sans-Serif" font-size="10.00">srconfiguration.h</text>
</a>
</g>
</g>
<!-- Node2 -->
<g id="node2" class="node"><title>Node2</title>
<g id="a_node2"><a xlink:title=" ">
<polygon fill="none" stroke="#bfbfbf" points="51,-168.5 51,-187.5 86,-187.5 86,-168.5 51,-168.5"/>
<text text-anchor="middle" x="68.5" y="-175.5" font-family="Helvetica,sans-Serif" font-size="10.00">map</text>
</a>
</g>
</g>
<!-- Node1&#45;&gt;Node2 -->
<g id="edge1" class="edge"><title>Node1&#45;&gt;Node2</title>
<path fill="none" stroke="midnightblue" d="M145.719,-224.324C131.233,-215.822 108.927,-202.729 92.0068,-192.797"/>
<polygon fill="midnightblue" stroke="midnightblue" points="93.6406,-189.698 83.2447,-187.655 90.0972,-195.735 93.6406,-189.698"/>
</g>
<!-- Node3 -->
<g id="node3" class="node"><title>Node3</title>
<g id="a_node3"><a xlink:href="sense_8h.html" target="_top" xlink:title=" ">
<polygon fill="none" stroke="black" points="104,-168.5 104,-187.5 217,-187.5 217,-168.5 104,-168.5"/>
<text text-anchor="middle" x="160.5" y="-175.5" font-family="Helvetica,sans-Serif" font-size="10.00">sr/sense/core/sense.h</text>
</a>
</g>
</g>
<!-- Node1&#45;&gt;Node3 -->
<g id="edge2" class="edge"><title>Node1&#45;&gt;Node3</title>
<path fill="none" stroke="midnightblue" d="M160.5,-224.083C160.5,-217.006 160.5,-206.861 160.5,-197.986"/>
<polygon fill="midnightblue" stroke="midnightblue" points="164,-197.751 160.5,-187.751 157,-197.751 164,-197.751"/>
</g>
<!-- Node8 -->
<g id="node8" class="node"><title>Node8</title>
<g id="a_node8"><a xlink:href="transformation_8h.html" target="_top" xlink:title=" ">
<polygon fill="none" stroke="black" points="247.5,-112.5 247.5,-131.5 333.5,-131.5 333.5,-112.5 247.5,-112.5"/>
<text text-anchor="middle" x="290.5" y="-119.5" font-family="Helvetica,sans-Serif" font-size="10.00">transformation.h</text>
</a>
</g>
</g>
<!-- Node1&#45;&gt;Node8 -->
<g id="edge11" class="edge"><title>Node1&#45;&gt;Node8</title>
<path fill="none" stroke="midnightblue" d="M174.717,-224.44C188.483,-215.895 209.682,-202.045 226.5,-188 244.821,-172.7 263.753,-152.886 276.226,-139.175"/>
<polygon fill="midnightblue" stroke="midnightblue" points="279.02,-141.303 283.094,-131.523 273.81,-136.627 279.02,-141.303"/>
</g>
<!-- Node4 -->
<g id="node4" class="node"><title>Node4</title>
<g id="a_node4"><a xlink:title=" ">
<polygon fill="none" stroke="#bfbfbf" points="0,-112.5 0,-131.5 41,-131.5 41,-112.5 0,-112.5"/>
<text text-anchor="middle" x="20.5" y="-119.5" font-family="Helvetica,sans-Serif" font-size="10.00">string</text>
</a>
</g>
</g>
<!-- Node3&#45;&gt;Node4 -->
<g id="edge3" class="edge"><title>Node3&#45;&gt;Node4</title>
<path fill="none" stroke="midnightblue" d="M138.317,-168.444C114.661,-159.319 77.051,-144.813 50.7041,-134.65"/>
<polygon fill="midnightblue" stroke="midnightblue" points="51.8,-131.322 41.2104,-130.988 49.2809,-137.853 51.8,-131.322"/>
</g>
<!-- Node5 -->
<g id="node5" class="node"><title>Node5</title>
<g id="a_node5"><a xlink:title=" ">
<polygon fill="none" stroke="#bfbfbf" points="59.5,-112.5 59.5,-131.5 105.5,-131.5 105.5,-112.5 59.5,-112.5"/>
<text text-anchor="middle" x="82.5" y="-119.5" font-family="Helvetica,sans-Serif" font-size="10.00">chrono</text>
</a>
</g>
</g>
<!-- Node3&#45;&gt;Node5 -->
<g id="edge4" class="edge"><title>Node3&#45;&gt;Node5</title>
<path fill="none" stroke="midnightblue" d="M147.968,-168.324C135.914,-159.979 117.473,-147.212 103.231,-137.352"/>
<polygon fill="midnightblue" stroke="midnightblue" points="105.215,-134.469 95.0009,-131.655 101.231,-140.224 105.215,-134.469"/>
</g>
<!-- Node6 -->
<g id="node6" class="node"><title>Node6</title>
<g id="a_node6"><a xlink:title=" ">
<polygon fill="none" stroke="#bfbfbf" points="123.5,-112.5 123.5,-131.5 167.5,-131.5 167.5,-112.5 123.5,-112.5"/>
<text text-anchor="middle" x="145.5" y="-119.5" font-family="Helvetica,sans-Serif" font-size="10.00">thread</text>
</a>
</g>
</g>
<!-- Node3&#45;&gt;Node6 -->
<g id="edge5" class="edge"><title>Node3&#45;&gt;Node6</title>
<path fill="none" stroke="midnightblue" d="M158.023,-168.083C156.014,-160.849 153.114,-150.409 150.61,-141.397"/>
<polygon fill="midnightblue" stroke="midnightblue" points="153.98,-140.449 147.931,-131.751 147.235,-142.323 153.98,-140.449"/>
</g>
<!-- Node7 -->
<g id="node7" class="node"><title>Node7</title>
<g id="a_node7"><a xlink:title=" ">
<polygon fill="none" stroke="#bfbfbf" points="185.5,-112.5 185.5,-131.5 229.5,-131.5 229.5,-112.5 185.5,-112.5"/>
<text text-anchor="middle" x="207.5" y="-119.5" font-family="Helvetica,sans-Serif" font-size="10.00">mutex</text>
</a>
</g>
</g>
<!-- Node3&#45;&gt;Node7 -->
<g id="edge6" class="edge"><title>Node3&#45;&gt;Node7</title>
<path fill="none" stroke="midnightblue" d="M168.261,-168.083C175.037,-160.298 185.043,-148.801 193.255,-139.367"/>
<polygon fill="midnightblue" stroke="midnightblue" points="195.958,-141.592 199.883,-131.751 190.678,-136.996 195.958,-141.592"/>
</g>
<!-- Node3&#45;&gt;Node8 -->
<g id="edge7" class="edge"><title>Node3&#45;&gt;Node8</title>
<path fill="none" stroke="midnightblue" d="M181.099,-168.444C202.493,-159.557 236.181,-145.563 260.524,-135.451"/>
<polygon fill="midnightblue" stroke="midnightblue" points="262.105,-138.585 269.997,-131.516 259.42,-132.12 262.105,-138.585"/>
</g>
<!-- Node9 -->
<g id="node9" class="node"><title>Node9</title>
<g id="a_node9"><a xlink:title=" ">
<polygon fill="none" stroke="#bfbfbf" points="188.5,-56.5 188.5,-75.5 292.5,-75.5 292.5,-56.5 188.5,-56.5"/>
<text text-anchor="middle" x="240.5" y="-63.5" font-family="Helvetica,sans-Serif" font-size="10.00">opencv2/opencv.hpp</text>
</a>
</g>
</g>
<!-- Node8&#45;&gt;Node9 -->
<g id="edge8" class="edge"><title>Node8&#45;&gt;Node9</title>
<path fill="none" stroke="midnightblue" d="M282.244,-112.083C275.035,-104.298 264.39,-92.8015 255.654,-83.3665"/>
<polygon fill="midnightblue" stroke="midnightblue" points="257.965,-80.7108 248.603,-75.7511 252.829,-85.4666 257.965,-80.7108"/>
</g>
<!-- Node10 -->
<g id="node10" class="node"><title>Node10</title>
<g id="a_node10"><a xlink:href="types_8h.html" target="_top" xlink:title=" ">
<polygon fill="none" stroke="black" points="310.5,-56.5 310.5,-75.5 370.5,-75.5 370.5,-56.5 310.5,-56.5"/>
<text text-anchor="middle" x="340.5" y="-63.5" font-family="Helvetica,sans-Serif" font-size="10.00">sr/types.h</text>
</a>
</g>
</g>
<!-- Node8&#45;&gt;Node10 -->
<g id="edge9" class="edge"><title>Node8&#45;&gt;Node10</title>
<path fill="none" stroke="midnightblue" d="M298.756,-112.083C305.965,-104.298 316.61,-92.8015 325.346,-83.3665"/>
<polygon fill="midnightblue" stroke="midnightblue" points="328.171,-85.4666 332.397,-75.7511 323.035,-80.7108 328.171,-85.4666"/>
</g>
<!-- Node11 -->
<g id="node11" class="node"><title>Node11</title>
<g id="a_node11"><a xlink:title=" ">
<polygon fill="none" stroke="#bfbfbf" points="316,-0.5 316,-19.5 365,-19.5 365,-0.5 316,-0.5"/>
<text text-anchor="middle" x="340.5" y="-7.5" font-family="Helvetica,sans-Serif" font-size="10.00">stdint.h</text>
</a>
</g>
</g>
<!-- Node10&#45;&gt;Node11 -->
<g id="edge10" class="edge"><title>Node10&#45;&gt;Node11</title>
<path fill="none" stroke="midnightblue" d="M340.5,-56.083C340.5,-49.0059 340.5,-38.8611 340.5,-29.9865"/>
<polygon fill="midnightblue" stroke="midnightblue" points="344,-29.751 340.5,-19.7511 337,-29.7511 344,-29.751"/>
</g>
</g>
</svg>
