<?xml version="1.0" encoding="UTF-8" standalone="no"?>
<!DOCTYPE svg PUBLIC "-//W3C//DTD SVG 1.1//EN"
 "http://www.w3.org/Graphics/SVG/1.1/DTD/svg11.dtd">
<!-- Generated by graphviz version 2.38.0 (20140413.2041)
 -->
<!-- Title: SR::MonitorData Pages: 1 -->
<svg width="265pt" height="184pt"
 viewBox="0.00 0.00 265.00 184.00" xmlns="http://www.w3.org/2000/svg" xmlns:xlink="http://www.w3.org/1999/xlink">
<g id="graph0" class="graph" transform="scale(1 1) rotate(0) translate(4 180)">
<title>SR::MonitorData</title>
<!-- Node1 -->
<g id="node1" class="node"><title>Node1</title>
<g id="a_node1"><a xlink:title=" ">
<polygon fill="#bfbfbf" stroke="black" points="72.5,-0.5 72.5,-19.5 161.5,-19.5 161.5,-0.5 72.5,-0.5"/>
<text text-anchor="middle" x="117" y="-7.5" font-family="Helvetica,sans-Serif" font-size="10.00">SR::MonitorData</text>
</a>
</g>
</g>
<!-- Node2 -->
<g id="node2" class="node"><title>Node2</title>
<g id="a_node2"><a xlink:href="unionSR__recti.html" target="_top" xlink:title="C&#45;compatible integer rectangle representation.">
<polygon fill="none" stroke="black" points="7,-78.5 7,-97.5 61,-97.5 61,-78.5 7,-78.5"/>
<text text-anchor="middle" x="34" y="-85.5" font-family="Helvetica,sans-Serif" font-size="10.00">SR_recti</text>
</a>
</g>
</g>
<!-- Node2&#45;&gt;Node1 -->
<g id="edge1" class="edge"><title>Node2&#45;&gt;Node1</title>
<path fill="none" stroke="#9a32cd" stroke-dasharray="5,2" d="M44.3183,-69.4464C50.8087,-59.4122 59.8599,-47.0618 70,-38 78.2797,-30.6008 88.9124,-24.2862 97.9697,-19.6284"/>
<polygon fill="#9a32cd" stroke="#9a32cd" points="41.2049,-67.8269 38.9284,-78.1743 47.1607,-71.505 41.2049,-67.8269"/>
<text text-anchor="middle" x="91.5" y="-46.5" font-family="Helvetica,sans-Serif" font-size="10.00"> rectangle</text>
</g>
<!-- Node3 -->
<g id="node3" class="node"><title>Node3</title>
<g id="a_node3"><a xlink:href="unionSR__vector2i.html" target="_top" xlink:title="C&#45;compatible 2d integer vector representation.">
<polygon fill="none" stroke="black" points="0,-156.5 0,-175.5 68,-175.5 68,-156.5 0,-156.5"/>
<text text-anchor="middle" x="34" y="-163.5" font-family="Helvetica,sans-Serif" font-size="10.00">SR_vector2i</text>
</a>
</g>
</g>
<!-- Node3&#45;&gt;Node2 -->
<g id="edge2" class="edge"><title>Node3&#45;&gt;Node2</title>
<path fill="none" stroke="#9a32cd" stroke-dasharray="5,2" d="M34,-146.224C34,-130.697 34,-109.358 34,-97.6165"/>
<polygon fill="#9a32cd" stroke="#9a32cd" points="30.5001,-146.282 34,-156.282 37.5001,-146.282 30.5001,-146.282"/>
<text text-anchor="middle" x="62" y="-130" font-family="Helvetica,sans-Serif" font-size="10.00"> bottomRight</text>
<text text-anchor="middle" x="62" y="-119" font-family="Helvetica,sans-Serif" font-size="10.00">topLeft</text>
</g>
<!-- Node4 -->
<g id="node4" class="node"><title>Node4</title>
<g id="a_node4"><a xlink:href="unionSR_1_1EdidData.html" target="_top" xlink:title=" ">
<polygon fill="none" stroke="black" points="79,-78.5 79,-97.5 155,-97.5 155,-78.5 79,-78.5"/>
<text text-anchor="middle" x="117" y="-85.5" font-family="Helvetica,sans-Serif" font-size="10.00">SR::EdidData</text>
</a>
</g>
</g>
<!-- Node4&#45;&gt;Node1 -->
<g id="edge3" class="edge"><title>Node4&#45;&gt;Node1</title>
<path fill="none" stroke="#9a32cd" stroke-dasharray="5,2" d="M117,-68.2239C117,-52.6974 117,-31.3582 117,-19.6165"/>
<polygon fill="#9a32cd" stroke="#9a32cd" points="113.5,-68.2818 117,-78.2818 120.5,-68.2819 113.5,-68.2818"/>
<text text-anchor="middle" x="128" y="-46.5" font-family="Helvetica,sans-Serif" font-size="10.00"> edid</text>
</g>
<!-- Node5 -->
<g id="node5" class="node"><title>Node5</title>
<g id="a_node5"><a xlink:href="structSR_1_1Resolution.html" target="_top" xlink:title=" ">
<polygon fill="none" stroke="black" points="173,-78.5 173,-97.5 255,-97.5 255,-78.5 173,-78.5"/>
<text text-anchor="middle" x="214" y="-85.5" font-family="Helvetica,sans-Serif" font-size="10.00">SR::Resolution</text>
</a>
</g>
</g>
<!-- Node5&#45;&gt;Node1 -->
<g id="edge4" class="edge"><title>Node5&#45;&gt;Node1</title>
<path fill="none" stroke="#9a32cd" stroke-dasharray="5,2" d="M194.779,-71.9404C174.798,-56.2848 144.22,-32.3271 127.997,-19.6165"/>
<polygon fill="#9a32cd" stroke="#9a32cd" points="192.843,-74.8694 202.873,-78.2818 197.16,-69.3593 192.843,-74.8694"/>
<text text-anchor="middle" x="217" y="-52" font-family="Helvetica,sans-Serif" font-size="10.00"> displayResolution</text>
<text text-anchor="middle" x="217" y="-41" font-family="Helvetica,sans-Serif" font-size="10.00">nativeResolution</text>
</g>
</g>
</svg>
