<?xml version="1.0" encoding="UTF-8" standalone="no"?>
<!DOCTYPE svg PUBLIC "-//W3C//DTD SVG 1.1//EN"
 "http://www.w3.org/Graphics/SVG/1.1/DTD/svg11.dtd">
<!-- Generated by graphviz version 2.38.0 (20140413.2041)
 -->
<!-- Title: SR_handPose Pages: 1 -->
<svg width="214pt" height="307pt"
 viewBox="0.00 0.00 214.42 307.00" xmlns="http://www.w3.org/2000/svg" xmlns:xlink="http://www.w3.org/1999/xlink">
<g id="graph0" class="graph" transform="scale(1 1) rotate(0) translate(4 303)">
<title>SR_handPose</title>
<!-- Node1 -->
<g id="node1" class="node"><title>Node1</title>
<g id="a_node1"><a xlink:title="C&#45;compatible struct containing the pose of a hand.">
<polygon fill="#bfbfbf" stroke="black" points="31.9222,-0.5 31.9222,-19.5 110.922,-19.5 110.922,-0.5 31.9222,-0.5"/>
<text text-anchor="middle" x="71.4222" y="-7.5" font-family="Helvetica,sans-Serif" font-size="10.00">SR_handPose</text>
</a>
</g>
</g>
<!-- Node2 -->
<g id="node2" class="node"><title>Node2</title>
<g id="a_node2"><a xlink:href="unionSR__vector3d.html" target="_top" xlink:title="C&#45;compatible 3d double vector representation.">
<polygon fill="none" stroke="black" points="35.9222,-279.5 35.9222,-298.5 106.922,-298.5 106.922,-279.5 35.9222,-279.5"/>
<text text-anchor="middle" x="71.4222" y="-286.5" font-family="Helvetica,sans-Serif" font-size="10.00">SR_vector3d</text>
</a>
</g>
</g>
<!-- Node2&#45;&gt;Node1 -->
<g id="edge1" class="edge"><title>Node2&#45;&gt;Node1</title>
<path fill="none" stroke="#9a32cd" stroke-dasharray="5,2" d="M57.1783,-271.239C32.5124,-240.115 -13.8456,-171.085 4.42221,-111 16.0328,-72.8116 47.6141,-35.9418 62.903,-19.6809"/>
<polygon fill="#9a32cd" stroke="#9a32cd" points="54.7287,-273.773 63.7657,-279.304 60.1499,-269.345 54.7287,-273.773"/>
<text text-anchor="middle" x="17.9222" y="-136" font-family="Helvetica,sans-Serif" font-size="10.00"> joints</text>
<text text-anchor="middle" x="17.9222" y="-125" font-family="Helvetica,sans-Serif" font-size="10.00">palm</text>
<text text-anchor="middle" x="17.9222" y="-114" font-family="Helvetica,sans-Serif" font-size="10.00">wrist</text>
</g>
<!-- Node3 -->
<g id="node3" class="node"><title>Node3</title>
<g id="a_node3"><a xlink:href="unionSR__thumb.html" target="_top" xlink:title="C&#45;compatible struct containing the part of the pose representing a thumb.">
<polygon fill="none" stroke="black" points="40.4222,-118 40.4222,-137 102.422,-137 102.422,-118 40.4222,-118"/>
<text text-anchor="middle" x="71.4222" y="-125" font-family="Helvetica,sans-Serif" font-size="10.00">SR_thumb</text>
</a>
</g>
</g>
<!-- Node2&#45;&gt;Node3 -->
<g id="edge3" class="edge"><title>Node2&#45;&gt;Node3</title>
<path fill="none" stroke="#9a32cd" stroke-dasharray="5,2" d="M71.4222,-269.28C71.4222,-234.697 71.4222,-162.054 71.4222,-137.118"/>
<polygon fill="#9a32cd" stroke="#9a32cd" points="67.9223,-269.425 71.4222,-279.425 74.9223,-269.425 67.9223,-269.425"/>
<text text-anchor="middle" x="95.9222" y="-242" font-family="Helvetica,sans-Serif" font-size="10.00"> a</text>
<text text-anchor="middle" x="95.9222" y="-231" font-family="Helvetica,sans-Serif" font-size="10.00">b</text>
<text text-anchor="middle" x="95.9222" y="-220" font-family="Helvetica,sans-Serif" font-size="10.00">distal</text>
<text text-anchor="middle" x="95.9222" y="-209" font-family="Helvetica,sans-Serif" font-size="10.00">joints</text>
<text text-anchor="middle" x="95.9222" y="-198" font-family="Helvetica,sans-Serif" font-size="10.00">metacarpal</text>
<text text-anchor="middle" x="95.9222" y="-187" font-family="Helvetica,sans-Serif" font-size="10.00">proximal</text>
<text text-anchor="middle" x="95.9222" y="-176" font-family="Helvetica,sans-Serif" font-size="10.00">tip</text>
</g>
<!-- Node4 -->
<g id="node4" class="node"><title>Node4</title>
<g id="a_node4"><a xlink:href="unionSR__finger.html" target="_top" xlink:title="C&#45;compatible struct containing a part of the pose representing a finger.">
<polygon fill="none" stroke="black" points="120.922,-118 120.922,-137 179.922,-137 179.922,-118 120.922,-118"/>
<text text-anchor="middle" x="150.422" y="-125" font-family="Helvetica,sans-Serif" font-size="10.00">SR_finger</text>
</a>
</g>
</g>
<!-- Node2&#45;&gt;Node4 -->
<g id="edge5" class="edge"><title>Node2&#45;&gt;Node4</title>
<path fill="none" stroke="#9a32cd" stroke-dasharray="5,2" d="M108.383,-274.748C114.492,-271.117 120.2,-266.593 124.422,-261 153.52,-222.46 152.624,-160.149 151.164,-137.278"/>
<polygon fill="#9a32cd" stroke="#9a32cd" points="106.555,-271.752 99.271,-279.446 109.763,-277.974 106.555,-271.752"/>
<text text-anchor="middle" x="179.422" y="-253" font-family="Helvetica,sans-Serif" font-size="10.00"> a</text>
<text text-anchor="middle" x="179.422" y="-242" font-family="Helvetica,sans-Serif" font-size="10.00">b</text>
<text text-anchor="middle" x="179.422" y="-231" font-family="Helvetica,sans-Serif" font-size="10.00">c</text>
<text text-anchor="middle" x="179.422" y="-220" font-family="Helvetica,sans-Serif" font-size="10.00">distal</text>
<text text-anchor="middle" x="179.422" y="-209" font-family="Helvetica,sans-Serif" font-size="10.00">intermediate</text>
<text text-anchor="middle" x="179.422" y="-198" font-family="Helvetica,sans-Serif" font-size="10.00">joints</text>
<text text-anchor="middle" x="179.422" y="-187" font-family="Helvetica,sans-Serif" font-size="10.00">metacarpal</text>
<text text-anchor="middle" x="179.422" y="-176" font-family="Helvetica,sans-Serif" font-size="10.00">proximal</text>
<text text-anchor="middle" x="179.422" y="-165" font-family="Helvetica,sans-Serif" font-size="10.00">tip</text>
</g>
<!-- Node3&#45;&gt;Node1 -->
<g id="edge2" class="edge"><title>Node3&#45;&gt;Node1</title>
<path fill="none" stroke="#9a32cd" stroke-dasharray="5,2" d="M71.4222,-107.664C71.4222,-82.3651 71.4222,-38.4353 71.4222,-19.782"/>
<polygon fill="#9a32cd" stroke="#9a32cd" points="67.9223,-107.819 71.4222,-117.819 74.9223,-107.819 67.9223,-107.819"/>
<text text-anchor="middle" x="86.9222" y="-63" font-family="Helvetica,sans-Serif" font-size="10.00"> thumb</text>
</g>
<!-- Node4&#45;&gt;Node1 -->
<g id="edge4" class="edge"><title>Node4&#45;&gt;Node1</title>
<path fill="none" stroke="#9a32cd" stroke-dasharray="5,2" d="M144.239,-108.48C137.146,-89.5571 124.165,-59.605 106.422,-38 100.48,-30.7645 92.2528,-24.2933 85.2677,-19.5012"/>
<polygon fill="#9a32cd" stroke="#9a32cd" points="140.973,-109.74 147.647,-117.968 147.561,-107.374 140.973,-109.74"/>
<text text-anchor="middle" x="154.422" y="-85" font-family="Helvetica,sans-Serif" font-size="10.00"> fingers</text>
<text text-anchor="middle" x="154.422" y="-74" font-family="Helvetica,sans-Serif" font-size="10.00">index</text>
<text text-anchor="middle" x="154.422" y="-63" font-family="Helvetica,sans-Serif" font-size="10.00">middle</text>
<text text-anchor="middle" x="154.422" y="-52" font-family="Helvetica,sans-Serif" font-size="10.00">pinky</text>
<text text-anchor="middle" x="154.422" y="-41" font-family="Helvetica,sans-Serif" font-size="10.00">ring</text>
</g>
</g>
</svg>
