<?xml version="1.0" encoding="UTF-8" standalone="no"?>
<!DOCTYPE svg PUBLIC "-//W3C//DTD SVG 1.1//EN"
 "http://www.w3.org/Graphics/SVG/1.1/DTD/svg11.dtd">
<!-- Generated by graphviz version 2.38.0 (20140413.2041)
 -->
<!-- Title: SR_head Pages: 1 -->
<svg width="258pt" height="184pt"
 viewBox="0.00 0.00 257.50 184.00" xmlns="http://www.w3.org/2000/svg" xmlns:xlink="http://www.w3.org/1999/xlink">
<g id="graph0" class="graph" transform="scale(1 1) rotate(0) translate(4 180)">
<title>SR_head</title>
<!-- Node1 -->
<g id="node1" class="node"><title>Node1</title>
<g id="a_node1"><a xlink:title="C&#45;compatible struct containing the position of head.">
<polygon fill="#bfbfbf" stroke="black" points="103.5,-0.5 103.5,-19.5 159.5,-19.5 159.5,-0.5 103.5,-0.5"/>
<text text-anchor="middle" x="131.5" y="-7.5" font-family="Helvetica,sans-Serif" font-size="10.00">SR_head</text>
</a>
</g>
</g>
<!-- Node2 -->
<g id="node2" class="node"><title>Node2</title>
<g id="a_node2"><a xlink:href="structSR__headPose.html" target="_top" xlink:title=" ">
<polygon fill="none" stroke="black" points="0,-67.5 0,-86.5 79,-86.5 79,-67.5 0,-67.5"/>
<text text-anchor="middle" x="39.5" y="-74.5" font-family="Helvetica,sans-Serif" font-size="10.00">SR_headPose</text>
</a>
</g>
</g>
<!-- Node2&#45;&gt;Node1 -->
<g id="edge1" class="edge"><title>Node2&#45;&gt;Node1</title>
<path fill="none" stroke="#9a32cd" stroke-dasharray="5,2" d="M54.6309,-60.1875C62.035,-52.9329 71.3164,-44.5171 80.5,-38 90.4677,-30.9265 102.518,-24.4629 112.401,-19.6344"/>
<polygon fill="#9a32cd" stroke="#9a32cd" points="51.9787,-57.8915 47.4272,-67.4589 56.9516,-62.8181 51.9787,-57.8915"/>
<text text-anchor="middle" x="104" y="-41" font-family="Helvetica,sans-Serif" font-size="10.00"> headPose</text>
</g>
<!-- Node3 -->
<g id="node3" class="node"><title>Node3</title>
<g id="a_node3"><a xlink:href="unionSR__vector3d.html" target="_top" xlink:title="C&#45;compatible 3d double vector representation.">
<polygon fill="none" stroke="black" points="96,-156.5 96,-175.5 167,-175.5 167,-156.5 96,-156.5"/>
<text text-anchor="middle" x="131.5" y="-163.5" font-family="Helvetica,sans-Serif" font-size="10.00">SR_vector3d</text>
</a>
</g>
</g>
<!-- Node3&#45;&gt;Node2 -->
<g id="edge2" class="edge"><title>Node3&#45;&gt;Node2</title>
<path fill="none" stroke="#9a32cd" stroke-dasharray="5,2" d="M99.3484,-152.019C92.017,-148.171 84.5987,-143.489 78.5,-138 61.8775,-123.04 49.3494,-99.4546 43.3758,-86.7691"/>
<polygon fill="#9a32cd" stroke="#9a32cd" points="97.957,-155.234 108.482,-156.445 101.009,-148.935 97.957,-155.234"/>
<text text-anchor="middle" x="103" y="-124.5" font-family="Helvetica,sans-Serif" font-size="10.00"> orientation</text>
<text text-anchor="middle" x="103" y="-113.5" font-family="Helvetica,sans-Serif" font-size="10.00">position</text>
</g>
<!-- Node4 -->
<g id="node4" class="node"><title>Node4</title>
<g id="a_node4"><a xlink:href="structSR__eyePair.html" target="_top" xlink:title="C&#45;compatible struct containing the position of two eyes.">
<polygon fill="none" stroke="black" points="97.5,-67.5 97.5,-86.5 165.5,-86.5 165.5,-67.5 97.5,-67.5"/>
<text text-anchor="middle" x="131.5" y="-74.5" font-family="Helvetica,sans-Serif" font-size="10.00">SR_eyePair</text>
</a>
</g>
</g>
<!-- Node3&#45;&gt;Node4 -->
<g id="edge4" class="edge"><title>Node3&#45;&gt;Node4</title>
<path fill="none" stroke="#9a32cd" stroke-dasharray="5,2" d="M131.5,-146.195C131.5,-127.738 131.5,-100.412 131.5,-86.6249"/>
<polygon fill="#9a32cd" stroke="#9a32cd" points="128,-146.34 131.5,-156.34 135,-146.34 128,-146.34"/>
<text text-anchor="middle" x="144" y="-130" font-family="Helvetica,sans-Serif" font-size="10.00"> eyes</text>
<text text-anchor="middle" x="144" y="-119" font-family="Helvetica,sans-Serif" font-size="10.00">left</text>
<text text-anchor="middle" x="144" y="-108" font-family="Helvetica,sans-Serif" font-size="10.00">right</text>
</g>
<!-- Node5 -->
<g id="node5" class="node"><title>Node5</title>
<g id="a_node5"><a xlink:href="structSR__earPair.html" target="_top" xlink:title=" ">
<polygon fill="none" stroke="black" points="183.5,-67.5 183.5,-86.5 249.5,-86.5 249.5,-67.5 183.5,-67.5"/>
<text text-anchor="middle" x="216.5" y="-74.5" font-family="Helvetica,sans-Serif" font-size="10.00">SR_earPair</text>
</a>
</g>
</g>
<!-- Node3&#45;&gt;Node5 -->
<g id="edge6" class="edge"><title>Node3&#45;&gt;Node5</title>
<path fill="none" stroke="#9a32cd" stroke-dasharray="5,2" d="M148.682,-149.376C152.615,-145.696 156.743,-141.752 160.5,-138 178.244,-120.278 198.059,-98.5645 208.71,-86.7241"/>
<polygon fill="#9a32cd" stroke="#9a32cd" points="146.036,-147.055 141.062,-156.409 150.784,-152.198 146.036,-147.055"/>
<text text-anchor="middle" x="202.5" y="-130" font-family="Helvetica,sans-Serif" font-size="10.00"> ears</text>
<text text-anchor="middle" x="202.5" y="-119" font-family="Helvetica,sans-Serif" font-size="10.00">left</text>
<text text-anchor="middle" x="202.5" y="-108" font-family="Helvetica,sans-Serif" font-size="10.00">right</text>
</g>
<!-- Node4&#45;&gt;Node1 -->
<g id="edge3" class="edge"><title>Node4&#45;&gt;Node1</title>
<path fill="none" stroke="#9a32cd" stroke-dasharray="5,2" d="M131.5,-57.037C131.5,-44.6703 131.5,-29.1198 131.5,-19.6273"/>
<polygon fill="#9a32cd" stroke="#9a32cd" points="128,-57.2338 131.5,-67.2338 135,-57.2338 128,-57.2338"/>
<text text-anchor="middle" x="144" y="-41" font-family="Helvetica,sans-Serif" font-size="10.00"> eyes</text>
</g>
<!-- Node5&#45;&gt;Node1 -->
<g id="edge5" class="edge"><title>Node5&#45;&gt;Node1</title>
<path fill="none" stroke="#9a32cd" stroke-dasharray="5,2" d="M196.973,-61.0678C180.195,-48.2376 156.588,-30.1853 142.782,-19.6273"/>
<polygon fill="#9a32cd" stroke="#9a32cd" points="194.967,-63.9395 205.037,-67.2338 199.219,-58.379 194.967,-63.9395"/>
<text text-anchor="middle" x="190.5" y="-41" font-family="Helvetica,sans-Serif" font-size="10.00"> ears</text>
</g>
</g>
</svg>
