<?xml version="1.0" encoding="UTF-8" standalone="no"?>
<!DOCTYPE svg PUBLIC "-//W3C//DTD SVG 1.1//EN"
 "http://www.w3.org/Graphics/SVG/1.1/DTD/svg11.dtd">
<!-- Generated by graphviz version 2.38.0 (20140413.2041)
 -->
<!-- Title: switchablehint.h Pages: 1 -->
<svg width="683pt" height="308pt"
 viewBox="0.00 0.00 682.50 308.00" xmlns="http://www.w3.org/2000/svg" xmlns:xlink="http://www.w3.org/1999/xlink">
<g id="graph0" class="graph" transform="scale(1 1) rotate(0) translate(4 304)">
<title>switchablehint.h</title>
<!-- Node1 -->
<g id="node1" class="node"><title>Node1</title>
<g id="a_node1"><a xlink:title=" ">
<polygon fill="#bfbfbf" stroke="black" points="181.5,-280.5 181.5,-299.5 267.5,-299.5 267.5,-280.5 181.5,-280.5"/>
<text text-anchor="middle" x="224.5" y="-287.5" font-family="Helvetica,sans-Serif" font-size="10.00">switchablehint.h</text>
</a>
</g>
</g>
<!-- Node2 -->
<g id="node2" class="node"><title>Node2</title>
<g id="a_node2"><a xlink:href="srcontext_8h.html" target="_top" xlink:title=" ">
<polygon fill="none" stroke="black" points="156.5,-224.5 156.5,-243.5 292.5,-243.5 292.5,-224.5 156.5,-224.5"/>
<text text-anchor="middle" x="224.5" y="-231.5" font-family="Helvetica,sans-Serif" font-size="10.00">sr/management/srcontext.h</text>
</a>
</g>
</g>
<!-- Node1&#45;&gt;Node2 -->
<g id="edge1" class="edge"><title>Node1&#45;&gt;Node2</title>
<path fill="none" stroke="midnightblue" d="M224.5,-280.083C224.5,-273.006 224.5,-262.861 224.5,-253.986"/>
<polygon fill="midnightblue" stroke="midnightblue" points="228,-253.751 224.5,-243.751 221,-253.751 228,-253.751"/>
</g>
<!-- Node3 -->
<g id="node3" class="node"><title>Node3</title>
<g id="a_node3"><a xlink:title=" ">
<polygon fill="none" stroke="#bfbfbf" points="0,-112.5 0,-131.5 41,-131.5 41,-112.5 0,-112.5"/>
<text text-anchor="middle" x="20.5" y="-119.5" font-family="Helvetica,sans-Serif" font-size="10.00">string</text>
</a>
</g>
</g>
<!-- Node2&#45;&gt;Node3 -->
<g id="edge2" class="edge"><title>Node2&#45;&gt;Node3</title>
<path fill="none" stroke="midnightblue" d="M162.398,-224.492C116.145,-216.959 58.0853,-204.583 40.5,-188 27.893,-176.111 23.1678,-156.49 21.4306,-141.911"/>
<polygon fill="midnightblue" stroke="midnightblue" points="24.8864,-141.225 20.5846,-131.542 17.9096,-141.794 24.8864,-141.225"/>
</g>
<!-- Node4 -->
<g id="node4" class="node"><title>Node4</title>
<g id="a_node4"><a xlink:title=" ">
<polygon fill="none" stroke="#bfbfbf" points="50,-168.5 50,-187.5 85,-187.5 85,-168.5 50,-168.5"/>
<text text-anchor="middle" x="67.5" y="-175.5" font-family="Helvetica,sans-Serif" font-size="10.00">map</text>
</a>
</g>
</g>
<!-- Node2&#45;&gt;Node4 -->
<g id="edge3" class="edge"><title>Node2&#45;&gt;Node4</title>
<path fill="none" stroke="midnightblue" d="M199.38,-224.391C174.86,-215.983 136.25,-202.732 94.614,-188.379"/>
<polygon fill="midnightblue" stroke="midnightblue" points="95.7149,-185.057 85.1201,-185.106 93.4329,-191.674 95.7149,-185.057"/>
</g>
<!-- Node5 -->
<g id="node5" class="node"><title>Node5</title>
<g id="a_node5"><a xlink:href="sense_8h.html" target="_top" xlink:title=" ">
<polygon fill="none" stroke="black" points="103,-168.5 103,-187.5 216,-187.5 216,-168.5 103,-168.5"/>
<text text-anchor="middle" x="159.5" y="-175.5" font-family="Helvetica,sans-Serif" font-size="10.00">sr/sense/core/sense.h</text>
</a>
</g>
</g>
<!-- Node2&#45;&gt;Node5 -->
<g id="edge4" class="edge"><title>Node2&#45;&gt;Node5</title>
<path fill="none" stroke="midnightblue" d="M214.057,-224.324C204.354,-216.263 189.685,-204.077 178,-194.369"/>
<polygon fill="midnightblue" stroke="midnightblue" points="180.062,-191.532 170.133,-187.834 175.589,-196.916 180.062,-191.532"/>
</g>
<!-- Node13 -->
<g id="node13" class="node"><title>Node13</title>
<g id="a_node13"><a xlink:href="worldobject_8h.html" target="_top" xlink:title=" ">
<polygon fill="none" stroke="black" points="234.5,-168.5 234.5,-187.5 344.5,-187.5 344.5,-168.5 234.5,-168.5"/>
<text text-anchor="middle" x="289.5" y="-175.5" font-family="Helvetica,sans-Serif" font-size="10.00">sr/world/worldobject.h</text>
</a>
</g>
</g>
<!-- Node2&#45;&gt;Node13 -->
<g id="edge13" class="edge"><title>Node2&#45;&gt;Node13</title>
<path fill="none" stroke="midnightblue" d="M234.943,-224.324C244.646,-216.263 259.315,-204.077 271,-194.369"/>
<polygon fill="midnightblue" stroke="midnightblue" points="273.411,-196.916 278.867,-187.834 268.938,-191.532 273.411,-196.916"/>
</g>
<!-- Node15 -->
<g id="node15" class="node"><title>Node15</title>
<g id="a_node15"><a xlink:href="networkinterface_8h.html" target="_top" xlink:title=" ">
<polygon fill="none" stroke="black" points="363,-168.5 363,-187.5 528,-187.5 528,-168.5 363,-168.5"/>
<text text-anchor="middle" x="445.5" y="-175.5" font-family="Helvetica,sans-Serif" font-size="10.00">sr/network/core/networkinterface.h</text>
</a>
</g>
</g>
<!-- Node2&#45;&gt;Node15 -->
<g id="edge17" class="edge"><title>Node2&#45;&gt;Node15</title>
<path fill="none" stroke="midnightblue" d="M259.518,-224.444C297.748,-215.102 359.067,-200.119 400.757,-189.933"/>
<polygon fill="midnightblue" stroke="midnightblue" points="401.762,-193.29 410.646,-187.516 400.101,-186.49 401.762,-193.29"/>
</g>
<!-- Node16 -->
<g id="node16" class="node"><title>Node16</title>
<g id="a_node16"><a xlink:href="receiver_8h.html" target="_top" xlink:title=" ">
<polygon fill="none" stroke="black" points="546.5,-168.5 546.5,-187.5 674.5,-187.5 674.5,-168.5 546.5,-168.5"/>
<text text-anchor="middle" x="610.5" y="-175.5" font-family="Helvetica,sans-Serif" font-size="10.00">sr/network/core/receiver.h</text>
</a>
</g>
</g>
<!-- Node2&#45;&gt;Node16 -->
<g id="edge18" class="edge"><title>Node2&#45;&gt;Node16</title>
<path fill="none" stroke="midnightblue" d="M285.663,-224.444C354.694,-214.786 466.827,-199.099 539.621,-188.916"/>
<polygon fill="midnightblue" stroke="midnightblue" points="540.205,-192.368 549.623,-187.516 539.235,-185.436 540.205,-192.368"/>
</g>
<!-- Node5&#45;&gt;Node3 -->
<g id="edge5" class="edge"><title>Node5&#45;&gt;Node3</title>
<path fill="none" stroke="midnightblue" d="M137.475,-168.444C113.989,-159.319 76.647,-144.813 50.4883,-134.65"/>
<polygon fill="midnightblue" stroke="midnightblue" points="51.6513,-131.347 41.0625,-130.988 49.1164,-137.872 51.6513,-131.347"/>
</g>
<!-- Node6 -->
<g id="node6" class="node"><title>Node6</title>
<g id="a_node6"><a xlink:title=" ">
<polygon fill="none" stroke="#bfbfbf" points="59.5,-112.5 59.5,-131.5 105.5,-131.5 105.5,-112.5 59.5,-112.5"/>
<text text-anchor="middle" x="82.5" y="-119.5" font-family="Helvetica,sans-Serif" font-size="10.00">chrono</text>
</a>
</g>
</g>
<!-- Node5&#45;&gt;Node6 -->
<g id="edge6" class="edge"><title>Node5&#45;&gt;Node6</title>
<path fill="none" stroke="midnightblue" d="M147.129,-168.324C135.342,-160.058 117.368,-147.453 103.364,-137.632"/>
<polygon fill="midnightblue" stroke="midnightblue" points="105.038,-134.531 94.8407,-131.655 101.018,-140.262 105.038,-134.531"/>
</g>
<!-- Node7 -->
<g id="node7" class="node"><title>Node7</title>
<g id="a_node7"><a xlink:title=" ">
<polygon fill="none" stroke="#bfbfbf" points="123.5,-112.5 123.5,-131.5 167.5,-131.5 167.5,-112.5 123.5,-112.5"/>
<text text-anchor="middle" x="145.5" y="-119.5" font-family="Helvetica,sans-Serif" font-size="10.00">thread</text>
</a>
</g>
</g>
<!-- Node5&#45;&gt;Node7 -->
<g id="edge7" class="edge"><title>Node5&#45;&gt;Node7</title>
<path fill="none" stroke="midnightblue" d="M157.188,-168.083C155.333,-160.927 152.665,-150.635 150.346,-141.691"/>
<polygon fill="midnightblue" stroke="midnightblue" points="153.666,-140.553 147.769,-131.751 146.891,-142.309 153.666,-140.553"/>
</g>
<!-- Node8 -->
<g id="node8" class="node"><title>Node8</title>
<g id="a_node8"><a xlink:title=" ">
<polygon fill="none" stroke="#bfbfbf" points="185.5,-112.5 185.5,-131.5 229.5,-131.5 229.5,-112.5 185.5,-112.5"/>
<text text-anchor="middle" x="207.5" y="-119.5" font-family="Helvetica,sans-Serif" font-size="10.00">mutex</text>
</a>
</g>
</g>
<!-- Node5&#45;&gt;Node8 -->
<g id="edge8" class="edge"><title>Node5&#45;&gt;Node8</title>
<path fill="none" stroke="midnightblue" d="M167.426,-168.083C174.346,-160.298 184.565,-148.801 192.952,-139.367"/>
<polygon fill="midnightblue" stroke="midnightblue" points="195.694,-141.55 199.721,-131.751 190.462,-136.9 195.694,-141.55"/>
</g>
<!-- Node9 -->
<g id="node9" class="node"><title>Node9</title>
<g id="a_node9"><a xlink:href="transformation_8h.html" target="_top" xlink:title=" ">
<polygon fill="none" stroke="black" points="247.5,-112.5 247.5,-131.5 333.5,-131.5 333.5,-112.5 247.5,-112.5"/>
<text text-anchor="middle" x="290.5" y="-119.5" font-family="Helvetica,sans-Serif" font-size="10.00">transformation.h</text>
</a>
</g>
</g>
<!-- Node5&#45;&gt;Node9 -->
<g id="edge9" class="edge"><title>Node5&#45;&gt;Node9</title>
<path fill="none" stroke="midnightblue" d="M180.257,-168.444C201.816,-159.557 235.763,-145.563 260.294,-135.451"/>
<polygon fill="midnightblue" stroke="midnightblue" points="261.928,-138.563 269.84,-131.516 259.261,-132.092 261.928,-138.563"/>
</g>
<!-- Node10 -->
<g id="node10" class="node"><title>Node10</title>
<g id="a_node10"><a xlink:title=" ">
<polygon fill="none" stroke="#bfbfbf" points="319.5,-56.5 319.5,-75.5 423.5,-75.5 423.5,-56.5 319.5,-56.5"/>
<text text-anchor="middle" x="371.5" y="-63.5" font-family="Helvetica,sans-Serif" font-size="10.00">opencv2/opencv.hpp</text>
</a>
</g>
</g>
<!-- Node9&#45;&gt;Node10 -->
<g id="edge10" class="edge"><title>Node9&#45;&gt;Node10</title>
<path fill="none" stroke="midnightblue" d="M303.514,-112.324C316.032,-103.979 335.182,-91.2122 349.971,-81.3524"/>
<polygon fill="midnightblue" stroke="midnightblue" points="352.139,-84.1137 358.518,-75.6545 348.256,-78.2894 352.139,-84.1137"/>
</g>
<!-- Node11 -->
<g id="node11" class="node"><title>Node11</title>
<g id="a_node11"><a xlink:href="types_8h.html" target="_top" xlink:title=" ">
<polygon fill="none" stroke="black" points="241.5,-56.5 241.5,-75.5 301.5,-75.5 301.5,-56.5 241.5,-56.5"/>
<text text-anchor="middle" x="271.5" y="-63.5" font-family="Helvetica,sans-Serif" font-size="10.00">sr/types.h</text>
</a>
</g>
</g>
<!-- Node9&#45;&gt;Node11 -->
<g id="edge11" class="edge"><title>Node9&#45;&gt;Node11</title>
<path fill="none" stroke="midnightblue" d="M287.363,-112.083C284.817,-104.849 281.144,-94.4087 277.973,-85.3968"/>
<polygon fill="midnightblue" stroke="midnightblue" points="281.2,-84.0225 274.579,-75.7511 274.597,-86.3459 281.2,-84.0225"/>
</g>
<!-- Node12 -->
<g id="node12" class="node"><title>Node12</title>
<g id="a_node12"><a xlink:title=" ">
<polygon fill="none" stroke="#bfbfbf" points="347,-0.5 347,-19.5 396,-19.5 396,-0.5 347,-0.5"/>
<text text-anchor="middle" x="371.5" y="-7.5" font-family="Helvetica,sans-Serif" font-size="10.00">stdint.h</text>
</a>
</g>
</g>
<!-- Node11&#45;&gt;Node12 -->
<g id="edge12" class="edge"><title>Node11&#45;&gt;Node12</title>
<path fill="none" stroke="midnightblue" d="M287.567,-56.324C303.458,-47.7428 328.007,-34.486 346.458,-24.5224"/>
<polygon fill="midnightblue" stroke="midnightblue" points="348.337,-27.4857 355.473,-19.6545 345.011,-21.3264 348.337,-27.4857"/>
</g>
<!-- Node13&#45;&gt;Node9 -->
<g id="edge16" class="edge"><title>Node13&#45;&gt;Node9</title>
<path fill="none" stroke="midnightblue" d="M289.665,-168.083C289.796,-161.006 289.984,-150.861 290.148,-141.986"/>
<polygon fill="midnightblue" stroke="midnightblue" points="293.652,-141.814 290.338,-131.751 286.653,-141.685 293.652,-141.814"/>
</g>
<!-- Node13&#45;&gt;Node10 -->
<g id="edge15" class="edge"><title>Node13&#45;&gt;Node10</title>
<path fill="none" stroke="midnightblue" d="M302.727,-168.345C314.436,-160.137 331.35,-146.874 342.5,-132 353.144,-117.801 360.972,-99.0774 365.794,-85.3741"/>
<polygon fill="midnightblue" stroke="midnightblue" points="369.195,-86.2361 369.013,-75.6429 362.549,-84.0377 369.195,-86.2361"/>
</g>
<!-- Node14 -->
<g id="node14" class="node"><title>Node14</title>
<g id="a_node14"><a xlink:title=" ">
<polygon fill="none" stroke="#bfbfbf" points="389.5,-112.5 389.5,-131.5 431.5,-131.5 431.5,-112.5 389.5,-112.5"/>
<text text-anchor="middle" x="410.5" y="-119.5" font-family="Helvetica,sans-Serif" font-size="10.00">vector</text>
</a>
</g>
</g>
<!-- Node13&#45;&gt;Node14 -->
<g id="edge14" class="edge"><title>Node13&#45;&gt;Node14</title>
<path fill="none" stroke="midnightblue" d="M308.673,-168.444C328.409,-159.636 359.385,-145.812 381.993,-135.722"/>
<polygon fill="midnightblue" stroke="midnightblue" points="383.711,-138.788 391.417,-131.516 380.859,-132.396 383.711,-138.788"/>
</g>
<!-- Node17 -->
<g id="node17" class="node"><title>Node17</title>
<g id="a_node17"><a xlink:href="packet_8h.html" target="_top" xlink:title=" ">
<polygon fill="none" stroke="black" points="573.5,-112.5 573.5,-131.5 627.5,-131.5 627.5,-112.5 573.5,-112.5"/>
<text text-anchor="middle" x="600.5" y="-119.5" font-family="Helvetica,sans-Serif" font-size="10.00">packet.h</text>
</a>
</g>
</g>
<!-- Node16&#45;&gt;Node17 -->
<g id="edge19" class="edge"><title>Node16&#45;&gt;Node17</title>
<path fill="none" stroke="midnightblue" d="M608.849,-168.083C607.524,-160.927 605.618,-150.635 603.961,-141.691"/>
<polygon fill="midnightblue" stroke="midnightblue" points="607.383,-140.947 602.121,-131.751 600.5,-142.221 607.383,-140.947"/>
</g>
<!-- Node17&#45;&gt;Node12 -->
<g id="edge20" class="edge"><title>Node17&#45;&gt;Node12</title>
<path fill="none" stroke="midnightblue" d="M582.531,-112.368C542.482,-93.131 445.712,-46.6478 398.421,-23.9314"/>
<polygon fill="midnightblue" stroke="midnightblue" points="399.915,-20.7664 389.386,-19.5914 396.884,-27.0762 399.915,-20.7664"/>
</g>
<!-- Node18 -->
<g id="node18" class="node"><title>Node18</title>
<g id="a_node18"><a xlink:title=" ">
<polygon fill="none" stroke="#bfbfbf" points="538.5,-56.5 538.5,-75.5 592.5,-75.5 592.5,-56.5 538.5,-56.5"/>
<text text-anchor="middle" x="565.5" y="-63.5" font-family="Helvetica,sans-Serif" font-size="10.00">iostream</text>
</a>
</g>
</g>
<!-- Node17&#45;&gt;Node18 -->
<g id="edge21" class="edge"><title>Node17&#45;&gt;Node18</title>
<path fill="none" stroke="midnightblue" d="M594.72,-112.083C589.828,-104.534 582.673,-93.4948 576.667,-84.2298"/>
<polygon fill="midnightblue" stroke="midnightblue" points="579.548,-82.239 571.172,-75.7511 573.674,-86.0463 579.548,-82.239"/>
</g>
<!-- Node19 -->
<g id="node19" class="node"><title>Node19</title>
<g id="a_node19"><a xlink:title=" ">
<polygon fill="none" stroke="#bfbfbf" points="610.5,-56.5 610.5,-75.5 660.5,-75.5 660.5,-56.5 610.5,-56.5"/>
<text text-anchor="middle" x="635.5" y="-63.5" font-family="Helvetica,sans-Serif" font-size="10.00">iomanip</text>
</a>
</g>
</g>
<!-- Node17&#45;&gt;Node19 -->
<g id="edge22" class="edge"><title>Node17&#45;&gt;Node19</title>
<path fill="none" stroke="midnightblue" d="M606.28,-112.083C611.172,-104.534 618.327,-93.4948 624.333,-84.2298"/>
<polygon fill="midnightblue" stroke="midnightblue" points="627.326,-86.0463 629.828,-75.7511 621.452,-82.239 627.326,-86.0463"/>
</g>
</g>
</svg>
