<?xml version="1.0" encoding="UTF-8" standalone="no"?>
<!DOCTYPE svg PUBLIC "-//W3C//DTD SVG 1.1//EN"
 "http://www.w3.org/Graphics/SVG/1.1/DTD/svg11.dtd">
<!-- Generated by graphviz version 2.38.0 (20140413.2041)
 -->
<!-- Title: systemsense.h Pages: 1 -->
<svg width="1023pt" height="308pt"
 viewBox="0.00 0.00 1023.00 308.00" xmlns="http://www.w3.org/2000/svg" xmlns:xlink="http://www.w3.org/1999/xlink">
<g id="graph0" class="graph" transform="scale(1 1) rotate(0) translate(4 304)">
<title>systemsense.h</title>
<!-- Node1 -->
<g id="node1" class="node"><title>Node1</title>
<g id="a_node1"><a xlink:title=" ">
<polygon fill="#bfbfbf" stroke="black" points="688,-280.5 688,-299.5 771,-299.5 771,-280.5 688,-280.5"/>
<text text-anchor="middle" x="729.5" y="-287.5" font-family="Helvetica,sans-Serif" font-size="10.00">systemsense.h</text>
</a>
</g>
</g>
<!-- Node2 -->
<g id="node2" class="node"><title>Node2</title>
<g id="a_node2"><a xlink:title=" ">
<polygon fill="none" stroke="#bfbfbf" points="0,-168.5 0,-187.5 35,-187.5 35,-168.5 0,-168.5"/>
<text text-anchor="middle" x="17.5" y="-175.5" font-family="Helvetica,sans-Serif" font-size="10.00">map</text>
</a>
</g>
</g>
<!-- Node1&#45;&gt;Node2 -->
<g id="edge1" class="edge"><title>Node1&#45;&gt;Node2</title>
<path fill="none" stroke="midnightblue" d="M687.609,-285.815C581.076,-277.082 291.435,-249.379 44.9633,-187.77"/>
<polygon fill="midnightblue" stroke="midnightblue" points="45.6611,-184.336 35.1086,-185.282 43.9479,-191.123 45.6611,-184.336"/>
</g>
<!-- Node3 -->
<g id="node3" class="node"><title>Node3</title>
<g id="a_node3"><a xlink:title=" ">
<polygon fill="none" stroke="#bfbfbf" points="651.5,-112.5 651.5,-131.5 695.5,-131.5 695.5,-112.5 651.5,-112.5"/>
<text text-anchor="middle" x="673.5" y="-119.5" font-family="Helvetica,sans-Serif" font-size="10.00">thread</text>
</a>
</g>
</g>
<!-- Node1&#45;&gt;Node3 -->
<g id="edge2" class="edge"><title>Node1&#45;&gt;Node3</title>
<path fill="none" stroke="midnightblue" d="M726.489,-280.075C717.636,-253.832 691.563,-176.545 679.612,-141.117"/>
<polygon fill="midnightblue" stroke="midnightblue" points="682.903,-139.925 676.39,-131.568 676.271,-142.162 682.903,-139.925"/>
</g>
<!-- Node4 -->
<g id="node4" class="node"><title>Node4</title>
<g id="a_node4"><a xlink:title=" ">
<polygon fill="none" stroke="#bfbfbf" points="713.5,-112.5 713.5,-131.5 757.5,-131.5 757.5,-112.5 713.5,-112.5"/>
<text text-anchor="middle" x="735.5" y="-119.5" font-family="Helvetica,sans-Serif" font-size="10.00">mutex</text>
</a>
</g>
</g>
<!-- Node1&#45;&gt;Node4 -->
<g id="edge3" class="edge"><title>Node1&#45;&gt;Node4</title>
<path fill="none" stroke="midnightblue" d="M729.823,-280.075C730.767,-253.945 733.541,-177.211 734.829,-141.577"/>
<polygon fill="midnightblue" stroke="midnightblue" points="738.327,-141.688 735.19,-131.568 731.331,-141.435 738.327,-141.688"/>
</g>
<!-- Node5 -->
<g id="node5" class="node"><title>Node5</title>
<g id="a_node5"><a xlink:href="systemevent_8h.html" target="_top" xlink:title=" ">
<polygon fill="none" stroke="black" points="775.5,-112.5 775.5,-131.5 855.5,-131.5 855.5,-112.5 775.5,-112.5"/>
<text text-anchor="middle" x="815.5" y="-119.5" font-family="Helvetica,sans-Serif" font-size="10.00">systemevent.h</text>
</a>
</g>
</g>
<!-- Node1&#45;&gt;Node5 -->
<g id="edge4" class="edge"><title>Node1&#45;&gt;Node5</title>
<path fill="none" stroke="midnightblue" d="M734.124,-280.075C747.778,-253.719 788.105,-175.878 806.35,-140.661"/>
<polygon fill="midnightblue" stroke="midnightblue" points="809.569,-142.057 811.061,-131.568 803.353,-138.837 809.569,-142.057"/>
</g>
<!-- Node9 -->
<g id="node9" class="node"><title>Node9</title>
<g id="a_node9"><a xlink:href="systemeventstream_8h.html" target="_top" xlink:title=" ">
<polygon fill="none" stroke="black" points="799.5,-224.5 799.5,-243.5 909.5,-243.5 909.5,-224.5 799.5,-224.5"/>
<text text-anchor="middle" x="854.5" y="-231.5" font-family="Helvetica,sans-Serif" font-size="10.00">systemeventstream.h</text>
</a>
</g>
</g>
<!-- Node1&#45;&gt;Node9 -->
<g id="edge9" class="edge"><title>Node1&#45;&gt;Node9</title>
<path fill="none" stroke="midnightblue" d="M749.307,-280.444C769.787,-271.596 801.983,-257.687 825.365,-247.586"/>
<polygon fill="midnightblue" stroke="midnightblue" points="826.994,-250.695 834.786,-243.516 824.218,-244.269 826.994,-250.695"/>
</g>
<!-- Node10 -->
<g id="node10" class="node"><title>Node10</title>
<g id="a_node10"><a xlink:href="systemeventlistener_8h.html" target="_top" xlink:title=" ">
<polygon fill="none" stroke="black" points="904,-168.5 904,-187.5 1015,-187.5 1015,-168.5 904,-168.5"/>
<text text-anchor="middle" x="959.5" y="-175.5" font-family="Helvetica,sans-Serif" font-size="10.00">systemeventlistener.h</text>
</a>
</g>
</g>
<!-- Node1&#45;&gt;Node10 -->
<g id="edge14" class="edge"><title>Node1&#45;&gt;Node10</title>
<path fill="none" stroke="midnightblue" d="M771.167,-287.98C812.143,-285.065 874.742,-275.299 918.5,-244 934.742,-232.382 946.007,-212.131 952.562,-197.312"/>
<polygon fill="midnightblue" stroke="midnightblue" points="955.955,-198.264 956.507,-187.684 949.477,-195.61 955.955,-198.264"/>
</g>
<!-- Node12 -->
<g id="node12" class="node"><title>Node12</title>
<g id="a_node12"><a xlink:href="srcontext_8h.html" target="_top" xlink:title=" ">
<polygon fill="none" stroke="black" points="370.5,-224.5 370.5,-243.5 506.5,-243.5 506.5,-224.5 370.5,-224.5"/>
<text text-anchor="middle" x="438.5" y="-231.5" font-family="Helvetica,sans-Serif" font-size="10.00">sr/management/srcontext.h</text>
</a>
</g>
</g>
<!-- Node1&#45;&gt;Node12 -->
<g id="edge15" class="edge"><title>Node1&#45;&gt;Node12</title>
<path fill="none" stroke="midnightblue" d="M687.807,-281.263C636.955,-271.827 550.806,-255.84 494.283,-245.352"/>
<polygon fill="midnightblue" stroke="midnightblue" points="494.907,-241.908 484.437,-243.524 493.63,-248.79 494.907,-241.908"/>
</g>
<!-- Node6 -->
<g id="node6" class="node"><title>Node6</title>
<g id="a_node6"><a xlink:href="types_8h.html" target="_top" xlink:title=" ">
<polygon fill="none" stroke="black" points="450.5,-56.5 450.5,-75.5 510.5,-75.5 510.5,-56.5 450.5,-56.5"/>
<text text-anchor="middle" x="480.5" y="-63.5" font-family="Helvetica,sans-Serif" font-size="10.00">sr/types.h</text>
</a>
</g>
</g>
<!-- Node5&#45;&gt;Node6 -->
<g id="edge5" class="edge"><title>Node5&#45;&gt;Node6</title>
<path fill="none" stroke="midnightblue" d="M775.406,-113.532C772.394,-113.003 769.4,-112.486 766.5,-112 661.426,-94.3744 634.574,-93.6256 529.5,-76 526.621,-75.5171 523.65,-75.0051 520.66,-74.48"/>
<polygon fill="midnightblue" stroke="midnightblue" points="520.994,-70.9843 510.534,-72.6681 519.761,-77.8748 520.994,-70.9843"/>
</g>
<!-- Node7 -->
<g id="node7" class="node"><title>Node7</title>
<g id="a_node7"><a xlink:title=" ">
<polygon fill="none" stroke="#bfbfbf" points="456,-0.5 456,-19.5 505,-19.5 505,-0.5 456,-0.5"/>
<text text-anchor="middle" x="480.5" y="-7.5" font-family="Helvetica,sans-Serif" font-size="10.00">stdint.h</text>
</a>
</g>
</g>
<!-- Node5&#45;&gt;Node7 -->
<g id="edge7" class="edge"><title>Node5&#45;&gt;Node7</title>
<path fill="none" stroke="midnightblue" d="M789.492,-112.46C729.686,-92.8224 582.374,-44.451 515.061,-22.3484"/>
<polygon fill="midnightblue" stroke="midnightblue" points="515.943,-18.9541 505.35,-19.1596 513.759,-25.6047 515.943,-18.9541"/>
</g>
<!-- Node8 -->
<g id="node8" class="node"><title>Node8</title>
<g id="a_node8"><a xlink:title=" ">
<polygon fill="none" stroke="#bfbfbf" points="539,-56.5 539,-75.5 580,-75.5 580,-56.5 539,-56.5"/>
<text text-anchor="middle" x="559.5" y="-63.5" font-family="Helvetica,sans-Serif" font-size="10.00">string</text>
</a>
</g>
</g>
<!-- Node5&#45;&gt;Node8 -->
<g id="edge8" class="edge"><title>Node5&#45;&gt;Node8</title>
<path fill="none" stroke="midnightblue" d="M775.218,-112.503C723.88,-101.674 636.268,-83.1933 590.078,-73.45"/>
<polygon fill="midnightblue" stroke="midnightblue" points="590.582,-69.9793 580.074,-71.3399 589.137,-76.8286 590.582,-69.9793"/>
</g>
<!-- Node6&#45;&gt;Node7 -->
<g id="edge6" class="edge"><title>Node6&#45;&gt;Node7</title>
<path fill="none" stroke="midnightblue" d="M480.5,-56.083C480.5,-49.0059 480.5,-38.8611 480.5,-29.9865"/>
<polygon fill="midnightblue" stroke="midnightblue" points="484,-29.751 480.5,-19.7511 477,-29.7511 484,-29.751"/>
</g>
<!-- Node9&#45;&gt;Node5 -->
<g id="edge10" class="edge"><title>Node9&#45;&gt;Node5</title>
<path fill="none" stroke="midnightblue" d="M846.992,-224.363C839.959,-215.76 829.765,-201.87 824.5,-188 818.871,-173.172 816.703,-155.248 815.896,-141.981"/>
<polygon fill="midnightblue" stroke="midnightblue" points="819.382,-141.568 815.484,-131.716 812.388,-141.848 819.382,-141.568"/>
</g>
<!-- Node9&#45;&gt;Node10 -->
<g id="edge11" class="edge"><title>Node9&#45;&gt;Node10</title>
<path fill="none" stroke="midnightblue" d="M871.37,-224.324C888.209,-215.664 914.307,-202.242 933.738,-192.249"/>
<polygon fill="midnightblue" stroke="midnightblue" points="935.38,-195.341 942.672,-187.655 932.178,-189.116 935.38,-195.341"/>
</g>
<!-- Node11 -->
<g id="node11" class="node"><title>Node11</title>
<g id="a_node11"><a xlink:title=" ">
<polygon fill="none" stroke="#bfbfbf" points="833.5,-168.5 833.5,-187.5 885.5,-187.5 885.5,-168.5 833.5,-168.5"/>
<text text-anchor="middle" x="859.5" y="-175.5" font-family="Helvetica,sans-Serif" font-size="10.00">memory</text>
</a>
</g>
</g>
<!-- Node9&#45;&gt;Node11 -->
<g id="edge13" class="edge"><title>Node9&#45;&gt;Node11</title>
<path fill="none" stroke="midnightblue" d="M855.326,-224.083C855.981,-217.006 856.92,-206.861 857.742,-197.986"/>
<polygon fill="midnightblue" stroke="midnightblue" points="861.253,-198.031 858.69,-187.751 854.283,-197.386 861.253,-198.031"/>
</g>
<!-- Node10&#45;&gt;Node5 -->
<g id="edge12" class="edge"><title>Node10&#45;&gt;Node5</title>
<path fill="none" stroke="midnightblue" d="M936.683,-168.444C912.668,-159.438 874.671,-145.189 847.631,-135.049"/>
<polygon fill="midnightblue" stroke="midnightblue" points="848.803,-131.751 838.21,-131.516 846.345,-138.305 848.803,-131.751"/>
</g>
<!-- Node12&#45;&gt;Node2 -->
<g id="edge17" class="edge"><title>Node12&#45;&gt;Node2</title>
<path fill="none" stroke="midnightblue" d="M370.164,-229.516C293.187,-224.626 164.38,-213.539 45.1062,-187.659"/>
<polygon fill="midnightblue" stroke="midnightblue" points="45.5906,-184.182 35.0709,-185.441 44.0799,-191.017 45.5906,-184.182"/>
</g>
<!-- Node12&#45;&gt;Node8 -->
<g id="edge16" class="edge"><title>Node12&#45;&gt;Node8</title>
<path fill="none" stroke="midnightblue" d="M455.307,-224.422C469.406,-216.534 489.301,-203.699 502.5,-188 528.925,-156.57 546.041,-110.827 554.099,-85.5411"/>
<polygon fill="midnightblue" stroke="midnightblue" points="557.509,-86.3582 557.083,-75.772 550.815,-84.3136 557.509,-86.3582"/>
</g>
<!-- Node13 -->
<g id="node13" class="node"><title>Node13</title>
<g id="a_node13"><a xlink:href="sense_8h.html" target="_top" xlink:title=" ">
<polygon fill="none" stroke="black" points="550,-168.5 550,-187.5 663,-187.5 663,-168.5 550,-168.5"/>
<text text-anchor="middle" x="606.5" y="-175.5" font-family="Helvetica,sans-Serif" font-size="10.00">sr/sense/core/sense.h</text>
</a>
</g>
</g>
<!-- Node12&#45;&gt;Node13 -->
<g id="edge18" class="edge"><title>Node12&#45;&gt;Node13</title>
<path fill="none" stroke="midnightblue" d="M465.12,-224.444C493.506,-215.32 538.637,-200.813 570.253,-190.651"/>
<polygon fill="midnightblue" stroke="midnightblue" points="571.555,-193.909 580.004,-187.516 569.413,-187.244 571.555,-193.909"/>
</g>
<!-- Node17 -->
<g id="node17" class="node"><title>Node17</title>
<g id="a_node17"><a xlink:href="worldobject_8h.html" target="_top" xlink:title=" ">
<polygon fill="none" stroke="black" points="383.5,-168.5 383.5,-187.5 493.5,-187.5 493.5,-168.5 383.5,-168.5"/>
<text text-anchor="middle" x="438.5" y="-175.5" font-family="Helvetica,sans-Serif" font-size="10.00">sr/world/worldobject.h</text>
</a>
</g>
</g>
<!-- Node12&#45;&gt;Node17 -->
<g id="edge26" class="edge"><title>Node12&#45;&gt;Node17</title>
<path fill="none" stroke="midnightblue" d="M438.5,-224.083C438.5,-217.006 438.5,-206.861 438.5,-197.986"/>
<polygon fill="midnightblue" stroke="midnightblue" points="442,-197.751 438.5,-187.751 435,-197.751 442,-197.751"/>
</g>
<!-- Node19 -->
<g id="node19" class="node"><title>Node19</title>
<g id="a_node19"><a xlink:href="networkinterface_8h.html" target="_top" xlink:title=" ">
<polygon fill="none" stroke="black" points="200,-168.5 200,-187.5 365,-187.5 365,-168.5 200,-168.5"/>
<text text-anchor="middle" x="282.5" y="-175.5" font-family="Helvetica,sans-Serif" font-size="10.00">sr/network/core/networkinterface.h</text>
</a>
</g>
</g>
<!-- Node12&#45;&gt;Node19 -->
<g id="edge30" class="edge"><title>Node12&#45;&gt;Node19</title>
<path fill="none" stroke="midnightblue" d="M413.781,-224.444C387.652,-215.399 346.241,-201.064 316.924,-190.916"/>
<polygon fill="midnightblue" stroke="midnightblue" points="317.698,-187.48 307.103,-187.516 315.408,-194.095 317.698,-187.48"/>
</g>
<!-- Node20 -->
<g id="node20" class="node"><title>Node20</title>
<g id="a_node20"><a xlink:href="receiver_8h.html" target="_top" xlink:title=" ">
<polygon fill="none" stroke="black" points="53.5,-168.5 53.5,-187.5 181.5,-187.5 181.5,-168.5 53.5,-168.5"/>
<text text-anchor="middle" x="117.5" y="-175.5" font-family="Helvetica,sans-Serif" font-size="10.00">sr/network/core/receiver.h</text>
</a>
</g>
</g>
<!-- Node12&#45;&gt;Node20 -->
<g id="edge31" class="edge"><title>Node12&#45;&gt;Node20</title>
<path fill="none" stroke="midnightblue" d="M387.637,-224.444C330.817,-214.885 238.883,-199.419 178.31,-189.23"/>
<polygon fill="midnightblue" stroke="midnightblue" points="178.568,-185.724 168.125,-187.516 177.406,-192.627 178.568,-185.724"/>
</g>
<!-- Node13&#45;&gt;Node3 -->
<g id="edge21" class="edge"><title>Node13&#45;&gt;Node3</title>
<path fill="none" stroke="midnightblue" d="M617.265,-168.324C627.266,-160.263 642.387,-148.077 654.43,-138.369"/>
<polygon fill="midnightblue" stroke="midnightblue" points="656.95,-140.834 662.539,-131.834 652.557,-135.384 656.95,-140.834"/>
</g>
<!-- Node13&#45;&gt;Node4 -->
<g id="edge22" class="edge"><title>Node13&#45;&gt;Node4</title>
<path fill="none" stroke="midnightblue" d="M626.94,-168.444C648.17,-159.557 681.599,-145.563 705.755,-135.451"/>
<polygon fill="midnightblue" stroke="midnightblue" points="707.282,-138.606 715.155,-131.516 704.579,-132.149 707.282,-138.606"/>
</g>
<!-- Node13&#45;&gt;Node8 -->
<g id="edge19" class="edge"><title>Node13&#45;&gt;Node8</title>
<path fill="none" stroke="midnightblue" d="M600.176,-168.432C593.945,-159.658 584.51,-145.44 578.5,-132 571.751,-116.907 566.683,-98.782 563.487,-85.5104"/>
<polygon fill="midnightblue" stroke="midnightblue" points="566.88,-84.649 561.245,-75.6768 560.055,-86.2046 566.88,-84.649"/>
</g>
<!-- Node14 -->
<g id="node14" class="node"><title>Node14</title>
<g id="a_node14"><a xlink:title=" ">
<polygon fill="none" stroke="#bfbfbf" points="587.5,-112.5 587.5,-131.5 633.5,-131.5 633.5,-112.5 587.5,-112.5"/>
<text text-anchor="middle" x="610.5" y="-119.5" font-family="Helvetica,sans-Serif" font-size="10.00">chrono</text>
</a>
</g>
</g>
<!-- Node13&#45;&gt;Node14 -->
<g id="edge20" class="edge"><title>Node13&#45;&gt;Node14</title>
<path fill="none" stroke="midnightblue" d="M607.161,-168.083C607.685,-161.006 608.436,-150.861 609.094,-141.986"/>
<polygon fill="midnightblue" stroke="midnightblue" points="612.603,-141.982 609.852,-131.751 605.623,-141.465 612.603,-141.982"/>
</g>
<!-- Node15 -->
<g id="node15" class="node"><title>Node15</title>
<g id="a_node15"><a xlink:href="transformation_8h.html" target="_top" xlink:title=" ">
<polygon fill="none" stroke="black" points="407.5,-112.5 407.5,-131.5 493.5,-131.5 493.5,-112.5 407.5,-112.5"/>
<text text-anchor="middle" x="450.5" y="-119.5" font-family="Helvetica,sans-Serif" font-size="10.00">transformation.h</text>
</a>
</g>
</g>
<!-- Node13&#45;&gt;Node15 -->
<g id="edge23" class="edge"><title>Node13&#45;&gt;Node15</title>
<path fill="none" stroke="midnightblue" d="M581.781,-168.444C555.652,-159.399 514.241,-145.064 484.924,-134.916"/>
<polygon fill="midnightblue" stroke="midnightblue" points="485.698,-131.48 475.103,-131.516 483.408,-138.095 485.698,-131.48"/>
</g>
<!-- Node15&#45;&gt;Node6 -->
<g id="edge25" class="edge"><title>Node15&#45;&gt;Node6</title>
<path fill="none" stroke="midnightblue" d="M455.454,-112.083C459.604,-104.613 465.653,-93.7244 470.767,-84.5199"/>
<polygon fill="midnightblue" stroke="midnightblue" points="473.841,-86.1924 475.638,-75.7511 467.722,-82.7929 473.841,-86.1924"/>
</g>
<!-- Node16 -->
<g id="node16" class="node"><title>Node16</title>
<g id="a_node16"><a xlink:title=" ">
<polygon fill="none" stroke="#bfbfbf" points="308.5,-56.5 308.5,-75.5 412.5,-75.5 412.5,-56.5 308.5,-56.5"/>
<text text-anchor="middle" x="360.5" y="-63.5" font-family="Helvetica,sans-Serif" font-size="10.00">opencv2/opencv.hpp</text>
</a>
</g>
</g>
<!-- Node15&#45;&gt;Node16 -->
<g id="edge24" class="edge"><title>Node15&#45;&gt;Node16</title>
<path fill="none" stroke="midnightblue" d="M436.04,-112.324C422,-103.9 400.452,-90.9709 383.957,-81.0741"/>
<polygon fill="midnightblue" stroke="midnightblue" points="385.3,-77.7983 374.924,-75.6545 381.698,-83.8007 385.3,-77.7983"/>
</g>
<!-- Node17&#45;&gt;Node15 -->
<g id="edge29" class="edge"><title>Node17&#45;&gt;Node15</title>
<path fill="none" stroke="midnightblue" d="M440.482,-168.083C442.072,-160.927 444.359,-150.635 446.346,-141.691"/>
<polygon fill="midnightblue" stroke="midnightblue" points="449.803,-142.272 448.555,-131.751 442.969,-140.754 449.803,-142.272"/>
</g>
<!-- Node17&#45;&gt;Node16 -->
<g id="edge28" class="edge"><title>Node17&#45;&gt;Node16</title>
<path fill="none" stroke="midnightblue" d="M393.804,-168.476C373.274,-162.086 350.801,-151.025 338.5,-132 328.842,-117.064 337.932,-97.4416 347.187,-83.6791"/>
<polygon fill="midnightblue" stroke="midnightblue" points="350.024,-85.7288 353.097,-75.5895 344.371,-81.5993 350.024,-85.7288"/>
</g>
<!-- Node18 -->
<g id="node18" class="node"><title>Node18</title>
<g id="a_node18"><a xlink:title=" ">
<polygon fill="none" stroke="#bfbfbf" points="347.5,-112.5 347.5,-131.5 389.5,-131.5 389.5,-112.5 347.5,-112.5"/>
<text text-anchor="middle" x="368.5" y="-119.5" font-family="Helvetica,sans-Serif" font-size="10.00">vector</text>
</a>
</g>
</g>
<!-- Node17&#45;&gt;Node18 -->
<g id="edge27" class="edge"><title>Node17&#45;&gt;Node18</title>
<path fill="none" stroke="midnightblue" d="M427.253,-168.324C416.703,-160.185 400.699,-147.839 388.058,-138.087"/>
<polygon fill="midnightblue" stroke="midnightblue" points="390.007,-135.171 379.951,-131.834 385.731,-140.713 390.007,-135.171"/>
</g>
<!-- Node21 -->
<g id="node21" class="node"><title>Node21</title>
<g id="a_node21"><a xlink:href="packet_8h.html" target="_top" xlink:title=" ">
<polygon fill="none" stroke="black" points="100.5,-112.5 100.5,-131.5 154.5,-131.5 154.5,-112.5 100.5,-112.5"/>
<text text-anchor="middle" x="127.5" y="-119.5" font-family="Helvetica,sans-Serif" font-size="10.00">packet.h</text>
</a>
</g>
</g>
<!-- Node20&#45;&gt;Node21 -->
<g id="edge32" class="edge"><title>Node20&#45;&gt;Node21</title>
<path fill="none" stroke="midnightblue" d="M119.151,-168.083C120.476,-160.927 122.382,-150.635 124.039,-141.691"/>
<polygon fill="midnightblue" stroke="midnightblue" points="127.5,-142.221 125.879,-131.751 120.617,-140.947 127.5,-142.221"/>
</g>
<!-- Node21&#45;&gt;Node7 -->
<g id="edge33" class="edge"><title>Node21&#45;&gt;Node7</title>
<path fill="none" stroke="midnightblue" d="M122.871,-112.183C116.342,-98.3857 106.679,-71.6562 120.5,-56 141.858,-31.8057 359.759,-17.5083 445.812,-12.7683"/>
<polygon fill="midnightblue" stroke="midnightblue" points="446.071,-16.2595 455.868,-12.225 445.694,-9.26969 446.071,-16.2595"/>
</g>
<!-- Node22 -->
<g id="node22" class="node"><title>Node22</title>
<g id="a_node22"><a xlink:title=" ">
<polygon fill="none" stroke="#bfbfbf" points="197.5,-56.5 197.5,-75.5 251.5,-75.5 251.5,-56.5 197.5,-56.5"/>
<text text-anchor="middle" x="224.5" y="-63.5" font-family="Helvetica,sans-Serif" font-size="10.00">iostream</text>
</a>
</g>
</g>
<!-- Node21&#45;&gt;Node22 -->
<g id="edge34" class="edge"><title>Node21&#45;&gt;Node22</title>
<path fill="none" stroke="midnightblue" d="M143.085,-112.324C158.499,-103.743 182.312,-90.486 200.21,-80.5224"/>
<polygon fill="midnightblue" stroke="midnightblue" points="201.919,-83.5767 208.954,-75.6545 198.514,-77.4606 201.919,-83.5767"/>
</g>
<!-- Node23 -->
<g id="node23" class="node"><title>Node23</title>
<g id="a_node23"><a xlink:title=" ">
<polygon fill="none" stroke="#bfbfbf" points="129.5,-56.5 129.5,-75.5 179.5,-75.5 179.5,-56.5 129.5,-56.5"/>
<text text-anchor="middle" x="154.5" y="-63.5" font-family="Helvetica,sans-Serif" font-size="10.00">iomanip</text>
</a>
</g>
</g>
<!-- Node21&#45;&gt;Node23 -->
<g id="edge35" class="edge"><title>Node21&#45;&gt;Node23</title>
<path fill="none" stroke="midnightblue" d="M131.959,-112.083C135.654,-104.691 141.023,-93.9533 145.594,-84.8111"/>
<polygon fill="midnightblue" stroke="midnightblue" points="148.783,-86.2606 150.124,-75.7511 142.522,-83.1301 148.783,-86.2606"/>
</g>
</g>
</svg>
