<?xml version="1.0" encoding="UTF-8" standalone="no"?>
<!DOCTYPE svg PUBLIC "-//W3C//DTD SVG 1.1//EN"
 "http://www.w3.org/Graphics/SVG/1.1/DTD/svg11.dtd">
<!-- Generated by graphviz version 2.38.0 (20140413.2041)
 -->
<!-- Title: systemevent.h Pages: 1 -->
<svg width="706pt" height="196pt"
 viewBox="0.00 0.00 706.00 196.00" xmlns="http://www.w3.org/2000/svg" xmlns:xlink="http://www.w3.org/1999/xlink">
<g id="graph0" class="graph" transform="scale(1 1) rotate(0) translate(4 192)">
<title>systemevent.h</title>
<!-- Node1 -->
<g id="node1" class="node"><title>Node1</title>
<g id="a_node1"><a xlink:title=" ">
<polygon fill="#bfbfbf" stroke="black" points="528.5,-168.5 528.5,-187.5 608.5,-187.5 608.5,-168.5 528.5,-168.5"/>
<text text-anchor="middle" x="568.5" y="-175.5" font-family="Helvetica,sans-Serif" font-size="10.00">systemevent.h</text>
</a>
</g>
</g>
<!-- Node2 -->
<g id="node2" class="node"><title>Node2</title>
<g id="a_node2"><a xlink:href="core__c_8h.html" target="_top" xlink:title=" ">
<polygon fill="none" stroke="black" points="269.5,-112.5 269.5,-131.5 323.5,-131.5 323.5,-112.5 269.5,-112.5"/>
<text text-anchor="middle" x="296.5" y="-119.5" font-family="Helvetica,sans-Serif" font-size="10.00">core_c.h</text>
</a>
</g>
</g>
<!-- Node1&#45;&gt;Node2 -->
<g id="edge1" class="edge"><title>Node1&#45;&gt;Node2</title>
<path fill="none" stroke="midnightblue" d="M518.414,-167.056C460.992,-155.656 368.965,-137.386 323.59,-128.378"/>
<polygon fill="midnightblue" stroke="midnightblue" points="517.875,-170.518 528.365,-169.032 519.238,-163.652 517.875,-170.518"/>
</g>
<!-- Node8 -->
<g id="node8" class="node"><title>Node8</title>
<g id="a_node8"><a xlink:href="systemeventlistener_8h.html" target="_top" xlink:title=" ">
<polygon fill="none" stroke="black" points="555,-112.5 555,-131.5 666,-131.5 666,-112.5 555,-112.5"/>
<text text-anchor="middle" x="610.5" y="-119.5" font-family="Helvetica,sans-Serif" font-size="10.00">systemeventlistener.h</text>
</a>
</g>
</g>
<!-- Node1&#45;&gt;Node8 -->
<g id="edge7" class="edge"><title>Node1&#45;&gt;Node8</title>
<path fill="none" stroke="midnightblue" d="M581.61,-160.144C588.928,-150.736 597.741,-139.405 603.694,-131.751"/>
<polygon fill="midnightblue" stroke="midnightblue" points="578.812,-158.041 575.435,-168.083 584.338,-162.338 578.812,-158.041"/>
</g>
<!-- Node9 -->
<g id="node9" class="node"><title>Node9</title>
<g id="a_node9"><a xlink:href="systemeventstream_8h.html" target="_top" xlink:title=" ">
<polygon fill="none" stroke="black" points="518.5,-56.5 518.5,-75.5 628.5,-75.5 628.5,-56.5 518.5,-56.5"/>
<text text-anchor="middle" x="573.5" y="-63.5" font-family="Helvetica,sans-Serif" font-size="10.00">systemeventstream.h</text>
</a>
</g>
</g>
<!-- Node1&#45;&gt;Node9 -->
<g id="edge11" class="edge"><title>Node1&#45;&gt;Node9</title>
<path fill="none" stroke="midnightblue" d="M556.302,-159.871C548.55,-146.872 540.79,-128.486 545.5,-112 549.494,-98.0212 559.224,-84.156 566.088,-75.5891"/>
<polygon fill="midnightblue" stroke="midnightblue" points="553.382,-161.802 561.765,-168.28 559.252,-157.988 553.382,-161.802"/>
</g>
<!-- Node10 -->
<g id="node10" class="node"><title>Node10</title>
<g id="a_node10"><a xlink:href="systemsense_8h.html" target="_top" xlink:title=" ">
<polygon fill="none" stroke="black" points="615,-0.5 615,-19.5 698,-19.5 698,-0.5 615,-0.5"/>
<text text-anchor="middle" x="656.5" y="-7.5" font-family="Helvetica,sans-Serif" font-size="10.00">systemsense.h</text>
</a>
</g>
</g>
<!-- Node1&#45;&gt;Node10 -->
<g id="edge12" class="edge"><title>Node1&#45;&gt;Node10</title>
<path fill="none" stroke="midnightblue" d="M618.576,-168.358C639.543,-161.999 661.926,-150.998 674.5,-132 698.295,-96.0478 673.034,-41.0288 661.555,-19.7885"/>
<polygon fill="midnightblue" stroke="midnightblue" points="617.486,-165.028 608.765,-171.044 619.334,-171.78 617.486,-165.028"/>
</g>
<!-- Node3 -->
<g id="node3" class="node"><title>Node3</title>
<g id="a_node3"><a xlink:href="cameras__c_8h.html" target="_top" xlink:title=" ">
<polygon fill="none" stroke="black" points="0,-56.5 0,-75.5 73,-75.5 73,-56.5 0,-56.5"/>
<text text-anchor="middle" x="36.5" y="-63.5" font-family="Helvetica,sans-Serif" font-size="10.00">cameras_c.h</text>
</a>
</g>
</g>
<!-- Node2&#45;&gt;Node3 -->
<g id="edge2" class="edge"><title>Node2&#45;&gt;Node3</title>
<path fill="none" stroke="midnightblue" d="M259.195,-113.252C209.676,-102.967 122.763,-84.9161 73.4325,-74.6706"/>
<polygon fill="midnightblue" stroke="midnightblue" points="258.664,-116.716 269.167,-115.323 260.088,-109.863 258.664,-116.716"/>
</g>
<!-- Node4 -->
<g id="node4" class="node"><title>Node4</title>
<g id="a_node4"><a xlink:href="displays__admin__c_8h.html" target="_top" xlink:title=" ">
<polygon fill="none" stroke="black" points="91,-56.5 91,-75.5 194,-75.5 194,-56.5 91,-56.5"/>
<text text-anchor="middle" x="142.5" y="-63.5" font-family="Helvetica,sans-Serif" font-size="10.00">displays_admin_c.h</text>
</a>
</g>
</g>
<!-- Node2&#45;&gt;Node4 -->
<g id="edge3" class="edge"><title>Node2&#45;&gt;Node4</title>
<path fill="none" stroke="midnightblue" d="M262.389,-109.039C233.413,-98.8786 192.538,-84.5457 166.788,-75.5164"/>
<polygon fill="midnightblue" stroke="midnightblue" points="261.503,-112.437 272.098,-112.444 263.82,-105.832 261.503,-112.437"/>
</g>
<!-- Node5 -->
<g id="node5" class="node"><title>Node5</title>
<g id="a_node5"><a xlink:href="displays__c_8h.html" target="_top" xlink:title=" ">
<polygon fill="none" stroke="black" points="212,-56.5 212,-75.5 283,-75.5 283,-56.5 212,-56.5"/>
<text text-anchor="middle" x="247.5" y="-63.5" font-family="Helvetica,sans-Serif" font-size="10.00">displays_c.h</text>
</a>
</g>
</g>
<!-- Node2&#45;&gt;Node5 -->
<g id="edge4" class="edge"><title>Node2&#45;&gt;Node5</title>
<path fill="none" stroke="midnightblue" d="M281.466,-104.431C272.878,-94.9673 262.457,-83.4827 255.441,-75.7511"/>
<polygon fill="midnightblue" stroke="midnightblue" points="279.097,-107.029 288.409,-112.083 284.281,-102.325 279.097,-107.029"/>
</g>
<!-- Node6 -->
<g id="node6" class="node"><title>Node6</title>
<g id="a_node6"><a xlink:href="facetrackers__c_8h.html" target="_top" xlink:title=" ">
<polygon fill="none" stroke="black" points="301,-56.5 301,-75.5 390,-75.5 390,-56.5 301,-56.5"/>
<text text-anchor="middle" x="345.5" y="-63.5" font-family="Helvetica,sans-Serif" font-size="10.00">facetrackers_c.h</text>
</a>
</g>
</g>
<!-- Node2&#45;&gt;Node6 -->
<g id="edge5" class="edge"><title>Node2&#45;&gt;Node6</title>
<path fill="none" stroke="midnightblue" d="M311.534,-104.431C320.122,-94.9673 330.543,-83.4827 337.559,-75.7511"/>
<polygon fill="midnightblue" stroke="midnightblue" points="308.719,-102.325 304.591,-112.083 313.903,-107.029 308.719,-102.325"/>
</g>
<!-- Node7 -->
<g id="node7" class="node"><title>Node7</title>
<g id="a_node7"><a xlink:href="handtrackers__c_8h.html" target="_top" xlink:title=" ">
<polygon fill="none" stroke="black" points="408.5,-56.5 408.5,-75.5 500.5,-75.5 500.5,-56.5 408.5,-56.5"/>
<text text-anchor="middle" x="454.5" y="-63.5" font-family="Helvetica,sans-Serif" font-size="10.00">handtrackers_c.h</text>
</a>
</g>
</g>
<!-- Node2&#45;&gt;Node7 -->
<g id="edge6" class="edge"><title>Node2&#45;&gt;Node7</title>
<path fill="none" stroke="midnightblue" d="M331.108,-109.172C360.859,-99.0039 403.047,-84.5852 429.582,-75.5164"/>
<polygon fill="midnightblue" stroke="midnightblue" points="329.866,-105.898 321.536,-112.444 332.13,-112.521 329.866,-105.898"/>
</g>
<!-- Node8&#45;&gt;Node9 -->
<g id="edge8" class="edge"><title>Node8&#45;&gt;Node9</title>
<path fill="none" stroke="midnightblue" d="M598.554,-103.566C592.188,-94.2747 584.633,-83.2484 579.496,-75.7511"/>
<polygon fill="midnightblue" stroke="midnightblue" points="595.851,-105.812 604.39,-112.083 601.625,-101.855 595.851,-105.812"/>
</g>
<!-- Node8&#45;&gt;Node10 -->
<g id="edge10" class="edge"><title>Node8&#45;&gt;Node10</title>
<path fill="none" stroke="midnightblue" d="M622.228,-103.82C627.425,-95.6549 633.301,-85.5991 637.5,-76 645.982,-56.6117 651.93,-32.3532 654.713,-19.6585"/>
<polygon fill="midnightblue" stroke="midnightblue" points="619.157,-102.12 616.578,-112.396 625.002,-105.971 619.157,-102.12"/>
</g>
<!-- Node9&#45;&gt;Node10 -->
<g id="edge9" class="edge"><title>Node9&#45;&gt;Node10</title>
<path fill="none" stroke="midnightblue" d="M595.599,-50.6221C610.762,-40.7574 630.383,-27.9919 643.198,-19.6545"/>
<polygon fill="midnightblue" stroke="midnightblue" points="593.309,-47.9367 586.835,-56.324 597.126,-53.8042 593.309,-47.9367"/>
</g>
</g>
</svg>
