<?xml version="1.0" encoding="UTF-8" standalone="no"?>
<!DOCTYPE svg PUBLIC "-//W3C//DTD SVG 1.1//EN"
 "http://www.w3.org/Graphics/SVG/1.1/DTD/svg11.dtd">
<!-- Generated by graphviz version 2.38.0 (20140413.2041)
 -->
<!-- Title: systemeventlistener.h Pages: 1 -->
<svg width="160pt" height="140pt"
 viewBox="0.00 0.00 159.50 140.00" xmlns="http://www.w3.org/2000/svg" xmlns:xlink="http://www.w3.org/1999/xlink">
<g id="graph0" class="graph" transform="scale(1 1) rotate(0) translate(4 136)">
<title>systemeventlistener.h</title>
<!-- Node1 -->
<g id="node1" class="node"><title>Node1</title>
<g id="a_node1"><a xlink:title=" ">
<polygon fill="#bfbfbf" stroke="black" points="40.5,-112.5 40.5,-131.5 151.5,-131.5 151.5,-112.5 40.5,-112.5"/>
<text text-anchor="middle" x="96" y="-119.5" font-family="Helvetica,sans-Serif" font-size="10.00">systemeventlistener.h</text>
</a>
</g>
</g>
<!-- Node2 -->
<g id="node2" class="node"><title>Node2</title>
<g id="a_node2"><a xlink:href="systemeventstream_8h.html" target="_top" xlink:title=" ">
<polygon fill="none" stroke="black" points="0,-56.5 0,-75.5 110,-75.5 110,-56.5 0,-56.5"/>
<text text-anchor="middle" x="55" y="-63.5" font-family="Helvetica,sans-Serif" font-size="10.00">systemeventstream.h</text>
</a>
</g>
</g>
<!-- Node1&#45;&gt;Node2 -->
<g id="edge1" class="edge"><title>Node1&#45;&gt;Node2</title>
<path fill="none" stroke="midnightblue" d="M82.9828,-103.855C75.8833,-94.5048 67.396,-83.3265 61.6443,-75.7511"/>
<polygon fill="midnightblue" stroke="midnightblue" points="80.395,-106.235 89.2297,-112.083 85.9701,-102.002 80.395,-106.235"/>
</g>
<!-- Node3 -->
<g id="node3" class="node"><title>Node3</title>
<g id="a_node3"><a xlink:href="systemsense_8h.html" target="_top" xlink:title=" ">
<polygon fill="none" stroke="black" points="54.5,-0.5 54.5,-19.5 137.5,-19.5 137.5,-0.5 54.5,-0.5"/>
<text text-anchor="middle" x="96" y="-7.5" font-family="Helvetica,sans-Serif" font-size="10.00">systemsense.h</text>
</a>
</g>
</g>
<!-- Node1&#45;&gt;Node3 -->
<g id="edge3" class="edge"><title>Node1&#45;&gt;Node3</title>
<path fill="none" stroke="midnightblue" d="M107.422,-103.442C111.983,-95.4187 116.693,-85.5817 119,-76 123.987,-55.2846 110.919,-31.9517 102.493,-19.6563"/>
<polygon fill="midnightblue" stroke="midnightblue" points="104.308,-101.827 102.105,-112.191 110.289,-105.463 104.308,-101.827"/>
</g>
<!-- Node2&#45;&gt;Node3 -->
<g id="edge2" class="edge"><title>Node2&#45;&gt;Node3</title>
<path fill="none" stroke="midnightblue" d="M68.0172,-47.8554C75.1167,-38.5048 83.604,-27.3265 89.3557,-19.7511"/>
<polygon fill="midnightblue" stroke="midnightblue" points="65.0299,-46.002 61.7703,-56.083 70.605,-50.235 65.0299,-46.002"/>
</g>
</g>
</svg>
