<?xml version="1.0" encoding="UTF-8" standalone="no"?>
<!DOCTYPE svg PUBLIC "-//W3C//DTD SVG 1.1//EN"
 "http://www.w3.org/Graphics/SVG/1.1/DTD/svg11.dtd">
<!-- Generated by graphviz version 2.38.0 (20140413.2041)
 -->
<!-- Title: systemeventstream.h Pages: 1 -->
<svg width="264pt" height="252pt"
 viewBox="0.00 0.00 264.00 252.00" xmlns="http://www.w3.org/2000/svg" xmlns:xlink="http://www.w3.org/1999/xlink">
<g id="graph0" class="graph" transform="scale(1 1) rotate(0) translate(4 248)">
<title>systemeventstream.h</title>
<!-- Node1 -->
<g id="node1" class="node"><title>Node1</title>
<g id="a_node1"><a xlink:title=" ">
<polygon fill="#bfbfbf" stroke="black" points="75,-224.5 75,-243.5 185,-243.5 185,-224.5 75,-224.5"/>
<text text-anchor="middle" x="130" y="-231.5" font-family="Helvetica,sans-Serif" font-size="10.00">systemeventstream.h</text>
</a>
</g>
</g>
<!-- Node2 -->
<g id="node2" class="node"><title>Node2</title>
<g id="a_node2"><a xlink:href="systemevent_8h.html" target="_top" xlink:title=" ">
<polygon fill="none" stroke="black" points="48,-112.5 48,-131.5 128,-131.5 128,-112.5 48,-112.5"/>
<text text-anchor="middle" x="88" y="-119.5" font-family="Helvetica,sans-Serif" font-size="10.00">systemevent.h</text>
</a>
</g>
</g>
<!-- Node1&#45;&gt;Node2 -->
<g id="edge1" class="edge"><title>Node1&#45;&gt;Node2</title>
<path fill="none" stroke="midnightblue" d="M108.192,-224.447C93.0551,-217.221 74.0453,-205.264 65,-188 56.875,-172.493 65.54,-153.49 74.4629,-140.046"/>
<polygon fill="midnightblue" stroke="midnightblue" points="77.4483,-141.891 80.4783,-131.739 71.7786,-137.786 77.4483,-141.891"/>
</g>
<!-- Node6 -->
<g id="node6" class="node"><title>Node6</title>
<g id="a_node6"><a xlink:href="systemeventlistener_8h.html" target="_top" xlink:title=" ">
<polygon fill="none" stroke="black" points="74.5,-168.5 74.5,-187.5 185.5,-187.5 185.5,-168.5 74.5,-168.5"/>
<text text-anchor="middle" x="130" y="-175.5" font-family="Helvetica,sans-Serif" font-size="10.00">systemeventlistener.h</text>
</a>
</g>
</g>
<!-- Node1&#45;&gt;Node6 -->
<g id="edge6" class="edge"><title>Node1&#45;&gt;Node6</title>
<path fill="none" stroke="midnightblue" d="M130,-224.083C130,-217.006 130,-206.861 130,-197.986"/>
<polygon fill="midnightblue" stroke="midnightblue" points="133.5,-197.751 130,-187.751 126.5,-197.751 133.5,-197.751"/>
</g>
<!-- Node7 -->
<g id="node7" class="node"><title>Node7</title>
<g id="a_node7"><a xlink:title=" ">
<polygon fill="none" stroke="#bfbfbf" points="204,-168.5 204,-187.5 256,-187.5 256,-168.5 204,-168.5"/>
<text text-anchor="middle" x="230" y="-175.5" font-family="Helvetica,sans-Serif" font-size="10.00">memory</text>
</a>
</g>
</g>
<!-- Node1&#45;&gt;Node7 -->
<g id="edge8" class="edge"><title>Node1&#45;&gt;Node7</title>
<path fill="none" stroke="midnightblue" d="M146.067,-224.324C161.958,-215.743 186.507,-202.486 204.958,-192.522"/>
<polygon fill="midnightblue" stroke="midnightblue" points="206.837,-195.486 213.973,-187.655 203.511,-189.326 206.837,-195.486"/>
</g>
<!-- Node3 -->
<g id="node3" class="node"><title>Node3</title>
<g id="a_node3"><a xlink:href="types_8h.html" target="_top" xlink:title=" ">
<polygon fill="none" stroke="black" points="0,-56.5 0,-75.5 60,-75.5 60,-56.5 0,-56.5"/>
<text text-anchor="middle" x="30" y="-63.5" font-family="Helvetica,sans-Serif" font-size="10.00">sr/types.h</text>
</a>
</g>
</g>
<!-- Node2&#45;&gt;Node3 -->
<g id="edge2" class="edge"><title>Node2&#45;&gt;Node3</title>
<path fill="none" stroke="midnightblue" d="M78.6813,-112.324C70.1074,-104.341 57.1878,-92.3128 46.8124,-82.6529"/>
<polygon fill="midnightblue" stroke="midnightblue" points="49.1922,-80.0865 39.4883,-75.8339 44.4223,-85.2098 49.1922,-80.0865"/>
</g>
<!-- Node4 -->
<g id="node4" class="node"><title>Node4</title>
<g id="a_node4"><a xlink:title=" ">
<polygon fill="none" stroke="#bfbfbf" points="34.5,-0.5 34.5,-19.5 83.5,-19.5 83.5,-0.5 34.5,-0.5"/>
<text text-anchor="middle" x="59" y="-7.5" font-family="Helvetica,sans-Serif" font-size="10.00">stdint.h</text>
</a>
</g>
</g>
<!-- Node2&#45;&gt;Node4 -->
<g id="edge4" class="edge"><title>Node2&#45;&gt;Node4</title>
<path fill="none" stroke="midnightblue" d="M85.7244,-112.368C81.0233,-94.5366 70.1506,-53.2953 63.8171,-29.2717"/>
<polygon fill="midnightblue" stroke="midnightblue" points="67.1987,-28.3688 61.265,-19.5914 60.43,-30.1533 67.1987,-28.3688"/>
</g>
<!-- Node5 -->
<g id="node5" class="node"><title>Node5</title>
<g id="a_node5"><a xlink:title=" ">
<polygon fill="none" stroke="#bfbfbf" points="116.5,-56.5 116.5,-75.5 157.5,-75.5 157.5,-56.5 116.5,-56.5"/>
<text text-anchor="middle" x="137" y="-63.5" font-family="Helvetica,sans-Serif" font-size="10.00">string</text>
</a>
</g>
</g>
<!-- Node2&#45;&gt;Node5 -->
<g id="edge5" class="edge"><title>Node2&#45;&gt;Node5</title>
<path fill="none" stroke="midnightblue" d="M96.0914,-112.083C103.155,-104.298 113.588,-92.8015 122.149,-83.3665"/>
<polygon fill="midnightblue" stroke="midnightblue" points="124.931,-85.5087 129.059,-75.7511 119.747,-80.8047 124.931,-85.5087"/>
</g>
<!-- Node3&#45;&gt;Node4 -->
<g id="edge3" class="edge"><title>Node3&#45;&gt;Node4</title>
<path fill="none" stroke="midnightblue" d="M34.7888,-56.083C38.7584,-48.6913 44.5251,-37.9533 49.4348,-28.8111"/>
<polygon fill="midnightblue" stroke="midnightblue" points="52.6525,-30.217 54.3003,-19.7511 46.4855,-26.9051 52.6525,-30.217"/>
</g>
<!-- Node6&#45;&gt;Node2 -->
<g id="edge7" class="edge"><title>Node6&#45;&gt;Node2</title>
<path fill="none" stroke="midnightblue" d="M123.065,-168.083C117.071,-160.377 108.248,-149.033 100.952,-139.653"/>
<polygon fill="midnightblue" stroke="midnightblue" points="103.709,-137.496 94.8064,-131.751 98.1831,-141.793 103.709,-137.496"/>
</g>
</g>
</svg>
