<?xml version="1.0" encoding="UTF-8" standalone="no"?>
<!DOCTYPE svg PUBLIC "-//W3C//DTD SVG 1.1//EN"
 "http://www.w3.org/Graphics/SVG/1.1/DTD/svg11.dtd">
<!-- Generated by graphviz version 2.38.0 (20140413.2041)
 -->
<!-- Title: transformation.h Pages: 1 -->
<svg width="1764pt" height="252pt"
 viewBox="0.00 0.00 1763.50 252.00" xmlns="http://www.w3.org/2000/svg" xmlns:xlink="http://www.w3.org/1999/xlink">
<g id="graph0" class="graph" transform="scale(1 1) rotate(0) translate(4 248)">
<title>transformation.h</title>
<!-- Node1 -->
<g id="node1" class="node"><title>Node1</title>
<g id="a_node1"><a xlink:title=" ">
<polygon fill="#bfbfbf" stroke="black" points="673.5,-224.5 673.5,-243.5 759.5,-243.5 759.5,-224.5 673.5,-224.5"/>
<text text-anchor="middle" x="716.5" y="-231.5" font-family="Helvetica,sans-Serif" font-size="10.00">transformation.h</text>
</a>
</g>
</g>
<!-- Node2 -->
<g id="node2" class="node"><title>Node2</title>
<g id="a_node2"><a xlink:href="camera_8h.html" target="_top" xlink:title=" ">
<polygon fill="none" stroke="black" points="20,-56.5 20,-75.5 77,-75.5 77,-56.5 20,-56.5"/>
<text text-anchor="middle" x="48.5" y="-63.5" font-family="Helvetica,sans-Serif" font-size="10.00">camera.h</text>
</a>
</g>
</g>
<!-- Node1&#45;&gt;Node2 -->
<g id="edge1" class="edge"><title>Node1&#45;&gt;Node2</title>
<path fill="none" stroke="midnightblue" d="M672.196,-221.99C545.103,-190.407 181.725,-100.107 77.0411,-74.0926"/>
<polygon fill="midnightblue" stroke="midnightblue" points="671.443,-225.41 681.992,-224.425 673.131,-218.616 671.443,-225.41"/>
</g>
<!-- Node4 -->
<g id="node4" class="node"><title>Node4</title>
<g id="a_node4"><a xlink:href="sense_8h.html" target="_top" xlink:title=" ">
<polygon fill="none" stroke="black" points="723,-168.5 723,-187.5 774,-187.5 774,-168.5 723,-168.5"/>
<text text-anchor="middle" x="748.5" y="-175.5" font-family="Helvetica,sans-Serif" font-size="10.00">sense.h</text>
</a>
</g>
</g>
<!-- Node1&#45;&gt;Node4 -->
<g id="edge3" class="edge"><title>Node1&#45;&gt;Node4</title>
<path fill="none" stroke="midnightblue" d="M727.004,-215.275C732.473,-206.045 738.918,-195.17 743.314,-187.751"/>
<polygon fill="midnightblue" stroke="midnightblue" points="723.871,-213.696 721.784,-224.083 729.893,-217.264 723.871,-213.696"/>
</g>
<!-- Node5 -->
<g id="node5" class="node"><title>Node5</title>
<g id="a_node5"><a xlink:href="srconfiguration_8h.html" target="_top" xlink:title=" ">
<polygon fill="none" stroke="black" points="637.5,-112.5 637.5,-131.5 725.5,-131.5 725.5,-112.5 637.5,-112.5"/>
<text text-anchor="middle" x="681.5" y="-119.5" font-family="Helvetica,sans-Serif" font-size="10.00">srconfiguration.h</text>
</a>
</g>
</g>
<!-- Node1&#45;&gt;Node5 -->
<g id="edge30" class="edge"><title>Node1&#45;&gt;Node5</title>
<path fill="none" stroke="midnightblue" d="M710.669,-214.674C703.017,-190.625 689.896,-149.388 684.234,-131.591"/>
<polygon fill="midnightblue" stroke="midnightblue" points="707.386,-215.9 713.754,-224.368 714.057,-213.778 707.386,-215.9"/>
</g>
<!-- Node28 -->
<g id="node28" class="node"><title>Node28</title>
<g id="a_node28"><a xlink:href="worldobject_8h.html" target="_top" xlink:title=" ">
<polygon fill="none" stroke="black" points="949.5,-168.5 949.5,-187.5 1023.5,-187.5 1023.5,-168.5 949.5,-168.5"/>
<text text-anchor="middle" x="986.5" y="-175.5" font-family="Helvetica,sans-Serif" font-size="10.00">worldobject.h</text>
</a>
</g>
</g>
<!-- Node1&#45;&gt;Node28 -->
<g id="edge31" class="edge"><title>Node1&#45;&gt;Node28</title>
<path fill="none" stroke="midnightblue" d="M769.163,-222.467C822.112,-211.878 902.403,-195.819 949.135,-186.473"/>
<polygon fill="midnightblue" stroke="midnightblue" points="768.402,-219.05 759.282,-224.444 769.775,-225.914 768.402,-219.05"/>
</g>
<!-- Node3 -->
<g id="node3" class="node"><title>Node3</title>
<g id="a_node3"><a xlink:href="cameracontroller_8h.html" target="_top" xlink:title=" ">
<polygon fill="none" stroke="black" points="0,-0.5 0,-19.5 97,-19.5 97,-0.5 0,-0.5"/>
<text text-anchor="middle" x="48.5" y="-7.5" font-family="Helvetica,sans-Serif" font-size="10.00">cameracontroller.h</text>
</a>
</g>
</g>
<!-- Node2&#45;&gt;Node3 -->
<g id="edge2" class="edge"><title>Node2&#45;&gt;Node3</title>
<path fill="none" stroke="midnightblue" d="M48.5,-45.8045C48.5,-36.9102 48.5,-26.7798 48.5,-19.7511"/>
<polygon fill="midnightblue" stroke="midnightblue" points="45.0001,-46.083 48.5,-56.083 52.0001,-46.083 45.0001,-46.083"/>
</g>
<!-- Node4&#45;&gt;Node2 -->
<g id="edge4" class="edge"><title>Node4&#45;&gt;Node2</title>
<path fill="none" stroke="midnightblue" d="M750.062,-158.047C750.146,-143.148 747.508,-123.115 734.5,-112 679.677,-65.1557 157.864,-86.3501 86.5,-76 83.4136,-75.5524 80.2095,-74.975 77.0295,-74.329"/>
<polygon fill="midnightblue" stroke="midnightblue" points="746.558,-158.056 749.594,-168.207 753.551,-158.378 746.558,-158.056"/>
</g>
<!-- Node4&#45;&gt;Node5 -->
<g id="edge5" class="edge"><title>Node4&#45;&gt;Node5</title>
<path fill="none" stroke="midnightblue" d="M729.665,-161.82C717.662,-152.145 702.528,-139.948 692.461,-131.834"/>
<polygon fill="midnightblue" stroke="midnightblue" points="727.753,-164.774 737.735,-168.324 732.146,-159.324 727.753,-164.774"/>
</g>
<!-- Node6 -->
<g id="node6" class="node"><title>Node6</title>
<g id="a_node6"><a xlink:href="srcontext_8h.html" target="_top" xlink:title=" ">
<polygon fill="none" stroke="black" points="870,-112.5 870,-131.5 935,-131.5 935,-112.5 870,-112.5"/>
<text text-anchor="middle" x="902.5" y="-119.5" font-family="Helvetica,sans-Serif" font-size="10.00">srcontext.h</text>
</a>
</g>
</g>
<!-- Node4&#45;&gt;Node6 -->
<g id="edge6" class="edge"><title>Node4&#45;&gt;Node6</title>
<path fill="none" stroke="midnightblue" d="M782.611,-165.039C811.587,-154.879 852.462,-140.546 878.212,-131.516"/>
<polygon fill="midnightblue" stroke="midnightblue" points="781.18,-161.832 772.902,-168.444 783.497,-168.437 781.18,-161.832"/>
</g>
<!-- Node6&#45;&gt;Node2 -->
<g id="edge8" class="edge"><title>Node6&#45;&gt;Node2</title>
<path fill="none" stroke="midnightblue" d="M859.669,-117.994C833.132,-116.168 798.343,-113.843 767.5,-112 464.951,-93.919 386.509,-119.1 86.5,-76 83.413,-75.5565 80.2085,-74.9818 77.0283,-74.3374"/>
<polygon fill="midnightblue" stroke="midnightblue" points="859.555,-121.494 869.773,-118.692 860.038,-114.511 859.555,-121.494"/>
</g>
<!-- Node7 -->
<g id="node7" class="node"><title>Node7</title>
<g id="a_node7"><a xlink:href="applicationsense_8h.html" target="_top" xlink:title=" ">
<polygon fill="none" stroke="black" points="951.5,-56.5 951.5,-75.5 1049.5,-75.5 1049.5,-56.5 951.5,-56.5"/>
<text text-anchor="middle" x="1000.5" y="-63.5" font-family="Helvetica,sans-Serif" font-size="10.00">applicationsense.h</text>
</a>
</g>
</g>
<!-- Node6&#45;&gt;Node7 -->
<g id="edge7" class="edge"><title>Node6&#45;&gt;Node7</title>
<path fill="none" stroke="midnightblue" d="M927.086,-107.453C945.178,-97.4835 969.235,-84.2279 984.794,-75.6545"/>
<polygon fill="midnightblue" stroke="midnightblue" points="925.315,-104.432 918.245,-112.324 928.693,-110.563 925.315,-104.432"/>
</g>
<!-- Node8 -->
<g id="node8" class="node"><title>Node8</title>
<g id="a_node8"><a xlink:href="display_8h.html" target="_top" xlink:title=" ">
<polygon fill="none" stroke="black" points="1627.5,-56.5 1627.5,-75.5 1683.5,-75.5 1683.5,-56.5 1627.5,-56.5"/>
<text text-anchor="middle" x="1655.5" y="-63.5" font-family="Helvetica,sans-Serif" font-size="10.00">display.h</text>
</a>
</g>
</g>
<!-- Node6&#45;&gt;Node8 -->
<g id="edge9" class="edge"><title>Node6&#45;&gt;Node8</title>
<path fill="none" stroke="midnightblue" d="M945.362,-120.924C1056.93,-120.163 1365.3,-114.445 1618.5,-76 1621.38,-75.5633 1624.36,-75.0109 1627.32,-74.3954"/>
<polygon fill="midnightblue" stroke="midnightblue" points="945.167,-117.425 935.187,-120.984 945.207,-124.425 945.167,-117.425"/>
</g>
<!-- Node9 -->
<g id="node9" class="node"><title>Node9</title>
<g id="a_node9"><a xlink:href="dx10weaver_8h.html" target="_top" xlink:title=" ">
<polygon fill="none" stroke="black" points="1068,-56.5 1068,-75.5 1143,-75.5 1143,-56.5 1068,-56.5"/>
<text text-anchor="middle" x="1105.5" y="-63.5" font-family="Helvetica,sans-Serif" font-size="10.00">dx10weaver.h</text>
</a>
</g>
</g>
<!-- Node6&#45;&gt;Node9 -->
<g id="edge10" class="edge"><title>Node6&#45;&gt;Node9</title>
<path fill="none" stroke="midnightblue" d="M944.494,-109.829C982.823,-99.6333 1038.65,-84.7823 1073.48,-75.5164"/>
<polygon fill="midnightblue" stroke="midnightblue" points="943.43,-106.49 934.666,-112.444 945.23,-113.255 943.43,-106.49"/>
</g>
<!-- Node10 -->
<g id="node10" class="node"><title>Node10</title>
<g id="a_node10"><a xlink:href="dx11weaver_8h.html" target="_top" xlink:title=" ">
<polygon fill="none" stroke="black" points="1161,-56.5 1161,-75.5 1236,-75.5 1236,-56.5 1161,-56.5"/>
<text text-anchor="middle" x="1198.5" y="-63.5" font-family="Helvetica,sans-Serif" font-size="10.00">dx11weaver.h</text>
</a>
</g>
</g>
<!-- Node6&#45;&gt;Node10 -->
<g id="edge11" class="edge"><title>Node6&#45;&gt;Node10</title>
<path fill="none" stroke="midnightblue" d="M945.192,-113.424C994.805,-104.587 1079.13,-89.4689 1151.5,-76 1154.52,-75.4376 1157.65,-74.8497 1160.8,-74.2556"/>
<polygon fill="midnightblue" stroke="midnightblue" points="944.381,-110.013 935.149,-115.211 945.608,-116.905 944.381,-110.013"/>
</g>
<!-- Node12 -->
<g id="node12" class="node"><title>Node12</title>
<g id="a_node12"><a xlink:href="dx12weaver_8h.html" target="_top" xlink:title=" ">
<polygon fill="none" stroke="black" points="1254,-56.5 1254,-75.5 1329,-75.5 1329,-56.5 1254,-56.5"/>
<text text-anchor="middle" x="1291.5" y="-63.5" font-family="Helvetica,sans-Serif" font-size="10.00">dx12weaver.h</text>
</a>
</g>
</g>
<!-- Node6&#45;&gt;Node12 -->
<g id="edge13" class="edge"><title>Node6&#45;&gt;Node12</title>
<path fill="none" stroke="midnightblue" d="M945.377,-116.173C1010.27,-108.683 1137.25,-93.309 1244.5,-76 1247.53,-75.5102 1250.67,-74.974 1253.82,-74.415"/>
<polygon fill="midnightblue" stroke="midnightblue" points="944.665,-112.732 935.13,-117.349 945.464,-119.686 944.665,-112.732"/>
</g>
<!-- Node13 -->
<g id="node13" class="node"><title>Node13</title>
<g id="a_node13"><a xlink:href="dx9weaver_8h.html" target="_top" xlink:title=" ">
<polygon fill="none" stroke="black" points="1347.5,-56.5 1347.5,-75.5 1417.5,-75.5 1417.5,-56.5 1347.5,-56.5"/>
<text text-anchor="middle" x="1382.5" y="-63.5" font-family="Helvetica,sans-Serif" font-size="10.00">dx9weaver.h</text>
</a>
</g>
</g>
<!-- Node6&#45;&gt;Node13 -->
<g id="edge14" class="edge"><title>Node6&#45;&gt;Node13</title>
<path fill="none" stroke="midnightblue" d="M945.521,-117.903C1023.8,-111.966 1194.64,-97.6253 1337.5,-76 1340.65,-75.523 1343.92,-74.9753 1347.18,-74.3907"/>
<polygon fill="midnightblue" stroke="midnightblue" points="944.812,-114.446 935.102,-118.684 945.335,-121.426 944.812,-114.446"/>
</g>
<!-- Node14 -->
<g id="node14" class="node"><title>Node14</title>
<g id="a_node14"><a xlink:href="eyetracker_8h.html" target="_top" xlink:title=" ">
<polygon fill="none" stroke="black" points="1436,-56.5 1436,-75.5 1507,-75.5 1507,-56.5 1436,-56.5"/>
<text text-anchor="middle" x="1471.5" y="-63.5" font-family="Helvetica,sans-Serif" font-size="10.00">eyetracker.h</text>
</a>
</g>
</g>
<!-- Node6&#45;&gt;Node14 -->
<g id="edge15" class="edge"><title>Node6&#45;&gt;Node14</title>
<path fill="none" stroke="midnightblue" d="M945.186,-118.954C1034.74,-114.305 1248.68,-101.336 1426.5,-76 1429.5,-75.5729 1432.6,-75.0744 1435.7,-74.5349"/>
<polygon fill="midnightblue" stroke="midnightblue" points="944.952,-115.461 935.143,-119.467 945.309,-122.452 944.952,-115.461"/>
</g>
<!-- Node17 -->
<g id="node17" class="node"><title>Node17</title>
<g id="a_node17"><a xlink:href="gestureanalyser_8h.html" target="_top" xlink:title=" ">
<polygon fill="none" stroke="black" points="95.5,-56.5 95.5,-75.5 189.5,-75.5 189.5,-56.5 95.5,-56.5"/>
<text text-anchor="middle" x="142.5" y="-63.5" font-family="Helvetica,sans-Serif" font-size="10.00">gestureanalyser.h</text>
</a>
</g>
</g>
<!-- Node6&#45;&gt;Node17 -->
<g id="edge18" class="edge"><title>Node6&#45;&gt;Node17</title>
<path fill="none" stroke="midnightblue" d="M859.662,-118.107C833.123,-116.324 798.333,-114.003 767.5,-112 514.639,-95.5722 450.328,-104.137 198.5,-76 195.564,-75.672 192.547,-75.2972 189.509,-74.8912"/>
<polygon fill="midnightblue" stroke="midnightblue" points="859.554,-121.608 869.767,-118.787 860.024,-114.623 859.554,-121.608"/>
</g>
<!-- Node18 -->
<g id="node18" class="node"><title>Node18</title>
<g id="a_node18"><a xlink:href="glweaver_8h.html" target="_top" xlink:title=" ">
<polygon fill="none" stroke="black" points="207.5,-56.5 207.5,-75.5 269.5,-75.5 269.5,-56.5 207.5,-56.5"/>
<text text-anchor="middle" x="238.5" y="-63.5" font-family="Helvetica,sans-Serif" font-size="10.00">glweaver.h</text>
</a>
</g>
</g>
<!-- Node6&#45;&gt;Node18 -->
<g id="edge19" class="edge"><title>Node6&#45;&gt;Node18</title>
<path fill="none" stroke="midnightblue" d="M859.805,-118.097C723.692,-108.819 307.233,-80.2442 278.5,-76 275.683,-75.5839 272.77,-75.0782 269.86,-74.5209"/>
<polygon fill="midnightblue" stroke="midnightblue" points="859.645,-121.594 869.86,-118.782 860.121,-114.61 859.645,-121.594"/>
</g>
<!-- Node19 -->
<g id="node19" class="node"><title>Node19</title>
<g id="a_node19"><a xlink:href="handtracker_8h.html" target="_top" xlink:title=" ">
<polygon fill="none" stroke="black" points="287.5,-56.5 287.5,-75.5 363.5,-75.5 363.5,-56.5 287.5,-56.5"/>
<text text-anchor="middle" x="325.5" y="-63.5" font-family="Helvetica,sans-Serif" font-size="10.00">handtracker.h</text>
</a>
</g>
</g>
<!-- Node6&#45;&gt;Node19 -->
<g id="edge20" class="edge"><title>Node6&#45;&gt;Node19</title>
<path fill="none" stroke="midnightblue" d="M859.594,-117.939C750.858,-110.089 466.455,-88.9482 372.5,-76 369.619,-75.603 366.648,-75.1464 363.664,-74.6538"/>
<polygon fill="midnightblue" stroke="midnightblue" points="859.634,-121.451 869.859,-118.679 860.136,-114.469 859.634,-121.451"/>
</g>
<!-- Node20 -->
<g id="node20" class="node"><title>Node20</title>
<g id="a_node20"><a xlink:href="headposetracker_8h.html" target="_top" xlink:title=" ">
<polygon fill="none" stroke="black" points="382,-56.5 382,-75.5 479,-75.5 479,-56.5 382,-56.5"/>
<text text-anchor="middle" x="430.5" y="-63.5" font-family="Helvetica,sans-Serif" font-size="10.00">headposetracker.h</text>
</a>
</g>
</g>
<!-- Node6&#45;&gt;Node20 -->
<g id="edge21" class="edge"><title>Node6&#45;&gt;Node20</title>
<path fill="none" stroke="midnightblue" d="M859.95,-117.022C784.838,-109.856 623.876,-93.8512 488.5,-76 485.469,-75.6004 482.352,-75.1708 479.211,-74.7238"/>
<polygon fill="midnightblue" stroke="midnightblue" points="859.681,-120.512 869.967,-117.974 860.343,-113.544 859.681,-120.512"/>
</g>
<!-- Node21 -->
<g id="node21" class="node"><title>Node21</title>
<g id="a_node21"><a xlink:href="headtracker_8h.html" target="_top" xlink:title=" ">
<polygon fill="none" stroke="black" points="497.5,-56.5 497.5,-75.5 573.5,-75.5 573.5,-56.5 497.5,-56.5"/>
<text text-anchor="middle" x="535.5" y="-63.5" font-family="Helvetica,sans-Serif" font-size="10.00">headtracker.h</text>
</a>
</g>
</g>
<!-- Node6&#45;&gt;Node21 -->
<g id="edge22" class="edge"><title>Node6&#45;&gt;Node21</title>
<path fill="none" stroke="midnightblue" d="M859.606,-115.654C798.107,-107.833 681.382,-92.4097 582.5,-76 579.631,-75.524 576.669,-75.0098 573.691,-74.477"/>
<polygon fill="midnightblue" stroke="midnightblue" points="859.351,-119.149 869.711,-116.933 860.23,-112.205 859.351,-119.149"/>
</g>
<!-- Node22 -->
<g id="node22" class="node"><title>Node22</title>
<g id="a_node22"><a xlink:href="screen_8h.html" target="_top" xlink:title=" ">
<polygon fill="none" stroke="black" points="1701.5,-56.5 1701.5,-75.5 1755.5,-75.5 1755.5,-56.5 1701.5,-56.5"/>
<text text-anchor="middle" x="1728.5" y="-63.5" font-family="Helvetica,sans-Serif" font-size="10.00">screen.h</text>
</a>
</g>
</g>
<!-- Node6&#45;&gt;Node22 -->
<g id="edge23" class="edge"><title>Node6&#45;&gt;Node22</title>
<path fill="none" stroke="midnightblue" d="M945.24,-121.377C1064.33,-121.825 1409.72,-119.011 1692.5,-76 1695.43,-75.5544 1698.47,-74.9783 1701.48,-74.3331"/>
<polygon fill="midnightblue" stroke="midnightblue" points="945.101,-117.877 935.084,-121.329 945.067,-124.877 945.101,-117.877"/>
</g>
<!-- Node23 -->
<g id="node23" class="node"><title>Node23</title>
<g id="a_node23"><a xlink:href="switchablehint_8h.html" target="_top" xlink:title=" ">
<polygon fill="none" stroke="black" points="591.5,-56.5 591.5,-75.5 677.5,-75.5 677.5,-56.5 591.5,-56.5"/>
<text text-anchor="middle" x="634.5" y="-63.5" font-family="Helvetica,sans-Serif" font-size="10.00">switchablehint.h</text>
</a>
</g>
</g>
<!-- Node6&#45;&gt;Node23 -->
<g id="edge24" class="edge"><title>Node6&#45;&gt;Node23</title>
<path fill="none" stroke="midnightblue" d="M860.038,-112.444C809.935,-102.349 727.126,-85.6635 677.005,-75.5645"/>
<polygon fill="midnightblue" stroke="midnightblue" points="859.412,-115.888 869.906,-114.433 860.794,-109.026 859.412,-115.888"/>
</g>
<!-- Node24 -->
<g id="node24" class="node"><title>Node24</title>
<g id="a_node24"><a xlink:href="systemsense_8h.html" target="_top" xlink:title=" ">
<polygon fill="none" stroke="black" points="696,-56.5 696,-75.5 779,-75.5 779,-56.5 696,-56.5"/>
<text text-anchor="middle" x="737.5" y="-63.5" font-family="Helvetica,sans-Serif" font-size="10.00">systemsense.h</text>
</a>
</g>
</g>
<!-- Node6&#45;&gt;Node24 -->
<g id="edge25" class="edge"><title>Node6&#45;&gt;Node24</title>
<path fill="none" stroke="midnightblue" d="M866.764,-109.304C835.673,-99.1294 791.353,-84.6246 763.522,-75.5164"/>
<polygon fill="midnightblue" stroke="midnightblue" points="865.763,-112.659 876.355,-112.444 867.94,-106.007 865.763,-112.659"/>
</g>
<!-- Node25 -->
<g id="node25" class="node"><title>Node25</title>
<g id="a_node25"><a xlink:href="weavertracker_8h.html" target="_top" xlink:title=" ">
<polygon fill="none" stroke="black" points="1525.5,-56.5 1525.5,-75.5 1609.5,-75.5 1609.5,-56.5 1525.5,-56.5"/>
<text text-anchor="middle" x="1567.5" y="-63.5" font-family="Helvetica,sans-Serif" font-size="10.00">weavertracker.h</text>
</a>
</g>
</g>
<!-- Node6&#45;&gt;Node25 -->
<g id="edge26" class="edge"><title>Node6&#45;&gt;Node25</title>
<path fill="none" stroke="midnightblue" d="M945.19,-119.309C1045.18,-115.035 1302.22,-102.221 1515.5,-76 1518.68,-75.6087 1521.97,-75.1562 1525.27,-74.6665"/>
<polygon fill="midnightblue" stroke="midnightblue" points="945.017,-115.813 935.173,-119.731 945.312,-122.807 945.017,-115.813"/>
</g>
<!-- Node26 -->
<g id="node26" class="node"><title>Node26</title>
<g id="a_node26"><a xlink:href="window_8h.html" target="_top" xlink:title=" ">
<polygon fill="none" stroke="black" points="797.5,-56.5 797.5,-75.5 853.5,-75.5 853.5,-56.5 797.5,-56.5"/>
<text text-anchor="middle" x="825.5" y="-63.5" font-family="Helvetica,sans-Serif" font-size="10.00">window.h</text>
</a>
</g>
</g>
<!-- Node6&#45;&gt;Node26 -->
<g id="edge28" class="edge"><title>Node6&#45;&gt;Node26</title>
<path fill="none" stroke="midnightblue" d="M881.599,-106.342C867.589,-96.5169 849.617,-83.9132 837.841,-75.6545"/>
<polygon fill="midnightblue" stroke="midnightblue" points="879.932,-109.448 890.129,-112.324 883.951,-103.717 879.932,-109.448"/>
</g>
<!-- Node27 -->
<g id="node27" class="node"><title>Node27</title>
<g id="a_node27"><a xlink:href="window2_8h.html" target="_top" xlink:title=" ">
<polygon fill="none" stroke="black" points="871.5,-56.5 871.5,-75.5 933.5,-75.5 933.5,-56.5 871.5,-56.5"/>
<text text-anchor="middle" x="902.5" y="-63.5" font-family="Helvetica,sans-Serif" font-size="10.00">window2.h</text>
</a>
</g>
</g>
<!-- Node6&#45;&gt;Node27 -->
<g id="edge29" class="edge"><title>Node6&#45;&gt;Node27</title>
<path fill="none" stroke="midnightblue" d="M902.5,-101.805C902.5,-92.9102 902.5,-82.7798 902.5,-75.7511"/>
<polygon fill="midnightblue" stroke="midnightblue" points="899,-102.083 902.5,-112.083 906,-102.083 899,-102.083"/>
</g>
<!-- Node11 -->
<g id="node11" class="node"><title>Node11</title>
<g id="a_node11"><a xlink:href="dxweaver_8h.html" target="_top" xlink:title=" ">
<polygon fill="none" stroke="black" points="1166,-0.5 1166,-19.5 1231,-19.5 1231,-0.5 1166,-0.5"/>
<text text-anchor="middle" x="1198.5" y="-7.5" font-family="Helvetica,sans-Serif" font-size="10.00">dxweaver.h</text>
</a>
</g>
</g>
<!-- Node10&#45;&gt;Node11 -->
<g id="edge12" class="edge"><title>Node10&#45;&gt;Node11</title>
<path fill="none" stroke="midnightblue" d="M1198.5,-45.8045C1198.5,-36.9102 1198.5,-26.7798 1198.5,-19.7511"/>
<polygon fill="midnightblue" stroke="midnightblue" points="1195,-46.083 1198.5,-56.083 1202,-46.083 1195,-46.083"/>
</g>
<!-- Node15 -->
<g id="node15" class="node"><title>Node15</title>
<g id="a_node15"><a xlink:href="predictingeyetracker_8h.html" target="_top" xlink:title=" ">
<polygon fill="none" stroke="black" points="1373,-0.5 1373,-19.5 1486,-19.5 1486,-0.5 1373,-0.5"/>
<text text-anchor="middle" x="1429.5" y="-7.5" font-family="Helvetica,sans-Serif" font-size="10.00">predictingeyetracker.h</text>
</a>
</g>
</g>
<!-- Node14&#45;&gt;Node15 -->
<g id="edge16" class="edge"><title>Node14&#45;&gt;Node15</title>
<path fill="none" stroke="midnightblue" d="M1458.39,-48.144C1451.07,-38.7357 1442.26,-27.4046 1436.31,-19.7511"/>
<polygon fill="midnightblue" stroke="midnightblue" points="1455.66,-50.3383 1464.56,-56.083 1461.19,-46.0406 1455.66,-50.3383"/>
</g>
<!-- Node16 -->
<g id="node16" class="node"><title>Node16</title>
<g id="a_node16"><a xlink:href="predictingweavertracker_8h.html" target="_top" xlink:title=" ">
<polygon fill="none" stroke="black" points="1504.5,-0.5 1504.5,-19.5 1630.5,-19.5 1630.5,-0.5 1504.5,-0.5"/>
<text text-anchor="middle" x="1567.5" y="-7.5" font-family="Helvetica,sans-Serif" font-size="10.00">predictingweavertracker.h</text>
</a>
</g>
</g>
<!-- Node14&#45;&gt;Node16 -->
<g id="edge17" class="edge"><title>Node14&#45;&gt;Node16</title>
<path fill="none" stroke="midnightblue" d="M1496.07,-51.1774C1513.74,-41.2407 1537.01,-28.1492 1552.11,-19.6545"/>
<polygon fill="midnightblue" stroke="midnightblue" points="1493.92,-48.3708 1486.92,-56.324 1497.36,-54.4718 1493.92,-48.3708"/>
</g>
<!-- Node25&#45;&gt;Node16 -->
<g id="edge27" class="edge"><title>Node25&#45;&gt;Node16</title>
<path fill="none" stroke="midnightblue" d="M1567.5,-45.8045C1567.5,-36.9102 1567.5,-26.7798 1567.5,-19.7511"/>
<polygon fill="midnightblue" stroke="midnightblue" points="1564,-46.083 1567.5,-56.083 1571,-46.083 1564,-46.083"/>
</g>
<!-- Node28&#45;&gt;Node6 -->
<g id="edge34" class="edge"><title>Node28&#45;&gt;Node6</title>
<path fill="none" stroke="midnightblue" d="M964.568,-162.901C949.165,-152.999 929.054,-140.071 915.963,-131.655"/>
<polygon fill="midnightblue" stroke="midnightblue" points="962.699,-165.86 973.004,-168.324 966.485,-159.972 962.699,-165.86"/>
</g>
<!-- Node28&#45;&gt;Node8 -->
<g id="edge32" class="edge"><title>Node28&#45;&gt;Node8</title>
<path fill="none" stroke="midnightblue" d="M1033.73,-170.772C1139.12,-156.586 1401.33,-119.692 1618.5,-76 1621.35,-75.4263 1624.32,-74.7839 1627.27,-74.1134"/>
<polygon fill="midnightblue" stroke="midnightblue" points="1033.17,-167.315 1023.73,-172.113 1034.11,-174.253 1033.17,-167.315"/>
</g>
<!-- Node28&#45;&gt;Node22 -->
<g id="edge33" class="edge"><title>Node28&#45;&gt;Node22</title>
<path fill="none" stroke="midnightblue" d="M1033.77,-172.423C1106.96,-165.134 1252.02,-149.871 1374.5,-132 1516.5,-111.28 1552.13,-105.866 1692.5,-76 1695.4,-75.3833 1698.42,-74.6976 1701.42,-73.9876"/>
<polygon fill="midnightblue" stroke="midnightblue" points="1033.11,-168.971 1023.51,-173.44 1033.8,-175.937 1033.11,-168.971"/>
</g>
</g>
</svg>
