<?xml version="1.0" encoding="UTF-8" standalone="no"?>
<!DOCTYPE svg PUBLIC "-//W3C//DTD SVG 1.1//EN"
 "http://www.w3.org/Graphics/SVG/1.1/DTD/svg11.dtd">
<!-- Generated by graphviz version 2.38.0 (20140413.2041)
 -->
<!-- Title: SR_thumb Pages: 1 -->
<svg width="93pt" height="161pt"
 viewBox="0.00 0.00 92.50 161.00" xmlns="http://www.w3.org/2000/svg" xmlns:xlink="http://www.w3.org/1999/xlink">
<g id="graph0" class="graph" transform="scale(1 1) rotate(0) translate(4 157)">
<title>SR_thumb</title>
<!-- Node1 -->
<g id="node1" class="node"><title>Node1</title>
<g id="a_node1"><a xlink:title="C&#45;compatible struct containing the part of the pose representing a thumb.">
<polygon fill="#bfbfbf" stroke="black" points="4.5,-0.5 4.5,-19.5 66.5,-19.5 66.5,-0.5 4.5,-0.5"/>
<text text-anchor="middle" x="35.5" y="-7.5" font-family="Helvetica,sans-Serif" font-size="10.00">SR_thumb</text>
</a>
</g>
</g>
<!-- Node2 -->
<g id="node2" class="node"><title>Node2</title>
<g id="a_node2"><a xlink:href="unionSR__vector3d.html" target="_top" xlink:title="C&#45;compatible 3d double vector representation.">
<polygon fill="none" stroke="black" points="0,-133.5 0,-152.5 71,-152.5 71,-133.5 0,-133.5"/>
<text text-anchor="middle" x="35.5" y="-140.5" font-family="Helvetica,sans-Serif" font-size="10.00">SR_vector3d</text>
</a>
</g>
</g>
<!-- Node2&#45;&gt;Node1 -->
<g id="edge1" class="edge"><title>Node2&#45;&gt;Node1</title>
<path fill="none" stroke="#9a32cd" stroke-dasharray="5,2" d="M35.5,-123.09C35.5,-94.3564 35.5,-40.8221 35.5,-19.7987"/>
<polygon fill="#9a32cd" stroke="#9a32cd" points="32.0001,-123.405 35.5,-133.405 39.0001,-123.405 32.0001,-123.405"/>
<text text-anchor="middle" x="60" y="-107" font-family="Helvetica,sans-Serif" font-size="10.00"> a</text>
<text text-anchor="middle" x="60" y="-96" font-family="Helvetica,sans-Serif" font-size="10.00">b</text>
<text text-anchor="middle" x="60" y="-85" font-family="Helvetica,sans-Serif" font-size="10.00">distal</text>
<text text-anchor="middle" x="60" y="-74" font-family="Helvetica,sans-Serif" font-size="10.00">joints</text>
<text text-anchor="middle" x="60" y="-63" font-family="Helvetica,sans-Serif" font-size="10.00">metacarpal</text>
<text text-anchor="middle" x="60" y="-52" font-family="Helvetica,sans-Serif" font-size="10.00">proximal</text>
<text text-anchor="middle" x="60" y="-41" font-family="Helvetica,sans-Serif" font-size="10.00">tip</text>
</g>
</g>
</svg>
