<?xml version="1.0" encoding="UTF-8" standalone="no"?>
<!DOCTYPE svg PUBLIC "-//W3C//DTD SVG 1.1//EN"
 "http://www.w3.org/Graphics/SVG/1.1/DTD/svg11.dtd">
<!-- Generated by graphviz version 2.38.0 (20140413.2041)
 -->
<!-- Title: videostream.h Pages: 1 -->
<svg width="190pt" height="196pt"
 viewBox="0.00 0.00 190.00 196.00" xmlns="http://www.w3.org/2000/svg" xmlns:xlink="http://www.w3.org/1999/xlink">
<g id="graph0" class="graph" transform="scale(1 1) rotate(0) translate(4 192)">
<title>videostream.h</title>
<!-- Node1 -->
<g id="node1" class="node"><title>Node1</title>
<g id="a_node1"><a xlink:title=" ">
<polygon fill="#bfbfbf" stroke="black" points="37.5,-168.5 37.5,-187.5 114.5,-187.5 114.5,-168.5 37.5,-168.5"/>
<text text-anchor="middle" x="76" y="-175.5" font-family="Helvetica,sans-Serif" font-size="10.00">videostream.h</text>
</a>
</g>
</g>
<!-- Node2 -->
<g id="node2" class="node"><title>Node2</title>
<g id="a_node2"><a xlink:href="videoframe_8h.html" target="_top" xlink:title=" ">
<polygon fill="none" stroke="black" points="40.5,-56.5 40.5,-75.5 111.5,-75.5 111.5,-56.5 40.5,-56.5"/>
<text text-anchor="middle" x="76" y="-63.5" font-family="Helvetica,sans-Serif" font-size="10.00">videoframe.h</text>
</a>
</g>
</g>
<!-- Node1&#45;&gt;Node2 -->
<g id="edge1" class="edge"><title>Node1&#45;&gt;Node2</title>
<path fill="none" stroke="midnightblue" d="M72.0332,-168.232C66.8873,-155.804 58.913,-132.314 62,-112 63.3675,-103.001 66.1904,-93.3251 68.9455,-85.2601"/>
<polygon fill="midnightblue" stroke="midnightblue" points="72.2653,-86.3722 72.4,-75.7782 65.6882,-83.9759 72.2653,-86.3722"/>
</g>
<!-- Node5 -->
<g id="node5" class="node"><title>Node5</title>
<g id="a_node5"><a xlink:href="videolistener_8h.html" target="_top" xlink:title=" ">
<polygon fill="none" stroke="black" points="71,-112.5 71,-131.5 149,-131.5 149,-112.5 71,-112.5"/>
<text text-anchor="middle" x="110" y="-119.5" font-family="Helvetica,sans-Serif" font-size="10.00">videolistener.h</text>
</a>
</g>
</g>
<!-- Node1&#45;&gt;Node5 -->
<g id="edge4" class="edge"><title>Node1&#45;&gt;Node5</title>
<path fill="none" stroke="midnightblue" d="M81.6144,-168.083C86.3674,-160.534 93.3181,-149.495 99.1516,-140.23"/>
<polygon fill="midnightblue" stroke="midnightblue" points="102.124,-142.078 104.49,-131.751 96.2001,-138.349 102.124,-142.078"/>
</g>
<!-- Node3 -->
<g id="node3" class="node"><title>Node3</title>
<g id="a_node3"><a xlink:title=" ">
<polygon fill="none" stroke="#bfbfbf" points="0,-0.5 0,-19.5 52,-19.5 52,-0.5 0,-0.5"/>
<text text-anchor="middle" x="26" y="-7.5" font-family="Helvetica,sans-Serif" font-size="10.00">memory</text>
</a>
</g>
</g>
<!-- Node2&#45;&gt;Node3 -->
<g id="edge2" class="edge"><title>Node2&#45;&gt;Node3</title>
<path fill="none" stroke="midnightblue" d="M67.7435,-56.083C60.5353,-48.2982 49.8902,-36.8015 41.1542,-27.3665"/>
<polygon fill="midnightblue" stroke="midnightblue" points="43.4651,-24.7108 34.1028,-19.7511 38.3288,-29.4666 43.4651,-24.7108"/>
</g>
<!-- Node4 -->
<g id="node4" class="node"><title>Node4</title>
<g id="a_node4"><a xlink:title=" ">
<polygon fill="none" stroke="#bfbfbf" points="70,-0.5 70,-19.5 182,-19.5 182,-0.5 70,-0.5"/>
<text text-anchor="middle" x="126" y="-7.5" font-family="Helvetica,sans-Serif" font-size="10.00">opencv2/core/mat.hpp</text>
</a>
</g>
</g>
<!-- Node2&#45;&gt;Node4 -->
<g id="edge3" class="edge"><title>Node2&#45;&gt;Node4</title>
<path fill="none" stroke="midnightblue" d="M84.2565,-56.083C91.4647,-48.2982 102.11,-36.8015 110.846,-27.3665"/>
<polygon fill="midnightblue" stroke="midnightblue" points="113.671,-29.4666 117.897,-19.7511 108.535,-24.7108 113.671,-29.4666"/>
</g>
<!-- Node5&#45;&gt;Node2 -->
<g id="edge5" class="edge"><title>Node5&#45;&gt;Node2</title>
<path fill="none" stroke="midnightblue" d="M104.386,-112.083C99.6326,-104.534 92.6819,-93.4948 86.8484,-84.2298"/>
<polygon fill="midnightblue" stroke="midnightblue" points="89.7999,-82.3486 81.5099,-75.7511 83.8763,-86.0783 89.7999,-82.3486"/>
</g>
</g>
</svg>
