<?xml version="1.0" encoding="UTF-8" standalone="no"?>
<!DOCTYPE svg PUBLIC "-//W3C//DTD SVG 1.1//EN"
 "http://www.w3.org/Graphics/SVG/1.1/DTD/svg11.dtd">
<!-- Generated by graphviz version 2.38.0 (20140413.2041)
 -->
<!-- Title: videoframe.h Pages: 1 -->
<svg width="190pt" height="84pt"
 viewBox="0.00 0.00 190.00 84.00" xmlns="http://www.w3.org/2000/svg" xmlns:xlink="http://www.w3.org/1999/xlink">
<g id="graph0" class="graph" transform="scale(1 1) rotate(0) translate(4 80)">
<title>videoframe.h</title>
<!-- Node1 -->
<g id="node1" class="node"><title>Node1</title>
<g id="a_node1"><a xlink:title=" ">
<polygon fill="#bfbfbf" stroke="black" points="40.5,-56.5 40.5,-75.5 111.5,-75.5 111.5,-56.5 40.5,-56.5"/>
<text text-anchor="middle" x="76" y="-63.5" font-family="Helvetica,sans-Serif" font-size="10.00">videoframe.h</text>
</a>
</g>
</g>
<!-- Node2 -->
<g id="node2" class="node"><title>Node2</title>
<g id="a_node2"><a xlink:title=" ">
<polygon fill="none" stroke="#bfbfbf" points="0,-0.5 0,-19.5 52,-19.5 52,-0.5 0,-0.5"/>
<text text-anchor="middle" x="26" y="-7.5" font-family="Helvetica,sans-Serif" font-size="10.00">memory</text>
</a>
</g>
</g>
<!-- Node1&#45;&gt;Node2 -->
<g id="edge1" class="edge"><title>Node1&#45;&gt;Node2</title>
<path fill="none" stroke="midnightblue" d="M67.7435,-56.083C60.5353,-48.2982 49.8902,-36.8015 41.1542,-27.3665"/>
<polygon fill="midnightblue" stroke="midnightblue" points="43.4651,-24.7108 34.1028,-19.7511 38.3288,-29.4666 43.4651,-24.7108"/>
</g>
<!-- Node3 -->
<g id="node3" class="node"><title>Node3</title>
<g id="a_node3"><a xlink:title=" ">
<polygon fill="none" stroke="#bfbfbf" points="70,-0.5 70,-19.5 182,-19.5 182,-0.5 70,-0.5"/>
<text text-anchor="middle" x="126" y="-7.5" font-family="Helvetica,sans-Serif" font-size="10.00">opencv2/core/mat.hpp</text>
</a>
</g>
</g>
<!-- Node1&#45;&gt;Node3 -->
<g id="edge2" class="edge"><title>Node1&#45;&gt;Node3</title>
<path fill="none" stroke="midnightblue" d="M84.2565,-56.083C91.4647,-48.2982 102.11,-36.8015 110.846,-27.3665"/>
<polygon fill="midnightblue" stroke="midnightblue" points="113.671,-29.4666 117.897,-19.7511 108.535,-24.7108 113.671,-29.4666"/>
</g>
</g>
</svg>
