<?xml version="1.0" encoding="UTF-8" standalone="no"?>
<!DOCTYPE svg PUBLIC "-//W3C//DTD SVG 1.1//EN"
 "http://www.w3.org/Graphics/SVG/1.1/DTD/svg11.dtd">
<!-- Generated by graphviz version 2.38.0 (20140413.2041)
 -->
<!-- Title: WeaverTypes.h Pages: 1 -->
<svg width="596pt" height="140pt"
 viewBox="0.00 0.00 595.50 140.00" xmlns="http://www.w3.org/2000/svg" xmlns:xlink="http://www.w3.org/1999/xlink">
<g id="graph0" class="graph" transform="scale(1 1) rotate(0) translate(4 136)">
<title>WeaverTypes.h</title>
<!-- Node1 -->
<g id="node1" class="node"><title>Node1</title>
<g id="a_node1"><a xlink:title=" ">
<polygon fill="#bfbfbf" stroke="black" points="247,-112.5 247,-131.5 330,-131.5 330,-112.5 247,-112.5"/>
<text text-anchor="middle" x="288.5" y="-119.5" font-family="Helvetica,sans-Serif" font-size="10.00">WeaverTypes.h</text>
</a>
</g>
</g>
<!-- Node2 -->
<g id="node2" class="node"><title>Node2</title>
<g id="a_node2"><a xlink:href="Weaver_8h.html" target="_top" xlink:title=" ">
<polygon fill="none" stroke="black" points="0,-56.5 0,-75.5 57,-75.5 57,-56.5 0,-56.5"/>
<text text-anchor="middle" x="28.5" y="-63.5" font-family="Helvetica,sans-Serif" font-size="10.00">Weaver.h</text>
</a>
</g>
</g>
<!-- Node1&#45;&gt;Node2 -->
<g id="edge1" class="edge"><title>Node1&#45;&gt;Node2</title>
<path fill="none" stroke="midnightblue" d="M236.848,-111.025C191.791,-102.205 124.705,-88.7883 66.5,-76 63.454,-75.3308 60.2757,-74.6114 57.111,-73.8816"/>
<polygon fill="midnightblue" stroke="midnightblue" points="236.195,-114.463 246.68,-112.945 237.536,-107.593 236.195,-114.463"/>
</g>
<!-- Node3 -->
<g id="node3" class="node"><title>Node3</title>
<g id="a_node3"><a xlink:href="WeaverC_8h.html" target="_top" xlink:title=" ">
<polygon fill="none" stroke="black" points="75.5,-56.5 75.5,-75.5 139.5,-75.5 139.5,-56.5 75.5,-56.5"/>
<text text-anchor="middle" x="107.5" y="-63.5" font-family="Helvetica,sans-Serif" font-size="10.00">WeaverC.h</text>
</a>
</g>
</g>
<!-- Node1&#45;&gt;Node3 -->
<g id="edge2" class="edge"><title>Node1&#45;&gt;Node3</title>
<path fill="none" stroke="midnightblue" d="M250.181,-109.568C216.036,-99.381 166.839,-84.7034 136.046,-75.5164"/>
<polygon fill="midnightblue" stroke="midnightblue" points="249.237,-112.938 259.82,-112.444 251.238,-106.231 249.237,-112.938"/>
</g>
<!-- Node4 -->
<g id="node4" class="node"><title>Node4</title>
<g id="a_node4"><a xlink:href="dx10weaver_8h.html" target="_top" xlink:title=" ">
<polygon fill="none" stroke="black" points="158,-56.5 158,-75.5 233,-75.5 233,-56.5 158,-56.5"/>
<text text-anchor="middle" x="195.5" y="-63.5" font-family="Helvetica,sans-Serif" font-size="10.00">dx10weaver.h</text>
</a>
</g>
</g>
<!-- Node1&#45;&gt;Node4 -->
<g id="edge3" class="edge"><title>Node1&#45;&gt;Node4</title>
<path fill="none" stroke="midnightblue" d="M264.694,-107.177C247.581,-97.2407 225.035,-84.1492 210.405,-75.6545"/>
<polygon fill="midnightblue" stroke="midnightblue" points="263.153,-110.329 273.558,-112.324 266.668,-104.276 263.153,-110.329"/>
</g>
<!-- Node5 -->
<g id="node5" class="node"><title>Node5</title>
<g id="a_node5"><a xlink:href="dx11weaver_8h.html" target="_top" xlink:title=" ">
<polygon fill="none" stroke="black" points="251,-56.5 251,-75.5 326,-75.5 326,-56.5 251,-56.5"/>
<text text-anchor="middle" x="288.5" y="-63.5" font-family="Helvetica,sans-Serif" font-size="10.00">dx11weaver.h</text>
</a>
</g>
</g>
<!-- Node1&#45;&gt;Node5 -->
<g id="edge4" class="edge"><title>Node1&#45;&gt;Node5</title>
<path fill="none" stroke="midnightblue" d="M288.5,-101.805C288.5,-92.9102 288.5,-82.7798 288.5,-75.7511"/>
<polygon fill="midnightblue" stroke="midnightblue" points="285,-102.083 288.5,-112.083 292,-102.083 285,-102.083"/>
</g>
<!-- Node7 -->
<g id="node7" class="node"><title>Node7</title>
<g id="a_node7"><a xlink:href="dx12weaver_8h.html" target="_top" xlink:title=" ">
<polygon fill="none" stroke="black" points="344,-56.5 344,-75.5 419,-75.5 419,-56.5 344,-56.5"/>
<text text-anchor="middle" x="381.5" y="-63.5" font-family="Helvetica,sans-Serif" font-size="10.00">dx12weaver.h</text>
</a>
</g>
</g>
<!-- Node1&#45;&gt;Node7 -->
<g id="edge6" class="edge"><title>Node1&#45;&gt;Node7</title>
<path fill="none" stroke="midnightblue" d="M312.306,-107.177C329.419,-97.2407 351.965,-84.1492 366.595,-75.6545"/>
<polygon fill="midnightblue" stroke="midnightblue" points="310.332,-104.276 303.442,-112.324 313.847,-110.329 310.332,-104.276"/>
</g>
<!-- Node8 -->
<g id="node8" class="node"><title>Node8</title>
<g id="a_node8"><a xlink:href="dx9weaver_8h.html" target="_top" xlink:title=" ">
<polygon fill="none" stroke="black" points="437.5,-56.5 437.5,-75.5 507.5,-75.5 507.5,-56.5 437.5,-56.5"/>
<text text-anchor="middle" x="472.5" y="-63.5" font-family="Helvetica,sans-Serif" font-size="10.00">dx9weaver.h</text>
</a>
</g>
</g>
<!-- Node1&#45;&gt;Node8 -->
<g id="edge7" class="edge"><title>Node1&#45;&gt;Node8</title>
<path fill="none" stroke="midnightblue" d="M327.454,-109.568C362.165,-99.381 412.177,-84.7034 443.481,-75.5164"/>
<polygon fill="midnightblue" stroke="midnightblue" points="326.265,-106.269 317.655,-112.444 328.236,-112.986 326.265,-106.269"/>
</g>
<!-- Node9 -->
<g id="node9" class="node"><title>Node9</title>
<g id="a_node9"><a xlink:href="glweaver_8h.html" target="_top" xlink:title=" ">
<polygon fill="none" stroke="black" points="525.5,-56.5 525.5,-75.5 587.5,-75.5 587.5,-56.5 525.5,-56.5"/>
<text text-anchor="middle" x="556.5" y="-63.5" font-family="Helvetica,sans-Serif" font-size="10.00">glweaver.h</text>
</a>
</g>
</g>
<!-- Node1&#45;&gt;Node9 -->
<g id="edge8" class="edge"><title>Node1&#45;&gt;Node9</title>
<path fill="none" stroke="midnightblue" d="M340.254,-111.19C386.518,-102.324 456.127,-88.7475 516.5,-76 519.286,-75.4118 522.178,-74.7877 525.074,-74.1532"/>
<polygon fill="midnightblue" stroke="midnightblue" points="339.336,-107.802 330.172,-113.118 340.652,-114.677 339.336,-107.802"/>
</g>
<!-- Node6 -->
<g id="node6" class="node"><title>Node6</title>
<g id="a_node6"><a xlink:href="dxweaver_8h.html" target="_top" xlink:title=" ">
<polygon fill="none" stroke="black" points="256,-0.5 256,-19.5 321,-19.5 321,-0.5 256,-0.5"/>
<text text-anchor="middle" x="288.5" y="-7.5" font-family="Helvetica,sans-Serif" font-size="10.00">dxweaver.h</text>
</a>
</g>
</g>
<!-- Node5&#45;&gt;Node6 -->
<g id="edge5" class="edge"><title>Node5&#45;&gt;Node6</title>
<path fill="none" stroke="midnightblue" d="M288.5,-45.8045C288.5,-36.9102 288.5,-26.7798 288.5,-19.7511"/>
<polygon fill="midnightblue" stroke="midnightblue" points="285,-46.083 288.5,-56.083 292,-46.083 285,-46.083"/>
</g>
</g>
</svg>
