<?xml version="1.0" encoding="UTF-8" standalone="no"?>
<!DOCTYPE svg PUBLIC "-//W3C//DTD SVG 1.1//EN"
 "http://www.w3.org/Graphics/SVG/1.1/DTD/svg11.dtd">
<!-- Generated by graphviz version 2.38.0 (20140413.2041)
 -->
<!-- Title: weaverpositionlistener.h Pages: 1 -->
<svg width="127pt" height="196pt"
 viewBox="0.00 0.00 127.00 196.00" xmlns="http://www.w3.org/2000/svg" xmlns:xlink="http://www.w3.org/1999/xlink">
<g id="graph0" class="graph" transform="scale(1 1) rotate(0) translate(4 192)">
<title>weaverpositionlistener.h</title>
<!-- Node1 -->
<g id="node1" class="node"><title>Node1</title>
<g id="a_node1"><a xlink:title=" ">
<polygon fill="#bfbfbf" stroke="black" points="0,-168.5 0,-187.5 119,-187.5 119,-168.5 0,-168.5"/>
<text text-anchor="middle" x="59.5" y="-175.5" font-family="Helvetica,sans-Serif" font-size="10.00">weaverpositionlistener.h</text>
</a>
</g>
</g>
<!-- Node2 -->
<g id="node2" class="node"><title>Node2</title>
<g id="a_node2"><a xlink:href="weaverposition_8h.html" target="_top" xlink:title=" ">
<polygon fill="none" stroke="black" points="15.5,-112.5 15.5,-131.5 103.5,-131.5 103.5,-112.5 15.5,-112.5"/>
<text text-anchor="middle" x="59.5" y="-119.5" font-family="Helvetica,sans-Serif" font-size="10.00">weaverposition.h</text>
</a>
</g>
</g>
<!-- Node1&#45;&gt;Node2 -->
<g id="edge1" class="edge"><title>Node1&#45;&gt;Node2</title>
<path fill="none" stroke="midnightblue" d="M59.5,-168.083C59.5,-161.006 59.5,-150.861 59.5,-141.986"/>
<polygon fill="midnightblue" stroke="midnightblue" points="63.0001,-141.751 59.5,-131.751 56.0001,-141.751 63.0001,-141.751"/>
</g>
<!-- Node3 -->
<g id="node3" class="node"><title>Node3</title>
<g id="a_node3"><a xlink:href="types_8h.html" target="_top" xlink:title=" ">
<polygon fill="none" stroke="black" points="0.5,-56.5 0.5,-75.5 60.5,-75.5 60.5,-56.5 0.5,-56.5"/>
<text text-anchor="middle" x="30.5" y="-63.5" font-family="Helvetica,sans-Serif" font-size="10.00">sr/types.h</text>
</a>
</g>
</g>
<!-- Node2&#45;&gt;Node3 -->
<g id="edge2" class="edge"><title>Node2&#45;&gt;Node3</title>
<path fill="none" stroke="midnightblue" d="M54.7112,-112.083C50.7416,-104.691 44.9749,-93.9533 40.0652,-84.8111"/>
<polygon fill="midnightblue" stroke="midnightblue" points="43.0145,-82.9051 35.1997,-75.7511 36.8475,-86.217 43.0145,-82.9051"/>
</g>
<!-- Node4 -->
<g id="node4" class="node"><title>Node4</title>
<g id="a_node4"><a xlink:title=" ">
<polygon fill="none" stroke="#bfbfbf" points="35,-0.5 35,-19.5 84,-19.5 84,-0.5 35,-0.5"/>
<text text-anchor="middle" x="59.5" y="-7.5" font-family="Helvetica,sans-Serif" font-size="10.00">stdint.h</text>
</a>
</g>
</g>
<!-- Node2&#45;&gt;Node4 -->
<g id="edge4" class="edge"><title>Node2&#45;&gt;Node4</title>
<path fill="none" stroke="midnightblue" d="M62.3369,-112.201C66.0168,-99.7353 71.7176,-76.2018 69.5,-56 68.5274,-47.1398 66.5083,-37.4716 64.5374,-29.3755"/>
<polygon fill="midnightblue" stroke="midnightblue" points="67.8829,-28.333 61.9824,-19.5332 61.1074,-30.0919 67.8829,-28.333"/>
</g>
<!-- Node3&#45;&gt;Node4 -->
<g id="edge3" class="edge"><title>Node3&#45;&gt;Node4</title>
<path fill="none" stroke="midnightblue" d="M35.2888,-56.083C39.2584,-48.6913 45.0251,-37.9533 49.9348,-28.8111"/>
<polygon fill="midnightblue" stroke="midnightblue" points="53.1525,-30.217 54.8003,-19.7511 46.9855,-26.9051 53.1525,-30.217"/>
</g>
</g>
</svg>
