<?xml version="1.0" encoding="UTF-8" standalone="no"?>
<!DOCTYPE svg PUBLIC "-//W3C//DTD SVG 1.1//EN"
 "http://www.w3.org/Graphics/SVG/1.1/DTD/svg11.dtd">
<!-- Generated by graphviz version 2.38.0 (20140413.2041)
 -->
<!-- Title: weavertracker.h Pages: 1 -->
<svg width="911pt" height="308pt"
 viewBox="0.00 0.00 910.69 308.00" xmlns="http://www.w3.org/2000/svg" xmlns:xlink="http://www.w3.org/1999/xlink">
<g id="graph0" class="graph" transform="scale(1 1) rotate(0) translate(4 304)">
<title>weavertracker.h</title>
<!-- Node1 -->
<g id="node1" class="node"><title>Node1</title>
<g id="a_node1"><a xlink:title=" ">
<polygon fill="#bfbfbf" stroke="black" points="151.69,-280.5 151.69,-299.5 235.69,-299.5 235.69,-280.5 151.69,-280.5"/>
<text text-anchor="middle" x="193.69" y="-287.5" font-family="Helvetica,sans-Serif" font-size="10.00">weavertracker.h</text>
</a>
</g>
</g>
<!-- Node2 -->
<g id="node2" class="node"><title>Node2</title>
<g id="a_node2"><a xlink:title=" ">
<polygon fill="none" stroke="#bfbfbf" points="241.19,-168.5 241.19,-187.5 276.19,-187.5 276.19,-168.5 241.19,-168.5"/>
<text text-anchor="middle" x="258.69" y="-175.5" font-family="Helvetica,sans-Serif" font-size="10.00">map</text>
</a>
</g>
</g>
<!-- Node1&#45;&gt;Node2 -->
<g id="edge1" class="edge"><title>Node1&#45;&gt;Node2</title>
<path fill="none" stroke="midnightblue" d="M200.741,-280.353C207.772,-271.519 218.653,-257.254 226.69,-244 235.953,-228.724 244.788,-210.391 250.818,-197.095"/>
<polygon fill="midnightblue" stroke="midnightblue" points="254.146,-198.226 255.008,-187.666 247.749,-195.383 254.146,-198.226"/>
</g>
<!-- Node3 -->
<g id="node3" class="node"><title>Node3</title>
<g id="a_node3"><a xlink:title=" ">
<polygon fill="none" stroke="#bfbfbf" points="165.69,-112.5 165.69,-131.5 209.69,-131.5 209.69,-112.5 165.69,-112.5"/>
<text text-anchor="middle" x="187.69" y="-119.5" font-family="Helvetica,sans-Serif" font-size="10.00">thread</text>
</a>
</g>
</g>
<!-- Node1&#45;&gt;Node3 -->
<g id="edge2" class="edge"><title>Node1&#45;&gt;Node3</title>
<path fill="none" stroke="midnightblue" d="M193.368,-280.075C192.423,-253.945 189.65,-177.211 188.362,-141.577"/>
<polygon fill="midnightblue" stroke="midnightblue" points="191.859,-141.435 188,-131.568 184.864,-141.688 191.859,-141.435"/>
</g>
<!-- Node4 -->
<g id="node4" class="node"><title>Node4</title>
<g id="a_node4"><a xlink:title=" ">
<polygon fill="none" stroke="#bfbfbf" points="252.69,-112.5 252.69,-131.5 296.69,-131.5 296.69,-112.5 252.69,-112.5"/>
<text text-anchor="middle" x="274.69" y="-119.5" font-family="Helvetica,sans-Serif" font-size="10.00">mutex</text>
</a>
</g>
</g>
<!-- Node1&#45;&gt;Node4 -->
<g id="edge3" class="edge"><title>Node1&#45;&gt;Node4</title>
<path fill="none" stroke="midnightblue" d="M195.03,-280.232C198.489,-259.493 209.072,-206.297 231.69,-168 238.187,-157.001 247.853,-146.564 256.376,-138.516"/>
<polygon fill="midnightblue" stroke="midnightblue" points="258.973,-140.886 264.057,-131.591 254.286,-135.687 258.973,-140.886"/>
</g>
<!-- Node5 -->
<g id="node5" class="node"><title>Node5</title>
<g id="a_node5"><a xlink:href="weaverposition_8h.html" target="_top" xlink:title=" ">
<polygon fill="none" stroke="black" points="42.6902,-112.5 42.6902,-131.5 130.69,-131.5 130.69,-112.5 42.6902,-112.5"/>
<text text-anchor="middle" x="86.6902" y="-119.5" font-family="Helvetica,sans-Serif" font-size="10.00">weaverposition.h</text>
</a>
</g>
</g>
<!-- Node1&#45;&gt;Node5 -->
<g id="edge4" class="edge"><title>Node1&#45;&gt;Node5</title>
<path fill="none" stroke="midnightblue" d="M151.631,-283.655C105.61,-276.901 36.0482,-263.722 18.6902,-244 -3.7207,-218.537 -5.02249,-197.518 11.6902,-168 20.0368,-153.258 35.3522,-142.819 49.9774,-135.732"/>
<polygon fill="midnightblue" stroke="midnightblue" points="51.6873,-138.803 59.4083,-131.547 48.8482,-132.404 51.6873,-138.803"/>
</g>
<!-- Node8 -->
<g id="node8" class="node"><title>Node8</title>
<g id="a_node8"><a xlink:href="weaverpositionstream_8h.html" target="_top" xlink:title=" ">
<polygon fill="none" stroke="black" points="27.6902,-224.5 27.6902,-243.5 145.69,-243.5 145.69,-224.5 27.6902,-224.5"/>
<text text-anchor="middle" x="86.6902" y="-231.5" font-family="Helvetica,sans-Serif" font-size="10.00">weaverpositionstream.h</text>
</a>
</g>
</g>
<!-- Node1&#45;&gt;Node8 -->
<g id="edge8" class="edge"><title>Node1&#45;&gt;Node8</title>
<path fill="none" stroke="midnightblue" d="M176.499,-280.324C159.339,-271.664 132.745,-258.242 112.943,-248.249"/>
<polygon fill="midnightblue" stroke="midnightblue" points="114.343,-245.035 103.839,-243.655 111.19,-251.285 114.343,-245.035"/>
</g>
<!-- Node10 -->
<g id="node10" class="node"><title>Node10</title>
<g id="a_node10"><a xlink:href="srcontext_8h.html" target="_top" xlink:title=" ">
<polygon fill="none" stroke="black" points="439.69,-224.5 439.69,-243.5 575.69,-243.5 575.69,-224.5 439.69,-224.5"/>
<text text-anchor="middle" x="507.69" y="-231.5" font-family="Helvetica,sans-Serif" font-size="10.00">sr/management/srcontext.h</text>
</a>
</g>
</g>
<!-- Node1&#45;&gt;Node10 -->
<g id="edge12" class="edge"><title>Node1&#45;&gt;Node10</title>
<path fill="none" stroke="midnightblue" d="M235.712,-281.773C290.326,-272.381 386.029,-255.923 448.117,-245.245"/>
<polygon fill="midnightblue" stroke="midnightblue" points="448.899,-248.662 458.161,-243.518 447.713,-241.763 448.899,-248.662"/>
</g>
<!-- Node6 -->
<g id="node6" class="node"><title>Node6</title>
<g id="a_node6"><a xlink:href="types_8h.html" target="_top" xlink:title=" ">
<polygon fill="none" stroke="black" points="344.69,-56.5 344.69,-75.5 404.69,-75.5 404.69,-56.5 344.69,-56.5"/>
<text text-anchor="middle" x="374.69" y="-63.5" font-family="Helvetica,sans-Serif" font-size="10.00">sr/types.h</text>
</a>
</g>
</g>
<!-- Node5&#45;&gt;Node6 -->
<g id="edge5" class="edge"><title>Node5&#45;&gt;Node6</title>
<path fill="none" stroke="midnightblue" d="M130.745,-112.74C186.257,-102.331 280.872,-84.591 334.496,-74.5365"/>
<polygon fill="midnightblue" stroke="midnightblue" points="335.148,-77.9753 344.331,-72.6923 333.858,-71.0952 335.148,-77.9753"/>
</g>
<!-- Node7 -->
<g id="node7" class="node"><title>Node7</title>
<g id="a_node7"><a xlink:title=" ">
<polygon fill="none" stroke="#bfbfbf" points="350.19,-0.5 350.19,-19.5 399.19,-19.5 399.19,-0.5 350.19,-0.5"/>
<text text-anchor="middle" x="374.69" y="-7.5" font-family="Helvetica,sans-Serif" font-size="10.00">stdint.h</text>
</a>
</g>
</g>
<!-- Node5&#45;&gt;Node7 -->
<g id="edge7" class="edge"><title>Node5&#45;&gt;Node7</title>
<path fill="none" stroke="midnightblue" d="M109.289,-112.368C160.182,-92.9302 283.906,-45.6744 342.676,-23.2278"/>
<polygon fill="midnightblue" stroke="midnightblue" points="344.103,-26.4292 352.196,-19.5914 341.606,-19.8899 344.103,-26.4292"/>
</g>
<!-- Node6&#45;&gt;Node7 -->
<g id="edge6" class="edge"><title>Node6&#45;&gt;Node7</title>
<path fill="none" stroke="midnightblue" d="M374.69,-56.083C374.69,-49.0059 374.69,-38.8611 374.69,-29.9865"/>
<polygon fill="midnightblue" stroke="midnightblue" points="378.19,-29.751 374.69,-19.7511 371.19,-29.7511 378.19,-29.751"/>
</g>
<!-- Node8&#45;&gt;Node5 -->
<g id="edge9" class="edge"><title>Node8&#45;&gt;Node5</title>
<path fill="none" stroke="midnightblue" d="M62.9019,-224.499C46.9688,-217.413 27.2269,-205.605 17.6902,-188 5.85681,-166.155 31.9733,-147.471 55.3971,-135.816"/>
<polygon fill="midnightblue" stroke="midnightblue" points="56.9183,-138.968 64.4878,-131.555 53.9476,-132.63 56.9183,-138.968"/>
</g>
<!-- Node9 -->
<g id="node9" class="node"><title>Node9</title>
<g id="a_node9"><a xlink:href="weaverpositionlistener_8h.html" target="_top" xlink:title=" ">
<polygon fill="none" stroke="black" points="27.1902,-168.5 27.1902,-187.5 146.19,-187.5 146.19,-168.5 27.1902,-168.5"/>
<text text-anchor="middle" x="86.6902" y="-175.5" font-family="Helvetica,sans-Serif" font-size="10.00">weaverpositionlistener.h</text>
</a>
</g>
</g>
<!-- Node8&#45;&gt;Node9 -->
<g id="edge10" class="edge"><title>Node8&#45;&gt;Node9</title>
<path fill="none" stroke="midnightblue" d="M86.6902,-224.083C86.6902,-217.006 86.6902,-206.861 86.6902,-197.986"/>
<polygon fill="midnightblue" stroke="midnightblue" points="90.1903,-197.751 86.6902,-187.751 83.1903,-197.751 90.1903,-197.751"/>
</g>
<!-- Node9&#45;&gt;Node5 -->
<g id="edge11" class="edge"><title>Node9&#45;&gt;Node5</title>
<path fill="none" stroke="midnightblue" d="M86.6902,-168.083C86.6902,-161.006 86.6902,-150.861 86.6902,-141.986"/>
<polygon fill="midnightblue" stroke="midnightblue" points="90.1903,-141.751 86.6902,-131.751 83.1903,-141.751 90.1903,-141.751"/>
</g>
<!-- Node10&#45;&gt;Node2 -->
<g id="edge14" class="edge"><title>Node10&#45;&gt;Node2</title>
<path fill="none" stroke="midnightblue" d="M455.409,-224.495C412.141,-216.995 348.958,-204.985 285.917,-188.067"/>
<polygon fill="midnightblue" stroke="midnightblue" points="286.781,-184.675 276.213,-185.423 284.941,-191.429 286.781,-184.675"/>
</g>
<!-- Node11 -->
<g id="node11" class="node"><title>Node11</title>
<g id="a_node11"><a xlink:title=" ">
<polygon fill="none" stroke="#bfbfbf" points="425.19,-112.5 425.19,-131.5 466.19,-131.5 466.19,-112.5 425.19,-112.5"/>
<text text-anchor="middle" x="445.69" y="-119.5" font-family="Helvetica,sans-Serif" font-size="10.00">string</text>
</a>
</g>
</g>
<!-- Node10&#45;&gt;Node11 -->
<g id="edge13" class="edge"><title>Node10&#45;&gt;Node11</title>
<path fill="none" stroke="midnightblue" d="M539.483,-224.496C572.934,-213.948 618.231,-194.116 598.69,-168 591.22,-158.016 518.499,-139.8 476.06,-129.881"/>
<polygon fill="midnightblue" stroke="midnightblue" points="476.766,-126.452 466.234,-127.607 475.187,-133.272 476.766,-126.452"/>
</g>
<!-- Node12 -->
<g id="node12" class="node"><title>Node12</title>
<g id="a_node12"><a xlink:href="sense_8h.html" target="_top" xlink:title=" ">
<polygon fill="none" stroke="black" points="294.19,-168.5 294.19,-187.5 407.19,-187.5 407.19,-168.5 294.19,-168.5"/>
<text text-anchor="middle" x="350.69" y="-175.5" font-family="Helvetica,sans-Serif" font-size="10.00">sr/sense/core/sense.h</text>
</a>
</g>
</g>
<!-- Node10&#45;&gt;Node12 -->
<g id="edge15" class="edge"><title>Node10&#45;&gt;Node12</title>
<path fill="none" stroke="midnightblue" d="M482.813,-224.444C456.401,-215.359 414.475,-200.939 384.949,-190.783"/>
<polygon fill="midnightblue" stroke="midnightblue" points="386.046,-187.459 375.451,-187.516 383.769,-194.079 386.046,-187.459"/>
</g>
<!-- Node16 -->
<g id="node16" class="node"><title>Node16</title>
<g id="a_node16"><a xlink:href="worldobject_8h.html" target="_top" xlink:title=" ">
<polygon fill="none" stroke="black" points="646.69,-168.5 646.69,-187.5 756.69,-187.5 756.69,-168.5 646.69,-168.5"/>
<text text-anchor="middle" x="701.69" y="-175.5" font-family="Helvetica,sans-Serif" font-size="10.00">sr/world/worldobject.h</text>
</a>
</g>
</g>
<!-- Node10&#45;&gt;Node16 -->
<g id="edge23" class="edge"><title>Node10&#45;&gt;Node16</title>
<path fill="none" stroke="midnightblue" d="M538.43,-224.444C571.634,-215.201 624.681,-200.436 661.248,-190.257"/>
<polygon fill="midnightblue" stroke="midnightblue" points="662.399,-193.57 671.094,-187.516 660.522,-186.826 662.399,-193.57"/>
</g>
<!-- Node18 -->
<g id="node18" class="node"><title>Node18</title>
<g id="a_node18"><a xlink:href="networkinterface_8h.html" target="_top" xlink:title=" ">
<polygon fill="none" stroke="black" points="425.19,-168.5 425.19,-187.5 590.19,-187.5 590.19,-168.5 425.19,-168.5"/>
<text text-anchor="middle" x="507.69" y="-175.5" font-family="Helvetica,sans-Serif" font-size="10.00">sr/network/core/networkinterface.h</text>
</a>
</g>
</g>
<!-- Node10&#45;&gt;Node18 -->
<g id="edge27" class="edge"><title>Node10&#45;&gt;Node18</title>
<path fill="none" stroke="midnightblue" d="M507.69,-224.083C507.69,-217.006 507.69,-206.861 507.69,-197.986"/>
<polygon fill="midnightblue" stroke="midnightblue" points="511.19,-197.751 507.69,-187.751 504.19,-197.751 511.19,-197.751"/>
</g>
<!-- Node19 -->
<g id="node19" class="node"><title>Node19</title>
<g id="a_node19"><a xlink:href="receiver_8h.html" target="_top" xlink:title=" ">
<polygon fill="none" stroke="black" points="774.69,-168.5 774.69,-187.5 902.69,-187.5 902.69,-168.5 774.69,-168.5"/>
<text text-anchor="middle" x="838.69" y="-175.5" font-family="Helvetica,sans-Serif" font-size="10.00">sr/network/core/receiver.h</text>
</a>
</g>
</g>
<!-- Node10&#45;&gt;Node19 -->
<g id="edge28" class="edge"><title>Node10&#45;&gt;Node19</title>
<path fill="none" stroke="midnightblue" d="M560.138,-224.444C618.849,-214.865 713.918,-199.356 776.372,-189.167"/>
<polygon fill="midnightblue" stroke="midnightblue" points="777.182,-192.581 786.488,-187.516 776.055,-185.672 777.182,-192.581"/>
</g>
<!-- Node12&#45;&gt;Node3 -->
<g id="edge18" class="edge"><title>Node12&#45;&gt;Node3</title>
<path fill="none" stroke="midnightblue" d="M324.862,-168.444C296.312,-158.985 250.301,-143.742 219.539,-133.551"/>
<polygon fill="midnightblue" stroke="midnightblue" points="220.331,-130.127 209.738,-130.304 218.13,-136.771 220.331,-130.127"/>
</g>
<!-- Node12&#45;&gt;Node4 -->
<g id="edge19" class="edge"><title>Node12&#45;&gt;Node4</title>
<path fill="none" stroke="midnightblue" d="M338.48,-168.324C326.914,-160.107 309.315,-147.602 295.53,-137.807"/>
<polygon fill="midnightblue" stroke="midnightblue" points="297.302,-134.773 287.123,-131.834 293.248,-140.479 297.302,-134.773"/>
</g>
<!-- Node12&#45;&gt;Node11 -->
<g id="edge16" class="edge"><title>Node12&#45;&gt;Node11</title>
<path fill="none" stroke="midnightblue" d="M365.954,-168.324C380.912,-159.822 403.945,-146.729 421.417,-136.797"/>
<polygon fill="midnightblue" stroke="midnightblue" points="423.501,-139.639 430.465,-131.655 420.041,-133.553 423.501,-139.639"/>
</g>
<!-- Node13 -->
<g id="node13" class="node"><title>Node13</title>
<g id="a_node13"><a xlink:title=" ">
<polygon fill="none" stroke="#bfbfbf" points="327.69,-112.5 327.69,-131.5 373.69,-131.5 373.69,-112.5 327.69,-112.5"/>
<text text-anchor="middle" x="350.69" y="-119.5" font-family="Helvetica,sans-Serif" font-size="10.00">chrono</text>
</a>
</g>
</g>
<!-- Node12&#45;&gt;Node13 -->
<g id="edge17" class="edge"><title>Node12&#45;&gt;Node13</title>
<path fill="none" stroke="midnightblue" d="M350.69,-168.083C350.69,-161.006 350.69,-150.861 350.69,-141.986"/>
<polygon fill="midnightblue" stroke="midnightblue" points="354.19,-141.751 350.69,-131.751 347.19,-141.751 354.19,-141.751"/>
</g>
<!-- Node14 -->
<g id="node14" class="node"><title>Node14</title>
<g id="a_node14"><a xlink:href="transformation_8h.html" target="_top" xlink:title=" ">
<polygon fill="none" stroke="black" points="497.69,-112.5 497.69,-131.5 583.69,-131.5 583.69,-112.5 497.69,-112.5"/>
<text text-anchor="middle" x="540.69" y="-119.5" font-family="Helvetica,sans-Serif" font-size="10.00">transformation.h</text>
</a>
</g>
</g>
<!-- Node12&#45;&gt;Node14 -->
<g id="edge20" class="edge"><title>Node12&#45;&gt;Node14</title>
<path fill="none" stroke="midnightblue" d="M380.796,-168.444C413.316,-159.201 465.269,-144.436 501.082,-134.257"/>
<polygon fill="midnightblue" stroke="midnightblue" points="502.063,-137.617 510.725,-131.516 500.149,-130.884 502.063,-137.617"/>
</g>
<!-- Node14&#45;&gt;Node6 -->
<g id="edge22" class="edge"><title>Node14&#45;&gt;Node6</title>
<path fill="none" stroke="midnightblue" d="M514.387,-112.444C486.339,-103.32 441.746,-88.8133 410.506,-78.6509"/>
<polygon fill="midnightblue" stroke="midnightblue" points="411.463,-75.2816 400.87,-75.5164 409.297,-81.9383 411.463,-75.2816"/>
</g>
<!-- Node15 -->
<g id="node15" class="node"><title>Node15</title>
<g id="a_node15"><a xlink:title=" ">
<polygon fill="none" stroke="#bfbfbf" points="501.69,-56.5 501.69,-75.5 605.69,-75.5 605.69,-56.5 501.69,-56.5"/>
<text text-anchor="middle" x="553.69" y="-63.5" font-family="Helvetica,sans-Serif" font-size="10.00">opencv2/opencv.hpp</text>
</a>
</g>
</g>
<!-- Node14&#45;&gt;Node15 -->
<g id="edge21" class="edge"><title>Node14&#45;&gt;Node15</title>
<path fill="none" stroke="midnightblue" d="M542.837,-112.083C544.56,-104.927 547.037,-94.6353 549.191,-85.6911"/>
<polygon fill="midnightblue" stroke="midnightblue" points="552.646,-86.2925 551.583,-75.7511 545.84,-84.6541 552.646,-86.2925"/>
</g>
<!-- Node16&#45;&gt;Node14 -->
<g id="edge26" class="edge"><title>Node16&#45;&gt;Node14</title>
<path fill="none" stroke="midnightblue" d="M676.179,-168.444C649.094,-159.359 606.1,-144.939 575.821,-134.783"/>
<polygon fill="midnightblue" stroke="midnightblue" points="576.676,-131.378 566.082,-131.516 574.45,-138.015 576.676,-131.378"/>
</g>
<!-- Node16&#45;&gt;Node15 -->
<g id="edge25" class="edge"><title>Node16&#45;&gt;Node15</title>
<path fill="none" stroke="midnightblue" d="M701.563,-168.189C700.887,-154.401 697.59,-127.684 682.69,-112 665.029,-93.4098 639.28,-82.4957 615.423,-76.0898"/>
<polygon fill="midnightblue" stroke="midnightblue" points="616.244,-72.6873 605.696,-73.6905 614.567,-79.4836 616.244,-72.6873"/>
</g>
<!-- Node17 -->
<g id="node17" class="node"><title>Node17</title>
<g id="a_node17"><a xlink:title=" ">
<polygon fill="none" stroke="#bfbfbf" points="631.69,-112.5 631.69,-131.5 673.69,-131.5 673.69,-112.5 631.69,-112.5"/>
<text text-anchor="middle" x="652.69" y="-119.5" font-family="Helvetica,sans-Serif" font-size="10.00">vector</text>
</a>
</g>
</g>
<!-- Node16&#45;&gt;Node17 -->
<g id="edge24" class="edge"><title>Node16&#45;&gt;Node17</title>
<path fill="none" stroke="midnightblue" d="M693.599,-168.083C686.535,-160.298 676.103,-148.801 667.541,-139.367"/>
<polygon fill="midnightblue" stroke="midnightblue" points="669.943,-136.805 660.631,-131.751 664.759,-141.509 669.943,-136.805"/>
</g>
<!-- Node20 -->
<g id="node20" class="node"><title>Node20</title>
<g id="a_node20"><a xlink:href="packet_8h.html" target="_top" xlink:title=" ">
<polygon fill="none" stroke="black" points="738.69,-112.5 738.69,-131.5 792.69,-131.5 792.69,-112.5 738.69,-112.5"/>
<text text-anchor="middle" x="765.69" y="-119.5" font-family="Helvetica,sans-Serif" font-size="10.00">packet.h</text>
</a>
</g>
</g>
<!-- Node19&#45;&gt;Node20 -->
<g id="edge29" class="edge"><title>Node19&#45;&gt;Node20</title>
<path fill="none" stroke="midnightblue" d="M826.962,-168.324C815.853,-160.107 798.948,-147.602 785.707,-137.807"/>
<polygon fill="midnightblue" stroke="midnightblue" points="787.753,-134.967 777.632,-131.834 783.59,-140.595 787.753,-134.967"/>
</g>
<!-- Node20&#45;&gt;Node7 -->
<g id="edge30" class="edge"><title>Node20&#45;&gt;Node7</title>
<path fill="none" stroke="midnightblue" d="M748.943,-112.327C721.562,-98.486 665.196,-71.3977 614.69,-56 543.251,-34.2202 456.474,-21.1055 409.304,-15.0444"/>
<polygon fill="midnightblue" stroke="midnightblue" points="409.663,-11.5621 399.305,-13.7896 408.792,-18.5076 409.663,-11.5621"/>
</g>
<!-- Node21 -->
<g id="node21" class="node"><title>Node21</title>
<g id="a_node21"><a xlink:title=" ">
<polygon fill="none" stroke="#bfbfbf" points="685.69,-56.5 685.69,-75.5 739.69,-75.5 739.69,-56.5 685.69,-56.5"/>
<text text-anchor="middle" x="712.69" y="-63.5" font-family="Helvetica,sans-Serif" font-size="10.00">iostream</text>
</a>
</g>
</g>
<!-- Node20&#45;&gt;Node21 -->
<g id="edge31" class="edge"><title>Node20&#45;&gt;Node21</title>
<path fill="none" stroke="midnightblue" d="M756.938,-112.083C749.221,-104.22 737.786,-92.5688 728.474,-83.0813"/>
<polygon fill="midnightblue" stroke="midnightblue" points="730.782,-80.4363 721.279,-75.7511 725.786,-85.3396 730.782,-80.4363"/>
</g>
<!-- Node22 -->
<g id="node22" class="node"><title>Node22</title>
<g id="a_node22"><a xlink:title=" ">
<polygon fill="none" stroke="#bfbfbf" points="757.69,-56.5 757.69,-75.5 807.69,-75.5 807.69,-56.5 757.69,-56.5"/>
<text text-anchor="middle" x="782.69" y="-63.5" font-family="Helvetica,sans-Serif" font-size="10.00">iomanip</text>
</a>
</g>
</g>
<!-- Node20&#45;&gt;Node22 -->
<g id="edge32" class="edge"><title>Node20&#45;&gt;Node22</title>
<path fill="none" stroke="midnightblue" d="M768.497,-112.083C770.775,-104.849 774.062,-94.4087 776.899,-85.3968"/>
<polygon fill="midnightblue" stroke="midnightblue" points="780.271,-86.3406 779.935,-75.7511 773.594,-84.2385 780.271,-86.3406"/>
</g>
</g>
</svg>
