<?xml version="1.0" encoding="UTF-8" standalone="no"?>
<!DOCTYPE svg PUBLIC "-//W3C//DTD SVG 1.1//EN"
 "http://www.w3.org/Graphics/SVG/1.1/DTD/svg11.dtd">
<!-- Generated by graphviz version 2.38.0 (20140413.2041)
 -->
<!-- Title: weaverposition.h Pages: 1 -->
<svg width="320pt" height="252pt"
 viewBox="0.00 0.00 319.50 252.00" xmlns="http://www.w3.org/2000/svg" xmlns:xlink="http://www.w3.org/1999/xlink">
<g id="graph0" class="graph" transform="scale(1 1) rotate(0) translate(4 248)">
<title>weaverposition.h</title>
<!-- Node1 -->
<g id="node1" class="node"><title>Node1</title>
<g id="a_node1"><a xlink:title=" ">
<polygon fill="#bfbfbf" stroke="black" points="166.5,-224.5 166.5,-243.5 254.5,-243.5 254.5,-224.5 166.5,-224.5"/>
<text text-anchor="middle" x="210.5" y="-231.5" font-family="Helvetica,sans-Serif" font-size="10.00">weaverposition.h</text>
</a>
</g>
</g>
<!-- Node2 -->
<g id="node2" class="node"><title>Node2</title>
<g id="a_node2"><a xlink:href="facetrackers__c_8h.html" target="_top" xlink:title=" ">
<polygon fill="none" stroke="black" points="0,-168.5 0,-187.5 89,-187.5 89,-168.5 0,-168.5"/>
<text text-anchor="middle" x="44.5" y="-175.5" font-family="Helvetica,sans-Serif" font-size="10.00">facetrackers_c.h</text>
</a>
</g>
</g>
<!-- Node1&#45;&gt;Node2 -->
<g id="edge1" class="edge"><title>Node1&#45;&gt;Node2</title>
<path fill="none" stroke="midnightblue" d="M174.547,-221.304C143.268,-211.129 98.6793,-196.625 70.6801,-187.516"/>
<polygon fill="midnightblue" stroke="midnightblue" points="173.605,-224.678 184.197,-224.444 175.77,-218.022 173.605,-224.678"/>
</g>
<!-- Node3 -->
<g id="node3" class="node"><title>Node3</title>
<g id="a_node3"><a xlink:href="weaverpositionlistener_8h.html" target="_top" xlink:title=" ">
<polygon fill="none" stroke="black" points="107,-168.5 107,-187.5 226,-187.5 226,-168.5 107,-168.5"/>
<text text-anchor="middle" x="166.5" y="-175.5" font-family="Helvetica,sans-Serif" font-size="10.00">weaverpositionlistener.h</text>
</a>
</g>
</g>
<!-- Node1&#45;&gt;Node3 -->
<g id="edge2" class="edge"><title>Node1&#45;&gt;Node3</title>
<path fill="none" stroke="midnightblue" d="M196.765,-216.144C189.099,-206.736 179.867,-195.405 173.631,-187.751"/>
<polygon fill="midnightblue" stroke="midnightblue" points="194.204,-218.541 203.234,-224.083 199.631,-214.12 194.204,-218.541"/>
</g>
<!-- Node4 -->
<g id="node4" class="node"><title>Node4</title>
<g id="a_node4"><a xlink:href="weaverpositionstream_8h.html" target="_top" xlink:title=" ">
<polygon fill="none" stroke="black" points="146.5,-112.5 146.5,-131.5 264.5,-131.5 264.5,-112.5 146.5,-112.5"/>
<text text-anchor="middle" x="205.5" y="-119.5" font-family="Helvetica,sans-Serif" font-size="10.00">weaverpositionstream.h</text>
</a>
</g>
</g>
<!-- Node1&#45;&gt;Node4 -->
<g id="edge6" class="edge"><title>Node1&#45;&gt;Node4</title>
<path fill="none" stroke="midnightblue" d="M223.7,-215.923C232.095,-202.95 240.518,-184.575 235.5,-168 231.255,-153.981 221.044,-140.337 213.714,-131.818"/>
<polygon fill="midnightblue" stroke="midnightblue" points="220.688,-214.121 217.785,-224.311 226.409,-218.156 220.688,-214.121"/>
</g>
<!-- Node5 -->
<g id="node5" class="node"><title>Node5</title>
<g id="a_node5"><a xlink:href="weavertracker_8h.html" target="_top" xlink:title=" ">
<polygon fill="none" stroke="black" points="206.5,-56.5 206.5,-75.5 290.5,-75.5 290.5,-56.5 206.5,-56.5"/>
<text text-anchor="middle" x="248.5" y="-63.5" font-family="Helvetica,sans-Serif" font-size="10.00">weavertracker.h</text>
</a>
</g>
</g>
<!-- Node1&#45;&gt;Node5 -->
<g id="edge7" class="edge"><title>Node1&#45;&gt;Node5</title>
<path fill="none" stroke="midnightblue" d="M226.54,-216.986C234.159,-208.796 242.998,-198.383 249.5,-188 263.872,-165.05 268.055,-158.525 273.5,-132 275.287,-123.293 275.73,-120.605 273.5,-112 269.958,-98.3307 261.265,-84.393 255.129,-75.7252"/>
<polygon fill="midnightblue" stroke="midnightblue" points="223.866,-214.717 219.459,-224.352 228.912,-219.568 223.866,-214.717"/>
</g>
<!-- Node3&#45;&gt;Node4 -->
<g id="edge3" class="edge"><title>Node3&#45;&gt;Node4</title>
<path fill="none" stroke="midnightblue" d="M178.882,-159.855C185.635,-150.505 193.709,-139.327 199.18,-131.751"/>
<polygon fill="midnightblue" stroke="midnightblue" points="175.958,-157.927 172.94,-168.083 181.632,-162.025 175.958,-157.927"/>
</g>
<!-- Node4&#45;&gt;Node5 -->
<g id="edge4" class="edge"><title>Node4&#45;&gt;Node5</title>
<path fill="none" stroke="midnightblue" d="M218.922,-104.144C226.414,-94.7357 235.437,-83.4046 241.532,-75.7511"/>
<polygon fill="midnightblue" stroke="midnightblue" points="216.092,-102.08 212.601,-112.083 221.568,-106.44 216.092,-102.08"/>
</g>
<!-- Node6 -->
<g id="node6" class="node"><title>Node6</title>
<g id="a_node6"><a xlink:href="predictingweavertracker_8h.html" target="_top" xlink:title=" ">
<polygon fill="none" stroke="black" points="185.5,-0.5 185.5,-19.5 311.5,-19.5 311.5,-0.5 185.5,-0.5"/>
<text text-anchor="middle" x="248.5" y="-7.5" font-family="Helvetica,sans-Serif" font-size="10.00">predictingweavertracker.h</text>
</a>
</g>
</g>
<!-- Node5&#45;&gt;Node6 -->
<g id="edge5" class="edge"><title>Node5&#45;&gt;Node6</title>
<path fill="none" stroke="midnightblue" d="M248.5,-45.8045C248.5,-36.9102 248.5,-26.7798 248.5,-19.7511"/>
<polygon fill="midnightblue" stroke="midnightblue" points="245,-46.083 248.5,-56.083 252,-46.083 245,-46.083"/>
</g>
</g>
</svg>
