<?xml version="1.0" encoding="UTF-8" standalone="no"?>
<!DOCTYPE svg PUBLIC "-//W3C//DTD SVG 1.1//EN"
 "http://www.w3.org/Graphics/SVG/1.1/DTD/svg11.dtd">
<!-- Generated by graphviz version 2.38.0 (20140413.2041)
 -->
<!-- Title: weaverpositionstream.h Pages: 1 -->
<svg width="171pt" height="252pt"
 viewBox="0.00 0.00 170.50 252.00" xmlns="http://www.w3.org/2000/svg" xmlns:xlink="http://www.w3.org/1999/xlink">
<g id="graph0" class="graph" transform="scale(1 1) rotate(0) translate(4 248)">
<title>weaverpositionstream.h</title>
<!-- Node1 -->
<g id="node1" class="node"><title>Node1</title>
<g id="a_node1"><a xlink:title=" ">
<polygon fill="#bfbfbf" stroke="black" points="0,-224.5 0,-243.5 118,-243.5 118,-224.5 0,-224.5"/>
<text text-anchor="middle" x="59" y="-231.5" font-family="Helvetica,sans-Serif" font-size="10.00">weaverpositionstream.h</text>
</a>
</g>
</g>
<!-- Node2 -->
<g id="node2" class="node"><title>Node2</title>
<g id="a_node2"><a xlink:href="weaverposition_8h.html" target="_top" xlink:title=" ">
<polygon fill="none" stroke="black" points="15,-112.5 15,-131.5 103,-131.5 103,-112.5 15,-112.5"/>
<text text-anchor="middle" x="59" y="-119.5" font-family="Helvetica,sans-Serif" font-size="10.00">weaverposition.h</text>
</a>
</g>
</g>
<!-- Node1&#45;&gt;Node2 -->
<g id="edge1" class="edge"><title>Node1&#45;&gt;Node2</title>
<path fill="none" stroke="midnightblue" d="M51.9482,-224.377C42.7968,-212.12 28.6016,-188.833 34,-168 36.5459,-158.175 41.7526,-148.212 46.7585,-140.166"/>
<polygon fill="midnightblue" stroke="midnightblue" points="49.7486,-141.99 52.3713,-131.725 43.9196,-138.114 49.7486,-141.99"/>
</g>
<!-- Node5 -->
<g id="node5" class="node"><title>Node5</title>
<g id="a_node5"><a xlink:href="weaverpositionlistener_8h.html" target="_top" xlink:title=" ">
<polygon fill="none" stroke="black" points="43.5,-168.5 43.5,-187.5 162.5,-187.5 162.5,-168.5 43.5,-168.5"/>
<text text-anchor="middle" x="103" y="-175.5" font-family="Helvetica,sans-Serif" font-size="10.00">weaverpositionlistener.h</text>
</a>
</g>
</g>
<!-- Node1&#45;&gt;Node5 -->
<g id="edge5" class="edge"><title>Node1&#45;&gt;Node5</title>
<path fill="none" stroke="midnightblue" d="M66.2657,-224.083C72.5448,-216.377 81.7876,-205.033 89.4308,-195.653"/>
<polygon fill="midnightblue" stroke="midnightblue" points="92.2661,-197.714 95.8695,-187.751 86.8394,-193.293 92.2661,-197.714"/>
</g>
<!-- Node3 -->
<g id="node3" class="node"><title>Node3</title>
<g id="a_node3"><a xlink:href="types_8h.html" target="_top" xlink:title=" ">
<polygon fill="none" stroke="black" points="0,-56.5 0,-75.5 60,-75.5 60,-56.5 0,-56.5"/>
<text text-anchor="middle" x="30" y="-63.5" font-family="Helvetica,sans-Serif" font-size="10.00">sr/types.h</text>
</a>
</g>
</g>
<!-- Node2&#45;&gt;Node3 -->
<g id="edge2" class="edge"><title>Node2&#45;&gt;Node3</title>
<path fill="none" stroke="midnightblue" d="M54.2112,-112.083C50.2416,-104.691 44.4749,-93.9533 39.5652,-84.8111"/>
<polygon fill="midnightblue" stroke="midnightblue" points="42.5145,-82.9051 34.6997,-75.7511 36.3475,-86.217 42.5145,-82.9051"/>
</g>
<!-- Node4 -->
<g id="node4" class="node"><title>Node4</title>
<g id="a_node4"><a xlink:title=" ">
<polygon fill="none" stroke="#bfbfbf" points="34.5,-0.5 34.5,-19.5 83.5,-19.5 83.5,-0.5 34.5,-0.5"/>
<text text-anchor="middle" x="59" y="-7.5" font-family="Helvetica,sans-Serif" font-size="10.00">stdint.h</text>
</a>
</g>
</g>
<!-- Node2&#45;&gt;Node4 -->
<g id="edge4" class="edge"><title>Node2&#45;&gt;Node4</title>
<path fill="none" stroke="midnightblue" d="M61.8369,-112.201C65.5168,-99.7353 71.2176,-76.2018 69,-56 68.0274,-47.1398 66.0083,-37.4716 64.0374,-29.3755"/>
<polygon fill="midnightblue" stroke="midnightblue" points="67.3829,-28.333 61.4824,-19.5332 60.6074,-30.0919 67.3829,-28.333"/>
</g>
<!-- Node3&#45;&gt;Node4 -->
<g id="edge3" class="edge"><title>Node3&#45;&gt;Node4</title>
<path fill="none" stroke="midnightblue" d="M34.7888,-56.083C38.7584,-48.6913 44.5251,-37.9533 49.4348,-28.8111"/>
<polygon fill="midnightblue" stroke="midnightblue" points="52.6525,-30.217 54.3003,-19.7511 46.4855,-26.9051 52.6525,-30.217"/>
</g>
<!-- Node5&#45;&gt;Node2 -->
<g id="edge6" class="edge"><title>Node5&#45;&gt;Node2</title>
<path fill="none" stroke="midnightblue" d="M95.7343,-168.083C89.4552,-160.377 80.2124,-149.033 72.5692,-139.653"/>
<polygon fill="midnightblue" stroke="midnightblue" points="75.1606,-137.293 66.1305,-131.751 69.7339,-141.714 75.1606,-137.293"/>
</g>
</g>
</svg>
