<?xml version="1.0" encoding="UTF-8" standalone="no"?>
<!DOCTYPE svg PUBLIC "-//W3C//DTD SVG 1.1//EN"
 "http://www.w3.org/Graphics/SVG/1.1/DTD/svg11.dtd">
<!-- Generated by graphviz version 2.38.0 (20140413.2041)
 -->
<!-- Title: window2.h Pages: 1 -->
<svg width="705pt" height="308pt"
 viewBox="0.00 0.00 705.14 308.00" xmlns="http://www.w3.org/2000/svg" xmlns:xlink="http://www.w3.org/1999/xlink">
<g id="graph0" class="graph" transform="scale(1 1) rotate(0) translate(4 304)">
<title>window2.h</title>
<!-- Node1 -->
<g id="node1" class="node"><title>Node1</title>
<g id="a_node1"><a xlink:title=" ">
<polygon fill="#bfbfbf" stroke="black" points="57.135,-280.5 57.135,-299.5 119.135,-299.5 119.135,-280.5 57.135,-280.5"/>
<text text-anchor="middle" x="88.135" y="-287.5" font-family="Helvetica,sans-Serif" font-size="10.00">window2.h</text>
</a>
</g>
</g>
<!-- Node2 -->
<g id="node2" class="node"><title>Node2</title>
<g id="a_node2"><a xlink:href="types_8h.html" target="_top" xlink:title=" ">
<polygon fill="none" stroke="black" points="255.135,-56.5 255.135,-75.5 315.135,-75.5 315.135,-56.5 255.135,-56.5"/>
<text text-anchor="middle" x="285.135" y="-63.5" font-family="Helvetica,sans-Serif" font-size="10.00">sr/types.h</text>
</a>
</g>
</g>
<!-- Node1&#45;&gt;Node2 -->
<g id="edge1" class="edge"><title>Node1&#45;&gt;Node2</title>
<path fill="none" stroke="midnightblue" d="M78.6904,-280.277C49.9533,-252.713 -31.7371,-166.117 14.135,-112 43.1878,-77.7251 176.28,-69.5266 244.524,-67.5865"/>
<polygon fill="midnightblue" stroke="midnightblue" points="244.985,-71.0762 254.894,-67.3259 244.809,-64.0784 244.985,-71.0762"/>
</g>
<!-- Node4 -->
<g id="node4" class="node"><title>Node4</title>
<g id="a_node4"><a xlink:href="srcontext_8h.html" target="_top" xlink:title=" ">
<polygon fill="none" stroke="black" points="114.135,-224.5 114.135,-243.5 250.135,-243.5 250.135,-224.5 114.135,-224.5"/>
<text text-anchor="middle" x="182.135" y="-231.5" font-family="Helvetica,sans-Serif" font-size="10.00">sr/management/srcontext.h</text>
</a>
</g>
</g>
<!-- Node1&#45;&gt;Node4 -->
<g id="edge3" class="edge"><title>Node1&#45;&gt;Node4</title>
<path fill="none" stroke="midnightblue" d="M103.238,-280.324C118.038,-271.822 140.829,-258.729 158.117,-248.797"/>
<polygon fill="midnightblue" stroke="midnightblue" points="160.142,-251.671 167.07,-243.655 156.655,-245.601 160.142,-251.671"/>
</g>
<!-- Node3 -->
<g id="node3" class="node"><title>Node3</title>
<g id="a_node3"><a xlink:title=" ">
<polygon fill="none" stroke="#bfbfbf" points="360.635,-0.5 360.635,-19.5 409.635,-19.5 409.635,-0.5 360.635,-0.5"/>
<text text-anchor="middle" x="385.135" y="-7.5" font-family="Helvetica,sans-Serif" font-size="10.00">stdint.h</text>
</a>
</g>
</g>
<!-- Node2&#45;&gt;Node3 -->
<g id="edge2" class="edge"><title>Node2&#45;&gt;Node3</title>
<path fill="none" stroke="midnightblue" d="M301.202,-56.324C317.093,-47.7428 341.642,-34.486 360.094,-24.5224"/>
<polygon fill="midnightblue" stroke="midnightblue" points="361.972,-27.4857 369.108,-19.6545 358.646,-21.3264 361.972,-27.4857"/>
</g>
<!-- Node5 -->
<g id="node5" class="node"><title>Node5</title>
<g id="a_node5"><a xlink:title=" ">
<polygon fill="none" stroke="#bfbfbf" points="23.635,-112.5 23.635,-131.5 64.635,-131.5 64.635,-112.5 23.635,-112.5"/>
<text text-anchor="middle" x="44.135" y="-119.5" font-family="Helvetica,sans-Serif" font-size="10.00">string</text>
</a>
</g>
</g>
<!-- Node4&#45;&gt;Node5 -->
<g id="edge4" class="edge"><title>Node4&#45;&gt;Node5</title>
<path fill="none" stroke="midnightblue" d="M130.811,-224.461C107.281,-218.088 80.7651,-207.045 63.135,-188 51.5394,-175.473 46.9852,-156.248 45.2151,-141.952"/>
<polygon fill="midnightblue" stroke="midnightblue" points="48.6815,-141.417 44.3111,-131.765 41.7089,-142.036 48.6815,-141.417"/>
</g>
<!-- Node6 -->
<g id="node6" class="node"><title>Node6</title>
<g id="a_node6"><a xlink:title=" ">
<polygon fill="none" stroke="#bfbfbf" points="72.635,-168.5 72.635,-187.5 107.635,-187.5 107.635,-168.5 72.635,-168.5"/>
<text text-anchor="middle" x="90.135" y="-175.5" font-family="Helvetica,sans-Serif" font-size="10.00">map</text>
</a>
</g>
</g>
<!-- Node4&#45;&gt;Node6 -->
<g id="edge5" class="edge"><title>Node4&#45;&gt;Node6</title>
<path fill="none" stroke="midnightblue" d="M167.354,-224.324C152.868,-215.822 130.562,-202.729 113.642,-192.797"/>
<polygon fill="midnightblue" stroke="midnightblue" points="115.276,-189.698 104.88,-187.655 111.732,-195.735 115.276,-189.698"/>
</g>
<!-- Node7 -->
<g id="node7" class="node"><title>Node7</title>
<g id="a_node7"><a xlink:href="sense_8h.html" target="_top" xlink:title=" ">
<polygon fill="none" stroke="black" points="125.635,-168.5 125.635,-187.5 238.635,-187.5 238.635,-168.5 125.635,-168.5"/>
<text text-anchor="middle" x="182.135" y="-175.5" font-family="Helvetica,sans-Serif" font-size="10.00">sr/sense/core/sense.h</text>
</a>
</g>
</g>
<!-- Node4&#45;&gt;Node7 -->
<g id="edge6" class="edge"><title>Node4&#45;&gt;Node7</title>
<path fill="none" stroke="midnightblue" d="M182.135,-224.083C182.135,-217.006 182.135,-206.861 182.135,-197.986"/>
<polygon fill="midnightblue" stroke="midnightblue" points="185.635,-197.751 182.135,-187.751 178.635,-197.751 185.635,-197.751"/>
</g>
<!-- Node13 -->
<g id="node13" class="node"><title>Node13</title>
<g id="a_node13"><a xlink:href="worldobject_8h.html" target="_top" xlink:title=" ">
<polygon fill="none" stroke="black" points="257.135,-168.5 257.135,-187.5 367.135,-187.5 367.135,-168.5 257.135,-168.5"/>
<text text-anchor="middle" x="312.135" y="-175.5" font-family="Helvetica,sans-Serif" font-size="10.00">sr/world/worldobject.h</text>
</a>
</g>
</g>
<!-- Node4&#45;&gt;Node13 -->
<g id="edge14" class="edge"><title>Node4&#45;&gt;Node13</title>
<path fill="none" stroke="midnightblue" d="M202.734,-224.444C224.128,-215.557 257.816,-201.563 282.159,-191.451"/>
<polygon fill="midnightblue" stroke="midnightblue" points="283.74,-194.585 291.633,-187.516 281.055,-188.12 283.74,-194.585"/>
</g>
<!-- Node15 -->
<g id="node15" class="node"><title>Node15</title>
<g id="a_node15"><a xlink:href="networkinterface_8h.html" target="_top" xlink:title=" ">
<polygon fill="none" stroke="black" points="385.635,-168.5 385.635,-187.5 550.635,-187.5 550.635,-168.5 385.635,-168.5"/>
<text text-anchor="middle" x="468.135" y="-175.5" font-family="Helvetica,sans-Serif" font-size="10.00">sr/network/core/networkinterface.h</text>
</a>
</g>
</g>
<!-- Node4&#45;&gt;Node15 -->
<g id="edge18" class="edge"><title>Node4&#45;&gt;Node15</title>
<path fill="none" stroke="midnightblue" d="M227.453,-224.444C277.763,-214.944 358.973,-199.611 412.948,-189.42"/>
<polygon fill="midnightblue" stroke="midnightblue" points="413.853,-192.811 423.029,-187.516 412.554,-185.933 413.853,-192.811"/>
</g>
<!-- Node16 -->
<g id="node16" class="node"><title>Node16</title>
<g id="a_node16"><a xlink:href="receiver_8h.html" target="_top" xlink:title=" ">
<polygon fill="none" stroke="black" points="569.135,-168.5 569.135,-187.5 697.135,-187.5 697.135,-168.5 569.135,-168.5"/>
<text text-anchor="middle" x="633.135" y="-175.5" font-family="Helvetica,sans-Serif" font-size="10.00">sr/network/core/receiver.h</text>
</a>
</g>
</g>
<!-- Node4&#45;&gt;Node16 -->
<g id="edge19" class="edge"><title>Node4&#45;&gt;Node16</title>
<path fill="none" stroke="midnightblue" d="M250.432,-224.956C324,-216.272 444.799,-201.956 559.069,-188.125"/>
<polygon fill="midnightblue" stroke="midnightblue" points="559.536,-191.594 569.043,-186.917 558.694,-184.645 559.536,-191.594"/>
</g>
<!-- Node7&#45;&gt;Node5 -->
<g id="edge7" class="edge"><title>Node7&#45;&gt;Node5</title>
<path fill="none" stroke="midnightblue" d="M160.269,-168.444C137.086,-159.372 100.306,-144.98 74.3591,-134.827"/>
<polygon fill="midnightblue" stroke="midnightblue" points="75.5837,-131.548 64.9959,-131.163 73.0329,-138.066 75.5837,-131.548"/>
</g>
<!-- Node8 -->
<g id="node8" class="node"><title>Node8</title>
<g id="a_node8"><a xlink:title=" ">
<polygon fill="none" stroke="#bfbfbf" points="83.135,-112.5 83.135,-131.5 129.135,-131.5 129.135,-112.5 83.135,-112.5"/>
<text text-anchor="middle" x="106.135" y="-119.5" font-family="Helvetica,sans-Serif" font-size="10.00">chrono</text>
</a>
</g>
</g>
<!-- Node7&#45;&gt;Node8 -->
<g id="edge8" class="edge"><title>Node7&#45;&gt;Node8</title>
<path fill="none" stroke="midnightblue" d="M169.924,-168.324C158.359,-160.107 140.76,-147.602 126.974,-137.807"/>
<polygon fill="midnightblue" stroke="midnightblue" points="128.747,-134.773 118.568,-131.834 124.692,-140.479 128.747,-134.773"/>
</g>
<!-- Node9 -->
<g id="node9" class="node"><title>Node9</title>
<g id="a_node9"><a xlink:title=" ">
<polygon fill="none" stroke="#bfbfbf" points="147.135,-112.5 147.135,-131.5 191.135,-131.5 191.135,-112.5 147.135,-112.5"/>
<text text-anchor="middle" x="169.135" y="-119.5" font-family="Helvetica,sans-Serif" font-size="10.00">thread</text>
</a>
</g>
</g>
<!-- Node7&#45;&gt;Node9 -->
<g id="edge9" class="edge"><title>Node7&#45;&gt;Node9</title>
<path fill="none" stroke="midnightblue" d="M179.988,-168.083C178.266,-160.927 175.788,-150.635 173.635,-141.691"/>
<polygon fill="midnightblue" stroke="midnightblue" points="176.985,-140.654 171.242,-131.751 170.18,-142.293 176.985,-140.654"/>
</g>
<!-- Node10 -->
<g id="node10" class="node"><title>Node10</title>
<g id="a_node10"><a xlink:title=" ">
<polygon fill="none" stroke="#bfbfbf" points="209.135,-112.5 209.135,-131.5 253.135,-131.5 253.135,-112.5 209.135,-112.5"/>
<text text-anchor="middle" x="231.135" y="-119.5" font-family="Helvetica,sans-Serif" font-size="10.00">mutex</text>
</a>
</g>
</g>
<!-- Node7&#45;&gt;Node10 -->
<g id="edge10" class="edge"><title>Node7&#45;&gt;Node10</title>
<path fill="none" stroke="midnightblue" d="M190.226,-168.083C197.29,-160.298 207.723,-148.801 216.284,-139.367"/>
<polygon fill="midnightblue" stroke="midnightblue" points="219.066,-141.509 223.194,-131.751 213.882,-136.805 219.066,-141.509"/>
</g>
<!-- Node11 -->
<g id="node11" class="node"><title>Node11</title>
<g id="a_node11"><a xlink:href="transformation_8h.html" target="_top" xlink:title=" ">
<polygon fill="none" stroke="black" points="271.135,-112.5 271.135,-131.5 357.135,-131.5 357.135,-112.5 271.135,-112.5"/>
<text text-anchor="middle" x="314.135" y="-119.5" font-family="Helvetica,sans-Serif" font-size="10.00">transformation.h</text>
</a>
</g>
</g>
<!-- Node7&#45;&gt;Node11 -->
<g id="edge11" class="edge"><title>Node7&#45;&gt;Node11</title>
<path fill="none" stroke="midnightblue" d="M203.051,-168.444C224.871,-159.517 259.285,-145.439 284.027,-135.317"/>
<polygon fill="midnightblue" stroke="midnightblue" points="285.387,-138.542 293.317,-131.516 282.736,-132.063 285.387,-138.542"/>
</g>
<!-- Node11&#45;&gt;Node2 -->
<g id="edge13" class="edge"><title>Node11&#45;&gt;Node2</title>
<path fill="none" stroke="midnightblue" d="M309.346,-112.083C305.377,-104.691 299.61,-93.9533 294.7,-84.8111"/>
<polygon fill="midnightblue" stroke="midnightblue" points="297.649,-82.9051 289.835,-75.7511 291.483,-86.217 297.649,-82.9051"/>
</g>
<!-- Node12 -->
<g id="node12" class="node"><title>Node12</title>
<g id="a_node12"><a xlink:title=" ">
<polygon fill="none" stroke="#bfbfbf" points="333.135,-56.5 333.135,-75.5 437.135,-75.5 437.135,-56.5 333.135,-56.5"/>
<text text-anchor="middle" x="385.135" y="-63.5" font-family="Helvetica,sans-Serif" font-size="10.00">opencv2/opencv.hpp</text>
</a>
</g>
</g>
<!-- Node11&#45;&gt;Node12 -->
<g id="edge12" class="edge"><title>Node11&#45;&gt;Node12</title>
<path fill="none" stroke="midnightblue" d="M325.542,-112.324C336.244,-104.185 352.476,-91.8395 365.298,-82.0874"/>
<polygon fill="midnightblue" stroke="midnightblue" points="367.679,-84.6734 373.52,-75.8339 363.442,-79.1018 367.679,-84.6734"/>
</g>
<!-- Node13&#45;&gt;Node11 -->
<g id="edge17" class="edge"><title>Node13&#45;&gt;Node11</title>
<path fill="none" stroke="midnightblue" d="M312.465,-168.083C312.727,-161.006 313.103,-150.861 313.432,-141.986"/>
<polygon fill="midnightblue" stroke="midnightblue" points="316.938,-141.874 313.811,-131.751 309.943,-141.615 316.938,-141.874"/>
</g>
<!-- Node13&#45;&gt;Node12 -->
<g id="edge16" class="edge"><title>Node13&#45;&gt;Node12</title>
<path fill="none" stroke="midnightblue" d="M326.595,-168.435C338.836,-160.469 355.966,-147.514 366.135,-132 375.299,-118.019 380.145,-99.5167 382.642,-85.8286"/>
<polygon fill="midnightblue" stroke="midnightblue" points="386.144,-86.0884 384.231,-75.6678 379.228,-85.0071 386.144,-86.0884"/>
</g>
<!-- Node14 -->
<g id="node14" class="node"><title>Node14</title>
<g id="a_node14"><a xlink:title=" ">
<polygon fill="none" stroke="#bfbfbf" points="413.135,-112.5 413.135,-131.5 455.135,-131.5 455.135,-112.5 413.135,-112.5"/>
<text text-anchor="middle" x="434.135" y="-119.5" font-family="Helvetica,sans-Serif" font-size="10.00">vector</text>
</a>
</g>
</g>
<!-- Node13&#45;&gt;Node14 -->
<g id="edge15" class="edge"><title>Node13&#45;&gt;Node14</title>
<path fill="none" stroke="midnightblue" d="M331.466,-168.444C351.455,-159.596 382.878,-145.687 405.699,-135.586"/>
<polygon fill="midnightblue" stroke="midnightblue" points="407.167,-138.764 414.894,-131.516 404.333,-132.363 407.167,-138.764"/>
</g>
<!-- Node17 -->
<g id="node17" class="node"><title>Node17</title>
<g id="a_node17"><a xlink:href="packet_8h.html" target="_top" xlink:title=" ">
<polygon fill="none" stroke="black" points="560.135,-112.5 560.135,-131.5 614.135,-131.5 614.135,-112.5 560.135,-112.5"/>
<text text-anchor="middle" x="587.135" y="-119.5" font-family="Helvetica,sans-Serif" font-size="10.00">packet.h</text>
</a>
</g>
</g>
<!-- Node16&#45;&gt;Node17 -->
<g id="edge20" class="edge"><title>Node16&#45;&gt;Node17</title>
<path fill="none" stroke="midnightblue" d="M625.539,-168.083C618.908,-160.298 609.114,-148.801 601.077,-139.367"/>
<polygon fill="midnightblue" stroke="midnightblue" points="603.739,-137.094 594.59,-131.751 598.41,-141.633 603.739,-137.094"/>
</g>
<!-- Node17&#45;&gt;Node3 -->
<g id="edge21" class="edge"><title>Node17&#45;&gt;Node3</title>
<path fill="none" stroke="midnightblue" d="M571.284,-112.368C536.252,-93.2916 452.02,-47.4223 409.936,-24.5054"/>
<polygon fill="midnightblue" stroke="midnightblue" points="411.368,-21.3001 400.912,-19.5914 408.02,-27.4477 411.368,-21.3001"/>
</g>
<!-- Node18 -->
<g id="node18" class="node"><title>Node18</title>
<g id="a_node18"><a xlink:title=" ">
<polygon fill="none" stroke="#bfbfbf" points="525.135,-56.5 525.135,-75.5 579.135,-75.5 579.135,-56.5 525.135,-56.5"/>
<text text-anchor="middle" x="552.135" y="-63.5" font-family="Helvetica,sans-Serif" font-size="10.00">iostream</text>
</a>
</g>
</g>
<!-- Node17&#45;&gt;Node18 -->
<g id="edge22" class="edge"><title>Node17&#45;&gt;Node18</title>
<path fill="none" stroke="midnightblue" d="M581.355,-112.083C576.463,-104.534 569.308,-93.4948 563.302,-84.2298"/>
<polygon fill="midnightblue" stroke="midnightblue" points="566.183,-82.239 557.807,-75.7511 560.309,-86.0463 566.183,-82.239"/>
</g>
<!-- Node19 -->
<g id="node19" class="node"><title>Node19</title>
<g id="a_node19"><a xlink:title=" ">
<polygon fill="none" stroke="#bfbfbf" points="597.135,-56.5 597.135,-75.5 647.135,-75.5 647.135,-56.5 597.135,-56.5"/>
<text text-anchor="middle" x="622.135" y="-63.5" font-family="Helvetica,sans-Serif" font-size="10.00">iomanip</text>
</a>
</g>
</g>
<!-- Node17&#45;&gt;Node19 -->
<g id="edge23" class="edge"><title>Node17&#45;&gt;Node19</title>
<path fill="none" stroke="midnightblue" d="M592.915,-112.083C597.807,-104.534 604.962,-93.4948 610.968,-84.2298"/>
<polygon fill="midnightblue" stroke="midnightblue" points="613.961,-86.0463 616.463,-75.7511 608.087,-82.239 613.961,-86.0463"/>
</g>
</g>
</svg>
