<?xml version="1.0" encoding="UTF-8" standalone="no"?>
<!DOCTYPE svg PUBLIC "-//W3C//DTD SVG 1.1//EN"
 "http://www.w3.org/Graphics/SVG/1.1/DTD/svg11.dtd">
<!-- Generated by graphviz version 2.38.0 (20140413.2041)
 -->
<!-- Title: WindowsDisplayUtilities.h Pages: 1 -->
<svg width="759pt" height="140pt"
 viewBox="0.00 0.00 758.50 140.00" xmlns="http://www.w3.org/2000/svg" xmlns:xlink="http://www.w3.org/1999/xlink">
<g id="graph0" class="graph" transform="scale(1 1) rotate(0) translate(4 136)">
<title>WindowsDisplayUtilities.h</title>
<!-- Node1 -->
<g id="node1" class="node"><title>Node1</title>
<g id="a_node1"><a xlink:title=" ">
<polygon fill="#bfbfbf" stroke="black" points="261,-112.5 261,-131.5 390,-131.5 390,-112.5 261,-112.5"/>
<text text-anchor="middle" x="325.5" y="-119.5" font-family="Helvetica,sans-Serif" font-size="10.00">WindowsDisplayUtilities.h</text>
</a>
</g>
</g>
<!-- Node2 -->
<g id="node2" class="node"><title>Node2</title>
<g id="a_node2"><a xlink:title=" ">
<polygon fill="none" stroke="#bfbfbf" points="0,-56.5 0,-75.5 65,-75.5 65,-56.5 0,-56.5"/>
<text text-anchor="middle" x="32.5" y="-63.5" font-family="Helvetica,sans-Serif" font-size="10.00">Windows.h</text>
</a>
</g>
</g>
<!-- Node1&#45;&gt;Node2 -->
<g id="edge1" class="edge"><title>Node1&#45;&gt;Node2</title>
<path fill="none" stroke="midnightblue" d="M274.927,-112.448C226.35,-104.118 150.638,-90.833 75.1947,-76.0809"/>
<polygon fill="midnightblue" stroke="midnightblue" points="75.5242,-72.5788 65.0371,-74.0854 74.1747,-79.4475 75.5242,-72.5788"/>
</g>
<!-- Node3 -->
<g id="node3" class="node"><title>Node3</title>
<g id="a_node3"><a xlink:title=" ">
<polygon fill="none" stroke="#bfbfbf" points="83.5,-56.5 83.5,-75.5 149.5,-75.5 149.5,-56.5 83.5,-56.5"/>
<text text-anchor="middle" x="116.5" y="-63.5" font-family="Helvetica,sans-Serif" font-size="10.00">SetupAPI.h</text>
</a>
</g>
</g>
<!-- Node1&#45;&gt;Node3 -->
<g id="edge2" class="edge"><title>Node1&#45;&gt;Node3</title>
<path fill="none" stroke="midnightblue" d="M292.383,-112.444C256.382,-103.142 198.73,-88.246 159.314,-78.062"/>
<polygon fill="midnightblue" stroke="midnightblue" points="160.019,-74.6294 149.462,-75.5164 158.268,-81.4068 160.019,-74.6294"/>
</g>
<!-- Node4 -->
<g id="node4" class="node"><title>Node4</title>
<g id="a_node4"><a xlink:title=" ">
<polygon fill="none" stroke="#bfbfbf" points="167.5,-56.5 167.5,-75.5 205.5,-75.5 205.5,-56.5 167.5,-56.5"/>
<text text-anchor="middle" x="186.5" y="-63.5" font-family="Helvetica,sans-Serif" font-size="10.00">tuple</text>
</a>
</g>
</g>
<!-- Node1&#45;&gt;Node4 -->
<g id="edge3" class="edge"><title>Node1&#45;&gt;Node4</title>
<path fill="none" stroke="midnightblue" d="M303.475,-112.444C279.581,-103.161 241.348,-88.3078 215.138,-78.1254"/>
<polygon fill="midnightblue" stroke="midnightblue" points="216.325,-74.8318 205.736,-74.473 213.79,-81.3568 216.325,-74.8318"/>
</g>
<!-- Node5 -->
<g id="node5" class="node"><title>Node5</title>
<g id="a_node5"><a xlink:title=" ">
<polygon fill="none" stroke="#bfbfbf" points="223.5,-56.5 223.5,-75.5 265.5,-75.5 265.5,-56.5 223.5,-56.5"/>
<text text-anchor="middle" x="244.5" y="-63.5" font-family="Helvetica,sans-Serif" font-size="10.00">vector</text>
</a>
</g>
</g>
<!-- Node1&#45;&gt;Node5 -->
<g id="edge4" class="edge"><title>Node1&#45;&gt;Node5</title>
<path fill="none" stroke="midnightblue" d="M312.486,-112.324C299.968,-103.979 280.818,-91.2122 266.029,-81.3524"/>
<polygon fill="midnightblue" stroke="midnightblue" points="267.744,-78.2894 257.482,-75.6545 263.861,-84.1137 267.744,-78.2894"/>
</g>
<!-- Node6 -->
<g id="node6" class="node"><title>Node6</title>
<g id="a_node6"><a xlink:title=" ">
<polygon fill="none" stroke="#bfbfbf" points="283.5,-56.5 283.5,-75.5 313.5,-75.5 313.5,-56.5 283.5,-56.5"/>
<text text-anchor="middle" x="298.5" y="-63.5" font-family="Helvetica,sans-Serif" font-size="10.00">set</text>
</a>
</g>
</g>
<!-- Node1&#45;&gt;Node6 -->
<g id="edge5" class="edge"><title>Node1&#45;&gt;Node6</title>
<path fill="none" stroke="midnightblue" d="M321.041,-112.083C317.346,-104.691 311.977,-93.9533 307.406,-84.8111"/>
<polygon fill="midnightblue" stroke="midnightblue" points="310.478,-83.1301 302.876,-75.7511 304.217,-86.2606 310.478,-83.1301"/>
</g>
<!-- Node7 -->
<g id="node7" class="node"><title>Node7</title>
<g id="a_node7"><a xlink:title=" ">
<polygon fill="none" stroke="#bfbfbf" points="332,-56.5 332,-75.5 373,-75.5 373,-56.5 332,-56.5"/>
<text text-anchor="middle" x="352.5" y="-63.5" font-family="Helvetica,sans-Serif" font-size="10.00">string</text>
</a>
</g>
</g>
<!-- Node1&#45;&gt;Node7 -->
<g id="edge6" class="edge"><title>Node1&#45;&gt;Node7</title>
<path fill="none" stroke="midnightblue" d="M329.959,-112.083C333.654,-104.691 339.023,-93.9533 343.594,-84.8111"/>
<polygon fill="midnightblue" stroke="midnightblue" points="346.783,-86.2606 348.124,-75.7511 340.522,-83.1301 346.783,-86.2606"/>
</g>
<!-- Node8 -->
<g id="node8" class="node"><title>Node8</title>
<g id="a_node8"><a xlink:title=" ">
<polygon fill="none" stroke="#bfbfbf" points="391,-56.5 391,-75.5 440,-75.5 440,-56.5 391,-56.5"/>
<text text-anchor="middle" x="415.5" y="-63.5" font-family="Helvetica,sans-Serif" font-size="10.00">fstream</text>
</a>
</g>
</g>
<!-- Node1&#45;&gt;Node8 -->
<g id="edge7" class="edge"><title>Node1&#45;&gt;Node8</title>
<path fill="none" stroke="midnightblue" d="M339.96,-112.324C354,-103.9 375.548,-90.9709 392.043,-81.0741"/>
<polygon fill="midnightblue" stroke="midnightblue" points="394.302,-83.8007 401.076,-75.6545 390.7,-77.7983 394.302,-83.8007"/>
</g>
<!-- Node9 -->
<g id="node9" class="node"><title>Node9</title>
<g id="a_node9"><a xlink:title=" ">
<polygon fill="none" stroke="#bfbfbf" points="458,-56.5 458,-75.5 493,-75.5 493,-56.5 458,-56.5"/>
<text text-anchor="middle" x="475.5" y="-63.5" font-family="Helvetica,sans-Serif" font-size="10.00">map</text>
</a>
</g>
</g>
<!-- Node1&#45;&gt;Node9 -->
<g id="edge8" class="edge"><title>Node1&#45;&gt;Node9</title>
<path fill="none" stroke="midnightblue" d="M349.268,-112.444C376.196,-102.749 420.002,-86.9792 448.28,-76.799"/>
<polygon fill="midnightblue" stroke="midnightblue" points="449.713,-80.0033 457.936,-73.323 447.342,-73.4171 449.713,-80.0033"/>
</g>
<!-- Node10 -->
<g id="node10" class="node"><title>Node10</title>
<g id="a_node10"><a xlink:title=" ">
<polygon fill="none" stroke="#bfbfbf" points="511,-56.5 511,-75.5 672,-75.5 672,-56.5 511,-56.5"/>
<text text-anchor="middle" x="591.5" y="-63.5" font-family="Helvetica,sans-Serif" font-size="10.00">physicalmonitorEnumerationapi.h</text>
</a>
</g>
</g>
<!-- Node1&#45;&gt;Node10 -->
<g id="edge9" class="edge"><title>Node1&#45;&gt;Node10</title>
<path fill="none" stroke="midnightblue" d="M367.648,-112.444C414.246,-102.984 489.344,-87.7384 539.545,-77.5472"/>
<polygon fill="midnightblue" stroke="midnightblue" points="540.445,-80.936 549.549,-75.5164 539.052,-74.076 540.445,-80.936"/>
</g>
<!-- Node11 -->
<g id="node11" class="node"><title>Node11</title>
<g id="a_node11"><a xlink:href="types_8h.html" target="_top" xlink:title=" ">
<polygon fill="none" stroke="black" points="690.5,-56.5 690.5,-75.5 750.5,-75.5 750.5,-56.5 690.5,-56.5"/>
<text text-anchor="middle" x="720.5" y="-63.5" font-family="Helvetica,sans-Serif" font-size="10.00">sr/types.h</text>
</a>
</g>
</g>
<!-- Node1&#45;&gt;Node11 -->
<g id="edge10" class="edge"><title>Node1&#45;&gt;Node11</title>
<path fill="none" stroke="midnightblue" d="M390.108,-114.817C459.499,-107.73 573.162,-94.8358 680.313,-76.0559"/>
<polygon fill="midnightblue" stroke="midnightblue" points="681.093,-79.4724 690.328,-74.2799 679.871,-72.5799 681.093,-79.4724"/>
</g>
<!-- Node12 -->
<g id="node12" class="node"><title>Node12</title>
<g id="a_node12"><a xlink:title=" ">
<polygon fill="none" stroke="#bfbfbf" points="696,-0.5 696,-19.5 745,-19.5 745,-0.5 696,-0.5"/>
<text text-anchor="middle" x="720.5" y="-7.5" font-family="Helvetica,sans-Serif" font-size="10.00">stdint.h</text>
</a>
</g>
</g>
<!-- Node11&#45;&gt;Node12 -->
<g id="edge11" class="edge"><title>Node11&#45;&gt;Node12</title>
<path fill="none" stroke="midnightblue" d="M720.5,-56.083C720.5,-49.0059 720.5,-38.8611 720.5,-29.9865"/>
<polygon fill="midnightblue" stroke="midnightblue" points="724,-29.751 720.5,-19.7511 717,-29.7511 724,-29.751"/>
</g>
</g>
</svg>
