<?xml version="1.0" encoding="UTF-8" standalone="no"?>
<!DOCTYPE svg PUBLIC "-//W3C//DTD SVG 1.1//EN"
 "http://www.w3.org/Graphics/SVG/1.1/DTD/svg11.dtd">
<!-- Generated by graphviz version 2.38.0 (20140413.2041)
 -->
<!-- Title: worldobject.h Pages: 1 -->
<svg width="1743pt" height="196pt"
 viewBox="0.00 0.00 1743.00 196.00" xmlns="http://www.w3.org/2000/svg" xmlns:xlink="http://www.w3.org/1999/xlink">
<g id="graph0" class="graph" transform="scale(1 1) rotate(0) translate(4 192)">
<title>worldobject.h</title>
<!-- Node1 -->
<g id="node1" class="node"><title>Node1</title>
<g id="a_node1"><a xlink:title=" ">
<polygon fill="#bfbfbf" stroke="black" points="64,-168.5 64,-187.5 138,-187.5 138,-168.5 64,-168.5"/>
<text text-anchor="middle" x="101" y="-175.5" font-family="Helvetica,sans-Serif" font-size="10.00">worldobject.h</text>
</a>
</g>
</g>
<!-- Node2 -->
<g id="node2" class="node"><title>Node2</title>
<g id="a_node2"><a xlink:href="display_8h.html" target="_top" xlink:title=" ">
<polygon fill="none" stroke="black" points="0,-56.5 0,-75.5 56,-75.5 56,-56.5 0,-56.5"/>
<text text-anchor="middle" x="28" y="-63.5" font-family="Helvetica,sans-Serif" font-size="10.00">display.h</text>
</a>
</g>
</g>
<!-- Node1&#45;&gt;Node2 -->
<g id="edge1" class="edge"><title>Node1&#45;&gt;Node2</title>
<path fill="none" stroke="midnightblue" d="M89.6897,-159.957C73.8695,-136.118 45.7249,-93.7088 33.7016,-75.5914"/>
<polygon fill="midnightblue" stroke="midnightblue" points="86.826,-161.972 95.2718,-168.368 92.6585,-158.101 86.826,-161.972"/>
</g>
<!-- Node3 -->
<g id="node3" class="node"><title>Node3</title>
<g id="a_node3"><a xlink:href="screen_8h.html" target="_top" xlink:title=" ">
<polygon fill="none" stroke="black" points="74,-56.5 74,-75.5 128,-75.5 128,-56.5 74,-56.5"/>
<text text-anchor="middle" x="101" y="-63.5" font-family="Helvetica,sans-Serif" font-size="10.00">screen.h</text>
</a>
</g>
</g>
<!-- Node1&#45;&gt;Node3 -->
<g id="edge2" class="edge"><title>Node1&#45;&gt;Node3</title>
<path fill="none" stroke="midnightblue" d="M101,-158.348C101,-134.254 101,-93.3079 101,-75.5914"/>
<polygon fill="midnightblue" stroke="midnightblue" points="97.5001,-158.368 101,-168.368 104.5,-158.369 97.5001,-158.368"/>
</g>
<!-- Node4 -->
<g id="node4" class="node"><title>Node4</title>
<g id="a_node4"><a xlink:href="srcontext_8h.html" target="_top" xlink:title=" ">
<polygon fill="none" stroke="black" points="794.5,-112.5 794.5,-131.5 859.5,-131.5 859.5,-112.5 794.5,-112.5"/>
<text text-anchor="middle" x="827" y="-119.5" font-family="Helvetica,sans-Serif" font-size="10.00">srcontext.h</text>
</a>
</g>
</g>
<!-- Node1&#45;&gt;Node4 -->
<g id="edge3" class="edge"><title>Node1&#45;&gt;Node4</title>
<path fill="none" stroke="midnightblue" d="M148.139,-173.494C284.67,-163.339 678.064,-134.078 794.291,-125.433"/>
<polygon fill="midnightblue" stroke="midnightblue" points="147.713,-170.016 138.001,-174.248 148.233,-176.996 147.713,-170.016"/>
</g>
<!-- Node4&#45;&gt;Node2 -->
<g id="edge7" class="edge"><title>Node4&#45;&gt;Node2</title>
<path fill="none" stroke="midnightblue" d="M784.224,-121.156C667.959,-121.002 336.655,-116.723 65,-76 62.1233,-75.5688 59.1425,-75.0199 56.1783,-74.4066"/>
<polygon fill="midnightblue" stroke="midnightblue" points="784.475,-124.656 794.476,-121.159 784.477,-117.656 784.475,-124.656"/>
</g>
<!-- Node4&#45;&gt;Node3 -->
<g id="edge21" class="edge"><title>Node4&#45;&gt;Node3</title>
<path fill="none" stroke="midnightblue" d="M784.204,-120.875C675.427,-119.98 379.768,-113.946 137,-76 134.072,-75.5423 131.034,-74.9586 128.02,-74.3088"/>
<polygon fill="midnightblue" stroke="midnightblue" points="784.415,-124.376 794.44,-120.948 784.465,-117.376 784.415,-124.376"/>
</g>
<!-- Node5 -->
<g id="node5" class="node"><title>Node5</title>
<g id="a_node5"><a xlink:href="applicationsense_8h.html" target="_top" xlink:title=" ">
<polygon fill="none" stroke="black" points="1194,-56.5 1194,-75.5 1292,-75.5 1292,-56.5 1194,-56.5"/>
<text text-anchor="middle" x="1243" y="-63.5" font-family="Helvetica,sans-Serif" font-size="10.00">applicationsense.h</text>
</a>
</g>
</g>
<!-- Node4&#45;&gt;Node5 -->
<g id="edge4" class="edge"><title>Node4&#45;&gt;Node5</title>
<path fill="none" stroke="midnightblue" d="M869.817,-116.023C937.027,-108.12 1071.36,-91.9563 1185,-76 1187.93,-75.5891 1190.93,-75.1558 1193.97,-74.7105"/>
<polygon fill="midnightblue" stroke="midnightblue" points="869.144,-112.578 859.62,-117.22 869.96,-119.531 869.144,-112.578"/>
</g>
<!-- Node6 -->
<g id="node6" class="node"><title>Node6</title>
<g id="a_node6"><a xlink:href="camera_8h.html" target="_top" xlink:title=" ">
<polygon fill="none" stroke="black" points="1310.5,-56.5 1310.5,-75.5 1367.5,-75.5 1367.5,-56.5 1310.5,-56.5"/>
<text text-anchor="middle" x="1339" y="-63.5" font-family="Helvetica,sans-Serif" font-size="10.00">camera.h</text>
</a>
</g>
</g>
<!-- Node4&#45;&gt;Node6 -->
<g id="edge5" class="edge"><title>Node4&#45;&gt;Node6</title>
<path fill="none" stroke="midnightblue" d="M869.775,-118.92C953.184,-114.427 1143.21,-102.049 1301,-76 1304.08,-75.492 1307.28,-74.876 1310.45,-74.2072"/>
<polygon fill="midnightblue" stroke="midnightblue" points="869.471,-115.431 859.669,-119.453 869.84,-122.421 869.471,-115.431"/>
</g>
<!-- Node8 -->
<g id="node8" class="node"><title>Node8</title>
<g id="a_node8"><a xlink:href="dx10weaver_8h.html" target="_top" xlink:title=" ">
<polygon fill="none" stroke="black" points="1385.5,-56.5 1385.5,-75.5 1460.5,-75.5 1460.5,-56.5 1385.5,-56.5"/>
<text text-anchor="middle" x="1423" y="-63.5" font-family="Helvetica,sans-Serif" font-size="10.00">dx10weaver.h</text>
</a>
</g>
</g>
<!-- Node4&#45;&gt;Node8 -->
<g id="edge8" class="edge"><title>Node4&#45;&gt;Node8</title>
<path fill="none" stroke="midnightblue" d="M869.806,-119.126C962.58,-114.709 1188.99,-102.002 1377,-76 1379.74,-75.621 1382.56,-75.1839 1385.4,-74.7108"/>
<polygon fill="midnightblue" stroke="midnightblue" points="869.51,-115.636 859.684,-119.601 869.837,-122.629 869.51,-115.636"/>
</g>
<!-- Node9 -->
<g id="node9" class="node"><title>Node9</title>
<g id="a_node9"><a xlink:href="dx11weaver_8h.html" target="_top" xlink:title=" ">
<polygon fill="none" stroke="black" points="1478.5,-56.5 1478.5,-75.5 1553.5,-75.5 1553.5,-56.5 1478.5,-56.5"/>
<text text-anchor="middle" x="1516" y="-63.5" font-family="Helvetica,sans-Serif" font-size="10.00">dx11weaver.h</text>
</a>
</g>
</g>
<!-- Node4&#45;&gt;Node9 -->
<g id="edge9" class="edge"><title>Node4&#45;&gt;Node9</title>
<path fill="none" stroke="midnightblue" d="M869.638,-119.833C973.008,-116.61 1245.03,-105.764 1470,-76 1472.74,-75.6371 1475.57,-75.2119 1478.41,-74.7472"/>
<polygon fill="midnightblue" stroke="midnightblue" points="869.482,-116.336 859.593,-120.139 869.695,-123.333 869.482,-116.336"/>
</g>
<!-- Node11 -->
<g id="node11" class="node"><title>Node11</title>
<g id="a_node11"><a xlink:href="dx12weaver_8h.html" target="_top" xlink:title=" ">
<polygon fill="none" stroke="black" points="1571.5,-56.5 1571.5,-75.5 1646.5,-75.5 1646.5,-56.5 1571.5,-56.5"/>
<text text-anchor="middle" x="1609" y="-63.5" font-family="Helvetica,sans-Serif" font-size="10.00">dx12weaver.h</text>
</a>
</g>
</g>
<!-- Node4&#45;&gt;Node11 -->
<g id="edge11" class="edge"><title>Node4&#45;&gt;Node11</title>
<path fill="none" stroke="midnightblue" d="M869.813,-120.357C983.289,-118.226 1301.02,-109.488 1563,-76 1565.74,-75.6492 1568.57,-75.2328 1571.41,-74.7745"/>
<polygon fill="midnightblue" stroke="midnightblue" points="869.726,-116.858 859.791,-120.538 869.852,-123.857 869.726,-116.858"/>
</g>
<!-- Node12 -->
<g id="node12" class="node"><title>Node12</title>
<g id="a_node12"><a xlink:href="dx9weaver_8h.html" target="_top" xlink:title=" ">
<polygon fill="none" stroke="black" points="1665,-56.5 1665,-75.5 1735,-75.5 1735,-56.5 1665,-56.5"/>
<text text-anchor="middle" x="1700" y="-63.5" font-family="Helvetica,sans-Serif" font-size="10.00">dx9weaver.h</text>
</a>
</g>
</g>
<!-- Node4&#45;&gt;Node12 -->
<g id="edge12" class="edge"><title>Node4&#45;&gt;Node12</title>
<path fill="none" stroke="midnightblue" d="M869.655,-120.899C992.367,-120.134 1356.65,-114.526 1656,-76 1658.78,-75.6417 1661.66,-75.2062 1664.53,-74.7223"/>
<polygon fill="midnightblue" stroke="midnightblue" points="869.53,-117.4 859.549,-120.955 869.568,-124.4 869.53,-117.4"/>
</g>
<!-- Node13 -->
<g id="node13" class="node"><title>Node13</title>
<g id="a_node13"><a xlink:href="eyetracker_8h.html" target="_top" xlink:title=" ">
<polygon fill="none" stroke="black" points="146.5,-56.5 146.5,-75.5 217.5,-75.5 217.5,-56.5 146.5,-56.5"/>
<text text-anchor="middle" x="182" y="-63.5" font-family="Helvetica,sans-Serif" font-size="10.00">eyetracker.h</text>
</a>
</g>
</g>
<!-- Node4&#45;&gt;Node13 -->
<g id="edge13" class="edge"><title>Node4&#45;&gt;Node13</title>
<path fill="none" stroke="midnightblue" d="M784.161,-119.59C685.485,-115.949 434.697,-104.449 227,-76 224,-75.5891 220.9,-75.1019 217.794,-74.5701"/>
<polygon fill="midnightblue" stroke="midnightblue" points="784.213,-123.094 794.333,-119.957 784.465,-116.098 784.213,-123.094"/>
</g>
<!-- Node16 -->
<g id="node16" class="node"><title>Node16</title>
<g id="a_node16"><a xlink:href="gestureanalyser_8h.html" target="_top" xlink:title=" ">
<polygon fill="none" stroke="black" points="338,-56.5 338,-75.5 432,-75.5 432,-56.5 338,-56.5"/>
<text text-anchor="middle" x="385" y="-63.5" font-family="Helvetica,sans-Serif" font-size="10.00">gestureanalyser.h</text>
</a>
</g>
</g>
<!-- Node4&#45;&gt;Node16 -->
<g id="edge16" class="edge"><title>Node4&#45;&gt;Node16</title>
<path fill="none" stroke="midnightblue" d="M784.03,-116.605C712.672,-109.168 565.271,-93.2217 441,-76 438.074,-75.5945 435.065,-75.1604 432.032,-74.7101"/>
<polygon fill="midnightblue" stroke="midnightblue" points="784.097,-120.13 794.405,-117.682 784.82,-113.168 784.097,-120.13"/>
</g>
<!-- Node17 -->
<g id="node17" class="node"><title>Node17</title>
<g id="a_node17"><a xlink:href="glweaver_8h.html" target="_top" xlink:title=" ">
<polygon fill="none" stroke="black" points="450,-56.5 450,-75.5 512,-75.5 512,-56.5 450,-56.5"/>
<text text-anchor="middle" x="481" y="-63.5" font-family="Helvetica,sans-Serif" font-size="10.00">glweaver.h</text>
</a>
</g>
</g>
<!-- Node4&#45;&gt;Node17 -->
<g id="edge17" class="edge"><title>Node4&#45;&gt;Node17</title>
<path fill="none" stroke="midnightblue" d="M784.139,-115.732C724.804,-108.205 614.381,-93.3461 521,-76 518.201,-75.48 515.3,-74.9028 512.397,-74.2989"/>
<polygon fill="midnightblue" stroke="midnightblue" points="783.9,-119.23 794.26,-117.008 784.776,-112.285 783.9,-119.23"/>
</g>
<!-- Node18 -->
<g id="node18" class="node"><title>Node18</title>
<g id="a_node18"><a xlink:href="handtracker_8h.html" target="_top" xlink:title=" ">
<polygon fill="none" stroke="black" points="530,-56.5 530,-75.5 606,-75.5 606,-56.5 530,-56.5"/>
<text text-anchor="middle" x="568" y="-63.5" font-family="Helvetica,sans-Serif" font-size="10.00">handtracker.h</text>
</a>
</g>
</g>
<!-- Node4&#45;&gt;Node18 -->
<g id="edge18" class="edge"><title>Node4&#45;&gt;Node18</title>
<path fill="none" stroke="midnightblue" d="M784.379,-112.114C734.787,-101.774 653.642,-84.8559 606.079,-74.9392"/>
<polygon fill="midnightblue" stroke="midnightblue" points="783.956,-115.601 794.46,-114.216 785.385,-108.748 783.956,-115.601"/>
</g>
<!-- Node19 -->
<g id="node19" class="node"><title>Node19</title>
<g id="a_node19"><a xlink:href="headposetracker_8h.html" target="_top" xlink:title=" ">
<polygon fill="none" stroke="black" points="624.5,-56.5 624.5,-75.5 721.5,-75.5 721.5,-56.5 624.5,-56.5"/>
<text text-anchor="middle" x="673" y="-63.5" font-family="Helvetica,sans-Serif" font-size="10.00">headposetracker.h</text>
</a>
</g>
</g>
<!-- Node4&#45;&gt;Node19 -->
<g id="edge19" class="edge"><title>Node4&#45;&gt;Node19</title>
<path fill="none" stroke="midnightblue" d="M792.889,-109.039C763.913,-98.8786 723.038,-84.5457 697.288,-75.5164"/>
<polygon fill="midnightblue" stroke="midnightblue" points="792.003,-112.437 802.598,-112.444 794.32,-105.832 792.003,-112.437"/>
</g>
<!-- Node20 -->
<g id="node20" class="node"><title>Node20</title>
<g id="a_node20"><a xlink:href="headtracker_8h.html" target="_top" xlink:title=" ">
<polygon fill="none" stroke="black" points="740,-56.5 740,-75.5 816,-75.5 816,-56.5 740,-56.5"/>
<text text-anchor="middle" x="778" y="-63.5" font-family="Helvetica,sans-Serif" font-size="10.00">headtracker.h</text>
</a>
</g>
</g>
<!-- Node4&#45;&gt;Node20 -->
<g id="edge20" class="edge"><title>Node4&#45;&gt;Node20</title>
<path fill="none" stroke="midnightblue" d="M811.966,-104.431C803.378,-94.9673 792.957,-83.4827 785.941,-75.7511"/>
<polygon fill="midnightblue" stroke="midnightblue" points="809.597,-107.029 818.909,-112.083 814.781,-102.325 809.597,-107.029"/>
</g>
<!-- Node21 -->
<g id="node21" class="node"><title>Node21</title>
<g id="a_node21"><a xlink:href="switchablehint_8h.html" target="_top" xlink:title=" ">
<polygon fill="none" stroke="black" points="834,-56.5 834,-75.5 920,-75.5 920,-56.5 834,-56.5"/>
<text text-anchor="middle" x="877" y="-63.5" font-family="Helvetica,sans-Serif" font-size="10.00">switchablehint.h</text>
</a>
</g>
</g>
<!-- Node4&#45;&gt;Node21 -->
<g id="edge22" class="edge"><title>Node4&#45;&gt;Node21</title>
<path fill="none" stroke="midnightblue" d="M842.076,-104.718C850.889,-95.1997 861.666,-83.5608 868.897,-75.7511"/>
<polygon fill="midnightblue" stroke="midnightblue" points="839.482,-102.367 835.256,-112.083 844.619,-107.123 839.482,-102.367"/>
</g>
<!-- Node22 -->
<g id="node22" class="node"><title>Node22</title>
<g id="a_node22"><a xlink:href="systemsense_8h.html" target="_top" xlink:title=" ">
<polygon fill="none" stroke="black" points="938.5,-56.5 938.5,-75.5 1021.5,-75.5 1021.5,-56.5 938.5,-56.5"/>
<text text-anchor="middle" x="980" y="-63.5" font-family="Helvetica,sans-Serif" font-size="10.00">systemsense.h</text>
</a>
</g>
</g>
<!-- Node4&#45;&gt;Node22 -->
<g id="edge23" class="edge"><title>Node4&#45;&gt;Node22</title>
<path fill="none" stroke="midnightblue" d="M860.889,-109.039C889.677,-98.8786 930.287,-84.5457 955.87,-75.5164"/>
<polygon fill="midnightblue" stroke="midnightblue" points="859.508,-105.815 851.243,-112.444 861.838,-112.416 859.508,-105.815"/>
</g>
<!-- Node23 -->
<g id="node23" class="node"><title>Node23</title>
<g id="a_node23"><a xlink:href="weavertracker_8h.html" target="_top" xlink:title=" ">
<polygon fill="none" stroke="black" points="236,-56.5 236,-75.5 320,-75.5 320,-56.5 236,-56.5"/>
<text text-anchor="middle" x="278" y="-63.5" font-family="Helvetica,sans-Serif" font-size="10.00">weavertracker.h</text>
</a>
</g>
</g>
<!-- Node4&#45;&gt;Node23 -->
<g id="edge24" class="edge"><title>Node4&#45;&gt;Node23</title>
<path fill="none" stroke="midnightblue" d="M784.061,-118.348C697.65,-112.74 496.689,-98.3317 329,-76 326.148,-75.6202 323.212,-75.1947 320.258,-74.7409"/>
<polygon fill="midnightblue" stroke="midnightblue" points="784.06,-121.855 794.264,-119.004 784.509,-114.869 784.06,-121.855"/>
</g>
<!-- Node24 -->
<g id="node24" class="node"><title>Node24</title>
<g id="a_node24"><a xlink:href="window_8h.html" target="_top" xlink:title=" ">
<polygon fill="none" stroke="black" points="1040,-56.5 1040,-75.5 1096,-75.5 1096,-56.5 1040,-56.5"/>
<text text-anchor="middle" x="1068" y="-63.5" font-family="Helvetica,sans-Serif" font-size="10.00">window.h</text>
</a>
</g>
</g>
<!-- Node4&#45;&gt;Node24 -->
<g id="edge26" class="edge"><title>Node4&#45;&gt;Node24</title>
<path fill="none" stroke="midnightblue" d="M869.538,-111.895C910.847,-102.988 975.305,-88.9151 1031,-76 1033.83,-75.3429 1036.79,-74.6458 1039.73,-73.9419"/>
<polygon fill="midnightblue" stroke="midnightblue" points="868.593,-108.518 859.554,-114.045 870.066,-115.362 868.593,-108.518"/>
</g>
<!-- Node25 -->
<g id="node25" class="node"><title>Node25</title>
<g id="a_node25"><a xlink:href="window2_8h.html" target="_top" xlink:title=" ">
<polygon fill="none" stroke="black" points="1114,-56.5 1114,-75.5 1176,-75.5 1176,-56.5 1114,-56.5"/>
<text text-anchor="middle" x="1145" y="-63.5" font-family="Helvetica,sans-Serif" font-size="10.00">window2.h</text>
</a>
</g>
</g>
<!-- Node4&#45;&gt;Node25 -->
<g id="edge27" class="edge"><title>Node4&#45;&gt;Node25</title>
<path fill="none" stroke="midnightblue" d="M869.663,-114.918C924.351,-106.933 1022.02,-92.0357 1105,-76 1107.8,-75.4598 1110.69,-74.8686 1113.59,-74.2557"/>
<polygon fill="midnightblue" stroke="midnightblue" points="869.034,-111.473 859.641,-116.374 870.04,-118.4 869.034,-111.473"/>
</g>
<!-- Node7 -->
<g id="node7" class="node"><title>Node7</title>
<g id="a_node7"><a xlink:href="cameracontroller_8h.html" target="_top" xlink:title=" ">
<polygon fill="none" stroke="black" points="1290.5,-0.5 1290.5,-19.5 1387.5,-19.5 1387.5,-0.5 1290.5,-0.5"/>
<text text-anchor="middle" x="1339" y="-7.5" font-family="Helvetica,sans-Serif" font-size="10.00">cameracontroller.h</text>
</a>
</g>
</g>
<!-- Node6&#45;&gt;Node7 -->
<g id="edge6" class="edge"><title>Node6&#45;&gt;Node7</title>
<path fill="none" stroke="midnightblue" d="M1339,-45.8045C1339,-36.9102 1339,-26.7798 1339,-19.7511"/>
<polygon fill="midnightblue" stroke="midnightblue" points="1335.5,-46.083 1339,-56.083 1342.5,-46.083 1335.5,-46.083"/>
</g>
<!-- Node10 -->
<g id="node10" class="node"><title>Node10</title>
<g id="a_node10"><a xlink:href="dxweaver_8h.html" target="_top" xlink:title=" ">
<polygon fill="none" stroke="black" points="1483.5,-0.5 1483.5,-19.5 1548.5,-19.5 1548.5,-0.5 1483.5,-0.5"/>
<text text-anchor="middle" x="1516" y="-7.5" font-family="Helvetica,sans-Serif" font-size="10.00">dxweaver.h</text>
</a>
</g>
</g>
<!-- Node9&#45;&gt;Node10 -->
<g id="edge10" class="edge"><title>Node9&#45;&gt;Node10</title>
<path fill="none" stroke="midnightblue" d="M1516,-45.8045C1516,-36.9102 1516,-26.7798 1516,-19.7511"/>
<polygon fill="midnightblue" stroke="midnightblue" points="1512.5,-46.083 1516,-56.083 1519.5,-46.083 1512.5,-46.083"/>
</g>
<!-- Node14 -->
<g id="node14" class="node"><title>Node14</title>
<g id="a_node14"><a xlink:href="predictingeyetracker_8h.html" target="_top" xlink:title=" ">
<polygon fill="none" stroke="black" points="83.5,-0.5 83.5,-19.5 196.5,-19.5 196.5,-0.5 83.5,-0.5"/>
<text text-anchor="middle" x="140" y="-7.5" font-family="Helvetica,sans-Serif" font-size="10.00">predictingeyetracker.h</text>
</a>
</g>
</g>
<!-- Node13&#45;&gt;Node14 -->
<g id="edge14" class="edge"><title>Node13&#45;&gt;Node14</title>
<path fill="none" stroke="midnightblue" d="M168.89,-48.144C161.572,-38.7357 152.759,-27.4046 146.806,-19.7511"/>
<polygon fill="midnightblue" stroke="midnightblue" points="166.162,-50.3383 175.065,-56.083 171.688,-46.0406 166.162,-50.3383"/>
</g>
<!-- Node15 -->
<g id="node15" class="node"><title>Node15</title>
<g id="a_node15"><a xlink:href="predictingweavertracker_8h.html" target="_top" xlink:title=" ">
<polygon fill="none" stroke="black" points="215,-0.5 215,-19.5 341,-19.5 341,-0.5 215,-0.5"/>
<text text-anchor="middle" x="278" y="-7.5" font-family="Helvetica,sans-Serif" font-size="10.00">predictingweavertracker.h</text>
</a>
</g>
</g>
<!-- Node13&#45;&gt;Node15 -->
<g id="edge15" class="edge"><title>Node13&#45;&gt;Node15</title>
<path fill="none" stroke="midnightblue" d="M206.574,-51.1774C224.239,-41.2407 247.513,-28.1492 262.614,-19.6545"/>
<polygon fill="midnightblue" stroke="midnightblue" points="204.424,-48.3708 197.424,-56.324 207.856,-54.4718 204.424,-48.3708"/>
</g>
<!-- Node23&#45;&gt;Node15 -->
<g id="edge25" class="edge"><title>Node23&#45;&gt;Node15</title>
<path fill="none" stroke="midnightblue" d="M278,-45.8045C278,-36.9102 278,-26.7798 278,-19.7511"/>
<polygon fill="midnightblue" stroke="midnightblue" points="274.5,-46.083 278,-56.083 281.5,-46.083 274.5,-46.083"/>
</g>
</g>
</svg>
